<?xml version="1.0" encoding="UTF-8" standalone="no"?>
<!DOCTYPE svg PUBLIC "-//W3C//DTD SVG 1.1//EN"
 "http://www.w3.org/Graphics/SVG/1.1/DTD/svg11.dtd">
<!-- Generated by graphviz version 2.43.0 (0)
 -->
<!-- Title: UQuadDroneController::ThrustMixer Pages: 1 -->
<svg width="785pt" height="88pt"
 viewBox="0.00 0.00 785.00 88.00" xmlns="http://www.w3.org/2000/svg" xmlns:xlink="http://www.w3.org/1999/xlink">
<g id="graph0" class="graph" transform="scale(1 1) rotate(0) translate(4 84)">
<title>UQuadDroneController::ThrustMixer</title>
<polygon fill="white" stroke="transparent" points="-4,4 -4,-84 781,-84 781,4 -4,4"/>
<!-- Node1 -->
<g id="node1" class="node">
<title>Node1</title>
<g id="a_node1"><a xlink:title=" ">
<polygon fill="#bfbfbf" stroke="black" points="650,-24.5 650,-54.5 777,-54.5 777,-24.5 650,-24.5"/>
<text text-anchor="start" x="658" y="-42.5" font-family="Helvetica,sans-Serif" font-size="10.00">UQuadDroneController</text>
<text text-anchor="middle" x="713.5" y="-31.5" font-family="Helvetica,sans-Serif" font-size="10.00">::ThrustMixer</text>
</a>
</g>
</g>
<!-- Node2 -->
<g id="node2" class="node">
<title>Node2</title>
<g id="a_node2"><a xlink:href="classUQuadDroneController.html#a515f29c2d36616543fd6eb95d9e930e0" target="_top" xlink:title=" ">
<polygon fill="white" stroke="black" points="487,-49.5 487,-79.5 614,-79.5 614,-49.5 487,-49.5"/>
<text text-anchor="start" x="495" y="-67.5" font-family="Helvetica,sans-Serif" font-size="10.00">UQuadDroneController</text>
<text text-anchor="middle" x="550.5" y="-56.5" font-family="Helvetica,sans-Serif" font-size="10.00">::FlightController</text>
</a>
</g>
</g>
<!-- Node1&#45;&gt;Node2 -->
<g id="edge1" class="edge">
<title>Node1&#45;&gt;Node2</title>
<path fill="none" stroke="midnightblue" d="M639.78,-50.79C631.19,-52.13 622.47,-53.48 614.04,-54.79"/>
<polygon fill="midnightblue" stroke="midnightblue" points="640.45,-54.23 649.79,-49.24 639.37,-47.31 640.45,-54.23"/>
</g>
<!-- Node6 -->
<g id="node6" class="node">
<title>Node6</title>
<g id="a_node6"><a xlink:href="classUQuadDroneController.html#afe4037b4e2ff01815729474bff090ea0" target="_top" xlink:title=" ">
<polygon fill="white" stroke="black" points="487,-0.5 487,-30.5 614,-30.5 614,-0.5 487,-0.5"/>
<text text-anchor="start" x="495" y="-18.5" font-family="Helvetica,sans-Serif" font-size="10.00">UQuadDroneController</text>
<text text-anchor="middle" x="550.5" y="-7.5" font-family="Helvetica,sans-Serif" font-size="10.00">::GamepadController</text>
</a>
</g>
</g>
<!-- Node1&#45;&gt;Node6 -->
<g id="edge5" class="edge">
<title>Node1&#45;&gt;Node6</title>
<path fill="none" stroke="midnightblue" d="M639.78,-28.66C631.19,-27.38 622.47,-26.08 614.04,-24.82"/>
<polygon fill="midnightblue" stroke="midnightblue" points="639.39,-32.14 649.79,-30.15 640.42,-25.22 639.39,-32.14"/>
</g>
<!-- Node3 -->
<g id="node3" class="node">
<title>Node3</title>
<g id="a_node3"><a xlink:href="classUQuadDroneController.html#aeacce81326aab408e9f95553fb3ae2bc" target="_top" xlink:title=" ">
<polygon fill="white" stroke="black" points="324,-24.5 324,-54.5 451,-54.5 451,-24.5 324,-24.5"/>
<text text-anchor="start" x="332" y="-42.5" font-family="Helvetica,sans-Serif" font-size="10.00">UQuadDroneController</text>
<text text-anchor="middle" x="387.5" y="-31.5" font-family="Helvetica,sans-Serif" font-size="10.00">::Update</text>
</a>
</g>
</g>
<!-- Node2&#45;&gt;Node3 -->
<g id="edge2" class="edge">
<title>Node2&#45;&gt;Node3</title>
<path fill="none" stroke="midnightblue" d="M476.78,-53.21C468.19,-51.87 459.47,-50.52 451.04,-49.21"/>
<polygon fill="midnightblue" stroke="midnightblue" points="476.37,-56.69 486.79,-54.76 477.45,-49.77 476.37,-56.69"/>
</g>
<!-- Node4 -->
<g id="node4" class="node">
<title>Node4</title>
<g id="a_node4"><a xlink:href="classAQuadPawn.html#aaf5f515b74f9316e932e4e1ccf9878ba" target="_top" xlink:title=" ">
<polygon fill="white" stroke="black" points="137,-30 137,-49 288,-49 288,-30 137,-30"/>
<text text-anchor="middle" x="212.5" y="-37" font-family="Helvetica,sans-Serif" font-size="10.00">AQuadPawn::UpdateControl</text>
</a>
</g>
</g>
<!-- Node3&#45;&gt;Node4 -->
<g id="edge3" class="edge">
<title>Node3&#45;&gt;Node4</title>
<path fill="none" stroke="midnightblue" d="M313.45,-39.5C305.09,-39.5 296.55,-39.5 288.16,-39.5"/>
<polygon fill="midnightblue" stroke="midnightblue" points="313.55,-43 323.55,-39.5 313.55,-36 313.55,-43"/>
</g>
<!-- Node5 -->
<g id="node5" class="node">
<title>Node5</title>
<g id="a_node5"><a xlink:href="classAQuadPawn.html#abddecbb307ce019d37ecf4b3dfcecad3" target="_top" xlink:title=" ">
<polygon fill="white" stroke="black" points="0,-30 0,-49 101,-49 101,-30 0,-30"/>
<text text-anchor="middle" x="50.5" y="-37" font-family="Helvetica,sans-Serif" font-size="10.00">AQuadPawn::Tick</text>
</a>
</g>
</g>
<!-- Node4&#45;&gt;Node5 -->
<g id="edge4" class="edge">
<title>Node4&#45;&gt;Node5</title>
<path fill="none" stroke="midnightblue" d="M126.48,-39.5C117.83,-39.5 109.26,-39.5 101.17,-39.5"/>
<polygon fill="midnightblue" stroke="midnightblue" points="126.65,-43 136.65,-39.5 126.65,-36 126.65,-43"/>
</g>
<!-- Node6&#45;&gt;Node3 -->
<g id="edge6" class="edge">
<title>Node6&#45;&gt;Node3</title>
<path fill="none" stroke="midnightblue" d="M476.78,-26.34C468.19,-27.62 459.47,-28.92 451.04,-30.18"/>
<polygon fill="midnightblue" stroke="midnightblue" points="477.42,-29.78 486.79,-24.85 476.39,-22.86 477.42,-29.78"/>
</g>
</g>
</svg>
