<?xml version="1.0" encoding="UTF-8" standalone="no"?>
<!DOCTYPE svg PUBLIC "-//W3C//DTD SVG 1.1//EN"
 "http://www.w3.org/Graphics/SVG/1.1/DTD/svg11.dtd">
<!-- Generated by graphviz version 2.43.0 (0)
 -->
<!-- Title: UQuadDroneController::GetCurrentVelocity Pages: 1 -->
<svg width="547pt" height="39pt"
 viewBox="0.00 0.00 547.00 39.00" xmlns="http://www.w3.org/2000/svg" xmlns:xlink="http://www.w3.org/1999/xlink">
<g id="graph0" class="graph" transform="scale(1 1) rotate(0) translate(4 35)">
<title>UQuadDroneController::GetCurrentVelocity</title>
<polygon fill="white" stroke="transparent" points="-4,4 -4,-35 543,-35 543,4 -4,4"/>
<!-- Node1 -->
<g id="node1" class="node">
<title>Node1</title>
<g id="a_node1"><a xlink:title=" ">
<polygon fill="#bfbfbf" stroke="black" points="412,-0.5 412,-30.5 539,-30.5 539,-0.5 412,-0.5"/>
<text text-anchor="start" x="420" y="-18.5" font-family="Helvetica,sans-Serif" font-size="10.00">UQuadDroneController</text>
<text text-anchor="middle" x="475.5" y="-7.5" font-family="Helvetica,sans-Serif" font-size="10.00">::GetCurrentVelocity</text>
</a>
</g>
</g>
<!-- Node2 -->
<g id="node2" class="node">
<title>Node2</title>
<g id="a_node2"><a xlink:href="classAROS2Controller.html#a99393b7f50265b59c6c4644913be81e9" target="_top" xlink:title=" ">
<polygon fill="white" stroke="black" points="188,-0.5 188,-30.5 376,-30.5 376,-0.5 188,-0.5"/>
<text text-anchor="start" x="196" y="-18.5" font-family="Helvetica,sans-Serif" font-size="10.00">AROS2Controller::UpdateOdometry</text>
<text text-anchor="middle" x="282" y="-7.5" font-family="Helvetica,sans-Serif" font-size="10.00">Message</text>
</a>
</g>
</g>
<!-- Node1&#45;&gt;Node2 -->
<g id="edge1" class="edge">
<title>Node1&#45;&gt;Node2</title>
<path fill="none" stroke="midnightblue" d="M401.7,-15.5C393.31,-15.5 384.67,-15.5 376.05,-15.5"/>
<polygon fill="midnightblue" stroke="midnightblue" points="401.8,-19 411.8,-15.5 401.8,-12 401.8,-19"/>
</g>
<!-- Node3 -->
<g id="node3" class="node">
<title>Node3</title>
<g id="a_node3"><a xlink:href="classAROS2Controller.html#a950f5d2c970783f3687246ecde0a6220" target="_top" xlink:title=" ">
<polygon fill="white" stroke="black" points="0,-6 0,-25 152,-25 152,-6 0,-6"/>
<text text-anchor="middle" x="76" y="-13" font-family="Helvetica,sans-Serif" font-size="10.00">AROS2Controller::BeginPlay</text>
</a>
</g>
</g>
<!-- Node2&#45;&gt;Node3 -->
<g id="edge2" class="edge">
<title>Node2&#45;&gt;Node3</title>
<path fill="none" stroke="midnightblue" d="M177.82,-15.5C169.18,-15.5 160.55,-15.5 152.19,-15.5"/>
<polygon fill="midnightblue" stroke="midnightblue" points="177.95,-19 187.95,-15.5 177.95,-12 177.95,-19"/>
</g>
</g>
</svg>
