<?xml version="1.0" encoding="UTF-8" standalone="no"?>
<!DOCTYPE svg PUBLIC "-//W3C//DTD SVG 1.1//EN"
 "http://www.w3.org/Graphics/SVG/1.1/DTD/svg11.dtd">
<!-- Generated by graphviz version 2.43.0 (0)
 -->
<!-- Title: UQuadDroneController::ResetPID Pages: 1 -->
<svg width="690pt" height="127pt"
 viewBox="0.00 0.00 690.00 126.50" xmlns="http://www.w3.org/2000/svg" xmlns:xlink="http://www.w3.org/1999/xlink">
<g id="graph0" class="graph" transform="scale(1 1) rotate(0) translate(4 122.5)">
<title>UQuadDroneController::ResetPID</title>
<polygon fill="white" stroke="transparent" points="-4,4 -4,-122.5 686,-122.5 686,4 -4,4"/>
<!-- Node1 -->
<g id="node1" class="node">
<title>Node1</title>
<g id="a_node1"><a xlink:title=" ">
<polygon fill="#bfbfbf" stroke="black" points="555,-49.5 555,-79.5 682,-79.5 682,-49.5 555,-49.5"/>
<text text-anchor="start" x="563" y="-67.5" font-family="Helvetica,sans-Serif" font-size="10.00">UQuadDroneController</text>
<text text-anchor="middle" x="618.5" y="-56.5" font-family="Helvetica,sans-Serif" font-size="10.00">::ResetPID</text>
</a>
</g>
</g>
<!-- Node2 -->
<g id="node2" class="node">
<title>Node2</title>
<g id="a_node2"><a xlink:href="classAQuadPawn.html#a416797652d3e15491d60ee2f3452232c" target="_top" xlink:title=" ">
<polygon fill="white" stroke="black" points="390,-99 390,-118 519,-118 519,-99 390,-99"/>
<text text-anchor="middle" x="454.5" y="-106" font-family="Helvetica,sans-Serif" font-size="10.00">AQuadPawn::BeginPlay</text>
</a>
</g>
</g>
<!-- Node1&#45;&gt;Node2 -->
<g id="edge1" class="edge">
<title>Node1&#45;&gt;Node2</title>
<path fill="none" stroke="midnightblue" d="M552.34,-82.2C531.31,-87.91 508.79,-94.03 490.77,-98.92"/>
<polygon fill="midnightblue" stroke="midnightblue" points="553.47,-85.52 562.2,-79.52 551.63,-78.76 553.47,-85.52"/>
</g>
<!-- Node3 -->
<g id="node3" class="node">
<title>Node3</title>
<g id="a_node3"><a xlink:href="classUQuadDroneController.html#a370418d3d89f0ab498fc08cb864e1809" target="_top" xlink:title=" ">
<polygon fill="white" stroke="black" points="391,-49.5 391,-79.5 518,-79.5 518,-49.5 391,-49.5"/>
<text text-anchor="start" x="399" y="-67.5" font-family="Helvetica,sans-Serif" font-size="10.00">UQuadDroneController</text>
<text text-anchor="middle" x="454.5" y="-56.5" font-family="Helvetica,sans-Serif" font-size="10.00">::ResetDroneOrigin</text>
</a>
</g>
</g>
<!-- Node1&#45;&gt;Node3 -->
<g id="edge2" class="edge">
<title>Node1&#45;&gt;Node3</title>
<path fill="none" stroke="midnightblue" d="M544.61,-64.5C535.81,-64.5 526.88,-64.5 518.23,-64.5"/>
<polygon fill="midnightblue" stroke="midnightblue" points="544.87,-68 554.87,-64.5 544.87,-61 544.87,-68"/>
</g>
<!-- Node6 -->
<g id="node6" class="node">
<title>Node6</title>
<g id="a_node6"><a xlink:href="classUQuadDroneController.html#a48bc70ee5a68cb56bf4c97e477ec0776" target="_top" xlink:title=" ">
<polygon fill="white" stroke="black" points="391,-0.5 391,-30.5 518,-30.5 518,-0.5 391,-0.5"/>
<text text-anchor="start" x="399" y="-18.5" font-family="Helvetica,sans-Serif" font-size="10.00">UQuadDroneController</text>
<text text-anchor="middle" x="454.5" y="-7.5" font-family="Helvetica,sans-Serif" font-size="10.00">::ResetDroneRotation</text>
</a>
</g>
</g>
<!-- Node1&#45;&gt;Node6 -->
<g id="edge5" class="edge">
<title>Node1&#45;&gt;Node6</title>
<path fill="none" stroke="midnightblue" d="M557.62,-46.39C540.39,-41.18 521.8,-35.55 505.26,-30.55"/>
<polygon fill="midnightblue" stroke="midnightblue" points="556.99,-49.85 567.57,-49.4 559.01,-43.15 556.99,-49.85"/>
</g>
<!-- Node4 -->
<g id="node4" class="node">
<title>Node4</title>
<g id="a_node4"><a xlink:href="classAROS2Controller.html#acfc71b0111fa95da9e74f177ddd083cc" target="_top" xlink:title=" ">
<polygon fill="white" stroke="black" points="188,-49.5 188,-79.5 354,-79.5 354,-49.5 188,-49.5"/>
<text text-anchor="start" x="196" y="-67.5" font-family="Helvetica,sans-Serif" font-size="10.00">AROS2Controller::HandleReset</text>
<text text-anchor="middle" x="271" y="-56.5" font-family="Helvetica,sans-Serif" font-size="10.00">Command</text>
</a>
</g>
</g>
<!-- Node3&#45;&gt;Node4 -->
<g id="edge3" class="edge">
<title>Node3&#45;&gt;Node4</title>
<path fill="none" stroke="midnightblue" d="M380.7,-64.5C372,-64.5 363.07,-64.5 354.24,-64.5"/>
<polygon fill="midnightblue" stroke="midnightblue" points="380.78,-68 390.78,-64.5 380.78,-61 380.78,-68"/>
</g>
<!-- Node5 -->
<g id="node5" class="node">
<title>Node5</title>
<g id="a_node5"><a xlink:href="classAROS2Controller.html#a950f5d2c970783f3687246ecde0a6220" target="_top" xlink:title=" ">
<polygon fill="white" stroke="black" points="0,-55 0,-74 152,-74 152,-55 0,-55"/>
<text text-anchor="middle" x="76" y="-62" font-family="Helvetica,sans-Serif" font-size="10.00">AROS2Controller::BeginPlay</text>
</a>
</g>
</g>
<!-- Node4&#45;&gt;Node5 -->
<g id="edge4" class="edge">
<title>Node4&#45;&gt;Node5</title>
<path fill="none" stroke="midnightblue" d="M177.77,-64.5C169.14,-64.5 160.46,-64.5 152.02,-64.5"/>
<polygon fill="midnightblue" stroke="midnightblue" points="177.87,-68 187.87,-64.5 177.87,-61 177.87,-68"/>
</g>
</g>
</svg>
