<?xml version="1.0" encoding="UTF-8" standalone="no"?>
<!DOCTYPE svg PUBLIC "-//W3C//DTD SVG 1.1//EN"
 "http://www.w3.org/Graphics/SVG/1.1/DTD/svg11.dtd">
<!-- Generated by graphviz version 2.43.0 (0)
 -->
<!-- Title: AQuadPawn::UpdateControl Pages: 1 -->
<svg width="1033pt" height="458pt"
 viewBox="0.00 0.00 1033.00 457.50" xmlns="http://www.w3.org/2000/svg" xmlns:xlink="http://www.w3.org/1999/xlink">
<g id="graph0" class="graph" transform="scale(1 1) rotate(0) translate(4 453.5)">
<title>AQuadPawn::UpdateControl</title>
<polygon fill="white" stroke="transparent" points="-4,4 -4,-453.5 1029,-453.5 1029,4 -4,4"/>
<!-- Node1 -->
<g id="node1" class="node">
<title>Node1</title>
<g id="a_node1"><a xlink:title=" ">
<polygon fill="#bfbfbf" stroke="black" points="0,-161 0,-180 151,-180 151,-161 0,-161"/>
<text text-anchor="middle" x="75.5" y="-168" font-family="Helvetica,sans-Serif" font-size="10.00">AQuadPawn::UpdateControl</text>
</a>
</g>
</g>
<!-- Node2 -->
<g id="node2" class="node">
<title>Node2</title>
<g id="a_node2"><a xlink:href="classUQuadDroneController.html#a9d9db64b915619ce2443247ea9835f65" target="_top" xlink:title=" ">
<polygon fill="white" stroke="black" points="187,-180.5 187,-210.5 314,-210.5 314,-180.5 187,-180.5"/>
<text text-anchor="start" x="195" y="-198.5" font-family="Helvetica,sans-Serif" font-size="10.00">UQuadDroneController</text>
<text text-anchor="middle" x="250.5" y="-187.5" font-family="Helvetica,sans-Serif" font-size="10.00">::SetDestination</text>
</a>
</g>
</g>
<!-- Node1&#45;&gt;Node2 -->
<g id="edge1" class="edge">
<title>Node1&#45;&gt;Node2</title>
<path fill="none" stroke="midnightblue" d="M142.4,-180.02C153.7,-181.66 165.49,-183.36 176.96,-185.02"/>
<polygon fill="midnightblue" stroke="midnightblue" points="176.52,-188.49 186.92,-186.46 177.53,-181.56 176.52,-188.49"/>
</g>
<!-- Node3 -->
<g id="node3" class="node">
<title>Node3</title>
<g id="a_node3"><a xlink:href="classUQuadDroneController.html#aeacce81326aab408e9f95553fb3ae2bc" target="_top" xlink:title=" ">
<polygon fill="white" stroke="black" points="187,-131.5 187,-161.5 314,-161.5 314,-131.5 187,-131.5"/>
<text text-anchor="start" x="195" y="-149.5" font-family="Helvetica,sans-Serif" font-size="10.00">UQuadDroneController</text>
<text text-anchor="middle" x="250.5" y="-138.5" font-family="Helvetica,sans-Serif" font-size="10.00">::Update</text>
</a>
</g>
</g>
<!-- Node1&#45;&gt;Node3 -->
<g id="edge2" class="edge">
<title>Node1&#45;&gt;Node3</title>
<path fill="none" stroke="midnightblue" d="M145.37,-160.95C155.62,-159.52 166.21,-158.05 176.54,-156.62"/>
<polygon fill="midnightblue" stroke="midnightblue" points="177.33,-160.05 186.76,-155.2 176.37,-153.11 177.33,-160.05"/>
</g>
<!-- Node4 -->
<g id="node4" class="node">
<title>Node4</title>
<g id="a_node4"><a xlink:href="classUQuadDroneController.html#a515f29c2d36616543fd6eb95d9e930e0" target="_top" xlink:title=" ">
<polygon fill="white" stroke="black" points="374,-267.5 374,-297.5 501,-297.5 501,-267.5 374,-267.5"/>
<text text-anchor="start" x="382" y="-285.5" font-family="Helvetica,sans-Serif" font-size="10.00">UQuadDroneController</text>
<text text-anchor="middle" x="437.5" y="-274.5" font-family="Helvetica,sans-Serif" font-size="10.00">::FlightController</text>
</a>
</g>
</g>
<!-- Node3&#45;&gt;Node4 -->
<g id="edge3" class="edge">
<title>Node3&#45;&gt;Node4</title>
<path fill="none" stroke="midnightblue" d="M299.22,-161.56C304.52,-164.37 309.59,-167.66 314,-171.5 338.33,-192.67 327.05,-211.84 350,-234.5 361.53,-245.88 376.31,-255.4 390.37,-262.87"/>
<polygon fill="midnightblue" stroke="midnightblue" points="388.97,-266.08 399.47,-267.49 392.14,-259.84 388.97,-266.08"/>
</g>
<!-- Node9 -->
<g id="node9" class="node">
<title>Node9</title>
<g id="a_node9"><a xlink:href="classADroneManager.html#a9c3c9b9953ac4f47093c19e72029c41d" target="_top" xlink:title=" ">
<polygon fill="white" stroke="black" points="579,-118 579,-137 698,-137 698,-118 579,-118"/>
<text text-anchor="middle" x="638.5" y="-125" font-family="Helvetica,sans-Serif" font-size="10.00">ADroneManager::Get</text>
</a>
</g>
</g>
<!-- Node3&#45;&gt;Node9 -->
<g id="edge19" class="edge">
<title>Node3&#45;&gt;Node9</title>
<path fill="none" stroke="midnightblue" d="M314.08,-149.47C369.6,-151.39 452.84,-152.55 525,-146.5 543.57,-144.94 563.68,-141.97 581.69,-138.82"/>
<polygon fill="midnightblue" stroke="midnightblue" points="582.52,-142.23 591.74,-137.01 581.28,-135.34 582.52,-142.23"/>
</g>
<!-- Node13 -->
<g id="node13" class="node">
<title>Node13</title>
<g id="a_node13"><a xlink:href="classUQuadDroneController.html#afe4037b4e2ff01815729474bff090ea0" target="_top" xlink:title=" ">
<polygon fill="white" stroke="black" points="374,-194.5 374,-224.5 501,-224.5 501,-194.5 374,-194.5"/>
<text text-anchor="start" x="382" y="-212.5" font-family="Helvetica,sans-Serif" font-size="10.00">UQuadDroneController</text>
<text text-anchor="middle" x="437.5" y="-201.5" font-family="Helvetica,sans-Serif" font-size="10.00">::GamepadController</text>
</a>
</g>
</g>
<!-- Node3&#45;&gt;Node13 -->
<g id="edge13" class="edge">
<title>Node3&#45;&gt;Node13</title>
<path fill="none" stroke="midnightblue" d="M295.81,-161.59C321.92,-170.48 355.13,-181.79 382.72,-191.19"/>
<polygon fill="midnightblue" stroke="midnightblue" points="381.63,-194.51 392.23,-194.42 383.89,-187.89 381.63,-194.51"/>
</g>
<!-- Node14 -->
<g id="node14" class="node">
<title>Node14</title>
<g id="a_node14"><a xlink:href="classADroneManager.html#aeabd73366b51d5ec994b9dbcd906593f" target="_top" xlink:title=" ">
<polygon fill="white" stroke="black" points="350,-118 350,-137 525,-137 525,-118 350,-118"/>
<text text-anchor="middle" x="437.5" y="-125" font-family="Helvetica,sans-Serif" font-size="10.00">ADroneManager::GetDroneIndex</text>
</a>
</g>
</g>
<!-- Node3&#45;&gt;Node14 -->
<g id="edge20" class="edge">
<title>Node3&#45;&gt;Node14</title>
<path fill="none" stroke="midnightblue" d="M314.13,-140.07C322.42,-139.22 331.07,-138.33 339.76,-137.44"/>
<polygon fill="midnightblue" stroke="midnightblue" points="340.39,-140.89 349.98,-136.39 339.67,-133.93 340.39,-140.89"/>
</g>
<!-- Node15 -->
<g id="node15" class="node">
<title>Node15</title>
<g id="a_node15"><a xlink:href="classADroneManager.html#aa16196d3e75e814db5b7eeaebe5c70e3" target="_top" xlink:title=" ">
<polygon fill="white" stroke="black" points="352.5,-80 352.5,-99 522.5,-99 522.5,-80 352.5,-80"/>
<text text-anchor="middle" x="437.5" y="-87" font-family="Helvetica,sans-Serif" font-size="10.00">ADroneManager::IsSwarmMode</text>
</a>
</g>
</g>
<!-- Node3&#45;&gt;Node15 -->
<g id="edge22" class="edge">
<title>Node3&#45;&gt;Node15</title>
<path fill="none" stroke="midnightblue" d="M286.61,-131.46C305.21,-123.87 328.59,-114.94 350,-108.5 358.65,-105.9 367.89,-103.49 376.98,-101.32"/>
<polygon fill="midnightblue" stroke="midnightblue" points="377.81,-104.72 386.76,-99.07 376.23,-97.9 377.81,-104.72"/>
</g>
<!-- Node16 -->
<g id="node16" class="node">
<title>Node16</title>
<g id="a_node16"><a xlink:href="classUQuadDroneController.html#abe10155e4aa1c6a77e67347ca91d2fdc" target="_top" xlink:title=" ">
<polygon fill="white" stroke="black" points="374,-30.5 374,-60.5 501,-60.5 501,-30.5 374,-30.5"/>
<text text-anchor="start" x="382" y="-48.5" font-family="Helvetica,sans-Serif" font-size="10.00">UQuadDroneController</text>
<text text-anchor="middle" x="437.5" y="-37.5" font-family="Helvetica,sans-Serif" font-size="10.00">::SetFlightMode</text>
</a>
</g>
</g>
<!-- Node3&#45;&gt;Node16 -->
<g id="edge23" class="edge">
<title>Node3&#45;&gt;Node16</title>
<path fill="none" stroke="midnightblue" d="M267.27,-131.24C285.71,-114.18 317.83,-86.81 350,-70.5 354.59,-68.17 359.43,-66.03 364.37,-64.07"/>
<polygon fill="midnightblue" stroke="midnightblue" points="365.83,-67.26 373.99,-60.5 363.39,-60.7 365.83,-67.26"/>
</g>
<!-- Node5 -->
<g id="node5" class="node">
<title>Node5</title>
<g id="a_node5"><a xlink:href="classQuadPIDController.html#ad96b9199d7ae1f627a01c0ac888220c8" target="_top" xlink:title=" ">
<polygon fill="white" stroke="black" points="752,-243.5 752,-273.5 865,-273.5 865,-243.5 752,-243.5"/>
<text text-anchor="start" x="760" y="-261.5" font-family="Helvetica,sans-Serif" font-size="10.00">QuadPIDController::</text>
<text text-anchor="middle" x="808.5" y="-250.5" font-family="Helvetica,sans-Serif" font-size="10.00">Calculate</text>
</a>
</g>
</g>
<!-- Node4&#45;&gt;Node5 -->
<g id="edge4" class="edge">
<title>Node4&#45;&gt;Node5</title>
<path fill="none" stroke="midnightblue" d="M466.72,-297.71C490.94,-309.84 527.19,-325.87 561,-332.5 628.6,-345.76 651.06,-355.48 716,-332.5 744.56,-322.4 770.74,-299.17 787.7,-281.41"/>
<polygon fill="midnightblue" stroke="midnightblue" points="790.61,-283.42 794.83,-273.7 785.47,-278.67 790.61,-283.42"/>
</g>
<!-- Node7 -->
<g id="node7" class="node">
<title>Node7</title>
<g id="a_node7"><a xlink:href="classDroneMathUtils.html#a60bb84d076590f7ea87f59df8ffb8a4e" target="_top" xlink:title=" ">
<polygon fill="white" stroke="black" points="566,-380.5 566,-410.5 711,-410.5 711,-380.5 566,-380.5"/>
<text text-anchor="start" x="574" y="-398.5" font-family="Helvetica,sans-Serif" font-size="10.00">DroneMathUtils::Calculate</text>
<text text-anchor="middle" x="638.5" y="-387.5" font-family="Helvetica,sans-Serif" font-size="10.00">DesiredVelocity</text>
</a>
</g>
</g>
<!-- Node4&#45;&gt;Node7 -->
<g id="edge6" class="edge">
<title>Node4&#45;&gt;Node7</title>
<path fill="none" stroke="midnightblue" d="M458.02,-297.73C481.5,-315.58 522.58,-345.27 561,-365.5 568.53,-369.46 576.71,-373.21 584.82,-376.62"/>
<polygon fill="midnightblue" stroke="midnightblue" points="583.68,-379.94 594.26,-380.47 586.32,-373.46 583.68,-379.94"/>
</g>
<!-- Node8 -->
<g id="node8" class="node">
<title>Node8</title>
<g id="a_node8"><a xlink:href="classUQuadDroneController.html#a1b6bdb6ea17c076aef0c88f374da61fc" target="_top" xlink:title=" ">
<polygon fill="white" stroke="black" points="573.5,-292.5 573.5,-322.5 703.5,-322.5 703.5,-292.5 573.5,-292.5"/>
<text text-anchor="start" x="581.5" y="-310.5" font-family="Helvetica,sans-Serif" font-size="10.00">UQuadDroneController</text>
<text text-anchor="middle" x="638.5" y="-299.5" font-family="Helvetica,sans-Serif" font-size="10.00">::DrawDebugVisualsVel</text>
</a>
</g>
</g>
<!-- Node4&#45;&gt;Node8 -->
<g id="edge7" class="edge">
<title>Node4&#45;&gt;Node8</title>
<path fill="none" stroke="midnightblue" d="M501.19,-290.38C520.88,-292.85 542.8,-295.6 563.21,-298.17"/>
<polygon fill="midnightblue" stroke="midnightblue" points="563.05,-301.67 573.41,-299.45 563.93,-294.73 563.05,-301.67"/>
</g>
<!-- Node4&#45;&gt;Node9 -->
<g id="edge8" class="edge">
<title>Node4&#45;&gt;Node9</title>
<path fill="none" stroke="midnightblue" d="M473.55,-267.37C490.22,-259.14 509.79,-247.89 525,-234.5 545.28,-216.64 542.04,-204.75 561,-185.5 577.03,-169.22 597.83,-153.74 613.7,-142.88"/>
<polygon fill="midnightblue" stroke="midnightblue" points="616.04,-145.52 622.39,-137.04 612.14,-139.71 616.04,-145.52"/>
</g>
<!-- Node10 -->
<g id="node10" class="node">
<title>Node10</title>
<g id="a_node10"><a xlink:href="classAQuadPawn.html#a88f4f046d2374491e62667e9e6a98eb1" target="_top" xlink:title=" ">
<polygon fill="white" stroke="black" points="577,-430 577,-449 700,-449 700,-430 577,-430"/>
<text text-anchor="middle" x="638.5" y="-437" font-family="Helvetica,sans-Serif" font-size="10.00">AQuadPawn::GetMass</text>
</a>
</g>
</g>
<!-- Node4&#45;&gt;Node10 -->
<g id="edge9" class="edge">
<title>Node4&#45;&gt;Node10</title>
<path fill="none" stroke="midnightblue" d="M447.49,-297.64C465.34,-326.31 508.1,-388.49 561,-420.5 564.62,-422.69 568.49,-424.63 572.48,-426.35"/>
<polygon fill="midnightblue" stroke="midnightblue" points="571.39,-429.68 581.99,-429.96 573.88,-423.14 571.39,-429.68"/>
</g>
<!-- Node11 -->
<g id="node11" class="node">
<title>Node11</title>
<g id="a_node11"><a xlink:href="classUQuadDroneController.html#ae3c8dc589bca5cf3a44468d093381b5b" target="_top" xlink:title=" ">
<polygon fill="white" stroke="black" points="575,-194.5 575,-224.5 702,-224.5 702,-194.5 575,-194.5"/>
<text text-anchor="start" x="583" y="-212.5" font-family="Helvetica,sans-Serif" font-size="10.00">UQuadDroneController</text>
<text text-anchor="middle" x="638.5" y="-201.5" font-family="Helvetica,sans-Serif" font-size="10.00">::ThrustMixer</text>
</a>
</g>
</g>
<!-- Node4&#45;&gt;Node11 -->
<g id="edge10" class="edge">
<title>Node4&#45;&gt;Node11</title>
<path fill="none" stroke="midnightblue" d="M475.28,-267.45C499.5,-257.7 531.98,-244.92 561,-234.5 567.27,-232.25 573.87,-229.97 580.44,-227.75"/>
<polygon fill="midnightblue" stroke="midnightblue" points="581.64,-231.03 590.02,-224.55 579.42,-224.4 581.64,-231.03"/>
</g>
<!-- Node12 -->
<g id="node12" class="node">
<title>Node12</title>
<g id="a_node12"><a xlink:href="classUQuadDroneController.html#a0d38f3052353104ca815856c35a56820" target="_top" xlink:title=" ">
<polygon fill="white" stroke="black" points="575,-243.5 575,-273.5 702,-273.5 702,-243.5 575,-243.5"/>
<text text-anchor="start" x="583" y="-261.5" font-family="Helvetica,sans-Serif" font-size="10.00">UQuadDroneController</text>
<text text-anchor="middle" x="638.5" y="-250.5" font-family="Helvetica,sans-Serif" font-size="10.00">::YawRateControl</text>
</a>
</g>
</g>
<!-- Node4&#45;&gt;Node12 -->
<g id="edge11" class="edge">
<title>Node4&#45;&gt;Node12</title>
<path fill="none" stroke="midnightblue" d="M501.19,-274.94C521.36,-272.51 543.88,-269.79 564.71,-267.28"/>
<polygon fill="midnightblue" stroke="midnightblue" points="565.27,-270.74 574.78,-266.06 564.43,-263.79 565.27,-270.74"/>
</g>
<!-- Node6 -->
<g id="node6" class="node">
<title>Node6</title>
<g id="a_node6"><a xlink:href="classQuadPIDController.html#ab7e668b1b8cba6bf742e8e5d73e43b87" target="_top" xlink:title=" ">
<polygon fill="white" stroke="black" points="901,-243.5 901,-273.5 1025,-273.5 1025,-243.5 901,-243.5"/>
<text text-anchor="start" x="909" y="-261.5" font-family="Helvetica,sans-Serif" font-size="10.00">QuadPIDController::</text>
<text text-anchor="middle" x="963" y="-250.5" font-family="Helvetica,sans-Serif" font-size="10.00">RemoveExpiredPoints</text>
</a>
</g>
</g>
<!-- Node5&#45;&gt;Node6 -->
<g id="edge5" class="edge">
<title>Node5&#45;&gt;Node6</title>
<path fill="none" stroke="midnightblue" d="M865.42,-258.5C873.64,-258.5 882.2,-258.5 890.68,-258.5"/>
<polygon fill="midnightblue" stroke="midnightblue" points="890.95,-262 900.95,-258.5 890.95,-255 890.95,-262"/>
</g>
<!-- Node12&#45;&gt;Node5 -->
<g id="edge12" class="edge">
<title>Node12&#45;&gt;Node5</title>
<path fill="none" stroke="midnightblue" d="M702.06,-258.5C714.94,-258.5 728.54,-258.5 741.54,-258.5"/>
<polygon fill="midnightblue" stroke="midnightblue" points="741.81,-262 751.81,-258.5 741.81,-255 741.81,-262"/>
</g>
<!-- Node13&#45;&gt;Node5 -->
<g id="edge14" class="edge">
<title>Node13&#45;&gt;Node5</title>
<path fill="none" stroke="midnightblue" d="M483.66,-194.43C539.79,-178.18 637.72,-158.1 716,-185.5 744.44,-195.46 770.64,-218.37 787.64,-235.89"/>
<polygon fill="midnightblue" stroke="midnightblue" points="785.39,-238.6 794.78,-243.5 790.49,-233.81 785.39,-238.6"/>
</g>
<!-- Node13&#45;&gt;Node8 -->
<g id="edge15" class="edge">
<title>Node13&#45;&gt;Node8</title>
<path fill="none" stroke="midnightblue" d="M466.54,-224.53C483.66,-233.92 505.86,-246.47 525,-258.5 541.49,-268.87 543.51,-274.93 561,-283.5 564.8,-285.36 568.77,-287.12 572.82,-288.77"/>
<polygon fill="midnightblue" stroke="midnightblue" points="571.79,-292.12 582.38,-292.43 574.3,-285.58 571.79,-292.12"/>
</g>
<!-- Node13&#45;&gt;Node9 -->
<g id="edge16" class="edge">
<title>Node13&#45;&gt;Node9</title>
<path fill="none" stroke="midnightblue" d="M490.91,-194.41C502.45,-190.25 514.38,-185.26 525,-179.5 542.81,-169.83 543.04,-160.91 561,-151.5 569.33,-147.14 578.59,-143.4 587.71,-140.27"/>
<polygon fill="midnightblue" stroke="midnightblue" points="589.06,-143.52 597.51,-137.11 586.91,-136.85 589.06,-143.52"/>
</g>
<!-- Node13&#45;&gt;Node11 -->
<g id="edge17" class="edge">
<title>Node13&#45;&gt;Node11</title>
<path fill="none" stroke="midnightblue" d="M501.19,-209.5C521.36,-209.5 543.88,-209.5 564.71,-209.5"/>
<polygon fill="midnightblue" stroke="midnightblue" points="564.78,-213 574.78,-209.5 564.78,-206 564.78,-213"/>
</g>
<!-- Node13&#45;&gt;Node12 -->
<g id="edge18" class="edge">
<title>Node13&#45;&gt;Node12</title>
<path fill="none" stroke="midnightblue" d="M499.56,-224.53C520.76,-229.76 544.72,-235.65 566.64,-241.05"/>
<polygon fill="midnightblue" stroke="midnightblue" points="566.01,-244.5 576.56,-243.49 567.68,-237.7 566.01,-244.5"/>
</g>
<!-- Node14&#45;&gt;Node9 -->
<g id="edge21" class="edge">
<title>Node14&#45;&gt;Node9</title>
<path fill="none" stroke="midnightblue" d="M525.21,-127.5C539.79,-127.5 554.74,-127.5 568.79,-127.5"/>
<polygon fill="midnightblue" stroke="midnightblue" points="568.83,-131 578.83,-127.5 568.83,-124 568.83,-131"/>
</g>
<!-- Node17 -->
<g id="node17" class="node">
<title>Node17</title>
<g id="a_node17"><a xlink:href="classAQuadPawn.html#a08a971a005a8dfe3148b82e659731b1b" target="_top" xlink:title=" ">
<polygon fill="white" stroke="black" points="561,-49.5 561,-79.5 716,-79.5 716,-49.5 561,-49.5"/>
<text text-anchor="start" x="569" y="-67.5" font-family="Helvetica,sans-Serif" font-size="10.00">AQuadPawn::GenerateFigure</text>
<text text-anchor="middle" x="638.5" y="-56.5" font-family="Helvetica,sans-Serif" font-size="10.00">EightWaypoints</text>
</a>
</g>
</g>
<!-- Node16&#45;&gt;Node17 -->
<g id="edge24" class="edge">
<title>Node16&#45;&gt;Node17</title>
<path fill="none" stroke="midnightblue" d="M501.19,-51.49C516.85,-52.98 533.93,-54.61 550.54,-56.2"/>
<polygon fill="midnightblue" stroke="midnightblue" points="550.51,-59.71 560.8,-57.18 551.17,-52.74 550.51,-59.71"/>
</g>
<!-- Node18 -->
<g id="node18" class="node">
<title>Node18</title>
<g id="a_node18"><a xlink:href="classQuadPIDController.html#aa21a311e6b52f6d72c19468b85c359b3" target="_top" xlink:title=" ">
<polygon fill="white" stroke="black" points="582,-0.5 582,-30.5 695,-30.5 695,-0.5 582,-0.5"/>
<text text-anchor="start" x="590" y="-18.5" font-family="Helvetica,sans-Serif" font-size="10.00">QuadPIDController::</text>
<text text-anchor="middle" x="638.5" y="-7.5" font-family="Helvetica,sans-Serif" font-size="10.00">Reset</text>
</a>
</g>
</g>
<!-- Node16&#45;&gt;Node18 -->
<g id="edge25" class="edge">
<title>Node16&#45;&gt;Node18</title>
<path fill="none" stroke="midnightblue" d="M501.19,-36.05C523.72,-32.65 549.18,-28.81 571.94,-25.38"/>
<polygon fill="midnightblue" stroke="midnightblue" points="572.49,-28.84 581.85,-23.89 571.44,-21.92 572.49,-28.84"/>
</g>
</g>
</svg>
