<?xml version="1.0" encoding="UTF-8" standalone="no"?>
<!DOCTYPE svg PUBLIC "-//W3C//DTD SVG 1.1//EN"
 "http://www.w3.org/Graphics/SVG/1.1/DTD/svg11.dtd">
<!-- Generated by graphviz version 2.43.0 (0)
 -->
<!-- Title: AObstacleManager::GetGoalPosition Pages: 1 -->
<svg width="548pt" height="88pt"
 viewBox="0.00 0.00 548.00 88.00" xmlns="http://www.w3.org/2000/svg" xmlns:xlink="http://www.w3.org/1999/xlink">
<g id="graph0" class="graph" transform="scale(1 1) rotate(0) translate(4 84)">
<title>AObstacleManager::GetGoalPosition</title>
<polygon fill="white" stroke="transparent" points="-4,4 -4,-84 544,-84 544,4 -4,4"/>
<!-- Node1 -->
<g id="node1" class="node">
<title>Node1</title>
<g id="a_node1"><a xlink:title=" ">
<polygon fill="#bfbfbf" stroke="black" points="385,-24.5 385,-54.5 540,-54.5 540,-24.5 385,-24.5"/>
<text text-anchor="start" x="393" y="-42.5" font-family="Helvetica,sans-Serif" font-size="10.00">AObstacleManager::GetGoal</text>
<text text-anchor="middle" x="462.5" y="-31.5" font-family="Helvetica,sans-Serif" font-size="10.00">Position</text>
</a>
</g>
</g>
<!-- Node2 -->
<g id="node2" class="node">
<title>Node2</title>
<g id="a_node2"><a xlink:href="classAROS2Controller.html#a0489898e17266252b5a58679ef1e370f" target="_top" xlink:title=" ">
<polygon fill="white" stroke="black" points="190,-49.5 190,-79.5 347,-79.5 347,-49.5 190,-49.5"/>
<text text-anchor="start" x="198" y="-67.5" font-family="Helvetica,sans-Serif" font-size="10.00">AROS2Controller::GetCurrent</text>
<text text-anchor="middle" x="268.5" y="-56.5" font-family="Helvetica,sans-Serif" font-size="10.00">GoalPosition</text>
</a>
</g>
</g>
<!-- Node1&#45;&gt;Node2 -->
<g id="edge1" class="edge">
<title>Node1&#45;&gt;Node2</title>
<path fill="none" stroke="midnightblue" d="M374.81,-50.79C365.55,-51.99 356.17,-53.21 347.03,-54.4"/>
<polygon fill="midnightblue" stroke="midnightblue" points="375.32,-54.25 384.79,-49.49 374.42,-47.31 375.32,-54.25"/>
</g>
<!-- Node3 -->
<g id="node3" class="node">
<title>Node3</title>
<g id="a_node3"><a xlink:href="classAROS2Controller.html#a64b21afa3b4a219545b2f89bfc4bfc99" target="_top" xlink:title=" ">
<polygon fill="white" stroke="black" points="188,-0.5 188,-30.5 349,-30.5 349,-0.5 188,-0.5"/>
<text text-anchor="start" x="196" y="-18.5" font-family="Helvetica,sans-Serif" font-size="10.00">AROS2Controller::UpdateGoal</text>
<text text-anchor="middle" x="268.5" y="-7.5" font-family="Helvetica,sans-Serif" font-size="10.00">PositionMessage</text>
</a>
</g>
</g>
<!-- Node1&#45;&gt;Node3 -->
<g id="edge2" class="edge">
<title>Node1&#45;&gt;Node3</title>
<path fill="none" stroke="midnightblue" d="M374.84,-28.67C366.31,-27.6 357.68,-26.52 349.23,-25.47"/>
<polygon fill="midnightblue" stroke="midnightblue" points="374.43,-32.14 384.79,-29.91 375.3,-25.2 374.43,-32.14"/>
</g>
<!-- Node4 -->
<g id="node4" class="node">
<title>Node4</title>
<g id="a_node4"><a xlink:href="classAROS2Controller.html#a950f5d2c970783f3687246ecde0a6220" target="_top" xlink:title=" ">
<polygon fill="white" stroke="black" points="0,-6 0,-25 152,-25 152,-6 0,-6"/>
<text text-anchor="middle" x="76" y="-13" font-family="Helvetica,sans-Serif" font-size="10.00">AROS2Controller::BeginPlay</text>
</a>
</g>
</g>
<!-- Node3&#45;&gt;Node4 -->
<g id="edge3" class="edge">
<title>Node3&#45;&gt;Node4</title>
<path fill="none" stroke="midnightblue" d="M177.77,-15.5C169.18,-15.5 160.53,-15.5 152.1,-15.5"/>
<polygon fill="midnightblue" stroke="midnightblue" points="177.81,-19 187.81,-15.5 177.81,-12 177.81,-19"/>
</g>
</g>
</svg>
