<?xml version="1.0" encoding="UTF-8" standalone="no"?>
<!DOCTYPE svg PUBLIC "-//W3C//DTD SVG 1.1//EN"
 "http://www.w3.org/Graphics/SVG/1.1/DTD/svg11.dtd">
<!-- Generated by graphviz version 2.43.0 (0)
 -->
<!-- Title: UDroneJSONConfig::LoadConfig Pages: 1 -->
<svg width="768pt" height="88pt"
 viewBox="0.00 0.00 768.00 88.00" xmlns="http://www.w3.org/2000/svg" xmlns:xlink="http://www.w3.org/1999/xlink">
<g id="graph0" class="graph" transform="scale(1 1) rotate(0) translate(4 84)">
<title>UDroneJSONConfig::LoadConfig</title>
<polygon fill="white" stroke="transparent" points="-4,4 -4,-84 764,-84 764,4 -4,4"/>
<!-- Node1 -->
<g id="node1" class="node">
<title>Node1</title>
<g id="a_node1"><a xlink:title=" ">
<polygon fill="#bfbfbf" stroke="black" points="592,-30 592,-49 760,-49 760,-30 592,-30"/>
<text text-anchor="middle" x="676" y="-37" font-family="Helvetica,sans-Serif" font-size="10.00">UDroneJSONConfig::LoadConfig</text>
</a>
</g>
</g>
<!-- Node2 -->
<g id="node2" class="node">
<title>Node2</title>
<g id="a_node2"><a xlink:href="classUDroneJSONConfig.html#a03bad4b9aa1ece767e6d35ab8110fb4d" target="_top" xlink:title=" ">
<polygon fill="white" stroke="black" points="406.5,-49.5 406.5,-79.5 554.5,-79.5 554.5,-49.5 406.5,-49.5"/>
<text text-anchor="start" x="414.5" y="-67.5" font-family="Helvetica,sans-Serif" font-size="10.00">UDroneJSONConfig::Reload</text>
<text text-anchor="middle" x="480.5" y="-56.5" font-family="Helvetica,sans-Serif" font-size="10.00">Config</text>
</a>
</g>
</g>
<!-- Node1&#45;&gt;Node2 -->
<g id="edge1" class="edge">
<title>Node1&#45;&gt;Node2</title>
<path fill="none" stroke="midnightblue" d="M591.17,-50.33C579.02,-51.9 566.6,-53.51 554.68,-55.05"/>
<polygon fill="midnightblue" stroke="midnightblue" points="591.82,-53.78 601.29,-49.02 590.93,-46.83 591.82,-53.78"/>
</g>
<!-- Node5 -->
<g id="node5" class="node">
<title>Node5</title>
<g id="a_node5"><a xlink:href="classUDroneJSONConfig.html#a54a3163653c6ab2891e45c61f5313225" target="_top" xlink:title=" ">
<polygon fill="white" stroke="black" points="405,-0.5 405,-30.5 556,-30.5 556,-0.5 405,-0.5"/>
<text text-anchor="start" x="413" y="-18.5" font-family="Helvetica,sans-Serif" font-size="10.00">UDroneJSONConfig::UDrone</text>
<text text-anchor="middle" x="480.5" y="-7.5" font-family="Helvetica,sans-Serif" font-size="10.00">JSONConfig</text>
</a>
</g>
</g>
<!-- Node1&#45;&gt;Node5 -->
<g id="edge4" class="edge">
<title>Node1&#45;&gt;Node5</title>
<path fill="none" stroke="midnightblue" d="M588.12,-28.72C577.49,-27.41 566.7,-26.07 556.27,-24.77"/>
<polygon fill="midnightblue" stroke="midnightblue" points="587.89,-32.22 598.25,-29.98 588.75,-25.28 587.89,-32.22"/>
</g>
<!-- Node3 -->
<g id="node3" class="node">
<title>Node3</title>
<g id="a_node3"><a xlink:href="classAQuadPawn.html#aed6fabac53fca6df53b2a324232bec5a" target="_top" xlink:title=" ">
<polygon fill="white" stroke="black" points="200,-55 200,-74 369,-74 369,-55 200,-55"/>
<text text-anchor="middle" x="284.5" y="-62" font-family="Helvetica,sans-Serif" font-size="10.00">AQuadPawn::ReloadJSONConfig</text>
</a>
</g>
</g>
<!-- Node2&#45;&gt;Node3 -->
<g id="edge2" class="edge">
<title>Node2&#45;&gt;Node3</title>
<path fill="none" stroke="midnightblue" d="M396.37,-64.5C387.39,-64.5 378.24,-64.5 369.25,-64.5"/>
<polygon fill="midnightblue" stroke="midnightblue" points="396.43,-68 406.43,-64.5 396.43,-61 396.43,-68"/>
</g>
<!-- Node4 -->
<g id="node4" class="node">
<title>Node4</title>
<g id="a_node4"><a xlink:href="classAQuadPawn.html#ab175aa4a4f7a67626130dc16c8f4ad56" target="_top" xlink:title=" ">
<polygon fill="white" stroke="black" points="0,-49.5 0,-79.5 164,-79.5 164,-49.5 0,-49.5"/>
<text text-anchor="start" x="8" y="-67.5" font-family="Helvetica,sans-Serif" font-size="10.00">AQuadPawn::SetupPlayerInput</text>
<text text-anchor="middle" x="82" y="-56.5" font-family="Helvetica,sans-Serif" font-size="10.00">Component</text>
</a>
</g>
</g>
<!-- Node3&#45;&gt;Node4 -->
<g id="edge3" class="edge">
<title>Node3&#45;&gt;Node4</title>
<path fill="none" stroke="midnightblue" d="M189.89,-64.5C181.3,-64.5 172.65,-64.5 164.19,-64.5"/>
<polygon fill="midnightblue" stroke="midnightblue" points="189.92,-68 199.92,-64.5 189.92,-61 189.92,-68"/>
</g>
</g>
</svg>
