<?xml version="1.0" encoding="UTF-8" standalone="no"?>
<!DOCTYPE svg PUBLIC "-//W3C//DTD SVG 1.1//EN"
 "http://www.w3.org/Graphics/SVG/1.1/DTD/svg11.dtd">
<!-- Generated by graphviz version 2.43.0 (0)
 -->
<!-- Title: UQuadDroneController::SetDesiredYawRate Pages: 1 -->
<svg width="539pt" height="78pt"
 viewBox="0.00 0.00 539.00 77.50" xmlns="http://www.w3.org/2000/svg" xmlns:xlink="http://www.w3.org/1999/xlink">
<g id="graph0" class="graph" transform="scale(1 1) rotate(0) translate(4 73.5)">
<title>UQuadDroneController::SetDesiredYawRate</title>
<polygon fill="white" stroke="transparent" points="-4,4 -4,-73.5 535,-73.5 535,4 -4,4"/>
<!-- Node1 -->
<g id="node1" class="node">
<title>Node1</title>
<g id="a_node1"><a xlink:title=" ">
<polygon fill="#bfbfbf" stroke="black" points="404,-22.5 404,-52.5 531,-52.5 531,-22.5 404,-22.5"/>
<text text-anchor="start" x="412" y="-40.5" font-family="Helvetica,sans-Serif" font-size="10.00">UQuadDroneController</text>
<text text-anchor="middle" x="467.5" y="-29.5" font-family="Helvetica,sans-Serif" font-size="10.00">::SetDesiredYawRate</text>
</a>
</g>
</g>
<!-- Node2 -->
<g id="node2" class="node">
<title>Node2</title>
<g id="a_node2"><a xlink:href="classAROS2Controller.html#ae326b8f20ab67928962d52fefae6212f" target="_top" xlink:title=" ">
<polygon fill="white" stroke="black" points="188,-50 188,-69 368,-69 368,-50 188,-50"/>
<text text-anchor="middle" x="278" y="-57" font-family="Helvetica,sans-Serif" font-size="10.00">AROS2Controller::HandleImuData</text>
</a>
</g>
</g>
<!-- Node1&#45;&gt;Node2 -->
<g id="edge1" class="edge">
<title>Node1&#45;&gt;Node2</title>
<path fill="none" stroke="midnightblue" d="M393.77,-46.03C382.7,-47.33 371.21,-48.68 359.97,-50"/>
<polygon fill="midnightblue" stroke="midnightblue" points="394.28,-49.5 403.8,-44.86 393.46,-42.55 394.28,-49.5"/>
</g>
<!-- Node4 -->
<g id="node4" class="node">
<title>Node4</title>
<g id="a_node4"><a xlink:href="classAROS2Controller.html#a2aaa10c84a46e149720e3756bb5ec960" target="_top" xlink:title=" ">
<polygon fill="white" stroke="black" points="189.5,-0.5 189.5,-30.5 366.5,-30.5 366.5,-0.5 189.5,-0.5"/>
<text text-anchor="start" x="197.5" y="-18.5" font-family="Helvetica,sans-Serif" font-size="10.00">AROS2Controller::HandleVelocity</text>
<text text-anchor="middle" x="278" y="-7.5" font-family="Helvetica,sans-Serif" font-size="10.00">Command</text>
</a>
</g>
</g>
<!-- Node1&#45;&gt;Node4 -->
<g id="edge3" class="edge">
<title>Node1&#45;&gt;Node4</title>
<path fill="none" stroke="midnightblue" d="M393.87,-28.98C384.96,-27.93 375.77,-26.85 366.67,-25.79"/>
<polygon fill="midnightblue" stroke="midnightblue" points="393.46,-32.45 403.8,-30.14 394.28,-25.5 393.46,-32.45"/>
</g>
<!-- Node3 -->
<g id="node3" class="node">
<title>Node3</title>
<g id="a_node3"><a xlink:href="classAROS2Controller.html#a950f5d2c970783f3687246ecde0a6220" target="_top" xlink:title=" ">
<polygon fill="white" stroke="black" points="0,-28 0,-47 152,-47 152,-28 0,-28"/>
<text text-anchor="middle" x="76" y="-35" font-family="Helvetica,sans-Serif" font-size="10.00">AROS2Controller::BeginPlay</text>
</a>
</g>
</g>
<!-- Node2&#45;&gt;Node3 -->
<g id="edge2" class="edge">
<title>Node2&#45;&gt;Node3</title>
<path fill="none" stroke="midnightblue" d="M180.21,-48.85C170.76,-47.81 161.27,-46.77 152.08,-45.76"/>
<polygon fill="midnightblue" stroke="midnightblue" points="180.12,-52.36 190.44,-49.98 180.88,-45.41 180.12,-52.36"/>
</g>
<!-- Node4&#45;&gt;Node3 -->
<g id="edge4" class="edge">
<title>Node4&#45;&gt;Node3</title>
<path fill="none" stroke="midnightblue" d="M179.08,-26.27C170.02,-27.27 160.94,-28.27 152.13,-29.24"/>
<polygon fill="midnightblue" stroke="midnightblue" points="179.72,-29.72 189.28,-25.15 178.95,-22.76 179.72,-29.72"/>
</g>
</g>
</svg>
