<?xml version="1.0" encoding="UTF-8" standalone="no"?>
<!DOCTYPE svg PUBLIC "-//W3C//DTD SVG 1.1//EN"
 "http://www.w3.org/Graphics/SVG/1.1/DTD/svg11.dtd">
<!-- Generated by graphviz version 2.43.0 (0)
 -->
<!-- Title: AQuadPawn::GenerateFigureEightWaypoints Pages: 1 -->
<svg width="885pt" height="127pt"
 viewBox="0.00 0.00 885.00 127.00" xmlns="http://www.w3.org/2000/svg" xmlns:xlink="http://www.w3.org/1999/xlink">
<g id="graph0" class="graph" transform="scale(1 1) rotate(0) translate(4 123)">
<title>AQuadPawn::GenerateFigureEightWaypoints</title>
<polygon fill="white" stroke="transparent" points="-4,4 -4,-123 881,-123 881,4 -4,4"/>
<!-- Node1 -->
<g id="node1" class="node">
<title>Node1</title>
<g id="a_node1"><a xlink:title=" ">
<polygon fill="#bfbfbf" stroke="black" points="722,-44.5 722,-74.5 877,-74.5 877,-44.5 722,-44.5"/>
<text text-anchor="start" x="730" y="-62.5" font-family="Helvetica,sans-Serif" font-size="10.00">AQuadPawn::GenerateFigure</text>
<text text-anchor="middle" x="799.5" y="-51.5" font-family="Helvetica,sans-Serif" font-size="10.00">EightWaypoints</text>
</a>
</g>
</g>
<!-- Node2 -->
<g id="node2" class="node">
<title>Node2</title>
<g id="a_node2"><a xlink:href="classUQuadDroneController.html#abe10155e4aa1c6a77e67347ca91d2fdc" target="_top" xlink:title=" ">
<polygon fill="white" stroke="black" points="559,-44.5 559,-74.5 686,-74.5 686,-44.5 559,-44.5"/>
<text text-anchor="start" x="567" y="-62.5" font-family="Helvetica,sans-Serif" font-size="10.00">UQuadDroneController</text>
<text text-anchor="middle" x="622.5" y="-51.5" font-family="Helvetica,sans-Serif" font-size="10.00">::SetFlightMode</text>
</a>
</g>
</g>
<!-- Node1&#45;&gt;Node2 -->
<g id="edge1" class="edge">
<title>Node1&#45;&gt;Node2</title>
<path fill="none" stroke="midnightblue" d="M711.86,-59.5C703.21,-59.5 694.54,-59.5 686.2,-59.5"/>
<polygon fill="midnightblue" stroke="midnightblue" points="712,-63 722,-59.5 712,-56 712,-63"/>
</g>
<!-- Node3 -->
<g id="node3" class="node">
<title>Node3</title>
<g id="a_node3"><a xlink:href="classADroneManager.html#a7c710fb687f8c24a5f6b3c3075241ca7" target="_top" xlink:title=" ">
<polygon fill="white" stroke="black" points="344.5,-88.5 344.5,-118.5 515.5,-118.5 515.5,-88.5 344.5,-88.5"/>
<text text-anchor="start" x="352.5" y="-106.5" font-family="Helvetica,sans-Serif" font-size="10.00">ADroneManager::RegisterDrone</text>
<text text-anchor="middle" x="430" y="-95.5" font-family="Helvetica,sans-Serif" font-size="10.00">Controller</text>
</a>
</g>
</g>
<!-- Node2&#45;&gt;Node3 -->
<g id="edge2" class="edge">
<title>Node2&#45;&gt;Node3</title>
<path fill="none" stroke="midnightblue" d="M548.77,-76.3C531.4,-80.31 512.96,-84.57 495.97,-88.49"/>
<polygon fill="midnightblue" stroke="midnightblue" points="549.9,-79.63 558.86,-73.97 548.33,-72.81 549.9,-79.63"/>
</g>
<!-- Node4 -->
<g id="node4" class="node">
<title>Node4</title>
<g id="a_node4"><a xlink:href="classAQuadPawn.html#af8af5c468ed301475f627e3169c996b8" target="_top" xlink:title=" ">
<polygon fill="white" stroke="black" points="337,-50 337,-69 523,-69 523,-50 337,-50"/>
<text text-anchor="middle" x="430" y="-57" font-family="Helvetica,sans-Serif" font-size="10.00">AQuadPawn::ToggleGamepadMode</text>
</a>
</g>
</g>
<!-- Node2&#45;&gt;Node4 -->
<g id="edge3" class="edge">
<title>Node2&#45;&gt;Node4</title>
<path fill="none" stroke="midnightblue" d="M548.73,-59.5C540.31,-59.5 531.64,-59.5 523,-59.5"/>
<polygon fill="midnightblue" stroke="midnightblue" points="548.86,-63 558.86,-59.5 548.86,-56 548.86,-63"/>
</g>
<!-- Node6 -->
<g id="node6" class="node">
<title>Node6</title>
<g id="a_node6"><a xlink:href="classUQuadDroneController.html#aeacce81326aab408e9f95553fb3ae2bc" target="_top" xlink:title=" ">
<polygon fill="white" stroke="black" points="366.5,-0.5 366.5,-30.5 493.5,-30.5 493.5,-0.5 366.5,-0.5"/>
<text text-anchor="start" x="374.5" y="-18.5" font-family="Helvetica,sans-Serif" font-size="10.00">UQuadDroneController</text>
<text text-anchor="middle" x="430" y="-7.5" font-family="Helvetica,sans-Serif" font-size="10.00">::Update</text>
</a>
</g>
</g>
<!-- Node2&#45;&gt;Node6 -->
<g id="edge5" class="edge">
<title>Node2&#45;&gt;Node6</title>
<path fill="none" stroke="midnightblue" d="M548.89,-42.73C530.7,-38.53 511.34,-34.06 493.68,-29.98"/>
<polygon fill="midnightblue" stroke="midnightblue" points="548.33,-46.19 558.86,-45.03 549.9,-39.37 548.33,-46.19"/>
</g>
<!-- Node5 -->
<g id="node5" class="node">
<title>Node5</title>
<g id="a_node5"><a xlink:href="classAQuadPawn.html#ab175aa4a4f7a67626130dc16c8f4ad56" target="_top" xlink:title=" ">
<polygon fill="white" stroke="black" points="137,-44.5 137,-74.5 301,-74.5 301,-44.5 137,-44.5"/>
<text text-anchor="start" x="145" y="-62.5" font-family="Helvetica,sans-Serif" font-size="10.00">AQuadPawn::SetupPlayerInput</text>
<text text-anchor="middle" x="219" y="-51.5" font-family="Helvetica,sans-Serif" font-size="10.00">Component</text>
</a>
</g>
</g>
<!-- Node4&#45;&gt;Node5 -->
<g id="edge4" class="edge">
<title>Node4&#45;&gt;Node5</title>
<path fill="none" stroke="midnightblue" d="M326.72,-59.5C318.18,-59.5 309.62,-59.5 301.27,-59.5"/>
<polygon fill="midnightblue" stroke="midnightblue" points="326.72,-63 336.72,-59.5 326.72,-56 326.72,-63"/>
</g>
<!-- Node7 -->
<g id="node7" class="node">
<title>Node7</title>
<g id="a_node7"><a xlink:href="classAQuadPawn.html#aaf5f515b74f9316e932e4e1ccf9878ba" target="_top" xlink:title=" ">
<polygon fill="white" stroke="black" points="143.5,-6 143.5,-25 294.5,-25 294.5,-6 143.5,-6"/>
<text text-anchor="middle" x="219" y="-13" font-family="Helvetica,sans-Serif" font-size="10.00">AQuadPawn::UpdateControl</text>
</a>
</g>
</g>
<!-- Node6&#45;&gt;Node7 -->
<g id="edge6" class="edge">
<title>Node6&#45;&gt;Node7</title>
<path fill="none" stroke="midnightblue" d="M356.09,-15.5C336.26,-15.5 314.76,-15.5 294.82,-15.5"/>
<polygon fill="midnightblue" stroke="midnightblue" points="356.29,-19 366.29,-15.5 356.29,-12 356.29,-19"/>
</g>
<!-- Node8 -->
<g id="node8" class="node">
<title>Node8</title>
<g id="a_node8"><a xlink:href="classAQuadPawn.html#abddecbb307ce019d37ecf4b3dfcecad3" target="_top" xlink:title=" ">
<polygon fill="white" stroke="black" points="0,-6 0,-25 101,-25 101,-6 0,-6"/>
<text text-anchor="middle" x="50.5" y="-13" font-family="Helvetica,sans-Serif" font-size="10.00">AQuadPawn::Tick</text>
</a>
</g>
</g>
<!-- Node7&#45;&gt;Node8 -->
<g id="edge7" class="edge">
<title>Node7&#45;&gt;Node8</title>
<path fill="none" stroke="midnightblue" d="M132.71,-15.5C121.94,-15.5 111.21,-15.5 101.25,-15.5"/>
<polygon fill="midnightblue" stroke="midnightblue" points="133.03,-19 143.03,-15.5 133.03,-12 133.03,-19"/>
</g>
</g>
</svg>
