<?xml version="1.0" encoding="UTF-8" standalone="no"?>
<!DOCTYPE svg PUBLIC "-//W3C//DTD SVG 1.1//EN"
 "http://www.w3.org/Graphics/SVG/1.1/DTD/svg11.dtd">
<!-- Generated by graphviz version 2.43.0 (0)
 -->
<!-- Title: AROS2Controller::HandleObstacleMessage Pages: 1 -->
<svg width="810pt" height="204pt"
 viewBox="0.00 0.00 810.00 203.50" xmlns="http://www.w3.org/2000/svg" xmlns:xlink="http://www.w3.org/1999/xlink">
<g id="graph0" class="graph" transform="scale(1 1) rotate(0) translate(4 199.5)">
<title>AROS2Controller::HandleObstacleMessage</title>
<polygon fill="white" stroke="transparent" points="-4,4 -4,-199.5 806,-199.5 806,4 -4,4"/>
<!-- Node1 -->
<g id="node1" class="node">
<title>Node1</title>
<g id="a_node1"><a xlink:title=" ">
<polygon fill="#bfbfbf" stroke="black" points="0,-82.5 0,-112.5 181,-112.5 181,-82.5 0,-82.5"/>
<text text-anchor="start" x="8" y="-100.5" font-family="Helvetica,sans-Serif" font-size="10.00">AROS2Controller::HandleObstacle</text>
<text text-anchor="middle" x="90.5" y="-89.5" font-family="Helvetica,sans-Serif" font-size="10.00">Message</text>
</a>
</g>
</g>
<!-- Node2 -->
<g id="node2" class="node">
<title>Node2</title>
<g id="a_node2"><a xlink:href="classAObstacleManager.html#adeb6b0b2beed769a6b8bbae69bc00849" target="_top" xlink:title=" ">
<polygon fill="white" stroke="black" points="217,-82.5 217,-112.5 364,-112.5 364,-82.5 217,-82.5"/>
<text text-anchor="start" x="225" y="-100.5" font-family="Helvetica,sans-Serif" font-size="10.00">AObstacleManager::Create</text>
<text text-anchor="middle" x="290.5" y="-89.5" font-family="Helvetica,sans-Serif" font-size="10.00">Obstacles</text>
</a>
</g>
</g>
<!-- Node1&#45;&gt;Node2 -->
<g id="edge1" class="edge">
<title>Node1&#45;&gt;Node2</title>
<path fill="none" stroke="midnightblue" d="M181.23,-97.5C189.74,-97.5 198.35,-97.5 206.79,-97.5"/>
<polygon fill="midnightblue" stroke="midnightblue" points="206.98,-101 216.98,-97.5 206.98,-94 206.98,-101"/>
</g>
<!-- Node3 -->
<g id="node3" class="node">
<title>Node3</title>
<g id="a_node3"><a xlink:href="classAObstacleManager.html#aea69b1fc06b29a36d98673c2a1ac5302" target="_top" xlink:title=" ">
<polygon fill="white" stroke="black" points="401,-176 401,-195 589,-195 589,-176 401,-176"/>
<text text-anchor="middle" x="495" y="-183" font-family="Helvetica,sans-Serif" font-size="10.00">AObstacleManager::ClearObstacles</text>
</a>
</g>
</g>
<!-- Node2&#45;&gt;Node3 -->
<g id="edge2" class="edge">
<title>Node2&#45;&gt;Node3</title>
<path fill="none" stroke="midnightblue" d="M310.31,-112.53C331.06,-128.35 366.04,-152.82 400,-166.5 406.58,-169.15 413.58,-171.45 420.67,-173.43"/>
<polygon fill="midnightblue" stroke="midnightblue" points="419.81,-176.82 430.37,-175.95 421.57,-170.05 419.81,-176.82"/>
</g>
<!-- Node4 -->
<g id="node4" class="node">
<title>Node4</title>
<g id="a_node4"><a xlink:href="classAObstacleManager.html#a231657c5b5cffa654a526bbe2f1ce05c" target="_top" xlink:title=" ">
<polygon fill="white" stroke="black" points="409.5,-126.5 409.5,-156.5 580.5,-156.5 580.5,-126.5 409.5,-126.5"/>
<text text-anchor="start" x="417.5" y="-144.5" font-family="Helvetica,sans-Serif" font-size="10.00">AObstacleManager::MoveDrone</text>
<text text-anchor="middle" x="495" y="-133.5" font-family="Helvetica,sans-Serif" font-size="10.00">ToOppositeOfGoal</text>
</a>
</g>
</g>
<!-- Node2&#45;&gt;Node4 -->
<g id="edge3" class="edge">
<title>Node2&#45;&gt;Node4</title>
<path fill="none" stroke="midnightblue" d="M360.62,-112.52C378.12,-116.32 397.05,-120.43 414.99,-124.33"/>
<polygon fill="midnightblue" stroke="midnightblue" points="414.33,-127.77 424.85,-126.47 415.82,-120.93 414.33,-127.77"/>
</g>
<!-- Node6 -->
<g id="node6" class="node">
<title>Node6</title>
<g id="a_node6"><a xlink:href="classAObstacleManager.html#ae7ac658131e204b783c048d177ef5c5b" target="_top" xlink:title=" ">
<polygon fill="white" stroke="black" points="410,-88 410,-107 580,-107 580,-88 410,-88"/>
<text text-anchor="middle" x="495" y="-95" font-family="Helvetica,sans-Serif" font-size="10.00">AObstacleManager::SpawnGoal</text>
</a>
</g>
</g>
<!-- Node2&#45;&gt;Node6 -->
<g id="edge5" class="edge">
<title>Node2&#45;&gt;Node6</title>
<path fill="none" stroke="midnightblue" d="M364.04,-97.5C375.65,-97.5 387.81,-97.5 399.84,-97.5"/>
<polygon fill="midnightblue" stroke="midnightblue" points="399.9,-101 409.9,-97.5 399.9,-94 399.9,-101"/>
</g>
<!-- Node7 -->
<g id="node7" class="node">
<title>Node7</title>
<g id="a_node7"><a xlink:href="classAObstacleManager.html#a995b27c090bb8131e0a4076ca4ea872e" target="_top" xlink:title=" ">
<polygon fill="white" stroke="black" points="400,-50 400,-69 590,-69 590,-50 400,-50"/>
<text text-anchor="middle" x="495" y="-57" font-family="Helvetica,sans-Serif" font-size="10.00">AObstacleManager::SpawnObstacle</text>
</a>
</g>
</g>
<!-- Node2&#45;&gt;Node7 -->
<g id="edge6" class="edge">
<title>Node2&#45;&gt;Node7</title>
<path fill="none" stroke="midnightblue" d="M364.04,-83.89C386.67,-79.64 411.38,-75 433.13,-70.92"/>
<polygon fill="midnightblue" stroke="midnightblue" points="434.04,-74.31 443.22,-69.03 432.74,-67.43 434.04,-74.31"/>
</g>
<!-- Node9 -->
<g id="node9" class="node">
<title>Node9</title>
<g id="a_node9"><a xlink:href="classAObstacleManager.html#a76f203fda8aab28dcd97829554d8218d" target="_top" xlink:title=" ">
<polygon fill="white" stroke="black" points="415.5,-0.5 415.5,-30.5 574.5,-30.5 574.5,-0.5 415.5,-0.5"/>
<text text-anchor="start" x="423.5" y="-18.5" font-family="Helvetica,sans-Serif" font-size="10.00">AObstacleManager::Visualize</text>
<text text-anchor="middle" x="495" y="-7.5" font-family="Helvetica,sans-Serif" font-size="10.00">SpawnBoundaries</text>
</a>
</g>
</g>
<!-- Node2&#45;&gt;Node9 -->
<g id="edge8" class="edge">
<title>Node2&#45;&gt;Node9</title>
<path fill="none" stroke="midnightblue" d="M316.18,-82.49C337.7,-69.91 370.07,-52.17 400,-40.5 406.34,-38.03 413.02,-35.71 419.76,-33.57"/>
<polygon fill="midnightblue" stroke="midnightblue" points="421.12,-36.81 429.67,-30.55 419.08,-30.12 421.12,-36.81"/>
</g>
<!-- Node5 -->
<g id="node5" class="node">
<title>Node5</title>
<g id="a_node5"><a xlink:href="classAObstacleManager.html#a56e3ca06a6508da0f0862e6a6c1d022b" target="_top" xlink:title=" ">
<polygon fill="white" stroke="black" points="626,-126.5 626,-156.5 802,-156.5 802,-126.5 626,-126.5"/>
<text text-anchor="start" x="634" y="-144.5" font-family="Helvetica,sans-Serif" font-size="10.00">AObstacleManager::GetOpposite</text>
<text text-anchor="middle" x="714" y="-133.5" font-family="Helvetica,sans-Serif" font-size="10.00">Position</text>
</a>
</g>
</g>
<!-- Node4&#45;&gt;Node5 -->
<g id="edge4" class="edge">
<title>Node4&#45;&gt;Node5</title>
<path fill="none" stroke="midnightblue" d="M580.52,-141.5C592.02,-141.5 603.91,-141.5 615.62,-141.5"/>
<polygon fill="midnightblue" stroke="midnightblue" points="615.85,-145 625.85,-141.5 615.85,-138 615.85,-145"/>
</g>
<!-- Node8 -->
<g id="node8" class="node">
<title>Node8</title>
<g id="a_node8"><a xlink:href="classAObstacleManager.html#adecee5b0414d248cead0d36e92571e6f" target="_top" xlink:title=" ">
<polygon fill="white" stroke="black" points="627.5,-44.5 627.5,-74.5 800.5,-74.5 800.5,-44.5 627.5,-44.5"/>
<text text-anchor="start" x="635.5" y="-62.5" font-family="Helvetica,sans-Serif" font-size="10.00">AObstacleManager::GetRandom</text>
<text text-anchor="middle" x="714" y="-51.5" font-family="Helvetica,sans-Serif" font-size="10.00">InnerPoint</text>
</a>
</g>
</g>
<!-- Node7&#45;&gt;Node8 -->
<g id="edge7" class="edge">
<title>Node7&#45;&gt;Node8</title>
<path fill="none" stroke="midnightblue" d="M590.23,-59.5C599.21,-59.5 608.32,-59.5 617.3,-59.5"/>
<polygon fill="midnightblue" stroke="midnightblue" points="617.39,-63 627.39,-59.5 617.39,-56 617.39,-63"/>
</g>
</g>
</svg>
