<?xml version="1.0" encoding="UTF-8" standalone="no"?>
<!DOCTYPE svg PUBLIC "-//W3C//DTD SVG 1.1//EN"
 "http://www.w3.org/Graphics/SVG/1.1/DTD/svg11.dtd">
<!-- Generated by graphviz version 2.43.0 (0)
 -->
<!-- Title: AROS2Controller Pages: 1 -->
<svg width="224pt" height="152pt"
 viewBox="0.00 0.00 224.00 152.00" xmlns="http://www.w3.org/2000/svg" xmlns:xlink="http://www.w3.org/1999/xlink">
<g id="graph0" class="graph" transform="scale(1 1) rotate(0) translate(4 148)">
<title>AROS2Controller</title>
<polygon fill="white" stroke="transparent" points="-4,4 -4,-148 220,-148 220,4 -4,4"/>
<!-- Node1 -->
<g id="node1" class="node">
<title>Node1</title>
<g id="a_node1"><a xlink:title=" ">
<polygon fill="#bfbfbf" stroke="black" points="0,-0.5 0,-19.5 98,-19.5 98,-0.5 0,-0.5"/>
<text text-anchor="middle" x="49" y="-7.5" font-family="Helvetica,sans-Serif" font-size="10.00">AROS2Controller</text>
</a>
</g>
</g>
<!-- Node2 -->
<g id="node2" class="node">
<title>Node2</title>
<g id="a_node2"><a xlink:title=" ">
<polygon fill="white" stroke="#bfbfbf" points="20.5,-124.5 20.5,-143.5 69.5,-143.5 69.5,-124.5 20.5,-124.5"/>
<text text-anchor="middle" x="45" y="-131.5" font-family="Helvetica,sans-Serif" font-size="10.00">AActor</text>
</a>
</g>
</g>
<!-- Node2&#45;&gt;Node1 -->
<g id="edge1" class="edge">
<title>Node2&#45;&gt;Node1</title>
<path fill="none" stroke="midnightblue" d="M45.62,-114.19C46.5,-87.4 48.07,-39.31 48.71,-19.69"/>
<polygon fill="midnightblue" stroke="midnightblue" points="42.12,-114.12 45.29,-124.23 49.11,-114.35 42.12,-114.12"/>
</g>
<!-- Node3 -->
<g id="node3" class="node">
<title>Node3</title>
<g id="a_node3"><a xlink:href="classAObstacleManager.html" target="_top" xlink:title=" ">
<polygon fill="white" stroke="black" points="61.5,-67.5 61.5,-86.5 170.5,-86.5 170.5,-67.5 61.5,-67.5"/>
<text text-anchor="middle" x="116" y="-74.5" font-family="Helvetica,sans-Serif" font-size="10.00">AObstacleManager</text>
</a>
</g>
</g>
<!-- Node2&#45;&gt;Node3 -->
<g id="edge3" class="edge">
<title>Node2&#45;&gt;Node3</title>
<path fill="none" stroke="midnightblue" d="M64.37,-118C77.32,-107.96 93.92,-95.1 104.75,-86.71"/>
<polygon fill="midnightblue" stroke="midnightblue" points="61.86,-115.52 56.09,-124.41 66.14,-121.05 61.86,-115.52"/>
</g>
<!-- Node3&#45;&gt;Node1 -->
<g id="edge2" class="edge">
<title>Node3&#45;&gt;Node1</title>
<path fill="none" stroke="#9a32cd" stroke-dasharray="5,2" d="M99.5,-60C86.36,-47.25 68.48,-29.89 57.89,-19.63"/>
<polygon fill="#9a32cd" stroke="#9a32cd" points="97.35,-62.78 106.96,-67.23 102.22,-57.76 97.35,-62.78"/>
<text text-anchor="middle" x="151" y="-41" font-family="Helvetica,sans-Serif" font-size="10.00"> ObstacleManagerInstance</text>
</g>
</g>
</svg>
