<?xml version="1.0" encoding="UTF-8" standalone="no"?>
<!DOCTYPE svg PUBLIC "-//W3C//DTD SVG 1.1//EN"
 "http://www.w3.org/Graphics/SVG/1.1/DTD/svg11.dtd">
<!-- Generated by graphviz version 2.43.0 (0)
 -->
<!-- Title: UQuadDroneController::FlightController Pages: 1 -->
<svg width="625pt" height="293pt"
 viewBox="0.00 0.00 625.00 293.28" xmlns="http://www.w3.org/2000/svg" xmlns:xlink="http://www.w3.org/1999/xlink">
<g id="graph0" class="graph" transform="scale(1 1) rotate(0) translate(4 289.28)">
<title>UQuadDroneController::FlightController</title>
<polygon fill="white" stroke="transparent" points="-4,4 -4,-289.28 621,-289.28 621,4 -4,4"/>
<!-- Node1 -->
<g id="node1" class="node">
<title>Node1</title>
<g id="a_node1"><a xlink:title=" ">
<polygon fill="#bfbfbf" stroke="black" points="0,-131.5 0,-161.5 127,-161.5 127,-131.5 0,-131.5"/>
<text text-anchor="start" x="8" y="-149.5" font-family="Helvetica,sans-Serif" font-size="10.00">UQuadDroneController</text>
<text text-anchor="middle" x="63.5" y="-138.5" font-family="Helvetica,sans-Serif" font-size="10.00">::FlightController</text>
</a>
</g>
</g>
<!-- Node2 -->
<g id="node2" class="node">
<title>Node2</title>
<g id="a_node2"><a xlink:href="classQuadPIDController.html#ad96b9199d7ae1f627a01c0ac888220c8" target="_top" xlink:title=" ">
<polygon fill="white" stroke="black" points="344,-134.5 344,-164.5 457,-164.5 457,-134.5 344,-134.5"/>
<text text-anchor="start" x="352" y="-152.5" font-family="Helvetica,sans-Serif" font-size="10.00">QuadPIDController::</text>
<text text-anchor="middle" x="400.5" y="-141.5" font-family="Helvetica,sans-Serif" font-size="10.00">Calculate</text>
</a>
</g>
</g>
<!-- Node1&#45;&gt;Node2 -->
<g id="edge1" class="edge">
<title>Node1&#45;&gt;Node2</title>
<path fill="none" stroke="midnightblue" d="M71.61,-161.7C85.06,-188.42 117.08,-243.01 163,-264.5 221.37,-291.81 249.95,-292.49 308,-264.5 346.85,-245.76 374.3,-201.62 388.45,-173.8"/>
<polygon fill="midnightblue" stroke="midnightblue" points="391.65,-175.22 392.9,-164.7 385.36,-172.15 391.65,-175.22"/>
</g>
<!-- Node4 -->
<g id="node4" class="node">
<title>Node4</title>
<g id="a_node4"><a xlink:href="classDroneMathUtils.html#a60bb84d076590f7ea87f59df8ffb8a4e" target="_top" xlink:title=" ">
<polygon fill="white" stroke="black" points="163,-224.5 163,-254.5 308,-254.5 308,-224.5 163,-224.5"/>
<text text-anchor="start" x="171" y="-242.5" font-family="Helvetica,sans-Serif" font-size="10.00">DroneMathUtils::Calculate</text>
<text text-anchor="middle" x="235.5" y="-231.5" font-family="Helvetica,sans-Serif" font-size="10.00">DesiredVelocity</text>
</a>
</g>
</g>
<!-- Node1&#45;&gt;Node4 -->
<g id="edge3" class="edge">
<title>Node1&#45;&gt;Node4</title>
<path fill="none" stroke="midnightblue" d="M82.73,-161.7C101.77,-176.97 132.99,-200.35 163,-215.5 166.58,-217.31 170.33,-219.03 174.15,-220.65"/>
<polygon fill="midnightblue" stroke="midnightblue" points="173.17,-224.03 183.75,-224.49 175.77,-217.53 173.17,-224.03"/>
</g>
<!-- Node5 -->
<g id="node5" class="node">
<title>Node5</title>
<g id="a_node5"><a xlink:href="classUQuadDroneController.html#a1b6bdb6ea17c076aef0c88f374da61fc" target="_top" xlink:title=" ">
<polygon fill="white" stroke="black" points="170.5,-175.5 170.5,-205.5 300.5,-205.5 300.5,-175.5 170.5,-175.5"/>
<text text-anchor="start" x="178.5" y="-193.5" font-family="Helvetica,sans-Serif" font-size="10.00">UQuadDroneController</text>
<text text-anchor="middle" x="235.5" y="-182.5" font-family="Helvetica,sans-Serif" font-size="10.00">::DrawDebugVisualsVel</text>
</a>
</g>
</g>
<!-- Node1&#45;&gt;Node5 -->
<g id="edge4" class="edge">
<title>Node1&#45;&gt;Node5</title>
<path fill="none" stroke="midnightblue" d="M122.53,-161.52C136.67,-165.18 151.93,-169.13 166.49,-172.9"/>
<polygon fill="midnightblue" stroke="midnightblue" points="165.89,-176.36 176.44,-175.47 167.64,-169.58 165.89,-176.36"/>
</g>
<!-- Node6 -->
<g id="node6" class="node">
<title>Node6</title>
<g id="a_node6"><a xlink:href="classADroneManager.html#a9c3c9b9953ac4f47093c19e72029c41d" target="_top" xlink:title=" ">
<polygon fill="white" stroke="black" points="176,-137 176,-156 295,-156 295,-137 176,-137"/>
<text text-anchor="middle" x="235.5" y="-144" font-family="Helvetica,sans-Serif" font-size="10.00">ADroneManager::Get</text>
</a>
</g>
</g>
<!-- Node1&#45;&gt;Node6 -->
<g id="edge5" class="edge">
<title>Node1&#45;&gt;Node6</title>
<path fill="none" stroke="midnightblue" d="M127.32,-146.5C139.86,-146.5 153.09,-146.5 165.81,-146.5"/>
<polygon fill="midnightblue" stroke="midnightblue" points="165.88,-150 175.88,-146.5 165.88,-143 165.88,-150"/>
</g>
<!-- Node7 -->
<g id="node7" class="node">
<title>Node7</title>
<g id="a_node7"><a xlink:href="classAQuadPawn.html#a88f4f046d2374491e62667e9e6a98eb1" target="_top" xlink:title=" ">
<polygon fill="white" stroke="black" points="174,-99 174,-118 297,-118 297,-99 174,-99"/>
<text text-anchor="middle" x="235.5" y="-106" font-family="Helvetica,sans-Serif" font-size="10.00">AQuadPawn::GetMass</text>
</a>
</g>
</g>
<!-- Node1&#45;&gt;Node7 -->
<g id="edge6" class="edge">
<title>Node1&#45;&gt;Node7</title>
<path fill="none" stroke="midnightblue" d="M127.32,-132.46C145.27,-128.45 164.63,-124.12 181.9,-120.26"/>
<polygon fill="midnightblue" stroke="midnightblue" points="182.8,-123.64 191.8,-118.04 181.28,-116.81 182.8,-123.64"/>
</g>
<!-- Node8 -->
<g id="node8" class="node">
<title>Node8</title>
<g id="a_node8"><a xlink:href="classUQuadDroneController.html#ae3c8dc589bca5cf3a44468d093381b5b" target="_top" xlink:title=" ">
<polygon fill="white" stroke="black" points="172,-49.5 172,-79.5 299,-79.5 299,-49.5 172,-49.5"/>
<text text-anchor="start" x="180" y="-67.5" font-family="Helvetica,sans-Serif" font-size="10.00">UQuadDroneController</text>
<text text-anchor="middle" x="235.5" y="-56.5" font-family="Helvetica,sans-Serif" font-size="10.00">::ThrustMixer</text>
</a>
</g>
</g>
<!-- Node1&#45;&gt;Node8 -->
<g id="edge7" class="edge">
<title>Node1&#45;&gt;Node8</title>
<path fill="none" stroke="midnightblue" d="M87.72,-131.39C107.27,-119.08 136.25,-101.78 163,-89.5 167.73,-87.33 172.71,-85.23 177.75,-83.23"/>
<polygon fill="midnightblue" stroke="midnightblue" points="179.36,-86.36 187.46,-79.53 176.87,-79.82 179.36,-86.36"/>
</g>
<!-- Node9 -->
<g id="node9" class="node">
<title>Node9</title>
<g id="a_node9"><a xlink:href="classUQuadDroneController.html#a0d38f3052353104ca815856c35a56820" target="_top" xlink:title=" ">
<polygon fill="white" stroke="black" points="172,-0.5 172,-30.5 299,-30.5 299,-0.5 172,-0.5"/>
<text text-anchor="start" x="180" y="-18.5" font-family="Helvetica,sans-Serif" font-size="10.00">UQuadDroneController</text>
<text text-anchor="middle" x="235.5" y="-7.5" font-family="Helvetica,sans-Serif" font-size="10.00">::YawRateControl</text>
</a>
</g>
</g>
<!-- Node1&#45;&gt;Node9 -->
<g id="edge8" class="edge">
<title>Node1&#45;&gt;Node9</title>
<path fill="none" stroke="midnightblue" d="M74.84,-131.32C91.09,-108.54 124.74,-65.53 163,-40.5 166.1,-38.47 169.38,-36.59 172.77,-34.84"/>
<polygon fill="midnightblue" stroke="midnightblue" points="174.37,-37.96 181.93,-30.53 171.39,-31.62 174.37,-37.96"/>
</g>
<!-- Node3 -->
<g id="node3" class="node">
<title>Node3</title>
<g id="a_node3"><a xlink:href="classQuadPIDController.html#ab7e668b1b8cba6bf742e8e5d73e43b87" target="_top" xlink:title=" ">
<polygon fill="white" stroke="black" points="493,-134.5 493,-164.5 617,-164.5 617,-134.5 493,-134.5"/>
<text text-anchor="start" x="501" y="-152.5" font-family="Helvetica,sans-Serif" font-size="10.00">QuadPIDController::</text>
<text text-anchor="middle" x="555" y="-141.5" font-family="Helvetica,sans-Serif" font-size="10.00">RemoveExpiredPoints</text>
</a>
</g>
</g>
<!-- Node2&#45;&gt;Node3 -->
<g id="edge2" class="edge">
<title>Node2&#45;&gt;Node3</title>
<path fill="none" stroke="midnightblue" d="M457.42,-149.5C465.64,-149.5 474.2,-149.5 482.68,-149.5"/>
<polygon fill="midnightblue" stroke="midnightblue" points="482.95,-153 492.95,-149.5 482.95,-146 482.95,-153"/>
</g>
<!-- Node9&#45;&gt;Node2 -->
<g id="edge9" class="edge">
<title>Node9&#45;&gt;Node2</title>
<path fill="none" stroke="midnightblue" d="M290,-30.59C296.32,-33.4 302.48,-36.69 308,-40.5 340.99,-63.28 368.92,-100.98 384.95,-125.53"/>
<polygon fill="midnightblue" stroke="midnightblue" points="382.17,-127.68 390.5,-134.23 388.08,-123.92 382.17,-127.68"/>
</g>
</g>
</svg>
