<?xml version="1.0" encoding="UTF-8" standalone="no"?>
<!DOCTYPE svg PUBLIC "-//W3C//DTD SVG 1.1//EN"
 "http://www.w3.org/Graphics/SVG/1.1/DTD/svg11.dtd">
<!-- Generated by graphviz version 2.43.0 (0)
 -->
<!-- Title: QuadPIDController::Calculate Pages: 1 -->
<svg width="934pt" height="152pt"
 viewBox="0.00 0.00 934.00 152.00" xmlns="http://www.w3.org/2000/svg" xmlns:xlink="http://www.w3.org/1999/xlink">
<g id="graph0" class="graph" transform="scale(1 1) rotate(0) translate(4 148)">
<title>QuadPIDController::Calculate</title>
<polygon fill="white" stroke="transparent" points="-4,4 -4,-148 930,-148 930,4 -4,4"/>
<!-- Node1 -->
<g id="node1" class="node">
<title>Node1</title>
<g id="a_node1"><a xlink:title=" ">
<polygon fill="#bfbfbf" stroke="black" points="813,-47.5 813,-77.5 926,-77.5 926,-47.5 813,-47.5"/>
<text text-anchor="start" x="821" y="-65.5" font-family="Helvetica,sans-Serif" font-size="10.00">QuadPIDController::</text>
<text text-anchor="middle" x="869.5" y="-54.5" font-family="Helvetica,sans-Serif" font-size="10.00">Calculate</text>
</a>
</g>
</g>
<!-- Node2 -->
<g id="node2" class="node">
<title>Node2</title>
<g id="a_node2"><a xlink:href="classUQuadDroneController.html#ae6cbf9660219d61d1f6efc91bc0244ba" target="_top" xlink:title=" ">
<polygon fill="white" stroke="black" points="650,-113.5 650,-143.5 777,-143.5 777,-113.5 650,-113.5"/>
<text text-anchor="start" x="658" y="-131.5" font-family="Helvetica,sans-Serif" font-size="10.00">UQuadDroneController</text>
<text text-anchor="middle" x="713.5" y="-120.5" font-family="Helvetica,sans-Serif" font-size="10.00">::dynamicController</text>
</a>
</g>
</g>
<!-- Node1&#45;&gt;Node2 -->
<g id="edge1" class="edge">
<title>Node1&#45;&gt;Node2</title>
<path fill="none" stroke="midnightblue" d="M823.73,-81.69C800.15,-91.79 771.64,-104.01 749.67,-113.43"/>
<polygon fill="midnightblue" stroke="midnightblue" points="825.36,-84.8 833.17,-77.64 822.6,-78.36 825.36,-84.8"/>
</g>
<!-- Node3 -->
<g id="node3" class="node">
<title>Node3</title>
<g id="a_node3"><a xlink:href="classUQuadDroneController.html#a515f29c2d36616543fd6eb95d9e930e0" target="_top" xlink:title=" ">
<polygon fill="white" stroke="black" points="487,-49.5 487,-79.5 614,-79.5 614,-49.5 487,-49.5"/>
<text text-anchor="start" x="495" y="-67.5" font-family="Helvetica,sans-Serif" font-size="10.00">UQuadDroneController</text>
<text text-anchor="middle" x="550.5" y="-56.5" font-family="Helvetica,sans-Serif" font-size="10.00">::FlightController</text>
</a>
</g>
</g>
<!-- Node1&#45;&gt;Node3 -->
<g id="edge2" class="edge">
<title>Node1&#45;&gt;Node3</title>
<path fill="none" stroke="midnightblue" d="M802.76,-64.11C794.1,-64.27 785.34,-64.41 777,-64.5 722,-65.1 659.45,-65.04 614.2,-64.87"/>
<polygon fill="midnightblue" stroke="midnightblue" points="802.93,-67.61 812.86,-63.91 802.79,-60.61 802.93,-67.61"/>
</g>
<!-- Node7 -->
<g id="node7" class="node">
<title>Node7</title>
<g id="a_node7"><a xlink:href="classUQuadDroneController.html#afe4037b4e2ff01815729474bff090ea0" target="_top" xlink:title=" ">
<polygon fill="white" stroke="black" points="487,-0.5 487,-30.5 614,-30.5 614,-0.5 487,-0.5"/>
<text text-anchor="start" x="495" y="-18.5" font-family="Helvetica,sans-Serif" font-size="10.00">UQuadDroneController</text>
<text text-anchor="middle" x="550.5" y="-7.5" font-family="Helvetica,sans-Serif" font-size="10.00">::GamepadController</text>
</a>
</g>
</g>
<!-- Node1&#45;&gt;Node7 -->
<g id="edge6" class="edge">
<title>Node1&#45;&gt;Node7</title>
<path fill="none" stroke="midnightblue" d="M837.44,-41.85C820.37,-31.75 798.38,-20.67 777,-15.5 723.16,-2.48 659.94,-3.85 614.16,-7.69"/>
<polygon fill="midnightblue" stroke="midnightblue" points="836.02,-45.08 846.37,-47.32 839.67,-39.11 836.02,-45.08"/>
</g>
<!-- Node8 -->
<g id="node8" class="node">
<title>Node8</title>
<g id="a_node8"><a xlink:href="classUQuadDroneController.html#a0d38f3052353104ca815856c35a56820" target="_top" xlink:title=" ">
<polygon fill="white" stroke="black" points="650,-25.5 650,-55.5 777,-55.5 777,-25.5 650,-25.5"/>
<text text-anchor="start" x="658" y="-43.5" font-family="Helvetica,sans-Serif" font-size="10.00">UQuadDroneController</text>
<text text-anchor="middle" x="713.5" y="-32.5" font-family="Helvetica,sans-Serif" font-size="10.00">::YawRateControl</text>
</a>
</g>
</g>
<!-- Node1&#45;&gt;Node8 -->
<g id="edge8" class="edge">
<title>Node1&#45;&gt;Node8</title>
<path fill="none" stroke="midnightblue" d="M802.95,-53.14C794.37,-51.91 785.6,-50.66 777.07,-49.44"/>
<polygon fill="midnightblue" stroke="midnightblue" points="802.51,-56.61 812.9,-54.56 803.5,-49.68 802.51,-56.61"/>
</g>
<!-- Node4 -->
<g id="node4" class="node">
<title>Node4</title>
<g id="a_node4"><a xlink:href="classUQuadDroneController.html#aeacce81326aab408e9f95553fb3ae2bc" target="_top" xlink:title=" ">
<polygon fill="white" stroke="black" points="324,-24.5 324,-54.5 451,-54.5 451,-24.5 324,-24.5"/>
<text text-anchor="start" x="332" y="-42.5" font-family="Helvetica,sans-Serif" font-size="10.00">UQuadDroneController</text>
<text text-anchor="middle" x="387.5" y="-31.5" font-family="Helvetica,sans-Serif" font-size="10.00">::Update</text>
</a>
</g>
</g>
<!-- Node3&#45;&gt;Node4 -->
<g id="edge3" class="edge">
<title>Node3&#45;&gt;Node4</title>
<path fill="none" stroke="midnightblue" d="M476.78,-53.21C468.19,-51.87 459.47,-50.52 451.04,-49.21"/>
<polygon fill="midnightblue" stroke="midnightblue" points="476.37,-56.69 486.79,-54.76 477.45,-49.77 476.37,-56.69"/>
</g>
<!-- Node5 -->
<g id="node5" class="node">
<title>Node5</title>
<g id="a_node5"><a xlink:href="classAQuadPawn.html#aaf5f515b74f9316e932e4e1ccf9878ba" target="_top" xlink:title=" ">
<polygon fill="white" stroke="black" points="137,-30 137,-49 288,-49 288,-30 137,-30"/>
<text text-anchor="middle" x="212.5" y="-37" font-family="Helvetica,sans-Serif" font-size="10.00">AQuadPawn::UpdateControl</text>
</a>
</g>
</g>
<!-- Node4&#45;&gt;Node5 -->
<g id="edge4" class="edge">
<title>Node4&#45;&gt;Node5</title>
<path fill="none" stroke="midnightblue" d="M313.45,-39.5C305.09,-39.5 296.55,-39.5 288.16,-39.5"/>
<polygon fill="midnightblue" stroke="midnightblue" points="313.55,-43 323.55,-39.5 313.55,-36 313.55,-43"/>
</g>
<!-- Node6 -->
<g id="node6" class="node">
<title>Node6</title>
<g id="a_node6"><a xlink:href="classAQuadPawn.html#abddecbb307ce019d37ecf4b3dfcecad3" target="_top" xlink:title=" ">
<polygon fill="white" stroke="black" points="0,-30 0,-49 101,-49 101,-30 0,-30"/>
<text text-anchor="middle" x="50.5" y="-37" font-family="Helvetica,sans-Serif" font-size="10.00">AQuadPawn::Tick</text>
</a>
</g>
</g>
<!-- Node5&#45;&gt;Node6 -->
<g id="edge5" class="edge">
<title>Node5&#45;&gt;Node6</title>
<path fill="none" stroke="midnightblue" d="M126.48,-39.5C117.83,-39.5 109.26,-39.5 101.17,-39.5"/>
<polygon fill="midnightblue" stroke="midnightblue" points="126.65,-43 136.65,-39.5 126.65,-36 126.65,-43"/>
</g>
<!-- Node7&#45;&gt;Node4 -->
<g id="edge7" class="edge">
<title>Node7&#45;&gt;Node4</title>
<path fill="none" stroke="midnightblue" d="M476.78,-26.34C468.19,-27.62 459.47,-28.92 451.04,-30.18"/>
<polygon fill="midnightblue" stroke="midnightblue" points="477.42,-29.78 486.79,-24.85 476.39,-22.86 477.42,-29.78"/>
</g>
<!-- Node8&#45;&gt;Node3 -->
<g id="edge9" class="edge">
<title>Node8&#45;&gt;Node3</title>
<path fill="none" stroke="midnightblue" d="M639.78,-51.34C631.19,-52.62 622.47,-53.92 614.04,-55.18"/>
<polygon fill="midnightblue" stroke="midnightblue" points="640.42,-54.78 649.79,-49.85 639.39,-47.86 640.42,-54.78"/>
</g>
<!-- Node8&#45;&gt;Node7 -->
<g id="edge10" class="edge">
<title>Node8&#45;&gt;Node7</title>
<path fill="none" stroke="midnightblue" d="M639.78,-29.21C631.19,-27.87 622.47,-26.52 614.04,-25.21"/>
<polygon fill="midnightblue" stroke="midnightblue" points="639.37,-32.69 649.79,-30.76 640.45,-25.77 639.37,-32.69"/>
</g>
</g>
</svg>
