<?xml version="1.0" encoding="UTF-8" standalone="no"?>
<!DOCTYPE svg PUBLIC "-//W3C//DTD SVG 1.1//EN"
 "http://www.w3.org/Graphics/SVG/1.1/DTD/svg11.dtd">
<!-- Generated by graphviz version 2.43.0 (0)
 -->
<!-- Title: UQuadHUDWidget::UpdateHUDTexture Pages: 1 -->
<svg width="575pt" height="66pt"
 viewBox="0.00 0.00 575.00 66.00" xmlns="http://www.w3.org/2000/svg" xmlns:xlink="http://www.w3.org/1999/xlink">
<g id="graph0" class="graph" transform="scale(1 1) rotate(0) translate(4 62)">
<title>UQuadHUDWidget::UpdateHUDTexture</title>
<polygon fill="white" stroke="transparent" points="-4,4 -4,-62 571,-62 571,4 -4,4"/>
<!-- Node1 -->
<g id="node1" class="node">
<title>Node1</title>
<g id="a_node1"><a xlink:title=" ">
<polygon fill="#bfbfbf" stroke="black" points="361,-19.5 361,-38.5 567,-38.5 567,-19.5 361,-19.5"/>
<text text-anchor="middle" x="464" y="-26.5" font-family="Helvetica,sans-Serif" font-size="10.00">UQuadHUDWidget::UpdateHUDTexture</text>
</a>
</g>
</g>
<!-- Node2 -->
<g id="node2" class="node">
<title>Node2</title>
<g id="a_node2"><a xlink:href="classAQuadPawn.html#a1d35d6472a7036da345489dadcbbfab5" target="_top" xlink:title=" ">
<polygon fill="white" stroke="black" points="187,-19.5 187,-38.5 325,-38.5 325,-19.5 187,-19.5"/>
<text text-anchor="middle" x="256" y="-26.5" font-family="Helvetica,sans-Serif" font-size="10.00">AQuadPawn::UpdateHUD</text>
</a>
</g>
</g>
<!-- Node1&#45;&gt;Node2 -->
<g id="edge1" class="edge">
<title>Node1&#45;&gt;Node2</title>
<path fill="none" stroke="midnightblue" d="M350.67,-29C341.98,-29 333.37,-29 325.11,-29"/>
<polygon fill="midnightblue" stroke="midnightblue" points="350.91,-32.5 360.91,-29 350.91,-25.5 350.91,-32.5"/>
</g>
<!-- Node3 -->
<g id="node3" class="node">
<title>Node3</title>
<g id="a_node3"><a xlink:href="classAQuadPawn.html#a416797652d3e15491d60ee2f3452232c" target="_top" xlink:title=" ">
<polygon fill="white" stroke="black" points="11,-38.5 11,-57.5 140,-57.5 140,-38.5 11,-38.5"/>
<text text-anchor="middle" x="75.5" y="-45.5" font-family="Helvetica,sans-Serif" font-size="10.00">AQuadPawn::BeginPlay</text>
</a>
</g>
</g>
<!-- Node2&#45;&gt;Node3 -->
<g id="edge2" class="edge">
<title>Node2&#45;&gt;Node3</title>
<path fill="none" stroke="midnightblue" d="M176.57,-37.35C164.35,-38.65 151.85,-39.98 140.02,-41.24"/>
<polygon fill="midnightblue" stroke="midnightblue" points="177.18,-40.8 186.75,-36.26 176.44,-33.84 177.18,-40.8"/>
</g>
<!-- Node4 -->
<g id="node4" class="node">
<title>Node4</title>
<g id="a_node4"><a xlink:href="classAQuadPawn.html#abcfc00ef150cce147a6c6278a73b7ac8" target="_top" xlink:title=" ">
<polygon fill="white" stroke="black" points="0,-0.5 0,-19.5 151,-19.5 151,-0.5 0,-0.5"/>
<text text-anchor="middle" x="75.5" y="-7.5" font-family="Helvetica,sans-Serif" font-size="10.00">AQuadPawn::SwitchCamera</text>
</a>
</g>
</g>
<!-- Node2&#45;&gt;Node4 -->
<g id="edge3" class="edge">
<title>Node2&#45;&gt;Node4</title>
<path fill="none" stroke="midnightblue" d="M176.58,-20.65C168.16,-19.76 159.62,-18.85 151.25,-17.96"/>
<polygon fill="midnightblue" stroke="midnightblue" points="176.44,-24.16 186.75,-21.74 177.18,-17.2 176.44,-24.16"/>
</g>
</g>
</svg>
