<?xml version="1.0" encoding="UTF-8" standalone="no"?>
<!DOCTYPE svg PUBLIC "-//W3C//DTD SVG 1.1//EN"
 "http://www.w3.org/Graphics/SVG/1.1/DTD/svg11.dtd">
<!-- Generated by graphviz version 2.43.0 (0)
 -->
<!-- Title: AROS2Controller::HandleVelocityCommand Pages: 1 -->
<svg width="348pt" height="88pt"
 viewBox="0.00 0.00 348.00 88.00" xmlns="http://www.w3.org/2000/svg" xmlns:xlink="http://www.w3.org/1999/xlink">
<g id="graph0" class="graph" transform="scale(1 1) rotate(0) translate(4 84)">
<title>AROS2Controller::HandleVelocityCommand</title>
<polygon fill="white" stroke="transparent" points="-4,4 -4,-84 344,-84 344,4 -4,4"/>
<!-- Node1 -->
<g id="node1" class="node">
<title>Node1</title>
<g id="a_node1"><a xlink:title=" ">
<polygon fill="#bfbfbf" stroke="black" points="0,-24.5 0,-54.5 177,-54.5 177,-24.5 0,-24.5"/>
<text text-anchor="start" x="8" y="-42.5" font-family="Helvetica,sans-Serif" font-size="10.00">AROS2Controller::HandleVelocity</text>
<text text-anchor="middle" x="88.5" y="-31.5" font-family="Helvetica,sans-Serif" font-size="10.00">Command</text>
</a>
</g>
</g>
<!-- Node2 -->
<g id="node2" class="node">
<title>Node2</title>
<g id="a_node2"><a xlink:href="classUQuadDroneController.html#ae7589cf0b9524c37bc25019e6f65913b" target="_top" xlink:title=" ">
<polygon fill="white" stroke="black" points="213,-49.5 213,-79.5 340,-79.5 340,-49.5 213,-49.5"/>
<text text-anchor="start" x="221" y="-67.5" font-family="Helvetica,sans-Serif" font-size="10.00">UQuadDroneController</text>
<text text-anchor="middle" x="276.5" y="-56.5" font-family="Helvetica,sans-Serif" font-size="10.00">::SetDesiredVelocity</text>
</a>
</g>
</g>
<!-- Node1&#45;&gt;Node2 -->
<g id="edge1" class="edge">
<title>Node1&#45;&gt;Node2</title>
<path fill="none" stroke="midnightblue" d="M177.05,-51.27C185.63,-52.42 194.26,-53.58 202.67,-54.71"/>
<polygon fill="midnightblue" stroke="midnightblue" points="202.41,-58.21 212.79,-56.07 203.34,-51.27 202.41,-58.21"/>
</g>
<!-- Node3 -->
<g id="node3" class="node">
<title>Node3</title>
<g id="a_node3"><a xlink:href="classUQuadDroneController.html#abb2e0b2fec0dd740021a9414d589bf2a" target="_top" xlink:title=" ">
<polygon fill="white" stroke="black" points="213,-0.5 213,-30.5 340,-30.5 340,-0.5 213,-0.5"/>
<text text-anchor="start" x="221" y="-18.5" font-family="Helvetica,sans-Serif" font-size="10.00">UQuadDroneController</text>
<text text-anchor="middle" x="276.5" y="-7.5" font-family="Helvetica,sans-Serif" font-size="10.00">::SetDesiredYawRate</text>
</a>
</g>
</g>
<!-- Node1&#45;&gt;Node3 -->
<g id="edge2" class="edge">
<title>Node1&#45;&gt;Node3</title>
<path fill="none" stroke="midnightblue" d="M177.05,-28.2C185.63,-27.1 194.26,-25.98 202.67,-24.9"/>
<polygon fill="midnightblue" stroke="midnightblue" points="203.32,-28.34 212.79,-23.59 202.42,-21.4 203.32,-28.34"/>
</g>
</g>
</svg>
