<?xml version="1.0" encoding="UTF-8" standalone="no"?>
<!DOCTYPE svg PUBLIC "-//W3C//DTD SVG 1.1//EN"
 "http://www.w3.org/Graphics/SVG/1.1/DTD/svg11.dtd">
<!-- Generated by graphviz version 2.43.0 (0)
 -->
<!-- Title: AQuadPawn::ReloadJSONConfig Pages: 1 -->
<svg width="763pt" height="78pt"
 viewBox="0.00 0.00 763.00 77.50" xmlns="http://www.w3.org/2000/svg" xmlns:xlink="http://www.w3.org/1999/xlink">
<g id="graph0" class="graph" transform="scale(1 1) rotate(0) translate(4 73.5)">
<title>AQuadPawn::ReloadJSONConfig</title>
<polygon fill="white" stroke="transparent" points="-4,4 -4,-73.5 759,-73.5 759,4 -4,4"/>
<!-- Node1 -->
<g id="node1" class="node">
<title>Node1</title>
<g id="a_node1"><a xlink:title=" ">
<polygon fill="#bfbfbf" stroke="black" points="0,-28 0,-47 169,-47 169,-28 0,-28"/>
<text text-anchor="middle" x="84.5" y="-35" font-family="Helvetica,sans-Serif" font-size="10.00">AQuadPawn::ReloadJSONConfig</text>
</a>
</g>
</g>
<!-- Node2 -->
<g id="node2" class="node">
<title>Node2</title>
<g id="a_node2"><a xlink:href="classUDroneJSONConfig.html#a65784f801237abe5504e9b188adff687" target="_top" xlink:title=" ">
<polygon fill="white" stroke="black" points="213.5,-50 213.5,-69 344.5,-69 344.5,-50 213.5,-50"/>
<text text-anchor="middle" x="279" y="-57" font-family="Helvetica,sans-Serif" font-size="10.00">UDroneJSONConfig::Get</text>
</a>
</g>
</g>
<!-- Node1&#45;&gt;Node2 -->
<g id="edge1" class="edge">
<title>Node1&#45;&gt;Node2</title>
<path fill="none" stroke="midnightblue" d="M168.81,-47.02C180.25,-48.33 191.93,-49.66 203.2,-50.95"/>
<polygon fill="midnightblue" stroke="midnightblue" points="203.09,-54.46 213.42,-52.12 203.88,-47.51 203.09,-54.46"/>
</g>
<!-- Node3 -->
<g id="node3" class="node">
<title>Node3</title>
<g id="a_node3"><a xlink:href="classUDroneJSONConfig.html#a03bad4b9aa1ece767e6d35ab8110fb4d" target="_top" xlink:title=" ">
<polygon fill="white" stroke="black" points="205,-0.5 205,-30.5 353,-30.5 353,-0.5 205,-0.5"/>
<text text-anchor="start" x="213" y="-18.5" font-family="Helvetica,sans-Serif" font-size="10.00">UDroneJSONConfig::Reload</text>
<text text-anchor="middle" x="279" y="-7.5" font-family="Helvetica,sans-Serif" font-size="10.00">Config</text>
</a>
</g>
</g>
<!-- Node1&#45;&gt;Node3 -->
<g id="edge2" class="edge">
<title>Node1&#45;&gt;Node3</title>
<path fill="none" stroke="midnightblue" d="M168.81,-27.98C177.43,-26.99 186.19,-25.99 194.81,-25.01"/>
<polygon fill="midnightblue" stroke="midnightblue" points="195.3,-28.47 204.84,-23.86 194.51,-21.52 195.3,-28.47"/>
</g>
<!-- Node4 -->
<g id="node4" class="node">
<title>Node4</title>
<g id="a_node4"><a xlink:href="classUDroneJSONConfig.html#a923277568254babf96e260fd7e2a0337" target="_top" xlink:title=" ">
<polygon fill="white" stroke="black" points="389,-6 389,-25 557,-25 557,-6 389,-6"/>
<text text-anchor="middle" x="473" y="-13" font-family="Helvetica,sans-Serif" font-size="10.00">UDroneJSONConfig::LoadConfig</text>
</a>
</g>
</g>
<!-- Node3&#45;&gt;Node4 -->
<g id="edge3" class="edge">
<title>Node3&#45;&gt;Node4</title>
<path fill="none" stroke="midnightblue" d="M353.13,-15.5C361.51,-15.5 370.14,-15.5 378.73,-15.5"/>
<polygon fill="midnightblue" stroke="midnightblue" points="378.8,-19 388.8,-15.5 378.8,-12 378.8,-19"/>
</g>
<!-- Node5 -->
<g id="node5" class="node">
<title>Node5</title>
<g id="a_node5"><a xlink:href="classUDroneJSONConfig.html#aa905396d71ecb1f4773660e9dcbfd17c" target="_top" xlink:title=" ">
<polygon fill="white" stroke="black" points="593,-0.5 593,-30.5 755,-30.5 755,-0.5 593,-0.5"/>
<text text-anchor="start" x="601" y="-18.5" font-family="Helvetica,sans-Serif" font-size="10.00">UDroneJSONConfig::GetConfig</text>
<text text-anchor="middle" x="674" y="-7.5" font-family="Helvetica,sans-Serif" font-size="10.00">FilePath</text>
</a>
</g>
</g>
<!-- Node4&#45;&gt;Node5 -->
<g id="edge4" class="edge">
<title>Node4&#45;&gt;Node5</title>
<path fill="none" stroke="midnightblue" d="M557.24,-15.5C565.65,-15.5 574.21,-15.5 582.68,-15.5"/>
<polygon fill="midnightblue" stroke="midnightblue" points="582.96,-19 592.96,-15.5 582.96,-12 582.96,-19"/>
</g>
</g>
</svg>
