<?xml version="1.0" encoding="UTF-8" standalone="no"?>
<!DOCTYPE svg PUBLIC "-//W3C//DTD SVG 1.1//EN"
 "http://www.w3.org/Graphics/SVG/1.1/DTD/svg11.dtd">
<!-- Generated by graphviz version 2.43.0 (0)
 -->
<!-- Title: AQuadPawn::UpdateGroundCameraTracking Pages: 1 -->
<svg width="602pt" height="78pt"
 viewBox="0.00 0.00 602.00 77.50" xmlns="http://www.w3.org/2000/svg" xmlns:xlink="http://www.w3.org/1999/xlink">
<g id="graph0" class="graph" transform="scale(1 1) rotate(0) translate(4 73.5)">
<title>AQuadPawn::UpdateGroundCameraTracking</title>
<polygon fill="white" stroke="transparent" points="-4,4 -4,-73.5 598,-73.5 598,4 -4,4"/>
<!-- Node1 -->
<g id="node1" class="node">
<title>Node1</title>
<g id="a_node1"><a xlink:title=" ">
<polygon fill="#bfbfbf" stroke="black" points="405,-17 405,-47 594,-47 594,-17 405,-17"/>
<text text-anchor="start" x="413" y="-35" font-family="Helvetica,sans-Serif" font-size="10.00">AQuadPawn::UpdateGroundCamera</text>
<text text-anchor="middle" x="499.5" y="-24" font-family="Helvetica,sans-Serif" font-size="10.00">Tracking</text>
</a>
</g>
</g>
<!-- Node2 -->
<g id="node2" class="node">
<title>Node2</title>
<g id="a_node2"><a xlink:href="classAQuadPawn.html#a1ad36576e2afb3b3779ac86c4951d6b0" target="_top" xlink:title=" ">
<polygon fill="white" stroke="black" points="187,-39 187,-69 369,-69 369,-39 187,-39"/>
<text text-anchor="start" x="195" y="-57" font-family="Helvetica,sans-Serif" font-size="10.00">AQuadPawn::ResetGroundCamera</text>
<text text-anchor="middle" x="278" y="-46" font-family="Helvetica,sans-Serif" font-size="10.00">Position</text>
</a>
</g>
</g>
<!-- Node1&#45;&gt;Node2 -->
<g id="edge1" class="edge">
<title>Node1&#45;&gt;Node2</title>
<path fill="none" stroke="midnightblue" d="M394.8,-42.39C386.27,-43.25 377.69,-44.11 369.27,-44.95"/>
<polygon fill="midnightblue" stroke="midnightblue" points="395.17,-45.87 404.78,-41.39 394.48,-38.91 395.17,-45.87"/>
</g>
<!-- Node4 -->
<g id="node4" class="node">
<title>Node4</title>
<g id="a_node4"><a xlink:href="classAQuadPawn.html#abddecbb307ce019d37ecf4b3dfcecad3" target="_top" xlink:title=" ">
<polygon fill="white" stroke="black" points="227.5,-0.5 227.5,-19.5 328.5,-19.5 328.5,-0.5 227.5,-0.5"/>
<text text-anchor="middle" x="278" y="-7.5" font-family="Helvetica,sans-Serif" font-size="10.00">AQuadPawn::Tick</text>
</a>
</g>
</g>
<!-- Node1&#45;&gt;Node4 -->
<g id="edge3" class="edge">
<title>Node1&#45;&gt;Node4</title>
<path fill="none" stroke="midnightblue" d="M394.59,-21.59C371.56,-19.28 348.19,-16.93 328.54,-14.97"/>
<polygon fill="midnightblue" stroke="midnightblue" points="394.48,-25.09 404.78,-22.61 395.17,-18.13 394.48,-25.09"/>
</g>
<!-- Node3 -->
<g id="node3" class="node">
<title>Node3</title>
<g id="a_node3"><a xlink:href="classAQuadPawn.html#abcfc00ef150cce147a6c6278a73b7ac8" target="_top" xlink:title=" ">
<polygon fill="white" stroke="black" points="0,-44.5 0,-63.5 151,-63.5 151,-44.5 0,-44.5"/>
<text text-anchor="middle" x="75.5" y="-51.5" font-family="Helvetica,sans-Serif" font-size="10.00">AQuadPawn::SwitchCamera</text>
</a>
</g>
</g>
<!-- Node2&#45;&gt;Node3 -->
<g id="edge2" class="edge">
<title>Node2&#45;&gt;Node3</title>
<path fill="none" stroke="midnightblue" d="M176.69,-54C168.14,-54 159.59,-54 151.28,-54"/>
<polygon fill="midnightblue" stroke="midnightblue" points="176.72,-57.5 186.72,-54 176.72,-50.5 176.72,-57.5"/>
</g>
</g>
</svg>
