<?xml version="1.0" encoding="UTF-8" standalone="no"?>
<!DOCTYPE svg PUBLIC "-//W3C//DTD SVG 1.1//EN"
 "http://www.w3.org/Graphics/SVG/1.1/DTD/svg11.dtd">
<!-- Generated by graphviz version 2.43.0 (0)
 -->
<!-- Title: QuadPIDController::Reset Pages: 1 -->
<svg width="897pt" height="313pt"
 viewBox="0.00 0.00 897.00 313.00" xmlns="http://www.w3.org/2000/svg" xmlns:xlink="http://www.w3.org/1999/xlink">
<g id="graph0" class="graph" transform="scale(1 1) rotate(0) translate(4 309)">
<title>QuadPIDController::Reset</title>
<polygon fill="white" stroke="transparent" points="-4,4 -4,-309 893,-309 893,4 -4,4"/>
<!-- Node1 -->
<g id="node1" class="node">
<title>Node1</title>
<g id="a_node1"><a xlink:title=" ">
<polygon fill="#bfbfbf" stroke="black" points="776,-137.5 776,-167.5 889,-167.5 889,-137.5 776,-137.5"/>
<text text-anchor="start" x="784" y="-155.5" font-family="Helvetica,sans-Serif" font-size="10.00">QuadPIDController::</text>
<text text-anchor="middle" x="832.5" y="-144.5" font-family="Helvetica,sans-Serif" font-size="10.00">Reset</text>
</a>
</g>
</g>
<!-- Node2 -->
<g id="node2" class="node">
<title>Node2</title>
<g id="a_node2"><a xlink:href="classUQuadDroneController.html#aafeb859afe8b578e40afd30aea2748cb" target="_top" xlink:title=" ">
<polygon fill="white" stroke="black" points="613,-186.5 613,-216.5 740,-216.5 740,-186.5 613,-186.5"/>
<text text-anchor="start" x="621" y="-204.5" font-family="Helvetica,sans-Serif" font-size="10.00">UQuadDroneController</text>
<text text-anchor="middle" x="676.5" y="-193.5" font-family="Helvetica,sans-Serif" font-size="10.00">::ResetPID</text>
</a>
</g>
</g>
<!-- Node1&#45;&gt;Node2 -->
<g id="edge1" class="edge">
<title>Node1&#45;&gt;Node2</title>
<path fill="none" stroke="midnightblue" d="M774.11,-170.76C757.87,-175.93 740.38,-181.49 724.8,-186.45"/>
<polygon fill="midnightblue" stroke="midnightblue" points="775.57,-173.97 784.04,-167.6 773.45,-167.3 775.57,-173.97"/>
</g>
<!-- Node8 -->
<g id="node8" class="node">
<title>Node8</title>
<g id="a_node8"><a xlink:href="classUQuadDroneController.html#abe10155e4aa1c6a77e67347ca91d2fdc" target="_top" xlink:title=" ">
<polygon fill="white" stroke="black" points="613,-66.5 613,-96.5 740,-96.5 740,-66.5 613,-66.5"/>
<text text-anchor="start" x="621" y="-84.5" font-family="Helvetica,sans-Serif" font-size="10.00">UQuadDroneController</text>
<text text-anchor="middle" x="676.5" y="-73.5" font-family="Helvetica,sans-Serif" font-size="10.00">::SetFlightMode</text>
</a>
</g>
</g>
<!-- Node1&#45;&gt;Node8 -->
<g id="edge7" class="edge">
<title>Node1&#45;&gt;Node8</title>
<path fill="none" stroke="midnightblue" d="M789.59,-133.18C764.58,-121.65 733.28,-107.21 710.11,-96.54"/>
<polygon fill="midnightblue" stroke="midnightblue" points="788.29,-136.43 798.84,-137.44 791.22,-130.08 788.29,-136.43"/>
</g>
<!-- Node15 -->
<g id="node15" class="node">
<title>Node15</title>
<g id="a_node15"><a xlink:href="classUQuadDroneController.html#a558975a4aa03140aa73209bbbb5c1d86" target="_top" xlink:title=" ">
<polygon fill="white" stroke="black" points="613,-137.5 613,-167.5 740,-167.5 740,-137.5 613,-137.5"/>
<text text-anchor="start" x="621" y="-155.5" font-family="Helvetica,sans-Serif" font-size="10.00">UQuadDroneController</text>
<text text-anchor="middle" x="676.5" y="-144.5" font-family="Helvetica,sans-Serif" font-size="10.00">::SetHoverMode</text>
</a>
</g>
</g>
<!-- Node1&#45;&gt;Node15 -->
<g id="edge14" class="edge">
<title>Node1&#45;&gt;Node15</title>
<path fill="none" stroke="midnightblue" d="M765.67,-152.5C757.18,-152.5 748.5,-152.5 740.07,-152.5"/>
<polygon fill="midnightblue" stroke="midnightblue" points="765.9,-156 775.9,-152.5 765.9,-149 765.9,-156"/>
</g>
<!-- Node3 -->
<g id="node3" class="node">
<title>Node3</title>
<g id="a_node3"><a xlink:href="classAQuadPawn.html#a416797652d3e15491d60ee2f3452232c" target="_top" xlink:title=" ">
<polygon fill="white" stroke="black" points="419.5,-236 419.5,-255 548.5,-255 548.5,-236 419.5,-236"/>
<text text-anchor="middle" x="484" y="-243" font-family="Helvetica,sans-Serif" font-size="10.00">AQuadPawn::BeginPlay</text>
</a>
</g>
</g>
<!-- Node2&#45;&gt;Node3 -->
<g id="edge2" class="edge">
<title>Node2&#45;&gt;Node3</title>
<path fill="none" stroke="midnightblue" d="M608.16,-219.02C597.75,-221.6 587.1,-224.18 577,-226.5 562.85,-229.75 547.42,-233.04 533.31,-235.95"/>
<polygon fill="midnightblue" stroke="midnightblue" points="609.2,-222.37 618.05,-216.54 607.5,-215.58 609.2,-222.37"/>
</g>
<!-- Node4 -->
<g id="node4" class="node">
<title>Node4</title>
<g id="a_node4"><a xlink:href="classUQuadDroneController.html#a370418d3d89f0ab498fc08cb864e1809" target="_top" xlink:title=" ">
<polygon fill="white" stroke="black" points="420.5,-186.5 420.5,-216.5 547.5,-216.5 547.5,-186.5 420.5,-186.5"/>
<text text-anchor="start" x="428.5" y="-204.5" font-family="Helvetica,sans-Serif" font-size="10.00">UQuadDroneController</text>
<text text-anchor="middle" x="484" y="-193.5" font-family="Helvetica,sans-Serif" font-size="10.00">::ResetDroneOrigin</text>
</a>
</g>
</g>
<!-- Node2&#45;&gt;Node4 -->
<g id="edge3" class="edge">
<title>Node2&#45;&gt;Node4</title>
<path fill="none" stroke="midnightblue" d="M602.64,-201.5C584.52,-201.5 565.26,-201.5 547.68,-201.5"/>
<polygon fill="midnightblue" stroke="midnightblue" points="602.86,-205 612.86,-201.5 602.86,-198 602.86,-205"/>
</g>
<!-- Node7 -->
<g id="node7" class="node">
<title>Node7</title>
<g id="a_node7"><a xlink:href="classUQuadDroneController.html#a48bc70ee5a68cb56bf4c97e477ec0776" target="_top" xlink:title=" ">
<polygon fill="white" stroke="black" points="420.5,-274.5 420.5,-304.5 547.5,-304.5 547.5,-274.5 420.5,-274.5"/>
<text text-anchor="start" x="428.5" y="-292.5" font-family="Helvetica,sans-Serif" font-size="10.00">UQuadDroneController</text>
<text text-anchor="middle" x="484" y="-281.5" font-family="Helvetica,sans-Serif" font-size="10.00">::ResetDroneRotation</text>
</a>
</g>
</g>
<!-- Node2&#45;&gt;Node7 -->
<g id="edge6" class="edge">
<title>Node2&#45;&gt;Node7</title>
<path fill="none" stroke="midnightblue" d="M647.56,-222.63C628.52,-236.2 602.27,-253.3 577,-264.5 567.77,-268.59 557.71,-272.15 547.75,-275.2"/>
<polygon fill="midnightblue" stroke="midnightblue" points="649.73,-225.39 655.77,-216.68 645.62,-219.72 649.73,-225.39"/>
</g>
<!-- Node5 -->
<g id="node5" class="node">
<title>Node5</title>
<g id="a_node5"><a xlink:href="classAROS2Controller.html#acfc71b0111fa95da9e74f177ddd083cc" target="_top" xlink:title=" ">
<polygon fill="white" stroke="black" points="188.5,-186.5 188.5,-216.5 354.5,-216.5 354.5,-186.5 188.5,-186.5"/>
<text text-anchor="start" x="196.5" y="-204.5" font-family="Helvetica,sans-Serif" font-size="10.00">AROS2Controller::HandleReset</text>
<text text-anchor="middle" x="271.5" y="-193.5" font-family="Helvetica,sans-Serif" font-size="10.00">Command</text>
</a>
</g>
</g>
<!-- Node4&#45;&gt;Node5 -->
<g id="edge4" class="edge">
<title>Node4&#45;&gt;Node5</title>
<path fill="none" stroke="midnightblue" d="M410.33,-201.5C392.41,-201.5 373.09,-201.5 354.74,-201.5"/>
<polygon fill="midnightblue" stroke="midnightblue" points="410.41,-205 420.41,-201.5 410.41,-198 410.41,-205"/>
</g>
<!-- Node6 -->
<g id="node6" class="node">
<title>Node6</title>
<g id="a_node6"><a xlink:href="classAROS2Controller.html#a950f5d2c970783f3687246ecde0a6220" target="_top" xlink:title=" ">
<polygon fill="white" stroke="black" points="0,-167 0,-186 152,-186 152,-167 0,-167"/>
<text text-anchor="middle" x="76" y="-174" font-family="Helvetica,sans-Serif" font-size="10.00">AROS2Controller::BeginPlay</text>
</a>
</g>
</g>
<!-- Node5&#45;&gt;Node6 -->
<g id="edge5" class="edge">
<title>Node5&#45;&gt;Node6</title>
<path fill="none" stroke="midnightblue" d="M178.37,-189.6C169.05,-188.39 159.68,-187.18 150.6,-186.01"/>
<polygon fill="midnightblue" stroke="midnightblue" points="178.07,-193.09 188.44,-190.9 178.97,-186.15 178.07,-193.09"/>
</g>
<!-- Node9 -->
<g id="node9" class="node">
<title>Node9</title>
<g id="a_node9"><a xlink:href="classADroneManager.html#a7c710fb687f8c24a5f6b3c3075241ca7" target="_top" xlink:title=" ">
<polygon fill="white" stroke="black" points="398.5,-44.5 398.5,-74.5 569.5,-74.5 569.5,-44.5 398.5,-44.5"/>
<text text-anchor="start" x="406.5" y="-62.5" font-family="Helvetica,sans-Serif" font-size="10.00">ADroneManager::RegisterDrone</text>
<text text-anchor="middle" x="484" y="-51.5" font-family="Helvetica,sans-Serif" font-size="10.00">Controller</text>
</a>
</g>
</g>
<!-- Node8&#45;&gt;Node9 -->
<g id="edge8" class="edge">
<title>Node8&#45;&gt;Node9</title>
<path fill="none" stroke="midnightblue" d="M602.69,-73.09C591.93,-71.85 580.77,-70.56 569.8,-69.29"/>
<polygon fill="midnightblue" stroke="midnightblue" points="602.52,-76.6 612.86,-74.27 603.33,-69.64 602.52,-76.6"/>
</g>
<!-- Node10 -->
<g id="node10" class="node">
<title>Node10</title>
<g id="a_node10"><a xlink:href="classAQuadPawn.html#af8af5c468ed301475f627e3169c996b8" target="_top" xlink:title=" ">
<polygon fill="white" stroke="black" points="391,-6 391,-25 577,-25 577,-6 391,-6"/>
<text text-anchor="middle" x="484" y="-13" font-family="Helvetica,sans-Serif" font-size="10.00">AQuadPawn::ToggleGamepadMode</text>
</a>
</g>
</g>
<!-- Node8&#45;&gt;Node10 -->
<g id="edge9" class="edge">
<title>Node8&#45;&gt;Node10</title>
<path fill="none" stroke="midnightblue" d="M639.13,-61.55C620.92,-52.24 598.26,-41.65 577,-34.5 565.87,-30.76 553.72,-27.62 542.01,-25.04"/>
<polygon fill="midnightblue" stroke="midnightblue" points="637.74,-64.77 648.23,-66.28 640.97,-58.56 637.74,-64.77"/>
</g>
<!-- Node12 -->
<g id="node12" class="node">
<title>Node12</title>
<g id="a_node12"><a xlink:href="classUQuadDroneController.html#aeacce81326aab408e9f95553fb3ae2bc" target="_top" xlink:title=" ">
<polygon fill="white" stroke="black" points="420.5,-93.5 420.5,-123.5 547.5,-123.5 547.5,-93.5 420.5,-93.5"/>
<text text-anchor="start" x="428.5" y="-111.5" font-family="Helvetica,sans-Serif" font-size="10.00">UQuadDroneController</text>
<text text-anchor="middle" x="484" y="-100.5" font-family="Helvetica,sans-Serif" font-size="10.00">::Update</text>
</a>
</g>
</g>
<!-- Node8&#45;&gt;Node12 -->
<g id="edge11" class="edge">
<title>Node8&#45;&gt;Node12</title>
<path fill="none" stroke="midnightblue" d="M602.89,-91.79C584.7,-94.37 565.34,-97.11 547.68,-99.62"/>
<polygon fill="midnightblue" stroke="midnightblue" points="603.45,-95.25 612.86,-90.38 602.47,-88.32 603.45,-95.25"/>
</g>
<!-- Node11 -->
<g id="node11" class="node">
<title>Node11</title>
<g id="a_node11"><a xlink:href="classAQuadPawn.html#ab175aa4a4f7a67626130dc16c8f4ad56" target="_top" xlink:title=" ">
<polygon fill="white" stroke="black" points="189.5,-0.5 189.5,-30.5 353.5,-30.5 353.5,-0.5 189.5,-0.5"/>
<text text-anchor="start" x="197.5" y="-18.5" font-family="Helvetica,sans-Serif" font-size="10.00">AQuadPawn::SetupPlayerInput</text>
<text text-anchor="middle" x="271.5" y="-7.5" font-family="Helvetica,sans-Serif" font-size="10.00">Component</text>
</a>
</g>
</g>
<!-- Node10&#45;&gt;Node11 -->
<g id="edge10" class="edge">
<title>Node10&#45;&gt;Node11</title>
<path fill="none" stroke="midnightblue" d="M380.77,-15.5C371.71,-15.5 362.62,-15.5 353.76,-15.5"/>
<polygon fill="midnightblue" stroke="midnightblue" points="380.98,-19 390.98,-15.5 380.98,-12 380.98,-19"/>
</g>
<!-- Node13 -->
<g id="node13" class="node">
<title>Node13</title>
<g id="a_node13"><a xlink:href="classAQuadPawn.html#aaf5f515b74f9316e932e4e1ccf9878ba" target="_top" xlink:title=" ">
<polygon fill="white" stroke="black" points="196,-99 196,-118 347,-118 347,-99 196,-99"/>
<text text-anchor="middle" x="271.5" y="-106" font-family="Helvetica,sans-Serif" font-size="10.00">AQuadPawn::UpdateControl</text>
</a>
</g>
</g>
<!-- Node12&#45;&gt;Node13 -->
<g id="edge12" class="edge">
<title>Node12&#45;&gt;Node13</title>
<path fill="none" stroke="midnightblue" d="M410.24,-108.5C389.83,-108.5 367.62,-108.5 347.1,-108.5"/>
<polygon fill="midnightblue" stroke="midnightblue" points="410.41,-112 420.41,-108.5 410.41,-105 410.41,-112"/>
</g>
<!-- Node14 -->
<g id="node14" class="node">
<title>Node14</title>
<g id="a_node14"><a xlink:href="classAQuadPawn.html#abddecbb307ce019d37ecf4b3dfcecad3" target="_top" xlink:title=" ">
<polygon fill="white" stroke="black" points="25.5,-99 25.5,-118 126.5,-118 126.5,-99 25.5,-99"/>
<text text-anchor="middle" x="76" y="-106" font-family="Helvetica,sans-Serif" font-size="10.00">AQuadPawn::Tick</text>
</a>
</g>
</g>
<!-- Node13&#45;&gt;Node14 -->
<g id="edge13" class="edge">
<title>Node13&#45;&gt;Node14</title>
<path fill="none" stroke="midnightblue" d="M185.81,-108.5C165.61,-108.5 144.7,-108.5 126.67,-108.5"/>
<polygon fill="midnightblue" stroke="midnightblue" points="185.96,-112 195.96,-108.5 185.96,-105 185.96,-112"/>
</g>
<!-- Node16 -->
<g id="node16" class="node">
<title>Node16</title>
<g id="a_node16"><a xlink:href="classAROS2Controller.html#a04723e49f1c380b383d6dfdb795b12bd" target="_top" xlink:title=" ">
<polygon fill="white" stroke="black" points="188,-137.5 188,-167.5 355,-167.5 355,-137.5 188,-137.5"/>
<text text-anchor="start" x="196" y="-155.5" font-family="Helvetica,sans-Serif" font-size="10.00">AROS2Controller::HandleHover</text>
<text text-anchor="middle" x="271.5" y="-144.5" font-family="Helvetica,sans-Serif" font-size="10.00">Command</text>
</a>
</g>
</g>
<!-- Node15&#45;&gt;Node16 -->
<g id="edge15" class="edge">
<title>Node15&#45;&gt;Node16</title>
<path fill="none" stroke="midnightblue" d="M602.95,-152.5C533.23,-152.5 428,-152.5 355.09,-152.5"/>
<polygon fill="midnightblue" stroke="midnightblue" points="602.97,-156 612.97,-152.5 602.97,-149 602.97,-156"/>
</g>
<!-- Node16&#45;&gt;Node6 -->
<g id="edge16" class="edge">
<title>Node16&#45;&gt;Node6</title>
<path fill="none" stroke="midnightblue" d="M177.86,-163.99C169.29,-165.05 160.68,-166.12 152.3,-167.16"/>
<polygon fill="midnightblue" stroke="midnightblue" points="178.38,-167.45 187.88,-162.75 177.52,-160.51 178.38,-167.45"/>
</g>
</g>
</svg>
