<?xml version="1.0" encoding="UTF-8" standalone="no"?>
<!DOCTYPE svg PUBLIC "-//W3C//DTD SVG 1.1//EN"
 "http://www.w3.org/Graphics/SVG/1.1/DTD/svg11.dtd">
<!-- Generated by graphviz version 2.43.0 (0)
 -->
<!-- Title: AObstacleManager::GetRandomInnerPoint Pages: 1 -->
<svg width="995pt" height="39pt"
 viewBox="0.00 0.00 995.00 39.00" xmlns="http://www.w3.org/2000/svg" xmlns:xlink="http://www.w3.org/1999/xlink">
<g id="graph0" class="graph" transform="scale(1 1) rotate(0) translate(4 35)">
<title>AObstacleManager::GetRandomInnerPoint</title>
<polygon fill="white" stroke="transparent" points="-4,4 -4,-35 991,-35 991,4 -4,4"/>
<!-- Node1 -->
<g id="node1" class="node">
<title>Node1</title>
<g id="a_node1"><a xlink:title=" ">
<polygon fill="#bfbfbf" stroke="black" points="814,-0.5 814,-30.5 987,-30.5 987,-0.5 814,-0.5"/>
<text text-anchor="start" x="822" y="-18.5" font-family="Helvetica,sans-Serif" font-size="10.00">AObstacleManager::GetRandom</text>
<text text-anchor="middle" x="900.5" y="-7.5" font-family="Helvetica,sans-Serif" font-size="10.00">InnerPoint</text>
</a>
</g>
</g>
<!-- Node2 -->
<g id="node2" class="node">
<title>Node2</title>
<g id="a_node2"><a xlink:href="classAObstacleManager.html#a995b27c090bb8131e0a4076ca4ea872e" target="_top" xlink:title=" ">
<polygon fill="white" stroke="black" points="588,-6 588,-25 778,-25 778,-6 588,-6"/>
<text text-anchor="middle" x="683" y="-13" font-family="Helvetica,sans-Serif" font-size="10.00">AObstacleManager::SpawnObstacle</text>
</a>
</g>
</g>
<!-- Node1&#45;&gt;Node2 -->
<g id="edge1" class="edge">
<title>Node1&#45;&gt;Node2</title>
<path fill="none" stroke="midnightblue" d="M803.56,-15.5C795.18,-15.5 786.71,-15.5 778.35,-15.5"/>
<polygon fill="midnightblue" stroke="midnightblue" points="803.71,-19 813.71,-15.5 803.71,-12 803.71,-19"/>
</g>
<!-- Node3 -->
<g id="node3" class="node">
<title>Node3</title>
<g id="a_node3"><a xlink:href="classAObstacleManager.html#adeb6b0b2beed769a6b8bbae69bc00849" target="_top" xlink:title=" ">
<polygon fill="white" stroke="black" points="405,-0.5 405,-30.5 552,-30.5 552,-0.5 405,-0.5"/>
<text text-anchor="start" x="413" y="-18.5" font-family="Helvetica,sans-Serif" font-size="10.00">AObstacleManager::Create</text>
<text text-anchor="middle" x="478.5" y="-7.5" font-family="Helvetica,sans-Serif" font-size="10.00">Obstacles</text>
</a>
</g>
</g>
<!-- Node2&#45;&gt;Node3 -->
<g id="edge2" class="edge">
<title>Node2&#45;&gt;Node3</title>
<path fill="none" stroke="midnightblue" d="M577.74,-15.5C569.11,-15.5 560.51,-15.5 552.2,-15.5"/>
<polygon fill="midnightblue" stroke="midnightblue" points="577.86,-19 587.86,-15.5 577.86,-12 577.86,-19"/>
</g>
<!-- Node4 -->
<g id="node4" class="node">
<title>Node4</title>
<g id="a_node4"><a xlink:href="classAROS2Controller.html#a938fc4b3971ecf3a68b2fff93d2d9e2f" target="_top" xlink:title=" ">
<polygon fill="white" stroke="black" points="188,-0.5 188,-30.5 369,-30.5 369,-0.5 188,-0.5"/>
<text text-anchor="start" x="196" y="-18.5" font-family="Helvetica,sans-Serif" font-size="10.00">AROS2Controller::HandleObstacle</text>
<text text-anchor="middle" x="278.5" y="-7.5" font-family="Helvetica,sans-Serif" font-size="10.00">Message</text>
</a>
</g>
</g>
<!-- Node3&#45;&gt;Node4 -->
<g id="edge3" class="edge">
<title>Node3&#45;&gt;Node4</title>
<path fill="none" stroke="midnightblue" d="M394.73,-15.5C386.32,-15.5 377.75,-15.5 369.27,-15.5"/>
<polygon fill="midnightblue" stroke="midnightblue" points="394.9,-19 404.9,-15.5 394.9,-12 394.9,-19"/>
</g>
<!-- Node5 -->
<g id="node5" class="node">
<title>Node5</title>
<g id="a_node5"><a xlink:href="classAROS2Controller.html#a950f5d2c970783f3687246ecde0a6220" target="_top" xlink:title=" ">
<polygon fill="white" stroke="black" points="0,-6 0,-25 152,-25 152,-6 0,-6"/>
<text text-anchor="middle" x="76" y="-13" font-family="Helvetica,sans-Serif" font-size="10.00">AROS2Controller::BeginPlay</text>
</a>
</g>
</g>
<!-- Node4&#45;&gt;Node5 -->
<g id="edge4" class="edge">
<title>Node4&#45;&gt;Node5</title>
<path fill="none" stroke="midnightblue" d="M177.74,-15.5C169.16,-15.5 160.57,-15.5 152.22,-15.5"/>
<polygon fill="midnightblue" stroke="midnightblue" points="177.81,-19 187.81,-15.5 177.81,-12 177.81,-19"/>
</g>
</g>
</svg>
