<?xml version="1.0" encoding="UTF-8" standalone="no"?>
<!DOCTYPE svg PUBLIC "-//W3C//DTD SVG 1.1//EN"
 "http://www.w3.org/Graphics/SVG/1.1/DTD/svg11.dtd">
<!-- Generated by graphviz version 2.43.0 (0)
 -->
<!-- Title: AObstacleManager::CreateObstacles Pages: 1 -->
<svg width="593pt" height="204pt"
 viewBox="0.00 0.00 593.00 203.50" xmlns="http://www.w3.org/2000/svg" xmlns:xlink="http://www.w3.org/1999/xlink">
<g id="graph0" class="graph" transform="scale(1 1) rotate(0) translate(4 199.5)">
<title>AObstacleManager::CreateObstacles</title>
<polygon fill="white" stroke="transparent" points="-4,4 -4,-199.5 589,-199.5 589,4 -4,4"/>
<!-- Node1 -->
<g id="node1" class="node">
<title>Node1</title>
<g id="a_node1"><a xlink:title=" ">
<polygon fill="#bfbfbf" stroke="black" points="0,-82.5 0,-112.5 147,-112.5 147,-82.5 0,-82.5"/>
<text text-anchor="start" x="8" y="-100.5" font-family="Helvetica,sans-Serif" font-size="10.00">AObstacleManager::Create</text>
<text text-anchor="middle" x="73.5" y="-89.5" font-family="Helvetica,sans-Serif" font-size="10.00">Obstacles</text>
</a>
</g>
</g>
<!-- Node2 -->
<g id="node2" class="node">
<title>Node2</title>
<g id="a_node2"><a xlink:href="classAObstacleManager.html#aea69b1fc06b29a36d98673c2a1ac5302" target="_top" xlink:title=" ">
<polygon fill="white" stroke="black" points="184,-176 184,-195 372,-195 372,-176 184,-176"/>
<text text-anchor="middle" x="278" y="-183" font-family="Helvetica,sans-Serif" font-size="10.00">AObstacleManager::ClearObstacles</text>
</a>
</g>
</g>
<!-- Node1&#45;&gt;Node2 -->
<g id="edge1" class="edge">
<title>Node1&#45;&gt;Node2</title>
<path fill="none" stroke="midnightblue" d="M93.31,-112.53C114.06,-128.35 149.04,-152.82 183,-166.5 189.58,-169.15 196.58,-171.45 203.67,-173.43"/>
<polygon fill="midnightblue" stroke="midnightblue" points="202.81,-176.82 213.37,-175.95 204.57,-170.05 202.81,-176.82"/>
</g>
<!-- Node3 -->
<g id="node3" class="node">
<title>Node3</title>
<g id="a_node3"><a xlink:href="classAObstacleManager.html#a231657c5b5cffa654a526bbe2f1ce05c" target="_top" xlink:title=" ">
<polygon fill="white" stroke="black" points="192.5,-126.5 192.5,-156.5 363.5,-156.5 363.5,-126.5 192.5,-126.5"/>
<text text-anchor="start" x="200.5" y="-144.5" font-family="Helvetica,sans-Serif" font-size="10.00">AObstacleManager::MoveDrone</text>
<text text-anchor="middle" x="278" y="-133.5" font-family="Helvetica,sans-Serif" font-size="10.00">ToOppositeOfGoal</text>
</a>
</g>
</g>
<!-- Node1&#45;&gt;Node3 -->
<g id="edge2" class="edge">
<title>Node1&#45;&gt;Node3</title>
<path fill="none" stroke="midnightblue" d="M143.62,-112.52C161.12,-116.32 180.05,-120.43 197.99,-124.33"/>
<polygon fill="midnightblue" stroke="midnightblue" points="197.33,-127.77 207.85,-126.47 198.82,-120.93 197.33,-127.77"/>
</g>
<!-- Node5 -->
<g id="node5" class="node">
<title>Node5</title>
<g id="a_node5"><a xlink:href="classAObstacleManager.html#ae7ac658131e204b783c048d177ef5c5b" target="_top" xlink:title=" ">
<polygon fill="white" stroke="black" points="193,-88 193,-107 363,-107 363,-88 193,-88"/>
<text text-anchor="middle" x="278" y="-95" font-family="Helvetica,sans-Serif" font-size="10.00">AObstacleManager::SpawnGoal</text>
</a>
</g>
</g>
<!-- Node1&#45;&gt;Node5 -->
<g id="edge4" class="edge">
<title>Node1&#45;&gt;Node5</title>
<path fill="none" stroke="midnightblue" d="M147.04,-97.5C158.65,-97.5 170.81,-97.5 182.84,-97.5"/>
<polygon fill="midnightblue" stroke="midnightblue" points="182.9,-101 192.9,-97.5 182.9,-94 182.9,-101"/>
</g>
<!-- Node6 -->
<g id="node6" class="node">
<title>Node6</title>
<g id="a_node6"><a xlink:href="classAObstacleManager.html#a995b27c090bb8131e0a4076ca4ea872e" target="_top" xlink:title=" ">
<polygon fill="white" stroke="black" points="183,-50 183,-69 373,-69 373,-50 183,-50"/>
<text text-anchor="middle" x="278" y="-57" font-family="Helvetica,sans-Serif" font-size="10.00">AObstacleManager::SpawnObstacle</text>
</a>
</g>
</g>
<!-- Node1&#45;&gt;Node6 -->
<g id="edge5" class="edge">
<title>Node1&#45;&gt;Node6</title>
<path fill="none" stroke="midnightblue" d="M147.04,-83.89C169.67,-79.64 194.38,-75 216.13,-70.92"/>
<polygon fill="midnightblue" stroke="midnightblue" points="217.04,-74.31 226.22,-69.03 215.74,-67.43 217.04,-74.31"/>
</g>
<!-- Node8 -->
<g id="node8" class="node">
<title>Node8</title>
<g id="a_node8"><a xlink:href="classAObstacleManager.html#a76f203fda8aab28dcd97829554d8218d" target="_top" xlink:title=" ">
<polygon fill="white" stroke="black" points="198.5,-0.5 198.5,-30.5 357.5,-30.5 357.5,-0.5 198.5,-0.5"/>
<text text-anchor="start" x="206.5" y="-18.5" font-family="Helvetica,sans-Serif" font-size="10.00">AObstacleManager::Visualize</text>
<text text-anchor="middle" x="278" y="-7.5" font-family="Helvetica,sans-Serif" font-size="10.00">SpawnBoundaries</text>
</a>
</g>
</g>
<!-- Node1&#45;&gt;Node8 -->
<g id="edge7" class="edge">
<title>Node1&#45;&gt;Node8</title>
<path fill="none" stroke="midnightblue" d="M99.18,-82.49C120.7,-69.91 153.07,-52.17 183,-40.5 189.34,-38.03 196.02,-35.71 202.76,-33.57"/>
<polygon fill="midnightblue" stroke="midnightblue" points="204.12,-36.81 212.67,-30.55 202.08,-30.12 204.12,-36.81"/>
</g>
<!-- Node4 -->
<g id="node4" class="node">
<title>Node4</title>
<g id="a_node4"><a xlink:href="classAObstacleManager.html#a56e3ca06a6508da0f0862e6a6c1d022b" target="_top" xlink:title=" ">
<polygon fill="white" stroke="black" points="409,-126.5 409,-156.5 585,-156.5 585,-126.5 409,-126.5"/>
<text text-anchor="start" x="417" y="-144.5" font-family="Helvetica,sans-Serif" font-size="10.00">AObstacleManager::GetOpposite</text>
<text text-anchor="middle" x="497" y="-133.5" font-family="Helvetica,sans-Serif" font-size="10.00">Position</text>
</a>
</g>
</g>
<!-- Node3&#45;&gt;Node4 -->
<g id="edge3" class="edge">
<title>Node3&#45;&gt;Node4</title>
<path fill="none" stroke="midnightblue" d="M363.52,-141.5C375.02,-141.5 386.91,-141.5 398.62,-141.5"/>
<polygon fill="midnightblue" stroke="midnightblue" points="398.85,-145 408.85,-141.5 398.85,-138 398.85,-145"/>
</g>
<!-- Node7 -->
<g id="node7" class="node">
<title>Node7</title>
<g id="a_node7"><a xlink:href="classAObstacleManager.html#adecee5b0414d248cead0d36e92571e6f" target="_top" xlink:title=" ">
<polygon fill="white" stroke="black" points="410.5,-44.5 410.5,-74.5 583.5,-74.5 583.5,-44.5 410.5,-44.5"/>
<text text-anchor="start" x="418.5" y="-62.5" font-family="Helvetica,sans-Serif" font-size="10.00">AObstacleManager::GetRandom</text>
<text text-anchor="middle" x="497" y="-51.5" font-family="Helvetica,sans-Serif" font-size="10.00">InnerPoint</text>
</a>
</g>
</g>
<!-- Node6&#45;&gt;Node7 -->
<g id="edge6" class="edge">
<title>Node6&#45;&gt;Node7</title>
<path fill="none" stroke="midnightblue" d="M373.23,-59.5C382.21,-59.5 391.32,-59.5 400.3,-59.5"/>
<polygon fill="midnightblue" stroke="midnightblue" points="400.39,-63 410.39,-59.5 400.39,-56 400.39,-63"/>
</g>
</g>
</svg>
