<?xml version="1.0" encoding="UTF-8" standalone="no"?>
<!DOCTYPE svg PUBLIC "-//W3C//DTD SVG 1.1//EN"
 "http://www.w3.org/Graphics/SVG/1.1/DTD/svg11.dtd">
<!-- Generated by graphviz version 2.43.0 (0)
 -->
<!-- Title: AObstacleManager::MoveDroneToOppositeOfGoal Pages: 1 -->
<svg width="391pt" height="39pt"
 viewBox="0.00 0.00 391.00 39.00" xmlns="http://www.w3.org/2000/svg" xmlns:xlink="http://www.w3.org/1999/xlink">
<g id="graph0" class="graph" transform="scale(1 1) rotate(0) translate(4 35)">
<title>AObstacleManager::MoveDroneToOppositeOfGoal</title>
<polygon fill="white" stroke="transparent" points="-4,4 -4,-35 387,-35 387,4 -4,4"/>
<!-- Node1 -->
<g id="node1" class="node">
<title>Node1</title>
<g id="a_node1"><a xlink:title=" ">
<polygon fill="#bfbfbf" stroke="black" points="0,-0.5 0,-30.5 171,-30.5 171,-0.5 0,-0.5"/>
<text text-anchor="start" x="8" y="-18.5" font-family="Helvetica,sans-Serif" font-size="10.00">AObstacleManager::MoveDrone</text>
<text text-anchor="middle" x="85.5" y="-7.5" font-family="Helvetica,sans-Serif" font-size="10.00">ToOppositeOfGoal</text>
</a>
</g>
</g>
<!-- Node2 -->
<g id="node2" class="node">
<title>Node2</title>
<g id="a_node2"><a xlink:href="classAObstacleManager.html#a56e3ca06a6508da0f0862e6a6c1d022b" target="_top" xlink:title=" ">
<polygon fill="white" stroke="black" points="207,-0.5 207,-30.5 383,-30.5 383,-0.5 207,-0.5"/>
<text text-anchor="start" x="215" y="-18.5" font-family="Helvetica,sans-Serif" font-size="10.00">AObstacleManager::GetOpposite</text>
<text text-anchor="middle" x="295" y="-7.5" font-family="Helvetica,sans-Serif" font-size="10.00">Position</text>
</a>
</g>
</g>
<!-- Node1&#45;&gt;Node2 -->
<g id="edge1" class="edge">
<title>Node1&#45;&gt;Node2</title>
<path fill="none" stroke="midnightblue" d="M171.2,-15.5C179.65,-15.5 188.29,-15.5 196.86,-15.5"/>
<polygon fill="midnightblue" stroke="midnightblue" points="196.88,-19 206.88,-15.5 196.88,-12 196.88,-19"/>
</g>
</g>
</svg>
