<?xml version="1.0" encoding="UTF-8" standalone="no"?>
<!DOCTYPE svg PUBLIC "-//W3C//DTD SVG 1.1//EN"
 "http://www.w3.org/Graphics/SVG/1.1/DTD/svg11.dtd">
<!-- Generated by graphviz version 2.43.0 (0)
 -->
<!-- Title: AQuadPawn::SwitchCamera Pages: 1 -->
<svg width="619pt" height="78pt"
 viewBox="0.00 0.00 619.00 77.50" xmlns="http://www.w3.org/2000/svg" xmlns:xlink="http://www.w3.org/1999/xlink">
<g id="graph0" class="graph" transform="scale(1 1) rotate(0) translate(4 73.5)">
<title>AQuadPawn::SwitchCamera</title>
<polygon fill="white" stroke="transparent" points="-4,4 -4,-73.5 615,-73.5 615,4 -4,4"/>
<!-- Node1 -->
<g id="node1" class="node">
<title>Node1</title>
<g id="a_node1"><a xlink:title=" ">
<polygon fill="#bfbfbf" stroke="black" points="0,-22.5 0,-41.5 151,-41.5 151,-22.5 0,-22.5"/>
<text text-anchor="middle" x="75.5" y="-29.5" font-family="Helvetica,sans-Serif" font-size="10.00">AQuadPawn::SwitchCamera</text>
</a>
</g>
</g>
<!-- Node2 -->
<g id="node2" class="node">
<title>Node2</title>
<g id="a_node2"><a xlink:href="classAQuadPawn.html#a1ad36576e2afb3b3779ac86c4951d6b0" target="_top" xlink:title=" ">
<polygon fill="white" stroke="black" points="187,-39 187,-69 369,-69 369,-39 187,-39"/>
<text text-anchor="start" x="195" y="-57" font-family="Helvetica,sans-Serif" font-size="10.00">AQuadPawn::ResetGroundCamera</text>
<text text-anchor="middle" x="278" y="-46" font-family="Helvetica,sans-Serif" font-size="10.00">Position</text>
</a>
</g>
</g>
<!-- Node1&#45;&gt;Node2 -->
<g id="edge1" class="edge">
<title>Node1&#45;&gt;Node2</title>
<path fill="none" stroke="midnightblue" d="M151.16,-40.19C159.48,-41.11 168.06,-42.05 176.63,-42.99"/>
<polygon fill="midnightblue" stroke="midnightblue" points="176.36,-46.48 186.68,-44.09 177.13,-39.52 176.36,-46.48"/>
</g>
<!-- Node4 -->
<g id="node4" class="node">
<title>Node4</title>
<g id="a_node4"><a xlink:href="classAQuadPawn.html#a1d35d6472a7036da345489dadcbbfab5" target="_top" xlink:title=" ">
<polygon fill="white" stroke="black" points="209,-0.5 209,-19.5 347,-19.5 347,-0.5 209,-0.5"/>
<text text-anchor="middle" x="278" y="-7.5" font-family="Helvetica,sans-Serif" font-size="10.00">AQuadPawn::UpdateHUD</text>
</a>
</g>
</g>
<!-- Node1&#45;&gt;Node4 -->
<g id="edge3" class="edge">
<title>Node1&#45;&gt;Node4</title>
<path fill="none" stroke="midnightblue" d="M151.16,-23.81C166.69,-22.1 183.09,-20.3 198.74,-18.59"/>
<polygon fill="midnightblue" stroke="midnightblue" points="199.34,-22.04 208.9,-17.47 198.58,-15.08 199.34,-22.04"/>
</g>
<!-- Node3 -->
<g id="node3" class="node">
<title>Node3</title>
<g id="a_node3"><a xlink:href="classAQuadPawn.html#ac353488e19ef87523a53abe4ddd18299" target="_top" xlink:title=" ">
<polygon fill="white" stroke="black" points="413.5,-39 413.5,-69 602.5,-69 602.5,-39 413.5,-39"/>
<text text-anchor="start" x="421.5" y="-57" font-family="Helvetica,sans-Serif" font-size="10.00">AQuadPawn::UpdateGroundCamera</text>
<text text-anchor="middle" x="508" y="-46" font-family="Helvetica,sans-Serif" font-size="10.00">Tracking</text>
</a>
</g>
</g>
<!-- Node2&#45;&gt;Node3 -->
<g id="edge2" class="edge">
<title>Node2&#45;&gt;Node3</title>
<path fill="none" stroke="midnightblue" d="M369.11,-54C380.38,-54 391.96,-54 403.41,-54"/>
<polygon fill="midnightblue" stroke="midnightblue" points="403.43,-57.5 413.43,-54 403.43,-50.5 403.43,-57.5"/>
</g>
<!-- Node5 -->
<g id="node5" class="node">
<title>Node5</title>
<g id="a_node5"><a xlink:href="classUQuadHUDWidget.html#a700952af9b5aed0a2196af1c3b94155c" target="_top" xlink:title=" ">
<polygon fill="white" stroke="black" points="405,-0.5 405,-19.5 611,-19.5 611,-0.5 405,-0.5"/>
<text text-anchor="middle" x="508" y="-7.5" font-family="Helvetica,sans-Serif" font-size="10.00">UQuadHUDWidget::UpdateHUDTexture</text>
</a>
</g>
</g>
<!-- Node4&#45;&gt;Node5 -->
<g id="edge4" class="edge">
<title>Node4&#45;&gt;Node5</title>
<path fill="none" stroke="midnightblue" d="M347.1,-10C362.09,-10 378.36,-10 394.59,-10"/>
<polygon fill="midnightblue" stroke="midnightblue" points="394.67,-13.5 404.67,-10 394.67,-6.5 394.67,-13.5"/>
</g>
</g>
</svg>
