<?xml version="1.0" encoding="UTF-8" standalone="no"?>
<!DOCTYPE svg PUBLIC "-//W3C//DTD SVG 1.1//EN"
 "http://www.w3.org/Graphics/SVG/1.1/DTD/svg11.dtd">
<!-- Generated by graphviz version 2.43.0 (0)
 -->
<!-- Title: UDroneJSONConfig::Get Pages: 1 -->
<svg width="544pt" height="83pt"
 viewBox="0.00 0.00 544.00 83.00" xmlns="http://www.w3.org/2000/svg" xmlns:xlink="http://www.w3.org/1999/xlink">
<g id="graph0" class="graph" transform="scale(1 1) rotate(0) translate(4 79)">
<title>UDroneJSONConfig::Get</title>
<polygon fill="white" stroke="transparent" points="-4,4 -4,-79 540,-79 540,4 -4,4"/>
<!-- Node1 -->
<g id="node1" class="node">
<title>Node1</title>
<g id="a_node1"><a xlink:title=" ">
<polygon fill="#bfbfbf" stroke="black" points="405,-28 405,-47 536,-47 536,-28 405,-28"/>
<text text-anchor="middle" x="470.5" y="-35" font-family="Helvetica,sans-Serif" font-size="10.00">UDroneJSONConfig::Get</text>
</a>
</g>
</g>
<!-- Node2 -->
<g id="node2" class="node">
<title>Node2</title>
<g id="a_node2"><a xlink:href="classAObstacleManager.html#ab48f28468f47d6899fa97d1c7b2d7393" target="_top" xlink:title=" ">
<polygon fill="white" stroke="black" points="202.5,-44.5 202.5,-74.5 366.5,-74.5 366.5,-44.5 202.5,-44.5"/>
<text text-anchor="start" x="210.5" y="-62.5" font-family="Helvetica,sans-Serif" font-size="10.00">AObstacleManager::AObstacle</text>
<text text-anchor="middle" x="284.5" y="-51.5" font-family="Helvetica,sans-Serif" font-size="10.00">Manager</text>
</a>
</g>
</g>
<!-- Node1&#45;&gt;Node2 -->
<g id="edge1" class="edge">
<title>Node1&#45;&gt;Node2</title>
<path fill="none" stroke="midnightblue" d="M394.93,-46.42C385.65,-47.52 376.13,-48.66 366.76,-49.78"/>
<polygon fill="midnightblue" stroke="midnightblue" points="395.37,-49.89 404.89,-45.23 394.54,-42.94 395.37,-49.89"/>
</g>
<!-- Node3 -->
<g id="node3" class="node">
<title>Node3</title>
<g id="a_node3"><a xlink:href="classAQuadPawn.html#aed6fabac53fca6df53b2a324232bec5a" target="_top" xlink:title=" ">
<polygon fill="white" stroke="black" points="200,-6 200,-25 369,-25 369,-6 200,-6"/>
<text text-anchor="middle" x="284.5" y="-13" font-family="Helvetica,sans-Serif" font-size="10.00">AQuadPawn::ReloadJSONConfig</text>
</a>
</g>
</g>
<!-- Node1&#45;&gt;Node3 -->
<g id="edge2" class="edge">
<title>Node1&#45;&gt;Node3</title>
<path fill="none" stroke="midnightblue" d="M394.82,-28.57C385.05,-27.4 375,-26.2 365.15,-25.02"/>
<polygon fill="midnightblue" stroke="midnightblue" points="394.54,-32.06 404.89,-29.77 395.37,-25.11 394.54,-32.06"/>
</g>
<!-- Node4 -->
<g id="node4" class="node">
<title>Node4</title>
<g id="a_node4"><a xlink:href="classAQuadPawn.html#ab175aa4a4f7a67626130dc16c8f4ad56" target="_top" xlink:title=" ">
<polygon fill="white" stroke="black" points="0,-0.5 0,-30.5 164,-30.5 164,-0.5 0,-0.5"/>
<text text-anchor="start" x="8" y="-18.5" font-family="Helvetica,sans-Serif" font-size="10.00">AQuadPawn::SetupPlayerInput</text>
<text text-anchor="middle" x="82" y="-7.5" font-family="Helvetica,sans-Serif" font-size="10.00">Component</text>
</a>
</g>
</g>
<!-- Node3&#45;&gt;Node4 -->
<g id="edge3" class="edge">
<title>Node3&#45;&gt;Node4</title>
<path fill="none" stroke="midnightblue" d="M189.89,-15.5C181.3,-15.5 172.65,-15.5 164.19,-15.5"/>
<polygon fill="midnightblue" stroke="midnightblue" points="189.92,-19 199.92,-15.5 189.92,-12 189.92,-19"/>
</g>
</g>
</svg>
