<?xml version="1.0" encoding="UTF-8" standalone="no"?>
<!DOCTYPE svg PUBLIC "-//W3C//DTD SVG 1.1//EN"
 "http://www.w3.org/Graphics/SVG/1.1/DTD/svg11.dtd">
<!-- Generated by graphviz version 2.43.0 (0)
 -->
<!-- Title: AQuadPawn::ToggleGamepadMode Pages: 1 -->
<svg width="548pt" height="112pt"
 viewBox="0.00 0.00 548.00 112.00" xmlns="http://www.w3.org/2000/svg" xmlns:xlink="http://www.w3.org/1999/xlink">
<g id="graph0" class="graph" transform="scale(1 1) rotate(0) translate(4 108)">
<title>AQuadPawn::ToggleGamepadMode</title>
<polygon fill="white" stroke="transparent" points="-4,4 -4,-108 544,-108 544,4 -4,4"/>
<!-- Node1 -->
<g id="node1" class="node">
<title>Node1</title>
<g id="a_node1"><a xlink:title=" ">
<polygon fill="#bfbfbf" stroke="black" points="0,-54 0,-73 186,-73 186,-54 0,-54"/>
<text text-anchor="middle" x="93" y="-61" font-family="Helvetica,sans-Serif" font-size="10.00">AQuadPawn::ToggleGamepadMode</text>
</a>
</g>
</g>
<!-- Node2 -->
<g id="node2" class="node">
<title>Node2</title>
<g id="a_node2"><a xlink:href="classUQuadDroneController.html#af86967f106e571deb2b91c6d45db575f" target="_top" xlink:title=" ">
<polygon fill="white" stroke="black" points="222,-73.5 222,-103.5 349,-103.5 349,-73.5 222,-73.5"/>
<text text-anchor="start" x="230" y="-91.5" font-family="Helvetica,sans-Serif" font-size="10.00">UQuadDroneController</text>
<text text-anchor="middle" x="285.5" y="-80.5" font-family="Helvetica,sans-Serif" font-size="10.00">::GetFlightMode</text>
</a>
</g>
</g>
<!-- Node1&#45;&gt;Node2 -->
<g id="edge1" class="edge">
<title>Node1&#45;&gt;Node2</title>
<path fill="none" stroke="midnightblue" d="M166.56,-73.02C181.34,-74.96 196.9,-77 211.68,-78.94"/>
<polygon fill="midnightblue" stroke="midnightblue" points="211.41,-82.44 221.78,-80.27 212.32,-75.5 211.41,-82.44"/>
</g>
<!-- Node3 -->
<g id="node3" class="node">
<title>Node3</title>
<g id="a_node3"><a xlink:href="classUQuadDroneController.html#abe10155e4aa1c6a77e67347ca91d2fdc" target="_top" xlink:title=" ">
<polygon fill="white" stroke="black" points="222,-24.5 222,-54.5 349,-54.5 349,-24.5 222,-24.5"/>
<text text-anchor="start" x="230" y="-42.5" font-family="Helvetica,sans-Serif" font-size="10.00">UQuadDroneController</text>
<text text-anchor="middle" x="285.5" y="-31.5" font-family="Helvetica,sans-Serif" font-size="10.00">::SetFlightMode</text>
</a>
</g>
</g>
<!-- Node1&#45;&gt;Node3 -->
<g id="edge2" class="edge">
<title>Node1&#45;&gt;Node3</title>
<path fill="none" stroke="midnightblue" d="M169.56,-53.98C183.52,-52.22 198.07,-50.39 211.94,-48.64"/>
<polygon fill="midnightblue" stroke="midnightblue" points="212.42,-52.11 221.9,-47.39 211.54,-45.16 212.42,-52.11"/>
</g>
<!-- Node4 -->
<g id="node4" class="node">
<title>Node4</title>
<g id="a_node4"><a xlink:href="classAQuadPawn.html#a08a971a005a8dfe3148b82e659731b1b" target="_top" xlink:title=" ">
<polygon fill="white" stroke="black" points="385,-49.5 385,-79.5 540,-79.5 540,-49.5 385,-49.5"/>
<text text-anchor="start" x="393" y="-67.5" font-family="Helvetica,sans-Serif" font-size="10.00">AQuadPawn::GenerateFigure</text>
<text text-anchor="middle" x="462.5" y="-56.5" font-family="Helvetica,sans-Serif" font-size="10.00">EightWaypoints</text>
</a>
</g>
</g>
<!-- Node3&#45;&gt;Node4 -->
<g id="edge3" class="edge">
<title>Node3&#45;&gt;Node4</title>
<path fill="none" stroke="midnightblue" d="M349.18,-48.45C357.5,-49.64 366.15,-50.88 374.78,-52.11"/>
<polygon fill="midnightblue" stroke="midnightblue" points="374.5,-55.61 384.89,-53.56 375.49,-48.68 374.5,-55.61"/>
</g>
<!-- Node5 -->
<g id="node5" class="node">
<title>Node5</title>
<g id="a_node5"><a xlink:href="classQuadPIDController.html#aa21a311e6b52f6d72c19468b85c359b3" target="_top" xlink:title=" ">
<polygon fill="white" stroke="black" points="406,-0.5 406,-30.5 519,-30.5 519,-0.5 406,-0.5"/>
<text text-anchor="start" x="414" y="-18.5" font-family="Helvetica,sans-Serif" font-size="10.00">QuadPIDController::</text>
<text text-anchor="middle" x="462.5" y="-7.5" font-family="Helvetica,sans-Serif" font-size="10.00">Reset</text>
</a>
</g>
</g>
<!-- Node3&#45;&gt;Node5 -->
<g id="edge4" class="edge">
<title>Node3&#45;&gt;Node5</title>
<path fill="none" stroke="midnightblue" d="M349.18,-30.9C364.39,-28.82 380.69,-26.58 396.02,-24.48"/>
<polygon fill="midnightblue" stroke="midnightblue" points="396.5,-27.95 405.93,-23.12 395.55,-21.01 396.5,-27.95"/>
</g>
</g>
</svg>
