<?xml version="1.0" encoding="UTF-8" standalone="no"?>
<!DOCTYPE svg PUBLIC "-//W3C//DTD SVG 1.1//EN"
 "http://www.w3.org/Graphics/SVG/1.1/DTD/svg11.dtd">
<!-- Generated by graphviz version 2.43.0 (0)
 -->
<!-- Title: ADroneManager::RegisterDroneController Pages: 1 -->
<svg width="533pt" height="88pt"
 viewBox="0.00 0.00 533.00 88.00" xmlns="http://www.w3.org/2000/svg" xmlns:xlink="http://www.w3.org/1999/xlink">
<g id="graph0" class="graph" transform="scale(1 1) rotate(0) translate(4 84)">
<title>ADroneManager::RegisterDroneController</title>
<polygon fill="white" stroke="transparent" points="-4,4 -4,-84 529,-84 529,4 -4,4"/>
<!-- Node1 -->
<g id="node1" class="node">
<title>Node1</title>
<g id="a_node1"><a xlink:title=" ">
<polygon fill="#bfbfbf" stroke="black" points="0,-24.5 0,-54.5 171,-54.5 171,-24.5 0,-24.5"/>
<text text-anchor="start" x="8" y="-42.5" font-family="Helvetica,sans-Serif" font-size="10.00">ADroneManager::RegisterDrone</text>
<text text-anchor="middle" x="85.5" y="-31.5" font-family="Helvetica,sans-Serif" font-size="10.00">Controller</text>
</a>
</g>
</g>
<!-- Node2 -->
<g id="node2" class="node">
<title>Node2</title>
<g id="a_node2"><a xlink:href="classUQuadDroneController.html#abe10155e4aa1c6a77e67347ca91d2fdc" target="_top" xlink:title=" ">
<polygon fill="white" stroke="black" points="207,-24.5 207,-54.5 334,-54.5 334,-24.5 207,-24.5"/>
<text text-anchor="start" x="215" y="-42.5" font-family="Helvetica,sans-Serif" font-size="10.00">UQuadDroneController</text>
<text text-anchor="middle" x="270.5" y="-31.5" font-family="Helvetica,sans-Serif" font-size="10.00">::SetFlightMode</text>
</a>
</g>
</g>
<!-- Node1&#45;&gt;Node2 -->
<g id="edge1" class="edge">
<title>Node1&#45;&gt;Node2</title>
<path fill="none" stroke="midnightblue" d="M171.04,-39.5C179.63,-39.5 188.3,-39.5 196.74,-39.5"/>
<polygon fill="midnightblue" stroke="midnightblue" points="196.92,-43 206.92,-39.5 196.92,-36 196.92,-43"/>
</g>
<!-- Node3 -->
<g id="node3" class="node">
<title>Node3</title>
<g id="a_node3"><a xlink:href="classAQuadPawn.html#a08a971a005a8dfe3148b82e659731b1b" target="_top" xlink:title=" ">
<polygon fill="white" stroke="black" points="370,-49.5 370,-79.5 525,-79.5 525,-49.5 370,-49.5"/>
<text text-anchor="start" x="378" y="-67.5" font-family="Helvetica,sans-Serif" font-size="10.00">AQuadPawn::GenerateFigure</text>
<text text-anchor="middle" x="447.5" y="-56.5" font-family="Helvetica,sans-Serif" font-size="10.00">EightWaypoints</text>
</a>
</g>
</g>
<!-- Node2&#45;&gt;Node3 -->
<g id="edge2" class="edge">
<title>Node2&#45;&gt;Node3</title>
<path fill="none" stroke="midnightblue" d="M334.18,-48.45C342.5,-49.64 351.15,-50.88 359.78,-52.11"/>
<polygon fill="midnightblue" stroke="midnightblue" points="359.5,-55.61 369.89,-53.56 360.49,-48.68 359.5,-55.61"/>
</g>
<!-- Node4 -->
<g id="node4" class="node">
<title>Node4</title>
<g id="a_node4"><a xlink:href="classQuadPIDController.html#aa21a311e6b52f6d72c19468b85c359b3" target="_top" xlink:title=" ">
<polygon fill="white" stroke="black" points="391,-0.5 391,-30.5 504,-30.5 504,-0.5 391,-0.5"/>
<text text-anchor="start" x="399" y="-18.5" font-family="Helvetica,sans-Serif" font-size="10.00">QuadPIDController::</text>
<text text-anchor="middle" x="447.5" y="-7.5" font-family="Helvetica,sans-Serif" font-size="10.00">Reset</text>
</a>
</g>
</g>
<!-- Node2&#45;&gt;Node4 -->
<g id="edge3" class="edge">
<title>Node2&#45;&gt;Node4</title>
<path fill="none" stroke="midnightblue" d="M334.18,-30.9C349.39,-28.82 365.69,-26.58 381.02,-24.48"/>
<polygon fill="midnightblue" stroke="midnightblue" points="381.5,-27.95 390.93,-23.12 380.55,-21.01 381.5,-27.95"/>
</g>
</g>
</svg>
