<?xml version="1.0" encoding="UTF-8" standalone="no"?>
<!DOCTYPE svg PUBLIC "-//W3C//DTD SVG 1.1//EN"
 "http://www.w3.org/Graphics/SVG/1.1/DTD/svg11.dtd">
<!-- Generated by graphviz version 2.43.0 (0)
 -->
<!-- Title: AQuadPawn::Tick Pages: 1 -->
<svg width="1208pt" height="458pt"
 viewBox="0.00 0.00 1208.00 457.50" xmlns="http://www.w3.org/2000/svg" xmlns:xlink="http://www.w3.org/1999/xlink">
<g id="graph0" class="graph" transform="scale(1 1) rotate(0) translate(4 453.5)">
<title>AQuadPawn::Tick</title>
<polygon fill="white" stroke="transparent" points="-4,4 -4,-453.5 1204,-453.5 1204,4 -4,4"/>
<!-- Node1 -->
<g id="node1" class="node">
<title>Node1</title>
<g id="a_node1"><a xlink:title=" ">
<polygon fill="#bfbfbf" stroke="black" points="0,-161 0,-180 101,-180 101,-161 0,-161"/>
<text text-anchor="middle" x="50.5" y="-168" font-family="Helvetica,sans-Serif" font-size="10.00">AQuadPawn::Tick</text>
</a>
</g>
</g>
<!-- Node2 -->
<g id="node2" class="node">
<title>Node2</title>
<g id="a_node2"><a xlink:href="classUQuadDroneController.html#a323bae02e9640f3ba3ab49585114ceac" target="_top" xlink:title=" ">
<polygon fill="white" stroke="black" points="161.5,-199.5 161.5,-229.5 301.5,-229.5 301.5,-199.5 161.5,-199.5"/>
<text text-anchor="start" x="169.5" y="-217.5" font-family="Helvetica,sans-Serif" font-size="10.00">UQuadDroneController</text>
<text text-anchor="middle" x="231.5" y="-206.5" font-family="Helvetica,sans-Serif" font-size="10.00">::GetCurrentThrustOutput</text>
</a>
</g>
</g>
<!-- Node1&#45;&gt;Node2 -->
<g id="edge1" class="edge">
<title>Node1&#45;&gt;Node2</title>
<path fill="none" stroke="midnightblue" d="M90.34,-180.05C110.49,-185 135.76,-191.21 159.26,-196.99"/>
<polygon fill="midnightblue" stroke="midnightblue" points="158.66,-200.45 169.21,-199.43 160.34,-193.65 158.66,-200.45"/>
</g>
<!-- Node3 -->
<g id="node3" class="node">
<title>Node3</title>
<g id="a_node3"><a xlink:href="classAQuadPawn.html#aaf5f515b74f9316e932e4e1ccf9878ba" target="_top" xlink:title=" ">
<polygon fill="white" stroke="black" points="156,-161 156,-180 307,-180 307,-161 156,-161"/>
<text text-anchor="middle" x="231.5" y="-168" font-family="Helvetica,sans-Serif" font-size="10.00">AQuadPawn::UpdateControl</text>
</a>
</g>
</g>
<!-- Node1&#45;&gt;Node3 -->
<g id="edge2" class="edge">
<title>Node1&#45;&gt;Node3</title>
<path fill="none" stroke="midnightblue" d="M101.36,-170.5C115.06,-170.5 130.31,-170.5 145.4,-170.5"/>
<polygon fill="midnightblue" stroke="midnightblue" points="145.8,-174 155.8,-170.5 145.8,-167 145.8,-174"/>
</g>
<!-- Node21 -->
<g id="node21" class="node">
<title>Node21</title>
<g id="a_node21"><a xlink:href="classAQuadPawn.html#ac353488e19ef87523a53abe4ddd18299" target="_top" xlink:title=" ">
<polygon fill="white" stroke="black" points="137,-111.5 137,-141.5 326,-141.5 326,-111.5 137,-111.5"/>
<text text-anchor="start" x="145" y="-129.5" font-family="Helvetica,sans-Serif" font-size="10.00">AQuadPawn::UpdateGroundCamera</text>
<text text-anchor="middle" x="231.5" y="-118.5" font-family="Helvetica,sans-Serif" font-size="10.00">Tracking</text>
</a>
</g>
</g>
<!-- Node1&#45;&gt;Node21 -->
<g id="edge28" class="edge">
<title>Node1&#45;&gt;Node21</title>
<path fill="none" stroke="midnightblue" d="M90.34,-160.95C110.49,-156 135.76,-149.79 159.26,-144.01"/>
<polygon fill="midnightblue" stroke="midnightblue" points="160.34,-147.35 169.21,-141.57 158.66,-140.55 160.34,-147.35"/>
</g>
<!-- Node4 -->
<g id="node4" class="node">
<title>Node4</title>
<g id="a_node4"><a xlink:href="classUQuadDroneController.html#a9d9db64b915619ce2443247ea9835f65" target="_top" xlink:title=" ">
<polygon fill="white" stroke="black" points="362,-180.5 362,-210.5 489,-210.5 489,-180.5 362,-180.5"/>
<text text-anchor="start" x="370" y="-198.5" font-family="Helvetica,sans-Serif" font-size="10.00">UQuadDroneController</text>
<text text-anchor="middle" x="425.5" y="-187.5" font-family="Helvetica,sans-Serif" font-size="10.00">::SetDestination</text>
</a>
</g>
</g>
<!-- Node3&#45;&gt;Node4 -->
<g id="edge3" class="edge">
<title>Node3&#45;&gt;Node4</title>
<path fill="none" stroke="midnightblue" d="M305.63,-180.02C320.7,-181.98 336.57,-184.05 351.63,-186.01"/>
<polygon fill="midnightblue" stroke="midnightblue" points="351.54,-189.53 361.9,-187.35 352.44,-182.59 351.54,-189.53"/>
</g>
<!-- Node5 -->
<g id="node5" class="node">
<title>Node5</title>
<g id="a_node5"><a xlink:href="classUQuadDroneController.html#aeacce81326aab408e9f95553fb3ae2bc" target="_top" xlink:title=" ">
<polygon fill="white" stroke="black" points="362,-131.5 362,-161.5 489,-161.5 489,-131.5 362,-131.5"/>
<text text-anchor="start" x="370" y="-149.5" font-family="Helvetica,sans-Serif" font-size="10.00">UQuadDroneController</text>
<text text-anchor="middle" x="425.5" y="-138.5" font-family="Helvetica,sans-Serif" font-size="10.00">::Update</text>
</a>
</g>
</g>
<!-- Node3&#45;&gt;Node5 -->
<g id="edge4" class="edge">
<title>Node3&#45;&gt;Node5</title>
<path fill="none" stroke="midnightblue" d="M307.01,-161.19C321.74,-159.35 337.18,-157.41 351.85,-155.58"/>
<polygon fill="midnightblue" stroke="midnightblue" points="352.37,-159.04 361.86,-154.33 351.51,-152.1 352.37,-159.04"/>
</g>
<!-- Node6 -->
<g id="node6" class="node">
<title>Node6</title>
<g id="a_node6"><a xlink:href="classUQuadDroneController.html#a515f29c2d36616543fd6eb95d9e930e0" target="_top" xlink:title=" ">
<polygon fill="white" stroke="black" points="549,-267.5 549,-297.5 676,-297.5 676,-267.5 549,-267.5"/>
<text text-anchor="start" x="557" y="-285.5" font-family="Helvetica,sans-Serif" font-size="10.00">UQuadDroneController</text>
<text text-anchor="middle" x="612.5" y="-274.5" font-family="Helvetica,sans-Serif" font-size="10.00">::FlightController</text>
</a>
</g>
</g>
<!-- Node5&#45;&gt;Node6 -->
<g id="edge5" class="edge">
<title>Node5&#45;&gt;Node6</title>
<path fill="none" stroke="midnightblue" d="M474.22,-161.56C479.52,-164.37 484.59,-167.66 489,-171.5 513.33,-192.67 502.05,-211.84 525,-234.5 536.53,-245.88 551.31,-255.4 565.37,-262.87"/>
<polygon fill="midnightblue" stroke="midnightblue" points="563.97,-266.08 574.47,-267.49 567.14,-259.84 563.97,-266.08"/>
</g>
<!-- Node11 -->
<g id="node11" class="node">
<title>Node11</title>
<g id="a_node11"><a xlink:href="classADroneManager.html#a9c3c9b9953ac4f47093c19e72029c41d" target="_top" xlink:title=" ">
<polygon fill="white" stroke="black" points="754,-118 754,-137 873,-137 873,-118 754,-118"/>
<text text-anchor="middle" x="813.5" y="-125" font-family="Helvetica,sans-Serif" font-size="10.00">ADroneManager::Get</text>
</a>
</g>
</g>
<!-- Node5&#45;&gt;Node11 -->
<g id="edge21" class="edge">
<title>Node5&#45;&gt;Node11</title>
<path fill="none" stroke="midnightblue" d="M489.08,-149.47C544.6,-151.39 627.84,-152.55 700,-146.5 718.57,-144.94 738.68,-141.97 756.69,-138.82"/>
<polygon fill="midnightblue" stroke="midnightblue" points="757.52,-142.23 766.74,-137.01 756.28,-135.34 757.52,-142.23"/>
</g>
<!-- Node15 -->
<g id="node15" class="node">
<title>Node15</title>
<g id="a_node15"><a xlink:href="classUQuadDroneController.html#afe4037b4e2ff01815729474bff090ea0" target="_top" xlink:title=" ">
<polygon fill="white" stroke="black" points="549,-194.5 549,-224.5 676,-224.5 676,-194.5 549,-194.5"/>
<text text-anchor="start" x="557" y="-212.5" font-family="Helvetica,sans-Serif" font-size="10.00">UQuadDroneController</text>
<text text-anchor="middle" x="612.5" y="-201.5" font-family="Helvetica,sans-Serif" font-size="10.00">::GamepadController</text>
</a>
</g>
</g>
<!-- Node5&#45;&gt;Node15 -->
<g id="edge15" class="edge">
<title>Node5&#45;&gt;Node15</title>
<path fill="none" stroke="midnightblue" d="M470.81,-161.59C496.92,-170.48 530.13,-181.79 557.72,-191.19"/>
<polygon fill="midnightblue" stroke="midnightblue" points="556.63,-194.51 567.23,-194.42 558.89,-187.89 556.63,-194.51"/>
</g>
<!-- Node16 -->
<g id="node16" class="node">
<title>Node16</title>
<g id="a_node16"><a xlink:href="classADroneManager.html#aeabd73366b51d5ec994b9dbcd906593f" target="_top" xlink:title=" ">
<polygon fill="white" stroke="black" points="525,-118 525,-137 700,-137 700,-118 525,-118"/>
<text text-anchor="middle" x="612.5" y="-125" font-family="Helvetica,sans-Serif" font-size="10.00">ADroneManager::GetDroneIndex</text>
</a>
</g>
</g>
<!-- Node5&#45;&gt;Node16 -->
<g id="edge22" class="edge">
<title>Node5&#45;&gt;Node16</title>
<path fill="none" stroke="midnightblue" d="M489.13,-140.07C497.42,-139.22 506.07,-138.33 514.76,-137.44"/>
<polygon fill="midnightblue" stroke="midnightblue" points="515.39,-140.89 524.98,-136.39 514.67,-133.93 515.39,-140.89"/>
</g>
<!-- Node17 -->
<g id="node17" class="node">
<title>Node17</title>
<g id="a_node17"><a xlink:href="classADroneManager.html#aa16196d3e75e814db5b7eeaebe5c70e3" target="_top" xlink:title=" ">
<polygon fill="white" stroke="black" points="527.5,-80 527.5,-99 697.5,-99 697.5,-80 527.5,-80"/>
<text text-anchor="middle" x="612.5" y="-87" font-family="Helvetica,sans-Serif" font-size="10.00">ADroneManager::IsSwarmMode</text>
</a>
</g>
</g>
<!-- Node5&#45;&gt;Node17 -->
<g id="edge24" class="edge">
<title>Node5&#45;&gt;Node17</title>
<path fill="none" stroke="midnightblue" d="M461.61,-131.46C480.21,-123.87 503.59,-114.94 525,-108.5 533.65,-105.9 542.89,-103.49 551.98,-101.32"/>
<polygon fill="midnightblue" stroke="midnightblue" points="552.81,-104.72 561.76,-99.07 551.23,-97.9 552.81,-104.72"/>
</g>
<!-- Node18 -->
<g id="node18" class="node">
<title>Node18</title>
<g id="a_node18"><a xlink:href="classUQuadDroneController.html#abe10155e4aa1c6a77e67347ca91d2fdc" target="_top" xlink:title=" ">
<polygon fill="white" stroke="black" points="549,-30.5 549,-60.5 676,-60.5 676,-30.5 549,-30.5"/>
<text text-anchor="start" x="557" y="-48.5" font-family="Helvetica,sans-Serif" font-size="10.00">UQuadDroneController</text>
<text text-anchor="middle" x="612.5" y="-37.5" font-family="Helvetica,sans-Serif" font-size="10.00">::SetFlightMode</text>
</a>
</g>
</g>
<!-- Node5&#45;&gt;Node18 -->
<g id="edge25" class="edge">
<title>Node5&#45;&gt;Node18</title>
<path fill="none" stroke="midnightblue" d="M442.27,-131.24C460.71,-114.18 492.83,-86.81 525,-70.5 529.59,-68.17 534.43,-66.03 539.37,-64.07"/>
<polygon fill="midnightblue" stroke="midnightblue" points="540.83,-67.26 548.99,-60.5 538.39,-60.7 540.83,-67.26"/>
</g>
<!-- Node7 -->
<g id="node7" class="node">
<title>Node7</title>
<g id="a_node7"><a xlink:href="classQuadPIDController.html#ad96b9199d7ae1f627a01c0ac888220c8" target="_top" xlink:title=" ">
<polygon fill="white" stroke="black" points="927,-243.5 927,-273.5 1040,-273.5 1040,-243.5 927,-243.5"/>
<text text-anchor="start" x="935" y="-261.5" font-family="Helvetica,sans-Serif" font-size="10.00">QuadPIDController::</text>
<text text-anchor="middle" x="983.5" y="-250.5" font-family="Helvetica,sans-Serif" font-size="10.00">Calculate</text>
</a>
</g>
</g>
<!-- Node6&#45;&gt;Node7 -->
<g id="edge6" class="edge">
<title>Node6&#45;&gt;Node7</title>
<path fill="none" stroke="midnightblue" d="M641.72,-297.71C665.94,-309.84 702.19,-325.87 736,-332.5 803.6,-345.76 826.06,-355.48 891,-332.5 919.56,-322.4 945.74,-299.17 962.7,-281.41"/>
<polygon fill="midnightblue" stroke="midnightblue" points="965.61,-283.42 969.83,-273.7 960.47,-278.67 965.61,-283.42"/>
</g>
<!-- Node9 -->
<g id="node9" class="node">
<title>Node9</title>
<g id="a_node9"><a xlink:href="classDroneMathUtils.html#a60bb84d076590f7ea87f59df8ffb8a4e" target="_top" xlink:title=" ">
<polygon fill="white" stroke="black" points="741,-380.5 741,-410.5 886,-410.5 886,-380.5 741,-380.5"/>
<text text-anchor="start" x="749" y="-398.5" font-family="Helvetica,sans-Serif" font-size="10.00">DroneMathUtils::Calculate</text>
<text text-anchor="middle" x="813.5" y="-387.5" font-family="Helvetica,sans-Serif" font-size="10.00">DesiredVelocity</text>
</a>
</g>
</g>
<!-- Node6&#45;&gt;Node9 -->
<g id="edge8" class="edge">
<title>Node6&#45;&gt;Node9</title>
<path fill="none" stroke="midnightblue" d="M633.02,-297.73C656.5,-315.58 697.58,-345.27 736,-365.5 743.53,-369.46 751.71,-373.21 759.82,-376.62"/>
<polygon fill="midnightblue" stroke="midnightblue" points="758.68,-379.94 769.26,-380.47 761.32,-373.46 758.68,-379.94"/>
</g>
<!-- Node10 -->
<g id="node10" class="node">
<title>Node10</title>
<g id="a_node10"><a xlink:href="classUQuadDroneController.html#a1b6bdb6ea17c076aef0c88f374da61fc" target="_top" xlink:title=" ">
<polygon fill="white" stroke="black" points="748.5,-292.5 748.5,-322.5 878.5,-322.5 878.5,-292.5 748.5,-292.5"/>
<text text-anchor="start" x="756.5" y="-310.5" font-family="Helvetica,sans-Serif" font-size="10.00">UQuadDroneController</text>
<text text-anchor="middle" x="813.5" y="-299.5" font-family="Helvetica,sans-Serif" font-size="10.00">::DrawDebugVisualsVel</text>
</a>
</g>
</g>
<!-- Node6&#45;&gt;Node10 -->
<g id="edge9" class="edge">
<title>Node6&#45;&gt;Node10</title>
<path fill="none" stroke="midnightblue" d="M676.19,-290.38C695.88,-292.85 717.8,-295.6 738.21,-298.17"/>
<polygon fill="midnightblue" stroke="midnightblue" points="738.05,-301.67 748.41,-299.45 738.93,-294.73 738.05,-301.67"/>
</g>
<!-- Node6&#45;&gt;Node11 -->
<g id="edge10" class="edge">
<title>Node6&#45;&gt;Node11</title>
<path fill="none" stroke="midnightblue" d="M648.55,-267.37C665.22,-259.14 684.79,-247.89 700,-234.5 720.28,-216.64 717.04,-204.75 736,-185.5 752.03,-169.22 772.83,-153.74 788.7,-142.88"/>
<polygon fill="midnightblue" stroke="midnightblue" points="791.04,-145.52 797.39,-137.04 787.14,-139.71 791.04,-145.52"/>
</g>
<!-- Node12 -->
<g id="node12" class="node">
<title>Node12</title>
<g id="a_node12"><a xlink:href="classAQuadPawn.html#a88f4f046d2374491e62667e9e6a98eb1" target="_top" xlink:title=" ">
<polygon fill="white" stroke="black" points="752,-430 752,-449 875,-449 875,-430 752,-430"/>
<text text-anchor="middle" x="813.5" y="-437" font-family="Helvetica,sans-Serif" font-size="10.00">AQuadPawn::GetMass</text>
</a>
</g>
</g>
<!-- Node6&#45;&gt;Node12 -->
<g id="edge11" class="edge">
<title>Node6&#45;&gt;Node12</title>
<path fill="none" stroke="midnightblue" d="M622.49,-297.64C640.34,-326.31 683.1,-388.49 736,-420.5 739.62,-422.69 743.49,-424.63 747.48,-426.35"/>
<polygon fill="midnightblue" stroke="midnightblue" points="746.39,-429.68 756.99,-429.96 748.88,-423.14 746.39,-429.68"/>
</g>
<!-- Node13 -->
<g id="node13" class="node">
<title>Node13</title>
<g id="a_node13"><a xlink:href="classUQuadDroneController.html#ae3c8dc589bca5cf3a44468d093381b5b" target="_top" xlink:title=" ">
<polygon fill="white" stroke="black" points="750,-194.5 750,-224.5 877,-224.5 877,-194.5 750,-194.5"/>
<text text-anchor="start" x="758" y="-212.5" font-family="Helvetica,sans-Serif" font-size="10.00">UQuadDroneController</text>
<text text-anchor="middle" x="813.5" y="-201.5" font-family="Helvetica,sans-Serif" font-size="10.00">::ThrustMixer</text>
</a>
</g>
</g>
<!-- Node6&#45;&gt;Node13 -->
<g id="edge12" class="edge">
<title>Node6&#45;&gt;Node13</title>
<path fill="none" stroke="midnightblue" d="M650.28,-267.45C674.5,-257.7 706.98,-244.92 736,-234.5 742.27,-232.25 748.87,-229.97 755.44,-227.75"/>
<polygon fill="midnightblue" stroke="midnightblue" points="756.64,-231.03 765.02,-224.55 754.42,-224.4 756.64,-231.03"/>
</g>
<!-- Node14 -->
<g id="node14" class="node">
<title>Node14</title>
<g id="a_node14"><a xlink:href="classUQuadDroneController.html#a0d38f3052353104ca815856c35a56820" target="_top" xlink:title=" ">
<polygon fill="white" stroke="black" points="750,-243.5 750,-273.5 877,-273.5 877,-243.5 750,-243.5"/>
<text text-anchor="start" x="758" y="-261.5" font-family="Helvetica,sans-Serif" font-size="10.00">UQuadDroneController</text>
<text text-anchor="middle" x="813.5" y="-250.5" font-family="Helvetica,sans-Serif" font-size="10.00">::YawRateControl</text>
</a>
</g>
</g>
<!-- Node6&#45;&gt;Node14 -->
<g id="edge13" class="edge">
<title>Node6&#45;&gt;Node14</title>
<path fill="none" stroke="midnightblue" d="M676.19,-274.94C696.36,-272.51 718.88,-269.79 739.71,-267.28"/>
<polygon fill="midnightblue" stroke="midnightblue" points="740.27,-270.74 749.78,-266.06 739.43,-263.79 740.27,-270.74"/>
</g>
<!-- Node8 -->
<g id="node8" class="node">
<title>Node8</title>
<g id="a_node8"><a xlink:href="classQuadPIDController.html#ab7e668b1b8cba6bf742e8e5d73e43b87" target="_top" xlink:title=" ">
<polygon fill="white" stroke="black" points="1076,-243.5 1076,-273.5 1200,-273.5 1200,-243.5 1076,-243.5"/>
<text text-anchor="start" x="1084" y="-261.5" font-family="Helvetica,sans-Serif" font-size="10.00">QuadPIDController::</text>
<text text-anchor="middle" x="1138" y="-250.5" font-family="Helvetica,sans-Serif" font-size="10.00">RemoveExpiredPoints</text>
</a>
</g>
</g>
<!-- Node7&#45;&gt;Node8 -->
<g id="edge7" class="edge">
<title>Node7&#45;&gt;Node8</title>
<path fill="none" stroke="midnightblue" d="M1040.42,-258.5C1048.64,-258.5 1057.2,-258.5 1065.68,-258.5"/>
<polygon fill="midnightblue" stroke="midnightblue" points="1065.95,-262 1075.95,-258.5 1065.95,-255 1065.95,-262"/>
</g>
<!-- Node14&#45;&gt;Node7 -->
<g id="edge14" class="edge">
<title>Node14&#45;&gt;Node7</title>
<path fill="none" stroke="midnightblue" d="M877.06,-258.5C889.94,-258.5 903.54,-258.5 916.54,-258.5"/>
<polygon fill="midnightblue" stroke="midnightblue" points="916.81,-262 926.81,-258.5 916.81,-255 916.81,-262"/>
</g>
<!-- Node15&#45;&gt;Node7 -->
<g id="edge16" class="edge">
<title>Node15&#45;&gt;Node7</title>
<path fill="none" stroke="midnightblue" d="M658.66,-194.43C714.79,-178.18 812.72,-158.1 891,-185.5 919.44,-195.46 945.64,-218.37 962.64,-235.89"/>
<polygon fill="midnightblue" stroke="midnightblue" points="960.39,-238.6 969.78,-243.5 965.49,-233.81 960.39,-238.6"/>
</g>
<!-- Node15&#45;&gt;Node10 -->
<g id="edge17" class="edge">
<title>Node15&#45;&gt;Node10</title>
<path fill="none" stroke="midnightblue" d="M641.54,-224.53C658.66,-233.92 680.86,-246.47 700,-258.5 716.49,-268.87 718.51,-274.93 736,-283.5 739.8,-285.36 743.77,-287.12 747.82,-288.77"/>
<polygon fill="midnightblue" stroke="midnightblue" points="746.79,-292.12 757.38,-292.43 749.3,-285.58 746.79,-292.12"/>
</g>
<!-- Node15&#45;&gt;Node11 -->
<g id="edge18" class="edge">
<title>Node15&#45;&gt;Node11</title>
<path fill="none" stroke="midnightblue" d="M665.91,-194.41C677.45,-190.25 689.38,-185.26 700,-179.5 717.81,-169.83 718.04,-160.91 736,-151.5 744.33,-147.14 753.59,-143.4 762.71,-140.27"/>
<polygon fill="midnightblue" stroke="midnightblue" points="764.06,-143.52 772.51,-137.11 761.91,-136.85 764.06,-143.52"/>
</g>
<!-- Node15&#45;&gt;Node13 -->
<g id="edge19" class="edge">
<title>Node15&#45;&gt;Node13</title>
<path fill="none" stroke="midnightblue" d="M676.19,-209.5C696.36,-209.5 718.88,-209.5 739.71,-209.5"/>
<polygon fill="midnightblue" stroke="midnightblue" points="739.78,-213 749.78,-209.5 739.78,-206 739.78,-213"/>
</g>
<!-- Node15&#45;&gt;Node14 -->
<g id="edge20" class="edge">
<title>Node15&#45;&gt;Node14</title>
<path fill="none" stroke="midnightblue" d="M674.56,-224.53C695.76,-229.76 719.72,-235.65 741.64,-241.05"/>
<polygon fill="midnightblue" stroke="midnightblue" points="741.01,-244.5 751.56,-243.49 742.68,-237.7 741.01,-244.5"/>
</g>
<!-- Node16&#45;&gt;Node11 -->
<g id="edge23" class="edge">
<title>Node16&#45;&gt;Node11</title>
<path fill="none" stroke="midnightblue" d="M700.21,-127.5C714.79,-127.5 729.74,-127.5 743.79,-127.5"/>
<polygon fill="midnightblue" stroke="midnightblue" points="743.83,-131 753.83,-127.5 743.83,-124 743.83,-131"/>
</g>
<!-- Node19 -->
<g id="node19" class="node">
<title>Node19</title>
<g id="a_node19"><a xlink:href="classAQuadPawn.html#a08a971a005a8dfe3148b82e659731b1b" target="_top" xlink:title=" ">
<polygon fill="white" stroke="black" points="736,-49.5 736,-79.5 891,-79.5 891,-49.5 736,-49.5"/>
<text text-anchor="start" x="744" y="-67.5" font-family="Helvetica,sans-Serif" font-size="10.00">AQuadPawn::GenerateFigure</text>
<text text-anchor="middle" x="813.5" y="-56.5" font-family="Helvetica,sans-Serif" font-size="10.00">EightWaypoints</text>
</a>
</g>
</g>
<!-- Node18&#45;&gt;Node19 -->
<g id="edge26" class="edge">
<title>Node18&#45;&gt;Node19</title>
<path fill="none" stroke="midnightblue" d="M676.19,-51.49C691.85,-52.98 708.93,-54.61 725.54,-56.2"/>
<polygon fill="midnightblue" stroke="midnightblue" points="725.51,-59.71 735.8,-57.18 726.17,-52.74 725.51,-59.71"/>
</g>
<!-- Node20 -->
<g id="node20" class="node">
<title>Node20</title>
<g id="a_node20"><a xlink:href="classQuadPIDController.html#aa21a311e6b52f6d72c19468b85c359b3" target="_top" xlink:title=" ">
<polygon fill="white" stroke="black" points="757,-0.5 757,-30.5 870,-30.5 870,-0.5 757,-0.5"/>
<text text-anchor="start" x="765" y="-18.5" font-family="Helvetica,sans-Serif" font-size="10.00">QuadPIDController::</text>
<text text-anchor="middle" x="813.5" y="-7.5" font-family="Helvetica,sans-Serif" font-size="10.00">Reset</text>
</a>
</g>
</g>
<!-- Node18&#45;&gt;Node20 -->
<g id="edge27" class="edge">
<title>Node18&#45;&gt;Node20</title>
<path fill="none" stroke="midnightblue" d="M676.19,-36.05C698.72,-32.65 724.18,-28.81 746.94,-25.38"/>
<polygon fill="midnightblue" stroke="midnightblue" points="747.49,-28.84 756.85,-23.89 746.44,-21.92 747.49,-28.84"/>
</g>
</g>
</svg>
