<?xml version="1.0" encoding="UTF-8" standalone="no"?>
<!DOCTYPE svg PUBLIC "-//W3C//DTD SVG 1.1//EN"
 "http://www.w3.org/Graphics/SVG/1.1/DTD/svg11.dtd">
<!-- Generated by graphviz version 2.43.0 (0)
 -->
<!-- Title: AROS2Controller::BeginPlay Pages: 1 -->
<svg width="1028pt" height="721pt"
 viewBox="0.00 0.00 1028.00 721.00" xmlns="http://www.w3.org/2000/svg" xmlns:xlink="http://www.w3.org/1999/xlink">
<g id="graph0" class="graph" transform="scale(1 1) rotate(0) translate(4 717)">
<title>AROS2Controller::BeginPlay</title>
<polygon fill="white" stroke="transparent" points="-4,4 -4,-717 1024,-717 1024,4 -4,4"/>
<!-- Node1 -->
<g id="node1" class="node">
<title>Node1</title>
<g id="a_node1"><a xlink:title=" ">
<polygon fill="#bfbfbf" stroke="black" points="0,-333 0,-352 152,-352 152,-333 0,-333"/>
<text text-anchor="middle" x="76" y="-340" font-family="Helvetica,sans-Serif" font-size="10.00">AROS2Controller::BeginPlay</text>
</a>
</g>
</g>
<!-- Node2 -->
<g id="node2" class="node">
<title>Node2</title>
<g id="a_node2"><a xlink:href="classAROS2Controller.html#a59f2f9109f5b848c088ad6e1d2e6bdb9" target="_top" xlink:title=" ">
<polygon fill="white" stroke="black" points="214,-659.5 214,-689.5 356,-689.5 356,-659.5 214,-659.5"/>
<text text-anchor="start" x="222" y="-677.5" font-family="Helvetica,sans-Serif" font-size="10.00">AROS2Controller::Capture</text>
<text text-anchor="middle" x="285" y="-666.5" font-family="Helvetica,sans-Serif" font-size="10.00">Image</text>
</a>
</g>
</g>
<!-- Node1&#45;&gt;Node2 -->
<g id="edge1" class="edge">
<title>Node1&#45;&gt;Node2</title>
<path fill="none" stroke="midnightblue" d="M78.2,-352.18C83.56,-391.48 108.57,-541.11 188,-627.5 198.72,-639.15 212.95,-648.26 227.17,-655.22"/>
<polygon fill="midnightblue" stroke="midnightblue" points="225.92,-658.5 236.47,-659.49 228.85,-652.14 225.92,-658.5"/>
</g>
<!-- Node4 -->
<g id="node4" class="node">
<title>Node4</title>
<g id="a_node4"><a xlink:href="classAROS2Controller.html#aeb79a29d184aa7f62b4bdbf75ddd2c79" target="_top" xlink:title=" ">
<polygon fill="white" stroke="black" points="196.5,-587.5 196.5,-617.5 373.5,-617.5 373.5,-587.5 196.5,-587.5"/>
<text text-anchor="start" x="204.5" y="-605.5" font-family="Helvetica,sans-Serif" font-size="10.00">AROS2Controller::HandleAttitude</text>
<text text-anchor="middle" x="285" y="-594.5" font-family="Helvetica,sans-Serif" font-size="10.00">Euler</text>
</a>
</g>
</g>
<!-- Node1&#45;&gt;Node4 -->
<g id="edge3" class="edge">
<title>Node1&#45;&gt;Node4</title>
<path fill="none" stroke="midnightblue" d="M78.57,-352.41C84.87,-388.75 111.75,-515.82 188,-578.5 189.54,-579.77 191.14,-580.97 192.79,-582.11"/>
<polygon fill="midnightblue" stroke="midnightblue" points="191.04,-585.14 201.42,-587.31 194.66,-579.15 191.04,-585.14"/>
</g>
<!-- Node7 -->
<g id="node7" class="node">
<title>Node7</title>
<g id="a_node7"><a xlink:href="classAROS2Controller.html#a04723e49f1c380b383d6dfdb795b12bd" target="_top" xlink:title=" ">
<polygon fill="white" stroke="black" points="201.5,-489.5 201.5,-519.5 368.5,-519.5 368.5,-489.5 201.5,-489.5"/>
<text text-anchor="start" x="209.5" y="-507.5" font-family="Helvetica,sans-Serif" font-size="10.00">AROS2Controller::HandleHover</text>
<text text-anchor="middle" x="285" y="-496.5" font-family="Helvetica,sans-Serif" font-size="10.00">Command</text>
</a>
</g>
</g>
<!-- Node1&#45;&gt;Node7 -->
<g id="edge6" class="edge">
<title>Node1&#45;&gt;Node7</title>
<path fill="none" stroke="midnightblue" d="M81.98,-352.23C95.42,-377.45 134.99,-445.35 188,-479.5 191.15,-481.53 194.47,-483.4 197.89,-485.11"/>
<polygon fill="midnightblue" stroke="midnightblue" points="196.61,-488.38 207.16,-489.31 199.49,-482 196.61,-488.38"/>
</g>
<!-- Node10 -->
<g id="node10" class="node">
<title>Node10</title>
<g id="a_node10"><a xlink:href="classAROS2Controller.html#ae326b8f20ab67928962d52fefae6212f" target="_top" xlink:title=" ">
<polygon fill="white" stroke="black" points="195,-451 195,-470 375,-470 375,-451 195,-451"/>
<text text-anchor="middle" x="285" y="-458" font-family="Helvetica,sans-Serif" font-size="10.00">AROS2Controller::HandleImuData</text>
</a>
</g>
</g>
<!-- Node1&#45;&gt;Node10 -->
<g id="edge9" class="edge">
<title>Node1&#45;&gt;Node10</title>
<path fill="none" stroke="midnightblue" d="M84.71,-352.24C101.28,-372.43 142.46,-418.83 188,-441.5 192.9,-443.94 198.08,-446.06 203.4,-447.91"/>
<polygon fill="midnightblue" stroke="midnightblue" points="202.5,-451.3 213.09,-450.96 204.6,-444.62 202.5,-451.3"/>
</g>
<!-- Node12 -->
<g id="node12" class="node">
<title>Node12</title>
<g id="a_node12"><a xlink:href="classAROS2Controller.html#a938fc4b3971ecf3a68b2fff93d2d9e2f" target="_top" xlink:title=" ">
<polygon fill="white" stroke="black" points="194.5,-538.5 194.5,-568.5 375.5,-568.5 375.5,-538.5 194.5,-538.5"/>
<text text-anchor="start" x="202.5" y="-556.5" font-family="Helvetica,sans-Serif" font-size="10.00">AROS2Controller::HandleObstacle</text>
<text text-anchor="middle" x="285" y="-545.5" font-family="Helvetica,sans-Serif" font-size="10.00">Message</text>
</a>
</g>
</g>
<!-- Node1&#45;&gt;Node12 -->
<g id="edge11" class="edge">
<title>Node1&#45;&gt;Node12</title>
<path fill="none" stroke="midnightblue" d="M79.75,-352.05C89.17,-382.99 123.2,-481.25 188,-529.5 189.85,-530.88 191.76,-532.17 193.74,-533.4"/>
<polygon fill="midnightblue" stroke="midnightblue" points="192.27,-536.58 202.73,-538.3 195.62,-530.44 192.27,-536.58"/>
</g>
<!-- Node21 -->
<g id="node21" class="node">
<title>Node21</title>
<g id="a_node21"><a xlink:href="classAROS2Controller.html#acfc71b0111fa95da9e74f177ddd083cc" target="_top" xlink:title=" ">
<polygon fill="white" stroke="black" points="202,-352.5 202,-382.5 368,-382.5 368,-352.5 202,-352.5"/>
<text text-anchor="start" x="210" y="-370.5" font-family="Helvetica,sans-Serif" font-size="10.00">AROS2Controller::HandleReset</text>
<text text-anchor="middle" x="285" y="-359.5" font-family="Helvetica,sans-Serif" font-size="10.00">Command</text>
</a>
</g>
</g>
<!-- Node1&#45;&gt;Node21 -->
<g id="edge20" class="edge">
<title>Node1&#45;&gt;Node21</title>
<path fill="none" stroke="midnightblue" d="M152.02,-351.56C164.93,-353.12 178.48,-354.76 191.78,-356.36"/>
<polygon fill="midnightblue" stroke="midnightblue" points="191.54,-359.86 201.88,-357.58 192.38,-352.91 191.54,-359.86"/>
</g>
<!-- Node24 -->
<g id="node24" class="node">
<title>Node24</title>
<g id="a_node24"><a xlink:href="classAROS2Controller.html#a2aaa10c84a46e149720e3756bb5ec960" target="_top" xlink:title=" ">
<polygon fill="white" stroke="black" points="196.5,-401.5 196.5,-431.5 373.5,-431.5 373.5,-401.5 196.5,-401.5"/>
<text text-anchor="start" x="204.5" y="-419.5" font-family="Helvetica,sans-Serif" font-size="10.00">AROS2Controller::HandleVelocity</text>
<text text-anchor="middle" x="285" y="-408.5" font-family="Helvetica,sans-Serif" font-size="10.00">Command</text>
</a>
</g>
</g>
<!-- Node1&#45;&gt;Node24 -->
<g id="edge24" class="edge">
<title>Node1&#45;&gt;Node24</title>
<path fill="none" stroke="midnightblue" d="M95.44,-352.04C117.13,-362.96 154.46,-380.86 188,-392.5 194.27,-394.68 200.83,-396.74 207.46,-398.68"/>
<polygon fill="midnightblue" stroke="midnightblue" points="206.61,-402.08 217.19,-401.43 208.52,-395.34 206.61,-402.08"/>
</g>
<!-- Node26 -->
<g id="node26" class="node">
<title>Node26</title>
<g id="a_node26"><a xlink:href="classAROS2Controller.html#ad520f0fd79ad96ee01e3c15763f583ae" target="_top" xlink:title=" ">
<polygon fill="white" stroke="black" points="212,-303.5 212,-333.5 358,-333.5 358,-303.5 212,-303.5"/>
<text text-anchor="start" x="220" y="-321.5" font-family="Helvetica,sans-Serif" font-size="10.00">AROS2Controller::Initialize</text>
<text text-anchor="middle" x="285" y="-310.5" font-family="Helvetica,sans-Serif" font-size="10.00">ImageCapture</text>
</a>
</g>
</g>
<!-- Node1&#45;&gt;Node26 -->
<g id="edge27" class="edge">
<title>Node1&#45;&gt;Node26</title>
<path fill="none" stroke="midnightblue" d="M152.02,-333.8C168.22,-331.92 185.42,-329.93 201.87,-328.02"/>
<polygon fill="midnightblue" stroke="midnightblue" points="202.47,-331.48 212,-326.85 201.66,-324.52 202.47,-331.48"/>
</g>
<!-- Node27 -->
<g id="node27" class="node">
<title>Node27</title>
<g id="a_node27"><a xlink:href="classAROS2Controller.html#aae0f9e64604760593a17137ae22885ca" target="_top" xlink:title=" ">
<polygon fill="white" stroke="black" points="198,-254.5 198,-284.5 372,-284.5 372,-254.5 198,-254.5"/>
<text text-anchor="start" x="206" y="-272.5" font-family="Helvetica,sans-Serif" font-size="10.00">AROS2Controller::SetupObstacle</text>
<text text-anchor="middle" x="285" y="-261.5" font-family="Helvetica,sans-Serif" font-size="10.00">Manager</text>
</a>
</g>
</g>
<!-- Node1&#45;&gt;Node27 -->
<g id="edge28" class="edge">
<title>Node1&#45;&gt;Node27</title>
<path fill="none" stroke="midnightblue" d="M96.69,-332.89C118.6,-322.45 155.24,-305.77 188,-294.5 195.33,-291.98 203.05,-289.57 210.79,-287.31"/>
<polygon fill="midnightblue" stroke="midnightblue" points="211.92,-290.63 220.59,-284.54 210.01,-283.9 211.92,-290.63"/>
</g>
<!-- Node28 -->
<g id="node28" class="node">
<title>Node28</title>
<g id="a_node28"><a xlink:href="classAROS2Controller.html#a0c8f996f9910bf302ecb5921588f0a00" target="_top" xlink:title=" ">
<polygon fill="white" stroke="black" points="194.5,-205.5 194.5,-235.5 375.5,-235.5 375.5,-205.5 194.5,-205.5"/>
<text text-anchor="start" x="202.5" y="-223.5" font-family="Helvetica,sans-Serif" font-size="10.00">AROS2Controller::UpdateCollision</text>
<text text-anchor="middle" x="285" y="-212.5" font-family="Helvetica,sans-Serif" font-size="10.00">Message</text>
</a>
</g>
</g>
<!-- Node1&#45;&gt;Node28 -->
<g id="edge29" class="edge">
<title>Node1&#45;&gt;Node28</title>
<path fill="none" stroke="midnightblue" d="M85.13,-332.88C102.15,-313.35 143.66,-268.95 188,-245.5 192.45,-243.14 197.14,-241 201.95,-239.05"/>
<polygon fill="midnightblue" stroke="midnightblue" points="203.2,-242.32 211.33,-235.54 200.74,-235.77 203.2,-242.32"/>
</g>
<!-- Node30 -->
<g id="node30" class="node">
<title>Node30</title>
<g id="a_node30"><a xlink:href="classAROS2Controller.html#a64b21afa3b4a219545b2f89bfc4bfc99" target="_top" xlink:title=" ">
<polygon fill="white" stroke="black" points="204.5,-156.5 204.5,-186.5 365.5,-186.5 365.5,-156.5 204.5,-156.5"/>
<text text-anchor="start" x="212.5" y="-174.5" font-family="Helvetica,sans-Serif" font-size="10.00">AROS2Controller::UpdateGoal</text>
<text text-anchor="middle" x="285" y="-163.5" font-family="Helvetica,sans-Serif" font-size="10.00">PositionMessage</text>
</a>
</g>
</g>
<!-- Node1&#45;&gt;Node30 -->
<g id="edge31" class="edge">
<title>Node1&#45;&gt;Node30</title>
<path fill="none" stroke="midnightblue" d="M81.43,-332.9C94.05,-306.65 132.88,-233.22 188,-196.5 190.96,-194.53 194.06,-192.72 197.27,-191.04"/>
<polygon fill="midnightblue" stroke="midnightblue" points="198.97,-194.11 206.54,-186.7 196,-187.77 198.97,-194.11"/>
</g>
<!-- Node32 -->
<g id="node32" class="node">
<title>Node32</title>
<g id="a_node32"><a xlink:href="classAROS2Controller.html#a2e79df2bf2a299eee06d7bd182a01258" target="_top" xlink:title=" ">
<polygon fill="white" stroke="black" points="200,-107.5 200,-137.5 370,-137.5 370,-107.5 200,-107.5"/>
<text text-anchor="start" x="208" y="-125.5" font-family="Helvetica,sans-Serif" font-size="10.00">AROS2Controller::UpdateImage</text>
<text text-anchor="middle" x="285" y="-114.5" font-family="Helvetica,sans-Serif" font-size="10.00">Message</text>
</a>
</g>
</g>
<!-- Node1&#45;&gt;Node32 -->
<g id="edge33" class="edge">
<title>Node1&#45;&gt;Node32</title>
<path fill="none" stroke="midnightblue" d="M79.64,-332.57C88.73,-300.41 121.84,-198.22 188,-147.5 190.45,-145.62 193.03,-143.88 195.7,-142.28"/>
<polygon fill="midnightblue" stroke="midnightblue" points="197.36,-145.36 204.54,-137.57 194.07,-139.18 197.36,-145.36"/>
</g>
<!-- Node33 -->
<g id="node33" class="node">
<title>Node33</title>
<g id="a_node33"><a xlink:href="classAROS2Controller.html#a99393b7f50265b59c6c4644913be81e9" target="_top" xlink:title=" ">
<polygon fill="white" stroke="black" points="191,-58.5 191,-88.5 379,-88.5 379,-58.5 191,-58.5"/>
<text text-anchor="start" x="199" y="-76.5" font-family="Helvetica,sans-Serif" font-size="10.00">AROS2Controller::UpdateOdometry</text>
<text text-anchor="middle" x="285" y="-65.5" font-family="Helvetica,sans-Serif" font-size="10.00">Message</text>
</a>
</g>
</g>
<!-- Node1&#45;&gt;Node33 -->
<g id="edge34" class="edge">
<title>Node1&#45;&gt;Node33</title>
<path fill="none" stroke="midnightblue" d="M78.4,-332.79C84.22,-296.03 110,-164.1 188,-98.5 190.02,-96.8 192.14,-95.22 194.34,-93.74"/>
<polygon fill="midnightblue" stroke="midnightblue" points="196.34,-96.62 203.21,-88.55 192.81,-90.58 196.34,-96.62"/>
</g>
<!-- Node37 -->
<g id="node37" class="node">
<title>Node37</title>
<g id="a_node37"><a xlink:href="classAROS2Controller.html#ae161a9ce697fba793733dfe85fc92c17" target="_top" xlink:title=" ">
<polygon fill="white" stroke="black" points="188,-20 188,-39 382,-39 382,-20 188,-20"/>
<text text-anchor="middle" x="285" y="-27" font-family="Helvetica,sans-Serif" font-size="10.00">AROS2Controller::UpdateTFMessage</text>
</a>
</g>
</g>
<!-- Node1&#45;&gt;Node37 -->
<g id="edge38" class="edge">
<title>Node1&#45;&gt;Node37</title>
<path fill="none" stroke="midnightblue" d="M77.48,-332.8C80.07,-291.41 95.98,-128.12 188,-49.5 190.38,-47.46 192.92,-45.62 195.57,-43.94"/>
<polygon fill="midnightblue" stroke="midnightblue" points="197.28,-47 204.42,-39.17 193.96,-40.84 197.28,-47"/>
</g>
<!-- Node3 -->
<g id="node3" class="node">
<title>Node3</title>
<g id="a_node3"><a xlink:href="classAROS2Controller.html#ab151bbf85501e48f914ea8a8a63dbfef" target="_top" xlink:title=" ">
<polygon fill="white" stroke="black" points="429.5,-682.5 429.5,-712.5 570.5,-712.5 570.5,-682.5 429.5,-682.5"/>
<text text-anchor="start" x="437.5" y="-700.5" font-family="Helvetica,sans-Serif" font-size="10.00">AROS2Controller::Process</text>
<text text-anchor="middle" x="500" y="-689.5" font-family="Helvetica,sans-Serif" font-size="10.00">CapturedImage</text>
</a>
</g>
</g>
<!-- Node2&#45;&gt;Node3 -->
<g id="edge2" class="edge">
<title>Node2&#45;&gt;Node3</title>
<path fill="none" stroke="midnightblue" d="M356.04,-682.06C376.25,-684.25 398.46,-686.64 419.22,-688.89"/>
<polygon fill="midnightblue" stroke="midnightblue" points="418.96,-692.38 429.28,-689.97 419.72,-685.42 418.96,-692.38"/>
</g>
<!-- Node5 -->
<g id="node5" class="node">
<title>Node5</title>
<g id="a_node5"><a xlink:href="classUQuadDroneController.html#ab8c6cd2ad1e4550aa1990e7da4fcb94a" target="_top" xlink:title=" ">
<polygon fill="white" stroke="black" points="436,-584.5 436,-614.5 564,-614.5 564,-584.5 436,-584.5"/>
<text text-anchor="start" x="444" y="-602.5" font-family="Helvetica,sans-Serif" font-size="10.00">UQuadDroneController</text>
<text text-anchor="middle" x="500" y="-591.5" font-family="Helvetica,sans-Serif" font-size="10.00">::SetDesiredPitchAngle</text>
</a>
</g>
</g>
<!-- Node4&#45;&gt;Node5 -->
<g id="edge4" class="edge">
<title>Node4&#45;&gt;Node5</title>
<path fill="none" stroke="midnightblue" d="M373.56,-601.27C390.85,-601.02 408.83,-600.77 425.6,-600.53"/>
<polygon fill="midnightblue" stroke="midnightblue" points="425.92,-604.03 435.87,-600.39 425.82,-597.03 425.92,-604.03"/>
</g>
<!-- Node6 -->
<g id="node6" class="node">
<title>Node6</title>
<g id="a_node6"><a xlink:href="classUQuadDroneController.html#a5cee8c22d7a1ee5eea146a64c930bb5d" target="_top" xlink:title=" ">
<polygon fill="white" stroke="black" points="436.5,-633.5 436.5,-663.5 563.5,-663.5 563.5,-633.5 436.5,-633.5"/>
<text text-anchor="start" x="444.5" y="-651.5" font-family="Helvetica,sans-Serif" font-size="10.00">UQuadDroneController</text>
<text text-anchor="middle" x="500" y="-640.5" font-family="Helvetica,sans-Serif" font-size="10.00">::SetDesiredRollAngle</text>
</a>
</g>
</g>
<!-- Node4&#45;&gt;Node6 -->
<g id="edge5" class="edge">
<title>Node4&#45;&gt;Node6</title>
<path fill="none" stroke="midnightblue" d="M355.74,-617.56C378.36,-622.45 403.5,-627.88 426.32,-632.8"/>
<polygon fill="midnightblue" stroke="midnightblue" points="425.78,-636.27 436.29,-634.96 427.25,-629.42 425.78,-636.27"/>
</g>
<!-- Node8 -->
<g id="node8" class="node">
<title>Node8</title>
<g id="a_node8"><a xlink:href="classUQuadDroneController.html#a558975a4aa03140aa73209bbbb5c1d86" target="_top" xlink:title=" ">
<polygon fill="white" stroke="black" points="649.5,-406.5 649.5,-436.5 776.5,-436.5 776.5,-406.5 649.5,-406.5"/>
<text text-anchor="start" x="657.5" y="-424.5" font-family="Helvetica,sans-Serif" font-size="10.00">UQuadDroneController</text>
<text text-anchor="middle" x="713" y="-413.5" font-family="Helvetica,sans-Serif" font-size="10.00">::SetHoverMode</text>
</a>
</g>
</g>
<!-- Node7&#45;&gt;Node8 -->
<g id="edge7" class="edge">
<title>Node7&#45;&gt;Node8</title>
<path fill="none" stroke="midnightblue" d="M368.56,-514.38C430.11,-518.23 514.79,-515.9 582,-485.5 602.62,-476.18 598.56,-461.08 618,-449.5 624.86,-445.41 632.37,-441.88 640.05,-438.84"/>
<polygon fill="midnightblue" stroke="midnightblue" points="641.3,-442.11 649.48,-435.37 638.88,-435.54 641.3,-442.11"/>
</g>
<!-- Node9 -->
<g id="node9" class="node">
<title>Node9</title>
<g id="a_node9"><a xlink:href="classQuadPIDController.html#aa21a311e6b52f6d72c19468b85c359b3" target="_top" xlink:title=" ">
<polygon fill="white" stroke="black" points="875.5,-382.5 875.5,-412.5 988.5,-412.5 988.5,-382.5 875.5,-382.5"/>
<text text-anchor="start" x="883.5" y="-400.5" font-family="Helvetica,sans-Serif" font-size="10.00">QuadPIDController::</text>
<text text-anchor="middle" x="932" y="-389.5" font-family="Helvetica,sans-Serif" font-size="10.00">Reset</text>
</a>
</g>
</g>
<!-- Node8&#45;&gt;Node9 -->
<g id="edge8" class="edge">
<title>Node8&#45;&gt;Node9</title>
<path fill="none" stroke="midnightblue" d="M776.77,-414.56C804.52,-411.49 837.17,-407.88 865.27,-404.77"/>
<polygon fill="midnightblue" stroke="midnightblue" points="865.84,-408.23 875.39,-403.65 865.07,-401.27 865.84,-408.23"/>
</g>
<!-- Node11 -->
<g id="node11" class="node">
<title>Node11</title>
<g id="a_node11"><a xlink:href="classUQuadDroneController.html#abb2e0b2fec0dd740021a9414d589bf2a" target="_top" xlink:title=" ">
<polygon fill="white" stroke="black" points="436.5,-445.5 436.5,-475.5 563.5,-475.5 563.5,-445.5 436.5,-445.5"/>
<text text-anchor="start" x="444.5" y="-463.5" font-family="Helvetica,sans-Serif" font-size="10.00">UQuadDroneController</text>
<text text-anchor="middle" x="500" y="-452.5" font-family="Helvetica,sans-Serif" font-size="10.00">::SetDesiredYawRate</text>
</a>
</g>
</g>
<!-- Node10&#45;&gt;Node11 -->
<g id="edge10" class="edge">
<title>Node10&#45;&gt;Node11</title>
<path fill="none" stroke="midnightblue" d="M375.1,-460.5C392.18,-460.5 409.89,-460.5 426.38,-460.5"/>
<polygon fill="midnightblue" stroke="midnightblue" points="426.47,-464 436.47,-460.5 426.47,-457 426.47,-464"/>
</g>
<!-- Node13 -->
<g id="node13" class="node">
<title>Node13</title>
<g id="a_node13"><a xlink:href="classAObstacleManager.html#adeb6b0b2beed769a6b8bbae69bc00849" target="_top" xlink:title=" ">
<polygon fill="white" stroke="black" points="426.5,-535.5 426.5,-565.5 573.5,-565.5 573.5,-535.5 426.5,-535.5"/>
<text text-anchor="start" x="434.5" y="-553.5" font-family="Helvetica,sans-Serif" font-size="10.00">AObstacleManager::Create</text>
<text text-anchor="middle" x="500" y="-542.5" font-family="Helvetica,sans-Serif" font-size="10.00">Obstacles</text>
</a>
</g>
</g>
<!-- Node12&#45;&gt;Node13 -->
<g id="edge12" class="edge">
<title>Node12&#45;&gt;Node13</title>
<path fill="none" stroke="midnightblue" d="M375.71,-552.24C389.12,-552.05 402.9,-551.85 416.15,-551.67"/>
<polygon fill="midnightblue" stroke="midnightblue" points="416.23,-555.17 426.18,-551.53 416.13,-548.17 416.23,-555.17"/>
</g>
<!-- Node14 -->
<g id="node14" class="node">
<title>Node14</title>
<g id="a_node14"><a xlink:href="classAObstacleManager.html#aea69b1fc06b29a36d98673c2a1ac5302" target="_top" xlink:title=" ">
<polygon fill="white" stroke="black" points="619,-497 619,-516 807,-516 807,-497 619,-497"/>
<text text-anchor="middle" x="713" y="-504" font-family="Helvetica,sans-Serif" font-size="10.00">AObstacleManager::ClearObstacles</text>
</a>
</g>
</g>
<!-- Node13&#45;&gt;Node14 -->
<g id="edge13" class="edge">
<title>Node13&#45;&gt;Node14</title>
<path fill="none" stroke="midnightblue" d="M573.02,-535.48C600.32,-529.79 630.95,-523.4 656.5,-518.07"/>
<polygon fill="midnightblue" stroke="midnightblue" points="657.31,-521.48 666.38,-516.01 655.88,-514.63 657.31,-521.48"/>
</g>
<!-- Node15 -->
<g id="node15" class="node">
<title>Node15</title>
<g id="a_node15"><a xlink:href="classAObstacleManager.html#a231657c5b5cffa654a526bbe2f1ce05c" target="_top" xlink:title=" ">
<polygon fill="white" stroke="black" points="627.5,-584.5 627.5,-614.5 798.5,-614.5 798.5,-584.5 627.5,-584.5"/>
<text text-anchor="start" x="635.5" y="-602.5" font-family="Helvetica,sans-Serif" font-size="10.00">AObstacleManager::MoveDrone</text>
<text text-anchor="middle" x="713" y="-591.5" font-family="Helvetica,sans-Serif" font-size="10.00">ToOppositeOfGoal</text>
</a>
</g>
</g>
<!-- Node13&#45;&gt;Node15 -->
<g id="edge14" class="edge">
<title>Node13&#45;&gt;Node15</title>
<path fill="none" stroke="midnightblue" d="M565.74,-565.53C588.42,-570.8 614.08,-576.76 637.5,-582.2"/>
<polygon fill="midnightblue" stroke="midnightblue" points="636.85,-585.64 647.38,-584.49 638.43,-578.82 636.85,-585.64"/>
</g>
<!-- Node17 -->
<g id="node17" class="node">
<title>Node17</title>
<g id="a_node17"><a xlink:href="classAObstacleManager.html#ae7ac658131e204b783c048d177ef5c5b" target="_top" xlink:title=" ">
<polygon fill="white" stroke="black" points="628,-459 628,-478 798,-478 798,-459 628,-459"/>
<text text-anchor="middle" x="713" y="-466" font-family="Helvetica,sans-Serif" font-size="10.00">AObstacleManager::SpawnGoal</text>
</a>
</g>
</g>
<!-- Node13&#45;&gt;Node17 -->
<g id="edge16" class="edge">
<title>Node13&#45;&gt;Node17</title>
<path fill="none" stroke="midnightblue" d="M546.84,-535.47C558.67,-530.77 571.13,-525.07 582,-518.5 600.07,-507.58 599.04,-496.78 618,-487.5 622.95,-485.08 628.2,-482.96 633.58,-481.11"/>
<polygon fill="midnightblue" stroke="midnightblue" points="634.86,-484.38 643.37,-478.08 632.78,-477.7 634.86,-484.38"/>
</g>
<!-- Node18 -->
<g id="node18" class="node">
<title>Node18</title>
<g id="a_node18"><a xlink:href="classAObstacleManager.html#a995b27c090bb8131e0a4076ca4ea872e" target="_top" xlink:title=" ">
<polygon fill="white" stroke="black" points="618,-636 618,-655 808,-655 808,-636 618,-636"/>
<text text-anchor="middle" x="713" y="-643" font-family="Helvetica,sans-Serif" font-size="10.00">AObstacleManager::SpawnObstacle</text>
</a>
</g>
</g>
<!-- Node13&#45;&gt;Node18 -->
<g id="edge17" class="edge">
<title>Node13&#45;&gt;Node18</title>
<path fill="none" stroke="midnightblue" d="M564.37,-565.63C570.6,-568.4 576.6,-571.66 582,-575.5 604.02,-591.16 595.37,-609.72 618,-624.5 622.64,-627.53 627.65,-630.12 632.86,-632.35"/>
<polygon fill="midnightblue" stroke="midnightblue" points="631.83,-635.7 642.42,-635.97 634.3,-629.15 631.83,-635.7"/>
</g>
<!-- Node20 -->
<g id="node20" class="node">
<title>Node20</title>
<g id="a_node20"><a xlink:href="classAObstacleManager.html#a76f203fda8aab28dcd97829554d8218d" target="_top" xlink:title=" ">
<polygon fill="white" stroke="black" points="633.5,-535.5 633.5,-565.5 792.5,-565.5 792.5,-535.5 633.5,-535.5"/>
<text text-anchor="start" x="641.5" y="-553.5" font-family="Helvetica,sans-Serif" font-size="10.00">AObstacleManager::Visualize</text>
<text text-anchor="middle" x="713" y="-542.5" font-family="Helvetica,sans-Serif" font-size="10.00">SpawnBoundaries</text>
</a>
</g>
</g>
<!-- Node13&#45;&gt;Node20 -->
<g id="edge19" class="edge">
<title>Node13&#45;&gt;Node20</title>
<path fill="none" stroke="midnightblue" d="M573.61,-550.5C589.61,-550.5 606.72,-550.5 623.27,-550.5"/>
<polygon fill="midnightblue" stroke="midnightblue" points="623.48,-554 633.48,-550.5 623.48,-547 623.48,-554"/>
</g>
<!-- Node16 -->
<g id="node16" class="node">
<title>Node16</title>
<g id="a_node16"><a xlink:href="classAObstacleManager.html#a56e3ca06a6508da0f0862e6a6c1d022b" target="_top" xlink:title=" ">
<polygon fill="white" stroke="black" points="844,-582.5 844,-612.5 1020,-612.5 1020,-582.5 844,-582.5"/>
<text text-anchor="start" x="852" y="-600.5" font-family="Helvetica,sans-Serif" font-size="10.00">AObstacleManager::GetOpposite</text>
<text text-anchor="middle" x="932" y="-589.5" font-family="Helvetica,sans-Serif" font-size="10.00">Position</text>
</a>
</g>
</g>
<!-- Node15&#45;&gt;Node16 -->
<g id="edge15" class="edge">
<title>Node15&#45;&gt;Node16</title>
<path fill="none" stroke="midnightblue" d="M798.52,-598.72C810.02,-598.61 821.91,-598.51 833.62,-598.4"/>
<polygon fill="midnightblue" stroke="midnightblue" points="833.88,-601.9 843.85,-598.3 833.82,-594.9 833.88,-601.9"/>
</g>
<!-- Node19 -->
<g id="node19" class="node">
<title>Node19</title>
<g id="a_node19"><a xlink:href="classAObstacleManager.html#adecee5b0414d248cead0d36e92571e6f" target="_top" xlink:title=" ">
<polygon fill="white" stroke="black" points="845.5,-631.5 845.5,-661.5 1018.5,-661.5 1018.5,-631.5 845.5,-631.5"/>
<text text-anchor="start" x="853.5" y="-649.5" font-family="Helvetica,sans-Serif" font-size="10.00">AObstacleManager::GetRandom</text>
<text text-anchor="middle" x="932" y="-638.5" font-family="Helvetica,sans-Serif" font-size="10.00">InnerPoint</text>
</a>
</g>
</g>
<!-- Node18&#45;&gt;Node19 -->
<g id="edge18" class="edge">
<title>Node18&#45;&gt;Node19</title>
<path fill="none" stroke="midnightblue" d="M808.23,-645.93C817.21,-645.98 826.32,-646.02 835.3,-646.06"/>
<polygon fill="midnightblue" stroke="midnightblue" points="835.37,-649.56 845.39,-646.11 835.41,-642.56 835.37,-649.56"/>
</g>
<!-- Node22 -->
<g id="node22" class="node">
<title>Node22</title>
<g id="a_node22"><a xlink:href="classUQuadDroneController.html#a370418d3d89f0ab498fc08cb864e1809" target="_top" xlink:title=" ">
<polygon fill="white" stroke="black" points="436.5,-347.5 436.5,-377.5 563.5,-377.5 563.5,-347.5 436.5,-347.5"/>
<text text-anchor="start" x="444.5" y="-365.5" font-family="Helvetica,sans-Serif" font-size="10.00">UQuadDroneController</text>
<text text-anchor="middle" x="500" y="-354.5" font-family="Helvetica,sans-Serif" font-size="10.00">::ResetDroneOrigin</text>
</a>
</g>
</g>
<!-- Node21&#45;&gt;Node22 -->
<g id="edge21" class="edge">
<title>Node21&#45;&gt;Node22</title>
<path fill="none" stroke="midnightblue" d="M368.05,-365.57C387.13,-365.13 407.32,-364.65 425.99,-364.21"/>
<polygon fill="midnightblue" stroke="midnightblue" points="426.27,-367.71 436.18,-363.97 426.1,-360.71 426.27,-367.71"/>
</g>
<!-- Node23 -->
<g id="node23" class="node">
<title>Node23</title>
<g id="a_node23"><a xlink:href="classUQuadDroneController.html#aafeb859afe8b578e40afd30aea2748cb" target="_top" xlink:title=" ">
<polygon fill="white" stroke="black" points="649.5,-351.5 649.5,-381.5 776.5,-381.5 776.5,-351.5 649.5,-351.5"/>
<text text-anchor="start" x="657.5" y="-369.5" font-family="Helvetica,sans-Serif" font-size="10.00">UQuadDroneController</text>
<text text-anchor="middle" x="713" y="-358.5" font-family="Helvetica,sans-Serif" font-size="10.00">::ResetPID</text>
</a>
</g>
</g>
<!-- Node22&#45;&gt;Node23 -->
<g id="edge22" class="edge">
<title>Node22&#45;&gt;Node23</title>
<path fill="none" stroke="midnightblue" d="M563.74,-363.69C587.33,-364.14 614.37,-364.65 638.83,-365.11"/>
<polygon fill="midnightblue" stroke="midnightblue" points="639.08,-368.62 649.14,-365.31 639.21,-361.62 639.08,-368.62"/>
</g>
<!-- Node23&#45;&gt;Node9 -->
<g id="edge23" class="edge">
<title>Node23&#45;&gt;Node9</title>
<path fill="none" stroke="midnightblue" d="M776.77,-375.47C804.52,-379.43 837.17,-384.1 865.27,-388.11"/>
<polygon fill="midnightblue" stroke="midnightblue" points="865,-391.61 875.39,-389.56 865.99,-384.68 865,-391.61"/>
</g>
<!-- Node24&#45;&gt;Node11 -->
<g id="edge26" class="edge">
<title>Node24&#45;&gt;Node11</title>
<path fill="none" stroke="midnightblue" d="M358.71,-431.52C380.55,-436.03 404.51,-440.98 426.35,-445.49"/>
<polygon fill="midnightblue" stroke="midnightblue" points="425.72,-448.94 436.22,-447.53 427.13,-442.08 425.72,-448.94"/>
</g>
<!-- Node25 -->
<g id="node25" class="node">
<title>Node25</title>
<g id="a_node25"><a xlink:href="classUQuadDroneController.html#ae7589cf0b9524c37bc25019e6f65913b" target="_top" xlink:title=" ">
<polygon fill="white" stroke="black" points="436.5,-396.5 436.5,-426.5 563.5,-426.5 563.5,-396.5 436.5,-396.5"/>
<text text-anchor="start" x="444.5" y="-414.5" font-family="Helvetica,sans-Serif" font-size="10.00">UQuadDroneController</text>
<text text-anchor="middle" x="500" y="-403.5" font-family="Helvetica,sans-Serif" font-size="10.00">::SetDesiredVelocity</text>
</a>
</g>
</g>
<!-- Node24&#45;&gt;Node25 -->
<g id="edge25" class="edge">
<title>Node24&#45;&gt;Node25</title>
<path fill="none" stroke="midnightblue" d="M373.56,-414.44C390.95,-414.04 409.03,-413.61 425.88,-413.22"/>
<polygon fill="midnightblue" stroke="midnightblue" points="426.27,-416.71 436.19,-412.97 426.11,-409.71 426.27,-416.71"/>
</g>
<!-- Node29 -->
<g id="node29" class="node">
<title>Node29</title>
<g id="a_node29"><a xlink:href="classAQuadPawn.html#a52ff2f9c23429f3792c7e50e8279bda9" target="_top" xlink:title=" ">
<polygon fill="white" stroke="black" points="418,-211 418,-230 582,-230 582,-211 418,-211"/>
<text text-anchor="middle" x="500" y="-218" font-family="Helvetica,sans-Serif" font-size="10.00">AQuadPawn::getCollisionState</text>
</a>
</g>
</g>
<!-- Node28&#45;&gt;Node29 -->
<g id="edge30" class="edge">
<title>Node28&#45;&gt;Node29</title>
<path fill="none" stroke="midnightblue" d="M375.71,-220.5C386.31,-220.5 397.14,-220.5 407.75,-220.5"/>
<polygon fill="midnightblue" stroke="midnightblue" points="407.86,-224 417.86,-220.5 407.86,-217 407.86,-224"/>
</g>
<!-- Node31 -->
<g id="node31" class="node">
<title>Node31</title>
<g id="a_node31"><a xlink:href="classAObstacleManager.html#a63459be11f1af8febbbfb23c6879f6e3" target="_top" xlink:title=" ">
<polygon fill="white" stroke="black" points="422.5,-159.5 422.5,-189.5 577.5,-189.5 577.5,-159.5 422.5,-159.5"/>
<text text-anchor="start" x="430.5" y="-177.5" font-family="Helvetica,sans-Serif" font-size="10.00">AObstacleManager::GetGoal</text>
<text text-anchor="middle" x="500" y="-166.5" font-family="Helvetica,sans-Serif" font-size="10.00">Position</text>
</a>
</g>
</g>
<!-- Node30&#45;&gt;Node31 -->
<g id="edge32" class="edge">
<title>Node30&#45;&gt;Node31</title>
<path fill="none" stroke="midnightblue" d="M365.62,-172.62C380.83,-172.84 396.84,-173.06 412.26,-173.28"/>
<polygon fill="midnightblue" stroke="midnightblue" points="412.26,-176.78 422.31,-173.42 412.36,-169.78 412.26,-176.78"/>
</g>
<!-- Node34 -->
<g id="node34" class="node">
<title>Node34</title>
<g id="a_node34"><a xlink:href="classUQuadDroneController.html#a89d34598cdca6b4e2fbae8c6b7ea8ed5" target="_top" xlink:title=" ">
<polygon fill="white" stroke="black" points="424,-50 424,-91 576,-91 576,-50 424,-50"/>
<text text-anchor="start" x="432" y="-79" font-family="Helvetica,sans-Serif" font-size="10.00">UQuadDroneController</text>
<text text-anchor="start" x="432" y="-68" font-family="Helvetica,sans-Serif" font-size="10.00">::GetCurrentAngularVelocity</text>
<text text-anchor="middle" x="500" y="-57" font-family="Helvetica,sans-Serif" font-size="10.00">RADPS</text>
</a>
</g>
</g>
<!-- Node33&#45;&gt;Node34 -->
<g id="edge35" class="edge">
<title>Node33&#45;&gt;Node34</title>
<path fill="none" stroke="midnightblue" d="M379.12,-72.19C390.6,-72.03 402.3,-71.86 413.66,-71.7"/>
<polygon fill="midnightblue" stroke="midnightblue" points="414.03,-75.2 423.98,-71.56 413.93,-68.2 414.03,-75.2"/>
</g>
<!-- Node35 -->
<g id="node35" class="node">
<title>Node35</title>
<g id="a_node35"><a xlink:href="classUQuadDroneController.html#aee80642c12dbbd5dd2224b7038a7e06f" target="_top" xlink:title=" ">
<polygon fill="white" stroke="black" points="436.5,-0.5 436.5,-30.5 563.5,-30.5 563.5,-0.5 436.5,-0.5"/>
<text text-anchor="start" x="444.5" y="-18.5" font-family="Helvetica,sans-Serif" font-size="10.00">UQuadDroneController</text>
<text text-anchor="middle" x="500" y="-7.5" font-family="Helvetica,sans-Serif" font-size="10.00">::GetCurrentVelocity</text>
</a>
</g>
</g>
<!-- Node33&#45;&gt;Node35 -->
<g id="edge36" class="edge">
<title>Node33&#45;&gt;Node35</title>
<path fill="none" stroke="midnightblue" d="M344.43,-58.48C356.85,-55.24 369.87,-51.79 382,-48.5 399.87,-43.65 419.24,-38.25 436.98,-33.24"/>
<polygon fill="midnightblue" stroke="midnightblue" points="437.97,-36.6 446.64,-30.51 436.07,-29.86 437.97,-36.6"/>
</g>
<!-- Node36 -->
<g id="node36" class="node">
<title>Node36</title>
<g id="a_node36"><a xlink:href="classUQuadDroneController.html#ab0bed543e347de2e364fca46d23b8cca" target="_top" xlink:title=" ">
<polygon fill="white" stroke="black" points="435,-110.5 435,-140.5 565,-140.5 565,-110.5 435,-110.5"/>
<text text-anchor="start" x="443" y="-128.5" font-family="Helvetica,sans-Serif" font-size="10.00">UQuadDroneController</text>
<text text-anchor="middle" x="500" y="-117.5" font-family="Helvetica,sans-Serif" font-size="10.00">::GetOrientationAsQuat</text>
</a>
</g>
</g>
<!-- Node33&#45;&gt;Node36 -->
<g id="edge37" class="edge">
<title>Node33&#45;&gt;Node36</title>
<path fill="none" stroke="midnightblue" d="M347.61,-88.54C372.67,-94.66 401.78,-101.77 427.75,-108.11"/>
<polygon fill="midnightblue" stroke="midnightblue" points="426.99,-111.52 437.53,-110.49 428.65,-104.72 426.99,-111.52"/>
</g>
</g>
</svg>
