<?xml version="1.0" encoding="UTF-8" standalone="no"?>
<!DOCTYPE svg PUBLIC "-//W3C//DTD SVG 1.1//EN"
 "http://www.w3.org/Graphics/SVG/1.1/DTD/svg11.dtd">
<!-- Generated by graphviz version 2.43.0 (0)
 -->
<!-- Title: UQuadDroneController::GamepadController Pages: 1 -->
<svg width="610pt" height="199pt"
 viewBox="0.00 0.00 610.00 199.20" xmlns="http://www.w3.org/2000/svg" xmlns:xlink="http://www.w3.org/1999/xlink">
<g id="graph0" class="graph" transform="scale(1 1) rotate(0) translate(4 195.2)">
<title>UQuadDroneController::GamepadController</title>
<polygon fill="white" stroke="transparent" points="-4,4 -4,-195.2 606,-195.2 606,4 -4,4"/>
<!-- Node1 -->
<g id="node1" class="node">
<title>Node1</title>
<g id="a_node1"><a xlink:title=" ">
<polygon fill="#bfbfbf" stroke="black" points="0,-93.5 0,-123.5 127,-123.5 127,-93.5 0,-93.5"/>
<text text-anchor="start" x="8" y="-111.5" font-family="Helvetica,sans-Serif" font-size="10.00">UQuadDroneController</text>
<text text-anchor="middle" x="63.5" y="-100.5" font-family="Helvetica,sans-Serif" font-size="10.00">::GamepadController</text>
</a>
</g>
</g>
<!-- Node2 -->
<g id="node2" class="node">
<title>Node2</title>
<g id="a_node2"><a xlink:href="classQuadPIDController.html#ad96b9199d7ae1f627a01c0ac888220c8" target="_top" xlink:title=" ">
<polygon fill="white" stroke="black" points="329,-90.5 329,-120.5 442,-120.5 442,-90.5 329,-90.5"/>
<text text-anchor="start" x="337" y="-108.5" font-family="Helvetica,sans-Serif" font-size="10.00">QuadPIDController::</text>
<text text-anchor="middle" x="385.5" y="-97.5" font-family="Helvetica,sans-Serif" font-size="10.00">Calculate</text>
</a>
</g>
</g>
<!-- Node1&#45;&gt;Node2 -->
<g id="edge1" class="edge">
<title>Node1&#45;&gt;Node2</title>
<path fill="none" stroke="midnightblue" d="M79.56,-123.61C97.58,-140.53 129.55,-166.95 163,-177.5 218.1,-194.88 238.4,-196.41 293,-177.5 321.16,-167.75 347.23,-145.35 364.28,-128.11"/>
<polygon fill="midnightblue" stroke="midnightblue" points="367.07,-130.26 371.45,-120.61 362.01,-125.42 367.07,-130.26"/>
</g>
<!-- Node4 -->
<g id="node4" class="node">
<title>Node4</title>
<g id="a_node4"><a xlink:href="classUQuadDroneController.html#a1b6bdb6ea17c076aef0c88f374da61fc" target="_top" xlink:title=" ">
<polygon fill="white" stroke="black" points="163,-137.5 163,-167.5 293,-167.5 293,-137.5 163,-137.5"/>
<text text-anchor="start" x="171" y="-155.5" font-family="Helvetica,sans-Serif" font-size="10.00">UQuadDroneController</text>
<text text-anchor="middle" x="228" y="-144.5" font-family="Helvetica,sans-Serif" font-size="10.00">::DrawDebugVisualsVel</text>
</a>
</g>
</g>
<!-- Node1&#45;&gt;Node4 -->
<g id="edge3" class="edge">
<title>Node1&#45;&gt;Node4</title>
<path fill="none" stroke="midnightblue" d="M119.97,-123.52C133.36,-127.15 147.79,-131.05 161.59,-134.79"/>
<polygon fill="midnightblue" stroke="midnightblue" points="160.94,-138.24 171.51,-137.47 162.77,-131.48 160.94,-138.24"/>
</g>
<!-- Node5 -->
<g id="node5" class="node">
<title>Node5</title>
<g id="a_node5"><a xlink:href="classADroneManager.html#a9c3c9b9953ac4f47093c19e72029c41d" target="_top" xlink:title=" ">
<polygon fill="white" stroke="black" points="168.5,-99 168.5,-118 287.5,-118 287.5,-99 168.5,-99"/>
<text text-anchor="middle" x="228" y="-106" font-family="Helvetica,sans-Serif" font-size="10.00">ADroneManager::Get</text>
</a>
</g>
</g>
<!-- Node1&#45;&gt;Node5 -->
<g id="edge4" class="edge">
<title>Node1&#45;&gt;Node5</title>
<path fill="none" stroke="midnightblue" d="M127.33,-108.5C137.44,-108.5 147.96,-108.5 158.2,-108.5"/>
<polygon fill="midnightblue" stroke="midnightblue" points="158.33,-112 168.33,-108.5 158.33,-105 158.33,-112"/>
</g>
<!-- Node6 -->
<g id="node6" class="node">
<title>Node6</title>
<g id="a_node6"><a xlink:href="classUQuadDroneController.html#ae3c8dc589bca5cf3a44468d093381b5b" target="_top" xlink:title=" ">
<polygon fill="white" stroke="black" points="164.5,-49.5 164.5,-79.5 291.5,-79.5 291.5,-49.5 164.5,-49.5"/>
<text text-anchor="start" x="172.5" y="-67.5" font-family="Helvetica,sans-Serif" font-size="10.00">UQuadDroneController</text>
<text text-anchor="middle" x="228" y="-56.5" font-family="Helvetica,sans-Serif" font-size="10.00">::ThrustMixer</text>
</a>
</g>
</g>
<!-- Node1&#45;&gt;Node6 -->
<g id="edge5" class="edge">
<title>Node1&#45;&gt;Node6</title>
<path fill="none" stroke="midnightblue" d="M119.97,-93.48C133.36,-89.85 147.79,-85.95 161.59,-82.21"/>
<polygon fill="midnightblue" stroke="midnightblue" points="162.77,-85.52 171.51,-79.53 160.94,-78.76 162.77,-85.52"/>
</g>
<!-- Node7 -->
<g id="node7" class="node">
<title>Node7</title>
<g id="a_node7"><a xlink:href="classUQuadDroneController.html#a0d38f3052353104ca815856c35a56820" target="_top" xlink:title=" ">
<polygon fill="white" stroke="black" points="164.5,-0.5 164.5,-30.5 291.5,-30.5 291.5,-0.5 164.5,-0.5"/>
<text text-anchor="start" x="172.5" y="-18.5" font-family="Helvetica,sans-Serif" font-size="10.00">UQuadDroneController</text>
<text text-anchor="middle" x="228" y="-7.5" font-family="Helvetica,sans-Serif" font-size="10.00">::YawRateControl</text>
</a>
</g>
</g>
<!-- Node1&#45;&gt;Node7 -->
<g id="edge6" class="edge">
<title>Node1&#45;&gt;Node7</title>
<path fill="none" stroke="midnightblue" d="M83.64,-93.29C102.89,-78.48 133.82,-56 163,-40.5 166.9,-38.43 171.01,-36.44 175.18,-34.54"/>
<polygon fill="midnightblue" stroke="midnightblue" points="176.6,-37.74 184.38,-30.55 173.81,-31.32 176.6,-37.74"/>
</g>
<!-- Node3 -->
<g id="node3" class="node">
<title>Node3</title>
<g id="a_node3"><a xlink:href="classQuadPIDController.html#ab7e668b1b8cba6bf742e8e5d73e43b87" target="_top" xlink:title=" ">
<polygon fill="white" stroke="black" points="478,-90.5 478,-120.5 602,-120.5 602,-90.5 478,-90.5"/>
<text text-anchor="start" x="486" y="-108.5" font-family="Helvetica,sans-Serif" font-size="10.00">QuadPIDController::</text>
<text text-anchor="middle" x="540" y="-97.5" font-family="Helvetica,sans-Serif" font-size="10.00">RemoveExpiredPoints</text>
</a>
</g>
</g>
<!-- Node2&#45;&gt;Node3 -->
<g id="edge2" class="edge">
<title>Node2&#45;&gt;Node3</title>
<path fill="none" stroke="midnightblue" d="M442.42,-105.5C450.64,-105.5 459.2,-105.5 467.68,-105.5"/>
<polygon fill="midnightblue" stroke="midnightblue" points="467.95,-109 477.95,-105.5 467.95,-102 467.95,-109"/>
</g>
<!-- Node7&#45;&gt;Node2 -->
<g id="edge7" class="edge">
<title>Node7&#45;&gt;Node2</title>
<path fill="none" stroke="midnightblue" d="M272,-30.62C279.15,-33.6 286.39,-36.93 293,-40.5 316.13,-52.99 340.3,-70.37 357.98,-84.02"/>
<polygon fill="midnightblue" stroke="midnightblue" points="356.08,-86.97 366.11,-90.38 360.39,-81.46 356.08,-86.97"/>
</g>
</g>
</svg>
