<?xml version="1.0" encoding="UTF-8" standalone="no"?>
<!DOCTYPE svg PUBLIC "-//W3C//DTD SVG 1.1//EN"
 "http://www.w3.org/Graphics/SVG/1.1/DTD/svg11.dtd">
<!-- Generated by graphviz version 2.43.0 (0)
 -->
<!-- Title: UQuadDroneController::Update Pages: 1 -->
<svg width="846pt" height="458pt"
 viewBox="0.00 0.00 846.00 457.50" xmlns="http://www.w3.org/2000/svg" xmlns:xlink="http://www.w3.org/1999/xlink">
<g id="graph0" class="graph" transform="scale(1 1) rotate(0) translate(4 453.5)">
<title>UQuadDroneController::Update</title>
<polygon fill="white" stroke="transparent" points="-4,4 -4,-453.5 842,-453.5 842,4 -4,4"/>
<!-- Node1 -->
<g id="node1" class="node">
<title>Node1</title>
<g id="a_node1"><a xlink:title=" ">
<polygon fill="#bfbfbf" stroke="black" points="0,-131.5 0,-161.5 127,-161.5 127,-131.5 0,-131.5"/>
<text text-anchor="start" x="8" y="-149.5" font-family="Helvetica,sans-Serif" font-size="10.00">UQuadDroneController</text>
<text text-anchor="middle" x="63.5" y="-138.5" font-family="Helvetica,sans-Serif" font-size="10.00">::Update</text>
</a>
</g>
</g>
<!-- Node2 -->
<g id="node2" class="node">
<title>Node2</title>
<g id="a_node2"><a xlink:href="classUQuadDroneController.html#a515f29c2d36616543fd6eb95d9e930e0" target="_top" xlink:title=" ">
<polygon fill="white" stroke="black" points="187,-267.5 187,-297.5 314,-297.5 314,-267.5 187,-267.5"/>
<text text-anchor="start" x="195" y="-285.5" font-family="Helvetica,sans-Serif" font-size="10.00">UQuadDroneController</text>
<text text-anchor="middle" x="250.5" y="-274.5" font-family="Helvetica,sans-Serif" font-size="10.00">::FlightController</text>
</a>
</g>
</g>
<!-- Node1&#45;&gt;Node2 -->
<g id="edge1" class="edge">
<title>Node1&#45;&gt;Node2</title>
<path fill="none" stroke="midnightblue" d="M79.3,-161.65C97.83,-180.15 131.04,-211.78 163,-234.5 177.49,-244.8 194.41,-254.62 209.42,-262.66"/>
<polygon fill="midnightblue" stroke="midnightblue" points="208,-265.87 218.48,-267.43 211.26,-259.67 208,-265.87"/>
</g>
<!-- Node7 -->
<g id="node7" class="node">
<title>Node7</title>
<g id="a_node7"><a xlink:href="classADroneManager.html#a9c3c9b9953ac4f47093c19e72029c41d" target="_top" xlink:title=" ">
<polygon fill="white" stroke="black" points="392,-118 392,-137 511,-137 511,-118 392,-118"/>
<text text-anchor="middle" x="451.5" y="-125" font-family="Helvetica,sans-Serif" font-size="10.00">ADroneManager::Get</text>
</a>
</g>
</g>
<!-- Node1&#45;&gt;Node7 -->
<g id="edge17" class="edge">
<title>Node1&#45;&gt;Node7</title>
<path fill="none" stroke="midnightblue" d="M127.08,-149.47C182.6,-151.39 265.84,-152.55 338,-146.5 356.57,-144.94 376.68,-141.97 394.69,-138.82"/>
<polygon fill="midnightblue" stroke="midnightblue" points="395.52,-142.23 404.74,-137.01 394.28,-135.34 395.52,-142.23"/>
</g>
<!-- Node11 -->
<g id="node11" class="node">
<title>Node11</title>
<g id="a_node11"><a xlink:href="classUQuadDroneController.html#afe4037b4e2ff01815729474bff090ea0" target="_top" xlink:title=" ">
<polygon fill="white" stroke="black" points="187,-194.5 187,-224.5 314,-224.5 314,-194.5 187,-194.5"/>
<text text-anchor="start" x="195" y="-212.5" font-family="Helvetica,sans-Serif" font-size="10.00">UQuadDroneController</text>
<text text-anchor="middle" x="250.5" y="-201.5" font-family="Helvetica,sans-Serif" font-size="10.00">::GamepadController</text>
</a>
</g>
</g>
<!-- Node1&#45;&gt;Node11 -->
<g id="edge11" class="edge">
<title>Node1&#45;&gt;Node11</title>
<path fill="none" stroke="midnightblue" d="M108.81,-161.59C134.92,-170.48 168.13,-181.79 195.72,-191.19"/>
<polygon fill="midnightblue" stroke="midnightblue" points="194.63,-194.51 205.23,-194.42 196.89,-187.89 194.63,-194.51"/>
</g>
<!-- Node12 -->
<g id="node12" class="node">
<title>Node12</title>
<g id="a_node12"><a xlink:href="classADroneManager.html#aeabd73366b51d5ec994b9dbcd906593f" target="_top" xlink:title=" ">
<polygon fill="white" stroke="black" points="163,-118 163,-137 338,-137 338,-118 163,-118"/>
<text text-anchor="middle" x="250.5" y="-125" font-family="Helvetica,sans-Serif" font-size="10.00">ADroneManager::GetDroneIndex</text>
</a>
</g>
</g>
<!-- Node1&#45;&gt;Node12 -->
<g id="edge18" class="edge">
<title>Node1&#45;&gt;Node12</title>
<path fill="none" stroke="midnightblue" d="M127.13,-140.07C135.42,-139.22 144.07,-138.33 152.76,-137.44"/>
<polygon fill="midnightblue" stroke="midnightblue" points="153.39,-140.89 162.98,-136.39 152.67,-133.93 153.39,-140.89"/>
</g>
<!-- Node13 -->
<g id="node13" class="node">
<title>Node13</title>
<g id="a_node13"><a xlink:href="classADroneManager.html#aa16196d3e75e814db5b7eeaebe5c70e3" target="_top" xlink:title=" ">
<polygon fill="white" stroke="black" points="165.5,-80 165.5,-99 335.5,-99 335.5,-80 165.5,-80"/>
<text text-anchor="middle" x="250.5" y="-87" font-family="Helvetica,sans-Serif" font-size="10.00">ADroneManager::IsSwarmMode</text>
</a>
</g>
</g>
<!-- Node1&#45;&gt;Node13 -->
<g id="edge20" class="edge">
<title>Node1&#45;&gt;Node13</title>
<path fill="none" stroke="midnightblue" d="M99.61,-131.46C118.21,-123.87 141.59,-114.94 163,-108.5 171.65,-105.9 180.89,-103.49 189.98,-101.32"/>
<polygon fill="midnightblue" stroke="midnightblue" points="190.81,-104.72 199.76,-99.07 189.23,-97.9 190.81,-104.72"/>
</g>
<!-- Node14 -->
<g id="node14" class="node">
<title>Node14</title>
<g id="a_node14"><a xlink:href="classUQuadDroneController.html#abe10155e4aa1c6a77e67347ca91d2fdc" target="_top" xlink:title=" ">
<polygon fill="white" stroke="black" points="187,-30.5 187,-60.5 314,-60.5 314,-30.5 187,-30.5"/>
<text text-anchor="start" x="195" y="-48.5" font-family="Helvetica,sans-Serif" font-size="10.00">UQuadDroneController</text>
<text text-anchor="middle" x="250.5" y="-37.5" font-family="Helvetica,sans-Serif" font-size="10.00">::SetFlightMode</text>
</a>
</g>
</g>
<!-- Node1&#45;&gt;Node14 -->
<g id="edge21" class="edge">
<title>Node1&#45;&gt;Node14</title>
<path fill="none" stroke="midnightblue" d="M80.27,-131.24C98.71,-114.18 130.83,-86.81 163,-70.5 167.59,-68.17 172.43,-66.03 177.37,-64.07"/>
<polygon fill="midnightblue" stroke="midnightblue" points="178.83,-67.26 186.99,-60.5 176.39,-60.7 178.83,-67.26"/>
</g>
<!-- Node3 -->
<g id="node3" class="node">
<title>Node3</title>
<g id="a_node3"><a xlink:href="classQuadPIDController.html#ad96b9199d7ae1f627a01c0ac888220c8" target="_top" xlink:title=" ">
<polygon fill="white" stroke="black" points="565,-243.5 565,-273.5 678,-273.5 678,-243.5 565,-243.5"/>
<text text-anchor="start" x="573" y="-261.5" font-family="Helvetica,sans-Serif" font-size="10.00">QuadPIDController::</text>
<text text-anchor="middle" x="621.5" y="-250.5" font-family="Helvetica,sans-Serif" font-size="10.00">Calculate</text>
</a>
</g>
</g>
<!-- Node2&#45;&gt;Node3 -->
<g id="edge2" class="edge">
<title>Node2&#45;&gt;Node3</title>
<path fill="none" stroke="midnightblue" d="M279.72,-297.71C303.94,-309.84 340.19,-325.87 374,-332.5 441.6,-345.76 464.06,-355.48 529,-332.5 557.56,-322.4 583.74,-299.17 600.7,-281.41"/>
<polygon fill="midnightblue" stroke="midnightblue" points="603.61,-283.42 607.83,-273.7 598.47,-278.67 603.61,-283.42"/>
</g>
<!-- Node5 -->
<g id="node5" class="node">
<title>Node5</title>
<g id="a_node5"><a xlink:href="classDroneMathUtils.html#a60bb84d076590f7ea87f59df8ffb8a4e" target="_top" xlink:title=" ">
<polygon fill="white" stroke="black" points="379,-380.5 379,-410.5 524,-410.5 524,-380.5 379,-380.5"/>
<text text-anchor="start" x="387" y="-398.5" font-family="Helvetica,sans-Serif" font-size="10.00">DroneMathUtils::Calculate</text>
<text text-anchor="middle" x="451.5" y="-387.5" font-family="Helvetica,sans-Serif" font-size="10.00">DesiredVelocity</text>
</a>
</g>
</g>
<!-- Node2&#45;&gt;Node5 -->
<g id="edge4" class="edge">
<title>Node2&#45;&gt;Node5</title>
<path fill="none" stroke="midnightblue" d="M271.02,-297.73C294.5,-315.58 335.58,-345.27 374,-365.5 381.53,-369.46 389.71,-373.21 397.82,-376.62"/>
<polygon fill="midnightblue" stroke="midnightblue" points="396.68,-379.94 407.26,-380.47 399.32,-373.46 396.68,-379.94"/>
</g>
<!-- Node6 -->
<g id="node6" class="node">
<title>Node6</title>
<g id="a_node6"><a xlink:href="classUQuadDroneController.html#a1b6bdb6ea17c076aef0c88f374da61fc" target="_top" xlink:title=" ">
<polygon fill="white" stroke="black" points="386.5,-292.5 386.5,-322.5 516.5,-322.5 516.5,-292.5 386.5,-292.5"/>
<text text-anchor="start" x="394.5" y="-310.5" font-family="Helvetica,sans-Serif" font-size="10.00">UQuadDroneController</text>
<text text-anchor="middle" x="451.5" y="-299.5" font-family="Helvetica,sans-Serif" font-size="10.00">::DrawDebugVisualsVel</text>
</a>
</g>
</g>
<!-- Node2&#45;&gt;Node6 -->
<g id="edge5" class="edge">
<title>Node2&#45;&gt;Node6</title>
<path fill="none" stroke="midnightblue" d="M314.19,-290.38C333.88,-292.85 355.8,-295.6 376.21,-298.17"/>
<polygon fill="midnightblue" stroke="midnightblue" points="376.05,-301.67 386.41,-299.45 376.93,-294.73 376.05,-301.67"/>
</g>
<!-- Node2&#45;&gt;Node7 -->
<g id="edge6" class="edge">
<title>Node2&#45;&gt;Node7</title>
<path fill="none" stroke="midnightblue" d="M286.55,-267.37C303.22,-259.14 322.79,-247.89 338,-234.5 358.28,-216.64 355.04,-204.75 374,-185.5 390.03,-169.22 410.83,-153.74 426.7,-142.88"/>
<polygon fill="midnightblue" stroke="midnightblue" points="429.04,-145.52 435.39,-137.04 425.14,-139.71 429.04,-145.52"/>
</g>
<!-- Node8 -->
<g id="node8" class="node">
<title>Node8</title>
<g id="a_node8"><a xlink:href="classAQuadPawn.html#a88f4f046d2374491e62667e9e6a98eb1" target="_top" xlink:title=" ">
<polygon fill="white" stroke="black" points="390,-430 390,-449 513,-449 513,-430 390,-430"/>
<text text-anchor="middle" x="451.5" y="-437" font-family="Helvetica,sans-Serif" font-size="10.00">AQuadPawn::GetMass</text>
</a>
</g>
</g>
<!-- Node2&#45;&gt;Node8 -->
<g id="edge7" class="edge">
<title>Node2&#45;&gt;Node8</title>
<path fill="none" stroke="midnightblue" d="M260.49,-297.64C278.34,-326.31 321.1,-388.49 374,-420.5 377.62,-422.69 381.49,-424.63 385.48,-426.35"/>
<polygon fill="midnightblue" stroke="midnightblue" points="384.39,-429.68 394.99,-429.96 386.88,-423.14 384.39,-429.68"/>
</g>
<!-- Node9 -->
<g id="node9" class="node">
<title>Node9</title>
<g id="a_node9"><a xlink:href="classUQuadDroneController.html#ae3c8dc589bca5cf3a44468d093381b5b" target="_top" xlink:title=" ">
<polygon fill="white" stroke="black" points="388,-194.5 388,-224.5 515,-224.5 515,-194.5 388,-194.5"/>
<text text-anchor="start" x="396" y="-212.5" font-family="Helvetica,sans-Serif" font-size="10.00">UQuadDroneController</text>
<text text-anchor="middle" x="451.5" y="-201.5" font-family="Helvetica,sans-Serif" font-size="10.00">::ThrustMixer</text>
</a>
</g>
</g>
<!-- Node2&#45;&gt;Node9 -->
<g id="edge8" class="edge">
<title>Node2&#45;&gt;Node9</title>
<path fill="none" stroke="midnightblue" d="M288.28,-267.45C312.5,-257.7 344.98,-244.92 374,-234.5 380.27,-232.25 386.87,-229.97 393.44,-227.75"/>
<polygon fill="midnightblue" stroke="midnightblue" points="394.64,-231.03 403.02,-224.55 392.42,-224.4 394.64,-231.03"/>
</g>
<!-- Node10 -->
<g id="node10" class="node">
<title>Node10</title>
<g id="a_node10"><a xlink:href="classUQuadDroneController.html#a0d38f3052353104ca815856c35a56820" target="_top" xlink:title=" ">
<polygon fill="white" stroke="black" points="388,-243.5 388,-273.5 515,-273.5 515,-243.5 388,-243.5"/>
<text text-anchor="start" x="396" y="-261.5" font-family="Helvetica,sans-Serif" font-size="10.00">UQuadDroneController</text>
<text text-anchor="middle" x="451.5" y="-250.5" font-family="Helvetica,sans-Serif" font-size="10.00">::YawRateControl</text>
</a>
</g>
</g>
<!-- Node2&#45;&gt;Node10 -->
<g id="edge9" class="edge">
<title>Node2&#45;&gt;Node10</title>
<path fill="none" stroke="midnightblue" d="M314.19,-274.94C334.36,-272.51 356.88,-269.79 377.71,-267.28"/>
<polygon fill="midnightblue" stroke="midnightblue" points="378.27,-270.74 387.78,-266.06 377.43,-263.79 378.27,-270.74"/>
</g>
<!-- Node4 -->
<g id="node4" class="node">
<title>Node4</title>
<g id="a_node4"><a xlink:href="classQuadPIDController.html#ab7e668b1b8cba6bf742e8e5d73e43b87" target="_top" xlink:title=" ">
<polygon fill="white" stroke="black" points="714,-243.5 714,-273.5 838,-273.5 838,-243.5 714,-243.5"/>
<text text-anchor="start" x="722" y="-261.5" font-family="Helvetica,sans-Serif" font-size="10.00">QuadPIDController::</text>
<text text-anchor="middle" x="776" y="-250.5" font-family="Helvetica,sans-Serif" font-size="10.00">RemoveExpiredPoints</text>
</a>
</g>
</g>
<!-- Node3&#45;&gt;Node4 -->
<g id="edge3" class="edge">
<title>Node3&#45;&gt;Node4</title>
<path fill="none" stroke="midnightblue" d="M678.42,-258.5C686.64,-258.5 695.2,-258.5 703.68,-258.5"/>
<polygon fill="midnightblue" stroke="midnightblue" points="703.95,-262 713.95,-258.5 703.95,-255 703.95,-262"/>
</g>
<!-- Node10&#45;&gt;Node3 -->
<g id="edge10" class="edge">
<title>Node10&#45;&gt;Node3</title>
<path fill="none" stroke="midnightblue" d="M515.06,-258.5C527.94,-258.5 541.54,-258.5 554.54,-258.5"/>
<polygon fill="midnightblue" stroke="midnightblue" points="554.81,-262 564.81,-258.5 554.81,-255 554.81,-262"/>
</g>
<!-- Node11&#45;&gt;Node3 -->
<g id="edge12" class="edge">
<title>Node11&#45;&gt;Node3</title>
<path fill="none" stroke="midnightblue" d="M296.66,-194.43C352.79,-178.18 450.72,-158.1 529,-185.5 557.44,-195.46 583.64,-218.37 600.64,-235.89"/>
<polygon fill="midnightblue" stroke="midnightblue" points="598.39,-238.6 607.78,-243.5 603.49,-233.81 598.39,-238.6"/>
</g>
<!-- Node11&#45;&gt;Node6 -->
<g id="edge13" class="edge">
<title>Node11&#45;&gt;Node6</title>
<path fill="none" stroke="midnightblue" d="M279.54,-224.53C296.66,-233.92 318.86,-246.47 338,-258.5 354.49,-268.87 356.51,-274.93 374,-283.5 377.8,-285.36 381.77,-287.12 385.82,-288.77"/>
<polygon fill="midnightblue" stroke="midnightblue" points="384.79,-292.12 395.38,-292.43 387.3,-285.58 384.79,-292.12"/>
</g>
<!-- Node11&#45;&gt;Node7 -->
<g id="edge14" class="edge">
<title>Node11&#45;&gt;Node7</title>
<path fill="none" stroke="midnightblue" d="M303.91,-194.41C315.45,-190.25 327.38,-185.26 338,-179.5 355.81,-169.83 356.04,-160.91 374,-151.5 382.33,-147.14 391.59,-143.4 400.71,-140.27"/>
<polygon fill="midnightblue" stroke="midnightblue" points="402.06,-143.52 410.51,-137.11 399.91,-136.85 402.06,-143.52"/>
</g>
<!-- Node11&#45;&gt;Node9 -->
<g id="edge15" class="edge">
<title>Node11&#45;&gt;Node9</title>
<path fill="none" stroke="midnightblue" d="M314.19,-209.5C334.36,-209.5 356.88,-209.5 377.71,-209.5"/>
<polygon fill="midnightblue" stroke="midnightblue" points="377.78,-213 387.78,-209.5 377.78,-206 377.78,-213"/>
</g>
<!-- Node11&#45;&gt;Node10 -->
<g id="edge16" class="edge">
<title>Node11&#45;&gt;Node10</title>
<path fill="none" stroke="midnightblue" d="M312.56,-224.53C333.76,-229.76 357.72,-235.65 379.64,-241.05"/>
<polygon fill="midnightblue" stroke="midnightblue" points="379.01,-244.5 389.56,-243.49 380.68,-237.7 379.01,-244.5"/>
</g>
<!-- Node12&#45;&gt;Node7 -->
<g id="edge19" class="edge">
<title>Node12&#45;&gt;Node7</title>
<path fill="none" stroke="midnightblue" d="M338.21,-127.5C352.79,-127.5 367.74,-127.5 381.79,-127.5"/>
<polygon fill="midnightblue" stroke="midnightblue" points="381.83,-131 391.83,-127.5 381.83,-124 381.83,-131"/>
</g>
<!-- Node15 -->
<g id="node15" class="node">
<title>Node15</title>
<g id="a_node15"><a xlink:href="classAQuadPawn.html#a08a971a005a8dfe3148b82e659731b1b" target="_top" xlink:title=" ">
<polygon fill="white" stroke="black" points="374,-49.5 374,-79.5 529,-79.5 529,-49.5 374,-49.5"/>
<text text-anchor="start" x="382" y="-67.5" font-family="Helvetica,sans-Serif" font-size="10.00">AQuadPawn::GenerateFigure</text>
<text text-anchor="middle" x="451.5" y="-56.5" font-family="Helvetica,sans-Serif" font-size="10.00">EightWaypoints</text>
</a>
</g>
</g>
<!-- Node14&#45;&gt;Node15 -->
<g id="edge22" class="edge">
<title>Node14&#45;&gt;Node15</title>
<path fill="none" stroke="midnightblue" d="M314.19,-51.49C329.85,-52.98 346.93,-54.61 363.54,-56.2"/>
<polygon fill="midnightblue" stroke="midnightblue" points="363.51,-59.71 373.8,-57.18 364.17,-52.74 363.51,-59.71"/>
</g>
<!-- Node16 -->
<g id="node16" class="node">
<title>Node16</title>
<g id="a_node16"><a xlink:href="classQuadPIDController.html#aa21a311e6b52f6d72c19468b85c359b3" target="_top" xlink:title=" ">
<polygon fill="white" stroke="black" points="395,-0.5 395,-30.5 508,-30.5 508,-0.5 395,-0.5"/>
<text text-anchor="start" x="403" y="-18.5" font-family="Helvetica,sans-Serif" font-size="10.00">QuadPIDController::</text>
<text text-anchor="middle" x="451.5" y="-7.5" font-family="Helvetica,sans-Serif" font-size="10.00">Reset</text>
</a>
</g>
</g>
<!-- Node14&#45;&gt;Node16 -->
<g id="edge23" class="edge">
<title>Node14&#45;&gt;Node16</title>
<path fill="none" stroke="midnightblue" d="M314.19,-36.05C336.72,-32.65 362.18,-28.81 384.94,-25.38"/>
<polygon fill="midnightblue" stroke="midnightblue" points="385.49,-28.84 394.85,-23.89 384.44,-21.92 385.49,-28.84"/>
</g>
</g>
</svg>
