<?xml version="1.0" encoding="UTF-8" standalone="no"?>
<!DOCTYPE svg PUBLIC "-//W3C//DTD SVG 1.1//EN"
 "http://www.w3.org/Graphics/SVG/1.1/DTD/svg11.dtd">
<!-- Generated by graphviz version 2.43.0 (0)
 -->
<!-- Title: UQuadDroneController::dynamicController Pages: 1 -->
<svg width="506pt" height="252pt"
 viewBox="0.00 0.00 506.00 251.50" xmlns="http://www.w3.org/2000/svg" xmlns:xlink="http://www.w3.org/1999/xlink">
<g id="graph0" class="graph" transform="scale(1 1) rotate(0) translate(4 247.5)">
<title>UQuadDroneController::dynamicController</title>
<polygon fill="white" stroke="transparent" points="-4,4 -4,-247.5 502,-247.5 502,4 -4,4"/>
<!-- Node1 -->
<g id="node1" class="node">
<title>Node1</title>
<g id="a_node1"><a xlink:title=" ">
<polygon fill="#bfbfbf" stroke="black" points="0,-93 0,-123 127,-123 127,-93 0,-93"/>
<text text-anchor="start" x="8" y="-111" font-family="Helvetica,sans-Serif" font-size="10.00">UQuadDroneController</text>
<text text-anchor="middle" x="63.5" y="-100" font-family="Helvetica,sans-Serif" font-size="10.00">::dynamicController</text>
</a>
</g>
</g>
<!-- Node2 -->
<g id="node2" class="node">
<title>Node2</title>
<g id="a_node2"><a xlink:href="classQuadPIDController.html#ad96b9199d7ae1f627a01c0ac888220c8" target="_top" xlink:title=" ">
<polygon fill="white" stroke="black" points="194,-213 194,-243 307,-243 307,-213 194,-213"/>
<text text-anchor="start" x="202" y="-231" font-family="Helvetica,sans-Serif" font-size="10.00">QuadPIDController::</text>
<text text-anchor="middle" x="250.5" y="-220" font-family="Helvetica,sans-Serif" font-size="10.00">Calculate</text>
</a>
</g>
</g>
<!-- Node1&#45;&gt;Node2 -->
<g id="edge1" class="edge">
<title>Node1&#45;&gt;Node2</title>
<path fill="none" stroke="midnightblue" d="M75.81,-123.05C92.55,-144.25 125.94,-182.7 163,-204 169.5,-207.74 176.62,-210.92 183.88,-213.62"/>
<polygon fill="midnightblue" stroke="midnightblue" points="183.25,-217.1 193.84,-217.01 185.51,-210.47 183.25,-217.1"/>
</g>
<!-- Node4 -->
<g id="node4" class="node">
<title>Node4</title>
<g id="a_node4"><a xlink:href="classDroneMathUtils.html#a60bb84d076590f7ea87f59df8ffb8a4e" target="_top" xlink:title=" ">
<polygon fill="white" stroke="black" points="178,-164 178,-194 323,-194 323,-164 178,-164"/>
<text text-anchor="start" x="186" y="-182" font-family="Helvetica,sans-Serif" font-size="10.00">DroneMathUtils::Calculate</text>
<text text-anchor="middle" x="250.5" y="-171" font-family="Helvetica,sans-Serif" font-size="10.00">DesiredVelocity</text>
</a>
</g>
</g>
<!-- Node1&#45;&gt;Node4 -->
<g id="edge3" class="edge">
<title>Node1&#45;&gt;Node4</title>
<path fill="none" stroke="midnightblue" d="M92.8,-123.13C112.19,-133.08 138.69,-145.91 163,-155 168.52,-157.06 174.29,-159.04 180.12,-160.91"/>
<polygon fill="midnightblue" stroke="midnightblue" points="179.38,-164.35 189.97,-163.96 181.45,-157.66 179.38,-164.35"/>
</g>
<!-- Node5 -->
<g id="node5" class="node">
<title>Node5</title>
<g id="a_node5"><a xlink:href="classUQuadDroneController.html#a1b6bdb6ea17c076aef0c88f374da61fc" target="_top" xlink:title=" ">
<polygon fill="white" stroke="black" points="185.5,-115 185.5,-145 315.5,-145 315.5,-115 185.5,-115"/>
<text text-anchor="start" x="193.5" y="-133" font-family="Helvetica,sans-Serif" font-size="10.00">UQuadDroneController</text>
<text text-anchor="middle" x="250.5" y="-122" font-family="Helvetica,sans-Serif" font-size="10.00">::DrawDebugVisualsVel</text>
</a>
</g>
</g>
<!-- Node1&#45;&gt;Node5 -->
<g id="edge4" class="edge">
<title>Node1&#45;&gt;Node5</title>
<path fill="none" stroke="midnightblue" d="M127.13,-115.45C142.52,-117.28 159.15,-119.26 175.04,-121.15"/>
<polygon fill="midnightblue" stroke="midnightblue" points="175.01,-124.67 185.36,-122.37 175.84,-117.72 175.01,-124.67"/>
</g>
<!-- Node6 -->
<g id="node6" class="node">
<title>Node6</title>
<g id="a_node6"><a xlink:href="classADroneManager.html#a9c3c9b9953ac4f47093c19e72029c41d" target="_top" xlink:title=" ">
<polygon fill="white" stroke="black" points="376.5,-57.5 376.5,-76.5 495.5,-76.5 495.5,-57.5 376.5,-57.5"/>
<text text-anchor="middle" x="436" y="-64.5" font-family="Helvetica,sans-Serif" font-size="10.00">ADroneManager::Get</text>
</a>
</g>
</g>
<!-- Node1&#45;&gt;Node6 -->
<g id="edge5" class="edge">
<title>Node1&#45;&gt;Node6</title>
<path fill="none" stroke="midnightblue" d="M127.35,-101.04C193.63,-93.71 297.74,-82.19 366.18,-74.62"/>
<polygon fill="midnightblue" stroke="midnightblue" points="366.88,-78.06 376.43,-73.48 366.11,-71.1 366.88,-78.06"/>
</g>
<!-- Node7 -->
<g id="node7" class="node">
<title>Node7</title>
<g id="a_node7"><a xlink:href="classADroneManager.html#aeabd73366b51d5ec994b9dbcd906593f" target="_top" xlink:title=" ">
<polygon fill="white" stroke="black" points="163,-38.5 163,-57.5 338,-57.5 338,-38.5 163,-38.5"/>
<text text-anchor="middle" x="250.5" y="-45.5" font-family="Helvetica,sans-Serif" font-size="10.00">ADroneManager::GetDroneIndex</text>
</a>
</g>
</g>
<!-- Node1&#45;&gt;Node7 -->
<g id="edge6" class="edge">
<title>Node1&#45;&gt;Node7</title>
<path fill="none" stroke="midnightblue" d="M103.56,-92.91C121.54,-86.17 143.24,-78.34 163,-72 175.89,-67.86 189.99,-63.77 203,-60.17"/>
<polygon fill="midnightblue" stroke="midnightblue" points="203.97,-63.53 212.69,-57.52 202.12,-56.78 203.97,-63.53"/>
</g>
<!-- Node8 -->
<g id="node8" class="node">
<title>Node8</title>
<g id="a_node8"><a xlink:href="classADroneManager.html#aa16196d3e75e814db5b7eeaebe5c70e3" target="_top" xlink:title=" ">
<polygon fill="white" stroke="black" points="165.5,-0.5 165.5,-19.5 335.5,-19.5 335.5,-0.5 165.5,-0.5"/>
<text text-anchor="middle" x="250.5" y="-7.5" font-family="Helvetica,sans-Serif" font-size="10.00">ADroneManager::IsSwarmMode</text>
</a>
</g>
</g>
<!-- Node1&#45;&gt;Node8 -->
<g id="edge8" class="edge">
<title>Node1&#45;&gt;Node8</title>
<path fill="none" stroke="midnightblue" d="M79,-92.69C96.98,-74.64 129.38,-45.08 163,-29 168.03,-26.6 173.37,-24.49 178.83,-22.65"/>
<polygon fill="midnightblue" stroke="midnightblue" points="180.21,-25.89 188.75,-19.61 178.16,-19.19 180.21,-25.89"/>
</g>
<!-- Node3 -->
<g id="node3" class="node">
<title>Node3</title>
<g id="a_node3"><a xlink:href="classQuadPIDController.html#ab7e668b1b8cba6bf742e8e5d73e43b87" target="_top" xlink:title=" ">
<polygon fill="white" stroke="black" points="374,-213 374,-243 498,-243 498,-213 374,-213"/>
<text text-anchor="start" x="382" y="-231" font-family="Helvetica,sans-Serif" font-size="10.00">QuadPIDController::</text>
<text text-anchor="middle" x="436" y="-220" font-family="Helvetica,sans-Serif" font-size="10.00">RemoveExpiredPoints</text>
</a>
</g>
</g>
<!-- Node2&#45;&gt;Node3 -->
<g id="edge2" class="edge">
<title>Node2&#45;&gt;Node3</title>
<path fill="none" stroke="midnightblue" d="M307.05,-228C324.94,-228 345.01,-228 363.85,-228"/>
<polygon fill="midnightblue" stroke="midnightblue" points="363.87,-231.5 373.87,-228 363.87,-224.5 363.87,-231.5"/>
</g>
<!-- Node7&#45;&gt;Node6 -->
<g id="edge7" class="edge">
<title>Node7&#45;&gt;Node6</title>
<path fill="none" stroke="midnightblue" d="M338.15,-56.97C347.58,-57.95 357.1,-58.93 366.28,-59.88"/>
<polygon fill="midnightblue" stroke="midnightblue" points="366.18,-63.39 376.48,-60.94 366.9,-56.43 366.18,-63.39"/>
</g>
</g>
</svg>
