<?xml version="1.0" encoding="UTF-8" standalone="no"?>
<!DOCTYPE svg PUBLIC "-//W3C//DTD SVG 1.1//EN"
 "http://www.w3.org/Graphics/SVG/1.1/DTD/svg11.dtd">
<!-- Generated by graphviz version 2.43.0 (0)
 -->
<!-- Title: UDroneJSONConfig Pages: 1 -->
<svg width="582pt" height="137pt"
 viewBox="0.00 0.00 582.00 137.00" xmlns="http://www.w3.org/2000/svg" xmlns:xlink="http://www.w3.org/1999/xlink">
<g id="graph0" class="graph" transform="scale(1 1) rotate(0) translate(4 133)">
<title>UDroneJSONConfig</title>
<polygon fill="white" stroke="transparent" points="-4,4 -4,-133 578,-133 578,4 -4,4"/>
<!-- Node1 -->
<g id="node1" class="node">
<title>Node1</title>
<g id="a_node1"><a xlink:title=" ">
<polygon fill="#bfbfbf" stroke="black" points="466,-74 466,-93 574,-93 574,-74 466,-74"/>
<text text-anchor="middle" x="520" y="-81" font-family="Helvetica,sans-Serif" font-size="10.00">UDroneJSONConfig</text>
</a>
</g>
</g>
<!-- Node1&#45;&gt;Node1 -->
<g id="edge2" class="edge">
<title>Node1&#45;&gt;Node1</title>
<path fill="none" stroke="#9a32cd" stroke-dasharray="5,2" d="M503.7,-102.9C504.79,-107.81 510.22,-111.5 520,-111.5 535.64,-111.5 540.16,-102.07 533.56,-93.26"/>
<polygon fill="#9a32cd" stroke="#9a32cd" points="507.08,-103.83 506.44,-93.26 500.34,-101.92 507.08,-103.83"/>
<text text-anchor="middle" x="520" y="-114.5" font-family="Helvetica,sans-Serif" font-size="10.00"> Instance</text>
</g>
<!-- Node2 -->
<g id="node2" class="node">
<title>Node2</title>
<g id="a_node2"><a xlink:title=" ">
<polygon fill="white" stroke="#bfbfbf" points="315,-93 315,-112 371,-112 371,-93 315,-93"/>
<text text-anchor="middle" x="343" y="-100" font-family="Helvetica,sans-Serif" font-size="10.00">UObject</text>
</a>
</g>
</g>
<!-- Node2&#45;&gt;Node1 -->
<g id="edge1" class="edge">
<title>Node2&#45;&gt;Node1</title>
<path fill="none" stroke="midnightblue" d="M381.35,-98.44C405.94,-95.78 438.5,-92.24 465.78,-89.28"/>
<polygon fill="midnightblue" stroke="midnightblue" points="380.91,-94.97 371.34,-99.53 381.66,-101.93 380.91,-94.97"/>
</g>
<!-- Node3 -->
<g id="node3" class="node">
<title>Node3</title>
<g id="a_node3"><a xlink:href="structFDroneConfigData.html" target="_top" xlink:title=" ">
<polygon fill="white" stroke="black" points="290,-55 290,-74 396,-74 396,-55 290,-55"/>
<text text-anchor="middle" x="343" y="-62" font-family="Helvetica,sans-Serif" font-size="10.00">FDroneConfigData</text>
</a>
</g>
</g>
<!-- Node3&#45;&gt;Node1 -->
<g id="edge3" class="edge">
<title>Node3&#45;&gt;Node1</title>
<path fill="none" stroke="#9a32cd" stroke-dasharray="5,2" d="M406.42,-71.03C420.12,-72.49 434.55,-74.03 448,-75.5 453.8,-76.13 459.86,-76.8 465.89,-77.48"/>
<polygon fill="#9a32cd" stroke="#9a32cd" points="406.43,-67.51 396.12,-69.94 405.69,-74.47 406.43,-67.51"/>
<text text-anchor="middle" x="431" y="-78.5" font-family="Helvetica,sans-Serif" font-size="10.00"> Config</text>
</g>
<!-- Node4 -->
<g id="node4" class="node">
<title>Node4</title>
<g id="a_node4"><a xlink:href="structFDroneConfigData_1_1FObstacleParameters.html" target="_top" xlink:title=" ">
<polygon fill="white" stroke="black" points="2.5,-98.5 2.5,-128.5 163.5,-128.5 163.5,-98.5 2.5,-98.5"/>
<text text-anchor="start" x="10.5" y="-116.5" font-family="Helvetica,sans-Serif" font-size="10.00">FDroneConfigData::FObstacle</text>
<text text-anchor="middle" x="83" y="-105.5" font-family="Helvetica,sans-Serif" font-size="10.00">Parameters</text>
</a>
</g>
</g>
<!-- Node4&#45;&gt;Node3 -->
<g id="edge4" class="edge">
<title>Node4&#45;&gt;Node3</title>
<path fill="none" stroke="#9a32cd" stroke-dasharray="5,2" d="M173.66,-97.89C204.83,-92.3 240,-85.82 272,-79.5 280.54,-77.81 289.64,-75.93 298.36,-74.08"/>
<polygon fill="#9a32cd" stroke="#9a32cd" points="172.92,-94.47 163.69,-99.67 174.15,-101.36 172.92,-94.47"/>
<text text-anchor="middle" x="228" y="-98.5" font-family="Helvetica,sans-Serif" font-size="10.00"> ObstacleParams</text>
</g>
<!-- Node5 -->
<g id="node5" class="node">
<title>Node5</title>
<g id="a_node5"><a xlink:href="structFDroneConfigData_1_1FControllerParameters.html" target="_top" xlink:title=" ">
<polygon fill="white" stroke="black" points="0,-49.5 0,-79.5 166,-79.5 166,-49.5 0,-49.5"/>
<text text-anchor="start" x="8" y="-67.5" font-family="Helvetica,sans-Serif" font-size="10.00">FDroneConfigData::FController</text>
<text text-anchor="middle" x="83" y="-56.5" font-family="Helvetica,sans-Serif" font-size="10.00">Parameters</text>
</a>
</g>
</g>
<!-- Node5&#45;&gt;Node3 -->
<g id="edge5" class="edge">
<title>Node5&#45;&gt;Node3</title>
<path fill="none" stroke="#9a32cd" stroke-dasharray="5,2" d="M176.46,-64.5C214.63,-64.5 257.47,-64.5 290,-64.5"/>
<polygon fill="#9a32cd" stroke="#9a32cd" points="176.34,-61 166.34,-64.5 176.34,-68 176.34,-61"/>
<text text-anchor="middle" x="228" y="-67.5" font-family="Helvetica,sans-Serif" font-size="10.00"> ControllerParams</text>
</g>
<!-- Node6 -->
<g id="node6" class="node">
<title>Node6</title>
<g id="a_node6"><a xlink:href="structFDroneConfigData_1_1FFlightParameters.html" target="_top" xlink:title=" ">
<polygon fill="white" stroke="black" points="10,-0.5 10,-30.5 156,-30.5 156,-0.5 10,-0.5"/>
<text text-anchor="start" x="18" y="-18.5" font-family="Helvetica,sans-Serif" font-size="10.00">FDroneConfigData::FFlight</text>
<text text-anchor="middle" x="83" y="-7.5" font-family="Helvetica,sans-Serif" font-size="10.00">Parameters</text>
</a>
</g>
</g>
<!-- Node6&#45;&gt;Node3 -->
<g id="edge6" class="edge">
<title>Node6&#45;&gt;Node3</title>
<path fill="none" stroke="#9a32cd" stroke-dasharray="5,2" d="M166.44,-29.82C199.32,-35.68 237.5,-42.69 272,-49.5 280.54,-51.19 289.64,-53.07 298.36,-54.92"/>
<polygon fill="#9a32cd" stroke="#9a32cd" points="166.87,-26.34 156.42,-28.04 165.65,-33.23 166.87,-26.34"/>
<text text-anchor="middle" x="228" y="-52.5" font-family="Helvetica,sans-Serif" font-size="10.00"> FlightParams</text>
</g>
</g>
</svg>
