<?xml version="1.0" encoding="UTF-8" standalone="no"?>
<!DOCTYPE svg PUBLIC "-//W3C//DTD SVG 1.1//EN"
 "http://www.w3.org/Graphics/SVG/1.1/DTD/svg11.dtd">
<!-- Generated by graphviz version 2.43.0 (0)
 -->
<!-- Title: ADroneManager::Get Pages: 1 -->
<svg width="827pt" height="243pt"
 viewBox="0.00 0.00 827.00 243.22" xmlns="http://www.w3.org/2000/svg" xmlns:xlink="http://www.w3.org/1999/xlink">
<g id="graph0" class="graph" transform="scale(1 1) rotate(0) translate(4 239.22)">
<title>ADroneManager::Get</title>
<polygon fill="white" stroke="transparent" points="-4,4 -4,-239.22 823,-239.22 823,4 -4,4"/>
<!-- Node1 -->
<g id="node1" class="node">
<title>Node1</title>
<g id="a_node1"><a xlink:title=" ">
<polygon fill="#bfbfbf" stroke="black" points="700,-121 700,-140 819,-140 819,-121 700,-121"/>
<text text-anchor="middle" x="759.5" y="-128" font-family="Helvetica,sans-Serif" font-size="10.00">ADroneManager::Get</text>
</a>
</g>
</g>
<!-- Node2 -->
<g id="node2" class="node">
<title>Node2</title>
<g id="a_node2"><a xlink:href="classUQuadDroneController.html#ae6cbf9660219d61d1f6efc91bc0244ba" target="_top" xlink:title=" ">
<polygon fill="white" stroke="black" points="325,-200.5 325,-230.5 452,-230.5 452,-200.5 325,-200.5"/>
<text text-anchor="start" x="333" y="-218.5" font-family="Helvetica,sans-Serif" font-size="10.00">UQuadDroneController</text>
<text text-anchor="middle" x="388.5" y="-207.5" font-family="Helvetica,sans-Serif" font-size="10.00">::dynamicController</text>
</a>
</g>
</g>
<!-- Node1&#45;&gt;Node2 -->
<g id="edge1" class="edge">
<title>Node1&#45;&gt;Node2</title>
<path fill="none" stroke="midnightblue" d="M745.71,-148.06C729.43,-168.75 699.15,-202.02 664,-215.5 595.14,-241.91 509.23,-236.39 452.04,-227.89"/>
<polygon fill="midnightblue" stroke="midnightblue" points="748.53,-150.13 751.8,-140.05 742.96,-145.89 748.53,-150.13"/>
</g>
<!-- Node3 -->
<g id="node3" class="node">
<title>Node3</title>
<g id="a_node3"><a xlink:href="classUQuadDroneController.html#a515f29c2d36616543fd6eb95d9e930e0" target="_top" xlink:title=" ">
<polygon fill="white" stroke="black" points="513,-137.5 513,-167.5 640,-167.5 640,-137.5 513,-137.5"/>
<text text-anchor="start" x="521" y="-155.5" font-family="Helvetica,sans-Serif" font-size="10.00">UQuadDroneController</text>
<text text-anchor="middle" x="576.5" y="-144.5" font-family="Helvetica,sans-Serif" font-size="10.00">::FlightController</text>
</a>
</g>
</g>
<!-- Node1&#45;&gt;Node3 -->
<g id="edge2" class="edge">
<title>Node1&#45;&gt;Node3</title>
<path fill="none" stroke="midnightblue" d="M689.72,-138.86C673.39,-140.85 656.06,-142.95 640.02,-144.9"/>
<polygon fill="midnightblue" stroke="midnightblue" points="690.23,-142.32 699.73,-137.64 689.39,-135.38 690.23,-142.32"/>
</g>
<!-- Node4 -->
<g id="node4" class="node">
<title>Node4</title>
<g id="a_node4"><a xlink:href="classUQuadDroneController.html#aeacce81326aab408e9f95553fb3ae2bc" target="_top" xlink:title=" ">
<polygon fill="white" stroke="black" points="325,-115.5 325,-145.5 452,-145.5 452,-115.5 325,-115.5"/>
<text text-anchor="start" x="333" y="-133.5" font-family="Helvetica,sans-Serif" font-size="10.00">UQuadDroneController</text>
<text text-anchor="middle" x="388.5" y="-122.5" font-family="Helvetica,sans-Serif" font-size="10.00">::Update</text>
</a>
</g>
</g>
<!-- Node1&#45;&gt;Node4 -->
<g id="edge13" class="edge">
<title>Node1&#45;&gt;Node4</title>
<path fill="none" stroke="midnightblue" d="M689.69,-128.87C681.04,-128.72 672.31,-128.59 664,-128.5 586.23,-127.68 566.77,-127.72 489,-128.5 477.08,-128.62 464.36,-128.82 452.13,-129.05"/>
<polygon fill="midnightblue" stroke="midnightblue" points="689.71,-132.37 699.78,-129.06 689.84,-125.38 689.71,-132.37"/>
</g>
<!-- Node7 -->
<g id="node7" class="node">
<title>Node7</title>
<g id="a_node7"><a xlink:href="classUQuadDroneController.html#afe4037b4e2ff01815729474bff090ea0" target="_top" xlink:title=" ">
<polygon fill="white" stroke="black" points="513,-49.5 513,-79.5 640,-79.5 640,-49.5 513,-49.5"/>
<text text-anchor="start" x="521" y="-67.5" font-family="Helvetica,sans-Serif" font-size="10.00">UQuadDroneController</text>
<text text-anchor="middle" x="576.5" y="-56.5" font-family="Helvetica,sans-Serif" font-size="10.00">::GamepadController</text>
</a>
</g>
</g>
<!-- Node1&#45;&gt;Node7 -->
<g id="edge6" class="edge">
<title>Node1&#45;&gt;Node7</title>
<path fill="none" stroke="midnightblue" d="M724.63,-117.31C706.66,-110.39 684.18,-101.84 664,-94.5 650.26,-89.5 635.22,-84.22 621.6,-79.51"/>
<polygon fill="midnightblue" stroke="midnightblue" points="723.51,-120.63 734.1,-120.97 726.03,-114.1 723.51,-120.63"/>
</g>
<!-- Node8 -->
<g id="node8" class="node">
<title>Node8</title>
<g id="a_node8"><a xlink:href="classADroneManager.html#aeabd73366b51d5ec994b9dbcd906593f" target="_top" xlink:title=" ">
<polygon fill="white" stroke="black" points="489,-187 489,-206 664,-206 664,-187 489,-187"/>
<text text-anchor="middle" x="576.5" y="-194" font-family="Helvetica,sans-Serif" font-size="10.00">ADroneManager::GetDroneIndex</text>
</a>
</g>
</g>
<!-- Node1&#45;&gt;Node8 -->
<g id="edge8" class="edge">
<title>Node1&#45;&gt;Node8</title>
<path fill="none" stroke="midnightblue" d="M733.57,-145.01C714.93,-155.33 688.54,-168.85 664,-177.5 653.41,-181.23 641.83,-184.38 630.68,-186.97"/>
<polygon fill="midnightblue" stroke="midnightblue" points="735.31,-148.05 742.31,-140.09 731.88,-141.95 735.31,-148.05"/>
</g>
<!-- Node9 -->
<g id="node9" class="node">
<title>Node9</title>
<g id="a_node9"><a xlink:href="classUQuadDroneController.html#a3579fab5efc89478ef45237815734b4b" target="_top" xlink:title=" ">
<polygon fill="white" stroke="black" points="513,-0.5 513,-30.5 640,-30.5 640,-0.5 513,-0.5"/>
<text text-anchor="start" x="521" y="-18.5" font-family="Helvetica,sans-Serif" font-size="10.00">UQuadDroneController</text>
<text text-anchor="middle" x="576.5" y="-7.5" font-family="Helvetica,sans-Serif" font-size="10.00">::Initialize</text>
</a>
</g>
</g>
<!-- Node1&#45;&gt;Node9 -->
<g id="edge11" class="edge">
<title>Node1&#45;&gt;Node9</title>
<path fill="none" stroke="midnightblue" d="M744.98,-113C728.18,-92.42 697.58,-58.66 664,-39.5 656.69,-35.33 648.62,-31.85 640.42,-28.96"/>
<polygon fill="midnightblue" stroke="midnightblue" points="742.34,-115.29 751.31,-120.93 747.81,-110.93 742.34,-115.29"/>
</g>
<!-- Node3&#45;&gt;Node4 -->
<g id="edge3" class="edge">
<title>Node3&#45;&gt;Node4</title>
<path fill="none" stroke="midnightblue" d="M502.57,-143.87C485.94,-141.91 468.42,-139.83 452.26,-137.92"/>
<polygon fill="midnightblue" stroke="midnightblue" points="502.45,-147.38 512.79,-145.08 503.27,-140.43 502.45,-147.38"/>
</g>
<!-- Node5 -->
<g id="node5" class="node">
<title>Node5</title>
<g id="a_node5"><a xlink:href="classAQuadPawn.html#aaf5f515b74f9316e932e4e1ccf9878ba" target="_top" xlink:title=" ">
<polygon fill="white" stroke="black" points="137,-121 137,-140 288,-140 288,-121 137,-121"/>
<text text-anchor="middle" x="212.5" y="-128" font-family="Helvetica,sans-Serif" font-size="10.00">AQuadPawn::UpdateControl</text>
</a>
</g>
</g>
<!-- Node4&#45;&gt;Node5 -->
<g id="edge4" class="edge">
<title>Node4&#45;&gt;Node5</title>
<path fill="none" stroke="midnightblue" d="M314.53,-130.5C305.78,-130.5 296.85,-130.5 288.08,-130.5"/>
<polygon fill="midnightblue" stroke="midnightblue" points="314.68,-134 324.68,-130.5 314.68,-127 314.68,-134"/>
</g>
<!-- Node6 -->
<g id="node6" class="node">
<title>Node6</title>
<g id="a_node6"><a xlink:href="classAQuadPawn.html#abddecbb307ce019d37ecf4b3dfcecad3" target="_top" xlink:title=" ">
<polygon fill="white" stroke="black" points="0,-121 0,-140 101,-140 101,-121 0,-121"/>
<text text-anchor="middle" x="50.5" y="-128" font-family="Helvetica,sans-Serif" font-size="10.00">AQuadPawn::Tick</text>
</a>
</g>
</g>
<!-- Node5&#45;&gt;Node6 -->
<g id="edge5" class="edge">
<title>Node5&#45;&gt;Node6</title>
<path fill="none" stroke="midnightblue" d="M126.48,-130.5C117.83,-130.5 109.26,-130.5 101.17,-130.5"/>
<polygon fill="midnightblue" stroke="midnightblue" points="126.65,-134 136.65,-130.5 126.65,-127 126.65,-134"/>
</g>
<!-- Node7&#45;&gt;Node4 -->
<g id="edge7" class="edge">
<title>Node7&#45;&gt;Node4</title>
<path fill="none" stroke="midnightblue" d="M522.01,-82.93C511.08,-86.73 499.66,-90.72 489,-94.5 469.78,-101.31 448.52,-108.98 430.6,-115.49"/>
<polygon fill="midnightblue" stroke="midnightblue" points="523.16,-86.23 531.46,-79.65 520.86,-79.62 523.16,-86.23"/>
</g>
<!-- Node8&#45;&gt;Node2 -->
<g id="edge9" class="edge">
<title>Node8&#45;&gt;Node2</title>
<path fill="none" stroke="midnightblue" d="M478.65,-206.39C469.69,-207.31 460.78,-208.22 452.25,-209.09"/>
<polygon fill="midnightblue" stroke="midnightblue" points="479.17,-209.86 488.76,-205.36 478.46,-202.89 479.17,-209.86"/>
</g>
<!-- Node8&#45;&gt;Node4 -->
<g id="edge10" class="edge">
<title>Node8&#45;&gt;Node4</title>
<path fill="none" stroke="midnightblue" d="M512.96,-184.52C504.82,-182.45 496.66,-180.11 489,-177.5 463.87,-168.93 436.69,-155.81 417.1,-145.61"/>
<polygon fill="midnightblue" stroke="midnightblue" points="512.29,-187.96 522.83,-186.92 513.94,-181.16 512.29,-187.96"/>
</g>
<!-- Node10 -->
<g id="node10" class="node">
<title>Node10</title>
<g id="a_node10"><a xlink:href="classAQuadPawn.html#a416797652d3e15491d60ee2f3452232c" target="_top" xlink:title=" ">
<polygon fill="white" stroke="black" points="324,-6 324,-25 453,-25 453,-6 324,-6"/>
<text text-anchor="middle" x="388.5" y="-13" font-family="Helvetica,sans-Serif" font-size="10.00">AQuadPawn::BeginPlay</text>
</a>
</g>
</g>
<!-- Node9&#45;&gt;Node10 -->
<g id="edge12" class="edge">
<title>Node9&#45;&gt;Node10</title>
<path fill="none" stroke="midnightblue" d="M502.74,-15.5C486.39,-15.5 469.16,-15.5 453.21,-15.5"/>
<polygon fill="midnightblue" stroke="midnightblue" points="502.79,-19 512.79,-15.5 502.79,-12 502.79,-19"/>
</g>
</g>
</svg>
