<?xml version="1.0" encoding="UTF-8" standalone="no"?>
<!DOCTYPE svg PUBLIC "-//W3C//DTD SVG 1.1//EN"
 "http://www.w3.org/Graphics/SVG/1.1/DTD/svg11.dtd">
<!-- Generated by graphviz version 2.43.0 (0)
 -->
<!-- Title: UQuadDroneController Pages: 1 -->
<svg width="722pt" height="306pt"
 viewBox="0.00 0.00 721.50 306.00" xmlns="http://www.w3.org/2000/svg" xmlns:xlink="http://www.w3.org/1999/xlink">
<g id="graph0" class="graph" transform="scale(1 1) rotate(0) translate(4 302)">
<title>UQuadDroneController</title>
<polygon fill="white" stroke="transparent" points="-4,4 -4,-302 717.5,-302 717.5,4 -4,4"/>
<!-- Node1 -->
<g id="node1" class="node">
<title>Node1</title>
<g id="a_node1"><a xlink:title=" ">
<polygon fill="#bfbfbf" stroke="black" points="383,-67.5 383,-86.5 510,-86.5 510,-67.5 383,-67.5"/>
<text text-anchor="middle" x="446.5" y="-74.5" font-family="Helvetica,sans-Serif" font-size="10.00">UQuadDroneController</text>
</a>
</g>
</g>
<!-- Node4 -->
<g id="node4" class="node">
<title>Node4</title>
<g id="a_node4"><a xlink:href="classAQuadPawn.html" target="_top" xlink:title=" ">
<polygon fill="white" stroke="black" points="184.5,-0.5 184.5,-19.5 258.5,-19.5 258.5,-0.5 184.5,-0.5"/>
<text text-anchor="middle" x="221.5" y="-7.5" font-family="Helvetica,sans-Serif" font-size="10.00">AQuadPawn</text>
</a>
</g>
</g>
<!-- Node1&#45;&gt;Node4 -->
<g id="edge8" class="edge">
<title>Node1&#45;&gt;Node4</title>
<path fill="none" stroke="#9a32cd" stroke-dasharray="5,2" d="M393.61,-65.03C377.24,-60.87 359.35,-55.53 343.5,-49 334.48,-45.29 333.52,-41.71 324.5,-38 303.3,-29.27 278.48,-22.67 258.51,-18.17"/>
<polygon fill="#9a32cd" stroke="#9a32cd" points="393.02,-68.49 403.57,-67.46 394.68,-61.69 393.02,-68.49"/>
<text text-anchor="middle" x="382" y="-41" font-family="Helvetica,sans-Serif" font-size="10.00"> QuadController</text>
</g>
<!-- Node2 -->
<g id="node2" class="node">
<title>Node2</title>
<g id="a_node2"><a xlink:title=" ">
<polygon fill="white" stroke="#bfbfbf" points="298.5,-134.5 298.5,-153.5 354.5,-153.5 354.5,-134.5 298.5,-134.5"/>
<text text-anchor="middle" x="326.5" y="-141.5" font-family="Helvetica,sans-Serif" font-size="10.00">UObject</text>
</a>
</g>
</g>
<!-- Node2&#45;&gt;Node1 -->
<g id="edge1" class="edge">
<title>Node2&#45;&gt;Node1</title>
<path fill="none" stroke="midnightblue" d="M351.5,-129.46C375.29,-116.57 410.37,-97.57 430.57,-86.63"/>
<polygon fill="midnightblue" stroke="midnightblue" points="349.81,-126.39 342.68,-134.23 353.14,-132.55 349.81,-126.39"/>
</g>
<!-- Node3 -->
<g id="node3" class="node">
<title>Node3</title>
<g id="a_node3"><a xlink:title=" ">
<polygon fill="white" stroke="#bfbfbf" points="372,-134.5 372,-153.5 521,-153.5 521,-134.5 372,-134.5"/>
<text text-anchor="middle" x="446.5" y="-141.5" font-family="Helvetica,sans-Serif" font-size="10.00">IROSFlightControllerSource</text>
</a>
</g>
</g>
<!-- Node3&#45;&gt;Node1 -->
<g id="edge2" class="edge">
<title>Node3&#45;&gt;Node1</title>
<path fill="none" stroke="midnightblue" d="M446.5,-124.04C446.5,-111.67 446.5,-96.12 446.5,-86.63"/>
<polygon fill="midnightblue" stroke="midnightblue" points="443,-124.23 446.5,-134.23 450,-124.23 443,-124.23"/>
</g>
<!-- Node4&#45;&gt;Node1 -->
<g id="edge3" class="edge">
<title>Node4&#45;&gt;Node1</title>
<path fill="none" stroke="#9a32cd" stroke-dasharray="5,2" d="M269.1,-12.54C320.96,-15.04 399.82,-21.51 424.5,-38 434.89,-44.95 441,-58.59 444.05,-67.5"/>
<polygon fill="#9a32cd" stroke="#9a32cd" points="268.94,-9.03 258.8,-12.08 268.63,-16.02 268.94,-9.03"/>
<text text-anchor="middle" x="463" y="-41" font-family="Helvetica,sans-Serif" font-size="10.00"> dronePawn</text>
</g>
<!-- Node5 -->
<g id="node5" class="node">
<title>Node5</title>
<g id="a_node5"><a xlink:title=" ">
<polygon fill="white" stroke="#bfbfbf" points="0,-67.5 0,-86.5 49,-86.5 49,-67.5 0,-67.5"/>
<text text-anchor="middle" x="24.5" y="-74.5" font-family="Helvetica,sans-Serif" font-size="10.00">APawn</text>
</a>
</g>
</g>
<!-- Node5&#45;&gt;Node4 -->
<g id="edge4" class="edge">
<title>Node5&#45;&gt;Node4</title>
<path fill="none" stroke="midnightblue" d="M54.74,-63.68C74.44,-55.86 100.8,-45.78 124.5,-38 145.26,-31.18 168.87,-24.59 187.6,-19.62"/>
<polygon fill="midnightblue" stroke="midnightblue" points="53.35,-60.46 45.37,-67.43 55.95,-66.96 53.35,-60.46"/>
</g>
<!-- Node6 -->
<g id="node6" class="node">
<title>Node6</title>
<g id="a_node6"><a xlink:href="structFGamepadInputs.html" target="_top" xlink:title=" ">
<polygon fill="white" stroke="black" points="67.5,-67.5 67.5,-86.5 167.5,-86.5 167.5,-67.5 67.5,-67.5"/>
<text text-anchor="middle" x="117.5" y="-74.5" font-family="Helvetica,sans-Serif" font-size="10.00">FGamepadInputs</text>
</a>
</g>
</g>
<!-- Node6&#45;&gt;Node4 -->
<g id="edge5" class="edge">
<title>Node6&#45;&gt;Node4</title>
<path fill="none" stroke="#9a32cd" stroke-dasharray="5,2" d="M123.18,-57.68C126.16,-50.68 130.47,-43.15 136.5,-38 149.92,-26.53 168.24,-19.92 184.44,-16.12"/>
<polygon fill="#9a32cd" stroke="#9a32cd" points="119.84,-56.62 119.73,-67.21 126.42,-59 119.84,-56.62"/>
<text text-anchor="middle" x="177" y="-41" font-family="Helvetica,sans-Serif" font-size="10.00"> GamepadInputs</text>
</g>
<!-- Node7 -->
<g id="node7" class="node">
<title>Node7</title>
<g id="a_node7"><a xlink:href="classUQuadHUDWidget.html" target="_top" xlink:title=" ">
<polygon fill="white" stroke="black" points="186,-67.5 186,-86.5 293,-86.5 293,-67.5 186,-67.5"/>
<text text-anchor="middle" x="239.5" y="-74.5" font-family="Helvetica,sans-Serif" font-size="10.00">UQuadHUDWidget</text>
</a>
</g>
</g>
<!-- Node7&#45;&gt;Node4 -->
<g id="edge6" class="edge">
<title>Node7&#45;&gt;Node4</title>
<path fill="none" stroke="#9a32cd" stroke-dasharray="5,2" d="M226.72,-58.65C225.01,-55.57 223.5,-52.29 222.5,-49 219.55,-39.27 219.79,-27.5 220.45,-19.66"/>
<polygon fill="#9a32cd" stroke="#9a32cd" points="223.82,-60.61 232.19,-67.11 229.7,-56.81 223.82,-60.61"/>
<text text-anchor="middle" x="273.5" y="-41" font-family="Helvetica,sans-Serif" font-size="10.00"> HUDWidgetInstance</text>
</g>
<!-- Node8 -->
<g id="node8" class="node">
<title>Node8</title>
<g id="a_node8"><a xlink:title=" ">
<polygon fill="white" stroke="#bfbfbf" points="199,-134.5 199,-153.5 280,-153.5 280,-134.5 199,-134.5"/>
<text text-anchor="middle" x="239.5" y="-141.5" font-family="Helvetica,sans-Serif" font-size="10.00">UUserWidget</text>
</a>
</g>
</g>
<!-- Node8&#45;&gt;Node7 -->
<g id="edge7" class="edge">
<title>Node8&#45;&gt;Node7</title>
<path fill="none" stroke="midnightblue" d="M239.5,-124.04C239.5,-111.67 239.5,-96.12 239.5,-86.63"/>
<polygon fill="midnightblue" stroke="midnightblue" points="236,-124.23 239.5,-134.23 243,-124.23 236,-124.23"/>
</g>
<!-- Node9 -->
<g id="node9" class="node">
<title>Node9</title>
<g id="a_node9"><a xlink:href="classQuadPIDController.html" target="_top" xlink:title=" ">
<polygon fill="white" stroke="black" points="519,-278.5 519,-297.5 626,-297.5 626,-278.5 519,-278.5"/>
<text text-anchor="middle" x="572.5" y="-285.5" font-family="Helvetica,sans-Serif" font-size="10.00">QuadPIDController</text>
</a>
</g>
</g>
<!-- Node9&#45;&gt;Node1 -->
<g id="edge9" class="edge">
<title>Node9&#45;&gt;Node1</title>
<path fill="none" stroke="#9a32cd" stroke-dasharray="5,2" d="M571.32,-267.93C568.57,-237.07 559.44,-175.45 529.5,-134 513.42,-111.74 485.57,-95.62 466.61,-86.55"/>
<polygon fill="#9a32cd" stroke="#9a32cd" points="567.85,-268.44 572.1,-278.15 574.83,-267.91 567.85,-268.44"/>
<text text-anchor="middle" x="569.5" y="-141.5" font-family="Helvetica,sans-Serif" font-size="10.00"> AltitudePID</text>
</g>
<!-- Node10 -->
<g id="node10" class="node">
<title>Node10</title>
<g id="a_node10"><a xlink:href="structFFullPIDSet.html" target="_top" xlink:title=" ">
<polygon fill="white" stroke="black" points="632.5,-134.5 632.5,-153.5 704.5,-153.5 704.5,-134.5 632.5,-134.5"/>
<text text-anchor="middle" x="668.5" y="-141.5" font-family="Helvetica,sans-Serif" font-size="10.00">FFullPIDSet</text>
</a>
</g>
</g>
<!-- Node9&#45;&gt;Node10 -->
<g id="edge11" class="edge">
<title>Node9&#45;&gt;Node10</title>
<path fill="none" stroke="#9a32cd" stroke-dasharray="5,2" d="M584.18,-269.72C604.9,-239.08 647.33,-176.32 662.74,-153.52"/>
<polygon fill="#9a32cd" stroke="#9a32cd" points="581.21,-267.87 578.51,-278.12 587.01,-271.79 581.21,-267.87"/>
<text text-anchor="middle" x="681.5" y="-252" font-family="Helvetica,sans-Serif" font-size="10.00"> PitchPID</text>
<text text-anchor="middle" x="681.5" y="-241" font-family="Helvetica,sans-Serif" font-size="10.00">PitchRatePID</text>
<text text-anchor="middle" x="681.5" y="-230" font-family="Helvetica,sans-Serif" font-size="10.00">RollPID</text>
<text text-anchor="middle" x="681.5" y="-219" font-family="Helvetica,sans-Serif" font-size="10.00">RollRatePID</text>
<text text-anchor="middle" x="681.5" y="-208" font-family="Helvetica,sans-Serif" font-size="10.00">XPID</text>
<text text-anchor="middle" x="681.5" y="-197" font-family="Helvetica,sans-Serif" font-size="10.00">YPID</text>
<text text-anchor="middle" x="681.5" y="-186" font-family="Helvetica,sans-Serif" font-size="10.00">YawRatePID</text>
<text text-anchor="middle" x="681.5" y="-175" font-family="Helvetica,sans-Serif" font-size="10.00">ZPID</text>
</g>
<!-- Node10&#45;&gt;Node1 -->
<g id="edge10" class="edge">
<title>Node10&#45;&gt;Node1</title>
<path fill="none" stroke="#9a32cd" stroke-dasharray="5,2" d="M639.5,-130.38C620.21,-122.33 594.16,-112.12 570.5,-105 545.6,-97.51 517.31,-91.19 494.05,-86.55"/>
<polygon fill="#9a32cd" stroke="#9a32cd" points="638.35,-133.7 648.92,-134.37 641.07,-127.25 638.35,-133.7"/>
<text text-anchor="middle" x="618.5" y="-108" font-family="Helvetica,sans-Serif" font-size="10.00"> PIDSet</text>
</g>
</g>
</svg>
