<?xml version="1.0" encoding="UTF-8" standalone="no"?>
<!DOCTYPE svg PUBLIC "-//W3C//DTD SVG 1.1//EN"
 "http://www.w3.org/Graphics/SVG/1.1/DTD/svg11.dtd">
<!-- Generated by graphviz version 2.43.0 (0)
 -->
<!-- Title: DroneMathUtils::CalculateDesiredVelocity Pages: 1 -->
<svg width="803pt" height="88pt"
 viewBox="0.00 0.00 803.00 88.00" xmlns="http://www.w3.org/2000/svg" xmlns:xlink="http://www.w3.org/1999/xlink">
<g id="graph0" class="graph" transform="scale(1 1) rotate(0) translate(4 84)">
<title>DroneMathUtils::CalculateDesiredVelocity</title>
<polygon fill="white" stroke="transparent" points="-4,4 -4,-84 799,-84 799,4 -4,4"/>
<!-- Node1 -->
<g id="node1" class="node">
<title>Node1</title>
<g id="a_node1"><a xlink:title=" ">
<polygon fill="#bfbfbf" stroke="black" points="650,-24.5 650,-54.5 795,-54.5 795,-24.5 650,-24.5"/>
<text text-anchor="start" x="658" y="-42.5" font-family="Helvetica,sans-Serif" font-size="10.00">DroneMathUtils::Calculate</text>
<text text-anchor="middle" x="722.5" y="-31.5" font-family="Helvetica,sans-Serif" font-size="10.00">DesiredVelocity</text>
</a>
</g>
</g>
<!-- Node2 -->
<g id="node2" class="node">
<title>Node2</title>
<g id="a_node2"><a xlink:href="classUQuadDroneController.html#ae6cbf9660219d61d1f6efc91bc0244ba" target="_top" xlink:title=" ">
<polygon fill="white" stroke="black" points="487,-49.5 487,-79.5 614,-79.5 614,-49.5 487,-49.5"/>
<text text-anchor="start" x="495" y="-67.5" font-family="Helvetica,sans-Serif" font-size="10.00">UQuadDroneController</text>
<text text-anchor="middle" x="550.5" y="-56.5" font-family="Helvetica,sans-Serif" font-size="10.00">::dynamicController</text>
</a>
</g>
</g>
<!-- Node1&#45;&gt;Node2 -->
<g id="edge1" class="edge">
<title>Node1&#45;&gt;Node2</title>
<path fill="none" stroke="midnightblue" d="M639.8,-51.51C631.17,-52.78 622.49,-54.06 614.12,-55.29"/>
<polygon fill="midnightblue" stroke="midnightblue" points="640.51,-54.95 649.9,-50.03 639.49,-48.02 640.51,-54.95"/>
</g>
<!-- Node3 -->
<g id="node3" class="node">
<title>Node3</title>
<g id="a_node3"><a xlink:href="classUQuadDroneController.html#a515f29c2d36616543fd6eb95d9e930e0" target="_top" xlink:title=" ">
<polygon fill="white" stroke="black" points="487,-0.5 487,-30.5 614,-30.5 614,-0.5 487,-0.5"/>
<text text-anchor="start" x="495" y="-18.5" font-family="Helvetica,sans-Serif" font-size="10.00">UQuadDroneController</text>
<text text-anchor="middle" x="550.5" y="-7.5" font-family="Helvetica,sans-Serif" font-size="10.00">::FlightController</text>
</a>
</g>
</g>
<!-- Node1&#45;&gt;Node3 -->
<g id="edge2" class="edge">
<title>Node1&#45;&gt;Node3</title>
<path fill="none" stroke="midnightblue" d="M639.8,-27.97C631.17,-26.75 622.49,-25.52 614.12,-24.34"/>
<polygon fill="midnightblue" stroke="midnightblue" points="639.51,-31.46 649.9,-29.39 640.48,-24.53 639.51,-31.46"/>
</g>
<!-- Node4 -->
<g id="node4" class="node">
<title>Node4</title>
<g id="a_node4"><a xlink:href="classUQuadDroneController.html#aeacce81326aab408e9f95553fb3ae2bc" target="_top" xlink:title=" ">
<polygon fill="white" stroke="black" points="324,-0.5 324,-30.5 451,-30.5 451,-0.5 324,-0.5"/>
<text text-anchor="start" x="332" y="-18.5" font-family="Helvetica,sans-Serif" font-size="10.00">UQuadDroneController</text>
<text text-anchor="middle" x="387.5" y="-7.5" font-family="Helvetica,sans-Serif" font-size="10.00">::Update</text>
</a>
</g>
</g>
<!-- Node3&#45;&gt;Node4 -->
<g id="edge3" class="edge">
<title>Node3&#45;&gt;Node4</title>
<path fill="none" stroke="midnightblue" d="M476.78,-15.5C468.19,-15.5 459.47,-15.5 451.04,-15.5"/>
<polygon fill="midnightblue" stroke="midnightblue" points="476.79,-19 486.79,-15.5 476.79,-12 476.79,-19"/>
</g>
<!-- Node5 -->
<g id="node5" class="node">
<title>Node5</title>
<g id="a_node5"><a xlink:href="classAQuadPawn.html#aaf5f515b74f9316e932e4e1ccf9878ba" target="_top" xlink:title=" ">
<polygon fill="white" stroke="black" points="137,-6 137,-25 288,-25 288,-6 137,-6"/>
<text text-anchor="middle" x="212.5" y="-13" font-family="Helvetica,sans-Serif" font-size="10.00">AQuadPawn::UpdateControl</text>
</a>
</g>
</g>
<!-- Node4&#45;&gt;Node5 -->
<g id="edge4" class="edge">
<title>Node4&#45;&gt;Node5</title>
<path fill="none" stroke="midnightblue" d="M313.45,-15.5C305.09,-15.5 296.55,-15.5 288.16,-15.5"/>
<polygon fill="midnightblue" stroke="midnightblue" points="313.55,-19 323.55,-15.5 313.55,-12 313.55,-19"/>
</g>
<!-- Node6 -->
<g id="node6" class="node">
<title>Node6</title>
<g id="a_node6"><a xlink:href="classAQuadPawn.html#abddecbb307ce019d37ecf4b3dfcecad3" target="_top" xlink:title=" ">
<polygon fill="white" stroke="black" points="0,-6 0,-25 101,-25 101,-6 0,-6"/>
<text text-anchor="middle" x="50.5" y="-13" font-family="Helvetica,sans-Serif" font-size="10.00">AQuadPawn::Tick</text>
</a>
</g>
</g>
<!-- Node5&#45;&gt;Node6 -->
<g id="edge5" class="edge">
<title>Node5&#45;&gt;Node6</title>
<path fill="none" stroke="midnightblue" d="M126.48,-15.5C117.83,-15.5 109.26,-15.5 101.17,-15.5"/>
<polygon fill="midnightblue" stroke="midnightblue" points="126.65,-19 136.65,-15.5 126.65,-12 126.65,-19"/>
</g>
</g>
</svg>
