<?xml version="1.0" encoding="UTF-8" standalone="no"?>
<!DOCTYPE svg PUBLIC "-//W3C//DTD SVG 1.1//EN"
 "http://www.w3.org/Graphics/SVG/1.1/DTD/svg11.dtd">
<!-- Generated by graphviz version 2.43.0 (0)
 -->
<!-- Title: AObstacleManager::VisualizeSpawnBoundaries Pages: 1 -->
<svg width="772pt" height="78pt"
 viewBox="0.00 0.00 772.00 77.50" xmlns="http://www.w3.org/2000/svg" xmlns:xlink="http://www.w3.org/1999/xlink">
<g id="graph0" class="graph" transform="scale(1 1) rotate(0) translate(4 73.5)">
<title>AObstacleManager::VisualizeSpawnBoundaries</title>
<polygon fill="white" stroke="transparent" points="-4,4 -4,-73.5 768,-73.5 768,4 -4,4"/>
<!-- Node1 -->
<g id="node1" class="node">
<title>Node1</title>
<g id="a_node1"><a xlink:title=" ">
<polygon fill="#bfbfbf" stroke="black" points="605,-22.5 605,-52.5 764,-52.5 764,-22.5 605,-22.5"/>
<text text-anchor="start" x="613" y="-40.5" font-family="Helvetica,sans-Serif" font-size="10.00">AObstacleManager::Visualize</text>
<text text-anchor="middle" x="684.5" y="-29.5" font-family="Helvetica,sans-Serif" font-size="10.00">SpawnBoundaries</text>
</a>
</g>
</g>
<!-- Node2 -->
<g id="node2" class="node">
<title>Node2</title>
<g id="a_node2"><a xlink:href="classAObstacleManager.html#a70b1ee6056da82b4289535ad69ec1b67" target="_top" xlink:title=" ">
<polygon fill="white" stroke="black" points="405,-50 405,-69 569,-69 569,-50 405,-50"/>
<text text-anchor="middle" x="487" y="-57" font-family="Helvetica,sans-Serif" font-size="10.00">AObstacleManager::BeginPlay</text>
</a>
</g>
</g>
<!-- Node1&#45;&gt;Node2 -->
<g id="edge1" class="edge">
<title>Node1&#45;&gt;Node2</title>
<path fill="none" stroke="midnightblue" d="M594.82,-47.48C586.24,-48.45 577.56,-49.42 569.06,-50.38"/>
<polygon fill="midnightblue" stroke="midnightblue" points="595.28,-50.95 604.83,-46.35 594.5,-43.99 595.28,-50.95"/>
</g>
<!-- Node3 -->
<g id="node3" class="node">
<title>Node3</title>
<g id="a_node3"><a xlink:href="classAObstacleManager.html#adeb6b0b2beed769a6b8bbae69bc00849" target="_top" xlink:title=" ">
<polygon fill="white" stroke="black" points="413.5,-0.5 413.5,-30.5 560.5,-30.5 560.5,-0.5 413.5,-0.5"/>
<text text-anchor="start" x="421.5" y="-18.5" font-family="Helvetica,sans-Serif" font-size="10.00">AObstacleManager::Create</text>
<text text-anchor="middle" x="487" y="-7.5" font-family="Helvetica,sans-Serif" font-size="10.00">Obstacles</text>
</a>
</g>
</g>
<!-- Node1&#45;&gt;Node3 -->
<g id="edge2" class="edge">
<title>Node1&#45;&gt;Node3</title>
<path fill="none" stroke="midnightblue" d="M594.8,-27.52C583.32,-26.23 571.68,-24.92 560.5,-23.66"/>
<polygon fill="midnightblue" stroke="midnightblue" points="594.5,-31.01 604.83,-28.65 595.28,-24.05 594.5,-31.01"/>
</g>
<!-- Node4 -->
<g id="node4" class="node">
<title>Node4</title>
<g id="a_node4"><a xlink:href="classAROS2Controller.html#a938fc4b3971ecf3a68b2fff93d2d9e2f" target="_top" xlink:title=" ">
<polygon fill="white" stroke="black" points="188,-0.5 188,-30.5 369,-30.5 369,-0.5 188,-0.5"/>
<text text-anchor="start" x="196" y="-18.5" font-family="Helvetica,sans-Serif" font-size="10.00">AROS2Controller::HandleObstacle</text>
<text text-anchor="middle" x="278.5" y="-7.5" font-family="Helvetica,sans-Serif" font-size="10.00">Message</text>
</a>
</g>
</g>
<!-- Node3&#45;&gt;Node4 -->
<g id="edge3" class="edge">
<title>Node3&#45;&gt;Node4</title>
<path fill="none" stroke="midnightblue" d="M403.31,-15.5C392.11,-15.5 380.57,-15.5 369.25,-15.5"/>
<polygon fill="midnightblue" stroke="midnightblue" points="403.49,-19 413.49,-15.5 403.49,-12 403.49,-19"/>
</g>
<!-- Node5 -->
<g id="node5" class="node">
<title>Node5</title>
<g id="a_node5"><a xlink:href="classAROS2Controller.html#a950f5d2c970783f3687246ecde0a6220" target="_top" xlink:title=" ">
<polygon fill="white" stroke="black" points="0,-6 0,-25 152,-25 152,-6 0,-6"/>
<text text-anchor="middle" x="76" y="-13" font-family="Helvetica,sans-Serif" font-size="10.00">AROS2Controller::BeginPlay</text>
</a>
</g>
</g>
<!-- Node4&#45;&gt;Node5 -->
<g id="edge4" class="edge">
<title>Node4&#45;&gt;Node5</title>
<path fill="none" stroke="midnightblue" d="M177.74,-15.5C169.16,-15.5 160.57,-15.5 152.22,-15.5"/>
<polygon fill="midnightblue" stroke="midnightblue" points="177.81,-19 187.81,-15.5 177.81,-12 177.81,-19"/>
</g>
</g>
</svg>
