<?xml version="1.0" encoding="UTF-8" standalone="no"?>
<!DOCTYPE svg PUBLIC "-//W3C//DTD SVG 1.1//EN"
 "http://www.w3.org/Graphics/SVG/1.1/DTD/svg11.dtd">
<!-- Generated by graphviz version 2.43.0 (0)
 -->
<!-- Title: AQuadPawn::SetupPlayerInputComponent Pages: 1 -->
<svg width="980pt" height="305pt"
 viewBox="0.00 0.00 980.00 304.50" xmlns="http://www.w3.org/2000/svg" xmlns:xlink="http://www.w3.org/1999/xlink">
<g id="graph0" class="graph" transform="scale(1 1) rotate(0) translate(4 300.5)">
<title>AQuadPawn::SetupPlayerInputComponent</title>
<polygon fill="white" stroke="transparent" points="-4,4 -4,-300.5 976,-300.5 976,4 -4,4"/>
<!-- Node1 -->
<g id="node1" class="node">
<title>Node1</title>
<g id="a_node1"><a xlink:title=" ">
<polygon fill="#bfbfbf" stroke="black" points="0,-157.5 0,-187.5 164,-187.5 164,-157.5 0,-157.5"/>
<text text-anchor="start" x="8" y="-175.5" font-family="Helvetica,sans-Serif" font-size="10.00">AQuadPawn::SetupPlayerInput</text>
<text text-anchor="middle" x="82" y="-164.5" font-family="Helvetica,sans-Serif" font-size="10.00">Component</text>
</a>
</g>
</g>
<!-- Node2 -->
<g id="node2" class="node">
<title>Node2</title>
<g id="a_node2"><a xlink:href="classAQuadPawn.html#a35d01aeecd8f669fddb6d05e128dd6e2" target="_top" xlink:title=" ">
<polygon fill="white" stroke="black" points="223.5,-277 223.5,-296 362.5,-296 362.5,-277 223.5,-277"/>
<text text-anchor="middle" x="293" y="-284" font-family="Helvetica,sans-Serif" font-size="10.00">AQuadPawn::OnPitchAxis</text>
</a>
</g>
</g>
<!-- Node1&#45;&gt;Node2 -->
<g id="edge1" class="edge">
<title>Node1&#45;&gt;Node2</title>
<path fill="none" stroke="midnightblue" d="M96.9,-187.67C117.34,-208.98 157.68,-247.43 200,-267.5 205.29,-270.01 210.9,-272.18 216.64,-274.08"/>
<polygon fill="midnightblue" stroke="midnightblue" points="215.81,-277.48 226.39,-277 217.82,-270.77 215.81,-277.48"/>
</g>
<!-- Node3 -->
<g id="node3" class="node">
<title>Node3</title>
<g id="a_node3"><a xlink:href="classAQuadPawn.html#ae7eb5ba2c937cdf446baa0aaf1ebb66b" target="_top" xlink:title=" ">
<polygon fill="white" stroke="black" points="226,-239 226,-258 360,-258 360,-239 226,-239"/>
<text text-anchor="middle" x="293" y="-246" font-family="Helvetica,sans-Serif" font-size="10.00">AQuadPawn::OnRollAxis</text>
</a>
</g>
</g>
<!-- Node1&#45;&gt;Node3 -->
<g id="edge2" class="edge">
<title>Node1&#45;&gt;Node3</title>
<path fill="none" stroke="midnightblue" d="M109.14,-187.59C132.34,-200.4 167.49,-218.42 200,-229.5 207.88,-232.19 216.27,-234.55 224.66,-236.63"/>
<polygon fill="midnightblue" stroke="midnightblue" points="223.94,-240.05 234.48,-238.93 225.54,-233.24 223.94,-240.05"/>
</g>
<!-- Node4 -->
<g id="node4" class="node">
<title>Node4</title>
<g id="a_node4"><a xlink:href="classAQuadPawn.html#a2e3a4f8f356e3f62f9e15c1bd8de033a" target="_top" xlink:title=" ">
<polygon fill="white" stroke="black" points="216.5,-201 216.5,-220 369.5,-220 369.5,-201 216.5,-201"/>
<text text-anchor="middle" x="293" y="-208" font-family="Helvetica,sans-Serif" font-size="10.00">AQuadPawn::OnThrottleAxis</text>
</a>
</g>
</g>
<!-- Node1&#45;&gt;Node4 -->
<g id="edge3" class="edge">
<title>Node1&#45;&gt;Node4</title>
<path fill="none" stroke="midnightblue" d="M164.1,-187.25C185.9,-191.21 209.12,-195.43 229.71,-199.18"/>
<polygon fill="midnightblue" stroke="midnightblue" points="229.13,-202.63 239.59,-200.97 230.38,-195.74 229.13,-202.63"/>
</g>
<!-- Node5 -->
<g id="node5" class="node">
<title>Node5</title>
<g id="a_node5"><a xlink:href="classAQuadPawn.html#aa0d0442013f5e55cb17e04b516ab7dbf" target="_top" xlink:title=" ">
<polygon fill="white" stroke="black" points="226,-163 226,-182 360,-182 360,-163 226,-163"/>
<text text-anchor="middle" x="293" y="-170" font-family="Helvetica,sans-Serif" font-size="10.00">AQuadPawn::OnYawAxis</text>
</a>
</g>
</g>
<!-- Node1&#45;&gt;Node5 -->
<g id="edge4" class="edge">
<title>Node1&#45;&gt;Node5</title>
<path fill="none" stroke="midnightblue" d="M164.1,-172.5C181.02,-172.5 198.79,-172.5 215.53,-172.5"/>
<polygon fill="midnightblue" stroke="midnightblue" points="215.8,-176 225.8,-172.5 215.8,-169 215.8,-176"/>
</g>
<!-- Node6 -->
<g id="node6" class="node">
<title>Node6</title>
<g id="a_node6"><a xlink:href="classAQuadPawn.html#aed6fabac53fca6df53b2a324232bec5a" target="_top" xlink:title=" ">
<polygon fill="white" stroke="black" points="208.5,-125 208.5,-144 377.5,-144 377.5,-125 208.5,-125"/>
<text text-anchor="middle" x="293" y="-132" font-family="Helvetica,sans-Serif" font-size="10.00">AQuadPawn::ReloadJSONConfig</text>
</a>
</g>
</g>
<!-- Node1&#45;&gt;Node6 -->
<g id="edge5" class="edge">
<title>Node1&#45;&gt;Node6</title>
<path fill="none" stroke="midnightblue" d="M164.1,-157.75C185.9,-153.79 209.12,-149.57 229.71,-145.82"/>
<polygon fill="midnightblue" stroke="midnightblue" points="230.38,-149.26 239.59,-144.03 229.13,-142.37 230.38,-149.26"/>
</g>
<!-- Node11 -->
<g id="node11" class="node">
<title>Node11</title>
<g id="a_node11"><a xlink:href="classAQuadPawn.html#af8af5c468ed301475f627e3169c996b8" target="_top" xlink:title=" ">
<polygon fill="white" stroke="black" points="200,-82 200,-101 386,-101 386,-82 200,-82"/>
<text text-anchor="middle" x="293" y="-89" font-family="Helvetica,sans-Serif" font-size="10.00">AQuadPawn::ToggleGamepadMode</text>
</a>
</g>
</g>
<!-- Node1&#45;&gt;Node11 -->
<g id="edge10" class="edge">
<title>Node1&#45;&gt;Node11</title>
<path fill="none" stroke="midnightblue" d="M110.22,-157.32C133.51,-144.81 168.21,-127.26 200,-115.5 212.09,-111.03 225.37,-107.05 237.99,-103.68"/>
<polygon fill="midnightblue" stroke="midnightblue" points="239.12,-107 247.93,-101.11 237.37,-100.23 239.12,-107"/>
</g>
<!-- Node16 -->
<g id="node16" class="node">
<title>Node16</title>
<g id="a_node16"><a xlink:href="classAQuadPawn.html#a93ed518047650ca1f06a1363ee17b75f" target="_top" xlink:title=" ">
<polygon fill="white" stroke="black" points="211,-44 211,-63 375,-63 375,-44 211,-44"/>
<text text-anchor="middle" x="293" y="-51" font-family="Helvetica,sans-Serif" font-size="10.00">AQuadPawn::ToggleImguiInput</text>
</a>
</g>
</g>
<!-- Node1&#45;&gt;Node16 -->
<g id="edge15" class="edge">
<title>Node1&#45;&gt;Node16</title>
<path fill="none" stroke="midnightblue" d="M96.06,-157.26C116.06,-134.95 156.57,-93.77 200,-72.5 204.94,-70.08 210.18,-67.97 215.55,-66.12"/>
<polygon fill="midnightblue" stroke="midnightblue" points="216.82,-69.39 225.33,-63.08 214.74,-62.71 216.82,-69.39"/>
</g>
<!-- Node7 -->
<g id="node7" class="node">
<title>Node7</title>
<g id="a_node7"><a xlink:href="classUDroneJSONConfig.html#a65784f801237abe5504e9b188adff687" target="_top" xlink:title=" ">
<polygon fill="white" stroke="black" points="430.5,-172 430.5,-191 561.5,-191 561.5,-172 430.5,-172"/>
<text text-anchor="middle" x="496" y="-179" font-family="Helvetica,sans-Serif" font-size="10.00">UDroneJSONConfig::Get</text>
</a>
</g>
</g>
<!-- Node6&#45;&gt;Node7 -->
<g id="edge6" class="edge">
<title>Node6&#45;&gt;Node7</title>
<path fill="none" stroke="midnightblue" d="M342.32,-144.03C356.43,-146.93 371.86,-150.23 386,-153.5 392.35,-154.97 421.7,-162.52 448.35,-169.4"/>
<polygon fill="midnightblue" stroke="midnightblue" points="447.81,-172.88 458.37,-172 449.57,-166.11 447.81,-172.88"/>
</g>
<!-- Node8 -->
<g id="node8" class="node">
<title>Node8</title>
<g id="a_node8"><a xlink:href="classUDroneJSONConfig.html#a03bad4b9aa1ece767e6d35ab8110fb4d" target="_top" xlink:title=" ">
<polygon fill="white" stroke="black" points="422,-122.5 422,-152.5 570,-152.5 570,-122.5 422,-122.5"/>
<text text-anchor="start" x="430" y="-140.5" font-family="Helvetica,sans-Serif" font-size="10.00">UDroneJSONConfig::Reload</text>
<text text-anchor="middle" x="496" y="-129.5" font-family="Helvetica,sans-Serif" font-size="10.00">Config</text>
</a>
</g>
</g>
<!-- Node6&#45;&gt;Node8 -->
<g id="edge7" class="edge">
<title>Node6&#45;&gt;Node8</title>
<path fill="none" stroke="midnightblue" d="M377.79,-135.75C389,-135.92 400.5,-136.09 411.71,-136.26"/>
<polygon fill="midnightblue" stroke="midnightblue" points="411.85,-139.76 421.91,-136.41 411.96,-132.76 411.85,-139.76"/>
</g>
<!-- Node9 -->
<g id="node9" class="node">
<title>Node9</title>
<g id="a_node9"><a xlink:href="classUDroneJSONConfig.html#a923277568254babf96e260fd7e2a0337" target="_top" xlink:title=" ">
<polygon fill="white" stroke="black" points="606,-128 606,-147 774,-147 774,-128 606,-128"/>
<text text-anchor="middle" x="690" y="-135" font-family="Helvetica,sans-Serif" font-size="10.00">UDroneJSONConfig::LoadConfig</text>
</a>
</g>
</g>
<!-- Node8&#45;&gt;Node9 -->
<g id="edge8" class="edge">
<title>Node8&#45;&gt;Node9</title>
<path fill="none" stroke="midnightblue" d="M570.13,-137.5C578.51,-137.5 587.14,-137.5 595.73,-137.5"/>
<polygon fill="midnightblue" stroke="midnightblue" points="595.8,-141 605.8,-137.5 595.8,-134 595.8,-141"/>
</g>
<!-- Node10 -->
<g id="node10" class="node">
<title>Node10</title>
<g id="a_node10"><a xlink:href="classUDroneJSONConfig.html#aa905396d71ecb1f4773660e9dcbfd17c" target="_top" xlink:title=" ">
<polygon fill="white" stroke="black" points="810,-122.5 810,-152.5 972,-152.5 972,-122.5 810,-122.5"/>
<text text-anchor="start" x="818" y="-140.5" font-family="Helvetica,sans-Serif" font-size="10.00">UDroneJSONConfig::GetConfig</text>
<text text-anchor="middle" x="891" y="-129.5" font-family="Helvetica,sans-Serif" font-size="10.00">FilePath</text>
</a>
</g>
</g>
<!-- Node9&#45;&gt;Node10 -->
<g id="edge9" class="edge">
<title>Node9&#45;&gt;Node10</title>
<path fill="none" stroke="midnightblue" d="M774.24,-137.5C782.65,-137.5 791.21,-137.5 799.68,-137.5"/>
<polygon fill="midnightblue" stroke="midnightblue" points="799.96,-141 809.96,-137.5 799.96,-134 799.96,-141"/>
</g>
<!-- Node12 -->
<g id="node12" class="node">
<title>Node12</title>
<g id="a_node12"><a xlink:href="classUQuadDroneController.html#af86967f106e571deb2b91c6d45db575f" target="_top" xlink:title=" ">
<polygon fill="white" stroke="black" points="432.5,-73.5 432.5,-103.5 559.5,-103.5 559.5,-73.5 432.5,-73.5"/>
<text text-anchor="start" x="440.5" y="-91.5" font-family="Helvetica,sans-Serif" font-size="10.00">UQuadDroneController</text>
<text text-anchor="middle" x="496" y="-80.5" font-family="Helvetica,sans-Serif" font-size="10.00">::GetFlightMode</text>
</a>
</g>
</g>
<!-- Node11&#45;&gt;Node12 -->
<g id="edge11" class="edge">
<title>Node11&#45;&gt;Node12</title>
<path fill="none" stroke="midnightblue" d="M386.26,-90.12C398.32,-89.94 410.53,-89.76 422.2,-89.59"/>
<polygon fill="midnightblue" stroke="midnightblue" points="422.35,-93.08 432.3,-89.44 422.25,-86.09 422.35,-93.08"/>
</g>
<!-- Node13 -->
<g id="node13" class="node">
<title>Node13</title>
<g id="a_node13"><a xlink:href="classUQuadDroneController.html#abe10155e4aa1c6a77e67347ca91d2fdc" target="_top" xlink:title=" ">
<polygon fill="white" stroke="black" points="432.5,-24.5 432.5,-54.5 559.5,-54.5 559.5,-24.5 432.5,-24.5"/>
<text text-anchor="start" x="440.5" y="-42.5" font-family="Helvetica,sans-Serif" font-size="10.00">UQuadDroneController</text>
<text text-anchor="middle" x="496" y="-31.5" font-family="Helvetica,sans-Serif" font-size="10.00">::SetFlightMode</text>
</a>
</g>
</g>
<!-- Node11&#45;&gt;Node13 -->
<g id="edge12" class="edge">
<title>Node11&#45;&gt;Node13</title>
<path fill="none" stroke="midnightblue" d="M344.32,-81.96C357.91,-79.16 372.56,-75.91 386,-72.5 403.3,-68.1 421.95,-62.7 438.86,-57.56"/>
<polygon fill="midnightblue" stroke="midnightblue" points="440.05,-60.85 448.58,-54.56 437.99,-54.16 440.05,-60.85"/>
</g>
<!-- Node14 -->
<g id="node14" class="node">
<title>Node14</title>
<g id="a_node14"><a xlink:href="classAQuadPawn.html#a08a971a005a8dfe3148b82e659731b1b" target="_top" xlink:title=" ">
<polygon fill="white" stroke="black" points="612.5,-49.5 612.5,-79.5 767.5,-79.5 767.5,-49.5 612.5,-49.5"/>
<text text-anchor="start" x="620.5" y="-67.5" font-family="Helvetica,sans-Serif" font-size="10.00">AQuadPawn::GenerateFigure</text>
<text text-anchor="middle" x="690" y="-56.5" font-family="Helvetica,sans-Serif" font-size="10.00">EightWaypoints</text>
</a>
</g>
</g>
<!-- Node13&#45;&gt;Node14 -->
<g id="edge13" class="edge">
<title>Node13&#45;&gt;Node14</title>
<path fill="none" stroke="midnightblue" d="M559.6,-47.65C573.3,-49.43 588.02,-51.35 602.46,-53.23"/>
<polygon fill="midnightblue" stroke="midnightblue" points="602.03,-56.71 612.4,-54.53 602.93,-49.76 602.03,-56.71"/>
</g>
<!-- Node15 -->
<g id="node15" class="node">
<title>Node15</title>
<g id="a_node15"><a xlink:href="classQuadPIDController.html#aa21a311e6b52f6d72c19468b85c359b3" target="_top" xlink:title=" ">
<polygon fill="white" stroke="black" points="633.5,-0.5 633.5,-30.5 746.5,-30.5 746.5,-0.5 633.5,-0.5"/>
<text text-anchor="start" x="641.5" y="-18.5" font-family="Helvetica,sans-Serif" font-size="10.00">QuadPIDController::</text>
<text text-anchor="middle" x="690" y="-7.5" font-family="Helvetica,sans-Serif" font-size="10.00">Reset</text>
</a>
</g>
</g>
<!-- Node13&#45;&gt;Node15 -->
<g id="edge14" class="edge">
<title>Node13&#45;&gt;Node15</title>
<path fill="none" stroke="midnightblue" d="M559.6,-31.67C580.01,-29.12 602.72,-26.29 623.34,-23.71"/>
<polygon fill="midnightblue" stroke="midnightblue" points="623.79,-27.18 633.28,-22.46 622.92,-20.23 623.79,-27.18"/>
</g>
</g>
</svg>
