<?xml version="1.0" encoding="UTF-8" standalone="no"?>
<!DOCTYPE svg PUBLIC "-//W3C//DTD SVG 1.1//EN"
 "http://www.w3.org/Graphics/SVG/1.1/DTD/svg11.dtd">
<!-- Generated by graphviz version 2.43.0 (0)
 -->
<!-- Title: AQuadPawn::BeginPlay Pages: 1 -->
<svg width="565pt" height="215pt"
 viewBox="0.00 0.00 565.00 214.50" xmlns="http://www.w3.org/2000/svg" xmlns:xlink="http://www.w3.org/1999/xlink">
<g id="graph0" class="graph" transform="scale(1 1) rotate(0) translate(4 210.5)">
<title>AQuadPawn::BeginPlay</title>
<polygon fill="white" stroke="transparent" points="-4,4 -4,-210.5 561,-210.5 561,4 -4,4"/>
<!-- Node1 -->
<g id="node1" class="node">
<title>Node1</title>
<g id="a_node1"><a xlink:title=" ">
<polygon fill="#bfbfbf" stroke="black" points="0,-93.5 0,-112.5 129,-112.5 129,-93.5 0,-93.5"/>
<text text-anchor="middle" x="64.5" y="-100.5" font-family="Helvetica,sans-Serif" font-size="10.00">AQuadPawn::BeginPlay</text>
</a>
</g>
</g>
<!-- Node2 -->
<g id="node2" class="node">
<title>Node2</title>
<g id="a_node2"><a xlink:href="classUQuadDroneController.html#a3579fab5efc89478ef45237815734b4b" target="_top" xlink:title=" ">
<polygon fill="white" stroke="black" points="176.5,-176 176.5,-206 303.5,-206 303.5,-176 176.5,-176"/>
<text text-anchor="start" x="184.5" y="-194" font-family="Helvetica,sans-Serif" font-size="10.00">UQuadDroneController</text>
<text text-anchor="middle" x="240" y="-183" font-family="Helvetica,sans-Serif" font-size="10.00">::Initialize</text>
</a>
</g>
</g>
<!-- Node1&#45;&gt;Node2 -->
<g id="edge1" class="edge">
<title>Node1&#45;&gt;Node2</title>
<path fill="none" stroke="midnightblue" d="M78.43,-112.62C96.88,-125.99 132.15,-150.33 165,-166 169.62,-168.21 174.5,-170.31 179.44,-172.28"/>
<polygon fill="midnightblue" stroke="midnightblue" points="178.4,-175.63 188.99,-175.93 180.9,-169.09 178.4,-175.63"/>
</g>
<!-- Node4 -->
<g id="node4" class="node">
<title>Node4</title>
<g id="a_node4"><a xlink:href="classAQuadPawn.html#a35bc5d31ebef121488abba33484b28b8" target="_top" xlink:title=" ">
<polygon fill="white" stroke="black" points="171.5,-137.5 171.5,-156.5 308.5,-156.5 308.5,-137.5 171.5,-137.5"/>
<text text-anchor="middle" x="240" y="-144.5" font-family="Helvetica,sans-Serif" font-size="10.00">AQuadPawn::OnDroneHit</text>
</a>
</g>
</g>
<!-- Node1&#45;&gt;Node4 -->
<g id="edge3" class="edge">
<title>Node1&#45;&gt;Node4</title>
<path fill="none" stroke="midnightblue" d="M103.15,-112.55C129.07,-119.12 163.7,-127.9 191.52,-134.96"/>
<polygon fill="midnightblue" stroke="midnightblue" points="190.87,-138.41 201.43,-137.47 192.59,-131.62 190.87,-138.41"/>
</g>
<!-- Node5 -->
<g id="node5" class="node">
<title>Node5</title>
<g id="a_node5"><a xlink:href="classAQuadPawn.html#acdb49424f7f7a367df1e95676a2a23ae" target="_top" xlink:title=" ">
<polygon fill="white" stroke="black" points="165,-88 165,-118 315,-118 315,-88 165,-88"/>
<text text-anchor="start" x="173" y="-106" font-family="Helvetica,sans-Serif" font-size="10.00">AQuadPawn::ResetCollision</text>
<text text-anchor="middle" x="240" y="-95" font-family="Helvetica,sans-Serif" font-size="10.00">Status</text>
</a>
</g>
</g>
<!-- Node1&#45;&gt;Node5 -->
<g id="edge4" class="edge">
<title>Node1&#45;&gt;Node5</title>
<path fill="none" stroke="midnightblue" d="M129.12,-103C137.46,-103 146.11,-103 154.73,-103"/>
<polygon fill="midnightblue" stroke="midnightblue" points="154.81,-106.5 164.81,-103 154.81,-99.5 154.81,-106.5"/>
</g>
<!-- Node6 -->
<g id="node6" class="node">
<title>Node6</title>
<g id="a_node6"><a xlink:href="classUQuadDroneController.html#aafeb859afe8b578e40afd30aea2748cb" target="_top" xlink:title=" ">
<polygon fill="white" stroke="black" points="176.5,-39 176.5,-69 303.5,-69 303.5,-39 176.5,-39"/>
<text text-anchor="start" x="184.5" y="-57" font-family="Helvetica,sans-Serif" font-size="10.00">UQuadDroneController</text>
<text text-anchor="middle" x="240" y="-46" font-family="Helvetica,sans-Serif" font-size="10.00">::ResetPID</text>
</a>
</g>
</g>
<!-- Node1&#45;&gt;Node6 -->
<g id="edge5" class="edge">
<title>Node1&#45;&gt;Node6</title>
<path fill="none" stroke="midnightblue" d="M99.36,-93.44C121.14,-87.29 150.1,-79.11 176,-71.79"/>
<polygon fill="midnightblue" stroke="midnightblue" points="177.08,-75.12 185.76,-69.04 175.18,-68.39 177.08,-75.12"/>
</g>
<!-- Node8 -->
<g id="node8" class="node">
<title>Node8</title>
<g id="a_node8"><a xlink:href="classAQuadPawn.html#a1d35d6472a7036da345489dadcbbfab5" target="_top" xlink:title=" ">
<polygon fill="white" stroke="black" points="171,-0.5 171,-19.5 309,-19.5 309,-0.5 171,-0.5"/>
<text text-anchor="middle" x="240" y="-7.5" font-family="Helvetica,sans-Serif" font-size="10.00">AQuadPawn::UpdateHUD</text>
</a>
</g>
</g>
<!-- Node1&#45;&gt;Node8 -->
<g id="edge7" class="edge">
<title>Node1&#45;&gt;Node8</title>
<path fill="none" stroke="midnightblue" d="M75.64,-93.3C92.71,-77.5 128.86,-46.25 165,-29 170.01,-26.61 175.36,-24.49 180.81,-22.62"/>
<polygon fill="midnightblue" stroke="midnightblue" points="182.18,-25.86 190.67,-19.52 180.08,-19.18 182.18,-25.86"/>
</g>
<!-- Node3 -->
<g id="node3" class="node">
<title>Node3</title>
<g id="a_node3"><a xlink:href="classADroneManager.html#a9c3c9b9953ac4f47093c19e72029c41d" target="_top" xlink:title=" ">
<polygon fill="white" stroke="black" points="394.5,-181.5 394.5,-200.5 513.5,-200.5 513.5,-181.5 394.5,-181.5"/>
<text text-anchor="middle" x="454" y="-188.5" font-family="Helvetica,sans-Serif" font-size="10.00">ADroneManager::Get</text>
</a>
</g>
</g>
<!-- Node2&#45;&gt;Node3 -->
<g id="edge2" class="edge">
<title>Node2&#45;&gt;Node3</title>
<path fill="none" stroke="midnightblue" d="M303.75,-191C329.08,-191 358.38,-191 384.29,-191"/>
<polygon fill="midnightblue" stroke="midnightblue" points="384.41,-194.5 394.41,-191 384.41,-187.5 384.41,-194.5"/>
</g>
<!-- Node7 -->
<g id="node7" class="node">
<title>Node7</title>
<g id="a_node7"><a xlink:href="classQuadPIDController.html#aa21a311e6b52f6d72c19468b85c359b3" target="_top" xlink:title=" ">
<polygon fill="white" stroke="black" points="397.5,-39 397.5,-69 510.5,-69 510.5,-39 397.5,-39"/>
<text text-anchor="start" x="405.5" y="-57" font-family="Helvetica,sans-Serif" font-size="10.00">QuadPIDController::</text>
<text text-anchor="middle" x="454" y="-46" font-family="Helvetica,sans-Serif" font-size="10.00">Reset</text>
</a>
</g>
</g>
<!-- Node6&#45;&gt;Node7 -->
<g id="edge6" class="edge">
<title>Node6&#45;&gt;Node7</title>
<path fill="none" stroke="midnightblue" d="M303.75,-54C329.94,-54 360.38,-54 386.92,-54"/>
<polygon fill="midnightblue" stroke="midnightblue" points="387.26,-57.5 397.26,-54 387.26,-50.5 387.26,-57.5"/>
</g>
<!-- Node9 -->
<g id="node9" class="node">
<title>Node9</title>
<g id="a_node9"><a xlink:href="classUQuadHUDWidget.html#a700952af9b5aed0a2196af1c3b94155c" target="_top" xlink:title=" ">
<polygon fill="white" stroke="black" points="351,-0.5 351,-19.5 557,-19.5 557,-0.5 351,-0.5"/>
<text text-anchor="middle" x="454" y="-7.5" font-family="Helvetica,sans-Serif" font-size="10.00">UQuadHUDWidget::UpdateHUDTexture</text>
</a>
</g>
</g>
<!-- Node8&#45;&gt;Node9 -->
<g id="edge8" class="edge">
<title>Node8&#45;&gt;Node9</title>
<path fill="none" stroke="midnightblue" d="M309.25,-10C319.34,-10 329.95,-10 340.65,-10"/>
<polygon fill="midnightblue" stroke="midnightblue" points="340.92,-13.5 350.92,-10 340.92,-6.5 340.92,-13.5"/>
</g>
</g>
</svg>
