<?xml version="1.0" encoding="UTF-8" standalone="no"?>
<!DOCTYPE svg PUBLIC "-//W3C//DTD SVG 1.1//EN"
 "http://www.w3.org/Graphics/SVG/1.1/DTD/svg11.dtd">
<!-- Generated by graphviz version 2.43.0 (0)
 -->
<!-- Title: UDroneJSONConfig::GetConfigFilePath Pages: 1 -->
<svg width="967pt" height="96pt"
 viewBox="0.00 0.00 967.00 95.50" xmlns="http://www.w3.org/2000/svg" xmlns:xlink="http://www.w3.org/1999/xlink">
<g id="graph0" class="graph" transform="scale(1 1) rotate(0) translate(4 91.5)">
<title>UDroneJSONConfig::GetConfigFilePath</title>
<polygon fill="white" stroke="transparent" points="-4,4 -4,-91.5 963,-91.5 963,4 -4,4"/>
<!-- Node1 -->
<g id="node1" class="node">
<title>Node1</title>
<g id="a_node1"><a xlink:title=" ">
<polygon fill="#bfbfbf" stroke="black" points="797,-14 797,-44 959,-44 959,-14 797,-14"/>
<text text-anchor="start" x="805" y="-32" font-family="Helvetica,sans-Serif" font-size="10.00">UDroneJSONConfig::GetConfig</text>
<text text-anchor="middle" x="878" y="-21" font-family="Helvetica,sans-Serif" font-size="10.00">FilePath</text>
</a>
</g>
</g>
<!-- Node2 -->
<g id="node2" class="node">
<title>Node2</title>
<g id="a_node2"><a xlink:href="classUDroneJSONConfig.html#a923277568254babf96e260fd7e2a0337" target="_top" xlink:title=" ">
<polygon fill="white" stroke="black" points="592.5,-38.5 592.5,-57.5 760.5,-57.5 760.5,-38.5 592.5,-38.5"/>
<text text-anchor="middle" x="676.5" y="-45.5" font-family="Helvetica,sans-Serif" font-size="10.00">UDroneJSONConfig::LoadConfig</text>
</a>
</g>
</g>
<!-- Node1&#45;&gt;Node2 -->
<g id="edge1" class="edge">
<title>Node1&#45;&gt;Node2</title>
<path fill="none" stroke="midnightblue" d="M786.59,-37.61C777.92,-38.44 769.15,-39.27 760.55,-40.09"/>
<polygon fill="midnightblue" stroke="midnightblue" points="787.09,-41.08 796.72,-36.65 786.43,-34.11 787.09,-41.08"/>
</g>
<!-- Node7 -->
<g id="node7" class="node">
<title>Node7</title>
<g id="a_node7"><a xlink:href="classUDroneJSONConfig.html#a09017e080c772d8a3a0446738cd0824a" target="_top" xlink:title=" ">
<polygon fill="white" stroke="black" points="592,-0.5 592,-19.5 761,-19.5 761,-0.5 592,-0.5"/>
<text text-anchor="middle" x="676.5" y="-7.5" font-family="Helvetica,sans-Serif" font-size="10.00">UDroneJSONConfig::SaveConfig</text>
</a>
</g>
</g>
<!-- Node1&#45;&gt;Node7 -->
<g id="edge6" class="edge">
<title>Node1&#45;&gt;Node7</title>
<path fill="none" stroke="midnightblue" d="M786.5,-20.38C778.08,-19.58 769.56,-18.77 761.2,-17.97"/>
<polygon fill="midnightblue" stroke="midnightblue" points="786.43,-23.89 796.72,-21.35 787.09,-16.92 786.43,-23.89"/>
</g>
<!-- Node3 -->
<g id="node3" class="node">
<title>Node3</title>
<g id="a_node3"><a xlink:href="classUDroneJSONConfig.html#a03bad4b9aa1ece767e6d35ab8110fb4d" target="_top" xlink:title=" ">
<polygon fill="white" stroke="black" points="406.5,-57 406.5,-87 554.5,-87 554.5,-57 406.5,-57"/>
<text text-anchor="start" x="414.5" y="-75" font-family="Helvetica,sans-Serif" font-size="10.00">UDroneJSONConfig::Reload</text>
<text text-anchor="middle" x="480.5" y="-64" font-family="Helvetica,sans-Serif" font-size="10.00">Config</text>
</a>
</g>
</g>
<!-- Node2&#45;&gt;Node3 -->
<g id="edge2" class="edge">
<title>Node2&#45;&gt;Node3</title>
<path fill="none" stroke="midnightblue" d="M588.62,-58.75C577.24,-60.16 565.68,-61.59 554.57,-62.96"/>
<polygon fill="midnightblue" stroke="midnightblue" points="589.05,-62.22 598.55,-57.52 588.19,-55.27 589.05,-62.22"/>
</g>
<!-- Node6 -->
<g id="node6" class="node">
<title>Node6</title>
<g id="a_node6"><a xlink:href="classUDroneJSONConfig.html#a54a3163653c6ab2891e45c61f5313225" target="_top" xlink:title=" ">
<polygon fill="white" stroke="black" points="405,-8 405,-38 556,-38 556,-8 405,-8"/>
<text text-anchor="start" x="413" y="-26" font-family="Helvetica,sans-Serif" font-size="10.00">UDroneJSONConfig::UDrone</text>
<text text-anchor="middle" x="480.5" y="-15" font-family="Helvetica,sans-Serif" font-size="10.00">JSONConfig</text>
</a>
</g>
</g>
<!-- Node2&#45;&gt;Node6 -->
<g id="edge5" class="edge">
<title>Node2&#45;&gt;Node6</title>
<path fill="none" stroke="midnightblue" d="M591.39,-37.16C579.66,-35.65 567.69,-34.11 556.16,-32.62"/>
<polygon fill="midnightblue" stroke="midnightblue" points="591.24,-40.67 601.6,-38.48 592.13,-33.73 591.24,-40.67"/>
</g>
<!-- Node4 -->
<g id="node4" class="node">
<title>Node4</title>
<g id="a_node4"><a xlink:href="classAQuadPawn.html#aed6fabac53fca6df53b2a324232bec5a" target="_top" xlink:title=" ">
<polygon fill="white" stroke="black" points="200,-62.5 200,-81.5 369,-81.5 369,-62.5 200,-62.5"/>
<text text-anchor="middle" x="284.5" y="-69.5" font-family="Helvetica,sans-Serif" font-size="10.00">AQuadPawn::ReloadJSONConfig</text>
</a>
</g>
</g>
<!-- Node3&#45;&gt;Node4 -->
<g id="edge3" class="edge">
<title>Node3&#45;&gt;Node4</title>
<path fill="none" stroke="midnightblue" d="M396.37,-72C387.39,-72 378.24,-72 369.25,-72"/>
<polygon fill="midnightblue" stroke="midnightblue" points="396.43,-75.5 406.43,-72 396.43,-68.5 396.43,-75.5"/>
</g>
<!-- Node5 -->
<g id="node5" class="node">
<title>Node5</title>
<g id="a_node5"><a xlink:href="classAQuadPawn.html#ab175aa4a4f7a67626130dc16c8f4ad56" target="_top" xlink:title=" ">
<polygon fill="white" stroke="black" points="0,-57 0,-87 164,-87 164,-57 0,-57"/>
<text text-anchor="start" x="8" y="-75" font-family="Helvetica,sans-Serif" font-size="10.00">AQuadPawn::SetupPlayerInput</text>
<text text-anchor="middle" x="82" y="-64" font-family="Helvetica,sans-Serif" font-size="10.00">Component</text>
</a>
</g>
</g>
<!-- Node4&#45;&gt;Node5 -->
<g id="edge4" class="edge">
<title>Node4&#45;&gt;Node5</title>
<path fill="none" stroke="midnightblue" d="M189.89,-72C181.3,-72 172.65,-72 164.19,-72"/>
<polygon fill="midnightblue" stroke="midnightblue" points="189.92,-75.5 199.92,-72 189.92,-68.5 189.92,-75.5"/>
</g>
</g>
</svg>
