<?xml version="1.0" encoding="UTF-8" standalone="no"?>
<!DOCTYPE svg PUBLIC "-//W3C//DTD SVG 1.1//EN"
 "http://www.w3.org/Graphics/SVG/1.1/DTD/svg11.dtd">
<!-- Generated by graphviz version 2.43.0 (0)
 -->
<!-- Title: UDroneJSONConfig::ReloadConfig Pages: 1 -->
<svg width="558pt" height="39pt"
 viewBox="0.00 0.00 558.00 39.00" xmlns="http://www.w3.org/2000/svg" xmlns:xlink="http://www.w3.org/1999/xlink">
<g id="graph0" class="graph" transform="scale(1 1) rotate(0) translate(4 35)">
<title>UDroneJSONConfig::ReloadConfig</title>
<polygon fill="white" stroke="transparent" points="-4,4 -4,-35 554,-35 554,4 -4,4"/>
<!-- Node1 -->
<g id="node1" class="node">
<title>Node1</title>
<g id="a_node1"><a xlink:title=" ">
<polygon fill="#bfbfbf" stroke="black" points="0,-0.5 0,-30.5 148,-30.5 148,-0.5 0,-0.5"/>
<text text-anchor="start" x="8" y="-18.5" font-family="Helvetica,sans-Serif" font-size="10.00">UDroneJSONConfig::Reload</text>
<text text-anchor="middle" x="74" y="-7.5" font-family="Helvetica,sans-Serif" font-size="10.00">Config</text>
</a>
</g>
</g>
<!-- Node2 -->
<g id="node2" class="node">
<title>Node2</title>
<g id="a_node2"><a xlink:href="classUDroneJSONConfig.html#a923277568254babf96e260fd7e2a0337" target="_top" xlink:title=" ">
<polygon fill="white" stroke="black" points="184,-6 184,-25 352,-25 352,-6 184,-6"/>
<text text-anchor="middle" x="268" y="-13" font-family="Helvetica,sans-Serif" font-size="10.00">UDroneJSONConfig::LoadConfig</text>
</a>
</g>
</g>
<!-- Node1&#45;&gt;Node2 -->
<g id="edge1" class="edge">
<title>Node1&#45;&gt;Node2</title>
<path fill="none" stroke="midnightblue" d="M148.13,-15.5C156.51,-15.5 165.14,-15.5 173.73,-15.5"/>
<polygon fill="midnightblue" stroke="midnightblue" points="173.8,-19 183.8,-15.5 173.8,-12 173.8,-19"/>
</g>
<!-- Node3 -->
<g id="node3" class="node">
<title>Node3</title>
<g id="a_node3"><a xlink:href="classUDroneJSONConfig.html#aa905396d71ecb1f4773660e9dcbfd17c" target="_top" xlink:title=" ">
<polygon fill="white" stroke="black" points="388,-0.5 388,-30.5 550,-30.5 550,-0.5 388,-0.5"/>
<text text-anchor="start" x="396" y="-18.5" font-family="Helvetica,sans-Serif" font-size="10.00">UDroneJSONConfig::GetConfig</text>
<text text-anchor="middle" x="469" y="-7.5" font-family="Helvetica,sans-Serif" font-size="10.00">FilePath</text>
</a>
</g>
</g>
<!-- Node2&#45;&gt;Node3 -->
<g id="edge2" class="edge">
<title>Node2&#45;&gt;Node3</title>
<path fill="none" stroke="midnightblue" d="M352.24,-15.5C360.65,-15.5 369.21,-15.5 377.68,-15.5"/>
<polygon fill="midnightblue" stroke="midnightblue" points="377.96,-19 387.96,-15.5 377.96,-12 377.96,-19"/>
</g>
</g>
</svg>
