<?xml version="1.0" encoding="UTF-8" standalone="no"?>
<!DOCTYPE svg PUBLIC "-//W3C//DTD SVG 1.1//EN"
 "http://www.w3.org/Graphics/SVG/1.1/DTD/svg11.dtd">
<!-- Generated by graphviz version 2.43.0 (0)
 -->
<!-- Title: ADroneManager::IsSwarmMode Pages: 1 -->
<svg width="665pt" height="88pt"
 viewBox="0.00 0.00 665.00 88.00" xmlns="http://www.w3.org/2000/svg" xmlns:xlink="http://www.w3.org/1999/xlink">
<g id="graph0" class="graph" transform="scale(1 1) rotate(0) translate(4 84)">
<title>ADroneManager::IsSwarmMode</title>
<polygon fill="white" stroke="transparent" points="-4,4 -4,-84 661,-84 661,4 -4,4"/>
<!-- Node1 -->
<g id="node1" class="node">
<title>Node1</title>
<g id="a_node1"><a xlink:title=" ">
<polygon fill="#bfbfbf" stroke="black" points="487,-30 487,-49 657,-49 657,-30 487,-30"/>
<text text-anchor="middle" x="572" y="-37" font-family="Helvetica,sans-Serif" font-size="10.00">ADroneManager::IsSwarmMode</text>
</a>
</g>
</g>
<!-- Node2 -->
<g id="node2" class="node">
<title>Node2</title>
<g id="a_node2"><a xlink:href="classUQuadDroneController.html#ae6cbf9660219d61d1f6efc91bc0244ba" target="_top" xlink:title=" ">
<polygon fill="white" stroke="black" points="324,-49.5 324,-79.5 451,-79.5 451,-49.5 324,-49.5"/>
<text text-anchor="start" x="332" y="-67.5" font-family="Helvetica,sans-Serif" font-size="10.00">UQuadDroneController</text>
<text text-anchor="middle" x="387.5" y="-56.5" font-family="Helvetica,sans-Serif" font-size="10.00">::dynamicController</text>
</a>
</g>
</g>
<!-- Node1&#45;&gt;Node2 -->
<g id="edge1" class="edge">
<title>Node1&#45;&gt;Node2</title>
<path fill="none" stroke="midnightblue" d="M491.31,-50.42C477.9,-52.25 464.15,-54.14 451.24,-55.91"/>
<polygon fill="midnightblue" stroke="midnightblue" points="492.05,-53.85 501.48,-49.02 491.1,-46.91 492.05,-53.85"/>
</g>
<!-- Node3 -->
<g id="node3" class="node">
<title>Node3</title>
<g id="a_node3"><a xlink:href="classUQuadDroneController.html#aeacce81326aab408e9f95553fb3ae2bc" target="_top" xlink:title=" ">
<polygon fill="white" stroke="black" points="324,-0.5 324,-30.5 451,-30.5 451,-0.5 324,-0.5"/>
<text text-anchor="start" x="332" y="-18.5" font-family="Helvetica,sans-Serif" font-size="10.00">UQuadDroneController</text>
<text text-anchor="middle" x="387.5" y="-7.5" font-family="Helvetica,sans-Serif" font-size="10.00">::Update</text>
</a>
</g>
</g>
<!-- Node1&#45;&gt;Node3 -->
<g id="edge2" class="edge">
<title>Node1&#45;&gt;Node3</title>
<path fill="none" stroke="midnightblue" d="M488.57,-28.66C475.98,-27 463.15,-25.32 451.07,-23.73"/>
<polygon fill="midnightblue" stroke="midnightblue" points="488.24,-32.15 498.61,-29.98 489.15,-25.21 488.24,-32.15"/>
</g>
<!-- Node4 -->
<g id="node4" class="node">
<title>Node4</title>
<g id="a_node4"><a xlink:href="classAQuadPawn.html#aaf5f515b74f9316e932e4e1ccf9878ba" target="_top" xlink:title=" ">
<polygon fill="white" stroke="black" points="137,-6 137,-25 288,-25 288,-6 137,-6"/>
<text text-anchor="middle" x="212.5" y="-13" font-family="Helvetica,sans-Serif" font-size="10.00">AQuadPawn::UpdateControl</text>
</a>
</g>
</g>
<!-- Node3&#45;&gt;Node4 -->
<g id="edge3" class="edge">
<title>Node3&#45;&gt;Node4</title>
<path fill="none" stroke="midnightblue" d="M313.45,-15.5C305.09,-15.5 296.55,-15.5 288.16,-15.5"/>
<polygon fill="midnightblue" stroke="midnightblue" points="313.55,-19 323.55,-15.5 313.55,-12 313.55,-19"/>
</g>
<!-- Node5 -->
<g id="node5" class="node">
<title>Node5</title>
<g id="a_node5"><a xlink:href="classAQuadPawn.html#abddecbb307ce019d37ecf4b3dfcecad3" target="_top" xlink:title=" ">
<polygon fill="white" stroke="black" points="0,-6 0,-25 101,-25 101,-6 0,-6"/>
<text text-anchor="middle" x="50.5" y="-13" font-family="Helvetica,sans-Serif" font-size="10.00">AQuadPawn::Tick</text>
</a>
</g>
</g>
<!-- Node4&#45;&gt;Node5 -->
<g id="edge4" class="edge">
<title>Node4&#45;&gt;Node5</title>
<path fill="none" stroke="midnightblue" d="M126.48,-15.5C117.83,-15.5 109.26,-15.5 101.17,-15.5"/>
<polygon fill="midnightblue" stroke="midnightblue" points="126.65,-19 136.65,-15.5 126.65,-12 126.65,-19"/>
</g>
</g>
</svg>
