<?xml version="1.0" encoding="UTF-8" standalone="no"?>
<!DOCTYPE svg PUBLIC "-//W3C//DTD SVG 1.1//EN"
 "http://www.w3.org/Graphics/SVG/1.1/DTD/svg11.dtd">
<!-- Generated by graphviz version 2.43.0 (0)
 -->
<!-- Title: UQuadDroneController Pages: 1 -->
<svg width="231pt" height="84pt"
 viewBox="0.00 0.00 230.50 84.00" xmlns="http://www.w3.org/2000/svg" xmlns:xlink="http://www.w3.org/1999/xlink">
<g id="graph0" class="graph" transform="scale(1 1) rotate(0) translate(4 80)">
<title>UQuadDroneController</title>
<polygon fill="white" stroke="transparent" points="-4,4 -4,-80 226.5,-80 226.5,4 -4,4"/>
<!-- Node1 -->
<g id="node1" class="node">
<title>Node1</title>
<g id="a_node1"><a xlink:title=" ">
<polygon fill="#bfbfbf" stroke="black" points="24.5,-0.5 24.5,-19.5 151.5,-19.5 151.5,-0.5 24.5,-0.5"/>
<text text-anchor="middle" x="88" y="-7.5" font-family="Helvetica,sans-Serif" font-size="10.00">UQuadDroneController</text>
</a>
</g>
</g>
<!-- Node2 -->
<g id="node2" class="node">
<title>Node2</title>
<g id="a_node2"><a xlink:title=" ">
<polygon fill="white" stroke="#bfbfbf" points="0,-56.5 0,-75.5 56,-75.5 56,-56.5 0,-56.5"/>
<text text-anchor="middle" x="28" y="-63.5" font-family="Helvetica,sans-Serif" font-size="10.00">UObject</text>
</a>
</g>
</g>
<!-- Node2&#45;&gt;Node1 -->
<g id="edge1" class="edge">
<title>Node2&#45;&gt;Node1</title>
<path fill="none" stroke="midnightblue" d="M45.18,-49.54C55.88,-39.91 69.26,-27.87 78.18,-19.83"/>
<polygon fill="midnightblue" stroke="midnightblue" points="42.73,-47.03 37.64,-56.32 47.41,-52.24 42.73,-47.03"/>
</g>
<!-- Node3 -->
<g id="node3" class="node">
<title>Node3</title>
<g id="a_node3"><a xlink:title=" ">
<polygon fill="white" stroke="#bfbfbf" points="73.5,-56.5 73.5,-75.5 222.5,-75.5 222.5,-56.5 73.5,-56.5"/>
<text text-anchor="middle" x="148" y="-63.5" font-family="Helvetica,sans-Serif" font-size="10.00">IROSFlightControllerSource</text>
</a>
</g>
</g>
<!-- Node3&#45;&gt;Node1 -->
<g id="edge2" class="edge">
<title>Node3&#45;&gt;Node1</title>
<path fill="none" stroke="midnightblue" d="M130.82,-49.54C120.12,-39.91 106.74,-27.87 97.82,-19.83"/>
<polygon fill="midnightblue" stroke="midnightblue" points="128.59,-52.24 138.36,-56.32 133.27,-47.03 128.59,-52.24"/>
</g>
</g>
</svg>
