<?xml version="1.0" encoding="UTF-8" standalone="no"?>
<!DOCTYPE svg PUBLIC "-//W3C//DTD SVG 1.1//EN"
 "http://www.w3.org/Graphics/SVG/1.1/DTD/svg11.dtd">
<!-- Generated by graphviz version 2.43.0 (0)
 -->
<!-- Title: AROS2Controller::UpdateOdometryMessage Pages: 1 -->
<svg width="384pt" height="149pt"
 viewBox="0.00 0.00 384.00 148.50" xmlns="http://www.w3.org/2000/svg" xmlns:xlink="http://www.w3.org/1999/xlink">
<g id="graph0" class="graph" transform="scale(1 1) rotate(0) translate(4 144.5)">
<title>AROS2Controller::UpdateOdometryMessage</title>
<polygon fill="white" stroke="transparent" points="-4,4 -4,-144.5 380,-144.5 380,4 -4,4"/>
<!-- Node1 -->
<g id="node1" class="node">
<title>Node1</title>
<g id="a_node1"><a xlink:title=" ">
<polygon fill="#bfbfbf" stroke="black" points="0,-49.5 0,-79.5 188,-79.5 188,-49.5 0,-49.5"/>
<text text-anchor="start" x="8" y="-67.5" font-family="Helvetica,sans-Serif" font-size="10.00">AROS2Controller::UpdateOdometry</text>
<text text-anchor="middle" x="94" y="-56.5" font-family="Helvetica,sans-Serif" font-size="10.00">Message</text>
</a>
</g>
</g>
<!-- Node2 -->
<g id="node2" class="node">
<title>Node2</title>
<g id="a_node2"><a xlink:href="classUQuadDroneController.html#a89d34598cdca6b4e2fbae8c6b7ea8ed5" target="_top" xlink:title=" ">
<polygon fill="white" stroke="black" points="224,-99 224,-140 376,-140 376,-99 224,-99"/>
<text text-anchor="start" x="232" y="-128" font-family="Helvetica,sans-Serif" font-size="10.00">UQuadDroneController</text>
<text text-anchor="start" x="232" y="-117" font-family="Helvetica,sans-Serif" font-size="10.00">::GetCurrentAngularVelocity</text>
<text text-anchor="middle" x="300" y="-106" font-family="Helvetica,sans-Serif" font-size="10.00">RADPS</text>
</a>
</g>
</g>
<!-- Node1&#45;&gt;Node2 -->
<g id="edge1" class="edge">
<title>Node1&#45;&gt;Node2</title>
<path fill="none" stroke="midnightblue" d="M150.74,-79.53C170.28,-84.8 192.7,-90.84 214.08,-96.6"/>
<polygon fill="midnightblue" stroke="midnightblue" points="213.25,-100.01 223.82,-99.23 215.07,-93.25 213.25,-100.01"/>
</g>
<!-- Node3 -->
<g id="node3" class="node">
<title>Node3</title>
<g id="a_node3"><a xlink:href="classUQuadDroneController.html#aee80642c12dbbd5dd2224b7038a7e06f" target="_top" xlink:title=" ">
<polygon fill="white" stroke="black" points="236.5,-49.5 236.5,-79.5 363.5,-79.5 363.5,-49.5 236.5,-49.5"/>
<text text-anchor="start" x="244.5" y="-67.5" font-family="Helvetica,sans-Serif" font-size="10.00">UQuadDroneController</text>
<text text-anchor="middle" x="300" y="-56.5" font-family="Helvetica,sans-Serif" font-size="10.00">::GetCurrentVelocity</text>
</a>
</g>
</g>
<!-- Node1&#45;&gt;Node3 -->
<g id="edge2" class="edge">
<title>Node1&#45;&gt;Node3</title>
<path fill="none" stroke="midnightblue" d="M188.05,-64.5C200.85,-64.5 213.85,-64.5 226.22,-64.5"/>
<polygon fill="midnightblue" stroke="midnightblue" points="226.45,-68 236.45,-64.5 226.45,-61 226.45,-68"/>
</g>
<!-- Node4 -->
<g id="node4" class="node">
<title>Node4</title>
<g id="a_node4"><a xlink:href="classUQuadDroneController.html#ab0bed543e347de2e364fca46d23b8cca" target="_top" xlink:title=" ">
<polygon fill="white" stroke="black" points="235,-0.5 235,-30.5 365,-30.5 365,-0.5 235,-0.5"/>
<text text-anchor="start" x="243" y="-18.5" font-family="Helvetica,sans-Serif" font-size="10.00">UQuadDroneController</text>
<text text-anchor="middle" x="300" y="-7.5" font-family="Helvetica,sans-Serif" font-size="10.00">::GetOrientationAsQuat</text>
</a>
</g>
</g>
<!-- Node1&#45;&gt;Node4 -->
<g id="edge3" class="edge">
<title>Node1&#45;&gt;Node4</title>
<path fill="none" stroke="midnightblue" d="M157.59,-49.47C179.43,-44.22 204.11,-38.29 226.67,-32.87"/>
<polygon fill="midnightblue" stroke="midnightblue" points="227.62,-36.24 236.53,-30.51 225.98,-29.44 227.62,-36.24"/>
</g>
</g>
</svg>
