<?xml version="1.0" encoding="UTF-8" standalone="no"?>
<!DOCTYPE svg PUBLIC "-//W3C//DTD SVG 1.1//EN"
 "http://www.w3.org/Graphics/SVG/1.1/DTD/svg11.dtd">
<!-- Generated by graphviz version 2.43.0 (0)
 -->
<!-- Title: AQuadPawn Pages: 1 -->
<svg width="692pt" height="296pt"
 viewBox="0.00 0.00 692.00 296.00" xmlns="http://www.w3.org/2000/svg" xmlns:xlink="http://www.w3.org/1999/xlink">
<g id="graph0" class="graph" transform="scale(1 1) rotate(0) translate(4 292)">
<title>AQuadPawn</title>
<polygon fill="white" stroke="transparent" points="-4,4 -4,-292 688,-292 688,4 -4,4"/>
<!-- Node1 -->
<g id="node1" class="node">
<title>Node1</title>
<g id="a_node1"><a xlink:title=" ">
<polygon fill="#bfbfbf" stroke="black" points="424,-67.5 424,-86.5 498,-86.5 498,-67.5 424,-67.5"/>
<text text-anchor="middle" x="461" y="-74.5" font-family="Helvetica,sans-Serif" font-size="10.00">AQuadPawn</text>
</a>
</g>
</g>
<!-- Node6 -->
<g id="node6" class="node">
<title>Node6</title>
<g id="a_node6"><a xlink:href="classUQuadDroneController.html" target="_top" xlink:title=" ">
<polygon fill="white" stroke="black" points="218.5,-0.5 218.5,-19.5 345.5,-19.5 345.5,-0.5 218.5,-0.5"/>
<text text-anchor="middle" x="282" y="-7.5" font-family="Helvetica,sans-Serif" font-size="10.00">UQuadDroneController</text>
</a>
</g>
</g>
<!-- Node1&#45;&gt;Node6 -->
<g id="edge8" class="edge">
<title>Node1&#45;&gt;Node6</title>
<path fill="none" stroke="#9a32cd" stroke-dasharray="5,2" d="M418.57,-64.53C403.95,-60.17 387.59,-54.84 373,-49 362.85,-44.94 360.99,-42.44 351,-38 336.07,-31.36 318.97,-24.67 305.53,-19.6"/>
<polygon fill="#9a32cd" stroke="#9a32cd" points="417.79,-67.95 428.37,-67.39 419.75,-61.23 417.79,-67.95"/>
<text text-anchor="middle" x="401.5" y="-41" font-family="Helvetica,sans-Serif" font-size="10.00"> dronePawn</text>
</g>
<!-- Node2 -->
<g id="node2" class="node">
<title>Node2</title>
<g id="a_node2"><a xlink:title=" ">
<polygon fill="white" stroke="#bfbfbf" points="344.5,-211.5 344.5,-230.5 393.5,-230.5 393.5,-211.5 344.5,-211.5"/>
<text text-anchor="middle" x="369" y="-218.5" font-family="Helvetica,sans-Serif" font-size="10.00">APawn</text>
</a>
</g>
</g>
<!-- Node2&#45;&gt;Node1 -->
<g id="edge1" class="edge">
<title>Node2&#45;&gt;Node1</title>
<path fill="none" stroke="midnightblue" d="M380.2,-202.72C400.05,-172.08 440.71,-109.32 455.48,-86.52"/>
<polygon fill="midnightblue" stroke="midnightblue" points="377.26,-200.82 374.76,-211.12 383.13,-204.63 377.26,-200.82"/>
</g>
<!-- Node3 -->
<g id="node3" class="node">
<title>Node3</title>
<g id="a_node3"><a xlink:href="structFGamepadInputs.html" target="_top" xlink:title=" ">
<polygon fill="white" stroke="black" points="412,-211.5 412,-230.5 512,-230.5 512,-211.5 412,-211.5"/>
<text text-anchor="middle" x="462" y="-218.5" font-family="Helvetica,sans-Serif" font-size="10.00">FGamepadInputs</text>
</a>
</g>
</g>
<!-- Node3&#45;&gt;Node1 -->
<g id="edge2" class="edge">
<title>Node3&#45;&gt;Node1</title>
<path fill="none" stroke="#9a32cd" stroke-dasharray="5,2" d="M461.87,-201.11C461.65,-169.93 461.22,-108.93 461.06,-86.52"/>
<polygon fill="#9a32cd" stroke="#9a32cd" points="458.37,-201.14 461.94,-211.12 465.37,-201.09 458.37,-201.14"/>
<text text-anchor="middle" x="502.5" y="-146.5" font-family="Helvetica,sans-Serif" font-size="10.00"> GamepadInputs</text>
</g>
<!-- Node4 -->
<g id="node4" class="node">
<title>Node4</title>
<g id="a_node4"><a xlink:href="classUQuadHUDWidget.html" target="_top" xlink:title=" ">
<polygon fill="white" stroke="black" points="530.5,-211.5 530.5,-230.5 637.5,-230.5 637.5,-211.5 530.5,-211.5"/>
<text text-anchor="middle" x="584" y="-218.5" font-family="Helvetica,sans-Serif" font-size="10.00">UQuadHUDWidget</text>
</a>
</g>
</g>
<!-- Node4&#45;&gt;Node1 -->
<g id="edge3" class="edge">
<title>Node4&#45;&gt;Node1</title>
<path fill="none" stroke="#9a32cd" stroke-dasharray="5,2" d="M583.13,-201.34C580.94,-176.07 573.33,-131.14 547,-105 534.01,-92.1 514.93,-85.35 498.04,-81.83"/>
<polygon fill="#9a32cd" stroke="#9a32cd" points="579.64,-201.68 583.8,-211.42 586.63,-201.21 579.64,-201.68"/>
<text text-anchor="middle" x="633" y="-146.5" font-family="Helvetica,sans-Serif" font-size="10.00"> HUDWidgetInstance</text>
</g>
<!-- Node5 -->
<g id="node5" class="node">
<title>Node5</title>
<g id="a_node5"><a xlink:title=" ">
<polygon fill="white" stroke="#bfbfbf" points="543.5,-268.5 543.5,-287.5 624.5,-287.5 624.5,-268.5 543.5,-268.5"/>
<text text-anchor="middle" x="584" y="-275.5" font-family="Helvetica,sans-Serif" font-size="10.00">UUserWidget</text>
</a>
</g>
</g>
<!-- Node5&#45;&gt;Node4 -->
<g id="edge4" class="edge">
<title>Node5&#45;&gt;Node4</title>
<path fill="none" stroke="midnightblue" d="M584,-258.12C584,-248.82 584,-238.06 584,-230.71"/>
<polygon fill="midnightblue" stroke="midnightblue" points="580.5,-258.41 584,-268.41 587.5,-258.41 580.5,-258.41"/>
</g>
<!-- Node6&#45;&gt;Node1 -->
<g id="edge5" class="edge">
<title>Node6&#45;&gt;Node1</title>
<path fill="none" stroke="#9a32cd" stroke-dasharray="5,2" d="M355.81,-18.78C387.69,-23.22 420.72,-29.59 434,-38 445.08,-45.01 452.95,-58.37 457.23,-67.23"/>
<polygon fill="#9a32cd" stroke="#9a32cd" points="355.9,-15.26 345.52,-17.41 354.97,-22.2 355.9,-15.26"/>
<text text-anchor="middle" x="484.5" y="-41" font-family="Helvetica,sans-Serif" font-size="10.00"> QuadController</text>
</g>
<!-- Node7 -->
<g id="node7" class="node">
<title>Node7</title>
<g id="a_node7"><a xlink:title=" ">
<polygon fill="white" stroke="#bfbfbf" points="0,-67.5 0,-86.5 56,-86.5 56,-67.5 0,-67.5"/>
<text text-anchor="middle" x="28" y="-74.5" font-family="Helvetica,sans-Serif" font-size="10.00">UObject</text>
</a>
</g>
</g>
<!-- Node7&#45;&gt;Node6 -->
<g id="edge6" class="edge">
<title>Node7&#45;&gt;Node6</title>
<path fill="none" stroke="midnightblue" d="M66.15,-66.24C115.68,-53.56 201.36,-31.64 248.5,-19.57"/>
<polygon fill="midnightblue" stroke="midnightblue" points="64.97,-62.93 56.15,-68.8 66.71,-69.71 64.97,-62.93"/>
</g>
<!-- Node8 -->
<g id="node8" class="node">
<title>Node8</title>
<g id="a_node8"><a xlink:title=" ">
<polygon fill="white" stroke="#bfbfbf" points="73.5,-67.5 73.5,-86.5 222.5,-86.5 222.5,-67.5 73.5,-67.5"/>
<text text-anchor="middle" x="148" y="-74.5" font-family="Helvetica,sans-Serif" font-size="10.00">IROSFlightControllerSource</text>
</a>
</g>
</g>
<!-- Node8&#45;&gt;Node6 -->
<g id="edge7" class="edge">
<title>Node8&#45;&gt;Node6</title>
<path fill="none" stroke="midnightblue" d="M174.92,-62.94C201.46,-50.07 241.27,-30.76 264.13,-19.67"/>
<polygon fill="midnightblue" stroke="midnightblue" points="173.26,-59.85 165.79,-67.37 176.32,-66.15 173.26,-59.85"/>
</g>
<!-- Node9 -->
<g id="node9" class="node">
<title>Node9</title>
<g id="a_node9"><a xlink:href="classQuadPIDController.html" target="_top" xlink:title=" ">
<polygon fill="white" stroke="black" points="212.5,-211.5 212.5,-230.5 319.5,-230.5 319.5,-211.5 212.5,-211.5"/>
<text text-anchor="middle" x="266" y="-218.5" font-family="Helvetica,sans-Serif" font-size="10.00">QuadPIDController</text>
</a>
</g>
</g>
<!-- Node9&#45;&gt;Node6 -->
<g id="edge9" class="edge">
<title>Node9&#45;&gt;Node6</title>
<path fill="none" stroke="#9a32cd" stroke-dasharray="5,2" d="M264.58,-201.02C262.76,-171.99 260.54,-114.89 267,-67 269.31,-49.84 275.29,-30.46 278.96,-19.59"/>
<polygon fill="#9a32cd" stroke="#9a32cd" points="261.11,-201.58 265.29,-211.32 268.09,-201.1 261.11,-201.58"/>
<text text-anchor="middle" x="296" y="-74.5" font-family="Helvetica,sans-Serif" font-size="10.00"> AltitudePID</text>
</g>
<!-- Node10 -->
<g id="node10" class="node">
<title>Node10</title>
<g id="a_node10"><a xlink:href="structFFullPIDSet.html" target="_top" xlink:title=" ">
<polygon fill="white" stroke="black" points="334,-67.5 334,-86.5 406,-86.5 406,-67.5 334,-67.5"/>
<text text-anchor="middle" x="370" y="-74.5" font-family="Helvetica,sans-Serif" font-size="10.00">FFullPIDSet</text>
</a>
</g>
</g>
<!-- Node9&#45;&gt;Node10 -->
<g id="edge11" class="edge">
<title>Node9&#45;&gt;Node10</title>
<path fill="none" stroke="#9a32cd" stroke-dasharray="5,2" d="M270.5,-201.58C277.32,-176.94 292.4,-133.11 319,-105 326.58,-97 337.06,-90.89 346.55,-86.52"/>
<polygon fill="#9a32cd" stroke="#9a32cd" points="267.07,-200.86 267.93,-211.42 273.84,-202.63 267.07,-200.86"/>
<text text-anchor="middle" x="351" y="-185" font-family="Helvetica,sans-Serif" font-size="10.00"> PitchPID</text>
<text text-anchor="middle" x="351" y="-174" font-family="Helvetica,sans-Serif" font-size="10.00">PitchRatePID</text>
<text text-anchor="middle" x="351" y="-163" font-family="Helvetica,sans-Serif" font-size="10.00">RollPID</text>
<text text-anchor="middle" x="351" y="-152" font-family="Helvetica,sans-Serif" font-size="10.00">RollRatePID</text>
<text text-anchor="middle" x="351" y="-141" font-family="Helvetica,sans-Serif" font-size="10.00">XPID</text>
<text text-anchor="middle" x="351" y="-130" font-family="Helvetica,sans-Serif" font-size="10.00">YPID</text>
<text text-anchor="middle" x="351" y="-119" font-family="Helvetica,sans-Serif" font-size="10.00">YawRatePID</text>
<text text-anchor="middle" x="351" y="-108" font-family="Helvetica,sans-Serif" font-size="10.00">ZPID</text>
</g>
<!-- Node10&#45;&gt;Node6 -->
<g id="edge10" class="edge">
<title>Node10&#45;&gt;Node6</title>
<path fill="none" stroke="#9a32cd" stroke-dasharray="5,2" d="M338.49,-63.21C330.45,-59.24 322.09,-54.46 315,-49 304.06,-40.58 294.05,-28.08 288,-19.74"/>
<polygon fill="#9a32cd" stroke="#9a32cd" points="337.14,-66.44 347.69,-67.48 340.09,-60.09 337.14,-66.44"/>
<text text-anchor="middle" x="333" y="-41" font-family="Helvetica,sans-Serif" font-size="10.00"> PIDSet</text>
</g>
</g>
</svg>
