<?xml version="1.0" encoding="UTF-8" standalone="no"?>
<!DOCTYPE svg PUBLIC "-//W3C//DTD SVG 1.1//EN"
 "http://www.w3.org/Graphics/SVG/1.1/DTD/svg11.dtd">
<!-- Generated by graphviz version 2.43.0 (0)
 -->
<!-- Title: Source/QuadSimCore Pages: 1 -->
<svg width="212pt" height="183pt"
 viewBox="0.00 0.00 212.00 183.00" xmlns="http://www.w3.org/2000/svg" xmlns:xlink="http://www.w3.org/1999/xlink">
<g id="graph0" class="graph" transform="scale(1 1) rotate(0) translate(4 179)">
<title>Source/QuadSimCore</title>
<polygon fill="white" stroke="transparent" points="-4,4 -4,-179 208,-179 208,4 -4,4"/>
<g id="clust1" class="cluster">
<title>clusterdir_74389ed8173ad57b461b9d623a1f3867</title>
<g id="a_clust1"><a xlink:href="dir_74389ed8173ad57b461b9d623a1f3867.html" target="_top" xlink:title="Source">
<polygon fill="#ddddee" stroke="black" points="8,-8 8,-167 196,-167 196,-8 8,-8"/>
<text text-anchor="middle" x="102" y="-155" font-family="Helvetica,sans-Serif" font-size="10.00">Source</text>
</a>
</g>
</g>
<g id="clust2" class="cluster">
<title>clusterdir_29d050fc8de28cdf723e4d14490387d9</title>
<g id="a_clust2"><a xlink:href="dir_29d050fc8de28cdf723e4d14490387d9.html" target="_top">
<polygon fill="#eeeeff" stroke="black" points="16,-16 16,-140 188,-140 188,-16 16,-16"/>
</a>
</g>
</g>
<!-- dir_29d050fc8de28cdf723e4d14490387d9 -->
<g id="node1" class="node">
<title>dir_29d050fc8de28cdf723e4d14490387d9</title>
<text text-anchor="middle" x="138" y="-111.5" font-family="Helvetica,sans-Serif" font-size="10.00">QuadSimCore</text>
</g>
<!-- dir_431aee26349c3d0c517759ad8d060c5c -->
<g id="node2" class="node">
<title>dir_431aee26349c3d0c517759ad8d060c5c</title>
<g id="a_node2"><a xlink:href="dir_431aee26349c3d0c517759ad8d060c5c.html" target="_top" xlink:title="Private">
<polygon fill="white" stroke="red" points="78,-132 24,-132 24,-96 78,-96 78,-132"/>
<text text-anchor="middle" x="51" y="-111.5" font-family="Helvetica,sans-Serif" font-size="10.00">Private</text>
</a>
</g>
</g>
<!-- dir_a999321301fd866f4e381e0809b47d65 -->
<g id="node3" class="node">
<title>dir_a999321301fd866f4e381e0809b47d65</title>
<g id="a_node3"><a xlink:href="dir_a999321301fd866f4e381e0809b47d65.html" target="_top" xlink:title="Public">
<polygon fill="white" stroke="red" points="78,-60 24,-60 24,-24 78,-24 78,-60"/>
<text text-anchor="middle" x="51" y="-39.5" font-family="Helvetica,sans-Serif" font-size="10.00">Public</text>
</a>
</g>
</g>
<!-- dir_431aee26349c3d0c517759ad8d060c5c&#45;&gt;dir_a999321301fd866f4e381e0809b47d65 -->
<g id="edge1" class="edge">
<title>dir_431aee26349c3d0c517759ad8d060c5c&#45;&gt;dir_a999321301fd866f4e381e0809b47d65</title>
<path fill="none" stroke="black" d="M51,-95.7C51,-87.98 51,-78.71 51,-70.11"/>
<polygon fill="black" stroke="black" points="54.5,-70.1 51,-60.1 47.5,-70.1 54.5,-70.1"/>
<g id="a_edge1&#45;headlabel"><a xlink:href="dir_000002_000008.html" target="_top" xlink:title="40">
<text text-anchor="middle" x="57.34" y="-71.2" font-family="Helvetica,sans-Serif" font-size="10.00">40</text>
</a>
</g>
</g>
</g>
</svg>
