<?xml version="1.0" encoding="UTF-8" standalone="no"?>
<!DOCTYPE svg PUBLIC "-//W3C//DTD SVG 1.1//EN"
 "http://www.w3.org/Graphics/SVG/1.1/DTD/svg11.dtd">
<!-- Generated by graphviz version 2.43.0 (0)
 -->
<!-- Title: Source/QuadSimCore/Public Pages: 1 -->
<svg width="270pt" height="183pt"
 viewBox="0.00 0.00 270.00 183.00" xmlns="http://www.w3.org/2000/svg" xmlns:xlink="http://www.w3.org/1999/xlink">
<g id="graph0" class="graph" transform="scale(1 1) rotate(0) translate(4 179)">
<title>Source/QuadSimCore/Public</title>
<polygon fill="white" stroke="transparent" points="-4,4 -4,-179 266,-179 266,4 -4,4"/>
<g id="clust1" class="cluster">
<title>clusterdir_29d050fc8de28cdf723e4d14490387d9</title>
<g id="a_clust1"><a xlink:href="dir_29d050fc8de28cdf723e4d14490387d9.html" target="_top" xlink:title="QuadSimCore">
<polygon fill="#ddddee" stroke="black" points="8,-8 8,-167 254,-167 254,-8 8,-8"/>
<text text-anchor="middle" x="131" y="-155" font-family="Helvetica,sans-Serif" font-size="10.00">QuadSimCore</text>
</a>
</g>
</g>
<g id="clust2" class="cluster">
<title>clusterdir_a999321301fd866f4e381e0809b47d65</title>
<g id="a_clust2"><a xlink:href="dir_a999321301fd866f4e381e0809b47d65.html" target="_top">
<polygon fill="#eeeeff" stroke="black" points="16,-16 16,-140 246,-140 246,-16 16,-16"/>
</a>
</g>
</g>
<!-- dir_a999321301fd866f4e381e0809b47d65 -->
<g id="node1" class="node">
<title>dir_a999321301fd866f4e381e0809b47d65</title>
<text text-anchor="middle" x="211" y="-111.5" font-family="Helvetica,sans-Serif" font-size="10.00">Public</text>
</g>
<!-- dir_d8b3a49355761f100c1593b2751621f1 -->
<g id="node2" class="node">
<title>dir_d8b3a49355761f100c1593b2751621f1</title>
<g id="a_node2"><a xlink:href="dir_d8b3a49355761f100c1593b2751621f1.html" target="_top" xlink:title="Controllers">
<polygon fill="white" stroke="black" points="166,-132 96,-132 96,-96 166,-96 166,-132"/>
<text text-anchor="middle" x="131" y="-111.5" font-family="Helvetica,sans-Serif" font-size="10.00">Controllers</text>
</a>
</g>
</g>
<!-- dir_d0160b9ae7b61127f93e65fd12a90132 -->
<g id="node5" class="node">
<title>dir_d0160b9ae7b61127f93e65fd12a90132</title>
<g id="a_node5"><a xlink:href="dir_d0160b9ae7b61127f93e65fd12a90132.html" target="_top" xlink:title="UI">
<polygon fill="white" stroke="black" points="150,-60 96,-60 96,-24 150,-24 150,-60"/>
<text text-anchor="middle" x="123" y="-39.5" font-family="Helvetica,sans-Serif" font-size="10.00">UI</text>
</a>
</g>
</g>
<!-- dir_d8b3a49355761f100c1593b2751621f1&#45;&gt;dir_d0160b9ae7b61127f93e65fd12a90132 -->
<g id="edge2" class="edge">
<title>dir_d8b3a49355761f100c1593b2751621f1&#45;&gt;dir_d0160b9ae7b61127f93e65fd12a90132</title>
<path fill="none" stroke="black" d="M129.02,-95.7C128.14,-87.98 127.08,-78.71 126.1,-70.11"/>
<polygon fill="black" stroke="black" points="129.57,-69.64 124.95,-60.1 122.61,-70.44 129.57,-69.64"/>
<g id="a_edge2&#45;headlabel"><a xlink:href="dir_000009_000012.html" target="_top" xlink:title="1">
<text text-anchor="middle" x="132.8" y="-70.39" font-family="Helvetica,sans-Serif" font-size="10.00">1</text>
</a>
</g>
</g>
<!-- dir_ce22cb3c60d0738191d5f390d5664dd8 -->
<g id="node6" class="node">
<title>dir_ce22cb3c60d0738191d5f390d5664dd8</title>
<g id="a_node6"><a xlink:href="dir_ce22cb3c60d0738191d5f390d5664dd8.html" target="_top" xlink:title="Utility">
<polygon fill="white" stroke="black" points="222,-60 168,-60 168,-24 222,-24 222,-60"/>
<text text-anchor="middle" x="195" y="-39.5" font-family="Helvetica,sans-Serif" font-size="10.00">Utility</text>
</a>
</g>
</g>
<!-- dir_d8b3a49355761f100c1593b2751621f1&#45;&gt;dir_ce22cb3c60d0738191d5f390d5664dd8 -->
<g id="edge1" class="edge">
<title>dir_d8b3a49355761f100c1593b2751621f1&#45;&gt;dir_ce22cb3c60d0738191d5f390d5664dd8</title>
<path fill="none" stroke="black" d="M146.82,-95.7C154.57,-87.22 164.04,-76.86 172.52,-67.58"/>
<polygon fill="black" stroke="black" points="175.2,-69.85 179.36,-60.1 170.03,-65.12 175.2,-69.85"/>
<g id="a_edge1&#45;headlabel"><a xlink:href="dir_000009_000013.html" target="_top" xlink:title="1">
<text text-anchor="middle" x="174.87" y="-71.92" font-family="Helvetica,sans-Serif" font-size="10.00">1</text>
</a>
</g>
</g>
<!-- dir_ef238097f12e295838550b07525c3ebd -->
<g id="node3" class="node">
<title>dir_ef238097f12e295838550b07525c3ebd</title>
<g id="a_node3"><a xlink:href="dir_ef238097f12e295838550b07525c3ebd.html" target="_top" xlink:title="Core">
<polygon fill="white" stroke="black" points="78,-60 24,-60 24,-24 78,-24 78,-60"/>
<text text-anchor="middle" x="51" y="-39.5" font-family="Helvetica,sans-Serif" font-size="10.00">Core</text>
</a>
</g>
</g>
<!-- dir_a6b2c01df542002a0c943059215dc61a -->
<g id="node4" class="node">
<title>dir_a6b2c01df542002a0c943059215dc61a</title>
<g id="a_node4"><a xlink:href="dir_a6b2c01df542002a0c943059215dc61a.html" target="_top" xlink:title="Pawns">
<polygon fill="white" stroke="black" points="78,-132 24,-132 24,-96 78,-96 78,-132"/>
<text text-anchor="middle" x="51" y="-111.5" font-family="Helvetica,sans-Serif" font-size="10.00">Pawns</text>
</a>
</g>
</g>
<!-- dir_a6b2c01df542002a0c943059215dc61a&#45;&gt;dir_ef238097f12e295838550b07525c3ebd -->
<g id="edge5" class="edge">
<title>dir_a6b2c01df542002a0c943059215dc61a&#45;&gt;dir_ef238097f12e295838550b07525c3ebd</title>
<path fill="none" stroke="black" d="M51,-95.7C51,-87.98 51,-78.71 51,-70.11"/>
<polygon fill="black" stroke="black" points="54.5,-70.1 51,-60.1 47.5,-70.1 54.5,-70.1"/>
<g id="a_edge5&#45;headlabel"><a xlink:href="dir_000011_000010.html" target="_top" xlink:title="1">
<text text-anchor="middle" x="57.34" y="-71.2" font-family="Helvetica,sans-Serif" font-size="10.00">1</text>
</a>
</g>
</g>
<!-- dir_a6b2c01df542002a0c943059215dc61a&#45;&gt;dir_d0160b9ae7b61127f93e65fd12a90132 -->
<g id="edge4" class="edge">
<title>dir_a6b2c01df542002a0c943059215dc61a&#45;&gt;dir_d0160b9ae7b61127f93e65fd12a90132</title>
<path fill="none" stroke="black" d="M68.8,-95.7C77.6,-87.14 88.38,-76.66 98,-67.3"/>
<polygon fill="black" stroke="black" points="100.68,-69.58 105.41,-60.1 95.8,-64.57 100.68,-69.58"/>
<g id="a_edge4&#45;headlabel"><a xlink:href="dir_000011_000012.html" target="_top" xlink:title="1">
<text text-anchor="middle" x="100.08" y="-71.63" font-family="Helvetica,sans-Serif" font-size="10.00">1</text>
</a>
</g>
</g>
<!-- dir_a6b2c01df542002a0c943059215dc61a&#45;&gt;dir_ce22cb3c60d0738191d5f390d5664dd8 -->
<g id="edge3" class="edge">
<title>dir_a6b2c01df542002a0c943059215dc61a&#45;&gt;dir_ce22cb3c60d0738191d5f390d5664dd8</title>
<path fill="none" stroke="black" d="M78.09,-99.83C100.77,-88.81 133.36,-72.97 158.37,-60.81"/>
<polygon fill="black" stroke="black" points="160.08,-63.87 167.55,-56.35 157.02,-57.57 160.08,-63.87"/>
<g id="a_edge3&#45;headlabel"><a xlink:href="dir_000011_000013.html" target="_top" xlink:title="1">
<text text-anchor="middle" x="158.09" y="-65.49" font-family="Helvetica,sans-Serif" font-size="10.00">1</text>
</a>
</g>
</g>
</g>
</svg>
