<?xml version="1.0" encoding="UTF-8" standalone="no"?>
<!DOCTYPE svg PUBLIC "-//W3C//DTD SVG 1.1//EN"
 "http://www.w3.org/Graphics/SVG/1.1/DTD/svg11.dtd">
<!-- Generated by graphviz version 2.43.0 (0)
 -->
<!-- Title: Source/QuadSimCore/Private Pages: 1 -->
<svg width="486pt" height="175pt"
 viewBox="0.00 0.00 486.00 175.00" xmlns="http://www.w3.org/2000/svg" xmlns:xlink="http://www.w3.org/1999/xlink">
<g id="graph0" class="graph" transform="scale(1 1) rotate(0) translate(4 171)">
<title>Source/QuadSimCore/Private</title>
<polygon fill="white" stroke="transparent" points="-4,4 -4,-171 482,-171 482,4 -4,4"/>
<g id="clust1" class="cluster">
<title>clusterdir_29d050fc8de28cdf723e4d14490387d9</title>
<g id="a_clust1"><a xlink:href="dir_29d050fc8de28cdf723e4d14490387d9.html" target="_top" xlink:title="QuadSimCore">
<polygon fill="#ddddee" stroke="black" points="8,-8 8,-159 470,-159 470,-8 8,-8"/>
<text text-anchor="middle" x="239" y="-147" font-family="Helvetica,sans-Serif" font-size="10.00">QuadSimCore</text>
</a>
</g>
</g>
<g id="clust2" class="cluster">
<title>clusterdir_431aee26349c3d0c517759ad8d060c5c</title>
<g id="a_clust2"><a xlink:href="dir_431aee26349c3d0c517759ad8d060c5c.html" target="_top">
<polygon fill="#eeeeff" stroke="black" points="16,-80 16,-132 462,-132 462,-80 16,-80"/>
</a>
</g>
</g>
<!-- dir_a999321301fd866f4e381e0809b47d65 -->
<g id="node1" class="node">
<title>dir_a999321301fd866f4e381e0809b47d65</title>
<g id="a_node1"><a xlink:href="dir_a999321301fd866f4e381e0809b47d65.html" target="_top" xlink:title="Public">
<polygon fill="white" stroke="red" points="222,-52 168,-52 168,-16 222,-16 222,-52"/>
<text text-anchor="middle" x="195" y="-31.5" font-family="Helvetica,sans-Serif" font-size="10.00">Public</text>
</a>
</g>
</g>
<!-- dir_431aee26349c3d0c517759ad8d060c5c -->
<g id="node2" class="node">
<title>dir_431aee26349c3d0c517759ad8d060c5c</title>
<text text-anchor="middle" x="427" y="-103.5" font-family="Helvetica,sans-Serif" font-size="10.00">Private</text>
</g>
<!-- dir_755faa809e7c4a4e503ccb149ae01c83 -->
<g id="node3" class="node">
<title>dir_755faa809e7c4a4e503ccb149ae01c83</title>
<g id="a_node3"><a xlink:href="dir_755faa809e7c4a4e503ccb149ae01c83.html" target="_top" xlink:title="Controllers">
<polygon fill="white" stroke="black" points="382,-124 312,-124 312,-88 382,-88 382,-124"/>
<text text-anchor="middle" x="347" y="-103.5" font-family="Helvetica,sans-Serif" font-size="10.00">Controllers</text>
</a>
</g>
</g>
<!-- dir_755faa809e7c4a4e503ccb149ae01c83&#45;&gt;dir_a999321301fd866f4e381e0809b47d65 -->
<g id="edge1" class="edge">
<title>dir_755faa809e7c4a4e503ccb149ae01c83&#45;&gt;dir_a999321301fd866f4e381e0809b47d65</title>
<path fill="none" stroke="black" d="M317.92,-87.82C312.99,-85.1 307.89,-82.4 303,-80 279.7,-68.58 252.75,-57.35 231.61,-48.96"/>
<polygon fill="black" stroke="black" points="232.62,-45.6 222.03,-45.2 230.06,-52.12 232.62,-45.6"/>
<g id="a_edge1&#45;headlabel"><a xlink:href="dir_000003_000008.html" target="_top" xlink:title="11">
<text text-anchor="middle" x="237" y="-41.77" font-family="Helvetica,sans-Serif" font-size="10.00">11</text>
</a>
</g>
</g>
<!-- dir_b0e0593573f59b1a196763183508a9c1 -->
<g id="node4" class="node">
<title>dir_b0e0593573f59b1a196763183508a9c1</title>
<g id="a_node4"><a xlink:href="dir_b0e0593573f59b1a196763183508a9c1.html" target="_top" xlink:title="Core">
<polygon fill="white" stroke="black" points="294,-124 240,-124 240,-88 294,-88 294,-124"/>
<text text-anchor="middle" x="267" y="-103.5" font-family="Helvetica,sans-Serif" font-size="10.00">Core</text>
</a>
</g>
</g>
<!-- dir_b0e0593573f59b1a196763183508a9c1&#45;&gt;dir_a999321301fd866f4e381e0809b47d65 -->
<g id="edge4" class="edge">
<title>dir_b0e0593573f59b1a196763183508a9c1&#45;&gt;dir_a999321301fd866f4e381e0809b47d65</title>
<path fill="none" stroke="black" d="M249.2,-87.7C240.4,-79.14 229.62,-68.66 220,-59.3"/>
<polygon fill="black" stroke="black" points="222.2,-56.57 212.59,-52.1 217.32,-61.58 222.2,-56.57"/>
<g id="a_edge4&#45;headlabel"><a xlink:href="dir_000004_000008.html" target="_top" xlink:title="8">
<text text-anchor="middle" x="226.76" y="-54.54" font-family="Helvetica,sans-Serif" font-size="10.00">8</text>
</a>
</g>
</g>
<!-- dir_6e4e1e2375f722702a088f65499f7982 -->
<g id="node5" class="node">
<title>dir_6e4e1e2375f722702a088f65499f7982</title>
<g id="a_node5"><a xlink:href="dir_6e4e1e2375f722702a088f65499f7982.html" target="_top" xlink:title="Pawns">
<polygon fill="white" stroke="black" points="222,-124 168,-124 168,-88 222,-88 222,-124"/>
<text text-anchor="middle" x="195" y="-103.5" font-family="Helvetica,sans-Serif" font-size="10.00">Pawns</text>
</a>
</g>
</g>
<!-- dir_6e4e1e2375f722702a088f65499f7982&#45;&gt;dir_a999321301fd866f4e381e0809b47d65 -->
<g id="edge3" class="edge">
<title>dir_6e4e1e2375f722702a088f65499f7982&#45;&gt;dir_a999321301fd866f4e381e0809b47d65</title>
<path fill="none" stroke="black" d="M195,-87.7C195,-79.98 195,-70.71 195,-62.11"/>
<polygon fill="black" stroke="black" points="198.5,-62.1 195,-52.1 191.5,-62.1 198.5,-62.1"/>
<g id="a_edge3&#45;headlabel"><a xlink:href="dir_000005_000008.html" target="_top" xlink:title="7">
<text text-anchor="middle" x="201.34" y="-63.2" font-family="Helvetica,sans-Serif" font-size="10.00">7</text>
</a>
</g>
</g>
<!-- dir_ecb43a392f5c13dfc31855b4a1dba114 -->
<g id="node6" class="node">
<title>dir_ecb43a392f5c13dfc31855b4a1dba114</title>
<g id="a_node6"><a xlink:href="dir_ecb43a392f5c13dfc31855b4a1dba114.html" target="_top" xlink:title="UI">
<polygon fill="white" stroke="black" points="150,-124 96,-124 96,-88 150,-88 150,-124"/>
<text text-anchor="middle" x="123" y="-103.5" font-family="Helvetica,sans-Serif" font-size="10.00">UI</text>
</a>
</g>
</g>
<!-- dir_ecb43a392f5c13dfc31855b4a1dba114&#45;&gt;dir_a999321301fd866f4e381e0809b47d65 -->
<g id="edge5" class="edge">
<title>dir_ecb43a392f5c13dfc31855b4a1dba114&#45;&gt;dir_a999321301fd866f4e381e0809b47d65</title>
<path fill="none" stroke="black" d="M140.8,-87.7C149.6,-79.14 160.38,-68.66 170,-59.3"/>
<polygon fill="black" stroke="black" points="172.68,-61.58 177.41,-52.1 167.8,-56.57 172.68,-61.58"/>
<g id="a_edge5&#45;headlabel"><a xlink:href="dir_000006_000008.html" target="_top" xlink:title="6">
<text text-anchor="middle" x="172.08" y="-63.63" font-family="Helvetica,sans-Serif" font-size="10.00">6</text>
</a>
</g>
</g>
<!-- dir_d7c6492b0da470ce6b48437b452418c9 -->
<g id="node7" class="node">
<title>dir_d7c6492b0da470ce6b48437b452418c9</title>
<g id="a_node7"><a xlink:href="dir_d7c6492b0da470ce6b48437b452418c9.html" target="_top" xlink:title="Utility">
<polygon fill="white" stroke="black" points="78,-124 24,-124 24,-88 78,-88 78,-124"/>
<text text-anchor="middle" x="51" y="-103.5" font-family="Helvetica,sans-Serif" font-size="10.00">Utility</text>
</a>
</g>
</g>
<!-- dir_d7c6492b0da470ce6b48437b452418c9&#45;&gt;dir_a999321301fd866f4e381e0809b47d65 -->
<g id="edge2" class="edge">
<title>dir_d7c6492b0da470ce6b48437b452418c9&#45;&gt;dir_a999321301fd866f4e381e0809b47d65</title>
<path fill="none" stroke="black" d="M74.17,-87.85C78.34,-85.07 82.73,-82.34 87,-80 109.76,-67.54 136.71,-56.31 157.99,-48.18"/>
<polygon fill="black" stroke="black" points="159.5,-51.35 167.63,-44.56 157.04,-44.8 159.5,-51.35"/>
<g id="a_edge2&#45;headlabel"><a xlink:href="dir_000007_000008.html" target="_top" xlink:title="6">
<text text-anchor="middle" x="157.13" y="-52.77" font-family="Helvetica,sans-Serif" font-size="10.00">6</text>
</a>
</g>
</g>
</g>
</svg>
