<?xml version="1.0" encoding="UTF-8" standalone="no"?>
<!DOCTYPE svg PUBLIC "-//W3C//DTD SVG 1.1//EN"
 "http://www.w3.org/Graphics/SVG/1.1/DTD/svg11.dtd">
<!-- Generated by graphviz version 2.43.0 (0)
 -->
<!-- Title: Source/QuadSimCore/Private/Core/DroneJSONConfig.cpp Pages: 1 -->
<svg width="1028pt" height="151pt"
 viewBox="0.00 0.00 1028.00 151.00" xmlns="http://www.w3.org/2000/svg" xmlns:xlink="http://www.w3.org/1999/xlink">
<g id="graph0" class="graph" transform="scale(1 1) rotate(0) translate(4 147)">
<title>Source/QuadSimCore/Private/Core/DroneJSONConfig.cpp</title>
<polygon fill="white" stroke="transparent" points="-4,4 -4,-147 1024,-147 1024,4 -4,4"/>
<!-- Node1 -->
<g id="node1" class="node">
<title>Node1</title>
<g id="a_node1"><a xlink:title=" ">
<polygon fill="#bfbfbf" stroke="black" points="373.5,-112.5 373.5,-142.5 560.5,-142.5 560.5,-112.5 373.5,-112.5"/>
<text text-anchor="start" x="381.5" y="-130.5" font-family="Helvetica,sans-Serif" font-size="10.00">Source/QuadSimCore</text>
<text text-anchor="middle" x="467" y="-119.5" font-family="Helvetica,sans-Serif" font-size="10.00">/Private/Core/DroneJSONConfig.cpp</text>
</a>
</g>
</g>
<!-- Node2 -->
<g id="node2" class="node">
<title>Node2</title>
<g id="a_node2"><a xlink:href="DroneJSONConfig_8h.html" target="_top" xlink:title=" ">
<polygon fill="white" stroke="black" points="47.5,-56.5 47.5,-75.5 182.5,-75.5 182.5,-56.5 47.5,-56.5"/>
<text text-anchor="middle" x="115" y="-63.5" font-family="Helvetica,sans-Serif" font-size="10.00">Core/DroneJSONConfig.h</text>
</a>
</g>
</g>
<!-- Node1&#45;&gt;Node2 -->
<g id="edge1" class="edge">
<title>Node1&#45;&gt;Node2</title>
<path fill="none" stroke="midnightblue" d="M384.03,-112.47C319.98,-101.65 232.88,-86.93 175.35,-77.2"/>
<polygon fill="midnightblue" stroke="midnightblue" points="175.77,-73.72 165.32,-75.51 174.6,-80.62 175.77,-73.72"/>
</g>
<!-- Node5 -->
<g id="node5" class="node">
<title>Node5</title>
<g id="a_node5"><a xlink:title=" ">
<polygon fill="white" stroke="#bfbfbf" points="201,-56.5 201,-75.5 301,-75.5 301,-56.5 201,-56.5"/>
<text text-anchor="middle" x="251" y="-63.5" font-family="Helvetica,sans-Serif" font-size="10.00">Misc/FileHelper.h</text>
</a>
</g>
</g>
<!-- Node1&#45;&gt;Node5 -->
<g id="edge4" class="edge">
<title>Node1&#45;&gt;Node5</title>
<path fill="none" stroke="midnightblue" d="M416.08,-112.47C378.17,-102.03 327.08,-87.96 291.83,-78.25"/>
<polygon fill="midnightblue" stroke="midnightblue" points="292.45,-74.79 281.88,-75.51 290.59,-81.54 292.45,-74.79"/>
</g>
<!-- Node6 -->
<g id="node6" class="node">
<title>Node6</title>
<g id="a_node6"><a xlink:title=" ">
<polygon fill="white" stroke="#bfbfbf" points="319.5,-56.5 319.5,-75.5 396.5,-75.5 396.5,-56.5 319.5,-56.5"/>
<text text-anchor="middle" x="358" y="-63.5" font-family="Helvetica,sans-Serif" font-size="10.00">Misc/Paths.h</text>
</a>
</g>
</g>
<!-- Node1&#45;&gt;Node6 -->
<g id="edge5" class="edge">
<title>Node1&#45;&gt;Node6</title>
<path fill="none" stroke="midnightblue" d="M441.17,-112.4C423.53,-102.77 400.3,-90.09 382.87,-80.58"/>
<polygon fill="midnightblue" stroke="midnightblue" points="384.31,-77.38 373.86,-75.66 380.96,-83.52 384.31,-77.38"/>
</g>
<!-- Node7 -->
<g id="node7" class="node">
<title>Node7</title>
<g id="a_node7"><a xlink:title=" ">
<polygon fill="white" stroke="#bfbfbf" points="415,-56.5 415,-75.5 519,-75.5 519,-56.5 415,-56.5"/>
<text text-anchor="middle" x="467" y="-63.5" font-family="Helvetica,sans-Serif" font-size="10.00">Dom/JsonObject.h</text>
</a>
</g>
</g>
<!-- Node1&#45;&gt;Node7 -->
<g id="edge6" class="edge">
<title>Node1&#45;&gt;Node7</title>
<path fill="none" stroke="midnightblue" d="M467,-112.4C467,-104.47 467,-94.46 467,-85.86"/>
<polygon fill="midnightblue" stroke="midnightblue" points="470.5,-85.66 467,-75.66 463.5,-85.66 470.5,-85.66"/>
</g>
<!-- Node8 -->
<g id="node8" class="node">
<title>Node8</title>
<g id="a_node8"><a xlink:title=" ">
<polygon fill="white" stroke="#bfbfbf" points="537.5,-56.5 537.5,-75.5 676.5,-75.5 676.5,-56.5 537.5,-56.5"/>
<text text-anchor="middle" x="607" y="-63.5" font-family="Helvetica,sans-Serif" font-size="10.00">Serialization/JsonWriter.h</text>
</a>
</g>
</g>
<!-- Node1&#45;&gt;Node8 -->
<g id="edge7" class="edge">
<title>Node1&#45;&gt;Node8</title>
<path fill="none" stroke="midnightblue" d="M500.18,-112.4C523.56,-102.46 554.61,-89.26 577.21,-79.66"/>
<polygon fill="midnightblue" stroke="midnightblue" points="578.79,-82.79 586.63,-75.66 576.06,-76.35 578.79,-82.79"/>
</g>
<!-- Node9 -->
<g id="node9" class="node">
<title>Node9</title>
<g id="a_node9"><a xlink:title=" ">
<polygon fill="white" stroke="#bfbfbf" points="694.5,-56.5 694.5,-75.5 849.5,-75.5 849.5,-56.5 694.5,-56.5"/>
<text text-anchor="middle" x="772" y="-63.5" font-family="Helvetica,sans-Serif" font-size="10.00">Serialization/JsonSerializer.h</text>
</a>
</g>
</g>
<!-- Node1&#45;&gt;Node9 -->
<g id="edge8" class="edge">
<title>Node1&#45;&gt;Node9</title>
<path fill="none" stroke="midnightblue" d="M538.89,-112.47C593.93,-101.74 668.61,-87.17 718.46,-77.44"/>
<polygon fill="midnightblue" stroke="midnightblue" points="719.25,-80.86 728.4,-75.51 717.91,-73.99 719.25,-80.86"/>
</g>
<!-- Node10 -->
<g id="node10" class="node">
<title>Node10</title>
<g id="a_node10"><a xlink:title=" ">
<polygon fill="white" stroke="#bfbfbf" points="868,-56.5 868,-75.5 1020,-75.5 1020,-56.5 868,-56.5"/>
<text text-anchor="middle" x="944" y="-63.5" font-family="Helvetica,sans-Serif" font-size="10.00">Interfaces/IPluginManager.h</text>
</a>
</g>
</g>
<!-- Node1&#45;&gt;Node10 -->
<g id="edge9" class="edge">
<title>Node1&#45;&gt;Node10</title>
<path fill="none" stroke="midnightblue" d="M560.67,-114.82C649.71,-103.71 782.08,-87.2 865.66,-76.77"/>
<polygon fill="midnightblue" stroke="midnightblue" points="866.12,-80.24 875.61,-75.53 865.25,-73.3 866.12,-80.24"/>
</g>
<!-- Node3 -->
<g id="node3" class="node">
<title>Node3</title>
<g id="a_node3"><a xlink:title=" ">
<polygon fill="white" stroke="#bfbfbf" points="0,-0.5 0,-19.5 88,-19.5 88,-0.5 0,-0.5"/>
<text text-anchor="middle" x="44" y="-7.5" font-family="Helvetica,sans-Serif" font-size="10.00">CoreMinimal.h</text>
</a>
</g>
</g>
<!-- Node2&#45;&gt;Node3 -->
<g id="edge2" class="edge">
<title>Node2&#45;&gt;Node3</title>
<path fill="none" stroke="midnightblue" d="M103.59,-56.32C92.89,-48.18 76.66,-35.84 63.84,-26.09"/>
<polygon fill="midnightblue" stroke="midnightblue" points="65.69,-23.1 55.61,-19.83 61.46,-28.67 65.69,-23.1"/>
</g>
<!-- Node4 -->
<g id="node4" class="node">
<title>Node4</title>
<g id="a_node4"><a xlink:title=" ">
<polygon fill="white" stroke="#bfbfbf" points="106,-0.5 106,-19.5 268,-19.5 268,-0.5 106,-0.5"/>
<text text-anchor="middle" x="187" y="-7.5" font-family="Helvetica,sans-Serif" font-size="10.00">DroneJSONConfig.generated.h</text>
</a>
</g>
</g>
<!-- Node2&#45;&gt;Node4 -->
<g id="edge3" class="edge">
<title>Node2&#45;&gt;Node4</title>
<path fill="none" stroke="midnightblue" d="M126.57,-56.32C137.42,-48.18 153.88,-35.84 166.88,-26.09"/>
<polygon fill="midnightblue" stroke="midnightblue" points="169.32,-28.63 175.22,-19.83 165.12,-23.03 169.32,-28.63"/>
</g>
</g>
</svg>
