<?xml version="1.0" encoding="UTF-8" standalone="no"?>
<!DOCTYPE svg PUBLIC "-//W3C//DTD SVG 1.1//EN"
 "http://www.w3.org/Graphics/SVG/1.1/DTD/svg11.dtd">
<!-- Generated by graphviz version 2.43.0 (0)
 -->
<!-- Title: Source/QuadSimCore/Public/Core/DroneJSONConfig.h Pages: 1 -->
<svg width="1066pt" height="117pt"
 viewBox="0.00 0.00 1065.50 117.00" xmlns="http://www.w3.org/2000/svg" xmlns:xlink="http://www.w3.org/1999/xlink">
<g id="graph0" class="graph" transform="scale(1 1) rotate(0) translate(4 113)">
<title>Source/QuadSimCore/Public/Core/DroneJSONConfig.h</title>
<polygon fill="white" stroke="transparent" points="-4,4 -4,-113 1061.5,-113 1061.5,4 -4,4"/>
<!-- Node1 -->
<g id="node1" class="node">
<title>Node1</title>
<g id="a_node1"><a xlink:title=" ">
<polygon fill="#bfbfbf" stroke="black" points="446,-78.5 446,-108.5 616,-108.5 616,-78.5 446,-78.5"/>
<text text-anchor="start" x="454" y="-96.5" font-family="Helvetica,sans-Serif" font-size="10.00">Source/QuadSimCore</text>
<text text-anchor="middle" x="531" y="-85.5" font-family="Helvetica,sans-Serif" font-size="10.00">/Public/Core/DroneJSONConfig.h</text>
</a>
</g>
</g>
<!-- Node2 -->
<g id="node2" class="node">
<title>Node2</title>
<g id="a_node2"><a xlink:href="QuadDroneController_8cpp.html" target="_top" xlink:title=" ">
<polygon fill="white" stroke="black" points="0,-0.5 0,-41.5 142,-41.5 142,-0.5 0,-0.5"/>
<text text-anchor="start" x="8" y="-29.5" font-family="Helvetica,sans-Serif" font-size="10.00">Source/QuadSimCore</text>
<text text-anchor="start" x="8" y="-18.5" font-family="Helvetica,sans-Serif" font-size="10.00">/Private/Controllers</text>
<text text-anchor="middle" x="71" y="-7.5" font-family="Helvetica,sans-Serif" font-size="10.00">/QuadDroneController.cpp</text>
</a>
</g>
</g>
<!-- Node1&#45;&gt;Node2 -->
<g id="edge1" class="edge">
<title>Node1&#45;&gt;Node2</title>
<path fill="none" stroke="midnightblue" d="M435.48,-82.83C358.35,-74.29 247.19,-60.35 151,-42 148.05,-41.44 145.04,-40.83 142.01,-40.19"/>
<polygon fill="midnightblue" stroke="midnightblue" points="435.34,-86.33 445.66,-83.95 436.11,-79.38 435.34,-86.33"/>
</g>
<!-- Node3 -->
<g id="node3" class="node">
<title>Node3</title>
<g id="a_node3"><a xlink:href="DroneJSONConfig_8cpp.html" target="_top" xlink:title=" ">
<polygon fill="white" stroke="black" points="160.5,-6 160.5,-36 347.5,-36 347.5,-6 160.5,-6"/>
<text text-anchor="start" x="168.5" y="-24" font-family="Helvetica,sans-Serif" font-size="10.00">Source/QuadSimCore</text>
<text text-anchor="middle" x="254" y="-13" font-family="Helvetica,sans-Serif" font-size="10.00">/Private/Core/DroneJSONConfig.cpp</text>
</a>
</g>
</g>
<!-- Node1&#45;&gt;Node3 -->
<g id="edge2" class="edge">
<title>Node1&#45;&gt;Node3</title>
<path fill="none" stroke="midnightblue" d="M466.05,-75.97C418.48,-63.86 354.6,-47.6 309.43,-36.11"/>
<polygon fill="midnightblue" stroke="midnightblue" points="465.39,-79.41 475.94,-78.49 467.11,-72.63 465.39,-79.41"/>
</g>
<!-- Node4 -->
<g id="node4" class="node">
<title>Node4</title>
<g id="a_node4"><a xlink:href="QuadPawn_8cpp.html" target="_top" xlink:title=" ">
<polygon fill="white" stroke="black" points="366,-6 366,-36 528,-36 528,-6 366,-6"/>
<text text-anchor="start" x="374" y="-24" font-family="Helvetica,sans-Serif" font-size="10.00">Source/QuadSimCore</text>
<text text-anchor="middle" x="447" y="-13" font-family="Helvetica,sans-Serif" font-size="10.00">/Private/Pawns/QuadPawn.cpp</text>
</a>
</g>
</g>
<!-- Node1&#45;&gt;Node4 -->
<g id="edge3" class="edge">
<title>Node1&#45;&gt;Node4</title>
<path fill="none" stroke="midnightblue" d="M506.32,-71.79C492.59,-60.27 475.87,-46.23 463.69,-36"/>
<polygon fill="midnightblue" stroke="midnightblue" points="504.09,-74.49 514,-78.23 508.59,-69.12 504.09,-74.49"/>
</g>
<!-- Node5 -->
<g id="node5" class="node">
<title>Node5</title>
<g id="a_node5"><a xlink:href="ImGuiUtil_8cpp.html" target="_top" xlink:title=" ">
<polygon fill="white" stroke="black" points="546.5,-6 546.5,-36 683.5,-36 683.5,-6 546.5,-6"/>
<text text-anchor="start" x="554.5" y="-24" font-family="Helvetica,sans-Serif" font-size="10.00">Source/QuadSimCore</text>
<text text-anchor="middle" x="615" y="-13" font-family="Helvetica,sans-Serif" font-size="10.00">/Private/UI/ImGuiUtil.cpp</text>
</a>
</g>
</g>
<!-- Node1&#45;&gt;Node5 -->
<g id="edge4" class="edge">
<title>Node1&#45;&gt;Node5</title>
<path fill="none" stroke="midnightblue" d="M555.68,-71.79C569.41,-60.27 586.13,-46.23 598.31,-36"/>
<polygon fill="midnightblue" stroke="midnightblue" points="553.41,-69.12 548,-78.23 557.91,-74.49 553.41,-69.12"/>
</g>
<!-- Node6 -->
<g id="node6" class="node">
<title>Node6</title>
<g id="a_node6"><a xlink:href="NavigationComponent_8cpp.html" target="_top" xlink:title=" ">
<polygon fill="white" stroke="black" points="701.5,-0.5 701.5,-41.5 844.5,-41.5 844.5,-0.5 701.5,-0.5"/>
<text text-anchor="start" x="709.5" y="-29.5" font-family="Helvetica,sans-Serif" font-size="10.00">Source/QuadSimCore</text>
<text text-anchor="start" x="709.5" y="-18.5" font-family="Helvetica,sans-Serif" font-size="10.00">/Private/Utility/Navigation</text>
<text text-anchor="middle" x="773" y="-7.5" font-family="Helvetica,sans-Serif" font-size="10.00">Component.cpp</text>
</a>
</g>
</g>
<!-- Node1&#45;&gt;Node6 -->
<g id="edge5" class="edge">
<title>Node1&#45;&gt;Node6</title>
<path fill="none" stroke="midnightblue" d="M588.74,-75.68C623.9,-65.44 668.98,-52.3 705.75,-41.59"/>
<polygon fill="midnightblue" stroke="midnightblue" points="587.72,-72.33 579.1,-78.49 589.68,-79.05 587.72,-72.33"/>
</g>
<!-- Node7 -->
<g id="node7" class="node">
<title>Node7</title>
<g id="a_node7"><a xlink:href="ObstacleManager_8cpp.html" target="_top" xlink:title=" ">
<polygon fill="white" stroke="black" points="862.5,-6 862.5,-36 1057.5,-36 1057.5,-6 862.5,-6"/>
<text text-anchor="start" x="870.5" y="-24" font-family="Helvetica,sans-Serif" font-size="10.00">Source/QuadSimCore</text>
<text text-anchor="middle" x="960" y="-13" font-family="Helvetica,sans-Serif" font-size="10.00">/Private/Utility/ObstacleManager.cpp</text>
</a>
</g>
</g>
<!-- Node1&#45;&gt;Node7 -->
<g id="edge6" class="edge">
<title>Node1&#45;&gt;Node7</title>
<path fill="none" stroke="midnightblue" d="M626.26,-78.41C690.65,-68.69 777.55,-55.19 854,-42 864.8,-40.14 876.19,-38.08 887.35,-36.02"/>
<polygon fill="midnightblue" stroke="midnightblue" points="625.49,-74.99 616.13,-79.94 626.54,-81.91 625.49,-74.99"/>
</g>
</g>
</svg>
