<?xml version="1.0" encoding="UTF-8" standalone="no"?>
<!DOCTYPE svg PUBLIC "-//W3C//DTD SVG 1.1//EN"
 "http://www.w3.org/Graphics/SVG/1.1/DTD/svg11.dtd">
<!-- Generated by graphviz version 2.43.0 (0)
 -->
<!-- Title: Source/QuadSimCore/Public/Core/DroneJSONConfig.h Pages: 1 -->
<svg width="276pt" height="95pt"
 viewBox="0.00 0.00 276.00 95.00" xmlns="http://www.w3.org/2000/svg" xmlns:xlink="http://www.w3.org/1999/xlink">
<g id="graph0" class="graph" transform="scale(1 1) rotate(0) translate(4 91)">
<title>Source/QuadSimCore/Public/Core/DroneJSONConfig.h</title>
<polygon fill="white" stroke="transparent" points="-4,4 -4,-91 272,-91 272,4 -4,4"/>
<!-- Node1 -->
<g id="node1" class="node">
<title>Node1</title>
<g id="a_node1"><a xlink:title=" ">
<polygon fill="#bfbfbf" stroke="black" points="30,-56.5 30,-86.5 200,-86.5 200,-56.5 30,-56.5"/>
<text text-anchor="start" x="38" y="-74.5" font-family="Helvetica,sans-Serif" font-size="10.00">Source/QuadSimCore</text>
<text text-anchor="middle" x="115" y="-63.5" font-family="Helvetica,sans-Serif" font-size="10.00">/Public/Core/DroneJSONConfig.h</text>
</a>
</g>
</g>
<!-- Node2 -->
<g id="node2" class="node">
<title>Node2</title>
<g id="a_node2"><a xlink:title=" ">
<polygon fill="white" stroke="#bfbfbf" points="0,-0.5 0,-19.5 88,-19.5 88,-0.5 0,-0.5"/>
<text text-anchor="middle" x="44" y="-7.5" font-family="Helvetica,sans-Serif" font-size="10.00">CoreMinimal.h</text>
</a>
</g>
</g>
<!-- Node1&#45;&gt;Node2 -->
<g id="edge1" class="edge">
<title>Node1&#45;&gt;Node2</title>
<path fill="none" stroke="midnightblue" d="M98.17,-56.4C87.33,-47.31 73.22,-35.49 62.13,-26.19"/>
<polygon fill="midnightblue" stroke="midnightblue" points="64.24,-23.4 54.33,-19.66 59.75,-28.76 64.24,-23.4"/>
</g>
<!-- Node3 -->
<g id="node3" class="node">
<title>Node3</title>
<g id="a_node3"><a xlink:title=" ">
<polygon fill="white" stroke="#bfbfbf" points="106,-0.5 106,-19.5 268,-19.5 268,-0.5 106,-0.5"/>
<text text-anchor="middle" x="187" y="-7.5" font-family="Helvetica,sans-Serif" font-size="10.00">DroneJSONConfig.generated.h</text>
</a>
</g>
</g>
<!-- Node1&#45;&gt;Node3 -->
<g id="edge2" class="edge">
<title>Node1&#45;&gt;Node3</title>
<path fill="none" stroke="midnightblue" d="M132.06,-56.4C143.06,-47.31 157.37,-35.49 168.62,-26.19"/>
<polygon fill="midnightblue" stroke="midnightblue" points="171.04,-28.73 176.52,-19.66 166.59,-23.33 171.04,-28.73"/>
</g>
</g>
</svg>
