<?xml version="1.0" encoding="UTF-8" standalone="no"?>
<!DOCTYPE svg PUBLIC "-//W3C//DTD SVG 1.1//EN"
 "http://www.w3.org/Graphics/SVG/1.1/DTD/svg11.dtd">
<!-- Generated by graphviz version 2.43.0 (0)
 -->
<!-- Title: Source/QuadSimCore/Private/Core/DroneGlobalState.cpp Pages: 1 -->
<svg width="702pt" height="207pt"
 viewBox="0.00 0.00 701.50 207.00" xmlns="http://www.w3.org/2000/svg" xmlns:xlink="http://www.w3.org/1999/xlink">
<g id="graph0" class="graph" transform="scale(1 1) rotate(0) translate(4 203)">
<title>Source/QuadSimCore/Private/Core/DroneGlobalState.cpp</title>
<polygon fill="white" stroke="transparent" points="-4,4 -4,-203 697.5,-203 697.5,4 -4,4"/>
<!-- Node1 -->
<g id="node1" class="node">
<title>Node1</title>
<g id="a_node1"><a xlink:title=" ">
<polygon fill="#bfbfbf" stroke="black" points="63,-168.5 63,-198.5 252,-198.5 252,-168.5 63,-168.5"/>
<text text-anchor="start" x="71" y="-186.5" font-family="Helvetica,sans-Serif" font-size="10.00">Source/QuadSimCore</text>
<text text-anchor="middle" x="157.5" y="-175.5" font-family="Helvetica,sans-Serif" font-size="10.00">/Private/Core/DroneGlobalState.cpp</text>
</a>
</g>
</g>
<!-- Node2 -->
<g id="node2" class="node">
<title>Node2</title>
<g id="a_node2"><a xlink:href="DroneGlobalState_8h.html" target="_top" xlink:title=" ">
<polygon fill="white" stroke="black" points="0,-112.5 0,-131.5 137,-131.5 137,-112.5 0,-112.5"/>
<text text-anchor="middle" x="68.5" y="-119.5" font-family="Helvetica,sans-Serif" font-size="10.00">Core/DroneGlobalState.h</text>
</a>
</g>
</g>
<!-- Node1&#45;&gt;Node2 -->
<g id="edge1" class="edge">
<title>Node1&#45;&gt;Node2</title>
<path fill="none" stroke="midnightblue" d="M136.41,-168.4C122.41,-159.04 104.09,-146.79 90.01,-137.38"/>
<polygon fill="midnightblue" stroke="midnightblue" points="91.71,-134.31 81.45,-131.66 87.82,-140.13 91.71,-134.31"/>
</g>
<!-- Node4 -->
<g id="node4" class="node">
<title>Node4</title>
<g id="a_node4"><a xlink:href="QuadDroneController_8h.html" target="_top" xlink:title=" ">
<polygon fill="white" stroke="black" points="188.5,-112.5 188.5,-131.5 372.5,-131.5 372.5,-112.5 188.5,-112.5"/>
<text text-anchor="middle" x="280.5" y="-119.5" font-family="Helvetica,sans-Serif" font-size="10.00">Controllers/QuadDroneController.h</text>
</a>
</g>
</g>
<!-- Node1&#45;&gt;Node4 -->
<g id="edge3" class="edge">
<title>Node1&#45;&gt;Node4</title>
<path fill="none" stroke="midnightblue" d="M186.65,-168.4C206.92,-158.59 233.74,-145.62 253.52,-136.05"/>
<polygon fill="midnightblue" stroke="midnightblue" points="255.12,-139.16 262.6,-131.66 252.08,-132.86 255.12,-139.16"/>
</g>
<!-- Node3 -->
<g id="node3" class="node">
<title>Node3</title>
<g id="a_node3"><a xlink:title=" ">
<polygon fill="white" stroke="#bfbfbf" points="48.5,-0.5 48.5,-19.5 136.5,-19.5 136.5,-0.5 48.5,-0.5"/>
<text text-anchor="middle" x="92.5" y="-7.5" font-family="Helvetica,sans-Serif" font-size="10.00">CoreMinimal.h</text>
</a>
</g>
</g>
<!-- Node2&#45;&gt;Node3 -->
<g id="edge2" class="edge">
<title>Node2&#45;&gt;Node3</title>
<path fill="none" stroke="midnightblue" d="M56.33,-112.43C40.61,-100.24 16.48,-77.04 27.5,-56 34.78,-42.11 48.51,-31.65 61.48,-24.33"/>
<polygon fill="midnightblue" stroke="midnightblue" points="63.43,-27.27 70.69,-19.55 60.2,-21.05 63.43,-27.27"/>
</g>
<!-- Node4&#45;&gt;Node3 -->
<g id="edge4" class="edge">
<title>Node4&#45;&gt;Node3</title>
<path fill="none" stroke="midnightblue" d="M188.29,-113.73C135.63,-107.45 76.89,-96.08 60.5,-76 48.4,-61.17 61.98,-41.01 75,-27.09"/>
<polygon fill="midnightblue" stroke="midnightblue" points="77.79,-29.25 82.4,-19.71 72.85,-24.3 77.79,-29.25"/>
</g>
<!-- Node5 -->
<g id="node5" class="node">
<title>Node5</title>
<g id="a_node5"><a xlink:href="QuadPIDController_8h.html" target="_top" xlink:title=" ">
<polygon fill="white" stroke="black" points="69.5,-56.5 69.5,-75.5 217.5,-75.5 217.5,-56.5 69.5,-56.5"/>
<text text-anchor="middle" x="143.5" y="-63.5" font-family="Helvetica,sans-Serif" font-size="10.00">Utility/QuadPIDController.h</text>
</a>
</g>
</g>
<!-- Node4&#45;&gt;Node5 -->
<g id="edge5" class="edge">
<title>Node4&#45;&gt;Node5</title>
<path fill="none" stroke="midnightblue" d="M258.79,-112.44C236.15,-103.52 200.43,-89.44 174.75,-79.32"/>
<polygon fill="midnightblue" stroke="midnightblue" points="175.69,-75.93 165.11,-75.52 173.13,-82.44 175.69,-75.93"/>
</g>
<!-- Node6 -->
<g id="node6" class="node">
<title>Node6</title>
<g id="a_node6"><a xlink:title=" ">
<polygon fill="white" stroke="#bfbfbf" points="236,-56.5 236,-75.5 391,-75.5 391,-56.5 236,-56.5"/>
<text text-anchor="middle" x="313.5" y="-63.5" font-family="Helvetica,sans-Serif" font-size="10.00">ROSFlightControllerSource.h</text>
</a>
</g>
</g>
<!-- Node4&#45;&gt;Node6 -->
<g id="edge7" class="edge">
<title>Node4&#45;&gt;Node6</title>
<path fill="none" stroke="midnightblue" d="M285.95,-112.08C290.51,-104.61 297.17,-93.72 302.79,-84.52"/>
<polygon fill="midnightblue" stroke="midnightblue" points="305.92,-86.11 308.15,-75.75 299.95,-82.46 305.92,-86.11"/>
</g>
<!-- Node7 -->
<g id="node7" class="node">
<title>Node7</title>
<g id="a_node7"><a xlink:href="ImGuiUtil_8h.html" target="_top" xlink:title=" ">
<polygon fill="white" stroke="black" points="409.5,-56.5 409.5,-75.5 495.5,-75.5 495.5,-56.5 409.5,-56.5"/>
<text text-anchor="middle" x="452.5" y="-63.5" font-family="Helvetica,sans-Serif" font-size="10.00">UI/ImGuiUtil.h</text>
</a>
</g>
</g>
<!-- Node4&#45;&gt;Node7 -->
<g id="edge8" class="edge">
<title>Node4&#45;&gt;Node7</title>
<path fill="none" stroke="midnightblue" d="M307.75,-112.44C336.94,-103.28 383.42,-88.69 415.81,-78.52"/>
<polygon fill="midnightblue" stroke="midnightblue" points="416.88,-81.85 425.37,-75.52 414.78,-75.17 416.88,-81.85"/>
</g>
<!-- Node9 -->
<g id="node9" class="node">
<title>Node9</title>
<g id="a_node9"><a xlink:title=" ">
<polygon fill="white" stroke="#bfbfbf" points="513.5,-56.5 513.5,-75.5 693.5,-75.5 693.5,-56.5 513.5,-56.5"/>
<text text-anchor="middle" x="603.5" y="-63.5" font-family="Helvetica,sans-Serif" font-size="10.00">QuadDroneController.generated.h</text>
</a>
</g>
</g>
<!-- Node4&#45;&gt;Node9 -->
<g id="edge11" class="edge">
<title>Node4&#45;&gt;Node9</title>
<path fill="none" stroke="midnightblue" d="M331.68,-112.44C388.97,-102.87 481.74,-87.36 542.69,-77.17"/>
<polygon fill="midnightblue" stroke="midnightblue" points="543.27,-80.62 552.56,-75.52 542.12,-73.71 543.27,-80.62"/>
</g>
<!-- Node5&#45;&gt;Node3 -->
<g id="edge6" class="edge">
<title>Node5&#45;&gt;Node3</title>
<path fill="none" stroke="midnightblue" d="M135.08,-56.08C127.65,-48.22 116.65,-36.57 107.69,-27.08"/>
<polygon fill="midnightblue" stroke="midnightblue" points="110.18,-24.62 100.76,-19.75 105.09,-29.42 110.18,-24.62"/>
</g>
<!-- Node7&#45;&gt;Node3 -->
<g id="edge9" class="edge">
<title>Node7&#45;&gt;Node3</title>
<path fill="none" stroke="midnightblue" d="M409.38,-57.45C406.38,-56.95 403.4,-56.46 400.5,-56 311.84,-41.85 208.54,-27.12 146.94,-18.51"/>
<polygon fill="midnightblue" stroke="midnightblue" points="147.06,-15 136.67,-17.08 146.1,-21.93 147.06,-15"/>
</g>
<!-- Node8 -->
<g id="node8" class="node">
<title>Node8</title>
<g id="a_node8"><a xlink:title=" ">
<polygon fill="white" stroke="#bfbfbf" points="390,-0.5 390,-19.5 515,-19.5 515,-0.5 390,-0.5"/>
<text text-anchor="middle" x="452.5" y="-7.5" font-family="Helvetica,sans-Serif" font-size="10.00">ImGuiUtil.generated.h</text>
</a>
</g>
</g>
<!-- Node7&#45;&gt;Node8 -->
<g id="edge10" class="edge">
<title>Node7&#45;&gt;Node8</title>
<path fill="none" stroke="midnightblue" d="M452.5,-56.08C452.5,-49.01 452.5,-38.86 452.5,-29.99"/>
<polygon fill="midnightblue" stroke="midnightblue" points="456,-29.75 452.5,-19.75 449,-29.75 456,-29.75"/>
</g>
</g>
</svg>
