<?xml version="1.0" encoding="UTF-8" standalone="no"?>
<!DOCTYPE svg PUBLIC "-//W3C//DTD SVG 1.1//EN"
 "http://www.w3.org/Graphics/SVG/1.1/DTD/svg11.dtd">
<!-- Generated by graphviz version 2.43.0 (0)
 -->
<!-- Title: Source/QuadSimCore/Private/Core/DroneManager.cpp Pages: 1 -->
<svg width="3247pt" height="207pt"
 viewBox="0.00 0.00 3246.50 207.00" xmlns="http://www.w3.org/2000/svg" xmlns:xlink="http://www.w3.org/1999/xlink">
<g id="graph0" class="graph" transform="scale(1 1) rotate(0) translate(4 203)">
<title>Source/QuadSimCore/Private/Core/DroneManager.cpp</title>
<polygon fill="white" stroke="transparent" points="-4,4 -4,-203 3242.5,-203 3242.5,4 -4,4"/>
<!-- Node1 -->
<g id="node1" class="node">
<title>Node1</title>
<g id="a_node1"><a xlink:title=" ">
<polygon fill="#bfbfbf" stroke="black" points="1731.5,-168.5 1731.5,-198.5 1905.5,-198.5 1905.5,-168.5 1731.5,-168.5"/>
<text text-anchor="start" x="1739.5" y="-186.5" font-family="Helvetica,sans-Serif" font-size="10.00">Source/QuadSimCore</text>
<text text-anchor="middle" x="1818.5" y="-175.5" font-family="Helvetica,sans-Serif" font-size="10.00">/Private/Core/DroneManager.cpp</text>
</a>
</g>
</g>
<!-- Node2 -->
<g id="node2" class="node">
<title>Node2</title>
<g id="a_node2"><a xlink:href="DroneManager_8h.html" target="_top" xlink:title=" ">
<polygon fill="white" stroke="black" points="223.5,-112.5 223.5,-131.5 345.5,-131.5 345.5,-112.5 223.5,-112.5"/>
<text text-anchor="middle" x="284.5" y="-119.5" font-family="Helvetica,sans-Serif" font-size="10.00">Core/DroneManager.h</text>
</a>
</g>
</g>
<!-- Node1&#45;&gt;Node2 -->
<g id="edge1" class="edge">
<title>Node1&#45;&gt;Node2</title>
<path fill="none" stroke="midnightblue" d="M1731.35,-179.12C1455.98,-168.44 607.91,-135.54 355.86,-125.77"/>
<polygon fill="midnightblue" stroke="midnightblue" points="355.85,-122.27 345.73,-125.37 355.58,-129.26 355.85,-122.27"/>
</g>
<!-- Node6 -->
<g id="node6" class="node">
<title>Node6</title>
<g id="a_node6"><a xlink:href="QuadDroneController_8h.html" target="_top" xlink:title=" ">
<polygon fill="white" stroke="black" points="701.5,-112.5 701.5,-131.5 885.5,-131.5 885.5,-112.5 701.5,-112.5"/>
<text text-anchor="middle" x="793.5" y="-119.5" font-family="Helvetica,sans-Serif" font-size="10.00">Controllers/QuadDroneController.h</text>
</a>
</g>
</g>
<!-- Node1&#45;&gt;Node6 -->
<g id="edge5" class="edge">
<title>Node1&#45;&gt;Node6</title>
<path fill="none" stroke="midnightblue" d="M1731.11,-177.43C1542.34,-166.47 1097.3,-140.64 895.8,-128.94"/>
<polygon fill="midnightblue" stroke="midnightblue" points="896,-125.44 885.81,-128.36 895.59,-132.43 896,-125.44"/>
</g>
<!-- Node12 -->
<g id="node12" class="node">
<title>Node12</title>
<g id="a_node12"><a xlink:href="QuadPawn_8h.html" target="_top" xlink:title=" ">
<polygon fill="white" stroke="black" points="1617.5,-112.5 1617.5,-131.5 1727.5,-131.5 1727.5,-112.5 1617.5,-112.5"/>
<text text-anchor="middle" x="1672.5" y="-119.5" font-family="Helvetica,sans-Serif" font-size="10.00">Pawns/QuadPawn.h</text>
</a>
</g>
</g>
<!-- Node1&#45;&gt;Node12 -->
<g id="edge14" class="edge">
<title>Node1&#45;&gt;Node12</title>
<path fill="none" stroke="midnightblue" d="M1783.9,-168.4C1759.4,-158.42 1726.84,-145.15 1703.25,-135.53"/>
<polygon fill="midnightblue" stroke="midnightblue" points="1704.33,-132.19 1693.74,-131.66 1701.68,-138.67 1704.33,-132.19"/>
</g>
<!-- Node28 -->
<g id="node28" class="node">
<title>Node28</title>
<g id="a_node28"><a xlink:title=" ">
<polygon fill="white" stroke="#bfbfbf" points="1745.5,-112.5 1745.5,-131.5 1891.5,-131.5 1891.5,-112.5 1745.5,-112.5"/>
<text text-anchor="middle" x="1818.5" y="-119.5" font-family="Helvetica,sans-Serif" font-size="10.00">Kismet/GameplayStatics.h</text>
</a>
</g>
</g>
<!-- Node1&#45;&gt;Node28 -->
<g id="edge34" class="edge">
<title>Node1&#45;&gt;Node28</title>
<path fill="none" stroke="midnightblue" d="M1818.5,-168.4C1818.5,-160.47 1818.5,-150.46 1818.5,-141.86"/>
<polygon fill="midnightblue" stroke="midnightblue" points="1822,-141.66 1818.5,-131.66 1815,-141.66 1822,-141.66"/>
</g>
<!-- Node29 -->
<g id="node29" class="node">
<title>Node29</title>
<g id="a_node29"><a xlink:title=" ">
<polygon fill="white" stroke="#bfbfbf" points="1910,-112.5 1910,-131.5 1999,-131.5 1999,-112.5 1910,-112.5"/>
<text text-anchor="middle" x="1954.5" y="-119.5" font-family="Helvetica,sans-Serif" font-size="10.00">Engine/World.h</text>
</a>
</g>
</g>
<!-- Node1&#45;&gt;Node29 -->
<g id="edge35" class="edge">
<title>Node1&#45;&gt;Node29</title>
<path fill="none" stroke="midnightblue" d="M1850.73,-168.4C1873.34,-158.51 1903.34,-145.38 1925.26,-135.79"/>
<polygon fill="midnightblue" stroke="midnightblue" points="1926.95,-138.87 1934.71,-131.66 1924.15,-132.46 1926.95,-138.87"/>
</g>
<!-- Node30 -->
<g id="node30" class="node">
<title>Node30</title>
<g id="a_node30"><a xlink:title=" ">
<polygon fill="white" stroke="#bfbfbf" points="2017,-112.5 2017,-131.5 2070,-131.5 2070,-112.5 2017,-112.5"/>
<text text-anchor="middle" x="2043.5" y="-119.5" font-family="Helvetica,sans-Serif" font-size="10.00">imgui.h</text>
</a>
</g>
</g>
<!-- Node1&#45;&gt;Node30 -->
<g id="edge36" class="edge">
<title>Node1&#45;&gt;Node30</title>
<path fill="none" stroke="midnightblue" d="M1871.54,-168.47C1913.22,-157.45 1970.19,-142.39 2006.92,-132.67"/>
<polygon fill="midnightblue" stroke="midnightblue" points="2007.94,-136.02 2016.71,-130.08 2006.15,-129.26 2007.94,-136.02"/>
</g>
<!-- Node31 -->
<g id="node31" class="node">
<title>Node31</title>
<g id="a_node31"><a xlink:title=" ">
<polygon fill="white" stroke="#bfbfbf" points="2088,-112.5 2088,-131.5 2183,-131.5 2183,-112.5 2088,-112.5"/>
<text text-anchor="middle" x="2135.5" y="-119.5" font-family="Helvetica,sans-Serif" font-size="10.00">Engine/Engine.h</text>
</a>
</g>
</g>
<!-- Node1&#45;&gt;Node31 -->
<g id="edge37" class="edge">
<title>Node1&#45;&gt;Node31</title>
<path fill="none" stroke="midnightblue" d="M1893.22,-168.47C1950.54,-157.72 2028.37,-143.11 2080.18,-133.38"/>
<polygon fill="midnightblue" stroke="midnightblue" points="2081,-136.79 2090.18,-131.51 2079.71,-129.91 2081,-136.79"/>
</g>
<!-- Node3 -->
<g id="node3" class="node">
<title>Node3</title>
<g id="a_node3"><a xlink:title=" ">
<polygon fill="white" stroke="#bfbfbf" points="970.5,-0.5 970.5,-19.5 1058.5,-19.5 1058.5,-0.5 970.5,-0.5"/>
<text text-anchor="middle" x="1014.5" y="-7.5" font-family="Helvetica,sans-Serif" font-size="10.00">CoreMinimal.h</text>
</a>
</g>
</g>
<!-- Node2&#45;&gt;Node3 -->
<g id="edge2" class="edge">
<title>Node2&#45;&gt;Node3</title>
<path fill="none" stroke="midnightblue" d="M290.27,-112.28C300.55,-97.58 323.61,-68.27 351.5,-56 472.79,-2.61 810.16,-33.69 960.3,-19.78"/>
<polygon fill="midnightblue" stroke="midnightblue" points="960.76,-23.25 970.35,-18.75 960.04,-16.29 960.76,-23.25"/>
</g>
<!-- Node4 -->
<g id="node4" class="node">
<title>Node4</title>
<g id="a_node4"><a xlink:title=" ">
<polygon fill="white" stroke="#bfbfbf" points="167,-56.5 167,-75.5 304,-75.5 304,-56.5 167,-56.5"/>
<text text-anchor="middle" x="235.5" y="-63.5" font-family="Helvetica,sans-Serif" font-size="10.00">GameFramework/Actor.h</text>
</a>
</g>
</g>
<!-- Node2&#45;&gt;Node4 -->
<g id="edge3" class="edge">
<title>Node2&#45;&gt;Node4</title>
<path fill="none" stroke="midnightblue" d="M276.41,-112.08C269.34,-104.3 258.91,-92.8 250.35,-83.37"/>
<polygon fill="midnightblue" stroke="midnightblue" points="252.75,-80.8 243.44,-75.75 247.57,-85.51 252.75,-80.8"/>
</g>
<!-- Node5 -->
<g id="node5" class="node">
<title>Node5</title>
<g id="a_node5"><a xlink:title=" ">
<polygon fill="white" stroke="#bfbfbf" points="0,-56.5 0,-75.5 149,-75.5 149,-56.5 0,-56.5"/>
<text text-anchor="middle" x="74.5" y="-63.5" font-family="Helvetica,sans-Serif" font-size="10.00">DroneManager.generated.h</text>
</a>
</g>
</g>
<!-- Node2&#45;&gt;Node5 -->
<g id="edge4" class="edge">
<title>Node2&#45;&gt;Node5</title>
<path fill="none" stroke="midnightblue" d="M251.22,-112.44C215.05,-103.14 157.12,-88.25 117.52,-78.06"/>
<polygon fill="midnightblue" stroke="midnightblue" points="118.18,-74.62 107.62,-75.52 116.43,-81.4 118.18,-74.62"/>
</g>
<!-- Node6&#45;&gt;Node3 -->
<g id="edge6" class="edge">
<title>Node6&#45;&gt;Node3</title>
<path fill="none" stroke="midnightblue" d="M783.34,-112.24C769.17,-99 746.8,-73.55 761.5,-56 763.11,-54.08 886.59,-32.77 960.43,-20.18"/>
<polygon fill="midnightblue" stroke="midnightblue" points="961.23,-23.59 970.5,-18.46 960.05,-16.69 961.23,-23.59"/>
</g>
<!-- Node7 -->
<g id="node7" class="node">
<title>Node7</title>
<g id="a_node7"><a xlink:href="QuadPIDController_8h.html" target="_top" xlink:title=" ">
<polygon fill="white" stroke="black" points="770.5,-56.5 770.5,-75.5 918.5,-75.5 918.5,-56.5 770.5,-56.5"/>
<text text-anchor="middle" x="844.5" y="-63.5" font-family="Helvetica,sans-Serif" font-size="10.00">Utility/QuadPIDController.h</text>
</a>
</g>
</g>
<!-- Node6&#45;&gt;Node7 -->
<g id="edge7" class="edge">
<title>Node6&#45;&gt;Node7</title>
<path fill="none" stroke="midnightblue" d="M801.92,-112.08C809.35,-104.22 820.35,-92.57 829.31,-83.08"/>
<polygon fill="midnightblue" stroke="midnightblue" points="831.91,-85.42 836.24,-75.75 826.82,-80.62 831.91,-85.42"/>
</g>
<!-- Node8 -->
<g id="node8" class="node">
<title>Node8</title>
<g id="a_node8"><a xlink:title=" ">
<polygon fill="white" stroke="#bfbfbf" points="361,-56.5 361,-75.5 516,-75.5 516,-56.5 361,-56.5"/>
<text text-anchor="middle" x="438.5" y="-63.5" font-family="Helvetica,sans-Serif" font-size="10.00">ROSFlightControllerSource.h</text>
</a>
</g>
</g>
<!-- Node6&#45;&gt;Node8 -->
<g id="edge9" class="edge">
<title>Node6&#45;&gt;Node8</title>
<path fill="none" stroke="midnightblue" d="M737.25,-112.44C674.02,-102.83 571.48,-87.23 504.51,-77.04"/>
<polygon fill="midnightblue" stroke="midnightblue" points="504.9,-73.56 494.49,-75.52 503.85,-80.48 504.9,-73.56"/>
</g>
<!-- Node9 -->
<g id="node9" class="node">
<title>Node9</title>
<g id="a_node9"><a xlink:href="ImGuiUtil_8h.html" target="_top" xlink:title=" ">
<polygon fill="white" stroke="black" points="936.5,-56.5 936.5,-75.5 1022.5,-75.5 1022.5,-56.5 936.5,-56.5"/>
<text text-anchor="middle" x="979.5" y="-63.5" font-family="Helvetica,sans-Serif" font-size="10.00">UI/ImGuiUtil.h</text>
</a>
</g>
</g>
<!-- Node6&#45;&gt;Node9 -->
<g id="edge10" class="edge">
<title>Node6&#45;&gt;Node9</title>
<path fill="none" stroke="midnightblue" d="M822.97,-112.44C854.67,-103.24 905.23,-88.56 940.27,-78.39"/>
<polygon fill="midnightblue" stroke="midnightblue" points="941.54,-81.67 950.17,-75.52 939.59,-74.94 941.54,-81.67"/>
</g>
<!-- Node11 -->
<g id="node11" class="node">
<title>Node11</title>
<g id="a_node11"><a xlink:title=" ">
<polygon fill="white" stroke="#bfbfbf" points="534.5,-56.5 534.5,-75.5 714.5,-75.5 714.5,-56.5 534.5,-56.5"/>
<text text-anchor="middle" x="624.5" y="-63.5" font-family="Helvetica,sans-Serif" font-size="10.00">QuadDroneController.generated.h</text>
</a>
</g>
</g>
<!-- Node6&#45;&gt;Node11 -->
<g id="edge13" class="edge">
<title>Node6&#45;&gt;Node11</title>
<path fill="none" stroke="midnightblue" d="M766.72,-112.44C738.17,-103.32 692.77,-88.81 660.96,-78.65"/>
<polygon fill="midnightblue" stroke="midnightblue" points="661.74,-75.23 651.15,-75.52 659.61,-81.89 661.74,-75.23"/>
</g>
<!-- Node7&#45;&gt;Node3 -->
<g id="edge8" class="edge">
<title>Node7&#45;&gt;Node3</title>
<path fill="none" stroke="midnightblue" d="M871.44,-56.44C900.16,-47.32 945.83,-32.81 977.82,-22.65"/>
<polygon fill="midnightblue" stroke="midnightblue" points="979.22,-25.88 987.69,-19.52 977.1,-19.21 979.22,-25.88"/>
</g>
<!-- Node9&#45;&gt;Node3 -->
<g id="edge11" class="edge">
<title>Node9&#45;&gt;Node3</title>
<path fill="none" stroke="midnightblue" d="M985.28,-56.08C990.17,-48.53 997.33,-37.49 1003.33,-28.23"/>
<polygon fill="midnightblue" stroke="midnightblue" points="1006.33,-30.05 1008.83,-19.75 1000.45,-26.24 1006.33,-30.05"/>
</g>
<!-- Node10 -->
<g id="node10" class="node">
<title>Node10</title>
<g id="a_node10"><a xlink:title=" ">
<polygon fill="white" stroke="#bfbfbf" points="827,-0.5 827,-19.5 952,-19.5 952,-0.5 827,-0.5"/>
<text text-anchor="middle" x="889.5" y="-7.5" font-family="Helvetica,sans-Serif" font-size="10.00">ImGuiUtil.generated.h</text>
</a>
</g>
</g>
<!-- Node9&#45;&gt;Node10 -->
<g id="edge12" class="edge">
<title>Node9&#45;&gt;Node10</title>
<path fill="none" stroke="midnightblue" d="M965.04,-56.32C951,-47.9 929.45,-34.97 912.96,-25.07"/>
<polygon fill="midnightblue" stroke="midnightblue" points="914.3,-21.8 903.92,-19.65 910.7,-27.8 914.3,-21.8"/>
</g>
<!-- Node12&#45;&gt;Node3 -->
<g id="edge15" class="edge">
<title>Node12&#45;&gt;Node3</title>
<path fill="none" stroke="midnightblue" d="M1617.48,-119.31C1477.89,-114.7 1117.61,-100.53 1069.5,-76 1049.19,-65.64 1033.39,-44.18 1024.04,-28.74"/>
<polygon fill="midnightblue" stroke="midnightblue" points="1026.84,-26.59 1018.84,-19.65 1020.76,-30.07 1026.84,-26.59"/>
</g>
<!-- Node12&#45;&gt;Node9 -->
<g id="edge27" class="edge">
<title>Node12&#45;&gt;Node9</title>
<path fill="none" stroke="midnightblue" d="M1617.48,-118.7C1507.06,-113.74 1250.68,-100.44 1036.5,-76 1035.24,-75.86 1033.97,-75.7 1032.68,-75.55"/>
<polygon fill="midnightblue" stroke="midnightblue" points="1033.08,-72.07 1022.71,-74.22 1032.16,-79.01 1033.08,-72.07"/>
</g>
<!-- Node13 -->
<g id="node13" class="node">
<title>Node13</title>
<g id="a_node13"><a xlink:title=" ">
<polygon fill="white" stroke="#bfbfbf" points="1226.5,-56.5 1226.5,-75.5 1364.5,-75.5 1364.5,-56.5 1226.5,-56.5"/>
<text text-anchor="middle" x="1295.5" y="-63.5" font-family="Helvetica,sans-Serif" font-size="10.00">GameFramework/Pawn.h</text>
</a>
</g>
</g>
<!-- Node12&#45;&gt;Node13 -->
<g id="edge16" class="edge">
<title>Node12&#45;&gt;Node13</title>
<path fill="none" stroke="midnightblue" d="M1617.28,-113.09C1550.38,-103.51 1437.61,-87.36 1364.9,-76.94"/>
<polygon fill="midnightblue" stroke="midnightblue" points="1365.31,-73.46 1354.92,-75.51 1364.32,-80.39 1365.31,-73.46"/>
</g>
<!-- Node14 -->
<g id="node14" class="node">
<title>Node14</title>
<g id="a_node14"><a xlink:title=" ">
<polygon fill="white" stroke="#bfbfbf" points="1383,-56.5 1383,-75.5 1544,-75.5 1544,-56.5 1383,-56.5"/>
<text text-anchor="middle" x="1463.5" y="-63.5" font-family="Helvetica,sans-Serif" font-size="10.00">Camera/CameraComponent.h</text>
</a>
</g>
</g>
<!-- Node12&#45;&gt;Node14 -->
<g id="edge17" class="edge">
<title>Node12&#45;&gt;Node14</title>
<path fill="none" stroke="midnightblue" d="M1639.38,-112.44C1603.38,-103.14 1545.73,-88.25 1506.31,-78.06"/>
<polygon fill="midnightblue" stroke="midnightblue" points="1507.02,-74.63 1496.46,-75.52 1505.27,-81.41 1507.02,-74.63"/>
</g>
<!-- Node15 -->
<g id="node15" class="node">
<title>Node15</title>
<g id="a_node15"><a xlink:title=" ">
<polygon fill="white" stroke="#bfbfbf" points="1562.5,-56.5 1562.5,-75.5 1782.5,-75.5 1782.5,-56.5 1562.5,-56.5"/>
<text text-anchor="middle" x="1672.5" y="-63.5" font-family="Helvetica,sans-Serif" font-size="10.00">GameFramework/SpringArmComponent.h</text>
</a>
</g>
</g>
<!-- Node12&#45;&gt;Node15 -->
<g id="edge18" class="edge">
<title>Node12&#45;&gt;Node15</title>
<path fill="none" stroke="midnightblue" d="M1672.5,-112.08C1672.5,-105.01 1672.5,-94.86 1672.5,-85.99"/>
<polygon fill="midnightblue" stroke="midnightblue" points="1676,-85.75 1672.5,-75.75 1669,-85.75 1676,-85.75"/>
</g>
<!-- Node16 -->
<g id="node16" class="node">
<title>Node16</title>
<g id="a_node16"><a xlink:href="ThrusterComponent_8h.html" target="_top" xlink:title=" ">
<polygon fill="white" stroke="black" points="1800.5,-56.5 1800.5,-75.5 1948.5,-75.5 1948.5,-56.5 1800.5,-56.5"/>
<text text-anchor="middle" x="1874.5" y="-63.5" font-family="Helvetica,sans-Serif" font-size="10.00">Core/ThrusterComponent.h</text>
</a>
</g>
</g>
<!-- Node12&#45;&gt;Node16 -->
<g id="edge19" class="edge">
<title>Node12&#45;&gt;Node16</title>
<path fill="none" stroke="midnightblue" d="M1704.51,-112.44C1739.23,-103.16 1794.79,-88.31 1832.88,-78.13"/>
<polygon fill="midnightblue" stroke="midnightblue" points="1833.89,-81.48 1842.64,-75.52 1832.08,-74.72 1833.89,-81.48"/>
</g>
<!-- Node19 -->
<g id="node19" class="node">
<title>Node19</title>
<g id="a_node19"><a xlink:href="NavigationComponent_8h.html" target="_top" xlink:title=" ">
<polygon fill="white" stroke="black" points="2400.5,-56.5 2400.5,-75.5 2568.5,-75.5 2568.5,-56.5 2400.5,-56.5"/>
<text text-anchor="middle" x="2484.5" y="-63.5" font-family="Helvetica,sans-Serif" font-size="10.00">Utility/NavigationComponent.h</text>
</a>
</g>
</g>
<!-- Node12&#45;&gt;Node19 -->
<g id="edge23" class="edge">
<title>Node12&#45;&gt;Node19</title>
<path fill="none" stroke="midnightblue" d="M1727.62,-112.95C1730.62,-112.6 1733.6,-112.28 1736.5,-112 2023.41,-83.99 2099.09,-97.73 2390.36,-76.05"/>
<polygon fill="midnightblue" stroke="midnightblue" points="2390.65,-79.54 2400.36,-75.3 2390.13,-72.56 2390.65,-79.54"/>
</g>
<!-- Node22 -->
<g id="node22" class="node">
<title>Node22</title>
<g id="a_node22"><a xlink:title=" ">
<polygon fill="white" stroke="#bfbfbf" points="1967,-56.5 1967,-75.5 2164,-75.5 2164,-56.5 1967,-56.5"/>
<text text-anchor="middle" x="2065.5" y="-63.5" font-family="Helvetica,sans-Serif" font-size="10.00">Components/ChildActorComponent.h</text>
</a>
</g>
</g>
<!-- Node12&#45;&gt;Node22 -->
<g id="edge28" class="edge">
<title>Node12&#45;&gt;Node22</title>
<path fill="none" stroke="midnightblue" d="M1727.66,-113.23C1730.65,-112.81 1733.61,-112.4 1736.5,-112 1824.63,-99.78 1926.06,-85.94 1992.74,-76.87"/>
<polygon fill="midnightblue" stroke="midnightblue" points="1993.29,-80.33 2002.73,-75.51 1992.34,-73.39 1993.29,-80.33"/>
</g>
<!-- Node23 -->
<g id="node23" class="node">
<title>Node23</title>
<g id="a_node23"><a xlink:title=" ">
<polygon fill="white" stroke="#bfbfbf" points="2182.5,-56.5 2182.5,-75.5 2382.5,-75.5 2382.5,-56.5 2182.5,-56.5"/>
<text text-anchor="middle" x="2282.5" y="-63.5" font-family="Helvetica,sans-Serif" font-size="10.00">Components/StaticMeshComponent.h</text>
</a>
</g>
</g>
<!-- Node12&#45;&gt;Node23 -->
<g id="edge29" class="edge">
<title>Node12&#45;&gt;Node23</title>
<path fill="none" stroke="midnightblue" d="M1727.63,-113.04C1730.63,-112.67 1733.6,-112.32 1736.5,-112 1741.86,-111.4 2014.12,-89.03 2172.09,-76.06"/>
<polygon fill="midnightblue" stroke="midnightblue" points="2172.65,-79.53 2182.33,-75.22 2172.08,-72.55 2172.65,-79.53"/>
</g>
<!-- Node24 -->
<g id="node24" class="node">
<title>Node24</title>
<g id="a_node24"><a xlink:title=" ">
<polygon fill="white" stroke="#bfbfbf" points="2586.5,-56.5 2586.5,-75.5 2798.5,-75.5 2798.5,-56.5 2586.5,-56.5"/>
<text text-anchor="middle" x="2692.5" y="-63.5" font-family="Helvetica,sans-Serif" font-size="10.00">Components/SkeletalMeshComponent.h</text>
</a>
</g>
</g>
<!-- Node12&#45;&gt;Node24 -->
<g id="edge30" class="edge">
<title>Node12&#45;&gt;Node24</title>
<path fill="none" stroke="midnightblue" d="M1727.62,-112.9C1730.62,-112.57 1733.59,-112.27 1736.5,-112 2105.79,-78.21 2202.37,-98.24 2576.29,-76.05"/>
<polygon fill="midnightblue" stroke="midnightblue" points="2576.53,-79.54 2586.3,-75.45 2576.11,-72.55 2576.53,-79.54"/>
</g>
<!-- Node25 -->
<g id="node25" class="node">
<title>Node25</title>
<g id="a_node25"><a xlink:title=" ">
<polygon fill="white" stroke="#bfbfbf" points="2817,-56.5 2817,-75.5 3044,-75.5 3044,-56.5 2817,-56.5"/>
<text text-anchor="middle" x="2930.5" y="-63.5" font-family="Helvetica,sans-Serif" font-size="10.00">Components/SceneCaptureComponent2D.h</text>
</a>
</g>
</g>
<!-- Node12&#45;&gt;Node25 -->
<g id="edge31" class="edge">
<title>Node12&#45;&gt;Node25</title>
<path fill="none" stroke="midnightblue" d="M1727.62,-112.87C1730.62,-112.55 1733.59,-112.25 1736.5,-112 2207.62,-71.07 2330.18,-100.95 2806.67,-76.02"/>
<polygon fill="midnightblue" stroke="midnightblue" points="2807.11,-79.5 2816.92,-75.47 2806.75,-72.51 2807.11,-79.5"/>
</g>
<!-- Node26 -->
<g id="node26" class="node">
<title>Node26</title>
<g id="a_node26"><a xlink:title=" ">
<polygon fill="white" stroke="#bfbfbf" points="3062.5,-56.5 3062.5,-75.5 3238.5,-75.5 3238.5,-56.5 3062.5,-56.5"/>
<text text-anchor="middle" x="3150.5" y="-63.5" font-family="Helvetica,sans-Serif" font-size="10.00">Engine/TextureRenderTarget2D.h</text>
</a>
</g>
</g>
<!-- Node12&#45;&gt;Node26 -->
<g id="edge32" class="edge">
<title>Node12&#45;&gt;Node26</title>
<path fill="none" stroke="midnightblue" d="M1727.61,-112.85C1730.62,-112.53 1733.59,-112.24 1736.5,-112 2316.59,-63.44 2467.24,-110.51 3052.1,-76.04"/>
<polygon fill="midnightblue" stroke="midnightblue" points="3052.72,-79.51 3062.49,-75.42 3052.3,-72.52 3052.72,-79.51"/>
</g>
<!-- Node27 -->
<g id="node27" class="node">
<title>Node27</title>
<g id="a_node27"><a xlink:title=" ">
<polygon fill="white" stroke="#bfbfbf" points="1079,-56.5 1079,-75.5 1208,-75.5 1208,-56.5 1079,-56.5"/>
<text text-anchor="middle" x="1143.5" y="-63.5" font-family="Helvetica,sans-Serif" font-size="10.00">QuadPawn.generated.h</text>
</a>
</g>
</g>
<!-- Node12&#45;&gt;Node27 -->
<g id="edge33" class="edge">
<title>Node12&#45;&gt;Node27</title>
<path fill="none" stroke="midnightblue" d="M1617.48,-115.96C1533.81,-108.21 1369.29,-92.62 1218.44,-76.08"/>
<polygon fill="midnightblue" stroke="midnightblue" points="1218.39,-72.55 1208.06,-74.94 1217.62,-79.51 1218.39,-72.55"/>
</g>
<!-- Node16&#45;&gt;Node3 -->
<g id="edge20" class="edge">
<title>Node16&#45;&gt;Node3</title>
<path fill="none" stroke="midnightblue" d="M1800.31,-56.77C1797.33,-56.5 1794.39,-56.24 1791.5,-56 1520.71,-33.49 1195.89,-18.58 1069.02,-13.22"/>
<polygon fill="midnightblue" stroke="midnightblue" points="1068.93,-9.71 1058.8,-12.79 1068.64,-16.7 1068.93,-9.71"/>
</g>
<!-- Node17 -->
<g id="node17" class="node">
<title>Node17</title>
<g id="a_node17"><a xlink:title=" ">
<polygon fill="white" stroke="#bfbfbf" points="1689.5,-0.5 1689.5,-19.5 1865.5,-19.5 1865.5,-0.5 1689.5,-0.5"/>
<text text-anchor="middle" x="1777.5" y="-7.5" font-family="Helvetica,sans-Serif" font-size="10.00">Components/SceneComponent.h</text>
</a>
</g>
</g>
<!-- Node16&#45;&gt;Node17 -->
<g id="edge21" class="edge">
<title>Node16&#45;&gt;Node17</title>
<path fill="none" stroke="midnightblue" d="M1858.92,-56.32C1843.5,-47.74 1819.69,-34.49 1801.79,-24.52"/>
<polygon fill="midnightblue" stroke="midnightblue" points="1803.49,-21.46 1793.05,-19.65 1800.08,-27.58 1803.49,-21.46"/>
</g>
<!-- Node18 -->
<g id="node18" class="node">
<title>Node18</title>
<g id="a_node18"><a xlink:title=" ">
<polygon fill="white" stroke="#bfbfbf" points="1884,-0.5 1884,-19.5 2059,-19.5 2059,-0.5 1884,-0.5"/>
<text text-anchor="middle" x="1971.5" y="-7.5" font-family="Helvetica,sans-Serif" font-size="10.00">ThrusterComponent.generated.h</text>
</a>
</g>
</g>
<!-- Node16&#45;&gt;Node18 -->
<g id="edge22" class="edge">
<title>Node16&#45;&gt;Node18</title>
<path fill="none" stroke="midnightblue" d="M1890.08,-56.32C1905.5,-47.74 1929.31,-34.49 1947.21,-24.52"/>
<polygon fill="midnightblue" stroke="midnightblue" points="1948.92,-27.58 1955.95,-19.65 1945.51,-21.46 1948.92,-27.58"/>
</g>
<!-- Node19&#45;&gt;Node3 -->
<g id="edge24" class="edge">
<title>Node19&#45;&gt;Node3</title>
<path fill="none" stroke="midnightblue" d="M2400.37,-56.62C2397.38,-56.39 2394.41,-56.19 2391.5,-56 1877.29,-22.75 1253.4,-13.59 1068.55,-11.53"/>
<polygon fill="midnightblue" stroke="midnightblue" points="1068.58,-8.03 1058.54,-11.42 1068.5,-15.03 1068.58,-8.03"/>
</g>
<!-- Node20 -->
<g id="node20" class="node">
<title>Node20</title>
<g id="a_node20"><a xlink:title=" ">
<polygon fill="white" stroke="#bfbfbf" points="2299.5,-0.5 2299.5,-19.5 2471.5,-19.5 2471.5,-0.5 2299.5,-0.5"/>
<text text-anchor="middle" x="2385.5" y="-7.5" font-family="Helvetica,sans-Serif" font-size="10.00">Components/ActorComponent.h</text>
</a>
</g>
</g>
<!-- Node19&#45;&gt;Node20 -->
<g id="edge25" class="edge">
<title>Node19&#45;&gt;Node20</title>
<path fill="none" stroke="midnightblue" d="M2468.59,-56.32C2452.86,-47.74 2428.56,-34.49 2410.29,-24.52"/>
<polygon fill="midnightblue" stroke="midnightblue" points="2411.82,-21.37 2401.37,-19.65 2408.47,-27.52 2411.82,-21.37"/>
</g>
<!-- Node21 -->
<g id="node21" class="node">
<title>Node21</title>
<g id="a_node21"><a xlink:title=" ">
<polygon fill="white" stroke="#bfbfbf" points="2489.5,-0.5 2489.5,-19.5 2677.5,-19.5 2677.5,-0.5 2489.5,-0.5"/>
<text text-anchor="middle" x="2583.5" y="-7.5" font-family="Helvetica,sans-Serif" font-size="10.00">NavigationComponent.generated.h</text>
</a>
</g>
</g>
<!-- Node19&#45;&gt;Node21 -->
<g id="edge26" class="edge">
<title>Node19&#45;&gt;Node21</title>
<path fill="none" stroke="midnightblue" d="M2500.41,-56.32C2516.14,-47.74 2540.44,-34.49 2558.71,-24.52"/>
<polygon fill="midnightblue" stroke="midnightblue" points="2560.53,-27.52 2567.63,-19.65 2557.18,-21.37 2560.53,-27.52"/>
</g>
</g>
</svg>
