<?xml version="1.0" encoding="UTF-8" standalone="no"?>
<!DOCTYPE svg PUBLIC "-//W3C//DTD SVG 1.1//EN"
 "http://www.w3.org/Graphics/SVG/1.1/DTD/svg11.dtd">
<!-- Generated by graphviz version 2.43.0 (0)
 -->
<!-- Title: Source/QuadSimCore/Public/UI/ImGuiUtil.h Pages: 1 -->
<svg width="1432pt" height="195pt"
 viewBox="0.00 0.00 1432.00 195.00" xmlns="http://www.w3.org/2000/svg" xmlns:xlink="http://www.w3.org/1999/xlink">
<g id="graph0" class="graph" transform="scale(1 1) rotate(0) translate(4 191)">
<title>Source/QuadSimCore/Public/UI/ImGuiUtil.h</title>
<polygon fill="white" stroke="transparent" points="-4,4 -4,-191 1428,-191 1428,4 -4,4"/>
<!-- Node1 -->
<g id="node1" class="node">
<title>Node1</title>
<g id="a_node1"><a xlink:title=" ">
<polygon fill="#bfbfbf" stroke="black" points="524.5,-156.5 524.5,-186.5 645.5,-186.5 645.5,-156.5 524.5,-156.5"/>
<text text-anchor="start" x="532.5" y="-174.5" font-family="Helvetica,sans-Serif" font-size="10.00">Source/QuadSimCore</text>
<text text-anchor="middle" x="585" y="-163.5" font-family="Helvetica,sans-Serif" font-size="10.00">/Public/UI/ImGuiUtil.h</text>
</a>
</g>
</g>
<!-- Node2 -->
<g id="node2" class="node">
<title>Node2</title>
<g id="a_node2"><a xlink:href="QuadDroneController_8cpp.html" target="_top" xlink:title=" ">
<polygon fill="white" stroke="black" points="0,-0.5 0,-41.5 142,-41.5 142,-0.5 0,-0.5"/>
<text text-anchor="start" x="8" y="-29.5" font-family="Helvetica,sans-Serif" font-size="10.00">Source/QuadSimCore</text>
<text text-anchor="start" x="8" y="-18.5" font-family="Helvetica,sans-Serif" font-size="10.00">/Private/Controllers</text>
<text text-anchor="middle" x="71" y="-7.5" font-family="Helvetica,sans-Serif" font-size="10.00">/QuadDroneController.cpp</text>
</a>
</g>
</g>
<!-- Node1&#45;&gt;Node2 -->
<g id="edge1" class="edge">
<title>Node1&#45;&gt;Node2</title>
<path fill="none" stroke="midnightblue" d="M526.36,-153.56C430.4,-125.84 240.4,-70.94 138.81,-41.59"/>
<polygon fill="midnightblue" stroke="midnightblue" points="525.6,-156.98 536.18,-156.4 527.55,-150.26 525.6,-156.98"/>
</g>
<!-- Node3 -->
<g id="node3" class="node">
<title>Node3</title>
<g id="a_node3"><a xlink:href="QuadPawn_8cpp.html" target="_top" xlink:title=" ">
<polygon fill="white" stroke="black" points="368,-6 368,-36 530,-36 530,-6 368,-6"/>
<text text-anchor="start" x="376" y="-24" font-family="Helvetica,sans-Serif" font-size="10.00">Source/QuadSimCore</text>
<text text-anchor="middle" x="449" y="-13" font-family="Helvetica,sans-Serif" font-size="10.00">/Private/Pawns/QuadPawn.cpp</text>
</a>
</g>
</g>
<!-- Node1&#45;&gt;Node3 -->
<g id="edge2" class="edge">
<title>Node1&#45;&gt;Node3</title>
<path fill="none" stroke="midnightblue" d="M549.76,-151.09C536.35,-142.65 521.53,-131.95 510,-120 485.09,-94.18 465.19,-56.56 455.48,-36.26"/>
<polygon fill="midnightblue" stroke="midnightblue" points="547.96,-154.1 558.32,-156.31 551.6,-148.12 547.96,-154.1"/>
</g>
<!-- Node4 -->
<g id="node4" class="node">
<title>Node4</title>
<g id="a_node4"><a xlink:href="ImGuiUtil_8cpp.html" target="_top" xlink:title=" ">
<polygon fill="white" stroke="black" points="878.5,-6 878.5,-36 1015.5,-36 1015.5,-6 878.5,-6"/>
<text text-anchor="start" x="886.5" y="-24" font-family="Helvetica,sans-Serif" font-size="10.00">Source/QuadSimCore</text>
<text text-anchor="middle" x="947" y="-13" font-family="Helvetica,sans-Serif" font-size="10.00">/Private/UI/ImGuiUtil.cpp</text>
</a>
</g>
</g>
<!-- Node1&#45;&gt;Node4 -->
<g id="edge3" class="edge">
<title>Node1&#45;&gt;Node4</title>
<path fill="none" stroke="midnightblue" d="M655.92,-167.4C710.06,-162.57 785.11,-150.4 844,-120 884.14,-99.28 919.52,-58.11 936.44,-36.31"/>
<polygon fill="midnightblue" stroke="midnightblue" points="655.41,-163.94 645.73,-168.25 655.98,-170.91 655.41,-163.94"/>
</g>
<!-- Node5 -->
<g id="node5" class="node">
<title>Node5</title>
<g id="a_node5"><a xlink:href="QuadDroneController_8h.html" target="_top" xlink:title=" ">
<polygon fill="white" stroke="black" points="519.5,-78.5 519.5,-119.5 650.5,-119.5 650.5,-78.5 519.5,-78.5"/>
<text text-anchor="start" x="527.5" y="-107.5" font-family="Helvetica,sans-Serif" font-size="10.00">Source/QuadSimCore</text>
<text text-anchor="start" x="527.5" y="-96.5" font-family="Helvetica,sans-Serif" font-size="10.00">/Public/Controllers</text>
<text text-anchor="middle" x="585" y="-85.5" font-family="Helvetica,sans-Serif" font-size="10.00">/QuadDroneController.h</text>
</a>
</g>
</g>
<!-- Node1&#45;&gt;Node5 -->
<g id="edge4" class="edge">
<title>Node1&#45;&gt;Node5</title>
<path fill="none" stroke="midnightblue" d="M585,-145.98C585,-137.35 585,-127.76 585,-119.59"/>
<polygon fill="midnightblue" stroke="midnightblue" points="581.5,-146.23 585,-156.23 588.5,-146.23 581.5,-146.23"/>
</g>
<!-- Node9 -->
<g id="node9" class="node">
<title>Node9</title>
<g id="a_node9"><a xlink:href="QuadPawn_8h.html" target="_top" xlink:title=" ">
<polygon fill="white" stroke="black" points="689,-84 689,-114 835,-114 835,-84 689,-84"/>
<text text-anchor="start" x="697" y="-102" font-family="Helvetica,sans-Serif" font-size="10.00">Source/QuadSimCore</text>
<text text-anchor="middle" x="762" y="-91" font-family="Helvetica,sans-Serif" font-size="10.00">/Public/Pawns/QuadPawn.h</text>
</a>
</g>
</g>
<!-- Node1&#45;&gt;Node9 -->
<g id="edge11" class="edge">
<title>Node1&#45;&gt;Node9</title>
<path fill="none" stroke="midnightblue" d="M629.8,-152.65C659.83,-140.69 698.83,-125.16 726.67,-114.07"/>
<polygon fill="midnightblue" stroke="midnightblue" points="628.39,-149.45 620.39,-156.4 630.98,-155.95 628.39,-149.45"/>
</g>
<!-- Node5&#45;&gt;Node2 -->
<g id="edge5" class="edge">
<title>Node5&#45;&gt;Node2</title>
<path fill="none" stroke="midnightblue" d="M509.14,-90.92C422.18,-82.18 275.59,-65.53 151,-42 148.05,-41.44 145.04,-40.84 142.01,-40.21"/>
<polygon fill="midnightblue" stroke="midnightblue" points="508.89,-94.41 519.19,-91.92 509.58,-87.45 508.89,-94.41"/>
</g>
<!-- Node5&#45;&gt;Node3 -->
<g id="edge9" class="edge">
<title>Node5&#45;&gt;Node3</title>
<path fill="none" stroke="midnightblue" d="M541.12,-73.48C519.09,-61.17 493.18,-46.69 474.46,-36.23"/>
<polygon fill="midnightblue" stroke="midnightblue" points="539.54,-76.61 549.98,-78.43 542.95,-70.49 539.54,-76.61"/>
</g>
<!-- Node5&#45;&gt;Node4 -->
<g id="edge10" class="edge">
<title>Node5&#45;&gt;Node4</title>
<path fill="none" stroke="midnightblue" d="M660.82,-81.9C667.3,-80.57 673.76,-79.25 680,-78 763.84,-61.19 785.54,-60.63 869,-42 877.19,-40.17 885.82,-38.1 894.24,-36.01"/>
<polygon fill="midnightblue" stroke="midnightblue" points="659.72,-78.56 650.64,-84.01 661.14,-85.41 659.72,-78.56"/>
</g>
<!-- Node6 -->
<g id="node6" class="node">
<title>Node6</title>
<g id="a_node6"><a xlink:href="ROS2Controller_8cpp.html" target="_top" xlink:title=" ">
<polygon fill="white" stroke="black" points="548.5,-0.5 548.5,-41.5 667.5,-41.5 667.5,-0.5 548.5,-0.5"/>
<text text-anchor="start" x="556.5" y="-29.5" font-family="Helvetica,sans-Serif" font-size="10.00">Source/QuadSimCore</text>
<text text-anchor="start" x="556.5" y="-18.5" font-family="Helvetica,sans-Serif" font-size="10.00">/Private/Controllers</text>
<text text-anchor="middle" x="608" y="-7.5" font-family="Helvetica,sans-Serif" font-size="10.00">/ROS2Controller.cpp</text>
</a>
</g>
</g>
<!-- Node5&#45;&gt;Node6 -->
<g id="edge6" class="edge">
<title>Node5&#45;&gt;Node6</title>
<path fill="none" stroke="midnightblue" d="M593.9,-68.59C596.65,-59.51 599.6,-49.74 602.1,-41.51"/>
<polygon fill="midnightblue" stroke="midnightblue" points="590.47,-67.84 590.92,-78.43 597.17,-69.87 590.47,-67.84"/>
</g>
<!-- Node7 -->
<g id="node7" class="node">
<title>Node7</title>
<g id="a_node7"><a xlink:href="DroneGlobalState_8cpp.html" target="_top" xlink:title=" ">
<polygon fill="white" stroke="black" points="160.5,-6 160.5,-36 349.5,-36 349.5,-6 160.5,-6"/>
<text text-anchor="start" x="168.5" y="-24" font-family="Helvetica,sans-Serif" font-size="10.00">Source/QuadSimCore</text>
<text text-anchor="middle" x="255" y="-13" font-family="Helvetica,sans-Serif" font-size="10.00">/Private/Core/DroneGlobalState.cpp</text>
</a>
</g>
</g>
<!-- Node5&#45;&gt;Node7 -->
<g id="edge7" class="edge">
<title>Node5&#45;&gt;Node7</title>
<path fill="none" stroke="midnightblue" d="M509.46,-80.6C450.83,-67.1 370.6,-48.62 316.01,-36.05"/>
<polygon fill="midnightblue" stroke="midnightblue" points="508.88,-84.06 519.41,-82.89 510.45,-77.24 508.88,-84.06"/>
</g>
<!-- Node8 -->
<g id="node8" class="node">
<title>Node8</title>
<g id="a_node8"><a xlink:href="DroneManager_8cpp.html" target="_top" xlink:title=" ">
<polygon fill="white" stroke="black" points="686,-6 686,-36 860,-36 860,-6 686,-6"/>
<text text-anchor="start" x="694" y="-24" font-family="Helvetica,sans-Serif" font-size="10.00">Source/QuadSimCore</text>
<text text-anchor="middle" x="773" y="-13" font-family="Helvetica,sans-Serif" font-size="10.00">/Private/Core/DroneManager.cpp</text>
</a>
</g>
</g>
<!-- Node5&#45;&gt;Node8 -->
<g id="edge8" class="edge">
<title>Node5&#45;&gt;Node8</title>
<path fill="none" stroke="midnightblue" d="M642.86,-74.61C674.01,-62.02 711.41,-46.9 738.1,-36.11"/>
<polygon fill="midnightblue" stroke="midnightblue" points="641.37,-71.44 633.41,-78.43 644,-77.93 641.37,-71.44"/>
</g>
<!-- Node9&#45;&gt;Node2 -->
<g id="edge12" class="edge">
<title>Node9&#45;&gt;Node2</title>
<path fill="none" stroke="midnightblue" d="M685.85,-82.14C676.83,-80.58 667.73,-79.15 659,-78 434.6,-48.37 374.53,-77.58 151,-42 148.17,-41.55 145.3,-41.05 142.4,-40.51"/>
<polygon fill="midnightblue" stroke="midnightblue" points="685.52,-85.64 695.98,-83.95 686.75,-78.75 685.52,-85.64"/>
</g>
<!-- Node9&#45;&gt;Node3 -->
<g id="edge15" class="edge">
<title>Node9&#45;&gt;Node3</title>
<path fill="none" stroke="midnightblue" d="M694.4,-81.59C638.43,-67.99 559.75,-48.89 506.7,-36.01"/>
<polygon fill="midnightblue" stroke="midnightblue" points="693.68,-85.01 704.23,-83.97 695.33,-78.21 693.68,-85.01"/>
</g>
<!-- Node9&#45;&gt;Node4 -->
<g id="edge17" class="edge">
<title>Node9&#45;&gt;Node4</title>
<path fill="none" stroke="midnightblue" d="M805.7,-80.05C838.45,-66.59 882.63,-48.44 912.82,-36.04"/>
<polygon fill="midnightblue" stroke="midnightblue" points="804.28,-76.85 796.36,-83.88 806.94,-83.32 804.28,-76.85"/>
</g>
<!-- Node9&#45;&gt;Node6 -->
<g id="edge13" class="edge">
<title>Node9&#45;&gt;Node6</title>
<path fill="none" stroke="midnightblue" d="M724.21,-79.35C701.01,-67.9 671.33,-53.25 647.77,-41.63"/>
<polygon fill="midnightblue" stroke="midnightblue" points="722.88,-82.6 733.39,-83.88 725.98,-76.32 722.88,-82.6"/>
</g>
<!-- Node9&#45;&gt;Node8 -->
<g id="edge14" class="edge">
<title>Node9&#45;&gt;Node8</title>
<path fill="none" stroke="midnightblue" d="M765.53,-73.59C767.32,-61.26 769.42,-46.72 770.94,-36.23"/>
<polygon fill="midnightblue" stroke="midnightblue" points="762.04,-73.31 764.07,-83.7 768.97,-74.31 762.04,-73.31"/>
</g>
<!-- Node10 -->
<g id="node10" class="node">
<title>Node10</title>
<g id="a_node10"><a xlink:href="QuadSimGameMode_8cpp.html" target="_top" xlink:title=" ">
<polygon fill="white" stroke="black" points="1246,-6 1246,-36 1424,-36 1424,-6 1246,-6"/>
<text text-anchor="start" x="1254" y="-24" font-family="Helvetica,sans-Serif" font-size="10.00">Source/QuadSimCore</text>
<text text-anchor="middle" x="1335" y="-13" font-family="Helvetica,sans-Serif" font-size="10.00">/Private/QuadSimGameMode.cpp</text>
</a>
</g>
</g>
<!-- Node9&#45;&gt;Node10 -->
<g id="edge16" class="edge">
<title>Node9&#45;&gt;Node10</title>
<path fill="none" stroke="midnightblue" d="M845.41,-90.39C940.68,-81.18 1101.09,-64.13 1238,-42 1248.69,-40.27 1260,-38.18 1270.97,-36.02"/>
<polygon fill="midnightblue" stroke="midnightblue" points="844.87,-86.92 835.26,-91.36 845.54,-93.89 844.87,-86.92"/>
</g>
<!-- Node11 -->
<g id="node11" class="node">
<title>Node11</title>
<g id="a_node11"><a xlink:href="ObstacleManager_8cpp.html" target="_top" xlink:title=" ">
<polygon fill="white" stroke="black" points="1033.5,-6 1033.5,-36 1228.5,-36 1228.5,-6 1033.5,-6"/>
<text text-anchor="start" x="1041.5" y="-24" font-family="Helvetica,sans-Serif" font-size="10.00">Source/QuadSimCore</text>
<text text-anchor="middle" x="1131" y="-13" font-family="Helvetica,sans-Serif" font-size="10.00">/Private/Utility/ObstacleManager.cpp</text>
</a>
</g>
</g>
<!-- Node9&#45;&gt;Node11 -->
<g id="edge18" class="edge">
<title>Node9&#45;&gt;Node11</title>
<path fill="none" stroke="midnightblue" d="M840.06,-81.92C906.14,-68.31 999.92,-49 1062.98,-36.01"/>
<polygon fill="midnightblue" stroke="midnightblue" points="839.2,-78.53 830.11,-83.97 840.61,-85.38 839.2,-78.53"/>
</g>
</g>
</svg>
