<?xml version="1.0" encoding="UTF-8" standalone="no"?>
<!DOCTYPE svg PUBLIC "-//W3C//DTD SVG 1.1//EN"
 "http://www.w3.org/Graphics/SVG/1.1/DTD/svg11.dtd">
<!-- Generated by graphviz version 2.43.0 (0)
 -->
<!-- Title: Source/QuadSimCore/Private/UI/ImGuiUtil.cpp Pages: 1 -->
<svg width="4031pt" height="207pt"
 viewBox="0.00 0.00 4030.50 207.00" xmlns="http://www.w3.org/2000/svg" xmlns:xlink="http://www.w3.org/1999/xlink">
<g id="graph0" class="graph" transform="scale(1 1) rotate(0) translate(4 203)">
<title>Source/QuadSimCore/Private/UI/ImGuiUtil.cpp</title>
<polygon fill="white" stroke="transparent" points="-4,4 -4,-203 4026.5,-203 4026.5,4 -4,4"/>
<!-- Node1 -->
<g id="node1" class="node">
<title>Node1</title>
<g id="a_node1"><a xlink:title=" ">
<polygon fill="#bfbfbf" stroke="black" points="3198,-168.5 3198,-198.5 3335,-198.5 3335,-168.5 3198,-168.5"/>
<text text-anchor="start" x="3206" y="-186.5" font-family="Helvetica,sans-Serif" font-size="10.00">Source/QuadSimCore</text>
<text text-anchor="middle" x="3266.5" y="-175.5" font-family="Helvetica,sans-Serif" font-size="10.00">/Private/UI/ImGuiUtil.cpp</text>
</a>
</g>
</g>
<!-- Node2 -->
<g id="node2" class="node">
<title>Node2</title>
<g id="a_node2"><a xlink:href="ImGuiUtil_8h.html" target="_top" xlink:title=" ">
<polygon fill="white" stroke="black" points="2215.5,-56.5 2215.5,-75.5 2301.5,-75.5 2301.5,-56.5 2215.5,-56.5"/>
<text text-anchor="middle" x="2258.5" y="-63.5" font-family="Helvetica,sans-Serif" font-size="10.00">UI/ImGuiUtil.h</text>
</a>
</g>
</g>
<!-- Node1&#45;&gt;Node2 -->
<g id="edge1" class="edge">
<title>Node1&#45;&gt;Node2</title>
<path fill="none" stroke="midnightblue" d="M3197.93,-181.21C3069.21,-178.01 2782.85,-167.21 2544.5,-132 2455.82,-118.9 2353.86,-93.08 2298.82,-78.23"/>
<polygon fill="midnightblue" stroke="midnightblue" points="2299.67,-74.83 2289.1,-75.59 2297.83,-81.59 2299.67,-74.83"/>
</g>
<!-- Node5 -->
<g id="node5" class="node">
<title>Node5</title>
<g id="a_node5"><a xlink:title=" ">
<polygon fill="white" stroke="#bfbfbf" points="3167,-112.5 3167,-131.5 3220,-131.5 3220,-112.5 3167,-112.5"/>
<text text-anchor="middle" x="3193.5" y="-119.5" font-family="Helvetica,sans-Serif" font-size="10.00">imgui.h</text>
</a>
</g>
</g>
<!-- Node1&#45;&gt;Node5 -->
<g id="edge4" class="edge">
<title>Node1&#45;&gt;Node5</title>
<path fill="none" stroke="midnightblue" d="M3249.2,-168.4C3238.05,-159.31 3223.55,-147.49 3212.14,-138.19"/>
<polygon fill="midnightblue" stroke="midnightblue" points="3214.08,-135.26 3204.12,-131.66 3209.66,-140.69 3214.08,-135.26"/>
</g>
<!-- Node6 -->
<g id="node6" class="node">
<title>Node6</title>
<g id="a_node6"><a xlink:title=" ">
<polygon fill="white" stroke="#bfbfbf" points="3238,-112.5 3238,-131.5 3295,-131.5 3295,-112.5 3238,-112.5"/>
<text text-anchor="middle" x="3266.5" y="-119.5" font-family="Helvetica,sans-Serif" font-size="10.00">implot.h</text>
</a>
</g>
</g>
<!-- Node1&#45;&gt;Node6 -->
<g id="edge5" class="edge">
<title>Node1&#45;&gt;Node6</title>
<path fill="none" stroke="midnightblue" d="M3266.5,-168.4C3266.5,-160.47 3266.5,-150.46 3266.5,-141.86"/>
<polygon fill="midnightblue" stroke="midnightblue" points="3270,-141.66 3266.5,-131.66 3263,-141.66 3270,-141.66"/>
</g>
<!-- Node7 -->
<g id="node7" class="node">
<title>Node7</title>
<g id="a_node7"><a xlink:href="QuadPawn_8h.html" target="_top" xlink:title=" ">
<polygon fill="white" stroke="black" points="1380.5,-112.5 1380.5,-131.5 1490.5,-131.5 1490.5,-112.5 1380.5,-112.5"/>
<text text-anchor="middle" x="1435.5" y="-119.5" font-family="Helvetica,sans-Serif" font-size="10.00">Pawns/QuadPawn.h</text>
</a>
</g>
</g>
<!-- Node1&#45;&gt;Node7 -->
<g id="edge6" class="edge">
<title>Node1&#45;&gt;Node7</title>
<path fill="none" stroke="midnightblue" d="M3197.79,-180.27C2907.63,-170.84 1784.61,-134.34 1500.89,-125.13"/>
<polygon fill="midnightblue" stroke="midnightblue" points="1500.87,-121.62 1490.76,-124.8 1500.65,-128.62 1500.87,-121.62"/>
</g>
<!-- Node23 -->
<g id="node23" class="node">
<title>Node23</title>
<g id="a_node23"><a xlink:title=" ">
<polygon fill="white" stroke="#bfbfbf" points="3313.5,-112.5 3313.5,-131.5 3357.5,-131.5 3357.5,-112.5 3313.5,-112.5"/>
<text text-anchor="middle" x="3335.5" y="-119.5" font-family="Helvetica,sans-Serif" font-size="10.00">string</text>
</a>
</g>
</g>
<!-- Node1&#45;&gt;Node23 -->
<g id="edge26" class="edge">
<title>Node1&#45;&gt;Node23</title>
<path fill="none" stroke="midnightblue" d="M3282.85,-168.4C3293.4,-159.31 3307.1,-147.49 3317.88,-138.19"/>
<polygon fill="midnightblue" stroke="midnightblue" points="3320.17,-140.84 3325.46,-131.66 3315.6,-135.54 3320.17,-140.84"/>
</g>
<!-- Node24 -->
<g id="node24" class="node">
<title>Node24</title>
<g id="a_node24"><a xlink:href="QuadDroneController_8h.html" target="_top" xlink:title=" ">
<polygon fill="white" stroke="black" points="2553.5,-112.5 2553.5,-131.5 2737.5,-131.5 2737.5,-112.5 2553.5,-112.5"/>
<text text-anchor="middle" x="2645.5" y="-119.5" font-family="Helvetica,sans-Serif" font-size="10.00">Controllers/QuadDroneController.h</text>
</a>
</g>
</g>
<!-- Node1&#45;&gt;Node24 -->
<g id="edge27" class="edge">
<title>Node1&#45;&gt;Node24</title>
<path fill="none" stroke="midnightblue" d="M3197.97,-175.93C3087.94,-165.39 2871.42,-144.65 2744.57,-132.49"/>
<polygon fill="midnightblue" stroke="midnightblue" points="2744.75,-128.99 2734.47,-131.52 2744.09,-135.96 2744.75,-128.99"/>
</g>
<!-- Node28 -->
<g id="node28" class="node">
<title>Node28</title>
<g id="a_node28"><a xlink:title=" ">
<polygon fill="white" stroke="#bfbfbf" points="3375.5,-112.5 3375.5,-131.5 3521.5,-131.5 3521.5,-112.5 3375.5,-112.5"/>
<text text-anchor="middle" x="3448.5" y="-119.5" font-family="Helvetica,sans-Serif" font-size="10.00">Kismet/GameplayStatics.h</text>
</a>
</g>
</g>
<!-- Node1&#45;&gt;Node28 -->
<g id="edge34" class="edge">
<title>Node1&#45;&gt;Node28</title>
<path fill="none" stroke="midnightblue" d="M3309.63,-168.4C3341.08,-158.12 3383.19,-144.35 3412.77,-134.68"/>
<polygon fill="midnightblue" stroke="midnightblue" points="3413.87,-138.01 3422.28,-131.57 3411.69,-131.35 3413.87,-138.01"/>
</g>
<!-- Node29 -->
<g id="node29" class="node">
<title>Node29</title>
<g id="a_node29"><a xlink:href="DroneJSONConfig_8h.html" target="_top" xlink:title=" ">
<polygon fill="white" stroke="black" points="2873,-112.5 2873,-131.5 3008,-131.5 3008,-112.5 2873,-112.5"/>
<text text-anchor="middle" x="2940.5" y="-119.5" font-family="Helvetica,sans-Serif" font-size="10.00">Core/DroneJSONConfig.h</text>
</a>
</g>
</g>
<!-- Node1&#45;&gt;Node29 -->
<g id="edge35" class="edge">
<title>Node1&#45;&gt;Node29</title>
<path fill="none" stroke="midnightblue" d="M3197.76,-169.95C3138.15,-159.07 3052.9,-143.51 2997.13,-133.34"/>
<polygon fill="midnightblue" stroke="midnightblue" points="2997.54,-129.85 2987.08,-131.5 2996.28,-136.74 2997.54,-129.85"/>
</g>
<!-- Node31 -->
<g id="node31" class="node">
<title>Node31</title>
<g id="a_node31"><a xlink:title=" ">
<polygon fill="white" stroke="#bfbfbf" points="3539.5,-112.5 3539.5,-131.5 3639.5,-131.5 3639.5,-112.5 3539.5,-112.5"/>
<text text-anchor="middle" x="3589.5" y="-119.5" font-family="Helvetica,sans-Serif" font-size="10.00">Misc/FileHelper.h</text>
</a>
</g>
</g>
<!-- Node1&#45;&gt;Node31 -->
<g id="edge38" class="edge">
<title>Node1&#45;&gt;Node31</title>
<path fill="none" stroke="midnightblue" d="M3335.4,-169.81C3394.35,-158.95 3478.17,-143.51 3533.18,-133.37"/>
<polygon fill="midnightblue" stroke="midnightblue" points="3533.9,-136.8 3543.1,-131.55 3532.63,-129.92 3533.9,-136.8"/>
</g>
<!-- Node32 -->
<g id="node32" class="node">
<title>Node32</title>
<g id="a_node32"><a xlink:title=" ">
<polygon fill="white" stroke="#bfbfbf" points="3658,-112.5 3658,-131.5 3735,-131.5 3735,-112.5 3658,-112.5"/>
<text text-anchor="middle" x="3696.5" y="-119.5" font-family="Helvetica,sans-Serif" font-size="10.00">Misc/Paths.h</text>
</a>
</g>
</g>
<!-- Node1&#45;&gt;Node32 -->
<g id="edge39" class="edge">
<title>Node1&#45;&gt;Node32</title>
<path fill="none" stroke="midnightblue" d="M3335.32,-174.53C3409.76,-165.66 3532.16,-150.34 3647.68,-132.06"/>
<polygon fill="midnightblue" stroke="midnightblue" points="3648.43,-135.48 3657.76,-130.45 3647.33,-128.57 3648.43,-135.48"/>
</g>
<!-- Node33 -->
<g id="node33" class="node">
<title>Node33</title>
<g id="a_node33"><a xlink:title=" ">
<polygon fill="white" stroke="#bfbfbf" points="3753,-112.5 3753,-131.5 3852,-131.5 3852,-112.5 3753,-112.5"/>
<text text-anchor="middle" x="3802.5" y="-119.5" font-family="Helvetica,sans-Serif" font-size="10.00">Misc/DateTime.h</text>
</a>
</g>
</g>
<!-- Node1&#45;&gt;Node33 -->
<g id="edge40" class="edge">
<title>Node1&#45;&gt;Node33</title>
<path fill="none" stroke="midnightblue" d="M3335.09,-176.31C3426.04,-167.87 3591.76,-151.67 3742.91,-132.16"/>
<polygon fill="midnightblue" stroke="midnightblue" points="3743.38,-135.63 3752.85,-130.87 3742.48,-128.68 3743.38,-135.63"/>
</g>
<!-- Node34 -->
<g id="node34" class="node">
<title>Node34</title>
<g id="a_node34"><a xlink:href="DroneManager_8h.html" target="_top" xlink:title=" ">
<polygon fill="white" stroke="black" points="3026.5,-112.5 3026.5,-131.5 3148.5,-131.5 3148.5,-112.5 3026.5,-112.5"/>
<text text-anchor="middle" x="3087.5" y="-119.5" font-family="Helvetica,sans-Serif" font-size="10.00">Core/DroneManager.h</text>
</a>
</g>
</g>
<!-- Node1&#45;&gt;Node34 -->
<g id="edge41" class="edge">
<title>Node1&#45;&gt;Node34</title>
<path fill="none" stroke="midnightblue" d="M3224.08,-168.4C3193.28,-158.16 3152.09,-144.47 3123.02,-134.81"/>
<polygon fill="midnightblue" stroke="midnightblue" points="3123.88,-131.4 3113.28,-131.57 3121.67,-138.05 3123.88,-131.4"/>
</g>
<!-- Node37 -->
<g id="node37" class="node">
<title>Node37</title>
<g id="a_node37"><a xlink:title=" ">
<polygon fill="white" stroke="#bfbfbf" points="3870.5,-112.5 3870.5,-131.5 4022.5,-131.5 4022.5,-112.5 3870.5,-112.5"/>
<text text-anchor="middle" x="3946.5" y="-119.5" font-family="Helvetica,sans-Serif" font-size="10.00">Interfaces/IPluginManager.h</text>
</a>
</g>
</g>
<!-- Node1&#45;&gt;Node37 -->
<g id="edge45" class="edge">
<title>Node1&#45;&gt;Node37</title>
<path fill="none" stroke="midnightblue" d="M3335.26,-177.13C3444.19,-168.52 3663.44,-150.78 3859.83,-132.14"/>
<polygon fill="midnightblue" stroke="midnightblue" points="3860.43,-135.6 3870.05,-131.17 3859.77,-128.63 3860.43,-135.6"/>
</g>
<!-- Node3 -->
<g id="node3" class="node">
<title>Node3</title>
<g id="a_node3"><a xlink:title=" ">
<polygon fill="white" stroke="#bfbfbf" points="2344.5,-0.5 2344.5,-19.5 2432.5,-19.5 2432.5,-0.5 2344.5,-0.5"/>
<text text-anchor="middle" x="2388.5" y="-7.5" font-family="Helvetica,sans-Serif" font-size="10.00">CoreMinimal.h</text>
</a>
</g>
</g>
<!-- Node2&#45;&gt;Node3 -->
<g id="edge2" class="edge">
<title>Node2&#45;&gt;Node3</title>
<path fill="none" stroke="midnightblue" d="M2279.1,-56.44C2300.49,-47.56 2334.18,-33.56 2358.52,-23.45"/>
<polygon fill="midnightblue" stroke="midnightblue" points="2360.11,-26.58 2368,-19.52 2357.42,-20.12 2360.11,-26.58"/>
</g>
<!-- Node4 -->
<g id="node4" class="node">
<title>Node4</title>
<g id="a_node4"><a xlink:title=" ">
<polygon fill="white" stroke="#bfbfbf" points="2196,-0.5 2196,-19.5 2321,-19.5 2321,-0.5 2196,-0.5"/>
<text text-anchor="middle" x="2258.5" y="-7.5" font-family="Helvetica,sans-Serif" font-size="10.00">ImGuiUtil.generated.h</text>
</a>
</g>
</g>
<!-- Node2&#45;&gt;Node4 -->
<g id="edge3" class="edge">
<title>Node2&#45;&gt;Node4</title>
<path fill="none" stroke="midnightblue" d="M2258.5,-56.08C2258.5,-49.01 2258.5,-38.86 2258.5,-29.99"/>
<polygon fill="midnightblue" stroke="midnightblue" points="2262,-29.75 2258.5,-19.75 2255,-29.75 2262,-29.75"/>
</g>
<!-- Node7&#45;&gt;Node2 -->
<g id="edge19" class="edge">
<title>Node7&#45;&gt;Node2</title>
<path fill="none" stroke="midnightblue" d="M1490.93,-119.6C1617.29,-116.02 1936.28,-104.66 2201.5,-76 2202.76,-75.86 2204.04,-75.72 2205.32,-75.57"/>
<polygon fill="midnightblue" stroke="midnightblue" points="2205.83,-79.03 2215.3,-74.28 2204.93,-72.09 2205.83,-79.03"/>
</g>
<!-- Node7&#45;&gt;Node3 -->
<g id="edge7" class="edge">
<title>Node7&#45;&gt;Node3</title>
<path fill="none" stroke="midnightblue" d="M1490.74,-120.61C1638.66,-119.07 2041.12,-111.65 2168.5,-76 2186.88,-70.86 2188.66,-62.78 2206.5,-56 2248.21,-40.14 2297.45,-28.36 2334.19,-20.84"/>
<polygon fill="midnightblue" stroke="midnightblue" points="2335.08,-24.23 2344.2,-18.83 2333.71,-17.36 2335.08,-24.23"/>
</g>
<!-- Node8 -->
<g id="node8" class="node">
<title>Node8</title>
<g id="a_node8"><a xlink:title=" ">
<polygon fill="white" stroke="#bfbfbf" points="1603.5,-56.5 1603.5,-75.5 1741.5,-75.5 1741.5,-56.5 1603.5,-56.5"/>
<text text-anchor="middle" x="1672.5" y="-63.5" font-family="Helvetica,sans-Serif" font-size="10.00">GameFramework/Pawn.h</text>
</a>
</g>
</g>
<!-- Node7&#45;&gt;Node8 -->
<g id="edge8" class="edge">
<title>Node7&#45;&gt;Node8</title>
<path fill="none" stroke="midnightblue" d="M1473.05,-112.44C1514.31,-103.04 1580.64,-87.93 1625.37,-77.74"/>
<polygon fill="midnightblue" stroke="midnightblue" points="1626.15,-81.15 1635.12,-75.52 1624.59,-74.33 1626.15,-81.15"/>
</g>
<!-- Node9 -->
<g id="node9" class="node">
<title>Node9</title>
<g id="a_node9"><a xlink:title=" ">
<polygon fill="white" stroke="#bfbfbf" points="1760,-56.5 1760,-75.5 1921,-75.5 1921,-56.5 1760,-56.5"/>
<text text-anchor="middle" x="1840.5" y="-63.5" font-family="Helvetica,sans-Serif" font-size="10.00">Camera/CameraComponent.h</text>
</a>
</g>
</g>
<!-- Node7&#45;&gt;Node9 -->
<g id="edge9" class="edge">
<title>Node7&#45;&gt;Node9</title>
<path fill="none" stroke="midnightblue" d="M1490.54,-113.66C1561.99,-104.13 1686.94,-87.47 1766.6,-76.85"/>
<polygon fill="midnightblue" stroke="midnightblue" points="1767.12,-80.32 1776.57,-75.52 1766.19,-73.38 1767.12,-80.32"/>
</g>
<!-- Node10 -->
<g id="node10" class="node">
<title>Node10</title>
<g id="a_node10"><a xlink:title=" ">
<polygon fill="white" stroke="#bfbfbf" points="1939.5,-56.5 1939.5,-75.5 2159.5,-75.5 2159.5,-56.5 1939.5,-56.5"/>
<text text-anchor="middle" x="2049.5" y="-63.5" font-family="Helvetica,sans-Serif" font-size="10.00">GameFramework/SpringArmComponent.h</text>
</a>
</g>
</g>
<!-- Node7&#45;&gt;Node10 -->
<g id="edge10" class="edge">
<title>Node7&#45;&gt;Node10</title>
<path fill="none" stroke="midnightblue" d="M1490.53,-116.16C1592.15,-107.22 1810.9,-87.98 1942.59,-76.4"/>
<polygon fill="midnightblue" stroke="midnightblue" points="1943.05,-79.88 1952.71,-75.51 1942.44,-72.9 1943.05,-79.88"/>
</g>
<!-- Node11 -->
<g id="node11" class="node">
<title>Node11</title>
<g id="a_node11"><a xlink:href="ThrusterComponent_8h.html" target="_top" xlink:title=" ">
<polygon fill="white" stroke="black" points="215.5,-56.5 215.5,-75.5 363.5,-75.5 363.5,-56.5 215.5,-56.5"/>
<text text-anchor="middle" x="289.5" y="-63.5" font-family="Helvetica,sans-Serif" font-size="10.00">Core/ThrusterComponent.h</text>
</a>
</g>
</g>
<!-- Node7&#45;&gt;Node11 -->
<g id="edge11" class="edge">
<title>Node7&#45;&gt;Node11</title>
<path fill="none" stroke="midnightblue" d="M1380.38,-119.94C1224.26,-116.68 765.62,-105.2 373.81,-76.05"/>
<polygon fill="midnightblue" stroke="midnightblue" points="373.92,-72.55 363.69,-75.29 373.4,-79.53 373.92,-72.55"/>
</g>
<!-- Node14 -->
<g id="node14" class="node">
<title>Node14</title>
<g id="a_node14"><a xlink:href="NavigationComponent_8h.html" target="_top" xlink:title=" ">
<polygon fill="white" stroke="black" points="599.5,-56.5 599.5,-75.5 767.5,-75.5 767.5,-56.5 599.5,-56.5"/>
<text text-anchor="middle" x="683.5" y="-63.5" font-family="Helvetica,sans-Serif" font-size="10.00">Utility/NavigationComponent.h</text>
</a>
</g>
</g>
<!-- Node7&#45;&gt;Node14 -->
<g id="edge15" class="edge">
<title>Node7&#45;&gt;Node14</title>
<path fill="none" stroke="midnightblue" d="M1380.35,-117.76C1268.77,-111.1 1008,-94.94 777.88,-76.09"/>
<polygon fill="midnightblue" stroke="midnightblue" points="777.89,-72.58 767.64,-75.25 777.32,-79.56 777.89,-72.58"/>
</g>
<!-- Node17 -->
<g id="node17" class="node">
<title>Node17</title>
<g id="a_node17"><a xlink:title=" ">
<polygon fill="white" stroke="#bfbfbf" points="0,-56.5 0,-75.5 197,-75.5 197,-56.5 0,-56.5"/>
<text text-anchor="middle" x="98.5" y="-63.5" font-family="Helvetica,sans-Serif" font-size="10.00">Components/ChildActorComponent.h</text>
</a>
</g>
</g>
<!-- Node7&#45;&gt;Node17 -->
<g id="edge20" class="edge">
<title>Node7&#45;&gt;Node17</title>
<path fill="none" stroke="midnightblue" d="M1380.33,-119.9C1208.5,-116.26 667.4,-103.34 207.25,-76.01"/>
<polygon fill="midnightblue" stroke="midnightblue" points="207.27,-72.51 197.07,-75.4 206.85,-79.49 207.27,-72.51"/>
</g>
<!-- Node18 -->
<g id="node18" class="node">
<title>Node18</title>
<g id="a_node18"><a xlink:title=" ">
<polygon fill="white" stroke="#bfbfbf" points="381.5,-56.5 381.5,-75.5 581.5,-75.5 581.5,-56.5 381.5,-56.5"/>
<text text-anchor="middle" x="481.5" y="-63.5" font-family="Helvetica,sans-Serif" font-size="10.00">Components/StaticMeshComponent.h</text>
</a>
</g>
</g>
<!-- Node7&#45;&gt;Node18 -->
<g id="edge21" class="edge">
<title>Node7&#45;&gt;Node18</title>
<path fill="none" stroke="midnightblue" d="M1380.1,-118.61C1246.55,-112.73 896.03,-96.57 591.92,-76.08"/>
<polygon fill="midnightblue" stroke="midnightblue" points="591.79,-72.56 581.57,-75.38 591.32,-79.54 591.79,-72.56"/>
</g>
<!-- Node19 -->
<g id="node19" class="node">
<title>Node19</title>
<g id="a_node19"><a xlink:title=" ">
<polygon fill="white" stroke="#bfbfbf" points="785.5,-56.5 785.5,-75.5 997.5,-75.5 997.5,-56.5 785.5,-56.5"/>
<text text-anchor="middle" x="891.5" y="-63.5" font-family="Helvetica,sans-Serif" font-size="10.00">Components/SkeletalMeshComponent.h</text>
</a>
</g>
</g>
<!-- Node7&#45;&gt;Node19 -->
<g id="edge22" class="edge">
<title>Node7&#45;&gt;Node19</title>
<path fill="none" stroke="midnightblue" d="M1380.34,-115.53C1288.18,-106.38 1101.76,-87.87 987.64,-76.54"/>
<polygon fill="midnightblue" stroke="midnightblue" points="987.8,-73.04 977.5,-75.54 987.11,-80.01 987.8,-73.04"/>
</g>
<!-- Node20 -->
<g id="node20" class="node">
<title>Node20</title>
<g id="a_node20"><a xlink:title=" ">
<polygon fill="white" stroke="#bfbfbf" points="1016,-56.5 1016,-75.5 1243,-75.5 1243,-56.5 1016,-56.5"/>
<text text-anchor="middle" x="1129.5" y="-63.5" font-family="Helvetica,sans-Serif" font-size="10.00">Components/SceneCaptureComponent2D.h</text>
</a>
</g>
</g>
<!-- Node7&#45;&gt;Node20 -->
<g id="edge23" class="edge">
<title>Node7&#45;&gt;Node20</title>
<path fill="none" stroke="midnightblue" d="M1387.01,-112.44C1332.96,-102.9 1245.57,-87.48 1187.83,-77.29"/>
<polygon fill="midnightblue" stroke="midnightblue" points="1188.22,-73.81 1177.76,-75.52 1187,-80.7 1188.22,-73.81"/>
</g>
<!-- Node21 -->
<g id="node21" class="node">
<title>Node21</title>
<g id="a_node21"><a xlink:title=" ">
<polygon fill="white" stroke="#bfbfbf" points="1261.5,-56.5 1261.5,-75.5 1437.5,-75.5 1437.5,-56.5 1261.5,-56.5"/>
<text text-anchor="middle" x="1349.5" y="-63.5" font-family="Helvetica,sans-Serif" font-size="10.00">Engine/TextureRenderTarget2D.h</text>
</a>
</g>
</g>
<!-- Node7&#45;&gt;Node21 -->
<g id="edge24" class="edge">
<title>Node7&#45;&gt;Node21</title>
<path fill="none" stroke="midnightblue" d="M1421.68,-112.32C1408.27,-103.9 1387.68,-90.97 1371.91,-81.07"/>
<polygon fill="midnightblue" stroke="midnightblue" points="1373.61,-78.01 1363.28,-75.65 1369.89,-83.94 1373.61,-78.01"/>
</g>
<!-- Node22 -->
<g id="node22" class="node">
<title>Node22</title>
<g id="a_node22"><a xlink:title=" ">
<polygon fill="white" stroke="#bfbfbf" points="1456,-56.5 1456,-75.5 1585,-75.5 1585,-56.5 1456,-56.5"/>
<text text-anchor="middle" x="1520.5" y="-63.5" font-family="Helvetica,sans-Serif" font-size="10.00">QuadPawn.generated.h</text>
</a>
</g>
</g>
<!-- Node7&#45;&gt;Node22 -->
<g id="edge25" class="edge">
<title>Node7&#45;&gt;Node22</title>
<path fill="none" stroke="midnightblue" d="M1449.16,-112.32C1462.42,-103.9 1482.77,-90.97 1498.35,-81.07"/>
<polygon fill="midnightblue" stroke="midnightblue" points="1500.31,-83.97 1506.88,-75.65 1496.56,-78.06 1500.31,-83.97"/>
</g>
<!-- Node11&#45;&gt;Node3 -->
<g id="edge12" class="edge">
<title>Node11&#45;&gt;Node3</title>
<path fill="none" stroke="midnightblue" d="M363.68,-56.62C366.66,-56.39 369.61,-56.18 372.5,-56 1240.69,-1.06 1462.71,-93.75 2329.5,-20 2331.02,-19.87 2332.55,-19.73 2334.1,-19.57"/>
<polygon fill="midnightblue" stroke="midnightblue" points="2334.91,-23 2344.44,-18.38 2334.1,-16.05 2334.91,-23"/>
</g>
<!-- Node12 -->
<g id="node12" class="node">
<title>Node12</title>
<g id="a_node12"><a xlink:title=" ">
<polygon fill="white" stroke="#bfbfbf" points="104.5,-0.5 104.5,-19.5 280.5,-19.5 280.5,-0.5 104.5,-0.5"/>
<text text-anchor="middle" x="192.5" y="-7.5" font-family="Helvetica,sans-Serif" font-size="10.00">Components/SceneComponent.h</text>
</a>
</g>
</g>
<!-- Node11&#45;&gt;Node12 -->
<g id="edge13" class="edge">
<title>Node11&#45;&gt;Node12</title>
<path fill="none" stroke="midnightblue" d="M273.92,-56.32C258.5,-47.74 234.69,-34.49 216.79,-24.52"/>
<polygon fill="midnightblue" stroke="midnightblue" points="218.49,-21.46 208.05,-19.65 215.08,-27.58 218.49,-21.46"/>
</g>
<!-- Node13 -->
<g id="node13" class="node">
<title>Node13</title>
<g id="a_node13"><a xlink:title=" ">
<polygon fill="white" stroke="#bfbfbf" points="299,-0.5 299,-19.5 474,-19.5 474,-0.5 299,-0.5"/>
<text text-anchor="middle" x="386.5" y="-7.5" font-family="Helvetica,sans-Serif" font-size="10.00">ThrusterComponent.generated.h</text>
</a>
</g>
</g>
<!-- Node11&#45;&gt;Node13 -->
<g id="edge14" class="edge">
<title>Node11&#45;&gt;Node13</title>
<path fill="none" stroke="midnightblue" d="M305.08,-56.32C320.5,-47.74 344.31,-34.49 362.21,-24.52"/>
<polygon fill="midnightblue" stroke="midnightblue" points="363.92,-27.58 370.95,-19.65 360.51,-21.46 363.92,-27.58"/>
</g>
<!-- Node14&#45;&gt;Node3 -->
<g id="edge16" class="edge">
<title>Node14&#45;&gt;Node3</title>
<path fill="none" stroke="midnightblue" d="M767.63,-56.58C770.62,-56.37 773.59,-56.17 776.5,-56 1465.67,-14.72 1641.72,-80.18 2329.5,-20 2331.02,-19.87 2332.55,-19.72 2334.1,-19.56"/>
<polygon fill="midnightblue" stroke="midnightblue" points="2334.91,-22.99 2344.44,-18.35 2334.1,-16.04 2334.91,-22.99"/>
</g>
<!-- Node15 -->
<g id="node15" class="node">
<title>Node15</title>
<g id="a_node15"><a xlink:title=" ">
<polygon fill="white" stroke="#bfbfbf" points="593.5,-0.5 593.5,-19.5 765.5,-19.5 765.5,-0.5 593.5,-0.5"/>
<text text-anchor="middle" x="679.5" y="-7.5" font-family="Helvetica,sans-Serif" font-size="10.00">Components/ActorComponent.h</text>
</a>
</g>
</g>
<!-- Node14&#45;&gt;Node15 -->
<g id="edge17" class="edge">
<title>Node14&#45;&gt;Node15</title>
<path fill="none" stroke="midnightblue" d="M682.84,-56.08C682.32,-49.01 681.56,-38.86 680.91,-29.99"/>
<polygon fill="midnightblue" stroke="midnightblue" points="684.38,-29.47 680.15,-19.75 677.4,-29.98 684.38,-29.47"/>
</g>
<!-- Node16 -->
<g id="node16" class="node">
<title>Node16</title>
<g id="a_node16"><a xlink:title=" ">
<polygon fill="white" stroke="#bfbfbf" points="783.5,-0.5 783.5,-19.5 971.5,-19.5 971.5,-0.5 783.5,-0.5"/>
<text text-anchor="middle" x="877.5" y="-7.5" font-family="Helvetica,sans-Serif" font-size="10.00">NavigationComponent.generated.h</text>
</a>
</g>
</g>
<!-- Node14&#45;&gt;Node16 -->
<g id="edge18" class="edge">
<title>Node14&#45;&gt;Node16</title>
<path fill="none" stroke="midnightblue" d="M714.24,-56.44C747.44,-47.2 800.49,-32.44 837.06,-22.26"/>
<polygon fill="midnightblue" stroke="midnightblue" points="838.21,-25.57 846.9,-19.52 836.33,-18.83 838.21,-25.57"/>
</g>
<!-- Node24&#45;&gt;Node2 -->
<g id="edge32" class="edge">
<title>Node24&#45;&gt;Node2</title>
<path fill="none" stroke="midnightblue" d="M2576.42,-112.5C2510.86,-104.25 2409.31,-91.02 2311.66,-76.13"/>
<polygon fill="midnightblue" stroke="midnightblue" points="2312.02,-72.65 2301.61,-74.59 2310.96,-79.57 2312.02,-72.65"/>
</g>
<!-- Node24&#45;&gt;Node3 -->
<g id="edge28" class="edge">
<title>Node24&#45;&gt;Node3</title>
<path fill="none" stroke="midnightblue" d="M2737.84,-118.14C2807.9,-112.72 2886.23,-97.6 2848.5,-56 2821.68,-26.43 2558.61,-15.64 2442.78,-12.3"/>
<polygon fill="midnightblue" stroke="midnightblue" points="2442.8,-8.8 2432.71,-12.02 2442.6,-15.8 2442.8,-8.8"/>
</g>
<!-- Node25 -->
<g id="node25" class="node">
<title>Node25</title>
<g id="a_node25"><a xlink:href="QuadPIDController_8h.html" target="_top" xlink:title=" ">
<polygon fill="white" stroke="black" points="2319.5,-56.5 2319.5,-75.5 2467.5,-75.5 2467.5,-56.5 2319.5,-56.5"/>
<text text-anchor="middle" x="2393.5" y="-63.5" font-family="Helvetica,sans-Serif" font-size="10.00">Utility/QuadPIDController.h</text>
</a>
</g>
</g>
<!-- Node24&#45;&gt;Node25 -->
<g id="edge29" class="edge">
<title>Node24&#45;&gt;Node25</title>
<path fill="none" stroke="midnightblue" d="M2605.57,-112.44C2561.61,-103.02 2490.87,-87.87 2443.32,-77.68"/>
<polygon fill="midnightblue" stroke="midnightblue" points="2443.75,-74.19 2433.24,-75.52 2442.29,-81.03 2443.75,-74.19"/>
</g>
<!-- Node26 -->
<g id="node26" class="node">
<title>Node26</title>
<g id="a_node26"><a xlink:title=" ">
<polygon fill="white" stroke="#bfbfbf" points="2486,-56.5 2486,-75.5 2641,-75.5 2641,-56.5 2486,-56.5"/>
<text text-anchor="middle" x="2563.5" y="-63.5" font-family="Helvetica,sans-Serif" font-size="10.00">ROSFlightControllerSource.h</text>
</a>
</g>
</g>
<!-- Node24&#45;&gt;Node26 -->
<g id="edge31" class="edge">
<title>Node24&#45;&gt;Node26</title>
<path fill="none" stroke="midnightblue" d="M2632.33,-112.32C2619.65,-103.98 2600.27,-91.21 2585.29,-81.35"/>
<polygon fill="midnightblue" stroke="midnightblue" points="2586.92,-78.23 2576.64,-75.65 2583.07,-84.08 2586.92,-78.23"/>
</g>
<!-- Node27 -->
<g id="node27" class="node">
<title>Node27</title>
<g id="a_node27"><a xlink:title=" ">
<polygon fill="white" stroke="#bfbfbf" points="2659.5,-56.5 2659.5,-75.5 2839.5,-75.5 2839.5,-56.5 2659.5,-56.5"/>
<text text-anchor="middle" x="2749.5" y="-63.5" font-family="Helvetica,sans-Serif" font-size="10.00">QuadDroneController.generated.h</text>
</a>
</g>
</g>
<!-- Node24&#45;&gt;Node27 -->
<g id="edge33" class="edge">
<title>Node24&#45;&gt;Node27</title>
<path fill="none" stroke="midnightblue" d="M2662.21,-112.32C2678.81,-103.7 2704.5,-90.36 2723.72,-80.39"/>
<polygon fill="midnightblue" stroke="midnightblue" points="2725.57,-83.37 2732.83,-75.65 2722.34,-77.16 2725.57,-83.37"/>
</g>
<!-- Node25&#45;&gt;Node3 -->
<g id="edge30" class="edge">
<title>Node25&#45;&gt;Node3</title>
<path fill="none" stroke="midnightblue" d="M2392.67,-56.08C2392.02,-49.01 2391.08,-38.86 2390.26,-29.99"/>
<polygon fill="midnightblue" stroke="midnightblue" points="2393.72,-29.39 2389.31,-19.75 2386.75,-30.03 2393.72,-29.39"/>
</g>
<!-- Node29&#45;&gt;Node3 -->
<g id="edge36" class="edge">
<title>Node29&#45;&gt;Node3</title>
<path fill="none" stroke="midnightblue" d="M2933.98,-112.37C2922.41,-97.82 2896.75,-68.73 2867.5,-56 2792.47,-23.34 2551.71,-14.31 2442.85,-11.88"/>
<polygon fill="midnightblue" stroke="midnightblue" points="2442.81,-8.37 2432.74,-11.66 2442.66,-15.37 2442.81,-8.37"/>
</g>
<!-- Node30 -->
<g id="node30" class="node">
<title>Node30</title>
<g id="a_node30"><a xlink:title=" ">
<polygon fill="white" stroke="#bfbfbf" points="2933.5,-56.5 2933.5,-75.5 3095.5,-75.5 3095.5,-56.5 2933.5,-56.5"/>
<text text-anchor="middle" x="3014.5" y="-63.5" font-family="Helvetica,sans-Serif" font-size="10.00">DroneJSONConfig.generated.h</text>
</a>
</g>
</g>
<!-- Node29&#45;&gt;Node30 -->
<g id="edge37" class="edge">
<title>Node29&#45;&gt;Node30</title>
<path fill="none" stroke="midnightblue" d="M2952.39,-112.32C2963.65,-104.11 2980.79,-91.6 2994.21,-81.81"/>
<polygon fill="midnightblue" stroke="midnightblue" points="2996.38,-84.56 3002.39,-75.83 2992.25,-78.9 2996.38,-84.56"/>
</g>
<!-- Node34&#45;&gt;Node3 -->
<g id="edge42" class="edge">
<title>Node34&#45;&gt;Node3</title>
<path fill="none" stroke="midnightblue" d="M3094.26,-112.18C3103.98,-98.38 3119.19,-71.64 3104.5,-56 3081.92,-31.96 2606.39,-16.89 2443.03,-12.41"/>
<polygon fill="midnightblue" stroke="midnightblue" points="2442.82,-8.9 2432.73,-12.13 2442.63,-15.9 2442.82,-8.9"/>
</g>
<!-- Node35 -->
<g id="node35" class="node">
<title>Node35</title>
<g id="a_node35"><a xlink:title=" ">
<polygon fill="white" stroke="#bfbfbf" points="3152,-56.5 3152,-75.5 3289,-75.5 3289,-56.5 3152,-56.5"/>
<text text-anchor="middle" x="3220.5" y="-63.5" font-family="Helvetica,sans-Serif" font-size="10.00">GameFramework/Actor.h</text>
</a>
</g>
</g>
<!-- Node34&#45;&gt;Node35 -->
<g id="edge43" class="edge">
<title>Node34&#45;&gt;Node35</title>
<path fill="none" stroke="midnightblue" d="M3108.57,-112.44C3130.56,-103.52 3165.23,-89.44 3190.16,-79.32"/>
<polygon fill="midnightblue" stroke="midnightblue" points="3191.58,-82.52 3199.52,-75.52 3188.94,-76.04 3191.58,-82.52"/>
</g>
<!-- Node36 -->
<g id="node36" class="node">
<title>Node36</title>
<g id="a_node36"><a xlink:title=" ">
<polygon fill="white" stroke="#bfbfbf" points="3307,-56.5 3307,-75.5 3456,-75.5 3456,-56.5 3307,-56.5"/>
<text text-anchor="middle" x="3381.5" y="-63.5" font-family="Helvetica,sans-Serif" font-size="10.00">DroneManager.generated.h</text>
</a>
</g>
</g>
<!-- Node34&#45;&gt;Node36 -->
<g id="edge44" class="edge">
<title>Node34&#45;&gt;Node36</title>
<path fill="none" stroke="midnightblue" d="M3134.09,-112.44C3185.91,-102.92 3269.63,-87.55 3325.12,-77.36"/>
<polygon fill="midnightblue" stroke="midnightblue" points="3325.93,-80.77 3335.13,-75.52 3324.66,-73.88 3325.93,-80.77"/>
</g>
</g>
</svg>
