<?xml version="1.0" encoding="UTF-8" standalone="no"?>
<!DOCTYPE svg PUBLIC "-//W3C//DTD SVG 1.1//EN"
 "http://www.w3.org/Graphics/SVG/1.1/DTD/svg11.dtd">
<!-- Generated by graphviz version 2.43.0 (0)
 -->
<!-- Title: Graphical Class Hierarchy Pages: 1 -->
<svg width="320pt" height="66pt"
 viewBox="0.00 0.00 320.00 66.00" xmlns="http://www.w3.org/2000/svg" xmlns:xlink="http://www.w3.org/1999/xlink">
<g id="graph0" class="graph" transform="scale(1 1) rotate(0) translate(4 62)">
<title>Graphical Class Hierarchy</title>
<polygon fill="white" stroke="transparent" points="-4,4 -4,-62 316,-62 316,4 -4,4"/>
<!-- Node20 -->
<g id="node1" class="node">
<title>Node20</title>
<g id="a_node1"><a xlink:title=" ">
<polygon fill="white" stroke="#bfbfbf" points="0,-38.5 0,-57.5 149,-57.5 149,-38.5 0,-38.5"/>
<text text-anchor="middle" x="74.5" y="-45.5" font-family="Helvetica,sans-Serif" font-size="10.00">IROSFlightControllerSource</text>
</a>
</g>
</g>
<!-- Node0 -->
<g id="node2" class="node">
<title>Node0</title>
<g id="a_node2"><a xlink:href="classUQuadDroneController.html" target="_top" xlink:title=" ">
<polygon fill="white" stroke="black" points="185,-38.5 185,-57.5 312,-57.5 312,-38.5 185,-38.5"/>
<text text-anchor="middle" x="248.5" y="-45.5" font-family="Helvetica,sans-Serif" font-size="10.00">UQuadDroneController</text>
</a>
</g>
</g>
<!-- Node20&#45;&gt;Node0 -->
<g id="edge1" class="edge">
<title>Node20&#45;&gt;Node0</title>
<path fill="none" stroke="midnightblue" d="M159.48,-48C168.06,-48 176.67,-48 184.96,-48"/>
<polygon fill="midnightblue" stroke="midnightblue" points="159.44,-44.5 149.44,-48 159.44,-51.5 159.44,-44.5"/>
</g>
<!-- Node23 -->
<g id="node3" class="node">
<title>Node23</title>
<g id="a_node3"><a xlink:title=" ">
<polygon fill="white" stroke="#bfbfbf" points="46.5,-0.5 46.5,-19.5 102.5,-19.5 102.5,-0.5 46.5,-0.5"/>
<text text-anchor="middle" x="74.5" y="-7.5" font-family="Helvetica,sans-Serif" font-size="10.00">UObject</text>
</a>
</g>
</g>
<!-- Node23&#45;&gt;Node0 -->
<g id="edge3" class="edge">
<title>Node23&#45;&gt;Node0</title>
<path fill="none" stroke="midnightblue" d="M112.57,-18.19C139.5,-24.14 176.03,-32.21 204.29,-38.45"/>
<polygon fill="midnightblue" stroke="midnightblue" points="113.27,-14.76 102.75,-16.02 111.76,-21.6 113.27,-14.76"/>
</g>
<!-- Node24 -->
<g id="node4" class="node">
<title>Node24</title>
<g id="a_node4"><a xlink:href="classUDroneJSONConfig.html" target="_top" xlink:title=" ">
<polygon fill="white" stroke="black" points="194.5,-0.5 194.5,-19.5 302.5,-19.5 302.5,-0.5 194.5,-0.5"/>
<text text-anchor="middle" x="248.5" y="-7.5" font-family="Helvetica,sans-Serif" font-size="10.00">UDroneJSONConfig</text>
</a>
</g>
</g>
<!-- Node23&#45;&gt;Node24 -->
<g id="edge2" class="edge">
<title>Node23&#45;&gt;Node24</title>
<path fill="none" stroke="midnightblue" d="M112.81,-10C136.66,-10 167.95,-10 194.37,-10"/>
<polygon fill="midnightblue" stroke="midnightblue" points="112.75,-6.5 102.75,-10 112.75,-13.5 112.75,-6.5"/>
</g>
</g>
</svg>
