<?xml version="1.0" encoding="UTF-8" standalone="no"?>
<!DOCTYPE svg PUBLIC "-//W3C//DTD SVG 1.1//EN"
 "http://www.w3.org/Graphics/SVG/1.1/DTD/svg11.dtd">
<!-- Generated by graphviz version 2.43.0 (0)
 -->
<!-- Title: Source/QuadSimCore/Public/Utility/NavigationComponent.h Pages: 1 -->
<svg width="1224pt" height="206pt"
 viewBox="0.00 0.00 1224.00 206.00" xmlns="http://www.w3.org/2000/svg" xmlns:xlink="http://www.w3.org/1999/xlink">
<g id="graph0" class="graph" transform="scale(1 1) rotate(0) translate(4 202)">
<title>Source/QuadSimCore/Public/Utility/NavigationComponent.h</title>
<polygon fill="white" stroke="transparent" points="-4,4 -4,-202 1220,-202 1220,4 -4,4"/>
<!-- Node1 -->
<g id="node1" class="node">
<title>Node1</title>
<g id="a_node1"><a xlink:title=" ">
<polygon fill="#bfbfbf" stroke="black" points="230.5,-156.5 230.5,-197.5 368.5,-197.5 368.5,-156.5 230.5,-156.5"/>
<text text-anchor="start" x="238.5" y="-185.5" font-family="Helvetica,sans-Serif" font-size="10.00">Source/QuadSimCore</text>
<text text-anchor="start" x="238.5" y="-174.5" font-family="Helvetica,sans-Serif" font-size="10.00">/Public/Utility/Navigation</text>
<text text-anchor="middle" x="299.5" y="-163.5" font-family="Helvetica,sans-Serif" font-size="10.00">Component.h</text>
</a>
</g>
</g>
<!-- Node2 -->
<g id="node2" class="node">
<title>Node2</title>
<g id="a_node2"><a xlink:href="ROS2Controller_8cpp.html" target="_top" xlink:title=" ">
<polygon fill="white" stroke="black" points="0,-0.5 0,-41.5 119,-41.5 119,-0.5 0,-0.5"/>
<text text-anchor="start" x="8" y="-29.5" font-family="Helvetica,sans-Serif" font-size="10.00">Source/QuadSimCore</text>
<text text-anchor="start" x="8" y="-18.5" font-family="Helvetica,sans-Serif" font-size="10.00">/Private/Controllers</text>
<text text-anchor="middle" x="59.5" y="-7.5" font-family="Helvetica,sans-Serif" font-size="10.00">/ROS2Controller.cpp</text>
</a>
</g>
</g>
<!-- Node1&#45;&gt;Node2 -->
<g id="edge1" class="edge">
<title>Node1&#45;&gt;Node2</title>
<path fill="none" stroke="midnightblue" d="M260.61,-151.04C213.02,-120.51 133.44,-69.45 90.03,-41.59"/>
<polygon fill="midnightblue" stroke="midnightblue" points="258.8,-154.04 269.1,-156.5 262.58,-148.15 258.8,-154.04"/>
</g>
<!-- Node3 -->
<g id="node3" class="node">
<title>Node3</title>
<g id="a_node3"><a xlink:href="NavigationComponent_8cpp.html" target="_top" xlink:title=" ">
<polygon fill="white" stroke="black" points="228,-78.5 228,-119.5 371,-119.5 371,-78.5 228,-78.5"/>
<text text-anchor="start" x="236" y="-107.5" font-family="Helvetica,sans-Serif" font-size="10.00">Source/QuadSimCore</text>
<text text-anchor="start" x="236" y="-96.5" font-family="Helvetica,sans-Serif" font-size="10.00">/Private/Utility/Navigation</text>
<text text-anchor="middle" x="299.5" y="-85.5" font-family="Helvetica,sans-Serif" font-size="10.00">Component.cpp</text>
</a>
</g>
</g>
<!-- Node1&#45;&gt;Node3 -->
<g id="edge2" class="edge">
<title>Node1&#45;&gt;Node3</title>
<path fill="none" stroke="midnightblue" d="M299.5,-146.3C299.5,-137.3 299.5,-127.65 299.5,-119.51"/>
<polygon fill="midnightblue" stroke="midnightblue" points="296,-146.43 299.5,-156.43 303,-146.43 296,-146.43"/>
</g>
<!-- Node4 -->
<g id="node4" class="node">
<title>Node4</title>
<g id="a_node4"><a xlink:href="QuadPawn_8h.html" target="_top" xlink:title=" ">
<polygon fill="white" stroke="black" points="404.5,-84 404.5,-114 550.5,-114 550.5,-84 404.5,-84"/>
<text text-anchor="start" x="412.5" y="-102" font-family="Helvetica,sans-Serif" font-size="10.00">Source/QuadSimCore</text>
<text text-anchor="middle" x="477.5" y="-91" font-family="Helvetica,sans-Serif" font-size="10.00">/Public/Pawns/QuadPawn.h</text>
</a>
</g>
</g>
<!-- Node1&#45;&gt;Node4 -->
<g id="edge3" class="edge">
<title>Node1&#45;&gt;Node4</title>
<path fill="none" stroke="midnightblue" d="M354.67,-152.45C384.08,-139.89 419.3,-124.85 444.46,-114.11"/>
<polygon fill="midnightblue" stroke="midnightblue" points="353.16,-149.28 345.34,-156.43 355.91,-155.72 353.16,-149.28"/>
</g>
<!-- Node4&#45;&gt;Node2 -->
<g id="edge5" class="edge">
<title>Node4&#45;&gt;Node2</title>
<path fill="none" stroke="midnightblue" d="M401.4,-82.01C394.01,-80.6 386.62,-79.24 379.5,-78 268.46,-58.72 238.67,-65.75 128.5,-42 125.45,-41.34 122.34,-40.62 119.21,-39.86"/>
<polygon fill="midnightblue" stroke="midnightblue" points="400.96,-85.49 411.44,-83.97 402.3,-78.62 400.96,-85.49"/>
</g>
<!-- Node5 -->
<g id="node5" class="node">
<title>Node5</title>
<g id="a_node5"><a xlink:href="QuadDroneController_8cpp.html" target="_top" xlink:title=" ">
<polygon fill="white" stroke="black" points="137.5,-0.5 137.5,-41.5 279.5,-41.5 279.5,-0.5 137.5,-0.5"/>
<text text-anchor="start" x="145.5" y="-29.5" font-family="Helvetica,sans-Serif" font-size="10.00">Source/QuadSimCore</text>
<text text-anchor="start" x="145.5" y="-18.5" font-family="Helvetica,sans-Serif" font-size="10.00">/Private/Controllers</text>
<text text-anchor="middle" x="208.5" y="-7.5" font-family="Helvetica,sans-Serif" font-size="10.00">/QuadDroneController.cpp</text>
</a>
</g>
</g>
<!-- Node4&#45;&gt;Node5 -->
<g id="edge4" class="edge">
<title>Node4&#45;&gt;Node5</title>
<path fill="none" stroke="midnightblue" d="M418.15,-81.23C376.66,-69.51 321.12,-53.82 277.63,-41.53"/>
<polygon fill="midnightblue" stroke="midnightblue" points="417.27,-84.62 427.85,-83.97 419.18,-77.88 417.27,-84.62"/>
</g>
<!-- Node6 -->
<g id="node6" class="node">
<title>Node6</title>
<g id="a_node6"><a xlink:href="DroneManager_8cpp.html" target="_top" xlink:title=" ">
<polygon fill="white" stroke="black" points="297.5,-6 297.5,-36 471.5,-36 471.5,-6 297.5,-6"/>
<text text-anchor="start" x="305.5" y="-24" font-family="Helvetica,sans-Serif" font-size="10.00">Source/QuadSimCore</text>
<text text-anchor="middle" x="384.5" y="-13" font-family="Helvetica,sans-Serif" font-size="10.00">/Private/Core/DroneManager.cpp</text>
</a>
</g>
</g>
<!-- Node4&#45;&gt;Node6 -->
<g id="edge6" class="edge">
<title>Node4&#45;&gt;Node6</title>
<path fill="none" stroke="midnightblue" d="M452.11,-77.25C436.18,-64.23 416.05,-47.78 401.91,-36.23"/>
<polygon fill="midnightblue" stroke="midnightblue" points="450.05,-80.09 460.01,-83.7 454.48,-74.67 450.05,-80.09"/>
</g>
<!-- Node7 -->
<g id="node7" class="node">
<title>Node7</title>
<g id="a_node7"><a xlink:href="QuadPawn_8cpp.html" target="_top" xlink:title=" ">
<polygon fill="white" stroke="black" points="489.5,-6 489.5,-36 651.5,-36 651.5,-6 489.5,-6"/>
<text text-anchor="start" x="497.5" y="-24" font-family="Helvetica,sans-Serif" font-size="10.00">Source/QuadSimCore</text>
<text text-anchor="middle" x="570.5" y="-13" font-family="Helvetica,sans-Serif" font-size="10.00">/Private/Pawns/QuadPawn.cpp</text>
</a>
</g>
</g>
<!-- Node4&#45;&gt;Node7 -->
<g id="edge7" class="edge">
<title>Node4&#45;&gt;Node7</title>
<path fill="none" stroke="midnightblue" d="M502.89,-77.25C518.82,-64.23 538.95,-47.78 553.09,-36.23"/>
<polygon fill="midnightblue" stroke="midnightblue" points="500.52,-74.67 494.99,-83.7 504.95,-80.09 500.52,-74.67"/>
</g>
<!-- Node8 -->
<g id="node8" class="node">
<title>Node8</title>
<g id="a_node8"><a xlink:href="QuadSimGameMode_8cpp.html" target="_top" xlink:title=" ">
<polygon fill="white" stroke="black" points="669.5,-6 669.5,-36 847.5,-36 847.5,-6 669.5,-6"/>
<text text-anchor="start" x="677.5" y="-24" font-family="Helvetica,sans-Serif" font-size="10.00">Source/QuadSimCore</text>
<text text-anchor="middle" x="758.5" y="-13" font-family="Helvetica,sans-Serif" font-size="10.00">/Private/QuadSimGameMode.cpp</text>
</a>
</g>
</g>
<!-- Node4&#45;&gt;Node8 -->
<g id="edge8" class="edge">
<title>Node4&#45;&gt;Node8</title>
<path fill="none" stroke="midnightblue" d="M539.11,-81.34C589.22,-67.78 659.13,-48.88 706.46,-36.07"/>
<polygon fill="midnightblue" stroke="midnightblue" points="538.11,-77.98 529.37,-83.97 539.93,-84.74 538.11,-77.98"/>
</g>
<!-- Node9 -->
<g id="node9" class="node">
<title>Node9</title>
<g id="a_node9"><a xlink:href="ImGuiUtil_8cpp.html" target="_top" xlink:title=" ">
<polygon fill="white" stroke="black" points="866,-6 866,-36 1003,-36 1003,-6 866,-6"/>
<text text-anchor="start" x="874" y="-24" font-family="Helvetica,sans-Serif" font-size="10.00">Source/QuadSimCore</text>
<text text-anchor="middle" x="934.5" y="-13" font-family="Helvetica,sans-Serif" font-size="10.00">/Private/UI/ImGuiUtil.cpp</text>
</a>
</g>
</g>
<!-- Node4&#45;&gt;Node9 -->
<g id="edge9" class="edge">
<title>Node4&#45;&gt;Node9</title>
<path fill="none" stroke="midnightblue" d="M560.68,-88.25C637.76,-78.61 755.41,-62.37 856.5,-42 865,-40.29 873.95,-38.23 882.65,-36.1"/>
<polygon fill="midnightblue" stroke="midnightblue" points="560.04,-84.8 550.55,-89.5 560.9,-91.74 560.04,-84.8"/>
</g>
<!-- Node10 -->
<g id="node10" class="node">
<title>Node10</title>
<g id="a_node10"><a xlink:href="ObstacleManager_8cpp.html" target="_top" xlink:title=" ">
<polygon fill="white" stroke="black" points="1021,-6 1021,-36 1216,-36 1216,-6 1021,-6"/>
<text text-anchor="start" x="1029" y="-24" font-family="Helvetica,sans-Serif" font-size="10.00">Source/QuadSimCore</text>
<text text-anchor="middle" x="1118.5" y="-13" font-family="Helvetica,sans-Serif" font-size="10.00">/Private/Utility/ObstacleManager.cpp</text>
</a>
</g>
</g>
<!-- Node4&#45;&gt;Node10 -->
<g id="edge10" class="edge">
<title>Node4&#45;&gt;Node10</title>
<path fill="none" stroke="midnightblue" d="M561.13,-91.39C666.64,-82.56 853.54,-65.27 1012.5,-42 1024.17,-40.29 1036.52,-38.21 1048.5,-36.05"/>
<polygon fill="midnightblue" stroke="midnightblue" points="560.54,-87.93 550.86,-92.24 561.12,-94.9 560.54,-87.93"/>
</g>
</g>
</svg>
