<?xml version="1.0" encoding="UTF-8" standalone="no"?>
<!DOCTYPE svg PUBLIC "-//W3C//DTD SVG 1.1//EN"
 "http://www.w3.org/Graphics/SVG/1.1/DTD/svg11.dtd">
<!-- Generated by graphviz version 2.43.0 (0)
 -->
<!-- Title: Source/QuadSimCore/Public/Utility/ObstacleManager.h Pages: 1 -->
<svg width="340pt" height="117pt"
 viewBox="0.00 0.00 340.00 117.00" xmlns="http://www.w3.org/2000/svg" xmlns:xlink="http://www.w3.org/1999/xlink">
<g id="graph0" class="graph" transform="scale(1 1) rotate(0) translate(4 113)">
<title>Source/QuadSimCore/Public/Utility/ObstacleManager.h</title>
<polygon fill="white" stroke="transparent" points="-4,4 -4,-113 336,-113 336,4 -4,4"/>
<!-- Node1 -->
<g id="node1" class="node">
<title>Node1</title>
<g id="a_node1"><a xlink:title=" ">
<polygon fill="#bfbfbf" stroke="black" points="57,-78.5 57,-108.5 236,-108.5 236,-78.5 57,-78.5"/>
<text text-anchor="start" x="65" y="-96.5" font-family="Helvetica,sans-Serif" font-size="10.00">Source/QuadSimCore</text>
<text text-anchor="middle" x="146.5" y="-85.5" font-family="Helvetica,sans-Serif" font-size="10.00">/Public/Utility/ObstacleManager.h</text>
</a>
</g>
</g>
<!-- Node2 -->
<g id="node2" class="node">
<title>Node2</title>
<g id="a_node2"><a xlink:href="ROS2Controller_8cpp.html" target="_top" xlink:title=" ">
<polygon fill="white" stroke="black" points="0,-0.5 0,-41.5 119,-41.5 119,-0.5 0,-0.5"/>
<text text-anchor="start" x="8" y="-29.5" font-family="Helvetica,sans-Serif" font-size="10.00">Source/QuadSimCore</text>
<text text-anchor="start" x="8" y="-18.5" font-family="Helvetica,sans-Serif" font-size="10.00">/Private/Controllers</text>
<text text-anchor="middle" x="59.5" y="-7.5" font-family="Helvetica,sans-Serif" font-size="10.00">/ROS2Controller.cpp</text>
</a>
</g>
</g>
<!-- Node1&#45;&gt;Node2 -->
<g id="edge1" class="edge">
<title>Node1&#45;&gt;Node2</title>
<path fill="none" stroke="midnightblue" d="M121.12,-71.93C109.31,-62.36 95.33,-51.03 83.67,-41.59"/>
<polygon fill="midnightblue" stroke="midnightblue" points="118.92,-74.66 128.89,-78.23 123.33,-69.22 118.92,-74.66"/>
</g>
<!-- Node3 -->
<g id="node3" class="node">
<title>Node3</title>
<g id="a_node3"><a xlink:href="ObstacleManager_8cpp.html" target="_top" xlink:title=" ">
<polygon fill="white" stroke="black" points="137,-6 137,-36 332,-36 332,-6 137,-6"/>
<text text-anchor="start" x="145" y="-24" font-family="Helvetica,sans-Serif" font-size="10.00">Source/QuadSimCore</text>
<text text-anchor="middle" x="234.5" y="-13" font-family="Helvetica,sans-Serif" font-size="10.00">/Private/Utility/ObstacleManager.cpp</text>
</a>
</g>
</g>
<!-- Node1&#45;&gt;Node3 -->
<g id="edge2" class="edge">
<title>Node1&#45;&gt;Node3</title>
<path fill="none" stroke="midnightblue" d="M172.35,-71.79C186.74,-60.27 204.25,-46.23 217.02,-36"/>
<polygon fill="midnightblue" stroke="midnightblue" points="169.92,-69.25 164.31,-78.23 174.3,-74.71 169.92,-69.25"/>
</g>
</g>
</svg>
