<?xml version="1.0" encoding="UTF-8" standalone="no"?>
<!DOCTYPE svg PUBLIC "-//W3C//DTD SVG 1.1//EN"
 "http://www.w3.org/Graphics/SVG/1.1/DTD/svg11.dtd">
<!-- Generated by graphviz version 2.43.0 (0)
 -->
<!-- Title: Source/QuadSimCore/Private/Utility/ObstacleManager.cpp Pages: 1 -->
<svg width="2903pt" height="207pt"
 viewBox="0.00 0.00 2902.50 207.00" xmlns="http://www.w3.org/2000/svg" xmlns:xlink="http://www.w3.org/1999/xlink">
<g id="graph0" class="graph" transform="scale(1 1) rotate(0) translate(4 203)">
<title>Source/QuadSimCore/Private/Utility/ObstacleManager.cpp</title>
<polygon fill="white" stroke="transparent" points="-4,4 -4,-203 2898.5,-203 2898.5,4 -4,4"/>
<!-- Node1 -->
<g id="node1" class="node">
<title>Node1</title>
<g id="a_node1"><a xlink:title=" ">
<polygon fill="#bfbfbf" stroke="black" points="540,-168.5 540,-198.5 735,-198.5 735,-168.5 540,-168.5"/>
<text text-anchor="start" x="548" y="-186.5" font-family="Helvetica,sans-Serif" font-size="10.00">Source/QuadSimCore</text>
<text text-anchor="middle" x="637.5" y="-175.5" font-family="Helvetica,sans-Serif" font-size="10.00">/Private/Utility/ObstacleManager.cpp</text>
</a>
</g>
</g>
<!-- Node2 -->
<g id="node2" class="node">
<title>Node2</title>
<g id="a_node2"><a xlink:href="ObstacleManager_8h.html" target="_top" xlink:title=" ">
<polygon fill="white" stroke="black" points="239,-112.5 239,-131.5 382,-131.5 382,-112.5 239,-112.5"/>
<text text-anchor="middle" x="310.5" y="-119.5" font-family="Helvetica,sans-Serif" font-size="10.00">Utility/ObstacleManager.h</text>
</a>
</g>
</g>
<!-- Node1&#45;&gt;Node2 -->
<g id="edge1" class="edge">
<title>Node1&#45;&gt;Node2</title>
<path fill="none" stroke="midnightblue" d="M560.42,-168.47C501.17,-157.69 420.68,-143.05 367.23,-133.32"/>
<polygon fill="midnightblue" stroke="midnightblue" points="367.71,-129.85 357.25,-131.51 366.46,-136.74 367.71,-129.85"/>
</g>
<!-- Node6 -->
<g id="node6" class="node">
<title>Node6</title>
<g id="a_node6"><a xlink:href="DroneJSONConfig_8h.html" target="_top" xlink:title=" ">
<polygon fill="white" stroke="black" points="424,-112.5 424,-131.5 559,-131.5 559,-112.5 424,-112.5"/>
<text text-anchor="middle" x="491.5" y="-119.5" font-family="Helvetica,sans-Serif" font-size="10.00">Core/DroneJSONConfig.h</text>
</a>
</g>
</g>
<!-- Node1&#45;&gt;Node6 -->
<g id="edge5" class="edge">
<title>Node1&#45;&gt;Node6</title>
<path fill="none" stroke="midnightblue" d="M602.9,-168.4C578.4,-158.42 545.84,-145.15 522.25,-135.53"/>
<polygon fill="midnightblue" stroke="midnightblue" points="523.33,-132.19 512.74,-131.66 520.68,-138.67 523.33,-132.19"/>
</g>
<!-- Node8 -->
<g id="node8" class="node">
<title>Node8</title>
<g id="a_node8"><a xlink:title=" ">
<polygon fill="white" stroke="#bfbfbf" points="577.5,-112.5 577.5,-131.5 697.5,-131.5 697.5,-112.5 577.5,-112.5"/>
<text text-anchor="middle" x="637.5" y="-119.5" font-family="Helvetica,sans-Serif" font-size="10.00">DrawDebugHelpers.h</text>
</a>
</g>
</g>
<!-- Node1&#45;&gt;Node8 -->
<g id="edge8" class="edge">
<title>Node1&#45;&gt;Node8</title>
<path fill="none" stroke="midnightblue" d="M637.5,-168.4C637.5,-160.47 637.5,-150.46 637.5,-141.86"/>
<polygon fill="midnightblue" stroke="midnightblue" points="641,-141.66 637.5,-131.66 634,-141.66 641,-141.66"/>
</g>
<!-- Node9 -->
<g id="node9" class="node">
<title>Node9</title>
<g id="a_node9"><a xlink:title=" ">
<polygon fill="white" stroke="#bfbfbf" points="715.5,-112.5 715.5,-131.5 861.5,-131.5 861.5,-112.5 715.5,-112.5"/>
<text text-anchor="middle" x="788.5" y="-119.5" font-family="Helvetica,sans-Serif" font-size="10.00">Kismet/GameplayStatics.h</text>
</a>
</g>
</g>
<!-- Node1&#45;&gt;Node9 -->
<g id="edge9" class="edge">
<title>Node1&#45;&gt;Node9</title>
<path fill="none" stroke="midnightblue" d="M673.28,-168.4C698.73,-158.37 732.6,-145.03 757.02,-135.4"/>
<polygon fill="midnightblue" stroke="midnightblue" points="758.51,-138.58 766.53,-131.66 755.94,-132.07 758.51,-138.58"/>
</g>
<!-- Node10 -->
<g id="node10" class="node">
<title>Node10</title>
<g id="a_node10"><a xlink:href="QuadPawn_8h.html" target="_top" xlink:title=" ">
<polygon fill="white" stroke="black" points="1570.5,-112.5 1570.5,-131.5 1680.5,-131.5 1680.5,-112.5 1570.5,-112.5"/>
<text text-anchor="middle" x="1625.5" y="-119.5" font-family="Helvetica,sans-Serif" font-size="10.00">Pawns/QuadPawn.h</text>
</a>
</g>
</g>
<!-- Node1&#45;&gt;Node10 -->
<g id="edge10" class="edge">
<title>Node1&#45;&gt;Node10</title>
<path fill="none" stroke="midnightblue" d="M735.39,-176.6C936.38,-164.5 1390.93,-137.13 1560.29,-126.93"/>
<polygon fill="midnightblue" stroke="midnightblue" points="1560.53,-130.42 1570.3,-126.32 1560.11,-123.43 1560.53,-130.42"/>
</g>
<!-- Node3 -->
<g id="node3" class="node">
<title>Node3</title>
<g id="a_node3"><a xlink:title=" ">
<polygon fill="white" stroke="#bfbfbf" points="1149.5,-0.5 1149.5,-19.5 1237.5,-19.5 1237.5,-0.5 1149.5,-0.5"/>
<text text-anchor="middle" x="1193.5" y="-7.5" font-family="Helvetica,sans-Serif" font-size="10.00">CoreMinimal.h</text>
</a>
</g>
</g>
<!-- Node2&#45;&gt;Node3 -->
<g id="edge2" class="edge">
<title>Node2&#45;&gt;Node3</title>
<path fill="none" stroke="midnightblue" d="M314.81,-112.3C322.62,-97.63 340.62,-68.37 365.5,-56 434.43,-21.73 966.14,-13.31 1139.23,-11.47"/>
<polygon fill="midnightblue" stroke="midnightblue" points="1139.42,-14.97 1149.38,-11.37 1139.35,-7.97 1139.42,-14.97"/>
</g>
<!-- Node4 -->
<g id="node4" class="node">
<title>Node4</title>
<g id="a_node4"><a xlink:title=" ">
<polygon fill="white" stroke="#bfbfbf" points="181,-56.5 181,-75.5 318,-75.5 318,-56.5 181,-56.5"/>
<text text-anchor="middle" x="249.5" y="-63.5" font-family="Helvetica,sans-Serif" font-size="10.00">GameFramework/Actor.h</text>
</a>
</g>
</g>
<!-- Node2&#45;&gt;Node4 -->
<g id="edge3" class="edge">
<title>Node2&#45;&gt;Node4</title>
<path fill="none" stroke="midnightblue" d="M300.7,-112.32C291.68,-104.34 278.09,-92.31 267.18,-82.65"/>
<polygon fill="midnightblue" stroke="midnightblue" points="269.29,-79.84 259.48,-75.83 264.65,-85.08 269.29,-79.84"/>
</g>
<!-- Node5 -->
<g id="node5" class="node">
<title>Node5</title>
<g id="a_node5"><a xlink:title=" ">
<polygon fill="white" stroke="#bfbfbf" points="0,-56.5 0,-75.5 163,-75.5 163,-56.5 0,-56.5"/>
<text text-anchor="middle" x="81.5" y="-63.5" font-family="Helvetica,sans-Serif" font-size="10.00">ObstacleManager.generated.h</text>
</a>
</g>
</g>
<!-- Node2&#45;&gt;Node5 -->
<g id="edge4" class="edge">
<title>Node2&#45;&gt;Node5</title>
<path fill="none" stroke="midnightblue" d="M274.21,-112.44C234.52,-103.08 170.79,-88.06 127.59,-77.87"/>
<polygon fill="midnightblue" stroke="midnightblue" points="128.15,-74.41 117.62,-75.52 126.55,-81.22 128.15,-74.41"/>
</g>
<!-- Node6&#45;&gt;Node3 -->
<g id="edge6" class="edge">
<title>Node6&#45;&gt;Node3</title>
<path fill="none" stroke="midnightblue" d="M502.25,-112.29C522.47,-96.08 565.74,-62.37 583.5,-56 685.08,-19.57 1009.86,-12.62 1139.41,-11.3"/>
<polygon fill="midnightblue" stroke="midnightblue" points="1139.53,-14.8 1149.49,-11.21 1139.46,-7.8 1139.53,-14.8"/>
</g>
<!-- Node7 -->
<g id="node7" class="node">
<title>Node7</title>
<g id="a_node7"><a xlink:title=" ">
<polygon fill="white" stroke="#bfbfbf" points="374.5,-56.5 374.5,-75.5 536.5,-75.5 536.5,-56.5 374.5,-56.5"/>
<text text-anchor="middle" x="455.5" y="-63.5" font-family="Helvetica,sans-Serif" font-size="10.00">DroneJSONConfig.generated.h</text>
</a>
</g>
</g>
<!-- Node6&#45;&gt;Node7 -->
<g id="edge7" class="edge">
<title>Node6&#45;&gt;Node7</title>
<path fill="none" stroke="midnightblue" d="M485.56,-112.08C480.52,-104.53 473.16,-93.49 466.99,-84.23"/>
<polygon fill="midnightblue" stroke="midnightblue" points="469.79,-82.13 461.33,-75.75 463.97,-86.01 469.79,-82.13"/>
</g>
<!-- Node10&#45;&gt;Node3 -->
<g id="edge11" class="edge">
<title>Node10&#45;&gt;Node3</title>
<path fill="none" stroke="midnightblue" d="M1680.76,-121.39C1762.38,-120.21 1900.35,-110.46 1849.5,-56 1808.84,-12.46 1398.34,-10 1248.16,-10.58"/>
<polygon fill="midnightblue" stroke="midnightblue" points="1247.79,-7.08 1237.8,-10.63 1247.82,-14.08 1247.79,-7.08"/>
</g>
<!-- Node11 -->
<g id="node11" class="node">
<title>Node11</title>
<g id="a_node11"><a xlink:title=" ">
<polygon fill="white" stroke="#bfbfbf" points="1284.5,-56.5 1284.5,-75.5 1422.5,-75.5 1422.5,-56.5 1284.5,-56.5"/>
<text text-anchor="middle" x="1353.5" y="-63.5" font-family="Helvetica,sans-Serif" font-size="10.00">GameFramework/Pawn.h</text>
</a>
</g>
</g>
<!-- Node10&#45;&gt;Node11 -->
<g id="edge12" class="edge">
<title>Node10&#45;&gt;Node11</title>
<path fill="none" stroke="midnightblue" d="M1582.4,-112.44C1534.65,-102.96 1457.64,-87.67 1406.31,-77.48"/>
<polygon fill="midnightblue" stroke="midnightblue" points="1406.89,-74.03 1396.4,-75.52 1405.52,-80.9 1406.89,-74.03"/>
</g>
<!-- Node12 -->
<g id="node12" class="node">
<title>Node12</title>
<g id="a_node12"><a xlink:title=" ">
<polygon fill="white" stroke="#bfbfbf" points="1441,-56.5 1441,-75.5 1602,-75.5 1602,-56.5 1441,-56.5"/>
<text text-anchor="middle" x="1521.5" y="-63.5" font-family="Helvetica,sans-Serif" font-size="10.00">Camera/CameraComponent.h</text>
</a>
</g>
</g>
<!-- Node10&#45;&gt;Node12 -->
<g id="edge13" class="edge">
<title>Node10&#45;&gt;Node12</title>
<path fill="none" stroke="midnightblue" d="M1608.79,-112.32C1592.19,-103.7 1566.5,-90.36 1547.28,-80.39"/>
<polygon fill="midnightblue" stroke="midnightblue" points="1548.66,-77.16 1538.17,-75.65 1545.43,-83.37 1548.66,-77.16"/>
</g>
<!-- Node13 -->
<g id="node13" class="node">
<title>Node13</title>
<g id="a_node13"><a xlink:title=" ">
<polygon fill="white" stroke="#bfbfbf" points="1620.5,-56.5 1620.5,-75.5 1840.5,-75.5 1840.5,-56.5 1620.5,-56.5"/>
<text text-anchor="middle" x="1730.5" y="-63.5" font-family="Helvetica,sans-Serif" font-size="10.00">GameFramework/SpringArmComponent.h</text>
</a>
</g>
</g>
<!-- Node10&#45;&gt;Node13 -->
<g id="edge14" class="edge">
<title>Node10&#45;&gt;Node13</title>
<path fill="none" stroke="midnightblue" d="M1642.37,-112.32C1659.21,-103.66 1685.31,-90.24 1704.74,-80.25"/>
<polygon fill="midnightblue" stroke="midnightblue" points="1706.38,-83.34 1713.67,-75.65 1703.18,-77.12 1706.38,-83.34"/>
</g>
<!-- Node14 -->
<g id="node14" class="node">
<title>Node14</title>
<g id="a_node14"><a xlink:href="ThrusterComponent_8h.html" target="_top" xlink:title=" ">
<polygon fill="white" stroke="black" points="1896.5,-56.5 1896.5,-75.5 2044.5,-75.5 2044.5,-56.5 1896.5,-56.5"/>
<text text-anchor="middle" x="1970.5" y="-63.5" font-family="Helvetica,sans-Serif" font-size="10.00">Core/ThrusterComponent.h</text>
</a>
</g>
</g>
<!-- Node10&#45;&gt;Node14 -->
<g id="edge15" class="edge">
<title>Node10&#45;&gt;Node14</title>
<path fill="none" stroke="midnightblue" d="M1680.17,-112.44C1741.49,-102.85 1840.86,-87.29 1905.95,-77.1"/>
<polygon fill="midnightblue" stroke="midnightblue" points="1906.75,-80.52 1916.09,-75.52 1905.67,-73.61 1906.75,-80.52"/>
</g>
<!-- Node17 -->
<g id="node17" class="node">
<title>Node17</title>
<g id="a_node17"><a xlink:href="NavigationComponent_8h.html" target="_top" xlink:title=" ">
<polygon fill="white" stroke="black" points="2062.5,-56.5 2062.5,-75.5 2230.5,-75.5 2230.5,-56.5 2062.5,-56.5"/>
<text text-anchor="middle" x="2146.5" y="-63.5" font-family="Helvetica,sans-Serif" font-size="10.00">Utility/NavigationComponent.h</text>
</a>
</g>
</g>
<!-- Node10&#45;&gt;Node17 -->
<g id="edge19" class="edge">
<title>Node10&#45;&gt;Node17</title>
<path fill="none" stroke="midnightblue" d="M1680.76,-115.27C1769.69,-106.06 1945.5,-87.83 2053.85,-76.6"/>
<polygon fill="midnightblue" stroke="midnightblue" points="2054.53,-80.05 2064.12,-75.54 2053.81,-73.09 2054.53,-80.05"/>
</g>
<!-- Node20 -->
<g id="node20" class="node">
<title>Node20</title>
<g id="a_node20"><a xlink:href="ImGuiUtil_8h.html" target="_top" xlink:title=" ">
<polygon fill="white" stroke="black" points="592.5,-56.5 592.5,-75.5 678.5,-75.5 678.5,-56.5 592.5,-56.5"/>
<text text-anchor="middle" x="635.5" y="-63.5" font-family="Helvetica,sans-Serif" font-size="10.00">UI/ImGuiUtil.h</text>
</a>
</g>
</g>
<!-- Node10&#45;&gt;Node20 -->
<g id="edge23" class="edge">
<title>Node10&#45;&gt;Node20</title>
<path fill="none" stroke="midnightblue" d="M1570.34,-120.73C1426.7,-119.51 1029.2,-112.89 688.63,-75.98"/>
<polygon fill="midnightblue" stroke="midnightblue" points="688.89,-72.49 678.57,-74.88 688.13,-79.44 688.89,-72.49"/>
</g>
<!-- Node22 -->
<g id="node22" class="node">
<title>Node22</title>
<g id="a_node22"><a xlink:title=" ">
<polygon fill="white" stroke="#bfbfbf" points="2249,-56.5 2249,-75.5 2446,-75.5 2446,-56.5 2249,-56.5"/>
<text text-anchor="middle" x="2347.5" y="-63.5" font-family="Helvetica,sans-Serif" font-size="10.00">Components/ChildActorComponent.h</text>
</a>
</g>
</g>
<!-- Node10&#45;&gt;Node22 -->
<g id="edge26" class="edge">
<title>Node10&#45;&gt;Node22</title>
<path fill="none" stroke="midnightblue" d="M1680.55,-117.15C1786.35,-109.71 2025.68,-92.69 2238.79,-76.05"/>
<polygon fill="midnightblue" stroke="midnightblue" points="2239.22,-79.53 2248.91,-75.26 2238.67,-72.55 2239.22,-79.53"/>
</g>
<!-- Node23 -->
<g id="node23" class="node">
<title>Node23</title>
<g id="a_node23"><a xlink:title=" ">
<polygon fill="white" stroke="#bfbfbf" points="2464.5,-56.5 2464.5,-75.5 2664.5,-75.5 2664.5,-56.5 2464.5,-56.5"/>
<text text-anchor="middle" x="2564.5" y="-63.5" font-family="Helvetica,sans-Serif" font-size="10.00">Components/StaticMeshComponent.h</text>
</a>
</g>
</g>
<!-- Node10&#45;&gt;Node23 -->
<g id="edge27" class="edge">
<title>Node10&#45;&gt;Node23</title>
<path fill="none" stroke="midnightblue" d="M1680.9,-118.54C1812.81,-112.56 2156.13,-96.31 2454.28,-76.06"/>
<polygon fill="midnightblue" stroke="midnightblue" points="2454.69,-79.55 2464.42,-75.37 2454.21,-72.56 2454.69,-79.55"/>
</g>
<!-- Node24 -->
<g id="node24" class="node">
<title>Node24</title>
<g id="a_node24"><a xlink:title=" ">
<polygon fill="white" stroke="#bfbfbf" points="2682.5,-56.5 2682.5,-75.5 2894.5,-75.5 2894.5,-56.5 2682.5,-56.5"/>
<text text-anchor="middle" x="2788.5" y="-63.5" font-family="Helvetica,sans-Serif" font-size="10.00">Components/SkeletalMeshComponent.h</text>
</a>
</g>
</g>
<!-- Node10&#45;&gt;Node24 -->
<g id="edge28" class="edge">
<title>Node10&#45;&gt;Node24</title>
<path fill="none" stroke="midnightblue" d="M1680.64,-119.32C1835.21,-114.45 2286.02,-99.26 2672.05,-76.07"/>
<polygon fill="midnightblue" stroke="midnightblue" points="2672.53,-79.54 2682.3,-75.45 2672.11,-72.56 2672.53,-79.54"/>
</g>
<!-- Node25 -->
<g id="node25" class="node">
<title>Node25</title>
<g id="a_node25"><a xlink:title=" ">
<polygon fill="white" stroke="#bfbfbf" points="697,-56.5 697,-75.5 924,-75.5 924,-56.5 697,-56.5"/>
<text text-anchor="middle" x="810.5" y="-63.5" font-family="Helvetica,sans-Serif" font-size="10.00">Components/SceneCaptureComponent2D.h</text>
</a>
</g>
</g>
<!-- Node10&#45;&gt;Node25 -->
<g id="edge29" class="edge">
<title>Node10&#45;&gt;Node25</title>
<path fill="none" stroke="midnightblue" d="M1570.32,-117.56C1454.67,-110.33 1178.11,-92.86 934.21,-76.04"/>
<polygon fill="midnightblue" stroke="midnightblue" points="934.31,-72.54 924.09,-75.35 933.83,-79.53 934.31,-72.54"/>
</g>
<!-- Node26 -->
<g id="node26" class="node">
<title>Node26</title>
<g id="a_node26"><a xlink:title=" ">
<polygon fill="white" stroke="#bfbfbf" points="942.5,-56.5 942.5,-75.5 1118.5,-75.5 1118.5,-56.5 942.5,-56.5"/>
<text text-anchor="middle" x="1030.5" y="-63.5" font-family="Helvetica,sans-Serif" font-size="10.00">Engine/TextureRenderTarget2D.h</text>
</a>
</g>
</g>
<!-- Node10&#45;&gt;Node26 -->
<g id="edge30" class="edge">
<title>Node10&#45;&gt;Node26</title>
<path fill="none" stroke="midnightblue" d="M1570.34,-116.03C1480.42,-107.92 1296.35,-91.3 1128.65,-76.01"/>
<polygon fill="midnightblue" stroke="midnightblue" points="1128.92,-72.52 1118.65,-75.1 1128.29,-79.49 1128.92,-72.52"/>
</g>
<!-- Node27 -->
<g id="node27" class="node">
<title>Node27</title>
<g id="a_node27"><a xlink:title=" ">
<polygon fill="white" stroke="#bfbfbf" points="1137,-56.5 1137,-75.5 1266,-75.5 1266,-56.5 1137,-56.5"/>
<text text-anchor="middle" x="1201.5" y="-63.5" font-family="Helvetica,sans-Serif" font-size="10.00">QuadPawn.generated.h</text>
</a>
</g>
</g>
<!-- Node10&#45;&gt;Node27 -->
<g id="edge31" class="edge">
<title>Node10&#45;&gt;Node27</title>
<path fill="none" stroke="midnightblue" d="M1570.07,-113.94C1494.9,-104.37 1360.38,-87.23 1276.31,-76.53"/>
<polygon fill="midnightblue" stroke="midnightblue" points="1276.68,-73.05 1266.32,-75.26 1275.8,-79.99 1276.68,-73.05"/>
</g>
<!-- Node14&#45;&gt;Node3 -->
<g id="edge16" class="edge">
<title>Node14&#45;&gt;Node3</title>
<path fill="none" stroke="midnightblue" d="M1896.1,-57.2C1891.5,-56.77 1886.94,-56.37 1882.5,-56 1646.53,-36.23 1364.48,-20.18 1247.97,-13.88"/>
<polygon fill="midnightblue" stroke="midnightblue" points="1248.05,-10.38 1237.88,-13.33 1247.67,-17.37 1248.05,-10.38"/>
</g>
<!-- Node15 -->
<g id="node15" class="node">
<title>Node15</title>
<g id="a_node15"><a xlink:title=" ">
<polygon fill="white" stroke="#bfbfbf" points="1676.5,-0.5 1676.5,-19.5 1852.5,-19.5 1852.5,-0.5 1676.5,-0.5"/>
<text text-anchor="middle" x="1764.5" y="-7.5" font-family="Helvetica,sans-Serif" font-size="10.00">Components/SceneComponent.h</text>
</a>
</g>
</g>
<!-- Node14&#45;&gt;Node15 -->
<g id="edge17" class="edge">
<title>Node14&#45;&gt;Node15</title>
<path fill="none" stroke="midnightblue" d="M1937.86,-56.44C1902.45,-47.16 1845.79,-32.31 1806.95,-22.13"/>
<polygon fill="midnightblue" stroke="midnightblue" points="1807.55,-18.67 1796.99,-19.52 1805.77,-25.44 1807.55,-18.67"/>
</g>
<!-- Node16 -->
<g id="node16" class="node">
<title>Node16</title>
<g id="a_node16"><a xlink:title=" ">
<polygon fill="white" stroke="#bfbfbf" points="1871,-0.5 1871,-19.5 2046,-19.5 2046,-0.5 1871,-0.5"/>
<text text-anchor="middle" x="1958.5" y="-7.5" font-family="Helvetica,sans-Serif" font-size="10.00">ThrusterComponent.generated.h</text>
</a>
</g>
</g>
<!-- Node14&#45;&gt;Node16 -->
<g id="edge18" class="edge">
<title>Node14&#45;&gt;Node16</title>
<path fill="none" stroke="midnightblue" d="M1968.52,-56.08C1966.93,-48.93 1964.64,-38.64 1962.65,-29.69"/>
<polygon fill="midnightblue" stroke="midnightblue" points="1966.03,-28.75 1960.44,-19.75 1959.2,-30.27 1966.03,-28.75"/>
</g>
<!-- Node17&#45;&gt;Node3 -->
<g id="edge20" class="edge">
<title>Node17&#45;&gt;Node3</title>
<path fill="none" stroke="midnightblue" d="M2062.36,-56.69C2059.37,-56.45 2056.41,-56.22 2053.5,-56 1749.44,-33.34 1384.05,-18.23 1248.01,-13.02"/>
<polygon fill="midnightblue" stroke="midnightblue" points="1247.98,-9.51 1237.85,-12.63 1247.71,-16.51 1247.98,-9.51"/>
</g>
<!-- Node18 -->
<g id="node18" class="node">
<title>Node18</title>
<g id="a_node18"><a xlink:title=" ">
<polygon fill="white" stroke="#bfbfbf" points="2270.5,-0.5 2270.5,-19.5 2442.5,-19.5 2442.5,-0.5 2270.5,-0.5"/>
<text text-anchor="middle" x="2356.5" y="-7.5" font-family="Helvetica,sans-Serif" font-size="10.00">Components/ActorComponent.h</text>
</a>
</g>
</g>
<!-- Node17&#45;&gt;Node18 -->
<g id="edge21" class="edge">
<title>Node17&#45;&gt;Node18</title>
<path fill="none" stroke="midnightblue" d="M2179.78,-56.44C2215.95,-47.14 2273.88,-32.25 2313.48,-22.06"/>
<polygon fill="midnightblue" stroke="midnightblue" points="2314.57,-25.4 2323.38,-19.52 2312.82,-18.62 2314.57,-25.4"/>
</g>
<!-- Node19 -->
<g id="node19" class="node">
<title>Node19</title>
<g id="a_node19"><a xlink:title=" ">
<polygon fill="white" stroke="#bfbfbf" points="2064.5,-0.5 2064.5,-19.5 2252.5,-19.5 2252.5,-0.5 2064.5,-0.5"/>
<text text-anchor="middle" x="2158.5" y="-7.5" font-family="Helvetica,sans-Serif" font-size="10.00">NavigationComponent.generated.h</text>
</a>
</g>
</g>
<!-- Node17&#45;&gt;Node19 -->
<g id="edge22" class="edge">
<title>Node17&#45;&gt;Node19</title>
<path fill="none" stroke="midnightblue" d="M2148.48,-56.08C2150.07,-48.93 2152.36,-38.64 2154.35,-29.69"/>
<polygon fill="midnightblue" stroke="midnightblue" points="2157.8,-30.27 2156.56,-19.75 2150.97,-28.75 2157.8,-30.27"/>
</g>
<!-- Node20&#45;&gt;Node3 -->
<g id="edge24" class="edge">
<title>Node20&#45;&gt;Node3</title>
<path fill="none" stroke="midnightblue" d="M678.59,-57.26C681.6,-56.81 684.59,-56.38 687.5,-56 851.44,-34.56 1046.63,-20.39 1139.38,-14.34"/>
<polygon fill="midnightblue" stroke="midnightblue" points="1139.62,-17.83 1149.37,-13.69 1139.17,-10.84 1139.62,-17.83"/>
</g>
<!-- Node21 -->
<g id="node21" class="node">
<title>Node21</title>
<g id="a_node21"><a xlink:title=" ">
<polygon fill="white" stroke="#bfbfbf" points="573,-0.5 573,-19.5 698,-19.5 698,-0.5 573,-0.5"/>
<text text-anchor="middle" x="635.5" y="-7.5" font-family="Helvetica,sans-Serif" font-size="10.00">ImGuiUtil.generated.h</text>
</a>
</g>
</g>
<!-- Node20&#45;&gt;Node21 -->
<g id="edge25" class="edge">
<title>Node20&#45;&gt;Node21</title>
<path fill="none" stroke="midnightblue" d="M635.5,-56.08C635.5,-49.01 635.5,-38.86 635.5,-29.99"/>
<polygon fill="midnightblue" stroke="midnightblue" points="639,-29.75 635.5,-19.75 632,-29.75 639,-29.75"/>
</g>
</g>
</svg>
