<?xml version="1.0" encoding="UTF-8" standalone="no"?>
<!DOCTYPE svg PUBLIC "-//W3C//DTD SVG 1.1//EN"
 "http://www.w3.org/Graphics/SVG/1.1/DTD/svg11.dtd">
<!-- Generated by graphviz version 2.43.0 (0)
 -->
<!-- Title: Source/QuadSimCore/Public/Pawns/QuadPawn.h Pages: 1 -->
<svg width="2566pt" height="151pt"
 viewBox="0.00 0.00 2565.50 151.00" xmlns="http://www.w3.org/2000/svg" xmlns:xlink="http://www.w3.org/1999/xlink">
<g id="graph0" class="graph" transform="scale(1 1) rotate(0) translate(4 147)">
<title>Source/QuadSimCore/Public/Pawns/QuadPawn.h</title>
<polygon fill="white" stroke="transparent" points="-4,4 -4,-147 2561.5,-147 2561.5,4 -4,4"/>
<!-- Node1 -->
<g id="node1" class="node">
<title>Node1</title>
<g id="a_node1"><a xlink:title=" ">
<polygon fill="#bfbfbf" stroke="black" points="1123,-112.5 1123,-142.5 1269,-142.5 1269,-112.5 1123,-112.5"/>
<text text-anchor="start" x="1131" y="-130.5" font-family="Helvetica,sans-Serif" font-size="10.00">Source/QuadSimCore</text>
<text text-anchor="middle" x="1196" y="-119.5" font-family="Helvetica,sans-Serif" font-size="10.00">/Public/Pawns/QuadPawn.h</text>
</a>
</g>
</g>
<!-- Node2 -->
<g id="node2" class="node">
<title>Node2</title>
<g id="a_node2"><a xlink:title=" ">
<polygon fill="white" stroke="#bfbfbf" points="388,-0.5 388,-19.5 476,-19.5 476,-0.5 388,-0.5"/>
<text text-anchor="middle" x="432" y="-7.5" font-family="Helvetica,sans-Serif" font-size="10.00">CoreMinimal.h</text>
</a>
</g>
</g>
<!-- Node1&#45;&gt;Node2 -->
<g id="edge1" class="edge">
<title>Node1&#45;&gt;Node2</title>
<path fill="none" stroke="midnightblue" d="M1122.98,-126.23C945.56,-124.9 502.56,-117.45 451,-76 437.42,-65.08 433.19,-45.02 432.05,-30.06"/>
<polygon fill="midnightblue" stroke="midnightblue" points="435.53,-29.71 431.66,-19.85 428.54,-29.97 435.53,-29.71"/>
</g>
<!-- Node3 -->
<g id="node3" class="node">
<title>Node3</title>
<g id="a_node3"><a xlink:title=" ">
<polygon fill="white" stroke="#bfbfbf" points="750,-56.5 750,-75.5 888,-75.5 888,-56.5 750,-56.5"/>
<text text-anchor="middle" x="819" y="-63.5" font-family="Helvetica,sans-Serif" font-size="10.00">GameFramework/Pawn.h</text>
</a>
</g>
</g>
<!-- Node1&#45;&gt;Node3 -->
<g id="edge2" class="edge">
<title>Node1&#45;&gt;Node3</title>
<path fill="none" stroke="midnightblue" d="M1122.86,-114.96C1053.21,-103.96 949.4,-87.58 882.96,-77.09"/>
<polygon fill="midnightblue" stroke="midnightblue" points="883.46,-73.63 873.03,-75.53 882.36,-80.54 883.46,-73.63"/>
</g>
<!-- Node4 -->
<g id="node4" class="node">
<title>Node4</title>
<g id="a_node4"><a xlink:title=" ">
<polygon fill="white" stroke="#bfbfbf" points="906.5,-56.5 906.5,-75.5 1067.5,-75.5 1067.5,-56.5 906.5,-56.5"/>
<text text-anchor="middle" x="987" y="-63.5" font-family="Helvetica,sans-Serif" font-size="10.00">Camera/CameraComponent.h</text>
</a>
</g>
</g>
<!-- Node1&#45;&gt;Node4 -->
<g id="edge3" class="edge">
<title>Node1&#45;&gt;Node4</title>
<path fill="none" stroke="midnightblue" d="M1146.73,-112.47C1110.05,-102.03 1060.62,-87.96 1026.51,-78.25"/>
<polygon fill="midnightblue" stroke="midnightblue" points="1027.46,-74.88 1016.88,-75.51 1025.54,-81.61 1027.46,-74.88"/>
</g>
<!-- Node5 -->
<g id="node5" class="node">
<title>Node5</title>
<g id="a_node5"><a xlink:title=" ">
<polygon fill="white" stroke="#bfbfbf" points="1086,-56.5 1086,-75.5 1306,-75.5 1306,-56.5 1086,-56.5"/>
<text text-anchor="middle" x="1196" y="-63.5" font-family="Helvetica,sans-Serif" font-size="10.00">GameFramework/SpringArmComponent.h</text>
</a>
</g>
</g>
<!-- Node1&#45;&gt;Node5 -->
<g id="edge4" class="edge">
<title>Node1&#45;&gt;Node5</title>
<path fill="none" stroke="midnightblue" d="M1196,-112.4C1196,-104.47 1196,-94.46 1196,-85.86"/>
<polygon fill="midnightblue" stroke="midnightblue" points="1199.5,-85.66 1196,-75.66 1192.5,-85.66 1199.5,-85.66"/>
</g>
<!-- Node6 -->
<g id="node6" class="node">
<title>Node6</title>
<g id="a_node6"><a xlink:href="ThrusterComponent_8h.html" target="_top" xlink:title=" ">
<polygon fill="white" stroke="black" points="232,-56.5 232,-75.5 380,-75.5 380,-56.5 232,-56.5"/>
<text text-anchor="middle" x="306" y="-63.5" font-family="Helvetica,sans-Serif" font-size="10.00">Core/ThrusterComponent.h</text>
</a>
</g>
</g>
<!-- Node1&#45;&gt;Node6 -->
<g id="edge5" class="edge">
<title>Node1&#45;&gt;Node6</title>
<path fill="none" stroke="midnightblue" d="M1122.77,-122.12C984.82,-113.79 677.03,-94.81 418,-76 409,-75.35 399.59,-74.63 390.22,-73.91"/>
<polygon fill="midnightblue" stroke="midnightblue" points="390.33,-70.41 380.09,-73.12 389.79,-77.38 390.33,-70.41"/>
</g>
<!-- Node9 -->
<g id="node9" class="node">
<title>Node9</title>
<g id="a_node9"><a xlink:href="NavigationComponent_8h.html" target="_top" xlink:title=" ">
<polygon fill="white" stroke="black" points="460,-56.5 460,-75.5 628,-75.5 628,-56.5 460,-56.5"/>
<text text-anchor="middle" x="544" y="-63.5" font-family="Helvetica,sans-Serif" font-size="10.00">Utility/NavigationComponent.h</text>
</a>
</g>
</g>
<!-- Node1&#45;&gt;Node9 -->
<g id="edge9" class="edge">
<title>Node1&#45;&gt;Node9</title>
<path fill="none" stroke="midnightblue" d="M1122.73,-120.03C1017.89,-110.74 818.72,-92.97 638.36,-76.12"/>
<polygon fill="midnightblue" stroke="midnightblue" points="638.43,-72.61 628.15,-75.17 637.78,-79.58 638.43,-72.61"/>
</g>
<!-- Node12 -->
<g id="node12" class="node">
<title>Node12</title>
<g id="a_node12"><a xlink:href="ImGuiUtil_8h.html" target="_top" xlink:title=" ">
<polygon fill="white" stroke="black" points="646,-56.5 646,-75.5 732,-75.5 732,-56.5 646,-56.5"/>
<text text-anchor="middle" x="689" y="-63.5" font-family="Helvetica,sans-Serif" font-size="10.00">UI/ImGuiUtil.h</text>
</a>
</g>
</g>
<!-- Node1&#45;&gt;Node12 -->
<g id="edge13" class="edge">
<title>Node1&#45;&gt;Node12</title>
<path fill="none" stroke="midnightblue" d="M1122.93,-119.77C1035.02,-111.37 882.71,-95.82 742.19,-76.09"/>
<polygon fill="midnightblue" stroke="midnightblue" points="742.49,-72.6 732.1,-74.67 741.51,-79.53 742.49,-72.6"/>
</g>
<!-- Node14 -->
<g id="node14" class="node">
<title>Node14</title>
<g id="a_node14"><a xlink:title=" ">
<polygon fill="white" stroke="#bfbfbf" points="1324.5,-56.5 1324.5,-75.5 1521.5,-75.5 1521.5,-56.5 1324.5,-56.5"/>
<text text-anchor="middle" x="1423" y="-63.5" font-family="Helvetica,sans-Serif" font-size="10.00">Components/ChildActorComponent.h</text>
</a>
</g>
</g>
<!-- Node1&#45;&gt;Node14 -->
<g id="edge16" class="edge">
<title>Node1&#45;&gt;Node14</title>
<path fill="none" stroke="midnightblue" d="M1249.51,-112.47C1289.53,-101.99 1343.51,-87.84 1380.57,-78.12"/>
<polygon fill="midnightblue" stroke="midnightblue" points="1381.76,-81.43 1390.55,-75.51 1379.99,-74.66 1381.76,-81.43"/>
</g>
<!-- Node15 -->
<g id="node15" class="node">
<title>Node15</title>
<g id="a_node15"><a xlink:title=" ">
<polygon fill="white" stroke="#bfbfbf" points="1540,-56.5 1540,-75.5 1740,-75.5 1740,-56.5 1540,-56.5"/>
<text text-anchor="middle" x="1640" y="-63.5" font-family="Helvetica,sans-Serif" font-size="10.00">Components/StaticMeshComponent.h</text>
</a>
</g>
</g>
<!-- Node1&#45;&gt;Node15 -->
<g id="edge17" class="edge">
<title>Node1&#45;&gt;Node15</title>
<path fill="none" stroke="midnightblue" d="M1269.32,-116.67C1351.48,-105.66 1483.93,-87.91 1566.27,-76.88"/>
<polygon fill="midnightblue" stroke="midnightblue" points="1566.85,-80.33 1576.3,-75.54 1565.92,-73.4 1566.85,-80.33"/>
</g>
<!-- Node16 -->
<g id="node16" class="node">
<title>Node16</title>
<g id="a_node16"><a xlink:title=" ">
<polygon fill="white" stroke="#bfbfbf" points="1758,-56.5 1758,-75.5 1970,-75.5 1970,-56.5 1758,-56.5"/>
<text text-anchor="middle" x="1864" y="-63.5" font-family="Helvetica,sans-Serif" font-size="10.00">Components/SkeletalMeshComponent.h</text>
</a>
</g>
</g>
<!-- Node1&#45;&gt;Node16 -->
<g id="edge18" class="edge">
<title>Node1&#45;&gt;Node16</title>
<path fill="none" stroke="midnightblue" d="M1269.08,-119.99C1387.48,-109.44 1621.73,-88.58 1758.3,-76.41"/>
<polygon fill="midnightblue" stroke="midnightblue" points="1758.72,-79.89 1768.37,-75.52 1758.1,-72.92 1758.72,-79.89"/>
</g>
<!-- Node17 -->
<g id="node17" class="node">
<title>Node17</title>
<g id="a_node17"><a xlink:title=" ">
<polygon fill="white" stroke="#bfbfbf" points="1988.5,-56.5 1988.5,-75.5 2215.5,-75.5 2215.5,-56.5 1988.5,-56.5"/>
<text text-anchor="middle" x="2102" y="-63.5" font-family="Helvetica,sans-Serif" font-size="10.00">Components/SceneCaptureComponent2D.h</text>
</a>
</g>
</g>
<!-- Node1&#45;&gt;Node17 -->
<g id="edge19" class="edge">
<title>Node1&#45;&gt;Node17</title>
<path fill="none" stroke="midnightblue" d="M1269.15,-121.99C1405.94,-113.52 1710.06,-94.46 1978.09,-76.06"/>
<polygon fill="midnightblue" stroke="midnightblue" points="1978.67,-79.53 1988.41,-75.35 1978.19,-72.54 1978.67,-79.53"/>
</g>
<!-- Node18 -->
<g id="node18" class="node">
<title>Node18</title>
<g id="a_node18"><a xlink:title=" ">
<polygon fill="white" stroke="#bfbfbf" points="2234,-56.5 2234,-75.5 2410,-75.5 2410,-56.5 2234,-56.5"/>
<text text-anchor="middle" x="2322" y="-63.5" font-family="Helvetica,sans-Serif" font-size="10.00">Engine/TextureRenderTarget2D.h</text>
</a>
</g>
</g>
<!-- Node1&#45;&gt;Node18 -->
<g id="edge20" class="edge">
<title>Node1&#45;&gt;Node18</title>
<path fill="none" stroke="midnightblue" d="M1269.05,-124.01C1436.07,-118.07 1858.89,-101.7 2223.75,-76.06"/>
<polygon fill="midnightblue" stroke="midnightblue" points="2224.26,-79.53 2233.99,-75.33 2223.76,-72.55 2224.26,-79.53"/>
</g>
<!-- Node19 -->
<g id="node19" class="node">
<title>Node19</title>
<g id="a_node19"><a xlink:title=" ">
<polygon fill="white" stroke="#bfbfbf" points="2428.5,-56.5 2428.5,-75.5 2557.5,-75.5 2557.5,-56.5 2428.5,-56.5"/>
<text text-anchor="middle" x="2493" y="-63.5" font-family="Helvetica,sans-Serif" font-size="10.00">QuadPawn.generated.h</text>
</a>
</g>
</g>
<!-- Node1&#45;&gt;Node19 -->
<g id="edge21" class="edge">
<title>Node1&#45;&gt;Node19</title>
<path fill="none" stroke="midnightblue" d="M1269.18,-125.51C1457.76,-122.53 1975.81,-111.57 2418.35,-75.98"/>
<polygon fill="midnightblue" stroke="midnightblue" points="2418.77,-79.45 2428.46,-75.16 2418.21,-72.48 2418.77,-79.45"/>
</g>
<!-- Node6&#45;&gt;Node2 -->
<g id="edge6" class="edge">
<title>Node6&#45;&gt;Node2</title>
<path fill="none" stroke="midnightblue" d="M325.97,-56.44C346.61,-47.6 379.06,-33.69 402.63,-23.59"/>
<polygon fill="midnightblue" stroke="midnightblue" points="404.32,-26.67 412.13,-19.52 401.56,-20.24 404.32,-26.67"/>
</g>
<!-- Node7 -->
<g id="node7" class="node">
<title>Node7</title>
<g id="a_node7"><a xlink:title=" ">
<polygon fill="white" stroke="#bfbfbf" points="0,-0.5 0,-19.5 176,-19.5 176,-0.5 0,-0.5"/>
<text text-anchor="middle" x="88" y="-7.5" font-family="Helvetica,sans-Serif" font-size="10.00">Components/SceneComponent.h</text>
</a>
</g>
</g>
<!-- Node6&#45;&gt;Node7 -->
<g id="edge7" class="edge">
<title>Node6&#45;&gt;Node7</title>
<path fill="none" stroke="midnightblue" d="M271.46,-56.44C233.75,-47.1 173.26,-32.12 132.14,-21.93"/>
<polygon fill="midnightblue" stroke="midnightblue" points="132.93,-18.52 122.38,-19.52 131.25,-25.32 132.93,-18.52"/>
</g>
<!-- Node8 -->
<g id="node8" class="node">
<title>Node8</title>
<g id="a_node8"><a xlink:title=" ">
<polygon fill="white" stroke="#bfbfbf" points="194.5,-0.5 194.5,-19.5 369.5,-19.5 369.5,-0.5 194.5,-0.5"/>
<text text-anchor="middle" x="282" y="-7.5" font-family="Helvetica,sans-Serif" font-size="10.00">ThrusterComponent.generated.h</text>
</a>
</g>
</g>
<!-- Node6&#45;&gt;Node8 -->
<g id="edge8" class="edge">
<title>Node6&#45;&gt;Node8</title>
<path fill="none" stroke="midnightblue" d="M302.04,-56.08C298.79,-48.77 294.08,-38.18 290.05,-29.1"/>
<polygon fill="midnightblue" stroke="midnightblue" points="293.15,-27.47 285.89,-19.75 286.75,-30.31 293.15,-27.47"/>
</g>
<!-- Node9&#45;&gt;Node2 -->
<g id="edge10" class="edge">
<title>Node9&#45;&gt;Node2</title>
<path fill="none" stroke="midnightblue" d="M526.01,-56.32C507.96,-47.62 479.95,-34.12 459.2,-24.11"/>
<polygon fill="midnightblue" stroke="midnightblue" points="460.48,-20.84 449.95,-19.65 457.44,-27.15 460.48,-20.84"/>
</g>
<!-- Node10 -->
<g id="node10" class="node">
<title>Node10</title>
<g id="a_node10"><a xlink:title=" ">
<polygon fill="white" stroke="#bfbfbf" points="494,-0.5 494,-19.5 666,-19.5 666,-0.5 494,-0.5"/>
<text text-anchor="middle" x="580" y="-7.5" font-family="Helvetica,sans-Serif" font-size="10.00">Components/ActorComponent.h</text>
</a>
</g>
</g>
<!-- Node9&#45;&gt;Node10 -->
<g id="edge11" class="edge">
<title>Node9&#45;&gt;Node10</title>
<path fill="none" stroke="midnightblue" d="M549.94,-56.08C554.98,-48.53 562.34,-37.49 568.51,-28.23"/>
<polygon fill="midnightblue" stroke="midnightblue" points="571.53,-30.01 574.17,-19.75 565.71,-26.13 571.53,-30.01"/>
</g>
<!-- Node11 -->
<g id="node11" class="node">
<title>Node11</title>
<g id="a_node11"><a xlink:title=" ">
<polygon fill="white" stroke="#bfbfbf" points="684,-0.5 684,-19.5 872,-19.5 872,-0.5 684,-0.5"/>
<text text-anchor="middle" x="778" y="-7.5" font-family="Helvetica,sans-Serif" font-size="10.00">NavigationComponent.generated.h</text>
</a>
</g>
</g>
<!-- Node9&#45;&gt;Node11 -->
<g id="edge12" class="edge">
<title>Node9&#45;&gt;Node11</title>
<path fill="none" stroke="midnightblue" d="M581.08,-56.44C621.73,-47.06 687.03,-31.99 731.18,-21.8"/>
<polygon fill="midnightblue" stroke="midnightblue" points="732.14,-25.18 741.1,-19.52 730.56,-18.35 732.14,-25.18"/>
</g>
<!-- Node12&#45;&gt;Node2 -->
<g id="edge14" class="edge">
<title>Node12&#45;&gt;Node2</title>
<path fill="none" stroke="midnightblue" d="M648.28,-56.44C603.35,-47 531,-31.8 482.5,-21.61"/>
<polygon fill="midnightblue" stroke="midnightblue" points="483.04,-18.15 472.53,-19.52 481.6,-25 483.04,-18.15"/>
</g>
<!-- Node13 -->
<g id="node13" class="node">
<title>Node13</title>
<g id="a_node13"><a xlink:title=" ">
<polygon fill="white" stroke="#bfbfbf" points="890.5,-0.5 890.5,-19.5 1015.5,-19.5 1015.5,-0.5 890.5,-0.5"/>
<text text-anchor="middle" x="953" y="-7.5" font-family="Helvetica,sans-Serif" font-size="10.00">ImGuiUtil.generated.h</text>
</a>
</g>
</g>
<!-- Node12&#45;&gt;Node13 -->
<g id="edge15" class="edge">
<title>Node12&#45;&gt;Node13</title>
<path fill="none" stroke="midnightblue" d="M730.83,-56.44C777.08,-46.98 851.61,-31.74 901.44,-21.55"/>
<polygon fill="midnightblue" stroke="midnightblue" points="902.27,-24.95 911.36,-19.52 900.87,-18.09 902.27,-24.95"/>
</g>
</g>
</svg>
