<?xml version="1.0" encoding="UTF-8" standalone="no"?>
<!DOCTYPE svg PUBLIC "-//W3C//DTD SVG 1.1//EN"
 "http://www.w3.org/Graphics/SVG/1.1/DTD/svg11.dtd">
<!-- Generated by graphviz version 2.43.0 (0)
 -->
<!-- Title: Source/QuadSimCore/Private/QuadSimGameMode.cpp Pages: 1 -->
<svg width="2859pt" height="207pt"
 viewBox="0.00 0.00 2859.00 207.00" xmlns="http://www.w3.org/2000/svg" xmlns:xlink="http://www.w3.org/1999/xlink">
<g id="graph0" class="graph" transform="scale(1 1) rotate(0) translate(4 203)">
<title>Source/QuadSimCore/Private/QuadSimGameMode.cpp</title>
<polygon fill="white" stroke="transparent" points="-4,4 -4,-203 2855,-203 2855,4 -4,4"/>
<!-- Node1 -->
<g id="node1" class="node">
<title>Node1</title>
<g id="a_node1"><a xlink:title=" ">
<polygon fill="#bfbfbf" stroke="black" points="1420.5,-168.5 1420.5,-198.5 1598.5,-198.5 1598.5,-168.5 1420.5,-168.5"/>
<text text-anchor="start" x="1428.5" y="-186.5" font-family="Helvetica,sans-Serif" font-size="10.00">Source/QuadSimCore</text>
<text text-anchor="middle" x="1509.5" y="-175.5" font-family="Helvetica,sans-Serif" font-size="10.00">/Private/QuadSimGameMode.cpp</text>
</a>
</g>
</g>
<!-- Node2 -->
<g id="node2" class="node">
<title>Node2</title>
<g id="a_node2"><a xlink:href="QuadSimGameModePlugin_8h.html" target="_top" xlink:title=" ">
<polygon fill="white" stroke="black" points="245.5,-112.5 245.5,-131.5 401.5,-131.5 401.5,-112.5 245.5,-112.5"/>
<text text-anchor="middle" x="323.5" y="-119.5" font-family="Helvetica,sans-Serif" font-size="10.00">QuadSimGameModePlugin.h</text>
</a>
</g>
</g>
<!-- Node1&#45;&gt;Node2 -->
<g id="edge1" class="edge">
<title>Node1&#45;&gt;Node2</title>
<path fill="none" stroke="midnightblue" d="M1420.36,-178.03C1200.02,-166.97 631.75,-138.46 412.05,-127.44"/>
<polygon fill="midnightblue" stroke="midnightblue" points="412.01,-123.94 401.85,-126.93 411.66,-130.93 412.01,-123.94"/>
</g>
<!-- Node5 -->
<g id="node5" class="node">
<title>Node5</title>
<g id="a_node5"><a xlink:href="QuadPawn_8h.html" target="_top" xlink:title=" ">
<polygon fill="white" stroke="black" points="1454.5,-112.5 1454.5,-131.5 1564.5,-131.5 1564.5,-112.5 1454.5,-112.5"/>
<text text-anchor="middle" x="1509.5" y="-119.5" font-family="Helvetica,sans-Serif" font-size="10.00">Pawns/QuadPawn.h</text>
</a>
</g>
</g>
<!-- Node1&#45;&gt;Node5 -->
<g id="edge4" class="edge">
<title>Node1&#45;&gt;Node5</title>
<path fill="none" stroke="midnightblue" d="M1509.5,-168.4C1509.5,-160.47 1509.5,-150.46 1509.5,-141.86"/>
<polygon fill="midnightblue" stroke="midnightblue" points="1513,-141.66 1509.5,-131.66 1506,-141.66 1513,-141.66"/>
</g>
<!-- Node24 -->
<g id="node24" class="node">
<title>Node24</title>
<g id="a_node24"><a xlink:title=" ">
<polygon fill="white" stroke="#bfbfbf" points="1583,-112.5 1583,-131.5 1744,-131.5 1744,-112.5 1583,-112.5"/>
<text text-anchor="middle" x="1663.5" y="-119.5" font-family="Helvetica,sans-Serif" font-size="10.00">UObject/ConstructorHelpers.h</text>
</a>
</g>
</g>
<!-- Node1&#45;&gt;Node24 -->
<g id="edge26" class="edge">
<title>Node1&#45;&gt;Node24</title>
<path fill="none" stroke="midnightblue" d="M1546,-168.4C1572.07,-158.33 1606.79,-144.91 1631.72,-135.28"/>
<polygon fill="midnightblue" stroke="midnightblue" points="1633.03,-138.53 1641.09,-131.66 1630.5,-132 1633.03,-138.53"/>
</g>
<!-- Node3 -->
<g id="node3" class="node">
<title>Node3</title>
<g id="a_node3"><a xlink:title=" ">
<polygon fill="white" stroke="#bfbfbf" points="227,-56.5 227,-75.5 420,-75.5 420,-56.5 227,-56.5"/>
<text text-anchor="middle" x="323.5" y="-63.5" font-family="Helvetica,sans-Serif" font-size="10.00">GameFramework/GameModeBase.h</text>
</a>
</g>
</g>
<!-- Node2&#45;&gt;Node3 -->
<g id="edge2" class="edge">
<title>Node2&#45;&gt;Node3</title>
<path fill="none" stroke="midnightblue" d="M323.5,-112.08C323.5,-105.01 323.5,-94.86 323.5,-85.99"/>
<polygon fill="midnightblue" stroke="midnightblue" points="327,-85.75 323.5,-75.75 320,-85.75 327,-85.75"/>
</g>
<!-- Node4 -->
<g id="node4" class="node">
<title>Node4</title>
<g id="a_node4"><a xlink:title=" ">
<polygon fill="white" stroke="#bfbfbf" points="0,-56.5 0,-75.5 209,-75.5 209,-56.5 0,-56.5"/>
<text text-anchor="middle" x="104.5" y="-63.5" font-family="Helvetica,sans-Serif" font-size="10.00">QuadSimGameModePlugin.generated.h</text>
</a>
</g>
</g>
<!-- Node2&#45;&gt;Node4 -->
<g id="edge3" class="edge">
<title>Node2&#45;&gt;Node4</title>
<path fill="none" stroke="midnightblue" d="M288.8,-112.44C250.92,-103.1 190.15,-88.12 148.84,-77.93"/>
<polygon fill="midnightblue" stroke="midnightblue" points="149.59,-74.51 139.04,-75.52 147.91,-81.31 149.59,-74.51"/>
</g>
<!-- Node6 -->
<g id="node6" class="node">
<title>Node6</title>
<g id="a_node6"><a xlink:title=" ">
<polygon fill="white" stroke="#bfbfbf" points="1621.5,-0.5 1621.5,-19.5 1709.5,-19.5 1709.5,-0.5 1621.5,-0.5"/>
<text text-anchor="middle" x="1665.5" y="-7.5" font-family="Helvetica,sans-Serif" font-size="10.00">CoreMinimal.h</text>
</a>
</g>
</g>
<!-- Node5&#45;&gt;Node6 -->
<g id="edge5" class="edge">
<title>Node5&#45;&gt;Node6</title>
<path fill="none" stroke="midnightblue" d="M1564.78,-112.96C1568.06,-112.6 1571.32,-112.28 1574.5,-112 1628.28,-107.29 2508.04,-114.87 2545.5,-76 2551.67,-69.6 2551.62,-62.44 2545.5,-56 2516.98,-25.98 1907.14,-14.55 1719.77,-11.74"/>
<polygon fill="midnightblue" stroke="midnightblue" points="1719.65,-8.24 1709.6,-11.59 1719.55,-15.24 1719.65,-8.24"/>
</g>
<!-- Node7 -->
<g id="node7" class="node">
<title>Node7</title>
<g id="a_node7"><a xlink:title=" ">
<polygon fill="white" stroke="#bfbfbf" points="728.5,-56.5 728.5,-75.5 866.5,-75.5 866.5,-56.5 728.5,-56.5"/>
<text text-anchor="middle" x="797.5" y="-63.5" font-family="Helvetica,sans-Serif" font-size="10.00">GameFramework/Pawn.h</text>
</a>
</g>
</g>
<!-- Node5&#45;&gt;Node7 -->
<g id="edge6" class="edge">
<title>Node5&#45;&gt;Node7</title>
<path fill="none" stroke="midnightblue" d="M1454.4,-117.87C1346.08,-111.55 1097.55,-96.2 876.99,-76"/>
<polygon fill="midnightblue" stroke="midnightblue" points="877.12,-72.5 866.84,-75.07 876.48,-79.47 877.12,-72.5"/>
</g>
<!-- Node8 -->
<g id="node8" class="node">
<title>Node8</title>
<g id="a_node8"><a xlink:title=" ">
<polygon fill="white" stroke="#bfbfbf" points="885,-56.5 885,-75.5 1046,-75.5 1046,-56.5 885,-56.5"/>
<text text-anchor="middle" x="965.5" y="-63.5" font-family="Helvetica,sans-Serif" font-size="10.00">Camera/CameraComponent.h</text>
</a>
</g>
</g>
<!-- Node5&#45;&gt;Node8 -->
<g id="edge7" class="edge">
<title>Node5&#45;&gt;Node8</title>
<path fill="none" stroke="midnightblue" d="M1454.29,-115.54C1370.74,-107.28 1206.91,-91.07 1056.78,-76.13"/>
<polygon fill="midnightblue" stroke="midnightblue" points="1056.75,-72.61 1046.45,-75.1 1056.06,-79.57 1056.75,-72.61"/>
</g>
<!-- Node9 -->
<g id="node9" class="node">
<title>Node9</title>
<g id="a_node9"><a xlink:title=" ">
<polygon fill="white" stroke="#bfbfbf" points="1064.5,-56.5 1064.5,-75.5 1284.5,-75.5 1284.5,-56.5 1064.5,-56.5"/>
<text text-anchor="middle" x="1174.5" y="-63.5" font-family="Helvetica,sans-Serif" font-size="10.00">GameFramework/SpringArmComponent.h</text>
</a>
</g>
</g>
<!-- Node5&#45;&gt;Node9 -->
<g id="edge8" class="edge">
<title>Node5&#45;&gt;Node9</title>
<path fill="none" stroke="midnightblue" d="M1456.42,-112.44C1397,-102.87 1300.78,-87.36 1237.57,-77.17"/>
<polygon fill="midnightblue" stroke="midnightblue" points="1237.76,-73.65 1227.33,-75.52 1236.65,-80.56 1237.76,-73.65"/>
</g>
<!-- Node10 -->
<g id="node10" class="node">
<title>Node10</title>
<g id="a_node10"><a xlink:href="ThrusterComponent_8h.html" target="_top" xlink:title=" ">
<polygon fill="white" stroke="black" points="2592.5,-56.5 2592.5,-75.5 2740.5,-75.5 2740.5,-56.5 2592.5,-56.5"/>
<text text-anchor="middle" x="2666.5" y="-63.5" font-family="Helvetica,sans-Serif" font-size="10.00">Core/ThrusterComponent.h</text>
</a>
</g>
</g>
<!-- Node5&#45;&gt;Node10 -->
<g id="edge9" class="edge">
<title>Node5&#45;&gt;Node10</title>
<path fill="none" stroke="midnightblue" d="M1564.78,-112.96C1568.06,-112.6 1571.32,-112.28 1574.5,-112 2019.33,-73.33 2133.05,-106.73 2578.5,-76 2579.61,-75.92 2580.73,-75.84 2581.85,-75.76"/>
<polygon fill="midnightblue" stroke="midnightblue" points="2582.42,-79.23 2592.11,-74.96 2581.87,-72.25 2582.42,-79.23"/>
</g>
<!-- Node13 -->
<g id="node13" class="node">
<title>Node13</title>
<g id="a_node13"><a xlink:href="NavigationComponent_8h.html" target="_top" xlink:title=" ">
<polygon fill="white" stroke="black" points="438.5,-56.5 438.5,-75.5 606.5,-75.5 606.5,-56.5 438.5,-56.5"/>
<text text-anchor="middle" x="522.5" y="-63.5" font-family="Helvetica,sans-Serif" font-size="10.00">Utility/NavigationComponent.h</text>
</a>
</g>
</g>
<!-- Node5&#45;&gt;Node13 -->
<g id="edge13" class="edge">
<title>Node5&#45;&gt;Node13</title>
<path fill="none" stroke="midnightblue" d="M1454.25,-119.11C1315.41,-114.16 940.44,-99.62 616.68,-76.05"/>
<polygon fill="midnightblue" stroke="midnightblue" points="616.86,-72.56 606.63,-75.32 616.35,-79.54 616.86,-72.56"/>
</g>
<!-- Node16 -->
<g id="node16" class="node">
<title>Node16</title>
<g id="a_node16"><a xlink:href="ImGuiUtil_8h.html" target="_top" xlink:title=" ">
<polygon fill="white" stroke="black" points="624.5,-56.5 624.5,-75.5 710.5,-75.5 710.5,-56.5 624.5,-56.5"/>
<text text-anchor="middle" x="667.5" y="-63.5" font-family="Helvetica,sans-Serif" font-size="10.00">UI/ImGuiUtil.h</text>
</a>
</g>
</g>
<!-- Node5&#45;&gt;Node16 -->
<g id="edge17" class="edge">
<title>Node5&#45;&gt;Node16</title>
<path fill="none" stroke="midnightblue" d="M1454.24,-120.03C1326.72,-117.31 1001.9,-107.72 720.56,-75.98"/>
<polygon fill="midnightblue" stroke="midnightblue" points="720.91,-72.5 710.58,-74.85 720.11,-79.46 720.91,-72.5"/>
</g>
<!-- Node18 -->
<g id="node18" class="node">
<title>Node18</title>
<g id="a_node18"><a xlink:title=" ">
<polygon fill="white" stroke="#bfbfbf" points="1303,-56.5 1303,-75.5 1500,-75.5 1500,-56.5 1303,-56.5"/>
<text text-anchor="middle" x="1401.5" y="-63.5" font-family="Helvetica,sans-Serif" font-size="10.00">Components/ChildActorComponent.h</text>
</a>
</g>
</g>
<!-- Node5&#45;&gt;Node18 -->
<g id="edge20" class="edge">
<title>Node5&#45;&gt;Node18</title>
<path fill="none" stroke="midnightblue" d="M1492.15,-112.32C1474.83,-103.66 1447.98,-90.24 1428,-80.25"/>
<polygon fill="midnightblue" stroke="midnightblue" points="1429.32,-77 1418.81,-75.65 1426.19,-83.26 1429.32,-77"/>
</g>
<!-- Node19 -->
<g id="node19" class="node">
<title>Node19</title>
<g id="a_node19"><a xlink:title=" ">
<polygon fill="white" stroke="#bfbfbf" points="1518.5,-56.5 1518.5,-75.5 1718.5,-75.5 1718.5,-56.5 1518.5,-56.5"/>
<text text-anchor="middle" x="1618.5" y="-63.5" font-family="Helvetica,sans-Serif" font-size="10.00">Components/StaticMeshComponent.h</text>
</a>
</g>
</g>
<!-- Node5&#45;&gt;Node19 -->
<g id="edge21" class="edge">
<title>Node5&#45;&gt;Node19</title>
<path fill="none" stroke="midnightblue" d="M1527.01,-112.32C1544.57,-103.62 1571.83,-90.12 1592.03,-80.11"/>
<polygon fill="midnightblue" stroke="midnightblue" points="1593.62,-83.23 1601.03,-75.65 1590.52,-76.96 1593.62,-83.23"/>
</g>
<!-- Node20 -->
<g id="node20" class="node">
<title>Node20</title>
<g id="a_node20"><a xlink:title=" ">
<polygon fill="white" stroke="#bfbfbf" points="1736.5,-56.5 1736.5,-75.5 1948.5,-75.5 1948.5,-56.5 1736.5,-56.5"/>
<text text-anchor="middle" x="1842.5" y="-63.5" font-family="Helvetica,sans-Serif" font-size="10.00">Components/SkeletalMeshComponent.h</text>
</a>
</g>
</g>
<!-- Node5&#45;&gt;Node20 -->
<g id="edge22" class="edge">
<title>Node5&#45;&gt;Node20</title>
<path fill="none" stroke="midnightblue" d="M1562.26,-112.44C1621.33,-102.87 1716.97,-87.36 1779.81,-77.17"/>
<polygon fill="midnightblue" stroke="midnightblue" points="1780.67,-80.57 1789.98,-75.52 1779.55,-73.66 1780.67,-80.57"/>
</g>
<!-- Node21 -->
<g id="node21" class="node">
<title>Node21</title>
<g id="a_node21"><a xlink:title=" ">
<polygon fill="white" stroke="#bfbfbf" points="1967,-56.5 1967,-75.5 2194,-75.5 2194,-56.5 1967,-56.5"/>
<text text-anchor="middle" x="2080.5" y="-63.5" font-family="Helvetica,sans-Serif" font-size="10.00">Components/SceneCaptureComponent2D.h</text>
</a>
</g>
</g>
<!-- Node5&#45;&gt;Node21 -->
<g id="edge23" class="edge">
<title>Node5&#45;&gt;Node21</title>
<path fill="none" stroke="midnightblue" d="M1564.8,-113.16C1568.08,-112.75 1571.33,-112.36 1574.5,-112 1704.68,-97.21 1854.16,-84.43 1956.71,-76.31"/>
<polygon fill="midnightblue" stroke="midnightblue" points="1957.1,-79.79 1966.8,-75.51 1956.55,-72.81 1957.1,-79.79"/>
</g>
<!-- Node22 -->
<g id="node22" class="node">
<title>Node22</title>
<g id="a_node22"><a xlink:title=" ">
<polygon fill="white" stroke="#bfbfbf" points="2212.5,-56.5 2212.5,-75.5 2388.5,-75.5 2388.5,-56.5 2212.5,-56.5"/>
<text text-anchor="middle" x="2300.5" y="-63.5" font-family="Helvetica,sans-Serif" font-size="10.00">Engine/TextureRenderTarget2D.h</text>
</a>
</g>
</g>
<!-- Node5&#45;&gt;Node22 -->
<g id="edge24" class="edge">
<title>Node5&#45;&gt;Node22</title>
<path fill="none" stroke="midnightblue" d="M1564.78,-113.04C1568.07,-112.66 1571.33,-112.31 1574.5,-112 1849.92,-85.09 1922.58,-96.66 2202.44,-76.05"/>
<polygon fill="midnightblue" stroke="midnightblue" points="2202.77,-79.54 2212.48,-75.3 2202.25,-72.55 2202.77,-79.54"/>
</g>
<!-- Node23 -->
<g id="node23" class="node">
<title>Node23</title>
<g id="a_node23"><a xlink:title=" ">
<polygon fill="white" stroke="#bfbfbf" points="2407,-56.5 2407,-75.5 2536,-75.5 2536,-56.5 2407,-56.5"/>
<text text-anchor="middle" x="2471.5" y="-63.5" font-family="Helvetica,sans-Serif" font-size="10.00">QuadPawn.generated.h</text>
</a>
</g>
</g>
<!-- Node5&#45;&gt;Node23 -->
<g id="edge25" class="edge">
<title>Node5&#45;&gt;Node23</title>
<path fill="none" stroke="midnightblue" d="M1564.78,-112.99C1568.06,-112.62 1571.32,-112.29 1574.5,-112 1935.83,-79.16 2030.9,-105.64 2396.88,-75.97"/>
<polygon fill="midnightblue" stroke="midnightblue" points="2397.28,-79.45 2406.96,-75.15 2396.7,-72.48 2397.28,-79.45"/>
</g>
<!-- Node10&#45;&gt;Node6 -->
<g id="edge10" class="edge">
<title>Node10&#45;&gt;Node6</title>
<path fill="none" stroke="midnightblue" d="M2592.11,-57.11C2587.51,-56.71 2582.94,-56.34 2578.5,-56 2253.14,-31.36 1861.48,-17.27 1719.89,-12.68"/>
<polygon fill="midnightblue" stroke="midnightblue" points="1719.84,-9.18 1709.73,-12.35 1719.61,-16.17 1719.84,-9.18"/>
</g>
<!-- Node11 -->
<g id="node11" class="node">
<title>Node11</title>
<g id="a_node11"><a xlink:title=" ">
<polygon fill="white" stroke="#bfbfbf" points="2481.5,-0.5 2481.5,-19.5 2657.5,-19.5 2657.5,-0.5 2481.5,-0.5"/>
<text text-anchor="middle" x="2569.5" y="-7.5" font-family="Helvetica,sans-Serif" font-size="10.00">Components/SceneComponent.h</text>
</a>
</g>
</g>
<!-- Node10&#45;&gt;Node11 -->
<g id="edge11" class="edge">
<title>Node10&#45;&gt;Node11</title>
<path fill="none" stroke="midnightblue" d="M2650.92,-56.32C2635.5,-47.74 2611.69,-34.49 2593.79,-24.52"/>
<polygon fill="midnightblue" stroke="midnightblue" points="2595.49,-21.46 2585.05,-19.65 2592.08,-27.58 2595.49,-21.46"/>
</g>
<!-- Node12 -->
<g id="node12" class="node">
<title>Node12</title>
<g id="a_node12"><a xlink:title=" ">
<polygon fill="white" stroke="#bfbfbf" points="2676,-0.5 2676,-19.5 2851,-19.5 2851,-0.5 2676,-0.5"/>
<text text-anchor="middle" x="2763.5" y="-7.5" font-family="Helvetica,sans-Serif" font-size="10.00">ThrusterComponent.generated.h</text>
</a>
</g>
</g>
<!-- Node10&#45;&gt;Node12 -->
<g id="edge12" class="edge">
<title>Node10&#45;&gt;Node12</title>
<path fill="none" stroke="midnightblue" d="M2682.08,-56.32C2697.5,-47.74 2721.31,-34.49 2739.21,-24.52"/>
<polygon fill="midnightblue" stroke="midnightblue" points="2740.92,-27.58 2747.95,-19.65 2737.51,-21.46 2740.92,-27.58"/>
</g>
<!-- Node13&#45;&gt;Node6 -->
<g id="edge14" class="edge">
<title>Node13&#45;&gt;Node6</title>
<path fill="none" stroke="midnightblue" d="M606.63,-56.65C609.62,-56.42 612.59,-56.2 615.5,-56 996.27,-29.44 1455.88,-16.24 1611.22,-12.3"/>
<polygon fill="midnightblue" stroke="midnightblue" points="1611.53,-15.79 1621.44,-12.04 1611.35,-8.79 1611.53,-15.79"/>
</g>
<!-- Node14 -->
<g id="node14" class="node">
<title>Node14</title>
<g id="a_node14"><a xlink:title=" ">
<polygon fill="white" stroke="#bfbfbf" points="436.5,-0.5 436.5,-19.5 608.5,-19.5 608.5,-0.5 436.5,-0.5"/>
<text text-anchor="middle" x="522.5" y="-7.5" font-family="Helvetica,sans-Serif" font-size="10.00">Components/ActorComponent.h</text>
</a>
</g>
</g>
<!-- Node13&#45;&gt;Node14 -->
<g id="edge15" class="edge">
<title>Node13&#45;&gt;Node14</title>
<path fill="none" stroke="midnightblue" d="M522.5,-56.08C522.5,-49.01 522.5,-38.86 522.5,-29.99"/>
<polygon fill="midnightblue" stroke="midnightblue" points="526,-29.75 522.5,-19.75 519,-29.75 526,-29.75"/>
</g>
<!-- Node15 -->
<g id="node15" class="node">
<title>Node15</title>
<g id="a_node15"><a xlink:title=" ">
<polygon fill="white" stroke="#bfbfbf" points="230.5,-0.5 230.5,-19.5 418.5,-19.5 418.5,-0.5 230.5,-0.5"/>
<text text-anchor="middle" x="324.5" y="-7.5" font-family="Helvetica,sans-Serif" font-size="10.00">NavigationComponent.generated.h</text>
</a>
</g>
</g>
<!-- Node13&#45;&gt;Node15 -->
<g id="edge16" class="edge">
<title>Node13&#45;&gt;Node15</title>
<path fill="none" stroke="midnightblue" d="M491.13,-56.44C457.24,-47.2 403.1,-32.44 365.78,-22.26"/>
<polygon fill="midnightblue" stroke="midnightblue" points="366.3,-18.77 355.73,-19.52 364.45,-25.52 366.3,-18.77"/>
</g>
<!-- Node16&#45;&gt;Node6 -->
<g id="edge18" class="edge">
<title>Node16&#45;&gt;Node6</title>
<path fill="none" stroke="midnightblue" d="M710.57,-57.12C713.59,-56.7 716.59,-56.32 719.5,-56 1057.13,-18.9 1465.87,-12.37 1611.1,-11.24"/>
<polygon fill="midnightblue" stroke="midnightblue" points="1611.52,-14.73 1621.5,-11.16 1611.47,-7.73 1611.52,-14.73"/>
</g>
<!-- Node17 -->
<g id="node17" class="node">
<title>Node17</title>
<g id="a_node17"><a xlink:title=" ">
<polygon fill="white" stroke="#bfbfbf" points="627,-0.5 627,-19.5 752,-19.5 752,-0.5 627,-0.5"/>
<text text-anchor="middle" x="689.5" y="-7.5" font-family="Helvetica,sans-Serif" font-size="10.00">ImGuiUtil.generated.h</text>
</a>
</g>
</g>
<!-- Node16&#45;&gt;Node17 -->
<g id="edge19" class="edge">
<title>Node16&#45;&gt;Node17</title>
<path fill="none" stroke="midnightblue" d="M671.13,-56.08C674.11,-48.77 678.43,-38.18 682.12,-29.1"/>
<polygon fill="midnightblue" stroke="midnightblue" points="685.4,-30.33 685.93,-19.75 678.92,-27.69 685.4,-30.33"/>
</g>
</g>
</svg>
