<?xml version="1.0" encoding="UTF-8" standalone="no"?>
<!DOCTYPE svg PUBLIC "-//W3C//DTD SVG 1.1//EN"
 "http://www.w3.org/Graphics/SVG/1.1/DTD/svg11.dtd">
<!-- Generated by graphviz version 2.43.0 (0)
 -->
<!-- Title: Source/QuadSimCore/Public/Controllers/QuadDroneController.h Pages: 1 -->
<svg width="1023pt" height="128pt"
 viewBox="0.00 0.00 1022.50 128.00" xmlns="http://www.w3.org/2000/svg" xmlns:xlink="http://www.w3.org/1999/xlink">
<g id="graph0" class="graph" transform="scale(1 1) rotate(0) translate(4 124)">
<title>Source/QuadSimCore/Public/Controllers/QuadDroneController.h</title>
<polygon fill="white" stroke="transparent" points="-4,4 -4,-124 1018.5,-124 1018.5,4 -4,4"/>
<!-- Node1 -->
<g id="node1" class="node">
<title>Node1</title>
<g id="a_node1"><a xlink:title=" ">
<polygon fill="#bfbfbf" stroke="black" points="426.5,-78.5 426.5,-119.5 557.5,-119.5 557.5,-78.5 426.5,-78.5"/>
<text text-anchor="start" x="434.5" y="-107.5" font-family="Helvetica,sans-Serif" font-size="10.00">Source/QuadSimCore</text>
<text text-anchor="start" x="434.5" y="-96.5" font-family="Helvetica,sans-Serif" font-size="10.00">/Public/Controllers</text>
<text text-anchor="middle" x="492" y="-85.5" font-family="Helvetica,sans-Serif" font-size="10.00">/QuadDroneController.h</text>
</a>
</g>
</g>
<!-- Node2 -->
<g id="node2" class="node">
<title>Node2</title>
<g id="a_node2"><a xlink:href="QuadDroneController_8cpp.html" target="_top" xlink:title=" ">
<polygon fill="white" stroke="black" points="0,-0.5 0,-41.5 142,-41.5 142,-0.5 0,-0.5"/>
<text text-anchor="start" x="8" y="-29.5" font-family="Helvetica,sans-Serif" font-size="10.00">Source/QuadSimCore</text>
<text text-anchor="start" x="8" y="-18.5" font-family="Helvetica,sans-Serif" font-size="10.00">/Private/Controllers</text>
<text text-anchor="middle" x="71" y="-7.5" font-family="Helvetica,sans-Serif" font-size="10.00">/QuadDroneController.cpp</text>
</a>
</g>
</g>
<!-- Node1&#45;&gt;Node2 -->
<g id="edge1" class="edge">
<title>Node1&#45;&gt;Node2</title>
<path fill="none" stroke="midnightblue" d="M416.37,-87.4C347.05,-77.26 241.72,-60.76 151,-42 148.06,-41.39 145.06,-40.75 142.03,-40.08"/>
<polygon fill="midnightblue" stroke="midnightblue" points="415.93,-90.88 426.33,-88.85 416.94,-83.95 415.93,-90.88"/>
</g>
<!-- Node3 -->
<g id="node3" class="node">
<title>Node3</title>
<g id="a_node3"><a xlink:href="ROS2Controller_8cpp.html" target="_top" xlink:title=" ">
<polygon fill="white" stroke="black" points="160.5,-0.5 160.5,-41.5 279.5,-41.5 279.5,-0.5 160.5,-0.5"/>
<text text-anchor="start" x="168.5" y="-29.5" font-family="Helvetica,sans-Serif" font-size="10.00">Source/QuadSimCore</text>
<text text-anchor="start" x="168.5" y="-18.5" font-family="Helvetica,sans-Serif" font-size="10.00">/Private/Controllers</text>
<text text-anchor="middle" x="220" y="-7.5" font-family="Helvetica,sans-Serif" font-size="10.00">/ROS2Controller.cpp</text>
</a>
</g>
</g>
<!-- Node1&#45;&gt;Node3 -->
<g id="edge2" class="edge">
<title>Node1&#45;&gt;Node3</title>
<path fill="none" stroke="midnightblue" d="M416.15,-77.53C377.7,-67.06 330.32,-54.03 288,-42 285.28,-41.23 282.5,-40.43 279.69,-39.62"/>
<polygon fill="midnightblue" stroke="midnightblue" points="415.66,-81.02 426.23,-80.27 417.5,-74.27 415.66,-81.02"/>
</g>
<!-- Node4 -->
<g id="node4" class="node">
<title>Node4</title>
<g id="a_node4"><a xlink:href="DroneGlobalState_8cpp.html" target="_top" xlink:title=" ">
<polygon fill="white" stroke="black" points="297.5,-6 297.5,-36 486.5,-36 486.5,-6 297.5,-6"/>
<text text-anchor="start" x="305.5" y="-24" font-family="Helvetica,sans-Serif" font-size="10.00">Source/QuadSimCore</text>
<text text-anchor="middle" x="392" y="-13" font-family="Helvetica,sans-Serif" font-size="10.00">/Private/Core/DroneGlobalState.cpp</text>
</a>
</g>
</g>
<!-- Node1&#45;&gt;Node4 -->
<g id="edge3" class="edge">
<title>Node1&#45;&gt;Node4</title>
<path fill="none" stroke="midnightblue" d="M458.22,-72.32C442.36,-60.27 424.05,-46.36 410.72,-36.23"/>
<polygon fill="midnightblue" stroke="midnightblue" points="456.17,-75.16 466.25,-78.43 460.4,-69.59 456.17,-75.16"/>
</g>
<!-- Node5 -->
<g id="node5" class="node">
<title>Node5</title>
<g id="a_node5"><a xlink:href="DroneManager_8cpp.html" target="_top" xlink:title=" ">
<polygon fill="white" stroke="black" points="505,-6 505,-36 679,-36 679,-6 505,-6"/>
<text text-anchor="start" x="513" y="-24" font-family="Helvetica,sans-Serif" font-size="10.00">Source/QuadSimCore</text>
<text text-anchor="middle" x="592" y="-13" font-family="Helvetica,sans-Serif" font-size="10.00">/Private/Core/DroneManager.cpp</text>
</a>
</g>
</g>
<!-- Node1&#45;&gt;Node5 -->
<g id="edge4" class="edge">
<title>Node1&#45;&gt;Node5</title>
<path fill="none" stroke="midnightblue" d="M525.78,-72.32C541.64,-60.27 559.95,-46.36 573.28,-36.23"/>
<polygon fill="midnightblue" stroke="midnightblue" points="523.6,-69.59 517.75,-78.43 527.83,-75.16 523.6,-69.59"/>
</g>
<!-- Node6 -->
<g id="node6" class="node">
<title>Node6</title>
<g id="a_node6"><a xlink:href="QuadPawn_8cpp.html" target="_top" xlink:title=" ">
<polygon fill="white" stroke="black" points="697,-6 697,-36 859,-36 859,-6 697,-6"/>
<text text-anchor="start" x="705" y="-24" font-family="Helvetica,sans-Serif" font-size="10.00">Source/QuadSimCore</text>
<text text-anchor="middle" x="778" y="-13" font-family="Helvetica,sans-Serif" font-size="10.00">/Private/Pawns/QuadPawn.cpp</text>
</a>
</g>
</g>
<!-- Node1&#45;&gt;Node6 -->
<g id="edge5" class="edge">
<title>Node1&#45;&gt;Node6</title>
<path fill="none" stroke="midnightblue" d="M567.35,-77.98C617,-64.78 680.8,-47.83 725.11,-36.05"/>
<polygon fill="midnightblue" stroke="midnightblue" points="566.38,-74.61 557.61,-80.56 568.18,-81.38 566.38,-74.61"/>
</g>
<!-- Node7 -->
<g id="node7" class="node">
<title>Node7</title>
<g id="a_node7"><a xlink:href="ImGuiUtil_8cpp.html" target="_top" xlink:title=" ">
<polygon fill="white" stroke="black" points="877.5,-6 877.5,-36 1014.5,-36 1014.5,-6 877.5,-6"/>
<text text-anchor="start" x="885.5" y="-24" font-family="Helvetica,sans-Serif" font-size="10.00">Source/QuadSimCore</text>
<text text-anchor="middle" x="946" y="-13" font-family="Helvetica,sans-Serif" font-size="10.00">/Private/UI/ImGuiUtil.cpp</text>
</a>
</g>
</g>
<!-- Node1&#45;&gt;Node7 -->
<g id="edge6" class="edge">
<title>Node1&#45;&gt;Node7</title>
<path fill="none" stroke="midnightblue" d="M567.55,-89.08C643.76,-79.53 764.61,-62.9 868,-42 876.5,-40.28 885.45,-38.22 894.15,-36.09"/>
<polygon fill="midnightblue" stroke="midnightblue" points="567.06,-85.61 557.57,-90.32 567.92,-92.56 567.06,-85.61"/>
</g>
</g>
</svg>
