<?xml version="1.0" encoding="UTF-8" standalone="no"?>
<!DOCTYPE svg PUBLIC "-//W3C//DTD SVG 1.1//EN"
 "http://www.w3.org/Graphics/SVG/1.1/DTD/svg11.dtd">
<!-- Generated by graphviz version 2.43.0 (0)
 -->
<!-- Title: Source/QuadSimCore/Public/Controllers/QuadDroneController.h Pages: 1 -->
<svg width="646pt" height="162pt"
 viewBox="0.00 0.00 646.05 162.00" xmlns="http://www.w3.org/2000/svg" xmlns:xlink="http://www.w3.org/1999/xlink">
<g id="graph0" class="graph" transform="scale(1 1) rotate(0) translate(4 158)">
<title>Source/QuadSimCore/Public/Controllers/QuadDroneController.h</title>
<polygon fill="white" stroke="transparent" points="-4,4 -4,-158 642.05,-158 642.05,4 -4,4"/>
<!-- Node1 -->
<g id="node1" class="node">
<title>Node1</title>
<g id="a_node1"><a xlink:title=" ">
<polygon fill="#bfbfbf" stroke="black" points="192.55,-112.5 192.55,-153.5 323.55,-153.5 323.55,-112.5 192.55,-112.5"/>
<text text-anchor="start" x="200.55" y="-141.5" font-family="Helvetica,sans-Serif" font-size="10.00">Source/QuadSimCore</text>
<text text-anchor="start" x="200.55" y="-130.5" font-family="Helvetica,sans-Serif" font-size="10.00">/Public/Controllers</text>
<text text-anchor="middle" x="258.05" y="-119.5" font-family="Helvetica,sans-Serif" font-size="10.00">/QuadDroneController.h</text>
</a>
</g>
</g>
<!-- Node2 -->
<g id="node2" class="node">
<title>Node2</title>
<g id="a_node2"><a xlink:title=" ">
<polygon fill="white" stroke="#bfbfbf" points="44.05,-0.5 44.05,-19.5 132.05,-19.5 132.05,-0.5 44.05,-0.5"/>
<text text-anchor="middle" x="88.05" y="-7.5" font-family="Helvetica,sans-Serif" font-size="10.00">CoreMinimal.h</text>
</a>
</g>
</g>
<!-- Node1&#45;&gt;Node2 -->
<g id="edge1" class="edge">
<title>Node1&#45;&gt;Node2</title>
<path fill="none" stroke="midnightblue" d="M192.46,-126.65C125.48,-119.66 28.14,-104.77 5.05,-76 -12.68,-53.91 21.35,-34.78 51.05,-23.1"/>
<polygon fill="midnightblue" stroke="midnightblue" points="52.33,-26.35 60.47,-19.57 49.88,-19.8 52.33,-26.35"/>
</g>
<!-- Node3 -->
<g id="node3" class="node">
<title>Node3</title>
<g id="a_node3"><a xlink:href="QuadPIDController_8h.html" target="_top" xlink:title=" ">
<polygon fill="white" stroke="black" points="14.05,-56.5 14.05,-75.5 162.05,-75.5 162.05,-56.5 14.05,-56.5"/>
<text text-anchor="middle" x="88.05" y="-63.5" font-family="Helvetica,sans-Serif" font-size="10.00">Utility/QuadPIDController.h</text>
</a>
</g>
</g>
<!-- Node1&#45;&gt;Node3 -->
<g id="edge2" class="edge">
<title>Node1&#45;&gt;Node3</title>
<path fill="none" stroke="midnightblue" d="M207.04,-112.5C178.85,-101.72 144.68,-88.65 120.2,-79.29"/>
<polygon fill="midnightblue" stroke="midnightblue" points="121.27,-75.95 110.68,-75.65 118.77,-82.49 121.27,-75.95"/>
</g>
<!-- Node4 -->
<g id="node4" class="node">
<title>Node4</title>
<g id="a_node4"><a xlink:title=" ">
<polygon fill="white" stroke="#bfbfbf" points="180.55,-56.5 180.55,-75.5 335.55,-75.5 335.55,-56.5 180.55,-56.5"/>
<text text-anchor="middle" x="258.05" y="-63.5" font-family="Helvetica,sans-Serif" font-size="10.00">ROSFlightControllerSource.h</text>
</a>
</g>
</g>
<!-- Node1&#45;&gt;Node4 -->
<g id="edge4" class="edge">
<title>Node1&#45;&gt;Node4</title>
<path fill="none" stroke="midnightblue" d="M258.05,-112.5C258.05,-104.07 258.05,-94.24 258.05,-85.87"/>
<polygon fill="midnightblue" stroke="midnightblue" points="261.55,-85.65 258.05,-75.65 254.55,-85.65 261.55,-85.65"/>
</g>
<!-- Node5 -->
<g id="node5" class="node">
<title>Node5</title>
<g id="a_node5"><a xlink:href="ImGuiUtil_8h.html" target="_top" xlink:title=" ">
<polygon fill="white" stroke="black" points="354.05,-56.5 354.05,-75.5 440.05,-75.5 440.05,-56.5 354.05,-56.5"/>
<text text-anchor="middle" x="397.05" y="-63.5" font-family="Helvetica,sans-Serif" font-size="10.00">UI/ImGuiUtil.h</text>
</a>
</g>
</g>
<!-- Node1&#45;&gt;Node5 -->
<g id="edge5" class="edge">
<title>Node1&#45;&gt;Node5</title>
<path fill="none" stroke="midnightblue" d="M299.75,-112.5C322.3,-101.96 349.51,-89.23 369.41,-79.92"/>
<polygon fill="midnightblue" stroke="midnightblue" points="370.97,-83.06 378.55,-75.65 368.01,-76.72 370.97,-83.06"/>
</g>
<!-- Node7 -->
<g id="node7" class="node">
<title>Node7</title>
<g id="a_node7"><a xlink:title=" ">
<polygon fill="white" stroke="#bfbfbf" points="458.05,-56.5 458.05,-75.5 638.05,-75.5 638.05,-56.5 458.05,-56.5"/>
<text text-anchor="middle" x="548.05" y="-63.5" font-family="Helvetica,sans-Serif" font-size="10.00">QuadDroneController.generated.h</text>
</a>
</g>
</g>
<!-- Node1&#45;&gt;Node7 -->
<g id="edge8" class="edge">
<title>Node1&#45;&gt;Node7</title>
<path fill="none" stroke="midnightblue" d="M323.86,-117.25C377.52,-105.22 452.08,-88.51 500.19,-77.73"/>
<polygon fill="midnightblue" stroke="midnightblue" points="501.05,-81.12 510.04,-75.52 499.52,-74.29 501.05,-81.12"/>
</g>
<!-- Node3&#45;&gt;Node2 -->
<g id="edge3" class="edge">
<title>Node3&#45;&gt;Node2</title>
<path fill="none" stroke="midnightblue" d="M88.05,-56.08C88.05,-49.01 88.05,-38.86 88.05,-29.99"/>
<polygon fill="midnightblue" stroke="midnightblue" points="91.55,-29.75 88.05,-19.75 84.55,-29.75 91.55,-29.75"/>
</g>
<!-- Node5&#45;&gt;Node2 -->
<g id="edge6" class="edge">
<title>Node5&#45;&gt;Node2</title>
<path fill="none" stroke="midnightblue" d="M353.76,-57.43C298.41,-47.76 202.56,-31.01 142.37,-20.49"/>
<polygon fill="midnightblue" stroke="midnightblue" points="142.75,-17.01 132.3,-18.73 141.54,-23.9 142.75,-17.01"/>
</g>
<!-- Node6 -->
<g id="node6" class="node">
<title>Node6</title>
<g id="a_node6"><a xlink:title=" ">
<polygon fill="white" stroke="#bfbfbf" points="334.55,-0.5 334.55,-19.5 459.55,-19.5 459.55,-0.5 334.55,-0.5"/>
<text text-anchor="middle" x="397.05" y="-7.5" font-family="Helvetica,sans-Serif" font-size="10.00">ImGuiUtil.generated.h</text>
</a>
</g>
</g>
<!-- Node5&#45;&gt;Node6 -->
<g id="edge7" class="edge">
<title>Node5&#45;&gt;Node6</title>
<path fill="none" stroke="midnightblue" d="M397.05,-56.08C397.05,-49.01 397.05,-38.86 397.05,-29.99"/>
<polygon fill="midnightblue" stroke="midnightblue" points="400.55,-29.75 397.05,-19.75 393.55,-29.75 400.55,-29.75"/>
</g>
</g>
</svg>
