<?xml version="1.0" encoding="UTF-8" standalone="no"?>
<!DOCTYPE svg PUBLIC "-//W3C//DTD SVG 1.1//EN"
 "http://www.w3.org/Graphics/SVG/1.1/DTD/svg11.dtd">
<!-- Generated by graphviz version 2.43.0 (0)
 -->
<!-- Title: Source/QuadSimCore/Private/QuadSimCoreModule.cpp Pages: 1 -->
<svg width="760pt" height="95pt"
 viewBox="0.00 0.00 759.50 95.00" xmlns="http://www.w3.org/2000/svg" xmlns:xlink="http://www.w3.org/1999/xlink">
<g id="graph0" class="graph" transform="scale(1 1) rotate(0) translate(4 91)">
<title>Source/QuadSimCore/Private/QuadSimCoreModule.cpp</title>
<polygon fill="white" stroke="transparent" points="-4,4 -4,-91 755.5,-91 755.5,4 -4,4"/>
<!-- Node1 -->
<g id="node1" class="node">
<title>Node1</title>
<g id="a_node1"><a xlink:title=" ">
<polygon fill="#bfbfbf" stroke="black" points="285,-56.5 285,-86.5 465,-86.5 465,-56.5 285,-56.5"/>
<text text-anchor="start" x="293" y="-74.5" font-family="Helvetica,sans-Serif" font-size="10.00">Source/QuadSimCore</text>
<text text-anchor="middle" x="375" y="-63.5" font-family="Helvetica,sans-Serif" font-size="10.00">/Private/QuadSimCoreModule.cpp</text>
</a>
</g>
</g>
<!-- Node2 -->
<g id="node2" class="node">
<title>Node2</title>
<g id="a_node2"><a xlink:title=" ">
<polygon fill="white" stroke="#bfbfbf" points="0,-0.5 0,-19.5 148,-19.5 148,-0.5 0,-0.5"/>
<text text-anchor="middle" x="74" y="-7.5" font-family="Helvetica,sans-Serif" font-size="10.00">Modules/ModuleManager.h</text>
</a>
</g>
</g>
<!-- Node1&#45;&gt;Node2 -->
<g id="edge1" class="edge">
<title>Node1&#45;&gt;Node2</title>
<path fill="none" stroke="midnightblue" d="M304.05,-56.47C249.85,-45.76 176.34,-31.23 127.15,-21.51"/>
<polygon fill="midnightblue" stroke="midnightblue" points="127.52,-18.01 117.03,-19.51 126.16,-24.88 127.52,-18.01"/>
</g>
<!-- Node3 -->
<g id="node3" class="node">
<title>Node3</title>
<g id="a_node3"><a xlink:title=" ">
<polygon fill="white" stroke="#bfbfbf" points="166,-0.5 166,-19.5 318,-19.5 318,-0.5 166,-0.5"/>
<text text-anchor="middle" x="242" y="-7.5" font-family="Helvetica,sans-Serif" font-size="10.00">Interfaces/IPluginManager.h</text>
</a>
</g>
</g>
<!-- Node1&#45;&gt;Node3 -->
<g id="edge2" class="edge">
<title>Node1&#45;&gt;Node3</title>
<path fill="none" stroke="midnightblue" d="M343.48,-56.4C321.36,-46.51 292.03,-33.38 270.59,-23.79"/>
<polygon fill="midnightblue" stroke="midnightblue" points="271.91,-20.55 261.35,-19.66 269.05,-26.94 271.91,-20.55"/>
</g>
<!-- Node4 -->
<g id="node4" class="node">
<title>Node4</title>
<g id="a_node4"><a xlink:title=" ">
<polygon fill="white" stroke="#bfbfbf" points="336.5,-0.5 336.5,-19.5 413.5,-19.5 413.5,-0.5 336.5,-0.5"/>
<text text-anchor="middle" x="375" y="-7.5" font-family="Helvetica,sans-Serif" font-size="10.00">Misc/Paths.h</text>
</a>
</g>
</g>
<!-- Node1&#45;&gt;Node4 -->
<g id="edge3" class="edge">
<title>Node1&#45;&gt;Node4</title>
<path fill="none" stroke="midnightblue" d="M375,-56.4C375,-48.47 375,-38.46 375,-29.86"/>
<polygon fill="midnightblue" stroke="midnightblue" points="378.5,-29.66 375,-19.66 371.5,-29.66 378.5,-29.66"/>
</g>
<!-- Node5 -->
<g id="node5" class="node">
<title>Node5</title>
<g id="a_node5"><a xlink:title=" ">
<polygon fill="white" stroke="#bfbfbf" points="432,-0.5 432,-19.5 556,-19.5 556,-0.5 432,-0.5"/>
<text text-anchor="middle" x="494" y="-7.5" font-family="Helvetica,sans-Serif" font-size="10.00">Misc/ConfigCacheIni.h</text>
</a>
</g>
</g>
<!-- Node1&#45;&gt;Node5 -->
<g id="edge4" class="edge">
<title>Node1&#45;&gt;Node5</title>
<path fill="none" stroke="midnightblue" d="M403.2,-56.4C422.72,-46.64 448.53,-33.74 467.63,-24.18"/>
<polygon fill="midnightblue" stroke="midnightblue" points="469.31,-27.26 476.68,-19.66 466.17,-21 469.31,-27.26"/>
</g>
<!-- Node6 -->
<g id="node6" class="node">
<title>Node6</title>
<g id="a_node6"><a xlink:title=" ">
<polygon fill="white" stroke="#bfbfbf" points="574.5,-0.5 574.5,-19.5 751.5,-19.5 751.5,-0.5 574.5,-0.5"/>
<text text-anchor="middle" x="663" y="-7.5" font-family="Helvetica,sans-Serif" font-size="10.00">GameFramework/InputSettings.h</text>
</a>
</g>
</g>
<!-- Node1&#45;&gt;Node6 -->
<g id="edge5" class="edge">
<title>Node1&#45;&gt;Node6</title>
<path fill="none" stroke="midnightblue" d="M442.89,-56.47C494.63,-45.78 564.78,-31.29 611.85,-21.57"/>
<polygon fill="midnightblue" stroke="midnightblue" points="612.74,-24.96 621.83,-19.51 611.32,-18.1 612.74,-24.96"/>
</g>
</g>
</svg>
