<?xml version="1.0" encoding="UTF-8" standalone="no"?>
<!DOCTYPE svg PUBLIC "-//W3C//DTD SVG 1.1//EN"
 "http://www.w3.org/Graphics/SVG/1.1/DTD/svg11.dtd">
<!-- Generated by graphviz version 2.43.0 (0)
 -->
<!-- Title: Source/QuadSimCore/Private/Utility/QuadPIDController.cpp Pages: 1 -->
<svg width="314pt" height="151pt"
 viewBox="0.00 0.00 313.50 151.00" xmlns="http://www.w3.org/2000/svg" xmlns:xlink="http://www.w3.org/1999/xlink">
<g id="graph0" class="graph" transform="scale(1 1) rotate(0) translate(4 147)">
<title>Source/QuadSimCore/Private/Utility/QuadPIDController.cpp</title>
<polygon fill="white" stroke="transparent" points="-4,4 -4,-147 309.5,-147 309.5,4 -4,4"/>
<!-- Node1 -->
<g id="node1" class="node">
<title>Node1</title>
<g id="a_node1"><a xlink:title=" ">
<polygon fill="#bfbfbf" stroke="black" points="55,-112.5 55,-142.5 255,-142.5 255,-112.5 55,-112.5"/>
<text text-anchor="start" x="63" y="-130.5" font-family="Helvetica,sans-Serif" font-size="10.00">Source/QuadSimCore</text>
<text text-anchor="middle" x="155" y="-119.5" font-family="Helvetica,sans-Serif" font-size="10.00">/Private/Utility/QuadPIDController.cpp</text>
</a>
</g>
</g>
<!-- Node2 -->
<g id="node2" class="node">
<title>Node2</title>
<g id="a_node2"><a xlink:href="QuadPIDController_8h.html" target="_top" xlink:title=" ">
<polygon fill="white" stroke="black" points="0,-56.5 0,-75.5 148,-75.5 148,-56.5 0,-56.5"/>
<text text-anchor="middle" x="74" y="-63.5" font-family="Helvetica,sans-Serif" font-size="10.00">Utility/QuadPIDController.h</text>
</a>
</g>
</g>
<!-- Node1&#45;&gt;Node2 -->
<g id="edge1" class="edge">
<title>Node1&#45;&gt;Node2</title>
<path fill="none" stroke="midnightblue" d="M135.8,-112.4C123.18,-103.13 106.71,-91.03 93.94,-81.65"/>
<polygon fill="midnightblue" stroke="midnightblue" points="95.92,-78.76 85.79,-75.66 91.77,-84.4 95.92,-78.76"/>
</g>
<!-- Node4 -->
<g id="node4" class="node">
<title>Node4</title>
<g id="a_node4"><a xlink:title=" ">
<polygon fill="white" stroke="#bfbfbf" points="166.5,-56.5 166.5,-75.5 305.5,-75.5 305.5,-56.5 166.5,-56.5"/>
<text text-anchor="middle" x="236" y="-63.5" font-family="Helvetica,sans-Serif" font-size="10.00">Math/UnrealMathUtility.h</text>
</a>
</g>
</g>
<!-- Node1&#45;&gt;Node4 -->
<g id="edge3" class="edge">
<title>Node1&#45;&gt;Node4</title>
<path fill="none" stroke="midnightblue" d="M174.2,-112.4C186.82,-103.13 203.29,-91.03 216.06,-81.65"/>
<polygon fill="midnightblue" stroke="midnightblue" points="218.23,-84.4 224.21,-75.66 214.08,-78.76 218.23,-84.4"/>
</g>
<!-- Node3 -->
<g id="node3" class="node">
<title>Node3</title>
<g id="a_node3"><a xlink:title=" ">
<polygon fill="white" stroke="#bfbfbf" points="30,-0.5 30,-19.5 118,-19.5 118,-0.5 30,-0.5"/>
<text text-anchor="middle" x="74" y="-7.5" font-family="Helvetica,sans-Serif" font-size="10.00">CoreMinimal.h</text>
</a>
</g>
</g>
<!-- Node2&#45;&gt;Node3 -->
<g id="edge2" class="edge">
<title>Node2&#45;&gt;Node3</title>
<path fill="none" stroke="midnightblue" d="M74,-56.08C74,-49.01 74,-38.86 74,-29.99"/>
<polygon fill="midnightblue" stroke="midnightblue" points="77.5,-29.75 74,-19.75 70.5,-29.75 77.5,-29.75"/>
</g>
</g>
</svg>
