<?xml version="1.0" encoding="UTF-8" standalone="no"?>
<!DOCTYPE svg PUBLIC "-//W3C//DTD SVG 1.1//EN"
 "http://www.w3.org/Graphics/SVG/1.1/DTD/svg11.dtd">
<!-- Generated by graphviz version 2.43.0 (0)
 -->
<!-- Title: Source/QuadSimCore/Private/Pawns/QuadPawn.cpp Pages: 1 -->
<svg width="5265pt" height="218pt"
 viewBox="0.00 0.00 5264.55 218.00" xmlns="http://www.w3.org/2000/svg" xmlns:xlink="http://www.w3.org/1999/xlink">
<g id="graph0" class="graph" transform="scale(1 1) rotate(0) translate(4 214)">
<title>Source/QuadSimCore/Private/Pawns/QuadPawn.cpp</title>
<polygon fill="white" stroke="transparent" points="-4,4 -4,-214 5260.55,-214 5260.55,4 -4,4"/>
<!-- Node1 -->
<g id="node1" class="node">
<title>Node1</title>
<g id="a_node1"><a xlink:title=" ">
<polygon fill="#bfbfbf" stroke="black" points="3801.55,-179.5 3801.55,-209.5 3963.55,-209.5 3963.55,-179.5 3801.55,-179.5"/>
<text text-anchor="start" x="3809.55" y="-197.5" font-family="Helvetica,sans-Serif" font-size="10.00">Source/QuadSimCore</text>
<text text-anchor="middle" x="3882.55" y="-186.5" font-family="Helvetica,sans-Serif" font-size="10.00">/Private/Pawns/QuadPawn.cpp</text>
</a>
</g>
</g>
<!-- Node2 -->
<g id="node2" class="node">
<title>Node2</title>
<g id="a_node2"><a xlink:href="QuadPawn_8h.html" target="_top" xlink:title=" ">
<polygon fill="white" stroke="black" points="3687.55,-118 3687.55,-137 3797.55,-137 3797.55,-118 3687.55,-118"/>
<text text-anchor="middle" x="3742.55" y="-125" font-family="Helvetica,sans-Serif" font-size="10.00">Pawns/QuadPawn.h</text>
</a>
</g>
</g>
<!-- Node1&#45;&gt;Node2 -->
<g id="edge1" class="edge">
<title>Node1&#45;&gt;Node2</title>
<path fill="none" stroke="midnightblue" d="M3852.17,-179.4C3827.72,-168.04 3793.64,-152.22 3770,-141.24"/>
<polygon fill="midnightblue" stroke="midnightblue" points="3771.42,-138.04 3760.88,-137.01 3768.47,-144.39 3771.42,-138.04"/>
</g>
<!-- Node5 -->
<g id="node5" class="node">
<title>Node5</title>
<g id="a_node5"><a xlink:title=" ">
<polygon fill="white" stroke="#bfbfbf" points="4193.05,-56.5 4193.05,-75.5 4354.05,-75.5 4354.05,-56.5 4193.05,-56.5"/>
<text text-anchor="middle" x="4273.55" y="-63.5" font-family="Helvetica,sans-Serif" font-size="10.00">Camera/CameraComponent.h</text>
</a>
</g>
</g>
<!-- Node1&#45;&gt;Node5 -->
<g id="edge29" class="edge">
<title>Node1&#45;&gt;Node5</title>
<path fill="none" stroke="midnightblue" d="M3878.54,-179.28C3874.38,-161.13 3870.6,-129.91 3887.55,-112 3892.61,-106.66 4070.09,-87.69 4182.6,-76.16"/>
<polygon fill="midnightblue" stroke="midnightblue" points="4183.01,-79.63 4192.61,-75.13 4182.3,-72.67 4183.01,-79.63"/>
</g>
<!-- Node6 -->
<g id="node6" class="node">
<title>Node6</title>
<g id="a_node6"><a xlink:title=" ">
<polygon fill="white" stroke="#bfbfbf" points="4372.55,-56.5 4372.55,-75.5 4592.55,-75.5 4592.55,-56.5 4372.55,-56.5"/>
<text text-anchor="middle" x="4482.55" y="-63.5" font-family="Helvetica,sans-Serif" font-size="10.00">GameFramework/SpringArmComponent.h</text>
</a>
</g>
</g>
<!-- Node1&#45;&gt;Node6 -->
<g id="edge28" class="edge">
<title>Node1&#45;&gt;Node6</title>
<path fill="none" stroke="midnightblue" d="M3885.56,-179.46C3890.41,-160.58 3901.91,-127.59 3925.55,-112 3927.82,-110.5 4199.99,-89.04 4362.98,-76.31"/>
<polygon fill="midnightblue" stroke="midnightblue" points="4363.38,-79.79 4373.07,-75.52 4362.83,-72.81 4363.38,-79.79"/>
</g>
<!-- Node7 -->
<g id="node7" class="node">
<title>Node7</title>
<g id="a_node7"><a xlink:href="ThrusterComponent_8h.html" target="_top" xlink:title=" ">
<polygon fill="white" stroke="black" points="4026.55,-56.5 4026.55,-75.5 4174.55,-75.5 4174.55,-56.5 4026.55,-56.5"/>
<text text-anchor="middle" x="4100.55" y="-63.5" font-family="Helvetica,sans-Serif" font-size="10.00">Core/ThrusterComponent.h</text>
</a>
</g>
</g>
<!-- Node1&#45;&gt;Node7 -->
<g id="edge44" class="edge">
<title>Node1&#45;&gt;Node7</title>
<path fill="none" stroke="midnightblue" d="M3868.78,-179.44C3853.39,-162.01 3832.7,-132.14 3849.55,-112 3860.4,-99.03 3947.65,-85.52 4016.28,-76.73"/>
<polygon fill="midnightblue" stroke="midnightblue" points="4016.77,-80.2 4026.26,-75.47 4015.9,-73.25 4016.77,-80.2"/>
</g>
<!-- Node13 -->
<g id="node11" class="node">
<title>Node13</title>
<g id="a_node11"><a xlink:href="ImGuiUtil_8h.html" target="_top" xlink:title=" ">
<polygon fill="white" stroke="black" points="1137.55,-56.5 1137.55,-75.5 1223.55,-75.5 1223.55,-56.5 1137.55,-56.5"/>
<text text-anchor="middle" x="1180.55" y="-63.5" font-family="Helvetica,sans-Serif" font-size="10.00">UI/ImGuiUtil.h</text>
</a>
</g>
</g>
<!-- Node1&#45;&gt;Node13 -->
<g id="edge45" class="edge">
<title>Node1&#45;&gt;Node13</title>
<path fill="none" stroke="midnightblue" d="M3801.47,-192.69C3463.75,-189.13 2167.52,-173.7 1759.55,-143 1527.45,-125.53 1467.73,-111.44 1233.85,-76.15"/>
<polygon fill="midnightblue" stroke="midnightblue" points="1234.07,-72.64 1223.66,-74.61 1233.03,-79.56 1234.07,-72.64"/>
</g>
<!-- Node15 -->
<g id="node13" class="node">
<title>Node15</title>
<g id="a_node13"><a xlink:title=" ">
<polygon fill="white" stroke="#bfbfbf" points="4611.05,-56.5 4611.05,-75.5 4808.05,-75.5 4808.05,-56.5 4611.05,-56.5"/>
<text text-anchor="middle" x="4709.55" y="-63.5" font-family="Helvetica,sans-Serif" font-size="10.00">Components/ChildActorComponent.h</text>
</a>
</g>
</g>
<!-- Node1&#45;&gt;Node15 -->
<g id="edge50" class="edge">
<title>Node1&#45;&gt;Node15</title>
<path fill="none" stroke="midnightblue" d="M3894.49,-179.22C3912.67,-157.91 3946.9,-119.48 3963.55,-112 4026.04,-83.91 4495.94,-81.12 4600.98,-75.91"/>
<polygon fill="midnightblue" stroke="midnightblue" points="4601.19,-79.4 4610.97,-75.32 4600.79,-72.41 4601.19,-79.4"/>
</g>
<!-- Node16 -->
<g id="node14" class="node">
<title>Node16</title>
<g id="a_node14"><a xlink:title=" ">
<polygon fill="white" stroke="#bfbfbf" points="4826.55,-56.5 4826.55,-75.5 5026.55,-75.5 5026.55,-56.5 4826.55,-56.5"/>
<text text-anchor="middle" x="4926.55" y="-63.5" font-family="Helvetica,sans-Serif" font-size="10.00">Components/StaticMeshComponent.h</text>
</a>
</g>
</g>
<!-- Node1&#45;&gt;Node16 -->
<g id="edge40" class="edge">
<title>Node1&#45;&gt;Node16</title>
<path fill="none" stroke="midnightblue" d="M3904.67,-179.45C3920.18,-169.49 3941.32,-155.7 3959.55,-143 3978.59,-129.74 3979.68,-119.74 4001.55,-112 4084.61,-82.62 4689.96,-81.76 4816.37,-75.95"/>
<polygon fill="midnightblue" stroke="midnightblue" points="4816.68,-79.44 4826.48,-75.41 4816.31,-72.45 4816.68,-79.44"/>
</g>
<!-- Node17 -->
<g id="node15" class="node">
<title>Node17</title>
<g id="a_node15"><a xlink:title=" ">
<polygon fill="white" stroke="#bfbfbf" points="5044.55,-56.5 5044.55,-75.5 5256.55,-75.5 5256.55,-56.5 5044.55,-56.5"/>
<text text-anchor="middle" x="5150.55" y="-63.5" font-family="Helvetica,sans-Serif" font-size="10.00">Components/SkeletalMeshComponent.h</text>
</a>
</g>
</g>
<!-- Node1&#45;&gt;Node17 -->
<g id="edge41" class="edge">
<title>Node1&#45;&gt;Node17</title>
<path fill="none" stroke="midnightblue" d="M3919.14,-179.44C3941.54,-170.25 3970.43,-157.31 3994.55,-143 4014.2,-131.34 4014.03,-119.65 4035.55,-112 4137.65,-75.69 4885.16,-81.98 5033.97,-75.97"/>
<polygon fill="midnightblue" stroke="midnightblue" points="5034.54,-79.45 5044.36,-75.47 5034.2,-72.46 5034.54,-79.45"/>
</g>
<!-- Node18 -->
<g id="node16" class="node">
<title>Node18</title>
<g id="a_node16"><a xlink:title=" ">
<polygon fill="white" stroke="#bfbfbf" points="3059.05,-56.5 3059.05,-75.5 3286.05,-75.5 3286.05,-56.5 3059.05,-56.5"/>
<text text-anchor="middle" x="3172.55" y="-63.5" font-family="Helvetica,sans-Serif" font-size="10.00">Components/SceneCaptureComponent2D.h</text>
</a>
</g>
</g>
<!-- Node1&#45;&gt;Node18 -->
<g id="edge37" class="edge">
<title>Node1&#45;&gt;Node18</title>
<path fill="none" stroke="midnightblue" d="M3801.26,-181.81C3735.43,-172.11 3640.36,-157.6 3557.55,-143 3437.08,-121.76 3296.21,-92.93 3222.81,-77.6"/>
<polygon fill="midnightblue" stroke="midnightblue" points="3223.42,-74.15 3212.91,-75.53 3221.99,-81 3223.42,-74.15"/>
</g>
<!-- Node19 -->
<g id="node17" class="node">
<title>Node19</title>
<g id="a_node17"><a xlink:title=" ">
<polygon fill="white" stroke="#bfbfbf" points="3304.55,-56.5 3304.55,-75.5 3480.55,-75.5 3480.55,-56.5 3304.55,-56.5"/>
<text text-anchor="middle" x="3392.55" y="-63.5" font-family="Helvetica,sans-Serif" font-size="10.00">Engine/TextureRenderTarget2D.h</text>
</a>
</g>
</g>
<!-- Node1&#45;&gt;Node19 -->
<g id="edge38" class="edge">
<title>Node1&#45;&gt;Node19</title>
<path fill="none" stroke="midnightblue" d="M3824.45,-179.4C3783.6,-169.41 3727.68,-155.61 3678.55,-143 3591.42,-120.64 3489.68,-93.31 3434.08,-78.27"/>
<polygon fill="midnightblue" stroke="midnightblue" points="3434.82,-74.85 3424.25,-75.61 3432.99,-81.6 3434.82,-74.85"/>
</g>
<!-- Node21 -->
<g id="node19" class="node">
<title>Node21</title>
<g id="a_node19"><a xlink:href="QuadDroneController_8h.html" target="_top" xlink:title=" ">
<polygon fill="white" stroke="black" points="902.55,-118 902.55,-137 1086.55,-137 1086.55,-118 902.55,-118"/>
<text text-anchor="middle" x="994.55" y="-125" font-family="Helvetica,sans-Serif" font-size="10.00">Controllers/QuadDroneController.h</text>
</a>
</g>
</g>
<!-- Node1&#45;&gt;Node21 -->
<g id="edge21" class="edge">
<title>Node1&#45;&gt;Node21</title>
<path fill="none" stroke="midnightblue" d="M3801.46,-192.12C3495.04,-186.83 2378.49,-166.96 1458.55,-143 1334.18,-139.76 1191.08,-135.16 1097.06,-132.01"/>
<polygon fill="midnightblue" stroke="midnightblue" points="1097.09,-128.51 1086.98,-131.67 1096.86,-135.5 1097.09,-128.51"/>
</g>
<!-- Node25 -->
<g id="node23" class="node">
<title>Node25</title>
<g id="a_node23"><a xlink:title=" ">
<polygon fill="white" stroke="#bfbfbf" points="4044.05,-118 4044.05,-137 4183.05,-137 4183.05,-118 4044.05,-118"/>
<text text-anchor="middle" x="4113.55" y="-125" font-family="Helvetica,sans-Serif" font-size="10.00">Math/UnrealMathUtility.h</text>
</a>
</g>
</g>
<!-- Node1&#45;&gt;Node25 -->
<g id="edge30" class="edge">
<title>Node1&#45;&gt;Node25</title>
<path fill="none" stroke="midnightblue" d="M3932.39,-179.48C3974.61,-167.6 4034.35,-150.79 4073.51,-139.77"/>
<polygon fill="midnightblue" stroke="midnightblue" points="4074.57,-143.11 4083.24,-137.03 4072.67,-136.37 4074.57,-143.11"/>
</g>
<!-- Node26 -->
<g id="node24" class="node">
<title>Node26</title>
<g id="a_node24"><a xlink:href="DroneJSONConfig_8h.html" target="_top" xlink:title=" ">
<polygon fill="white" stroke="black" points="29.05,-118 29.05,-137 164.05,-137 164.05,-118 29.05,-118"/>
<text text-anchor="middle" x="96.55" y="-125" font-family="Helvetica,sans-Serif" font-size="10.00">Core/DroneJSONConfig.h</text>
</a>
</g>
</g>
<!-- Node1&#45;&gt;Node26 -->
<g id="edge31" class="edge">
<title>Node1&#45;&gt;Node26</title>
<path fill="none" stroke="midnightblue" d="M3801.43,-193.81C3414.38,-194.98 1716.65,-196.66 326.55,-143 275.83,-141.04 218.9,-137.46 174.36,-134.35"/>
<polygon fill="midnightblue" stroke="midnightblue" points="174.41,-130.85 164.19,-133.63 173.92,-137.83 174.41,-130.85"/>
</g>
<!-- Node28 -->
<g id="node26" class="node">
<title>Node28</title>
<g id="a_node26"><a xlink:title=" ">
<polygon fill="white" stroke="#bfbfbf" points="4201.05,-118 4201.05,-137 4282.05,-137 4282.05,-118 4201.05,-118"/>
<text text-anchor="middle" x="4241.55" y="-125" font-family="Helvetica,sans-Serif" font-size="10.00">EngineUtils.h</text>
</a>
</g>
</g>
<!-- Node1&#45;&gt;Node28 -->
<g id="edge34" class="edge">
<title>Node1&#45;&gt;Node28</title>
<path fill="none" stroke="midnightblue" d="M3963.71,-183.14C4026.56,-174.42 4115.6,-160.58 4192.55,-143 4196.69,-142.06 4200.99,-140.96 4205.25,-139.8"/>
<polygon fill="midnightblue" stroke="midnightblue" points="4206.35,-143.12 4215.01,-137.02 4204.44,-136.39 4206.35,-143.12"/>
</g>
<!-- Node29 -->
<g id="node27" class="node">
<title>Node29</title>
<g id="a_node27"><a xlink:title=" ">
<polygon fill="white" stroke="#bfbfbf" points="413.55,-56.5 413.55,-75.5 543.55,-75.5 543.55,-56.5 413.55,-56.5"/>
<text text-anchor="middle" x="478.55" y="-63.5" font-family="Helvetica,sans-Serif" font-size="10.00">Blueprint/UserWidget.h</text>
</a>
</g>
</g>
<!-- Node1&#45;&gt;Node29 -->
<g id="edge35" class="edge">
<title>Node1&#45;&gt;Node29</title>
<path fill="none" stroke="midnightblue" d="M3801.53,-192.93C3353.57,-189.65 1189.63,-172.41 893.55,-143 757.98,-129.53 600.33,-95.51 524.26,-77.92"/>
<polygon fill="midnightblue" stroke="midnightblue" points="524.61,-74.41 514.08,-75.55 523.02,-81.22 524.61,-74.41"/>
</g>
<!-- Node30 -->
<g id="node28" class="node">
<title>Node30</title>
<g id="a_node28"><a xlink:title=" ">
<polygon fill="white" stroke="#bfbfbf" points="4300.05,-112.5 4300.05,-142.5 4443.05,-142.5 4443.05,-112.5 4300.05,-112.5"/>
<text text-anchor="start" x="4308.05" y="-130.5" font-family="Helvetica,sans-Serif" font-size="10.00">Blueprint/WidgetBlueprint</text>
<text text-anchor="middle" x="4371.55" y="-119.5" font-family="Helvetica,sans-Serif" font-size="10.00">Library.h</text>
</a>
</g>
</g>
<!-- Node1&#45;&gt;Node30 -->
<g id="edge36" class="edge">
<title>Node1&#45;&gt;Node30</title>
<path fill="none" stroke="midnightblue" d="M3963.83,-184.83C4044.24,-175.95 4171.04,-161.1 4289.64,-143.25"/>
<polygon fill="midnightblue" stroke="midnightblue" points="4290.26,-146.69 4299.63,-141.73 4289.22,-139.77 4290.26,-146.69"/>
</g>
<!-- Node31 -->
<g id="node29" class="node">
<title>Node31</title>
<g id="a_node29"><a xlink:title=" ">
<polygon fill="white" stroke="#bfbfbf" points="4461.05,-118 4461.05,-137 4556.05,-137 4556.05,-118 4461.05,-118"/>
<text text-anchor="middle" x="4508.55" y="-125" font-family="Helvetica,sans-Serif" font-size="10.00">Engine/Engine.h</text>
</a>
</g>
</g>
<!-- Node1&#45;&gt;Node31 -->
<g id="edge39" class="edge">
<title>Node1&#45;&gt;Node31</title>
<path fill="none" stroke="midnightblue" d="M3963.8,-190.52C4074.87,-185.49 4280.01,-172.77 4452.55,-143 4458.06,-142.05 4463.81,-140.83 4469.45,-139.5"/>
<polygon fill="midnightblue" stroke="midnightblue" points="4470.54,-142.83 4479.4,-137.02 4468.85,-136.04 4470.54,-142.83"/>
</g>
<!-- Node32 -->
<g id="node30" class="node">
<title>Node32</title>
<g id="a_node30"><a xlink:title=" ">
<polygon fill="white" stroke="#bfbfbf" points="4574.05,-118 4574.05,-137 4765.05,-137 4765.05,-118 4574.05,-118"/>
<text text-anchor="middle" x="4669.55" y="-125" font-family="Helvetica,sans-Serif" font-size="10.00">Components/PrimitiveComponent.h</text>
</a>
</g>
</g>
<!-- Node1&#45;&gt;Node32 -->
<g id="edge42" class="edge">
<title>Node1&#45;&gt;Node32</title>
<path fill="none" stroke="midnightblue" d="M3963.66,-189.21C4091.75,-182.04 4348.6,-166.12 4565.55,-143 4577.78,-141.7 4590.79,-140.07 4603.31,-138.39"/>
<polygon fill="midnightblue" stroke="midnightblue" points="4603.8,-141.86 4613.23,-137.03 4602.85,-134.92 4603.8,-141.86"/>
</g>
<!-- Node33 -->
<g id="node31" class="node">
<title>Node33</title>
<g id="a_node31"><a xlink:title=" ">
<polygon fill="white" stroke="#bfbfbf" points="1242.05,-56.5 1242.05,-75.5 1379.05,-75.5 1379.05,-56.5 1242.05,-56.5"/>
<text text-anchor="middle" x="1310.55" y="-63.5" font-family="Helvetica,sans-Serif" font-size="10.00">GameFramework/Actor.h</text>
</a>
</g>
</g>
<!-- Node1&#45;&gt;Node33 -->
<g id="edge43" class="edge">
<title>Node1&#45;&gt;Node33</title>
<path fill="none" stroke="midnightblue" d="M3801.17,-192.42C3560.63,-188.91 2832.02,-176.12 2228.55,-143 1855.78,-122.54 1760.09,-114.1 1389.14,-76.56"/>
<polygon fill="midnightblue" stroke="midnightblue" points="1389.23,-73.05 1378.93,-75.52 1388.53,-80.01 1389.23,-73.05"/>
</g>
<!-- Node34 -->
<g id="node32" class="node">
<title>Node34</title>
<g id="a_node32"><a xlink:href="QuadHUDWidget_8h.html" target="_top" xlink:title=" ">
<polygon fill="white" stroke="black" points="335.55,-118 335.55,-137 457.55,-137 457.55,-118 335.55,-118"/>
<text text-anchor="middle" x="396.55" y="-125" font-family="Helvetica,sans-Serif" font-size="10.00">UI/QuadHUDWidget.h</text>
</a>
</g>
</g>
<!-- Node1&#45;&gt;Node34 -->
<g id="edge46" class="edge">
<title>Node1&#45;&gt;Node34</title>
<path fill="none" stroke="midnightblue" d="M3801.52,-193.27C3438.31,-192 1923.77,-184.39 681.55,-143 608.68,-140.57 525.41,-136.14 467.78,-132.82"/>
<polygon fill="midnightblue" stroke="midnightblue" points="467.87,-129.32 457.68,-132.23 467.46,-136.31 467.87,-129.32"/>
</g>
<!-- Node36 -->
<g id="node34" class="node">
<title>Node36</title>
<g id="a_node34"><a xlink:href="ROS2Controller_8h.html" target="_top" xlink:title=" ">
<polygon fill="white" stroke="red" points="2238.05,-118 2238.05,-137 2393.05,-137 2393.05,-118 2238.05,-118"/>
<text text-anchor="middle" x="2315.55" y="-125" font-family="Helvetica,sans-Serif" font-size="10.00">Controllers/ROS2Controller.h</text>
</a>
</g>
</g>
<!-- Node1&#45;&gt;Node36 -->
<g id="edge51" class="edge">
<title>Node1&#45;&gt;Node36</title>
<path fill="none" stroke="midnightblue" d="M3801.33,-190.13C3533.57,-179.02 2680.06,-143.62 2403.18,-132.13"/>
<polygon fill="midnightblue" stroke="midnightblue" points="2403.32,-128.64 2393.19,-131.72 2403.03,-135.63 2403.32,-128.64"/>
</g>
<!-- Node56 -->
<g id="node48" class="node">
<title>Node56</title>
<g id="a_node48"><a xlink:title=" ">
<polygon fill="white" stroke="#bfbfbf" points="4783.55,-118 4783.55,-137 4913.55,-137 4913.55,-118 4783.55,-118"/>
<text text-anchor="middle" x="4848.55" y="-125" font-family="Helvetica,sans-Serif" font-size="10.00">ROSFlightComponent.h</text>
</a>
</g>
</g>
<!-- Node1&#45;&gt;Node56 -->
<g id="edge69" class="edge">
<title>Node1&#45;&gt;Node56</title>
<path fill="none" stroke="midnightblue" d="M3963.76,-192.62C4120.91,-190.09 4477.34,-180.35 4774.55,-143 4782.96,-141.94 4791.84,-140.5 4800.42,-138.92"/>
<polygon fill="midnightblue" stroke="midnightblue" points="4801.14,-142.35 4810.31,-137.03 4799.83,-135.47 4801.14,-142.35"/>
</g>
<!-- Node57 -->
<g id="node49" class="node">
<title>Node57</title>
<g id="a_node49"><a xlink:title=" ">
<polygon fill="white" stroke="#bfbfbf" points="4931.55,-118 4931.55,-137 5077.55,-137 5077.55,-118 4931.55,-118"/>
<text text-anchor="middle" x="5004.55" y="-125" font-family="Helvetica,sans-Serif" font-size="10.00">Kismet/GameplayStatics.h</text>
</a>
</g>
</g>
<!-- Node1&#45;&gt;Node57 -->
<g id="edge70" class="edge">
<title>Node1&#45;&gt;Node57</title>
<path fill="none" stroke="midnightblue" d="M3963.74,-193.05C4139.25,-191.3 4566.86,-182.92 4922.55,-143 4932.15,-141.92 4942.32,-140.42 4952.11,-138.79"/>
<polygon fill="midnightblue" stroke="midnightblue" points="4952.88,-142.21 4962.14,-137.05 4951.69,-135.31 4952.88,-142.21"/>
</g>
<!-- Node58 -->
<g id="node50" class="node">
<title>Node58</title>
<g id="a_node50"><a xlink:title=" ">
<polygon fill="white" stroke="#bfbfbf" points="5096.05,-118 5096.05,-137 5251.05,-137 5251.05,-118 5096.05,-118"/>
<text text-anchor="middle" x="5173.55" y="-125" font-family="Helvetica,sans-Serif" font-size="10.00">Kismet/KismetMathLibrary.h</text>
</a>
</g>
</g>
<!-- Node1&#45;&gt;Node58 -->
<g id="edge71" class="edge">
<title>Node1&#45;&gt;Node58</title>
<path fill="none" stroke="midnightblue" d="M3963.84,-193.54C4158.33,-192.88 4665.69,-186.73 5086.55,-143 5097.06,-141.91 5108.21,-140.35 5118.91,-138.66"/>
<polygon fill="midnightblue" stroke="midnightblue" points="5119.69,-142.08 5128.99,-137.01 5118.56,-135.17 5119.69,-142.08"/>
</g>
<!-- Node3 -->
<g id="node3" class="node">
<title>Node3</title>
<g id="a_node3"><a xlink:title=" ">
<polygon fill="white" stroke="#bfbfbf" points="1074.55,-0.5 1074.55,-19.5 1162.55,-19.5 1162.55,-0.5 1074.55,-0.5"/>
<text text-anchor="middle" x="1118.55" y="-7.5" font-family="Helvetica,sans-Serif" font-size="10.00">CoreMinimal.h</text>
</a>
</g>
</g>
<!-- Node2&#45;&gt;Node3 -->
<g id="edge2" class="edge">
<title>Node2&#45;&gt;Node3</title>
<path fill="none" stroke="midnightblue" d="M3737.65,-117.92C3728.09,-102.16 3705.25,-69 3675.55,-56 3550.42,-1.22 1391.49,-31.72 1173.03,-19.85"/>
<polygon fill="midnightblue" stroke="midnightblue" points="1172.96,-16.34 1162.74,-19.13 1172.48,-23.32 1172.96,-16.34"/>
</g>
<!-- Node4 -->
<g id="node4" class="node">
<title>Node4</title>
<g id="a_node4"><a xlink:title=" ">
<polygon fill="white" stroke="#bfbfbf" points="3722.55,-56.5 3722.55,-75.5 3860.55,-75.5 3860.55,-56.5 3722.55,-56.5"/>
<text text-anchor="middle" x="3791.55" y="-63.5" font-family="Helvetica,sans-Serif" font-size="10.00">GameFramework/Pawn.h</text>
</a>
</g>
</g>
<!-- Node2&#45;&gt;Node4 -->
<g id="edge3" class="edge">
<title>Node2&#45;&gt;Node4</title>
<path fill="none" stroke="midnightblue" d="M3749.57,-117.98C3757,-108.96 3768.89,-94.52 3778.12,-83.31"/>
<polygon fill="midnightblue" stroke="midnightblue" points="3780.89,-85.45 3784.55,-75.51 3775.49,-81 3780.89,-85.45"/>
</g>
<!-- Node2&#45;&gt;Node5 -->
<g id="edge4" class="edge">
<title>Node2&#45;&gt;Node5</title>
<path fill="none" stroke="midnightblue" d="M3797.77,-118.71C3814.4,-116.44 3832.71,-114.03 3849.55,-112 3911.94,-104.46 4078.05,-87.13 4182.88,-76.31"/>
<polygon fill="midnightblue" stroke="midnightblue" points="4183.24,-79.79 4192.83,-75.29 4182.52,-72.83 4183.24,-79.79"/>
</g>
<!-- Node2&#45;&gt;Node6 -->
<g id="edge5" class="edge">
<title>Node2&#45;&gt;Node6</title>
<path fill="none" stroke="midnightblue" d="M3797.61,-120.68C3824.68,-117.9 3857.81,-114.61 3887.55,-112 3888.29,-111.94 4188.71,-89.22 4362.33,-76.09"/>
<polygon fill="midnightblue" stroke="midnightblue" points="4362.84,-79.56 4372.55,-75.32 4362.31,-72.58 4362.84,-79.56"/>
</g>
<!-- Node2&#45;&gt;Node7 -->
<g id="edge6" class="edge">
<title>Node2&#45;&gt;Node7</title>
<path fill="none" stroke="midnightblue" d="M3781.53,-117.94C3791.31,-115.89 3801.8,-113.78 3811.55,-112 3885.65,-98.46 3970.92,-85.5 4029.52,-77"/>
<polygon fill="midnightblue" stroke="midnightblue" points="4030.39,-80.41 4039.78,-75.51 4029.39,-73.48 4030.39,-80.41"/>
</g>
<!-- Node10 -->
<g id="node10" class="node">
<title>Node10</title>
<g id="a_node10"><a xlink:href="NavigationComponent_8h.html" target="_top" xlink:title=" ">
<polygon fill="white" stroke="red" points="3498.55,-56.5 3498.55,-75.5 3666.55,-75.5 3666.55,-56.5 3498.55,-56.5"/>
<text text-anchor="middle" x="3582.55" y="-63.5" font-family="Helvetica,sans-Serif" font-size="10.00">Utility/NavigationComponent.h</text>
</a>
</g>
</g>
<!-- Node2&#45;&gt;Node10 -->
<g id="edge10" class="edge">
<title>Node2&#45;&gt;Node10</title>
<path fill="none" stroke="midnightblue" d="M3719.63,-117.98C3692.18,-107.77 3646.04,-90.61 3614.95,-79.05"/>
<polygon fill="midnightblue" stroke="midnightblue" points="3616.03,-75.71 3605.43,-75.51 3613.59,-82.28 3616.03,-75.71"/>
</g>
<!-- Node2&#45;&gt;Node13 -->
<g id="edge12" class="edge">
<title>Node2&#45;&gt;Node13</title>
<path fill="none" stroke="midnightblue" d="M3687.42,-125.89C3346.39,-122.07 1529.39,-100.7 1233.87,-75.89"/>
<polygon fill="midnightblue" stroke="midnightblue" points="1233.89,-72.38 1223.62,-74.97 1233.26,-79.35 1233.89,-72.38"/>
</g>
<!-- Node2&#45;&gt;Node15 -->
<g id="edge15" class="edge">
<title>Node2&#45;&gt;Node15</title>
<path fill="none" stroke="midnightblue" d="M3797.78,-121.75C3834.08,-118.72 3882.62,-114.84 3925.55,-112 4222.39,-92.34 4299.65,-96.4 4600.63,-76.04"/>
<polygon fill="midnightblue" stroke="midnightblue" points="4601.23,-79.51 4610.97,-75.34 4600.76,-72.52 4601.23,-79.51"/>
</g>
<!-- Node2&#45;&gt;Node16 -->
<g id="edge16" class="edge">
<title>Node2&#45;&gt;Node16</title>
<path fill="none" stroke="midnightblue" d="M3797.93,-122.51C3842.62,-119.37 3907.11,-115.04 3963.55,-112 4339.56,-91.74 4436.7,-99.5 4816.32,-76.05"/>
<polygon fill="midnightblue" stroke="midnightblue" points="4816.72,-79.53 4826.48,-75.42 4816.28,-72.55 4816.72,-79.53"/>
</g>
<!-- Node2&#45;&gt;Node17 -->
<g id="edge17" class="edge">
<title>Node2&#45;&gt;Node17</title>
<path fill="none" stroke="midnightblue" d="M3797.61,-123.08C3850.03,-119.9 3931.14,-115.2 4001.55,-112 4457.55,-91.3 4574.74,-101.79 5034.13,-76.05"/>
<polygon fill="midnightblue" stroke="midnightblue" points="5034.57,-79.54 5044.36,-75.48 5034.18,-72.55 5034.57,-79.54"/>
</g>
<!-- Node2&#45;&gt;Node18 -->
<g id="edge18" class="edge">
<title>Node2&#45;&gt;Node18</title>
<path fill="none" stroke="midnightblue" d="M3687.38,-120.74C3589.38,-110.51 3384.01,-89.07 3264.4,-76.59"/>
<polygon fill="midnightblue" stroke="midnightblue" points="3264.47,-73.08 3254.16,-75.52 3263.74,-80.04 3264.47,-73.08"/>
</g>
<!-- Node2&#45;&gt;Node19 -->
<g id="edge19" class="edge">
<title>Node2&#45;&gt;Node19</title>
<path fill="none" stroke="midnightblue" d="M3692.41,-117.98C3629.12,-107.22 3520.38,-88.73 3452.69,-77.22"/>
<polygon fill="midnightblue" stroke="midnightblue" points="3453.05,-73.73 3442.61,-75.51 3451.88,-80.64 3453.05,-73.73"/>
</g>
<!-- Node20 -->
<g id="node18" class="node">
<title>Node20</title>
<g id="a_node18"><a xlink:title=" ">
<polygon fill="white" stroke="#bfbfbf" points="3879.05,-56.5 3879.05,-75.5 4008.05,-75.5 4008.05,-56.5 3879.05,-56.5"/>
<text text-anchor="middle" x="3943.55" y="-63.5" font-family="Helvetica,sans-Serif" font-size="10.00">QuadPawn.generated.h</text>
</a>
</g>
</g>
<!-- Node2&#45;&gt;Node20 -->
<g id="edge20" class="edge">
<title>Node2&#45;&gt;Node20</title>
<path fill="none" stroke="midnightblue" d="M3771.35,-117.98C3806.43,-107.59 3865.82,-90.01 3904.86,-78.45"/>
<polygon fill="midnightblue" stroke="midnightblue" points="3906.21,-81.7 3914.81,-75.51 3904.23,-74.99 3906.21,-81.7"/>
</g>
<!-- Node7&#45;&gt;Node3 -->
<g id="edge7" class="edge">
<title>Node7&#45;&gt;Node3</title>
<path fill="none" stroke="midnightblue" d="M4026.37,-56.6C4023.39,-56.38 4020.45,-56.17 4017.55,-56 3389.38,-18.06 1817.6,-77.49 1173.1,-20.08"/>
<polygon fill="midnightblue" stroke="midnightblue" points="1173.02,-16.56 1162.74,-19.14 1172.39,-23.53 1173.02,-16.56"/>
</g>
<!-- Node8 -->
<g id="node8" class="node">
<title>Node8</title>
<g id="a_node8"><a xlink:title=" ">
<polygon fill="white" stroke="#bfbfbf" points="3915.55,-0.5 3915.55,-19.5 4091.55,-19.5 4091.55,-0.5 3915.55,-0.5"/>
<text text-anchor="middle" x="4003.55" y="-7.5" font-family="Helvetica,sans-Serif" font-size="10.00">Components/SceneComponent.h</text>
</a>
</g>
</g>
<!-- Node7&#45;&gt;Node8 -->
<g id="edge8" class="edge">
<title>Node7&#45;&gt;Node8</title>
<path fill="none" stroke="midnightblue" d="M4084.97,-56.32C4069.55,-47.74 4045.74,-34.49 4027.84,-24.52"/>
<polygon fill="midnightblue" stroke="midnightblue" points="4029.54,-21.46 4019.1,-19.65 4026.13,-27.58 4029.54,-21.46"/>
</g>
<!-- Node9 -->
<g id="node9" class="node">
<title>Node9</title>
<g id="a_node9"><a xlink:title=" ">
<polygon fill="white" stroke="#bfbfbf" points="4110.05,-0.5 4110.05,-19.5 4285.05,-19.5 4285.05,-0.5 4110.05,-0.5"/>
<text text-anchor="middle" x="4197.55" y="-7.5" font-family="Helvetica,sans-Serif" font-size="10.00">ThrusterComponent.generated.h</text>
</a>
</g>
</g>
<!-- Node7&#45;&gt;Node9 -->
<g id="edge9" class="edge">
<title>Node7&#45;&gt;Node9</title>
<path fill="none" stroke="midnightblue" d="M4116.14,-56.32C4131.55,-47.74 4155.37,-34.49 4173.26,-24.52"/>
<polygon fill="midnightblue" stroke="midnightblue" points="4174.97,-27.58 4182.01,-19.65 4171.57,-21.46 4174.97,-27.58"/>
</g>
<!-- Node10&#45;&gt;Node3 -->
<g id="edge11" class="edge">
<title>Node10&#45;&gt;Node3</title>
<path fill="none" stroke="midnightblue" d="M3498.43,-56.55C3495.43,-56.35 3492.47,-56.16 3489.55,-56 2978.23,-27.34 1700.06,-67.58 1172.76,-20.05"/>
<polygon fill="midnightblue" stroke="midnightblue" points="1173.02,-16.56 1162.74,-19.13 1172.38,-23.53 1173.02,-16.56"/>
</g>
<!-- Node13&#45;&gt;Node3 -->
<g id="edge13" class="edge">
<title>Node13&#45;&gt;Node3</title>
<path fill="none" stroke="midnightblue" d="M1170.59,-56.32C1161.43,-48.34 1147.62,-36.31 1136.52,-26.65"/>
<polygon fill="midnightblue" stroke="midnightblue" points="1138.54,-23.76 1128.7,-19.83 1133.94,-29.04 1138.54,-23.76"/>
</g>
<!-- Node14 -->
<g id="node12" class="node">
<title>Node14</title>
<g id="a_node12"><a xlink:title=" ">
<polygon fill="white" stroke="#bfbfbf" points="1180.05,-0.5 1180.05,-19.5 1305.05,-19.5 1305.05,-0.5 1180.05,-0.5"/>
<text text-anchor="middle" x="1242.55" y="-7.5" font-family="Helvetica,sans-Serif" font-size="10.00">ImGuiUtil.generated.h</text>
</a>
</g>
</g>
<!-- Node13&#45;&gt;Node14 -->
<g id="edge14" class="edge">
<title>Node13&#45;&gt;Node14</title>
<path fill="none" stroke="midnightblue" d="M1190.51,-56.32C1199.68,-48.34 1213.49,-36.31 1224.58,-26.65"/>
<polygon fill="midnightblue" stroke="midnightblue" points="1227.17,-29.04 1232.41,-19.83 1222.57,-23.76 1227.17,-29.04"/>
</g>
<!-- Node21&#45;&gt;Node3 -->
<g id="edge22" class="edge">
<title>Node21&#45;&gt;Node3</title>
<path fill="none" stroke="midnightblue" d="M984.85,-117.6C970.72,-103.54 947.68,-75.76 962.55,-56 975.01,-39.44 1024.62,-27.06 1064.6,-19.52"/>
<polygon fill="midnightblue" stroke="midnightblue" points="1065.32,-22.94 1074.53,-17.7 1064.06,-16.06 1065.32,-22.94"/>
</g>
<!-- Node21&#45;&gt;Node13 -->
<g id="edge26" class="edge">
<title>Node21&#45;&gt;Node13</title>
<path fill="none" stroke="midnightblue" d="M1021.2,-117.98C1053.52,-107.64 1108.15,-90.16 1144.29,-78.6"/>
<polygon fill="midnightblue" stroke="midnightblue" points="1145.49,-81.89 1153.95,-75.51 1143.36,-75.22 1145.49,-81.89"/>
</g>
<!-- Node22 -->
<g id="node20" class="node">
<title>Node22</title>
<g id="a_node20"><a xlink:href="QuadPIDController_8h.html" target="_top" xlink:title=" ">
<polygon fill="white" stroke="black" points="971.55,-56.5 971.55,-75.5 1119.55,-75.5 1119.55,-56.5 971.55,-56.5"/>
<text text-anchor="middle" x="1045.55" y="-63.5" font-family="Helvetica,sans-Serif" font-size="10.00">Utility/QuadPIDController.h</text>
</a>
</g>
</g>
<!-- Node21&#45;&gt;Node22 -->
<g id="edge23" class="edge">
<title>Node21&#45;&gt;Node22</title>
<path fill="none" stroke="midnightblue" d="M1001.86,-117.98C1009.59,-108.96 1021.96,-94.52 1031.57,-83.31"/>
<polygon fill="midnightblue" stroke="midnightblue" points="1034.41,-85.38 1038.26,-75.51 1029.09,-80.82 1034.41,-85.38"/>
</g>
<!-- Node23 -->
<g id="node21" class="node">
<title>Node23</title>
<g id="a_node21"><a xlink:title=" ">
<polygon fill="white" stroke="#bfbfbf" points="760.05,-56.5 760.05,-75.5 915.05,-75.5 915.05,-56.5 760.05,-56.5"/>
<text text-anchor="middle" x="837.55" y="-63.5" font-family="Helvetica,sans-Serif" font-size="10.00">ROSFlightControllerSource.h</text>
</a>
</g>
</g>
<!-- Node21&#45;&gt;Node23 -->
<g id="edge25" class="edge">
<title>Node21&#45;&gt;Node23</title>
<path fill="none" stroke="midnightblue" d="M972.06,-117.98C945.24,-107.81 900.24,-90.76 869.74,-79.2"/>
<polygon fill="midnightblue" stroke="midnightblue" points="870.6,-75.78 860.01,-75.51 868.12,-82.33 870.6,-75.78"/>
</g>
<!-- Node24 -->
<g id="node22" class="node">
<title>Node24</title>
<g id="a_node22"><a xlink:title=" ">
<polygon fill="white" stroke="#bfbfbf" points="561.55,-56.5 561.55,-75.5 741.55,-75.5 741.55,-56.5 561.55,-56.5"/>
<text text-anchor="middle" x="651.55" y="-63.5" font-family="Helvetica,sans-Serif" font-size="10.00">QuadDroneController.generated.h</text>
</a>
</g>
</g>
<!-- Node21&#45;&gt;Node24 -->
<g id="edge27" class="edge">
<title>Node21&#45;&gt;Node24</title>
<path fill="none" stroke="midnightblue" d="M945.41,-117.98C883.39,-107.22 776.82,-88.73 710.49,-77.22"/>
<polygon fill="midnightblue" stroke="midnightblue" points="711.06,-73.77 700.61,-75.51 709.86,-80.67 711.06,-73.77"/>
</g>
<!-- Node22&#45;&gt;Node3 -->
<g id="edge24" class="edge">
<title>Node22&#45;&gt;Node3</title>
<path fill="none" stroke="midnightblue" d="M1057.28,-56.32C1068.39,-48.11 1085.29,-35.6 1098.54,-25.81"/>
<polygon fill="midnightblue" stroke="midnightblue" points="1100.65,-28.59 1106.61,-19.83 1096.49,-22.97 1100.65,-28.59"/>
</g>
<!-- Node26&#45;&gt;Node3 -->
<g id="edge32" class="edge">
<title>Node26&#45;&gt;Node3</title>
<path fill="none" stroke="midnightblue" d="M69.76,-117.95C35.15,-105.61 -17.92,-81.48 6.55,-56 43.52,-17.5 845.43,-11.94 1063.97,-11.13"/>
<polygon fill="midnightblue" stroke="midnightblue" points="1064.24,-14.63 1074.23,-11.1 1064.22,-7.63 1064.24,-14.63"/>
</g>
<!-- Node27 -->
<g id="node25" class="node">
<title>Node27</title>
<g id="a_node25"><a xlink:title=" ">
<polygon fill="white" stroke="#bfbfbf" points="15.55,-56.5 15.55,-75.5 177.55,-75.5 177.55,-56.5 15.55,-56.5"/>
<text text-anchor="middle" x="96.55" y="-63.5" font-family="Helvetica,sans-Serif" font-size="10.00">DroneJSONConfig.generated.h</text>
</a>
</g>
</g>
<!-- Node26&#45;&gt;Node27 -->
<g id="edge33" class="edge">
<title>Node26&#45;&gt;Node27</title>
<path fill="none" stroke="midnightblue" d="M96.55,-117.98C96.55,-109.58 96.55,-96.48 96.55,-85.66"/>
<polygon fill="midnightblue" stroke="midnightblue" points="100.05,-85.51 96.55,-75.51 93.05,-85.51 100.05,-85.51"/>
</g>
<!-- Node34&#45;&gt;Node3 -->
<g id="edge47" class="edge">
<title>Node34&#45;&gt;Node3</title>
<path fill="none" stroke="midnightblue" d="M335.46,-121.06C272.18,-113.21 187.36,-95.11 224.55,-56 253.59,-25.47 875.1,-14.37 1064.35,-11.69"/>
<polygon fill="midnightblue" stroke="midnightblue" points="1064.4,-15.19 1074.35,-11.55 1064.3,-8.19 1064.4,-15.19"/>
</g>
<!-- Node34&#45;&gt;Node29 -->
<g id="edge48" class="edge">
<title>Node34&#45;&gt;Node29</title>
<path fill="none" stroke="midnightblue" d="M408.3,-117.98C421.33,-108.52 442.59,-93.1 458.31,-81.69"/>
<polygon fill="midnightblue" stroke="midnightblue" points="460.79,-84.21 466.83,-75.51 456.68,-78.55 460.79,-84.21"/>
</g>
<!-- Node35 -->
<g id="node33" class="node">
<title>Node35</title>
<g id="a_node33"><a xlink:title=" ">
<polygon fill="white" stroke="#bfbfbf" points="234.05,-56.5 234.05,-75.5 395.05,-75.5 395.05,-56.5 234.05,-56.5"/>
<text text-anchor="middle" x="314.55" y="-63.5" font-family="Helvetica,sans-Serif" font-size="10.00">QuadHUDWidget.generated.h</text>
</a>
</g>
</g>
<!-- Node34&#45;&gt;Node35 -->
<g id="edge49" class="edge">
<title>Node34&#45;&gt;Node35</title>
<path fill="none" stroke="midnightblue" d="M384.8,-117.98C371.77,-108.52 350.52,-93.1 334.79,-81.69"/>
<polygon fill="midnightblue" stroke="midnightblue" points="336.43,-78.55 326.28,-75.51 332.32,-84.21 336.43,-78.55"/>
</g>
<!-- Node36&#45;&gt;Node3 -->
<g id="edge52" class="edge">
<title>Node36&#45;&gt;Node3</title>
<path fill="none" stroke="midnightblue" d="M2237.98,-122.97C2028.65,-113.32 1465.36,-86.54 1426.55,-76 1407.75,-70.89 1406.05,-62.11 1387.55,-56 1297.81,-26.35 1268.86,-35.65 1172.93,-20.35"/>
<polygon fill="midnightblue" stroke="midnightblue" points="1173.24,-16.85 1162.8,-18.68 1172.1,-23.76 1173.24,-16.85"/>
</g>
<!-- Node36&#45;&gt;Node18 -->
<g id="edge57" class="edge">
<title>Node36&#45;&gt;Node18</title>
<path fill="none" stroke="midnightblue" d="M2393.24,-121.27C2525.37,-112.34 2802.62,-93.5 3048.74,-76.05"/>
<polygon fill="midnightblue" stroke="midnightblue" points="3049.23,-79.53 3058.96,-75.33 3048.74,-72.55 3049.23,-79.53"/>
</g>
<!-- Node36&#45;&gt;Node19 -->
<g id="edge58" class="edge">
<title>Node36&#45;&gt;Node19</title>
<path fill="none" stroke="midnightblue" d="M2393.35,-123.55C2557.52,-117.08 2951.7,-100.35 3294.3,-75.98"/>
<polygon fill="midnightblue" stroke="midnightblue" points="3294.69,-79.47 3304.42,-75.26 3294.19,-72.48 3294.69,-79.47"/>
</g>
<!-- Node36&#45;&gt;Node33 -->
<g id="edge53" class="edge">
<title>Node36&#45;&gt;Node33</title>
<path fill="none" stroke="midnightblue" d="M2237.76,-122.77C2046.44,-113.53 1556.73,-89.31 1393.55,-76 1392.25,-75.89 1390.94,-75.78 1389.62,-75.67"/>
<polygon fill="midnightblue" stroke="midnightblue" points="1389.64,-72.16 1379.37,-74.75 1389.01,-79.13 1389.64,-72.16"/>
</g>
<!-- Node37 -->
<g id="node35" class="node">
<title>Node37</title>
<g id="a_node35"><a xlink:title=" ">
<polygon fill="white" stroke="#bfbfbf" points="2057.55,-56.5 2057.55,-75.5 2191.55,-75.5 2191.55,-56.5 2057.55,-56.5"/>
<text text-anchor="middle" x="2124.55" y="-63.5" font-family="Helvetica,sans-Serif" font-size="10.00">ROS2NodeComponent.h</text>
</a>
</g>
</g>
<!-- Node36&#45;&gt;Node37 -->
<g id="edge54" class="edge">
<title>Node36&#45;&gt;Node37</title>
<path fill="none" stroke="midnightblue" d="M2288.19,-117.98C2255,-107.64 2198.9,-90.16 2161.8,-78.6"/>
<polygon fill="midnightblue" stroke="midnightblue" points="2162.46,-75.14 2151.87,-75.51 2160.37,-81.82 2162.46,-75.14"/>
</g>
<!-- Node38 -->
<g id="node36" class="node">
<title>Node38</title>
<g id="a_node36"><a xlink:title=" ">
<polygon fill="white" stroke="#bfbfbf" points="2209.55,-56.5 2209.55,-75.5 2305.55,-75.5 2305.55,-56.5 2209.55,-56.5"/>
<text text-anchor="middle" x="2257.55" y="-63.5" font-family="Helvetica,sans-Serif" font-size="10.00">ROS2Publisher.h</text>
</a>
</g>
</g>
<!-- Node36&#45;&gt;Node38 -->
<g id="edge55" class="edge">
<title>Node36&#45;&gt;Node38</title>
<path fill="none" stroke="midnightblue" d="M2307.24,-117.98C2298.37,-108.87 2284.11,-94.24 2273.13,-82.98"/>
<polygon fill="midnightblue" stroke="midnightblue" points="2275.33,-80.23 2265.85,-75.51 2270.32,-85.11 2275.33,-80.23"/>
</g>
<!-- Node39 -->
<g id="node37" class="node">
<title>Node39</title>
<g id="a_node37"><a xlink:title=" ">
<polygon fill="white" stroke="#bfbfbf" points="2323.55,-56.5 2323.55,-75.5 2425.55,-75.5 2425.55,-56.5 2323.55,-56.5"/>
<text text-anchor="middle" x="2374.55" y="-63.5" font-family="Helvetica,sans-Serif" font-size="10.00">ROS2Subscriber.h</text>
</a>
</g>
</g>
<!-- Node36&#45;&gt;Node39 -->
<g id="edge56" class="edge">
<title>Node36&#45;&gt;Node39</title>
<path fill="none" stroke="midnightblue" d="M2324.01,-117.98C2333.12,-108.78 2347.82,-93.96 2359.03,-82.66"/>
<polygon fill="midnightblue" stroke="midnightblue" points="2361.56,-85.07 2366.12,-75.51 2356.59,-80.15 2361.56,-85.07"/>
</g>
<!-- Node40 -->
<g id="node38" class="node">
<title>Node40</title>
<g id="a_node38"><a xlink:title=" ">
<polygon fill="white" stroke="#bfbfbf" points="2444.05,-56.5 2444.05,-75.5 2549.05,-75.5 2549.05,-56.5 2444.05,-56.5"/>
<text text-anchor="middle" x="2496.55" y="-63.5" font-family="Helvetica,sans-Serif" font-size="10.00">Msgs/ROS2Point.h</text>
</a>
</g>
</g>
<!-- Node36&#45;&gt;Node40 -->
<g id="edge59" class="edge">
<title>Node36&#45;&gt;Node40</title>
<path fill="none" stroke="midnightblue" d="M2341.49,-117.98C2372.8,-107.68 2425.64,-90.31 2460.81,-78.75"/>
<polygon fill="midnightblue" stroke="midnightblue" points="2462.26,-81.96 2470.67,-75.51 2460.08,-75.31 2462.26,-81.96"/>
</g>
<!-- Node41 -->
<g id="node39" class="node">
<title>Node41</title>
<g id="a_node39"><a xlink:title=" ">
<polygon fill="white" stroke="#bfbfbf" points="2567.05,-56.5 2567.05,-75.5 2666.05,-75.5 2666.05,-56.5 2567.05,-56.5"/>
<text text-anchor="middle" x="2616.55" y="-63.5" font-family="Helvetica,sans-Serif" font-size="10.00">Msgs/ROS2Img.h</text>
</a>
</g>
</g>
<!-- Node36&#45;&gt;Node41 -->
<g id="edge60" class="edge">
<title>Node36&#45;&gt;Node41</title>
<path fill="none" stroke="midnightblue" d="M2358.68,-117.98C2412.66,-107.3 2505.09,-89.03 2563.39,-77.51"/>
<polygon fill="midnightblue" stroke="midnightblue" points="2564.38,-80.88 2573.51,-75.51 2563.02,-74.01 2564.38,-80.88"/>
</g>
<!-- Node42 -->
<g id="node40" class="node">
<title>Node42</title>
<g id="a_node40"><a xlink:title=" ">
<polygon fill="white" stroke="#bfbfbf" points="2684.05,-56.5 2684.05,-75.5 2801.05,-75.5 2801.05,-56.5 2684.05,-56.5"/>
<text text-anchor="middle" x="2742.55" y="-63.5" font-family="Helvetica,sans-Serif" font-size="10.00">Msgs/ROS2Float64.h</text>
</a>
</g>
</g>
<!-- Node36&#45;&gt;Node42 -->
<g id="edge61" class="edge">
<title>Node36&#45;&gt;Node42</title>
<path fill="none" stroke="midnightblue" d="M2376.73,-117.98C2455.43,-107.01 2591.74,-88.01 2673.9,-76.57"/>
<polygon fill="midnightblue" stroke="midnightblue" points="2674.47,-80.02 2683.89,-75.17 2673.5,-73.09 2674.47,-80.02"/>
</g>
<!-- Node43 -->
<g id="node41" class="node">
<title>Node43</title>
<g id="a_node41"><a xlink:title=" ">
<polygon fill="white" stroke="#bfbfbf" points="2819.05,-56.5 2819.05,-75.5 2924.05,-75.5 2924.05,-56.5 2819.05,-56.5"/>
<text text-anchor="middle" x="2871.55" y="-63.5" font-family="Helvetica,sans-Serif" font-size="10.00">Msgs/ROS2Twist.h</text>
</a>
</g>
</g>
<!-- Node36&#45;&gt;Node43 -->
<g id="edge62" class="edge">
<title>Node36&#45;&gt;Node43</title>
<path fill="none" stroke="midnightblue" d="M2393.1,-119.59C2488.39,-110.88 2655.24,-94.87 2808.72,-76.05"/>
<polygon fill="midnightblue" stroke="midnightblue" points="2809.31,-79.51 2818.81,-74.81 2808.45,-72.56 2809.31,-79.51"/>
</g>
<!-- Node44 -->
<g id="node42" class="node">
<title>Node44</title>
<g id="a_node42"><a xlink:title=" ">
<polygon fill="white" stroke="#bfbfbf" points="2942.05,-56.5 2942.05,-75.5 3041.05,-75.5 3041.05,-56.5 2942.05,-56.5"/>
<text text-anchor="middle" x="2991.55" y="-63.5" font-family="Helvetica,sans-Serif" font-size="10.00">Msgs/ROS2Imu.h</text>
</a>
</g>
</g>
<!-- Node36&#45;&gt;Node44 -->
<g id="edge63" class="edge">
<title>Node36&#45;&gt;Node44</title>
<path fill="none" stroke="midnightblue" d="M2393.16,-121.89C2508.33,-114.66 2731.51,-99.17 2931.88,-75.99"/>
<polygon fill="midnightblue" stroke="midnightblue" points="2932.48,-79.45 2942.01,-74.81 2931.67,-72.49 2932.48,-79.45"/>
</g>
<!-- Node45 -->
<g id="node43" class="node">
<title>Node45</title>
<g id="a_node43"><a xlink:title=" ">
<polygon fill="white" stroke="#bfbfbf" points="1436.05,-56.5 1436.05,-75.5 1529.05,-75.5 1529.05,-56.5 1436.05,-56.5"/>
<text text-anchor="middle" x="1482.55" y="-63.5" font-family="Helvetica,sans-Serif" font-size="10.00">Msgs/ROS2Str.h</text>
</a>
</g>
</g>
<!-- Node36&#45;&gt;Node45 -->
<g id="edge64" class="edge">
<title>Node36&#45;&gt;Node45</title>
<path fill="none" stroke="midnightblue" d="M2237.98,-122.39C2072.87,-113.51 1690.17,-92.07 1539.29,-75.95"/>
<polygon fill="midnightblue" stroke="midnightblue" points="1539.58,-72.46 1529.26,-74.84 1538.82,-79.42 1539.58,-72.46"/>
</g>
<!-- Node46 -->
<g id="node44" class="node">
<title>Node46</title>
<g id="a_node44"><a xlink:title=" ">
<polygon fill="white" stroke="#bfbfbf" points="1547.55,-56.5 1547.55,-75.5 1651.55,-75.5 1651.55,-56.5 1547.55,-56.5"/>
<text text-anchor="middle" x="1599.55" y="-63.5" font-family="Helvetica,sans-Serif" font-size="10.00">Msgs/ROS2Vec3.h</text>
</a>
</g>
</g>
<!-- Node36&#45;&gt;Node46 -->
<g id="edge65" class="edge">
<title>Node36&#45;&gt;Node46</title>
<path fill="none" stroke="midnightblue" d="M2238,-122.27C2117.15,-115.29 1876.35,-99.84 1661.95,-76.08"/>
<polygon fill="midnightblue" stroke="midnightblue" points="1662.09,-72.58 1651.77,-74.95 1661.32,-79.54 1662.09,-72.58"/>
</g>
<!-- Node47 -->
<g id="node45" class="node">
<title>Node47</title>
<g id="a_node45"><a xlink:title=" ">
<polygon fill="white" stroke="#bfbfbf" points="1669.55,-56.5 1669.55,-75.5 1779.55,-75.5 1779.55,-56.5 1669.55,-56.5"/>
<text text-anchor="middle" x="1724.55" y="-63.5" font-family="Helvetica,sans-Serif" font-size="10.00">Msgs/ROS2Odom.h</text>
</a>
</g>
</g>
<!-- Node36&#45;&gt;Node47 -->
<g id="edge66" class="edge">
<title>Node36&#45;&gt;Node47</title>
<path fill="none" stroke="midnightblue" d="M2237.75,-120.13C2136.94,-111.63 1955.47,-95.5 1790.06,-76.13"/>
<polygon fill="midnightblue" stroke="midnightblue" points="1790.03,-72.6 1779.69,-74.91 1789.21,-79.56 1790.03,-72.6"/>
</g>
<!-- Node48 -->
<g id="node46" class="node">
<title>Node48</title>
<g id="a_node46"><a xlink:title=" ">
<polygon fill="white" stroke="#bfbfbf" points="1797.55,-56.5 1797.55,-75.5 1907.55,-75.5 1907.55,-56.5 1797.55,-56.5"/>
<text text-anchor="middle" x="1852.55" y="-63.5" font-family="Helvetica,sans-Serif" font-size="10.00">Msgs/ROS2Empty.h</text>
</a>
</g>
</g>
<!-- Node36&#45;&gt;Node48 -->
<g id="edge67" class="edge">
<title>Node36&#45;&gt;Node48</title>
<path fill="none" stroke="midnightblue" d="M2245.96,-117.99C2168.49,-108.44 2039.26,-92.33 1917.92,-76.17"/>
<polygon fill="midnightblue" stroke="midnightblue" points="1918.08,-72.66 1907.7,-74.8 1917.15,-79.6 1918.08,-72.66"/>
</g>
<!-- Node49 -->
<g id="node47" class="node">
<title>Node49</title>
<g id="a_node47"><a xlink:title=" ">
<polygon fill="white" stroke="#bfbfbf" points="1926.05,-56.5 1926.05,-75.5 2039.05,-75.5 2039.05,-56.5 1926.05,-56.5"/>
<text text-anchor="middle" x="1982.55" y="-63.5" font-family="Helvetica,sans-Serif" font-size="10.00">Msgs/ROS2TFMsg.h</text>
</a>
</g>
</g>
<!-- Node36&#45;&gt;Node49 -->
<g id="edge68" class="edge">
<title>Node36&#45;&gt;Node49</title>
<path fill="none" stroke="midnightblue" d="M2267.84,-117.98C2207.75,-107.24 2104.59,-88.81 2040.17,-77.29"/>
<polygon fill="midnightblue" stroke="midnightblue" points="2040.63,-73.82 2030.18,-75.51 2039.4,-80.71 2040.63,-73.82"/>
</g>
</g>
</svg>
