<?xml version="1.0" encoding="UTF-8" standalone="no"?>
<!DOCTYPE svg PUBLIC "-//W3C//DTD SVG 1.1//EN"
 "http://www.w3.org/Graphics/SVG/1.1/DTD/svg11.dtd">
<!-- Generated by graphviz version 2.43.0 (0)
 -->
<!-- Title: Source/QuadSimCore/Public/Pawns/QuadPawn.h Pages: 1 -->
<svg width="1225pt" height="117pt"
 viewBox="0.00 0.00 1224.50 117.00" xmlns="http://www.w3.org/2000/svg" xmlns:xlink="http://www.w3.org/1999/xlink">
<g id="graph0" class="graph" transform="scale(1 1) rotate(0) translate(4 113)">
<title>Source/QuadSimCore/Public/Pawns/QuadPawn.h</title>
<polygon fill="white" stroke="transparent" points="-4,4 -4,-113 1220.5,-113 1220.5,4 -4,4"/>
<!-- Node1 -->
<g id="node1" class="node">
<title>Node1</title>
<g id="a_node1"><a xlink:title=" ">
<polygon fill="#bfbfbf" stroke="black" points="498,-78.5 498,-108.5 644,-108.5 644,-78.5 498,-78.5"/>
<text text-anchor="start" x="506" y="-96.5" font-family="Helvetica,sans-Serif" font-size="10.00">Source/QuadSimCore</text>
<text text-anchor="middle" x="571" y="-85.5" font-family="Helvetica,sans-Serif" font-size="10.00">/Public/Pawns/QuadPawn.h</text>
</a>
</g>
</g>
<!-- Node2 -->
<g id="node2" class="node">
<title>Node2</title>
<g id="a_node2"><a xlink:href="QuadDroneController_8cpp.html" target="_top" xlink:title=" ">
<polygon fill="white" stroke="black" points="0,-0.5 0,-41.5 142,-41.5 142,-0.5 0,-0.5"/>
<text text-anchor="start" x="8" y="-29.5" font-family="Helvetica,sans-Serif" font-size="10.00">Source/QuadSimCore</text>
<text text-anchor="start" x="8" y="-18.5" font-family="Helvetica,sans-Serif" font-size="10.00">/Private/Controllers</text>
<text text-anchor="middle" x="71" y="-7.5" font-family="Helvetica,sans-Serif" font-size="10.00">/QuadDroneController.cpp</text>
</a>
</g>
</g>
<!-- Node1&#45;&gt;Node2 -->
<g id="edge1" class="edge">
<title>Node1&#45;&gt;Node2</title>
<path fill="none" stroke="midnightblue" d="M487.62,-85.58C402.54,-77.79 266.9,-63.37 151,-42 148.18,-41.48 145.32,-40.92 142.43,-40.33"/>
<polygon fill="midnightblue" stroke="midnightblue" points="487.47,-89.08 497.74,-86.5 488.1,-82.11 487.47,-89.08"/>
</g>
<!-- Node3 -->
<g id="node3" class="node">
<title>Node3</title>
<g id="a_node3"><a xlink:href="ROS2Controller_8cpp.html" target="_top" xlink:title=" ">
<polygon fill="white" stroke="black" points="160.5,-0.5 160.5,-41.5 279.5,-41.5 279.5,-0.5 160.5,-0.5"/>
<text text-anchor="start" x="168.5" y="-29.5" font-family="Helvetica,sans-Serif" font-size="10.00">Source/QuadSimCore</text>
<text text-anchor="start" x="168.5" y="-18.5" font-family="Helvetica,sans-Serif" font-size="10.00">/Private/Controllers</text>
<text text-anchor="middle" x="220" y="-7.5" font-family="Helvetica,sans-Serif" font-size="10.00">/ROS2Controller.cpp</text>
</a>
</g>
</g>
<!-- Node1&#45;&gt;Node3 -->
<g id="edge2" class="edge">
<title>Node1&#45;&gt;Node3</title>
<path fill="none" stroke="midnightblue" d="M487.89,-79.97C431.47,-70.89 355.36,-57.51 289,-42 285.96,-41.29 282.86,-40.53 279.74,-39.73"/>
<polygon fill="midnightblue" stroke="midnightblue" points="487.4,-83.44 497.83,-81.56 488.51,-76.52 487.4,-83.44"/>
</g>
<!-- Node4 -->
<g id="node4" class="node">
<title>Node4</title>
<g id="a_node4"><a xlink:href="DroneManager_8cpp.html" target="_top" xlink:title=" ">
<polygon fill="white" stroke="black" points="298,-6 298,-36 472,-36 472,-6 298,-6"/>
<text text-anchor="start" x="306" y="-24" font-family="Helvetica,sans-Serif" font-size="10.00">Source/QuadSimCore</text>
<text text-anchor="middle" x="385" y="-13" font-family="Helvetica,sans-Serif" font-size="10.00">/Private/Core/DroneManager.cpp</text>
</a>
</g>
</g>
<!-- Node1&#45;&gt;Node4 -->
<g id="edge3" class="edge">
<title>Node1&#45;&gt;Node4</title>
<path fill="none" stroke="midnightblue" d="M524.33,-74.81C492.72,-62.83 451.51,-47.21 422.13,-36.07"/>
<polygon fill="midnightblue" stroke="midnightblue" points="523.22,-78.13 533.81,-78.4 525.7,-71.59 523.22,-78.13"/>
</g>
<!-- Node5 -->
<g id="node5" class="node">
<title>Node5</title>
<g id="a_node5"><a xlink:href="QuadPawn_8cpp.html" target="_top" xlink:title=" ">
<polygon fill="white" stroke="black" points="490,-6 490,-36 652,-36 652,-6 490,-6"/>
<text text-anchor="start" x="498" y="-24" font-family="Helvetica,sans-Serif" font-size="10.00">Source/QuadSimCore</text>
<text text-anchor="middle" x="571" y="-13" font-family="Helvetica,sans-Serif" font-size="10.00">/Private/Pawns/QuadPawn.cpp</text>
</a>
</g>
</g>
<!-- Node1&#45;&gt;Node5 -->
<g id="edge4" class="edge">
<title>Node1&#45;&gt;Node5</title>
<path fill="none" stroke="midnightblue" d="M571,-68.23C571,-57.57 571,-45.41 571,-36.25"/>
<polygon fill="midnightblue" stroke="midnightblue" points="567.5,-68.23 571,-78.23 574.5,-68.23 567.5,-68.23"/>
</g>
<!-- Node6 -->
<g id="node6" class="node">
<title>Node6</title>
<g id="a_node6"><a xlink:href="QuadSimGameMode_8cpp.html" target="_top" xlink:title=" ">
<polygon fill="white" stroke="black" points="670,-6 670,-36 848,-36 848,-6 670,-6"/>
<text text-anchor="start" x="678" y="-24" font-family="Helvetica,sans-Serif" font-size="10.00">Source/QuadSimCore</text>
<text text-anchor="middle" x="759" y="-13" font-family="Helvetica,sans-Serif" font-size="10.00">/Private/QuadSimGameMode.cpp</text>
</a>
</g>
</g>
<!-- Node1&#45;&gt;Node6 -->
<g id="edge5" class="edge">
<title>Node1&#45;&gt;Node6</title>
<path fill="none" stroke="midnightblue" d="M618.17,-74.81C650.13,-62.83 691.77,-47.21 721.47,-36.07"/>
<polygon fill="midnightblue" stroke="midnightblue" points="616.73,-71.61 608.59,-78.4 619.19,-78.17 616.73,-71.61"/>
</g>
<!-- Node7 -->
<g id="node7" class="node">
<title>Node7</title>
<g id="a_node7"><a xlink:href="ImGuiUtil_8cpp.html" target="_top" xlink:title=" ">
<polygon fill="white" stroke="black" points="866.5,-6 866.5,-36 1003.5,-36 1003.5,-6 866.5,-6"/>
<text text-anchor="start" x="874.5" y="-24" font-family="Helvetica,sans-Serif" font-size="10.00">Source/QuadSimCore</text>
<text text-anchor="middle" x="935" y="-13" font-family="Helvetica,sans-Serif" font-size="10.00">/Private/UI/ImGuiUtil.cpp</text>
</a>
</g>
</g>
<!-- Node1&#45;&gt;Node7 -->
<g id="edge6" class="edge">
<title>Node1&#45;&gt;Node7</title>
<path fill="none" stroke="midnightblue" d="M654.26,-79.52C711.5,-70.17 789.12,-56.67 857,-42 865.2,-40.23 873.84,-38.19 882.26,-36.1"/>
<polygon fill="midnightblue" stroke="midnightblue" points="653.49,-76.1 644.18,-81.16 654.61,-83.01 653.49,-76.1"/>
</g>
<!-- Node8 -->
<g id="node8" class="node">
<title>Node8</title>
<g id="a_node8"><a xlink:href="ObstacleManager_8cpp.html" target="_top" xlink:title=" ">
<polygon fill="white" stroke="black" points="1021.5,-6 1021.5,-36 1216.5,-36 1216.5,-6 1021.5,-6"/>
<text text-anchor="start" x="1029.5" y="-24" font-family="Helvetica,sans-Serif" font-size="10.00">Source/QuadSimCore</text>
<text text-anchor="middle" x="1119" y="-13" font-family="Helvetica,sans-Serif" font-size="10.00">/Private/Utility/ObstacleManager.cpp</text>
</a>
</g>
</g>
<!-- Node1&#45;&gt;Node8 -->
<g id="edge7" class="edge">
<title>Node1&#45;&gt;Node8</title>
<path fill="none" stroke="midnightblue" d="M654.38,-84.8C743.42,-76.15 888.55,-60.83 1013,-42 1024.57,-40.25 1036.81,-38.16 1048.71,-36.01"/>
<polygon fill="midnightblue" stroke="midnightblue" points="653.96,-81.32 644.34,-85.77 654.63,-88.29 653.96,-81.32"/>
</g>
</g>
</svg>
