<?xml version="1.0" encoding="UTF-8" standalone="no"?>
<!DOCTYPE svg PUBLIC "-//W3C//DTD SVG 1.1//EN"
 "http://www.w3.org/Graphics/SVG/1.1/DTD/svg11.dtd">
<!-- Generated by graphviz version 2.43.0 (0)
 -->
<!-- Title: Source/QuadSimCore/Private/Controllers/QuadDroneController.cpp Pages: 1 -->
<svg width="3502pt" height="218pt"
 viewBox="0.00 0.00 3501.50 218.00" xmlns="http://www.w3.org/2000/svg" xmlns:xlink="http://www.w3.org/1999/xlink">
<g id="graph0" class="graph" transform="scale(1 1) rotate(0) translate(4 214)">
<title>Source/QuadSimCore/Private/Controllers/QuadDroneController.cpp</title>
<polygon fill="white" stroke="transparent" points="-4,4 -4,-214 3497.5,-214 3497.5,4 -4,4"/>
<!-- Node1 -->
<g id="node1" class="node">
<title>Node1</title>
<g id="a_node1"><a xlink:title=" ">
<polygon fill="#bfbfbf" stroke="black" points="1808,-168.5 1808,-209.5 1950,-209.5 1950,-168.5 1808,-168.5"/>
<text text-anchor="start" x="1816" y="-197.5" font-family="Helvetica,sans-Serif" font-size="10.00">Source/QuadSimCore</text>
<text text-anchor="start" x="1816" y="-186.5" font-family="Helvetica,sans-Serif" font-size="10.00">/Private/Controllers</text>
<text text-anchor="middle" x="1879" y="-175.5" font-family="Helvetica,sans-Serif" font-size="10.00">/QuadDroneController.cpp</text>
</a>
</g>
</g>
<!-- Node2 -->
<g id="node2" class="node">
<title>Node2</title>
<g id="a_node2"><a xlink:href="QuadDroneController_8h.html" target="_top" xlink:title=" ">
<polygon fill="white" stroke="black" points="341,-112.5 341,-131.5 525,-131.5 525,-112.5 341,-112.5"/>
<text text-anchor="middle" x="433" y="-119.5" font-family="Helvetica,sans-Serif" font-size="10.00">Controllers/QuadDroneController.h</text>
</a>
</g>
</g>
<!-- Node1&#45;&gt;Node2 -->
<g id="edge1" class="edge">
<title>Node1&#45;&gt;Node2</title>
<path fill="none" stroke="midnightblue" d="M1807.86,-185.08C1614.54,-177.11 1063.31,-154.06 605,-132 582.5,-130.92 558.34,-129.69 535.45,-128.5"/>
<polygon fill="midnightblue" stroke="midnightblue" points="535.55,-125 525.38,-127.98 535.19,-131.99 535.55,-125"/>
</g>
<!-- Node6 -->
<g id="node6" class="node">
<title>Node6</title>
<g id="a_node6"><a xlink:href="ImGuiUtil_8h.html" target="_top" xlink:title=" ">
<polygon fill="white" stroke="black" points="576,-56.5 576,-75.5 662,-75.5 662,-56.5 576,-56.5"/>
<text text-anchor="middle" x="619" y="-63.5" font-family="Helvetica,sans-Serif" font-size="10.00">UI/ImGuiUtil.h</text>
</a>
</g>
</g>
<!-- Node1&#45;&gt;Node6 -->
<g id="edge32" class="edge">
<title>Node1&#45;&gt;Node6</title>
<path fill="none" stroke="midnightblue" d="M1807.7,-187.06C1550.65,-183.37 684.19,-168.28 638,-132 624.3,-121.24 620.09,-101.15 618.98,-86.14"/>
<polygon fill="midnightblue" stroke="midnightblue" points="622.47,-85.77 618.63,-75.89 615.47,-86.01 622.47,-85.77"/>
</g>
<!-- Node9 -->
<g id="node9" class="node">
<title>Node9</title>
<g id="a_node9"><a xlink:href="QuadPawn_8h.html" target="_top" xlink:title=" ">
<polygon fill="white" stroke="black" points="1757,-112.5 1757,-131.5 1867,-131.5 1867,-112.5 1757,-112.5"/>
<text text-anchor="middle" x="1812" y="-119.5" font-family="Helvetica,sans-Serif" font-size="10.00">Pawns/QuadPawn.h</text>
</a>
</g>
</g>
<!-- Node1&#45;&gt;Node9 -->
<g id="edge10" class="edge">
<title>Node1&#45;&gt;Node9</title>
<path fill="none" stroke="midnightblue" d="M1858.9,-168.5C1849.12,-159.01 1837.52,-147.76 1828.3,-138.81"/>
<polygon fill="midnightblue" stroke="midnightblue" points="1830.53,-136.1 1820.92,-131.65 1825.66,-141.13 1830.53,-136.1"/>
</g>
<!-- Node25 -->
<g id="node25" class="node">
<title>Node25</title>
<g id="a_node25"><a xlink:title=" ">
<polygon fill="white" stroke="#bfbfbf" points="2025,-112.5 2025,-131.5 2145,-131.5 2145,-112.5 2025,-112.5"/>
<text text-anchor="middle" x="2085" y="-119.5" font-family="Helvetica,sans-Serif" font-size="10.00">DrawDebugHelpers.h</text>
</a>
</g>
</g>
<!-- Node1&#45;&gt;Node25 -->
<g id="edge30" class="edge">
<title>Node1&#45;&gt;Node25</title>
<path fill="none" stroke="midnightblue" d="M1940.81,-168.5C1975.84,-157.44 2018.48,-143.99 2048.27,-134.59"/>
<polygon fill="midnightblue" stroke="midnightblue" points="2049.37,-137.91 2057.85,-131.57 2047.26,-131.24 2049.37,-137.91"/>
</g>
<!-- Node26 -->
<g id="node26" class="node">
<title>Node26</title>
<g id="a_node26"><a xlink:title=" ">
<polygon fill="white" stroke="#bfbfbf" points="2163.5,-112.5 2163.5,-131.5 2216.5,-131.5 2216.5,-112.5 2163.5,-112.5"/>
<text text-anchor="middle" x="2190" y="-119.5" font-family="Helvetica,sans-Serif" font-size="10.00">imgui.h</text>
</a>
</g>
</g>
<!-- Node1&#45;&gt;Node26 -->
<g id="edge31" class="edge">
<title>Node1&#45;&gt;Node26</title>
<path fill="none" stroke="midnightblue" d="M1950.12,-174.41C2003.36,-164.03 2078.22,-149.01 2153.2,-132.1"/>
<polygon fill="midnightblue" stroke="midnightblue" points="2154.32,-135.44 2163.29,-129.82 2152.77,-128.61 2154.32,-135.44"/>
</g>
<!-- Node27 -->
<g id="node27" class="node">
<title>Node27</title>
<g id="a_node27"><a xlink:href="DroneJSONConfig_8h.html" target="_top" xlink:title=" ">
<polygon fill="white" stroke="black" points="793.5,-112.5 793.5,-131.5 928.5,-131.5 928.5,-112.5 793.5,-112.5"/>
<text text-anchor="middle" x="861" y="-119.5" font-family="Helvetica,sans-Serif" font-size="10.00">Core/DroneJSONConfig.h</text>
</a>
</g>
</g>
<!-- Node1&#45;&gt;Node27 -->
<g id="edge33" class="edge">
<title>Node1&#45;&gt;Node27</title>
<path fill="none" stroke="midnightblue" d="M1807.82,-183.46C1623.2,-171.67 1130.05,-140.18 938.54,-127.95"/>
<polygon fill="midnightblue" stroke="midnightblue" points="938.76,-124.46 928.56,-127.31 938.31,-131.44 938.76,-124.46"/>
</g>
<!-- Node29 -->
<g id="node29" class="node">
<title>Node29</title>
<g id="a_node29"><a xlink:href="DroneManager_8h.html" target="_top" xlink:title=" ">
<polygon fill="white" stroke="black" points="1885,-112.5 1885,-131.5 2007,-131.5 2007,-112.5 1885,-112.5"/>
<text text-anchor="middle" x="1946" y="-119.5" font-family="Helvetica,sans-Serif" font-size="10.00">Core/DroneManager.h</text>
</a>
</g>
</g>
<!-- Node1&#45;&gt;Node29 -->
<g id="edge36" class="edge">
<title>Node1&#45;&gt;Node29</title>
<path fill="none" stroke="midnightblue" d="M1899.1,-168.5C1908.88,-159.01 1920.48,-147.76 1929.7,-138.81"/>
<polygon fill="midnightblue" stroke="midnightblue" points="1932.34,-141.13 1937.08,-131.65 1927.47,-136.1 1932.34,-141.13"/>
</g>
<!-- Node32 -->
<g id="node32" class="node">
<title>Node32</title>
<g id="a_node32"><a xlink:href="DroneMathUtils_8h.html" target="_top" xlink:title=" ">
<polygon fill="white" stroke="black" points="647,-112.5 647,-131.5 775,-131.5 775,-112.5 647,-112.5"/>
<text text-anchor="middle" x="711" y="-119.5" font-family="Helvetica,sans-Serif" font-size="10.00">Core/DroneMathUtils.h</text>
</a>
</g>
</g>
<!-- Node1&#45;&gt;Node32 -->
<g id="edge40" class="edge">
<title>Node1&#45;&gt;Node32</title>
<path fill="none" stroke="midnightblue" d="M1807.85,-186.08C1634.8,-181.04 1178,-165.5 785.29,-131.95"/>
<polygon fill="midnightblue" stroke="midnightblue" points="785.41,-128.45 775.15,-131.08 784.81,-135.42 785.41,-128.45"/>
</g>
<!-- Node33 -->
<g id="node33" class="node">
<title>Node33</title>
<g id="a_node33"><a xlink:title=" ">
<polygon fill="white" stroke="#bfbfbf" points="2235,-112.5 2235,-131.5 2381,-131.5 2381,-112.5 2235,-112.5"/>
<text text-anchor="middle" x="2308" y="-119.5" font-family="Helvetica,sans-Serif" font-size="10.00">Kismet/GameplayStatics.h</text>
</a>
</g>
</g>
<!-- Node1&#45;&gt;Node33 -->
<g id="edge42" class="edge">
<title>Node1&#45;&gt;Node33</title>
<path fill="none" stroke="midnightblue" d="M1950.32,-177.19C2031.27,-164.93 2162.28,-145.08 2241.27,-133.11"/>
<polygon fill="midnightblue" stroke="midnightblue" points="2242.23,-136.51 2251.59,-131.55 2241.18,-129.58 2242.23,-136.51"/>
</g>
<!-- Node34 -->
<g id="node34" class="node">
<title>Node34</title>
<g id="a_node34"><a xlink:title=" ">
<polygon fill="white" stroke="#bfbfbf" points="2399.5,-112.5 2399.5,-131.5 2538.5,-131.5 2538.5,-112.5 2399.5,-112.5"/>
<text text-anchor="middle" x="2469" y="-119.5" font-family="Helvetica,sans-Serif" font-size="10.00">Math/UnrealMathUtility.h</text>
</a>
</g>
</g>
<!-- Node1&#45;&gt;Node34 -->
<g id="edge43" class="edge">
<title>Node1&#45;&gt;Node34</title>
<path fill="none" stroke="midnightblue" d="M1950.1,-180.31C2046.8,-169.82 2225.49,-150.36 2388.97,-132.11"/>
<polygon fill="midnightblue" stroke="midnightblue" points="2389.67,-135.56 2399.21,-130.97 2388.89,-128.6 2389.67,-135.56"/>
</g>
<!-- Node3 -->
<g id="node3" class="node">
<title>Node3</title>
<g id="a_node3"><a xlink:title=" ">
<polygon fill="white" stroke="#bfbfbf" points="692,-0.5 692,-19.5 780,-19.5 780,-0.5 692,-0.5"/>
<text text-anchor="middle" x="736" y="-7.5" font-family="Helvetica,sans-Serif" font-size="10.00">CoreMinimal.h</text>
</a>
</g>
</g>
<!-- Node2&#45;&gt;Node3 -->
<g id="edge2" class="edge">
<title>Node2&#45;&gt;Node3</title>
<path fill="none" stroke="midnightblue" d="M422.73,-112.15C408.43,-98.79 385.88,-73.18 401,-56 440.72,-10.86 604.08,-27.48 681.49,-19.76"/>
<polygon fill="midnightblue" stroke="midnightblue" points="682.31,-23.19 691.82,-18.5 681.47,-16.24 682.31,-23.19"/>
</g>
<!-- Node4 -->
<g id="node4" class="node">
<title>Node4</title>
<g id="a_node4"><a xlink:href="QuadPIDController_8h.html" target="_top" xlink:title=" ">
<polygon fill="white" stroke="black" points="410,-56.5 410,-75.5 558,-75.5 558,-56.5 410,-56.5"/>
<text text-anchor="middle" x="484" y="-63.5" font-family="Helvetica,sans-Serif" font-size="10.00">Utility/QuadPIDController.h</text>
</a>
</g>
</g>
<!-- Node2&#45;&gt;Node4 -->
<g id="edge3" class="edge">
<title>Node2&#45;&gt;Node4</title>
<path fill="none" stroke="midnightblue" d="M441.42,-112.08C448.85,-104.22 459.85,-92.57 468.81,-83.08"/>
<polygon fill="midnightblue" stroke="midnightblue" points="471.41,-85.42 475.74,-75.75 466.32,-80.62 471.41,-85.42"/>
</g>
<!-- Node5 -->
<g id="node5" class="node">
<title>Node5</title>
<g id="a_node5"><a xlink:title=" ">
<polygon fill="white" stroke="#bfbfbf" points="198.5,-56.5 198.5,-75.5 353.5,-75.5 353.5,-56.5 198.5,-56.5"/>
<text text-anchor="middle" x="276" y="-63.5" font-family="Helvetica,sans-Serif" font-size="10.00">ROSFlightControllerSource.h</text>
</a>
</g>
</g>
<!-- Node2&#45;&gt;Node5 -->
<g id="edge5" class="edge">
<title>Node2&#45;&gt;Node5</title>
<path fill="none" stroke="midnightblue" d="M408.12,-112.44C381.71,-103.36 339.78,-88.94 310.26,-78.78"/>
<polygon fill="midnightblue" stroke="midnightblue" points="311.36,-75.46 300.76,-75.52 309.08,-82.08 311.36,-75.46"/>
</g>
<!-- Node2&#45;&gt;Node6 -->
<g id="edge6" class="edge">
<title>Node2&#45;&gt;Node6</title>
<path fill="none" stroke="midnightblue" d="M462.47,-112.44C494.17,-103.24 544.73,-88.56 579.77,-78.39"/>
<polygon fill="midnightblue" stroke="midnightblue" points="581.04,-81.67 589.67,-75.52 579.09,-74.94 581.04,-81.67"/>
</g>
<!-- Node8 -->
<g id="node8" class="node">
<title>Node8</title>
<g id="a_node8"><a xlink:title=" ">
<polygon fill="white" stroke="#bfbfbf" points="0,-56.5 0,-75.5 180,-75.5 180,-56.5 0,-56.5"/>
<text text-anchor="middle" x="90" y="-63.5" font-family="Helvetica,sans-Serif" font-size="10.00">QuadDroneController.generated.h</text>
</a>
</g>
</g>
<!-- Node2&#45;&gt;Node8 -->
<g id="edge9" class="edge">
<title>Node2&#45;&gt;Node8</title>
<path fill="none" stroke="midnightblue" d="M378.65,-112.44C317.69,-102.85 218.89,-87.29 154.18,-77.1"/>
<polygon fill="midnightblue" stroke="midnightblue" points="154.52,-73.61 144.1,-75.52 153.43,-80.53 154.52,-73.61"/>
</g>
<!-- Node4&#45;&gt;Node3 -->
<g id="edge4" class="edge">
<title>Node4&#45;&gt;Node3</title>
<path fill="none" stroke="midnightblue" d="M523.93,-56.44C567.89,-47.02 638.63,-31.87 686.18,-21.68"/>
<polygon fill="midnightblue" stroke="midnightblue" points="687.21,-25.03 696.26,-19.52 685.75,-18.19 687.21,-25.03"/>
</g>
<!-- Node6&#45;&gt;Node3 -->
<g id="edge7" class="edge">
<title>Node6&#45;&gt;Node3</title>
<path fill="none" stroke="midnightblue" d="M637.54,-56.44C656.62,-47.64 686.57,-33.81 708.44,-23.72"/>
<polygon fill="midnightblue" stroke="midnightblue" points="709.93,-26.88 717.55,-19.52 707,-20.53 709.93,-26.88"/>
</g>
<!-- Node7 -->
<g id="node7" class="node">
<title>Node7</title>
<g id="a_node7"><a xlink:title=" ">
<polygon fill="white" stroke="#bfbfbf" points="548.5,-0.5 548.5,-19.5 673.5,-19.5 673.5,-0.5 548.5,-0.5"/>
<text text-anchor="middle" x="611" y="-7.5" font-family="Helvetica,sans-Serif" font-size="10.00">ImGuiUtil.generated.h</text>
</a>
</g>
</g>
<!-- Node6&#45;&gt;Node7 -->
<g id="edge8" class="edge">
<title>Node6&#45;&gt;Node7</title>
<path fill="none" stroke="midnightblue" d="M617.68,-56.08C616.62,-48.93 615.09,-38.64 613.77,-29.69"/>
<polygon fill="midnightblue" stroke="midnightblue" points="617.22,-29.13 612.3,-19.75 610.3,-30.16 617.22,-29.13"/>
</g>
<!-- Node9&#45;&gt;Node3 -->
<g id="edge11" class="edge">
<title>Node9&#45;&gt;Node3</title>
<path fill="none" stroke="midnightblue" d="M1806.25,-112.23C1795.99,-97.47 1772.97,-68.07 1745,-56 1657.27,-18.14 987.42,-12.13 790.36,-11.18"/>
<polygon fill="midnightblue" stroke="midnightblue" points="790.26,-7.68 780.25,-11.13 790.23,-14.68 790.26,-7.68"/>
</g>
<!-- Node9&#45;&gt;Node6 -->
<g id="edge23" class="edge">
<title>Node9&#45;&gt;Node6</title>
<path fill="none" stroke="midnightblue" d="M1756.82,-119.21C1599.2,-113.99 1133.4,-97.74 747,-76 722.5,-74.62 695.4,-72.76 672.45,-71.09"/>
<polygon fill="midnightblue" stroke="midnightblue" points="672.46,-67.58 662.23,-70.34 671.95,-74.57 672.46,-67.58"/>
</g>
<!-- Node10 -->
<g id="node10" class="node">
<title>Node10</title>
<g id="a_node10"><a xlink:title=" ">
<polygon fill="white" stroke="#bfbfbf" points="1792,-56.5 1792,-75.5 1930,-75.5 1930,-56.5 1792,-56.5"/>
<text text-anchor="middle" x="1861" y="-63.5" font-family="Helvetica,sans-Serif" font-size="10.00">GameFramework/Pawn.h</text>
</a>
</g>
</g>
<!-- Node9&#45;&gt;Node10 -->
<g id="edge12" class="edge">
<title>Node9&#45;&gt;Node10</title>
<path fill="none" stroke="midnightblue" d="M1820.09,-112.08C1827.16,-104.3 1837.59,-92.8 1846.15,-83.37"/>
<polygon fill="midnightblue" stroke="midnightblue" points="1848.93,-85.51 1853.06,-75.75 1843.75,-80.8 1848.93,-85.51"/>
</g>
<!-- Node11 -->
<g id="node11" class="node">
<title>Node11</title>
<g id="a_node11"><a xlink:title=" ">
<polygon fill="white" stroke="#bfbfbf" points="1948.5,-56.5 1948.5,-75.5 2109.5,-75.5 2109.5,-56.5 1948.5,-56.5"/>
<text text-anchor="middle" x="2029" y="-63.5" font-family="Helvetica,sans-Serif" font-size="10.00">Camera/CameraComponent.h</text>
</a>
</g>
</g>
<!-- Node9&#45;&gt;Node11 -->
<g id="edge13" class="edge">
<title>Node9&#45;&gt;Node11</title>
<path fill="none" stroke="midnightblue" d="M1846.38,-112.44C1883.92,-103.1 1944.13,-88.12 1985.07,-77.93"/>
<polygon fill="midnightblue" stroke="midnightblue" points="1985.92,-81.33 1994.78,-75.52 1984.23,-74.53 1985.92,-81.33"/>
</g>
<!-- Node12 -->
<g id="node12" class="node">
<title>Node12</title>
<g id="a_node12"><a xlink:title=" ">
<polygon fill="white" stroke="#bfbfbf" points="2128,-56.5 2128,-75.5 2348,-75.5 2348,-56.5 2128,-56.5"/>
<text text-anchor="middle" x="2238" y="-63.5" font-family="Helvetica,sans-Serif" font-size="10.00">GameFramework/SpringArmComponent.h</text>
</a>
</g>
</g>
<!-- Node9&#45;&gt;Node12 -->
<g id="edge14" class="edge">
<title>Node9&#45;&gt;Node12</title>
<path fill="none" stroke="midnightblue" d="M1867.15,-113.19C1870.14,-112.78 1873.11,-112.38 1876,-112 1972.39,-99.23 2083.36,-85.59 2156.76,-76.72"/>
<polygon fill="midnightblue" stroke="midnightblue" points="2157.36,-80.17 2166.86,-75.5 2156.52,-73.23 2157.36,-80.17"/>
</g>
<!-- Node13 -->
<g id="node13" class="node">
<title>Node13</title>
<g id="a_node13"><a xlink:href="ThrusterComponent_8h.html" target="_top" xlink:title=" ">
<polygon fill="white" stroke="black" points="2838,-56.5 2838,-75.5 2986,-75.5 2986,-56.5 2838,-56.5"/>
<text text-anchor="middle" x="2912" y="-63.5" font-family="Helvetica,sans-Serif" font-size="10.00">Core/ThrusterComponent.h</text>
</a>
</g>
</g>
<!-- Node9&#45;&gt;Node13 -->
<g id="edge15" class="edge">
<title>Node9&#45;&gt;Node13</title>
<path fill="none" stroke="midnightblue" d="M1867.12,-112.89C1870.12,-112.56 1873.09,-112.26 1876,-112 2281.35,-75.62 2384.67,-99.1 2791,-76 2802.83,-75.33 2815.3,-74.52 2827.57,-73.66"/>
<polygon fill="midnightblue" stroke="midnightblue" points="2828.07,-77.13 2837.8,-72.93 2827.57,-70.15 2828.07,-77.13"/>
</g>
<!-- Node16 -->
<g id="node16" class="node">
<title>Node16</title>
<g id="a_node16"><a xlink:href="NavigationComponent_8h.html" target="_top" xlink:title=" ">
<polygon fill="white" stroke="black" points="3004,-56.5 3004,-75.5 3172,-75.5 3172,-56.5 3004,-56.5"/>
<text text-anchor="middle" x="3088" y="-63.5" font-family="Helvetica,sans-Serif" font-size="10.00">Utility/NavigationComponent.h</text>
</a>
</g>
</g>
<!-- Node9&#45;&gt;Node16 -->
<g id="edge19" class="edge">
<title>Node9&#45;&gt;Node16</title>
<path fill="none" stroke="midnightblue" d="M1867.12,-112.87C1870.12,-112.54 1873.09,-112.25 1876,-112 2368.37,-69.58 2496.69,-107.46 2993.56,-76.04"/>
<polygon fill="midnightblue" stroke="midnightblue" points="2994.11,-79.52 3003.87,-75.39 2993.67,-72.53 2994.11,-79.52"/>
</g>
<!-- Node19 -->
<g id="node19" class="node">
<title>Node19</title>
<g id="a_node19"><a xlink:title=" ">
<polygon fill="white" stroke="#bfbfbf" points="2366.5,-56.5 2366.5,-75.5 2563.5,-75.5 2563.5,-56.5 2366.5,-56.5"/>
<text text-anchor="middle" x="2465" y="-63.5" font-family="Helvetica,sans-Serif" font-size="10.00">Components/ChildActorComponent.h</text>
</a>
</g>
</g>
<!-- Node9&#45;&gt;Node19 -->
<g id="edge24" class="edge">
<title>Node9&#45;&gt;Node19</title>
<path fill="none" stroke="midnightblue" d="M1867.13,-113.02C1870.13,-112.65 1873.1,-112.31 1876,-112 2085.92,-89.41 2141.62,-92.79 2356.4,-76.04"/>
<polygon fill="midnightblue" stroke="midnightblue" points="2356.72,-79.52 2366.41,-75.25 2356.17,-72.54 2356.72,-79.52"/>
</g>
<!-- Node20 -->
<g id="node20" class="node">
<title>Node20</title>
<g id="a_node20"><a xlink:title=" ">
<polygon fill="white" stroke="#bfbfbf" points="2582,-56.5 2582,-75.5 2782,-75.5 2782,-56.5 2582,-56.5"/>
<text text-anchor="middle" x="2682" y="-63.5" font-family="Helvetica,sans-Serif" font-size="10.00">Components/StaticMeshComponent.h</text>
</a>
</g>
</g>
<!-- Node9&#45;&gt;Node20 -->
<g id="edge25" class="edge">
<title>Node9&#45;&gt;Node20</title>
<path fill="none" stroke="midnightblue" d="M1867.12,-112.93C1870.12,-112.59 1873.1,-112.28 1876,-112 2181.46,-82.69 2261.79,-96.46 2571.75,-76.06"/>
<polygon fill="midnightblue" stroke="midnightblue" points="2572.18,-79.54 2581.93,-75.38 2571.72,-72.55 2572.18,-79.54"/>
</g>
<!-- Node21 -->
<g id="node21" class="node">
<title>Node21</title>
<g id="a_node21"><a xlink:title=" ">
<polygon fill="white" stroke="#bfbfbf" points="936,-56.5 936,-75.5 1148,-75.5 1148,-56.5 936,-56.5"/>
<text text-anchor="middle" x="1042" y="-63.5" font-family="Helvetica,sans-Serif" font-size="10.00">Components/SkeletalMeshComponent.h</text>
</a>
</g>
</g>
<!-- Node9&#45;&gt;Node21 -->
<g id="edge26" class="edge">
<title>Node9&#45;&gt;Node21</title>
<path fill="none" stroke="midnightblue" d="M1756.87,-117.37C1645.94,-110.03 1387.62,-92.76 1158.4,-76.02"/>
<polygon fill="midnightblue" stroke="midnightblue" points="1158.43,-72.52 1148.2,-75.28 1157.92,-79.5 1158.43,-72.52"/>
</g>
<!-- Node22 -->
<g id="node22" class="node">
<title>Node22</title>
<g id="a_node22"><a xlink:title=" ">
<polygon fill="white" stroke="#bfbfbf" points="1166.5,-56.5 1166.5,-75.5 1393.5,-75.5 1393.5,-56.5 1166.5,-56.5"/>
<text text-anchor="middle" x="1280" y="-63.5" font-family="Helvetica,sans-Serif" font-size="10.00">Components/SceneCaptureComponent2D.h</text>
</a>
</g>
</g>
<!-- Node9&#45;&gt;Node22 -->
<g id="edge27" class="edge">
<title>Node9&#45;&gt;Node22</title>
<path fill="none" stroke="midnightblue" d="M1756.82,-115.4C1666.35,-106.22 1485.44,-87.85 1374.32,-76.57"/>
<polygon fill="midnightblue" stroke="midnightblue" points="1374.42,-73.07 1364.12,-75.54 1373.71,-80.03 1374.42,-73.07"/>
</g>
<!-- Node23 -->
<g id="node23" class="node">
<title>Node23</title>
<g id="a_node23"><a xlink:title=" ">
<polygon fill="white" stroke="#bfbfbf" points="1412,-56.5 1412,-75.5 1588,-75.5 1588,-56.5 1412,-56.5"/>
<text text-anchor="middle" x="1500" y="-63.5" font-family="Helvetica,sans-Serif" font-size="10.00">Engine/TextureRenderTarget2D.h</text>
</a>
</g>
</g>
<!-- Node9&#45;&gt;Node23 -->
<g id="edge28" class="edge">
<title>Node9&#45;&gt;Node23</title>
<path fill="none" stroke="midnightblue" d="M1762.56,-112.44C1707.34,-102.89 1617.98,-87.42 1559.11,-77.23"/>
<polygon fill="midnightblue" stroke="midnightblue" points="1559.66,-73.77 1549.21,-75.52 1558.46,-80.67 1559.66,-73.77"/>
</g>
<!-- Node24 -->
<g id="node24" class="node">
<title>Node24</title>
<g id="a_node24"><a xlink:title=" ">
<polygon fill="white" stroke="#bfbfbf" points="1606.5,-56.5 1606.5,-75.5 1735.5,-75.5 1735.5,-56.5 1606.5,-56.5"/>
<text text-anchor="middle" x="1671" y="-63.5" font-family="Helvetica,sans-Serif" font-size="10.00">QuadPawn.generated.h</text>
</a>
</g>
</g>
<!-- Node9&#45;&gt;Node24 -->
<g id="edge29" class="edge">
<title>Node9&#45;&gt;Node24</title>
<path fill="none" stroke="midnightblue" d="M1789.66,-112.44C1766.25,-103.48 1729.26,-89.31 1702.81,-79.18"/>
<polygon fill="midnightblue" stroke="midnightblue" points="1703.83,-75.82 1693.24,-75.52 1701.32,-82.36 1703.83,-75.82"/>
</g>
<!-- Node13&#45;&gt;Node3 -->
<g id="edge16" class="edge">
<title>Node13&#45;&gt;Node3</title>
<path fill="none" stroke="midnightblue" d="M2837.62,-56.97C2833.01,-56.6 2828.45,-56.27 2824,-56 2411.34,-30.49 1076.86,-14.72 790.45,-11.58"/>
<polygon fill="midnightblue" stroke="midnightblue" points="790.35,-8.08 780.32,-11.47 790.28,-15.08 790.35,-8.08"/>
</g>
<!-- Node14 -->
<g id="node14" class="node">
<title>Node14</title>
<g id="a_node14"><a xlink:title=" ">
<polygon fill="white" stroke="#bfbfbf" points="2622,-0.5 2622,-19.5 2798,-19.5 2798,-0.5 2622,-0.5"/>
<text text-anchor="middle" x="2710" y="-7.5" font-family="Helvetica,sans-Serif" font-size="10.00">Components/SceneComponent.h</text>
</a>
</g>
</g>
<!-- Node13&#45;&gt;Node14 -->
<g id="edge17" class="edge">
<title>Node13&#45;&gt;Node14</title>
<path fill="none" stroke="midnightblue" d="M2879.99,-56.44C2845.27,-47.16 2789.71,-32.31 2751.62,-22.13"/>
<polygon fill="midnightblue" stroke="midnightblue" points="2752.42,-18.72 2741.86,-19.52 2750.61,-25.48 2752.42,-18.72"/>
</g>
<!-- Node15 -->
<g id="node15" class="node">
<title>Node15</title>
<g id="a_node15"><a xlink:title=" ">
<polygon fill="white" stroke="#bfbfbf" points="2816.5,-0.5 2816.5,-19.5 2991.5,-19.5 2991.5,-0.5 2816.5,-0.5"/>
<text text-anchor="middle" x="2904" y="-7.5" font-family="Helvetica,sans-Serif" font-size="10.00">ThrusterComponent.generated.h</text>
</a>
</g>
</g>
<!-- Node13&#45;&gt;Node15 -->
<g id="edge18" class="edge">
<title>Node13&#45;&gt;Node15</title>
<path fill="none" stroke="midnightblue" d="M2910.68,-56.08C2909.62,-48.93 2908.09,-38.64 2906.77,-29.69"/>
<polygon fill="midnightblue" stroke="midnightblue" points="2910.22,-29.13 2905.3,-19.75 2903.3,-30.16 2910.22,-29.13"/>
</g>
<!-- Node16&#45;&gt;Node3 -->
<g id="edge20" class="edge">
<title>Node16&#45;&gt;Node3</title>
<path fill="none" stroke="midnightblue" d="M3003.87,-56.57C3000.88,-56.36 2997.91,-56.17 2995,-56 2546.31,-29.86 1090.8,-14.46 790.5,-11.52"/>
<polygon fill="midnightblue" stroke="midnightblue" points="790.34,-8.02 780.31,-11.42 790.27,-15.02 790.34,-8.02"/>
</g>
<!-- Node17 -->
<g id="node17" class="node">
<title>Node17</title>
<g id="a_node17"><a xlink:title=" ">
<polygon fill="white" stroke="#bfbfbf" points="3010,-0.5 3010,-19.5 3182,-19.5 3182,-0.5 3010,-0.5"/>
<text text-anchor="middle" x="3096" y="-7.5" font-family="Helvetica,sans-Serif" font-size="10.00">Components/ActorComponent.h</text>
</a>
</g>
</g>
<!-- Node16&#45;&gt;Node17 -->
<g id="edge21" class="edge">
<title>Node16&#45;&gt;Node17</title>
<path fill="none" stroke="midnightblue" d="M3089.32,-56.08C3090.38,-48.93 3091.91,-38.64 3093.23,-29.69"/>
<polygon fill="midnightblue" stroke="midnightblue" points="3096.7,-30.16 3094.7,-19.75 3089.78,-29.13 3096.7,-30.16"/>
</g>
<!-- Node18 -->
<g id="node18" class="node">
<title>Node18</title>
<g id="a_node18"><a xlink:title=" ">
<polygon fill="white" stroke="#bfbfbf" points="3200,-0.5 3200,-19.5 3388,-19.5 3388,-0.5 3200,-0.5"/>
<text text-anchor="middle" x="3294" y="-7.5" font-family="Helvetica,sans-Serif" font-size="10.00">NavigationComponent.generated.h</text>
</a>
</g>
</g>
<!-- Node16&#45;&gt;Node18 -->
<g id="edge22" class="edge">
<title>Node16&#45;&gt;Node18</title>
<path fill="none" stroke="midnightblue" d="M3120.64,-56.44C3156.05,-47.16 3212.71,-32.31 3251.55,-22.13"/>
<polygon fill="midnightblue" stroke="midnightblue" points="3252.73,-25.44 3261.51,-19.52 3250.95,-18.67 3252.73,-25.44"/>
</g>
<!-- Node27&#45;&gt;Node3 -->
<g id="edge34" class="edge">
<title>Node27&#45;&gt;Node3</title>
<path fill="none" stroke="midnightblue" d="M809.66,-112.47C787.19,-106.11 762.48,-95.09 747,-76 736.54,-63.09 734.4,-43.92 734.52,-29.74"/>
<polygon fill="midnightblue" stroke="midnightblue" points="738.02,-29.8 734.97,-19.65 731.02,-29.48 738.02,-29.8"/>
</g>
<!-- Node28 -->
<g id="node28" class="node">
<title>Node28</title>
<g id="a_node28"><a xlink:title=" ">
<polygon fill="white" stroke="#bfbfbf" points="756,-56.5 756,-75.5 918,-75.5 918,-56.5 756,-56.5"/>
<text text-anchor="middle" x="837" y="-63.5" font-family="Helvetica,sans-Serif" font-size="10.00">DroneJSONConfig.generated.h</text>
</a>
</g>
</g>
<!-- Node27&#45;&gt;Node28 -->
<g id="edge35" class="edge">
<title>Node27&#45;&gt;Node28</title>
<path fill="none" stroke="midnightblue" d="M857.04,-112.08C853.79,-104.77 849.08,-94.18 845.05,-85.1"/>
<polygon fill="midnightblue" stroke="midnightblue" points="848.15,-83.47 840.89,-75.75 841.75,-86.31 848.15,-83.47"/>
</g>
<!-- Node29&#45;&gt;Node3 -->
<g id="edge37" class="edge">
<title>Node29&#45;&gt;Node3</title>
<path fill="none" stroke="midnightblue" d="M2007.05,-112.85C2010.08,-112.54 2013.07,-112.26 2016,-112 2058.94,-108.25 2761.24,-107.18 2791,-76 2797.14,-69.57 2797.22,-62.35 2791,-56 2754.99,-19.19 1112.61,-12.18 790.49,-11.15"/>
<polygon fill="midnightblue" stroke="midnightblue" points="790.47,-7.65 780.46,-11.12 790.45,-14.65 790.47,-7.65"/>
</g>
<!-- Node30 -->
<g id="node30" class="node">
<title>Node30</title>
<g id="a_node30"><a xlink:title=" ">
<polygon fill="white" stroke="#bfbfbf" points="3356.5,-56.5 3356.5,-75.5 3493.5,-75.5 3493.5,-56.5 3356.5,-56.5"/>
<text text-anchor="middle" x="3425" y="-63.5" font-family="Helvetica,sans-Serif" font-size="10.00">GameFramework/Actor.h</text>
</a>
</g>
</g>
<!-- Node29&#45;&gt;Node30 -->
<g id="edge38" class="edge">
<title>Node29&#45;&gt;Node30</title>
<path fill="none" stroke="midnightblue" d="M2007.05,-112.78C2010.07,-112.49 2013.07,-112.23 2016,-112 2603.13,-66.44 2755.6,-117.83 3346.14,-76.07"/>
<polygon fill="midnightblue" stroke="midnightblue" points="3346.46,-79.55 3356.18,-75.35 3345.96,-72.57 3346.46,-79.55"/>
</g>
<!-- Node31 -->
<g id="node31" class="node">
<title>Node31</title>
<g id="a_node31"><a xlink:title=" ">
<polygon fill="white" stroke="#bfbfbf" points="3189.5,-56.5 3189.5,-75.5 3338.5,-75.5 3338.5,-56.5 3189.5,-56.5"/>
<text text-anchor="middle" x="3264" y="-63.5" font-family="Helvetica,sans-Serif" font-size="10.00">DroneManager.generated.h</text>
</a>
</g>
</g>
<!-- Node29&#45;&gt;Node31 -->
<g id="edge39" class="edge">
<title>Node29&#45;&gt;Node31</title>
<path fill="none" stroke="midnightblue" d="M2007.05,-112.8C2010.07,-112.5 2013.07,-112.23 2016,-112 2528.99,-71.19 2662.47,-111.41 3179.03,-76.08"/>
<polygon fill="midnightblue" stroke="midnightblue" points="3179.63,-79.55 3189.37,-75.37 3179.15,-72.56 3179.63,-79.55"/>
</g>
<!-- Node32&#45;&gt;Node3 -->
<g id="edge41" class="edge">
<title>Node32&#45;&gt;Node3</title>
<path fill="none" stroke="midnightblue" d="M710.3,-112.42C709.52,-99.83 708.96,-75.7 714,-56 716.45,-46.42 721.07,-36.47 725.44,-28.36"/>
<polygon fill="midnightblue" stroke="midnightblue" points="728.56,-29.97 730.49,-19.55 722.48,-26.49 728.56,-29.97"/>
</g>
</g>
</svg>
