<?xml version="1.0" encoding="UTF-8" standalone="no"?>
<!DOCTYPE svg PUBLIC "-//W3C//DTD SVG 1.1//EN"
 "http://www.w3.org/Graphics/SVG/1.1/DTD/svg11.dtd">
<!-- Generated by graphviz version 2.43.0 (0)
 -->
<!-- Title: Source/QuadSimCore/Public/Controllers/ROS2Controller.h Pages: 1 -->
<svg width="3192pt" height="106pt"
 viewBox="0.00 0.00 3192.00 106.00" xmlns="http://www.w3.org/2000/svg" xmlns:xlink="http://www.w3.org/1999/xlink">
<g id="graph0" class="graph" transform="scale(1 1) rotate(0) translate(4 102)">
<title>Source/QuadSimCore/Public/Controllers/ROS2Controller.h</title>
<polygon fill="white" stroke="transparent" points="-4,4 -4,-102 3188,-102 3188,4 -4,4"/>
<!-- Node1 -->
<g id="node1" class="node">
<title>Node1</title>
<g id="a_node1"><a xlink:title=" ">
<polygon fill="#bfbfbf" stroke="black" points="1576.5,-56.5 1576.5,-97.5 1695.5,-97.5 1695.5,-56.5 1576.5,-56.5"/>
<text text-anchor="start" x="1584.5" y="-85.5" font-family="Helvetica,sans-Serif" font-size="10.00">Source/QuadSimCore</text>
<text text-anchor="start" x="1584.5" y="-74.5" font-family="Helvetica,sans-Serif" font-size="10.00">/Public/Controllers</text>
<text text-anchor="middle" x="1636" y="-63.5" font-family="Helvetica,sans-Serif" font-size="10.00">/ROS2Controller.h</text>
</a>
</g>
</g>
<!-- Node2 -->
<g id="node2" class="node">
<title>Node2</title>
<g id="a_node2"><a xlink:title=" ">
<polygon fill="white" stroke="#bfbfbf" points="0,-0.5 0,-19.5 88,-19.5 88,-0.5 0,-0.5"/>
<text text-anchor="middle" x="44" y="-7.5" font-family="Helvetica,sans-Serif" font-size="10.00">CoreMinimal.h</text>
</a>
</g>
</g>
<!-- Node1&#45;&gt;Node2 -->
<g id="edge1" class="edge">
<title>Node1&#45;&gt;Node2</title>
<path fill="none" stroke="midnightblue" d="M1576.15,-74.88C1332.24,-70.15 411.79,-50.68 98.19,-19.96"/>
<polygon fill="midnightblue" stroke="midnightblue" points="98.49,-16.47 88.19,-18.95 97.79,-23.43 98.49,-16.47"/>
</g>
<!-- Node3 -->
<g id="node3" class="node">
<title>Node3</title>
<g id="a_node3"><a xlink:title=" ">
<polygon fill="white" stroke="#bfbfbf" points="106.5,-0.5 106.5,-19.5 243.5,-19.5 243.5,-0.5 106.5,-0.5"/>
<text text-anchor="middle" x="175" y="-7.5" font-family="Helvetica,sans-Serif" font-size="10.00">GameFramework/Actor.h</text>
</a>
</g>
</g>
<!-- Node1&#45;&gt;Node3 -->
<g id="edge2" class="edge">
<title>Node1&#45;&gt;Node3</title>
<path fill="none" stroke="midnightblue" d="M1576.26,-75.17C1385.29,-72.17 772.35,-59.95 254.18,-20.03"/>
<polygon fill="midnightblue" stroke="midnightblue" points="254.12,-16.51 243.88,-19.23 253.58,-23.49 254.12,-16.51"/>
</g>
<!-- Node4 -->
<g id="node4" class="node">
<title>Node4</title>
<g id="a_node4"><a xlink:title=" ">
<polygon fill="white" stroke="#bfbfbf" points="262,-0.5 262,-19.5 396,-19.5 396,-0.5 262,-0.5"/>
<text text-anchor="middle" x="329" y="-7.5" font-family="Helvetica,sans-Serif" font-size="10.00">ROS2NodeComponent.h</text>
</a>
</g>
</g>
<!-- Node1&#45;&gt;Node4 -->
<g id="edge3" class="edge">
<title>Node1&#45;&gt;Node4</title>
<path fill="none" stroke="midnightblue" d="M1576.33,-74.82C1399.45,-70.98 862.31,-56.99 406.19,-20.04"/>
<polygon fill="midnightblue" stroke="midnightblue" points="406.36,-16.54 396.11,-19.21 405.79,-23.52 406.36,-16.54"/>
</g>
<!-- Node5 -->
<g id="node5" class="node">
<title>Node5</title>
<g id="a_node5"><a xlink:title=" ">
<polygon fill="white" stroke="#bfbfbf" points="414,-0.5 414,-19.5 510,-19.5 510,-0.5 414,-0.5"/>
<text text-anchor="middle" x="462" y="-7.5" font-family="Helvetica,sans-Serif" font-size="10.00">ROS2Publisher.h</text>
</a>
</g>
</g>
<!-- Node1&#45;&gt;Node5 -->
<g id="edge4" class="edge">
<title>Node1&#45;&gt;Node5</title>
<path fill="none" stroke="midnightblue" d="M1576.49,-75.25C1410.72,-72.67 929.52,-61.94 520.12,-20"/>
<polygon fill="midnightblue" stroke="midnightblue" points="520.46,-16.52 510.15,-18.97 519.74,-23.48 520.46,-16.52"/>
</g>
<!-- Node6 -->
<g id="node6" class="node">
<title>Node6</title>
<g id="a_node6"><a xlink:title=" ">
<polygon fill="white" stroke="#bfbfbf" points="528,-0.5 528,-19.5 630,-19.5 630,-0.5 528,-0.5"/>
<text text-anchor="middle" x="579" y="-7.5" font-family="Helvetica,sans-Serif" font-size="10.00">ROS2Subscriber.h</text>
</a>
</g>
</g>
<!-- Node1&#45;&gt;Node6 -->
<g id="edge5" class="edge">
<title>Node1&#45;&gt;Node6</title>
<path fill="none" stroke="midnightblue" d="M1576.29,-74.58C1422.71,-70.51 1001.31,-56.71 640.15,-20.02"/>
<polygon fill="midnightblue" stroke="midnightblue" points="640.33,-16.52 630.02,-18.98 639.61,-23.48 640.33,-16.52"/>
</g>
<!-- Node7 -->
<g id="node7" class="node">
<title>Node7</title>
<g id="a_node7"><a xlink:title=" ">
<polygon fill="white" stroke="#bfbfbf" points="648.5,-0.5 648.5,-19.5 875.5,-19.5 875.5,-0.5 648.5,-0.5"/>
<text text-anchor="middle" x="762" y="-7.5" font-family="Helvetica,sans-Serif" font-size="10.00">Components/SceneCaptureComponent2D.h</text>
</a>
</g>
</g>
<!-- Node1&#45;&gt;Node7 -->
<g id="edge6" class="edge">
<title>Node1&#45;&gt;Node7</title>
<path fill="none" stroke="midnightblue" d="M1576.27,-71.56C1434.74,-61.03 1076.58,-34.4 885.89,-20.21"/>
<polygon fill="midnightblue" stroke="midnightblue" points="886.05,-16.72 875.82,-19.47 885.54,-23.7 886.05,-16.72"/>
</g>
<!-- Node8 -->
<g id="node8" class="node">
<title>Node8</title>
<g id="a_node8"><a xlink:title=" ">
<polygon fill="white" stroke="#bfbfbf" points="894,-0.5 894,-19.5 1070,-19.5 1070,-0.5 894,-0.5"/>
<text text-anchor="middle" x="982" y="-7.5" font-family="Helvetica,sans-Serif" font-size="10.00">Engine/TextureRenderTarget2D.h</text>
</a>
</g>
</g>
<!-- Node1&#45;&gt;Node8 -->
<g id="edge7" class="edge">
<title>Node1&#45;&gt;Node8</title>
<path fill="none" stroke="midnightblue" d="M1576.23,-70.06C1462.64,-58.77 1214.73,-34.13 1077.74,-20.52"/>
<polygon fill="midnightblue" stroke="midnightblue" points="1077.96,-17.02 1067.67,-19.51 1077.27,-23.99 1077.96,-17.02"/>
</g>
<!-- Node9 -->
<g id="node9" class="node">
<title>Node9</title>
<g id="a_node9"><a xlink:title=" ">
<polygon fill="white" stroke="#bfbfbf" points="1088.5,-0.5 1088.5,-19.5 1193.5,-19.5 1193.5,-0.5 1088.5,-0.5"/>
<text text-anchor="middle" x="1141" y="-7.5" font-family="Helvetica,sans-Serif" font-size="10.00">Msgs/ROS2Point.h</text>
</a>
</g>
</g>
<!-- Node1&#45;&gt;Node9 -->
<g id="edge8" class="edge">
<title>Node1&#45;&gt;Node9</title>
<path fill="none" stroke="midnightblue" d="M1576.28,-68.64C1494.53,-58.49 1342.9,-39.39 1203.57,-20.2"/>
<polygon fill="midnightblue" stroke="midnightblue" points="1203.95,-16.72 1193.56,-18.82 1202.99,-23.65 1203.95,-16.72"/>
</g>
<!-- Node10 -->
<g id="node10" class="node">
<title>Node10</title>
<g id="a_node10"><a xlink:title=" ">
<polygon fill="white" stroke="#bfbfbf" points="1211.5,-0.5 1211.5,-19.5 1310.5,-19.5 1310.5,-0.5 1211.5,-0.5"/>
<text text-anchor="middle" x="1261" y="-7.5" font-family="Helvetica,sans-Serif" font-size="10.00">Msgs/ROS2Img.h</text>
</a>
</g>
</g>
<!-- Node1&#45;&gt;Node10 -->
<g id="edge9" class="edge">
<title>Node1&#45;&gt;Node10</title>
<path fill="none" stroke="midnightblue" d="M1576.17,-65.63C1505.9,-53.45 1390.09,-33.38 1320.13,-21.25"/>
<polygon fill="midnightblue" stroke="midnightblue" points="1320.61,-17.78 1310.16,-19.52 1319.41,-24.68 1320.61,-17.78"/>
</g>
<!-- Node11 -->
<g id="node11" class="node">
<title>Node11</title>
<g id="a_node11"><a xlink:title=" ">
<polygon fill="white" stroke="#bfbfbf" points="1328.5,-0.5 1328.5,-19.5 1445.5,-19.5 1445.5,-0.5 1328.5,-0.5"/>
<text text-anchor="middle" x="1387" y="-7.5" font-family="Helvetica,sans-Serif" font-size="10.00">Msgs/ROS2Float64.h</text>
</a>
</g>
</g>
<!-- Node1&#45;&gt;Node11 -->
<g id="edge10" class="edge">
<title>Node1&#45;&gt;Node11</title>
<path fill="none" stroke="midnightblue" d="M1576.36,-60.43C1531.13,-48.62 1470.06,-32.68 1429.65,-22.13"/>
<polygon fill="midnightblue" stroke="midnightblue" points="1430.4,-18.71 1419.84,-19.57 1428.63,-25.48 1430.4,-18.71"/>
</g>
<!-- Node12 -->
<g id="node12" class="node">
<title>Node12</title>
<g id="a_node12"><a xlink:title=" ">
<polygon fill="white" stroke="#bfbfbf" points="1463.5,-0.5 1463.5,-19.5 1568.5,-19.5 1568.5,-0.5 1463.5,-0.5"/>
<text text-anchor="middle" x="1516" y="-7.5" font-family="Helvetica,sans-Serif" font-size="10.00">Msgs/ROS2Twist.h</text>
</a>
</g>
</g>
<!-- Node1&#45;&gt;Node12 -->
<g id="edge11" class="edge">
<title>Node1&#45;&gt;Node12</title>
<path fill="none" stroke="midnightblue" d="M1600,-56.5C1580.89,-46.15 1557.9,-33.69 1540.8,-24.43"/>
<polygon fill="midnightblue" stroke="midnightblue" points="1542.43,-21.34 1531.97,-19.65 1539.1,-27.49 1542.43,-21.34"/>
</g>
<!-- Node13 -->
<g id="node13" class="node">
<title>Node13</title>
<g id="a_node13"><a xlink:title=" ">
<polygon fill="white" stroke="#bfbfbf" points="1586.5,-0.5 1586.5,-19.5 1685.5,-19.5 1685.5,-0.5 1586.5,-0.5"/>
<text text-anchor="middle" x="1636" y="-7.5" font-family="Helvetica,sans-Serif" font-size="10.00">Msgs/ROS2Imu.h</text>
</a>
</g>
</g>
<!-- Node1&#45;&gt;Node13 -->
<g id="edge12" class="edge">
<title>Node1&#45;&gt;Node13</title>
<path fill="none" stroke="midnightblue" d="M1636,-56.5C1636,-48.07 1636,-38.24 1636,-29.87"/>
<polygon fill="midnightblue" stroke="midnightblue" points="1639.5,-29.65 1636,-19.65 1632.5,-29.65 1639.5,-29.65"/>
</g>
<!-- Node14 -->
<g id="node14" class="node">
<title>Node14</title>
<g id="a_node14"><a xlink:title=" ">
<polygon fill="white" stroke="#bfbfbf" points="1703.5,-0.5 1703.5,-19.5 1796.5,-19.5 1796.5,-0.5 1703.5,-0.5"/>
<text text-anchor="middle" x="1750" y="-7.5" font-family="Helvetica,sans-Serif" font-size="10.00">Msgs/ROS2Str.h</text>
</a>
</g>
</g>
<!-- Node1&#45;&gt;Node14 -->
<g id="edge13" class="edge">
<title>Node1&#45;&gt;Node14</title>
<path fill="none" stroke="midnightblue" d="M1670.2,-56.5C1688.19,-46.24 1709.79,-33.93 1725.99,-24.69"/>
<polygon fill="midnightblue" stroke="midnightblue" points="1727.87,-27.65 1734.82,-19.65 1724.4,-21.57 1727.87,-27.65"/>
</g>
<!-- Node15 -->
<g id="node15" class="node">
<title>Node15</title>
<g id="a_node15"><a xlink:title=" ">
<polygon fill="white" stroke="#bfbfbf" points="1815,-0.5 1815,-19.5 1919,-19.5 1919,-0.5 1815,-0.5"/>
<text text-anchor="middle" x="1867" y="-7.5" font-family="Helvetica,sans-Serif" font-size="10.00">Msgs/ROS2Vec3.h</text>
</a>
</g>
</g>
<!-- Node1&#45;&gt;Node15 -->
<g id="edge14" class="edge">
<title>Node1&#45;&gt;Node15</title>
<path fill="none" stroke="midnightblue" d="M1695.79,-59.18C1737.09,-47.55 1790.89,-32.42 1827.06,-22.24"/>
<polygon fill="midnightblue" stroke="midnightblue" points="1828.1,-25.58 1836.77,-19.51 1826.2,-18.84 1828.1,-25.58"/>
</g>
<!-- Node16 -->
<g id="node16" class="node">
<title>Node16</title>
<g id="a_node16"><a xlink:title=" ">
<polygon fill="white" stroke="#bfbfbf" points="1937,-0.5 1937,-19.5 2047,-19.5 2047,-0.5 1937,-0.5"/>
<text text-anchor="middle" x="1992" y="-7.5" font-family="Helvetica,sans-Serif" font-size="10.00">Msgs/ROS2Odom.h</text>
</a>
</g>
</g>
<!-- Node1&#45;&gt;Node16 -->
<g id="edge15" class="edge">
<title>Node1&#45;&gt;Node16</title>
<path fill="none" stroke="midnightblue" d="M1695.59,-65.12C1762.29,-52.94 1869.58,-33.35 1935.15,-21.38"/>
<polygon fill="midnightblue" stroke="midnightblue" points="1936.09,-24.77 1945.3,-19.53 1934.83,-17.88 1936.09,-24.77"/>
</g>
<!-- Node17 -->
<g id="node17" class="node">
<title>Node17</title>
<g id="a_node17"><a xlink:title=" ">
<polygon fill="white" stroke="#bfbfbf" points="2065,-0.5 2065,-19.5 2175,-19.5 2175,-0.5 2065,-0.5"/>
<text text-anchor="middle" x="2120" y="-7.5" font-family="Helvetica,sans-Serif" font-size="10.00">Msgs/ROS2Empty.h</text>
</a>
</g>
</g>
<!-- Node1&#45;&gt;Node17 -->
<g id="edge16" class="edge">
<title>Node1&#45;&gt;Node17</title>
<path fill="none" stroke="midnightblue" d="M1695.83,-68.16C1775.33,-57.71 1920.43,-38.54 2054.78,-20.16"/>
<polygon fill="midnightblue" stroke="midnightblue" points="2055.41,-23.61 2064.85,-18.78 2054.46,-16.67 2055.41,-23.61"/>
</g>
<!-- Node18 -->
<g id="node18" class="node">
<title>Node18</title>
<g id="a_node18"><a xlink:title=" ">
<polygon fill="white" stroke="#bfbfbf" points="2193.5,-0.5 2193.5,-19.5 2306.5,-19.5 2306.5,-0.5 2193.5,-0.5"/>
<text text-anchor="middle" x="2250" y="-7.5" font-family="Helvetica,sans-Serif" font-size="10.00">Msgs/ROS2TFMsg.h</text>
</a>
</g>
</g>
<!-- Node1&#45;&gt;Node18 -->
<g id="edge17" class="edge">
<title>Node1&#45;&gt;Node18</title>
<path fill="none" stroke="midnightblue" d="M1695.67,-70.57C1794.61,-61.41 1999.1,-41.87 2183.34,-20.04"/>
<polygon fill="midnightblue" stroke="midnightblue" points="2183.97,-23.49 2193.49,-18.83 2183.15,-16.54 2183.97,-23.49"/>
</g>
<!-- Node19 -->
<g id="node19" class="node">
<title>Node19</title>
<g id="a_node19"><a xlink:title=" ">
<polygon fill="white" stroke="#bfbfbf" points="2324.5,-0.5 2324.5,-19.5 2459.5,-19.5 2459.5,-0.5 2324.5,-0.5"/>
<text text-anchor="middle" x="2392" y="-7.5" font-family="Helvetica,sans-Serif" font-size="10.00">Msgs/ROS2TFStamped.h</text>
</a>
</g>
</g>
<!-- Node1&#45;&gt;Node19 -->
<g id="edge18" class="edge">
<title>Node1&#45;&gt;Node19</title>
<path fill="none" stroke="midnightblue" d="M1695.64,-71.81C1812.36,-63.45 2079.35,-43.55 2314.36,-20.14"/>
<polygon fill="midnightblue" stroke="midnightblue" points="2314.87,-23.6 2324.47,-19.12 2314.17,-16.64 2314.87,-23.6"/>
</g>
<!-- Node20 -->
<g id="node20" class="node">
<title>Node20</title>
<g id="a_node20"><a xlink:title=" ">
<polygon fill="white" stroke="#bfbfbf" points="2477.5,-0.5 2477.5,-19.5 2624.5,-19.5 2624.5,-0.5 2477.5,-0.5"/>
<text text-anchor="middle" x="2551" y="-7.5" font-family="Helvetica,sans-Serif" font-size="10.00">Msgs/ROS2PoseStamped.h</text>
</a>
</g>
</g>
<!-- Node1&#45;&gt;Node20 -->
<g id="edge19" class="edge">
<title>Node1&#45;&gt;Node20</title>
<path fill="none" stroke="midnightblue" d="M1695.66,-72.86C1830.98,-65.54 2171.75,-46.05 2467.21,-20.13"/>
<polygon fill="midnightblue" stroke="midnightblue" points="2467.6,-23.61 2477.26,-19.24 2466.99,-16.63 2467.6,-23.61"/>
</g>
<!-- Node21 -->
<g id="node21" class="node">
<title>Node21</title>
<g id="a_node21"><a xlink:title=" ">
<polygon fill="white" stroke="#bfbfbf" points="2642.5,-0.5 2642.5,-19.5 2791.5,-19.5 2791.5,-0.5 2642.5,-0.5"/>
<text text-anchor="middle" x="2717" y="-7.5" font-family="Helvetica,sans-Serif" font-size="10.00">Msgs/ROS2PointStamped.h</text>
</a>
</g>
</g>
<!-- Node1&#45;&gt;Node21 -->
<g id="edge20" class="edge">
<title>Node1&#45;&gt;Node21</title>
<path fill="none" stroke="midnightblue" d="M1695.69,-73.73C1849.24,-67.67 2270.67,-49.56 2632.22,-20.11"/>
<polygon fill="midnightblue" stroke="midnightblue" points="2632.68,-23.58 2642.36,-19.28 2632.11,-16.61 2632.68,-23.58"/>
</g>
<!-- Node22 -->
<g id="node22" class="node">
<title>Node22</title>
<g id="a_node22"><a xlink:title=" ">
<polygon fill="white" stroke="#bfbfbf" points="2810,-0.5 2810,-19.5 2914,-19.5 2914,-0.5 2810,-0.5"/>
<text text-anchor="middle" x="2862" y="-7.5" font-family="Helvetica,sans-Serif" font-size="10.00">Msgs/ROS2Quat.h</text>
</a>
</g>
</g>
<!-- Node1&#45;&gt;Node22 -->
<g id="edge21" class="edge">
<title>Node1&#45;&gt;Node22</title>
<path fill="none" stroke="midnightblue" d="M1695.56,-75.21C1866.06,-72.49 2370.82,-61.37 2799.68,-20.03"/>
<polygon fill="midnightblue" stroke="midnightblue" points="2800.18,-23.5 2809.8,-19.05 2799.51,-16.53 2800.18,-23.5"/>
</g>
<!-- Node23 -->
<g id="node23" class="node">
<title>Node23</title>
<g id="a_node23"><a xlink:title=" ">
<polygon fill="white" stroke="#bfbfbf" points="2932.5,-0.5 2932.5,-19.5 3013.5,-19.5 3013.5,-0.5 2932.5,-0.5"/>
<text text-anchor="middle" x="2973" y="-7.5" font-family="Helvetica,sans-Serif" font-size="10.00">rclcUtilities.h</text>
</a>
</g>
</g>
<!-- Node1&#45;&gt;Node23 -->
<g id="edge22" class="edge">
<title>Node1&#45;&gt;Node23</title>
<path fill="none" stroke="midnightblue" d="M1695.55,-76.25C1877.78,-76.42 2443.96,-72.45 2922.19,-19.91"/>
<polygon fill="midnightblue" stroke="midnightblue" points="2922.85,-23.36 2932.41,-18.78 2922.08,-16.4 2922.85,-23.36"/>
</g>
<!-- Node24 -->
<g id="node24" class="node">
<title>Node24</title>
<g id="a_node24"><a xlink:title=" ">
<polygon fill="white" stroke="#bfbfbf" points="3032,-0.5 3032,-19.5 3184,-19.5 3184,-0.5 3032,-0.5"/>
<text text-anchor="middle" x="3108" y="-7.5" font-family="Helvetica,sans-Serif" font-size="10.00">ROS2Controller.generated.h</text>
</a>
</g>
</g>
<!-- Node1&#45;&gt;Node24 -->
<g id="edge23" class="edge">
<title>Node1&#45;&gt;Node24</title>
<path fill="none" stroke="midnightblue" d="M1695.56,-74.98C1886.65,-71.42 2501.66,-57.67 3021.24,-20.08"/>
<polygon fill="midnightblue" stroke="midnightblue" points="3021.85,-23.55 3031.57,-19.33 3021.34,-16.57 3021.85,-23.55"/>
</g>
</g>
</svg>
