<?xml version="1.0" encoding="UTF-8" standalone="no"?>
<!DOCTYPE svg PUBLIC "-//W3C//DTD SVG 1.1//EN"
 "http://www.w3.org/Graphics/SVG/1.1/DTD/svg11.dtd">
<!-- Generated by graphviz version 2.43.0 (0)
 -->
<!-- Title: Source/QuadSimCore/Private/Controllers/ROS2Controller.cpp Pages: 1 -->
<svg width="5345pt" height="229pt"
 viewBox="0.00 0.00 5344.50 229.00" xmlns="http://www.w3.org/2000/svg" xmlns:xlink="http://www.w3.org/1999/xlink">
<g id="graph0" class="graph" transform="scale(1 1) rotate(0) translate(4 225)">
<title>Source/QuadSimCore/Private/Controllers/ROS2Controller.cpp</title>
<polygon fill="white" stroke="transparent" points="-4,4 -4,-225 5340.5,-225 5340.5,4 -4,4"/>
<!-- Node1 -->
<g id="node1" class="node">
<title>Node1</title>
<g id="a_node1"><a xlink:title=" ">
<polygon fill="#bfbfbf" stroke="black" points="2974.5,-179.5 2974.5,-220.5 3093.5,-220.5 3093.5,-179.5 2974.5,-179.5"/>
<text text-anchor="start" x="2982.5" y="-208.5" font-family="Helvetica,sans-Serif" font-size="10.00">Source/QuadSimCore</text>
<text text-anchor="start" x="2982.5" y="-197.5" font-family="Helvetica,sans-Serif" font-size="10.00">/Private/Controllers</text>
<text text-anchor="middle" x="3034" y="-186.5" font-family="Helvetica,sans-Serif" font-size="10.00">/ROS2Controller.cpp</text>
</a>
</g>
</g>
<!-- Node2 -->
<g id="node2" class="node">
<title>Node2</title>
<g id="a_node2"><a xlink:href="ROS2Controller_8h.html" target="_top" xlink:title=" ">
<polygon fill="white" stroke="black" points="2717.5,-118 2717.5,-137 2872.5,-137 2872.5,-118 2717.5,-118"/>
<text text-anchor="middle" x="2795" y="-125" font-family="Helvetica,sans-Serif" font-size="10.00">Controllers/ROS2Controller.h</text>
</a>
</g>
</g>
<!-- Node1&#45;&gt;Node2 -->
<g id="edge1" class="edge">
<title>Node1&#45;&gt;Node2</title>
<path fill="none" stroke="midnightblue" d="M2974.31,-181.39C2930.27,-168.4 2871.62,-151.1 2833.59,-139.88"/>
<polygon fill="midnightblue" stroke="midnightblue" points="2834.5,-136.5 2823.92,-137.03 2832.52,-143.22 2834.5,-136.5"/>
</g>
<!-- Node5 -->
<g id="node5" class="node">
<title>Node5</title>
<g id="a_node5"><a xlink:title=" ">
<polygon fill="white" stroke="#bfbfbf" points="1966,-56.5 1966,-75.5 2100,-75.5 2100,-56.5 1966,-56.5"/>
<text text-anchor="middle" x="2033" y="-63.5" font-family="Helvetica,sans-Serif" font-size="10.00">ROS2NodeComponent.h</text>
</a>
</g>
</g>
<!-- Node1&#45;&gt;Node5 -->
<g id="edge33" class="edge">
<title>Node1&#45;&gt;Node5</title>
<path fill="none" stroke="midnightblue" d="M2974.04,-199C2845.99,-198.01 2536.82,-190.44 2283,-143 2202.82,-128.01 2111.94,-96.59 2064.95,-79.21"/>
<polygon fill="midnightblue" stroke="midnightblue" points="2065.93,-75.84 2055.33,-75.62 2063.48,-82.39 2065.93,-75.84"/>
</g>
<!-- Node6 -->
<g id="node6" class="node">
<title>Node6</title>
<g id="a_node6"><a xlink:title=" ">
<polygon fill="white" stroke="#bfbfbf" points="2118,-56.5 2118,-75.5 2214,-75.5 2214,-56.5 2118,-56.5"/>
<text text-anchor="middle" x="2166" y="-63.5" font-family="Helvetica,sans-Serif" font-size="10.00">ROS2Publisher.h</text>
</a>
</g>
</g>
<!-- Node1&#45;&gt;Node6 -->
<g id="edge34" class="edge">
<title>Node1&#45;&gt;Node6</title>
<path fill="none" stroke="midnightblue" d="M2974.31,-198.39C2860.46,-196.2 2604.93,-186.41 2395,-143 2321.55,-127.81 2238.82,-96.69 2195.72,-79.35"/>
<polygon fill="midnightblue" stroke="midnightblue" points="2196.98,-76.09 2186.4,-75.57 2194.35,-82.57 2196.98,-76.09"/>
</g>
<!-- Node7 -->
<g id="node7" class="node">
<title>Node7</title>
<g id="a_node7"><a xlink:title=" ">
<polygon fill="white" stroke="#bfbfbf" points="2232,-56.5 2232,-75.5 2334,-75.5 2334,-56.5 2232,-56.5"/>
<text text-anchor="middle" x="2283" y="-63.5" font-family="Helvetica,sans-Serif" font-size="10.00">ROS2Subscriber.h</text>
</a>
</g>
</g>
<!-- Node1&#45;&gt;Node7 -->
<g id="edge35" class="edge">
<title>Node1&#45;&gt;Node7</title>
<path fill="none" stroke="midnightblue" d="M2974.24,-197.16C2875.04,-193.13 2670.6,-180.6 2502,-143 2432.15,-127.42 2353.66,-96.81 2312.24,-79.57"/>
<polygon fill="midnightblue" stroke="midnightblue" points="2313.36,-76.24 2302.78,-75.6 2310.65,-82.7 2313.36,-76.24"/>
</g>
<!-- Node8 -->
<g id="node8" class="node">
<title>Node8</title>
<g id="a_node8"><a xlink:title=" ">
<polygon fill="white" stroke="#bfbfbf" points="1332.5,-56.5 1332.5,-75.5 1559.5,-75.5 1559.5,-56.5 1332.5,-56.5"/>
<text text-anchor="middle" x="1446" y="-63.5" font-family="Helvetica,sans-Serif" font-size="10.00">Components/SceneCaptureComponent2D.h</text>
</a>
</g>
</g>
<!-- Node1&#45;&gt;Node8 -->
<g id="edge27" class="edge">
<title>Node1&#45;&gt;Node8</title>
<path fill="none" stroke="midnightblue" d="M2974.25,-198.19C2751.86,-194.92 1972.35,-180.96 1727,-143 1636.17,-128.95 1532.57,-96.5 1480.19,-78.89"/>
<polygon fill="midnightblue" stroke="midnightblue" points="1481.01,-75.47 1470.41,-75.58 1478.76,-82.1 1481.01,-75.47"/>
</g>
<!-- Node9 -->
<g id="node9" class="node">
<title>Node9</title>
<g id="a_node9"><a xlink:title=" ">
<polygon fill="white" stroke="#bfbfbf" points="1578,-56.5 1578,-75.5 1754,-75.5 1754,-56.5 1578,-56.5"/>
<text text-anchor="middle" x="1666" y="-63.5" font-family="Helvetica,sans-Serif" font-size="10.00">Engine/TextureRenderTarget2D.h</text>
</a>
</g>
</g>
<!-- Node1&#45;&gt;Node9 -->
<g id="edge28" class="edge">
<title>Node1&#45;&gt;Node9</title>
<path fill="none" stroke="midnightblue" d="M2974.28,-197.95C2742.72,-193.66 1911.41,-176.08 1798,-143 1754.14,-130.2 1709.35,-100.06 1684.87,-81.82"/>
<polygon fill="midnightblue" stroke="midnightblue" points="1686.89,-78.95 1676.81,-75.69 1682.65,-84.52 1686.89,-78.95"/>
</g>
<!-- Node10 -->
<g id="node10" class="node">
<title>Node10</title>
<g id="a_node10"><a xlink:title=" ">
<polygon fill="white" stroke="#bfbfbf" points="2352.5,-56.5 2352.5,-75.5 2457.5,-75.5 2457.5,-56.5 2352.5,-56.5"/>
<text text-anchor="middle" x="2405" y="-63.5" font-family="Helvetica,sans-Serif" font-size="10.00">Msgs/ROS2Point.h</text>
</a>
</g>
</g>
<!-- Node1&#45;&gt;Node10 -->
<g id="edge42" class="edge">
<title>Node1&#45;&gt;Node10</title>
<path fill="none" stroke="midnightblue" d="M2974.31,-196.13C2889.16,-190.96 2728.49,-177.24 2596,-143 2535.2,-127.29 2467.75,-97.27 2431.51,-80.03"/>
<polygon fill="midnightblue" stroke="midnightblue" points="2432.68,-76.71 2422.15,-75.54 2429.64,-83.02 2432.68,-76.71"/>
</g>
<!-- Node11 -->
<g id="node11" class="node">
<title>Node11</title>
<g id="a_node11"><a xlink:title=" ">
<polygon fill="white" stroke="#bfbfbf" points="2475.5,-56.5 2475.5,-75.5 2574.5,-75.5 2574.5,-56.5 2475.5,-56.5"/>
<text text-anchor="middle" x="2525" y="-63.5" font-family="Helvetica,sans-Serif" font-size="10.00">Msgs/ROS2Img.h</text>
</a>
</g>
</g>
<!-- Node1&#45;&gt;Node11 -->
<g id="edge43" class="edge">
<title>Node1&#45;&gt;Node11</title>
<path fill="none" stroke="midnightblue" d="M2974.25,-196.02C2900.59,-190.96 2772.33,-177.59 2668,-143 2622.17,-127.8 2573.47,-98.79 2546.38,-81.34"/>
<polygon fill="midnightblue" stroke="midnightblue" points="2548.02,-78.23 2537.74,-75.69 2544.19,-84.09 2548.02,-78.23"/>
</g>
<!-- Node12 -->
<g id="node12" class="node">
<title>Node12</title>
<g id="a_node12"><a xlink:title=" ">
<polygon fill="white" stroke="#bfbfbf" points="2592.5,-56.5 2592.5,-75.5 2709.5,-75.5 2709.5,-56.5 2592.5,-56.5"/>
<text text-anchor="middle" x="2651" y="-63.5" font-family="Helvetica,sans-Serif" font-size="10.00">Msgs/ROS2Float64.h</text>
</a>
</g>
</g>
<!-- Node1&#45;&gt;Node12 -->
<g id="edge44" class="edge">
<title>Node1&#45;&gt;Node12</title>
<path fill="none" stroke="midnightblue" d="M2974.29,-194.86C2890.45,-188.08 2743.14,-172.33 2699,-143 2678.33,-129.27 2664.82,-103.27 2657.55,-85.55"/>
<polygon fill="midnightblue" stroke="midnightblue" points="2660.65,-83.86 2653.82,-75.77 2654.11,-86.36 2660.65,-83.86"/>
</g>
<!-- Node13 -->
<g id="node13" class="node">
<title>Node13</title>
<g id="a_node13"><a xlink:title=" ">
<polygon fill="white" stroke="#bfbfbf" points="2727.5,-56.5 2727.5,-75.5 2832.5,-75.5 2832.5,-56.5 2727.5,-56.5"/>
<text text-anchor="middle" x="2780" y="-63.5" font-family="Helvetica,sans-Serif" font-size="10.00">Msgs/ROS2Twist.h</text>
</a>
</g>
</g>
<!-- Node1&#45;&gt;Node13 -->
<g id="edge45" class="edge">
<title>Node1&#45;&gt;Node13</title>
<path fill="none" stroke="midnightblue" d="M2974.38,-197.6C2889.77,-194.21 2741.4,-182.63 2708,-143 2699.12,-132.47 2701.32,-124.05 2708,-112 2716.09,-97.41 2731.1,-86.92 2745.34,-79.76"/>
<polygon fill="midnightblue" stroke="midnightblue" points="2746.89,-82.9 2754.5,-75.53 2743.95,-76.55 2746.89,-82.9"/>
</g>
<!-- Node15 -->
<g id="node15" class="node">
<title>Node15</title>
<g id="a_node15"><a xlink:title=" ">
<polygon fill="white" stroke="#bfbfbf" points="3466.5,-56.5 3466.5,-75.5 3559.5,-75.5 3559.5,-56.5 3466.5,-56.5"/>
<text text-anchor="middle" x="3513" y="-63.5" font-family="Helvetica,sans-Serif" font-size="10.00">Msgs/ROS2Str.h</text>
</a>
</g>
</g>
<!-- Node1&#45;&gt;Node15 -->
<g id="edge46" class="edge">
<title>Node1&#45;&gt;Node15</title>
<path fill="none" stroke="midnightblue" d="M2978.72,-179.42C2940.51,-163 2900.61,-138.09 2925,-112 2963.8,-70.49 3363.3,-81.66 3456.12,-75.7"/>
<polygon fill="midnightblue" stroke="midnightblue" points="3456.63,-79.17 3466.29,-74.84 3456.03,-72.19 3456.63,-79.17"/>
</g>
<!-- Node17 -->
<g id="node17" class="node">
<title>Node17</title>
<g id="a_node17"><a xlink:title=" ">
<polygon fill="white" stroke="#bfbfbf" points="3578,-56.5 3578,-75.5 3688,-75.5 3688,-56.5 3578,-56.5"/>
<text text-anchor="middle" x="3633" y="-63.5" font-family="Helvetica,sans-Serif" font-size="10.00">Msgs/ROS2Odom.h</text>
</a>
</g>
</g>
<!-- Node1&#45;&gt;Node17 -->
<g id="edge41" class="edge">
<title>Node1&#45;&gt;Node17</title>
<path fill="none" stroke="midnightblue" d="M2999.89,-179.33C2972.68,-161.25 2942.28,-133.99 2963,-112 3007.54,-64.73 3465.93,-81.33 3567.74,-75.78"/>
<polygon fill="midnightblue" stroke="midnightblue" points="3568.16,-79.26 3577.88,-75.04 3567.65,-72.28 3568.16,-79.26"/>
</g>
<!-- Node18 -->
<g id="node18" class="node">
<title>Node18</title>
<g id="a_node18"><a xlink:title=" ">
<polygon fill="white" stroke="#bfbfbf" points="3706,-56.5 3706,-75.5 3816,-75.5 3816,-56.5 3706,-56.5"/>
<text text-anchor="middle" x="3761" y="-63.5" font-family="Helvetica,sans-Serif" font-size="10.00">Msgs/ROS2Empty.h</text>
</a>
</g>
</g>
<!-- Node1&#45;&gt;Node18 -->
<g id="edge47" class="edge">
<title>Node1&#45;&gt;Node18</title>
<path fill="none" stroke="midnightblue" d="M3016.05,-179.38C3000.54,-160.04 2983.2,-130.74 3001,-112 3026.44,-85.21 3601.83,-80.14 3695.78,-75.7"/>
<polygon fill="midnightblue" stroke="midnightblue" points="3696.12,-79.19 3705.88,-75.07 3695.68,-72.2 3696.12,-79.19"/>
</g>
<!-- Node19 -->
<g id="node19" class="node">
<title>Node19</title>
<g id="a_node19"><a xlink:title=" ">
<polygon fill="white" stroke="#bfbfbf" points="3834.5,-56.5 3834.5,-75.5 3947.5,-75.5 3947.5,-56.5 3834.5,-56.5"/>
<text text-anchor="middle" x="3891" y="-63.5" font-family="Helvetica,sans-Serif" font-size="10.00">Msgs/ROS2TFMsg.h</text>
</a>
</g>
</g>
<!-- Node1&#45;&gt;Node19 -->
<g id="edge38" class="edge">
<title>Node1&#45;&gt;Node19</title>
<path fill="none" stroke="midnightblue" d="M3028.48,-179.39C3024.2,-159.49 3021.57,-129.23 3039,-112 3068.78,-82.56 3722.92,-80.12 3824.13,-75.68"/>
<polygon fill="midnightblue" stroke="midnightblue" points="3824.38,-79.17 3834.16,-75.08 3823.96,-72.18 3824.38,-79.17"/>
</g>
<!-- Node20 -->
<g id="node20" class="node">
<title>Node20</title>
<g id="a_node20"><a xlink:title=" ">
<polygon fill="white" stroke="#bfbfbf" points="3965.5,-56.5 3965.5,-75.5 4100.5,-75.5 4100.5,-56.5 3965.5,-56.5"/>
<text text-anchor="middle" x="4033" y="-63.5" font-family="Helvetica,sans-Serif" font-size="10.00">Msgs/ROS2TFStamped.h</text>
</a>
</g>
</g>
<!-- Node1&#45;&gt;Node20 -->
<g id="edge39" class="edge">
<title>Node1&#45;&gt;Node20</title>
<path fill="none" stroke="midnightblue" d="M3037.69,-179.2C3042.7,-158.53 3053.83,-127.06 3077,-112 3156.81,-60.13 3821.61,-82.45 3955.48,-75.89"/>
<polygon fill="midnightblue" stroke="midnightblue" points="3955.72,-79.38 3965.48,-75.27 3955.28,-72.4 3955.72,-79.38"/>
</g>
<!-- Node21 -->
<g id="node21" class="node">
<title>Node21</title>
<g id="a_node21"><a xlink:title=" ">
<polygon fill="white" stroke="#bfbfbf" points="4118.5,-56.5 4118.5,-75.5 4265.5,-75.5 4265.5,-56.5 4118.5,-56.5"/>
<text text-anchor="middle" x="4192" y="-63.5" font-family="Helvetica,sans-Serif" font-size="10.00">Msgs/ROS2PoseStamped.h</text>
</a>
</g>
</g>
<!-- Node1&#45;&gt;Node21 -->
<g id="edge40" class="edge">
<title>Node1&#45;&gt;Node21</title>
<path fill="none" stroke="midnightblue" d="M3049.23,-179.43C3067.84,-156.11 3098.86,-119.38 3115,-112 3213.07,-67.19 3960.29,-83.17 4107.97,-75.96"/>
<polygon fill="midnightblue" stroke="midnightblue" points="4108.49,-79.44 4118.27,-75.35 4108.08,-72.45 4108.49,-79.44"/>
</g>
<!-- Node23 -->
<g id="node23" class="node">
<title>Node23</title>
<g id="a_node23"><a xlink:title=" ">
<polygon fill="white" stroke="#bfbfbf" points="4284,-56.5 4284,-75.5 4388,-75.5 4388,-56.5 4284,-56.5"/>
<text text-anchor="middle" x="4336" y="-63.5" font-family="Helvetica,sans-Serif" font-size="10.00">Msgs/ROS2Quat.h</text>
</a>
</g>
</g>
<!-- Node1&#45;&gt;Node23 -->
<g id="edge52" class="edge">
<title>Node1&#45;&gt;Node23</title>
<path fill="none" stroke="midnightblue" d="M3061.55,-179.47C3076.54,-168.78 3095.36,-155.26 3112,-143 3130.39,-129.45 3131.46,-119.61 3153,-112 3267.96,-71.37 4111.61,-86.4 4273.73,-75.87"/>
<polygon fill="midnightblue" stroke="midnightblue" points="4274.1,-79.35 4283.8,-75.1 4273.57,-72.37 4274.1,-79.35"/>
</g>
<!-- Node24 -->
<g id="node24" class="node">
<title>Node24</title>
<g id="a_node24"><a xlink:title=" ">
<polygon fill="white" stroke="#bfbfbf" points="4406.5,-56.5 4406.5,-75.5 4487.5,-75.5 4487.5,-56.5 4406.5,-56.5"/>
<text text-anchor="middle" x="4447" y="-63.5" font-family="Helvetica,sans-Serif" font-size="10.00">rclcUtilities.h</text>
</a>
</g>
</g>
<!-- Node1&#45;&gt;Node24 -->
<g id="edge36" class="edge">
<title>Node1&#45;&gt;Node24</title>
<path fill="none" stroke="midnightblue" d="M3078.16,-179.38C3099.23,-169.4 3124.47,-156.54 3146,-143 3165.04,-131.02 3164.83,-119.6 3186,-112 3310.04,-67.49 4223.56,-89.01 4396.33,-75.73"/>
<polygon fill="midnightblue" stroke="midnightblue" points="4396.77,-79.2 4406.41,-74.83 4396.14,-72.23 4396.77,-79.2"/>
</g>
<!-- Node26 -->
<g id="node26" class="node">
<title>Node26</title>
<g id="a_node26"><a xlink:title=" ">
<polygon fill="white" stroke="#bfbfbf" points="3195,-118 3195,-137 3341,-137 3341,-118 3195,-118"/>
<text text-anchor="middle" x="3268" y="-125" font-family="Helvetica,sans-Serif" font-size="10.00">Kismet/GameplayStatics.h</text>
</a>
</g>
</g>
<!-- Node1&#45;&gt;Node26 -->
<g id="edge25" class="edge">
<title>Node1&#45;&gt;Node26</title>
<path fill="none" stroke="midnightblue" d="M3093.65,-181.03C3136.48,-168.13 3192.92,-151.12 3229.82,-140"/>
<polygon fill="midnightblue" stroke="midnightblue" points="3231.11,-143.27 3239.68,-137.03 3229.09,-136.57 3231.11,-143.27"/>
</g>
<!-- Node27 -->
<g id="node27" class="node">
<title>Node27</title>
<g id="a_node27"><a xlink:title=" ">
<polygon fill="white" stroke="#bfbfbf" points="3359.5,-118 3359.5,-137 3446.5,-137 3446.5,-118 3359.5,-118"/>
<text text-anchor="middle" x="3403" y="-125" font-family="Helvetica,sans-Serif" font-size="10.00">Async/Async.h</text>
</a>
</g>
</g>
<!-- Node1&#45;&gt;Node27 -->
<g id="edge26" class="edge">
<title>Node1&#45;&gt;Node27</title>
<path fill="none" stroke="midnightblue" d="M3093.73,-190.09C3157.51,-180.18 3261.4,-162.93 3350,-143 3354.47,-142 3359.12,-140.86 3363.73,-139.67"/>
<polygon fill="midnightblue" stroke="midnightblue" points="3364.92,-142.98 3373.68,-137.04 3363.12,-136.21 3364.92,-142.98"/>
</g>
<!-- Node28 -->
<g id="node28" class="node">
<title>Node28</title>
<g id="a_node28"><a xlink:title=" ">
<polygon fill="white" stroke="#bfbfbf" points="3465,-118 3465,-137 3561,-137 3561,-118 3465,-118"/>
<text text-anchor="middle" x="3513" y="-125" font-family="Helvetica,sans-Serif" font-size="10.00">TimerManager.h</text>
</a>
</g>
</g>
<!-- Node1&#45;&gt;Node28 -->
<g id="edge29" class="edge">
<title>Node1&#45;&gt;Node28</title>
<path fill="none" stroke="midnightblue" d="M3093.76,-193.3C3175.85,-184.96 3327.92,-167.7 3456,-143 3461.19,-142 3466.62,-140.81 3471.97,-139.55"/>
<polygon fill="midnightblue" stroke="midnightblue" points="3473.21,-142.85 3482.09,-137.07 3471.54,-136.05 3473.21,-142.85"/>
</g>
<!-- Node29 -->
<g id="node29" class="node">
<title>Node29</title>
<g id="a_node29"><a xlink:title=" ">
<polygon fill="white" stroke="#bfbfbf" points="3579,-118 3579,-137 3689,-137 3689,-118 3579,-118"/>
<text text-anchor="middle" x="3634" y="-125" font-family="Helvetica,sans-Serif" font-size="10.00">RHICommandList.h</text>
</a>
</g>
</g>
<!-- Node1&#45;&gt;Node29 -->
<g id="edge30" class="edge">
<title>Node1&#45;&gt;Node29</title>
<path fill="none" stroke="midnightblue" d="M3093.8,-195.08C3193.15,-188.05 3398.29,-171.32 3570,-143 3576.42,-141.94 3583.16,-140.63 3589.75,-139.24"/>
<polygon fill="midnightblue" stroke="midnightblue" points="3590.92,-142.57 3599.94,-137.01 3589.42,-135.73 3590.92,-142.57"/>
</g>
<!-- Node30 -->
<g id="node30" class="node">
<title>Node30</title>
<g id="a_node30"><a xlink:title=" ">
<polygon fill="white" stroke="#bfbfbf" points="3707.5,-118 3707.5,-137 3816.5,-137 3816.5,-118 3707.5,-118"/>
<text text-anchor="middle" x="3762" y="-125" font-family="Helvetica,sans-Serif" font-size="10.00">RenderingThread.h</text>
</a>
</g>
</g>
<!-- Node1&#45;&gt;Node30 -->
<g id="edge31" class="edge">
<title>Node1&#45;&gt;Node30</title>
<path fill="none" stroke="midnightblue" d="M3093.85,-196.74C3210.62,-191.7 3476.78,-177.22 3698,-143 3704.66,-141.97 3711.65,-140.64 3718.48,-139.21"/>
<polygon fill="midnightblue" stroke="midnightblue" points="3719.27,-142.62 3728.29,-137.06 3717.77,-135.78 3719.27,-142.62"/>
</g>
<!-- Node31 -->
<g id="node31" class="node">
<title>Node31</title>
<g id="a_node31"><a xlink:title=" ">
<polygon fill="white" stroke="#bfbfbf" points="1153.5,-56.5 1153.5,-75.5 1314.5,-75.5 1314.5,-56.5 1153.5,-56.5"/>
<text text-anchor="middle" x="1234" y="-63.5" font-family="Helvetica,sans-Serif" font-size="10.00">Camera/CameraComponent.h</text>
</a>
</g>
</g>
<!-- Node1&#45;&gt;Node31 -->
<g id="edge32" class="edge">
<title>Node1&#45;&gt;Node31</title>
<path fill="none" stroke="midnightblue" d="M2974.27,-198.04C2737.61,-194.05 1865.28,-177.26 1591,-143 1475.21,-128.54 1341.28,-95.56 1275.22,-78.18"/>
<polygon fill="midnightblue" stroke="midnightblue" points="1275.77,-74.71 1265.21,-75.53 1273.98,-81.48 1275.77,-74.71"/>
</g>
<!-- Node32 -->
<g id="node32" class="node">
<title>Node32</title>
<g id="a_node32"><a xlink:title=" ">
<polygon fill="white" stroke="#bfbfbf" points="3835,-118 3835,-137 3973,-137 3973,-118 3835,-118"/>
<text text-anchor="middle" x="3904" y="-125" font-family="Helvetica,sans-Serif" font-size="10.00">Msgs/ROS2GenericMsg.h</text>
</a>
</g>
</g>
<!-- Node1&#45;&gt;Node32 -->
<g id="edge37" class="edge">
<title>Node1&#45;&gt;Node32</title>
<path fill="none" stroke="midnightblue" d="M3093.84,-197.08C3226.26,-192.33 3553.91,-177.8 3826,-143 3834.74,-141.88 3843.97,-140.42 3852.92,-138.85"/>
<polygon fill="midnightblue" stroke="midnightblue" points="3853.63,-142.28 3862.85,-137.05 3852.38,-135.39 3853.63,-142.28"/>
</g>
<!-- Node33 -->
<g id="node33" class="node">
<title>Node33</title>
<g id="a_node33"><a xlink:title=" ">
<polygon fill="white" stroke="#bfbfbf" points="3991.5,-118 3991.5,-137 4082.5,-137 4082.5,-118 3991.5,-118"/>
<text text-anchor="middle" x="4037" y="-125" font-family="Helvetica,sans-Serif" font-size="10.00">Msgs/ROS2TF.h</text>
</a>
</g>
</g>
<!-- Node1&#45;&gt;Node33 -->
<g id="edge48" class="edge">
<title>Node1&#45;&gt;Node33</title>
<path fill="none" stroke="midnightblue" d="M3093.51,-199.57C3243.6,-200.13 3649.26,-196.15 3982,-143 3987.55,-142.11 3993.34,-140.91 3999,-139.56"/>
<polygon fill="midnightblue" stroke="midnightblue" points="4000.13,-142.89 4008.97,-137.04 3998.41,-136.1 4000.13,-142.89"/>
</g>
<!-- Node34 -->
<g id="node34" class="node">
<title>Node34</title>
<g id="a_node34"><a xlink:title=" ">
<polygon fill="white" stroke="#bfbfbf" points="4100.5,-118 4100.5,-137 4215.5,-137 4215.5,-118 4100.5,-118"/>
<text text-anchor="middle" x="4158" y="-125" font-family="Helvetica,sans-Serif" font-size="10.00">Msgs/ROS2Header.h</text>
</a>
</g>
</g>
<!-- Node1&#45;&gt;Node34 -->
<g id="edge49" class="edge">
<title>Node1&#45;&gt;Node34</title>
<path fill="none" stroke="midnightblue" d="M3093.68,-199.25C3255.26,-199.18 3714.46,-194.11 4092,-143 4099.27,-142.02 4106.93,-140.65 4114.36,-139.14"/>
<polygon fill="midnightblue" stroke="midnightblue" points="4115.23,-142.53 4124.27,-137.02 4113.76,-135.69 4115.23,-142.53"/>
</g>
<!-- Node35 -->
<g id="node35" class="node">
<title>Node35</title>
<g id="a_node35"><a xlink:title=" ">
<polygon fill="white" stroke="#bfbfbf" points="4233.5,-118 4233.5,-137 4338.5,-137 4338.5,-118 4233.5,-118"/>
<text text-anchor="middle" x="4286" y="-125" font-family="Helvetica,sans-Serif" font-size="10.00">Msgs/ROS2Time.h</text>
</a>
</g>
</g>
<!-- Node1&#45;&gt;Node35 -->
<g id="edge50" class="edge">
<title>Node1&#45;&gt;Node35</title>
<path fill="none" stroke="midnightblue" d="M3093.74,-197.66C3303.1,-192.76 4002.87,-174.34 4225,-143 4231.51,-142.08 4238.34,-140.79 4244.98,-139.35"/>
<polygon fill="midnightblue" stroke="midnightblue" points="4246.22,-142.66 4255.18,-137.01 4244.65,-135.84 4246.22,-142.66"/>
</g>
<!-- Node36 -->
<g id="node36" class="node">
<title>Node36</title>
<g id="a_node36"><a xlink:title=" ">
<polygon fill="white" stroke="#bfbfbf" points="4357,-118 4357,-137 4461,-137 4461,-118 4357,-118"/>
<text text-anchor="middle" x="4409" y="-125" font-family="Helvetica,sans-Serif" font-size="10.00">Msgs/ROS2Pose.h</text>
</a>
</g>
</g>
<!-- Node1&#45;&gt;Node36 -->
<g id="edge51" class="edge">
<title>Node1&#45;&gt;Node36</title>
<path fill="none" stroke="midnightblue" d="M3093.65,-197.97C3316.59,-193.89 4100.64,-177.35 4348,-143 4354.51,-142.1 4361.34,-140.81 4367.98,-139.38"/>
<polygon fill="midnightblue" stroke="midnightblue" points="4369.22,-142.68 4378.18,-137.03 4367.65,-135.86 4369.22,-142.68"/>
</g>
<!-- Node37 -->
<g id="node37" class="node">
<title>Node37</title>
<g id="a_node37"><a xlink:title=" ">
<polygon fill="white" stroke="#bfbfbf" points="4479,-112.5 4479,-142.5 4649,-142.5 4649,-112.5 4479,-112.5"/>
<text text-anchor="start" x="4487" y="-130.5" font-family="Helvetica,sans-Serif" font-size="10.00">geometry_msgs/msg/transform</text>
<text text-anchor="middle" x="4564" y="-119.5" font-family="Helvetica,sans-Serif" font-size="10.00">_stamped.h</text>
</a>
</g>
</g>
<!-- Node1&#45;&gt;Node37 -->
<g id="edge53" class="edge">
<title>Node1&#45;&gt;Node37</title>
<path fill="none" stroke="midnightblue" d="M3093.67,-199.11C3289.39,-198.94 3929.72,-194.3 4468.44,-143.07"/>
<polygon fill="midnightblue" stroke="midnightblue" points="4469.13,-146.52 4478.75,-142.08 4468.46,-139.55 4469.13,-146.52"/>
</g>
<!-- Node38 -->
<g id="node38" class="node">
<title>Node38</title>
<g id="a_node38"><a xlink:title=" ">
<polygon fill="white" stroke="#bfbfbf" points="4667,-118 4667,-137 4823,-137 4823,-118 4667,-118"/>
<text text-anchor="middle" x="4745" y="-125" font-family="Helvetica,sans-Serif" font-size="10.00">geometry_msgs/msg/point.h</text>
</a>
</g>
</g>
<!-- Node1&#45;&gt;Node38 -->
<g id="edge54" class="edge">
<title>Node1&#45;&gt;Node38</title>
<path fill="none" stroke="midnightblue" d="M3093.68,-197.99C3348.37,-193.51 4345.54,-174.29 4658,-143 4668.51,-141.95 4679.67,-140.41 4690.36,-138.73"/>
<polygon fill="midnightblue" stroke="midnightblue" points="4691.14,-142.14 4700.44,-137.08 4690.01,-135.24 4691.14,-142.14"/>
</g>
<!-- Node39 -->
<g id="node39" class="node">
<title>Node39</title>
<g id="a_node39"><a xlink:title=" ">
<polygon fill="white" stroke="#bfbfbf" points="4841,-118 4841,-137 5025,-137 5025,-118 4841,-118"/>
<text text-anchor="middle" x="4933" y="-125" font-family="Helvetica,sans-Serif" font-size="10.00">geometry_msgs/msg/quaternion.h</text>
</a>
</g>
</g>
<!-- Node1&#45;&gt;Node39 -->
<g id="edge55" class="edge">
<title>Node1&#45;&gt;Node39</title>
<path fill="none" stroke="midnightblue" d="M3093.56,-198.04C3364.55,-193.53 4482.95,-173.4 4832,-143 4844.74,-141.89 4858.33,-140.25 4871.27,-138.47"/>
<polygon fill="midnightblue" stroke="midnightblue" points="4872.08,-141.9 4881.49,-137.03 4871.09,-134.97 4872.08,-141.9"/>
</g>
<!-- Node40 -->
<g id="node40" class="node">
<title>Node40</title>
<g id="a_node40"><a xlink:title=" ">
<polygon fill="white" stroke="#bfbfbf" points="5043,-112.5 5043,-142.5 5171,-142.5 5171,-112.5 5043,-112.5"/>
<text text-anchor="start" x="5051" y="-130.5" font-family="Helvetica,sans-Serif" font-size="10.00">rosidl_runtime_c/string</text>
<text text-anchor="middle" x="5107" y="-119.5" font-family="Helvetica,sans-Serif" font-size="10.00">_functions.h</text>
</a>
</g>
</g>
<!-- Node1&#45;&gt;Node40 -->
<g id="edge56" class="edge">
<title>Node1&#45;&gt;Node40</title>
<path fill="none" stroke="midnightblue" d="M3093.89,-198.68C3381.46,-196.94 4623.09,-187.05 5032.5,-143.01"/>
<polygon fill="midnightblue" stroke="midnightblue" points="5033.05,-146.47 5042.61,-141.9 5032.28,-139.52 5033.05,-146.47"/>
</g>
<!-- Node41 -->
<g id="node41" class="node">
<title>Node41</title>
<g id="a_node41"><a xlink:href="QuadPawn_8h.html" target="_top" xlink:title=" ">
<polygon fill="white" stroke="red" points="904,-118 904,-137 1014,-137 1014,-118 904,-118"/>
<text text-anchor="middle" x="959" y="-125" font-family="Helvetica,sans-Serif" font-size="10.00">Pawns/QuadPawn.h</text>
</a>
</g>
</g>
<!-- Node1&#45;&gt;Node41 -->
<g id="edge57" class="edge">
<title>Node1&#45;&gt;Node41</title>
<path fill="none" stroke="midnightblue" d="M2974.5,-197.05C2758.42,-189.96 1994.84,-164.81 1365,-143 1244.92,-138.84 1104.87,-133.8 1024.6,-130.89"/>
<polygon fill="midnightblue" stroke="midnightblue" points="1024.28,-127.37 1014.16,-130.51 1024.03,-134.37 1024.28,-127.37"/>
</g>
<!-- Node47 -->
<g id="node45" class="node">
<title>Node47</title>
<g id="a_node45"><a xlink:href="NavigationComponent_8h.html" target="_top" xlink:title=" ">
<polygon fill="white" stroke="red" points="153,-56.5 153,-75.5 321,-75.5 321,-56.5 153,-56.5"/>
<text text-anchor="middle" x="237" y="-63.5" font-family="Helvetica,sans-Serif" font-size="10.00">Utility/NavigationComponent.h</text>
</a>
</g>
</g>
<!-- Node1&#45;&gt;Node47 -->
<g id="edge78" class="edge">
<title>Node1&#45;&gt;Node47</title>
<path fill="none" stroke="midnightblue" d="M2974.36,-199.38C2722.07,-200.56 1717.64,-201.16 895,-143 679.05,-127.73 424.86,-93.82 305.47,-76.94"/>
<polygon fill="midnightblue" stroke="midnightblue" points="305.77,-73.45 295.37,-75.51 304.78,-80.38 305.77,-73.45"/>
</g>
<!-- Node56 -->
<g id="node48" class="node">
<title>Node56</title>
<g id="a_node48"><a xlink:href="ObstacleManager_8h.html" target="_top" xlink:title=" ">
<polygon fill="white" stroke="red" points="1807.5,-118 1807.5,-137 1950.5,-137 1950.5,-118 1807.5,-118"/>
<text text-anchor="middle" x="1879" y="-125" font-family="Helvetica,sans-Serif" font-size="10.00">Utility/ObstacleManager.h</text>
</a>
</g>
</g>
<!-- Node1&#45;&gt;Node56 -->
<g id="edge71" class="edge">
<title>Node1&#45;&gt;Node56</title>
<path fill="none" stroke="midnightblue" d="M2974.49,-195.96C2822.9,-188.14 2409.88,-166.28 2066,-143 2031.7,-140.68 1993.89,-137.81 1961.29,-135.23"/>
<polygon fill="midnightblue" stroke="midnightblue" points="1961.15,-131.71 1950.9,-134.41 1960.6,-138.69 1961.15,-131.71"/>
</g>
<!-- Node58 -->
<g id="node49" class="node">
<title>Node58</title>
<g id="a_node49"><a xlink:href="QuadDroneController_8h.html" target="_top" xlink:title=" ">
<polygon fill="white" stroke="red" points="0,-118 0,-137 184,-137 184,-118 0,-118"/>
<text text-anchor="middle" x="92" y="-125" font-family="Helvetica,sans-Serif" font-size="10.00">Controllers/QuadDroneController.h</text>
</a>
</g>
</g>
<!-- Node1&#45;&gt;Node58 -->
<g id="edge74" class="edge">
<title>Node1&#45;&gt;Node58</title>
<path fill="none" stroke="midnightblue" d="M2974.23,-197.87C2697.6,-192.59 1513.77,-169.52 543,-143 423.36,-139.73 285.9,-135.2 194.5,-132.08"/>
<polygon fill="midnightblue" stroke="midnightblue" points="194.53,-128.58 184.41,-131.73 194.29,-135.57 194.53,-128.58"/>
</g>
<!-- Node62 -->
<g id="node50" class="node">
<title>Node62</title>
<g id="a_node50"><a xlink:title=" ">
<polygon fill="white" stroke="#bfbfbf" points="5189.5,-118 5189.5,-137 5336.5,-137 5336.5,-118 5189.5,-118"/>
<text text-anchor="middle" x="5263" y="-125" font-family="Helvetica,sans-Serif" font-size="10.00">Msgs/ROS2Vec3Stamped.h</text>
</a>
</g>
</g>
<!-- Node1&#45;&gt;Node62 -->
<g id="edge77" class="edge">
<title>Node1&#45;&gt;Node62</title>
<path fill="none" stroke="midnightblue" d="M3093.67,-198.63C3395.8,-196.57 4758.85,-185.05 5180,-143 5190.15,-141.99 5200.93,-140.45 5211.25,-138.75"/>
<polygon fill="midnightblue" stroke="midnightblue" points="5212.11,-142.15 5221.37,-137.01 5210.92,-135.25 5212.11,-142.15"/>
</g>
<!-- Node3 -->
<g id="node3" class="node">
<title>Node3</title>
<g id="a_node3"><a xlink:title=" ">
<polygon fill="white" stroke="#bfbfbf" points="915,-0.5 915,-19.5 1003,-19.5 1003,-0.5 915,-0.5"/>
<text text-anchor="middle" x="959" y="-7.5" font-family="Helvetica,sans-Serif" font-size="10.00">CoreMinimal.h</text>
</a>
</g>
</g>
<!-- Node2&#45;&gt;Node3 -->
<g id="edge2" class="edge">
<title>Node2&#45;&gt;Node3</title>
<path fill="none" stroke="midnightblue" d="M2807.7,-117.93C2827.1,-103.85 2859.99,-75.45 2841,-56 2808.23,-22.44 1319.72,-12.88 1013.66,-11.27"/>
<polygon fill="midnightblue" stroke="midnightblue" points="1013.3,-7.76 1003.28,-11.21 1013.26,-14.76 1013.3,-7.76"/>
</g>
<!-- Node4 -->
<g id="node4" class="node">
<title>Node4</title>
<g id="a_node4"><a xlink:title=" ">
<polygon fill="white" stroke="#bfbfbf" points="1810.5,-56.5 1810.5,-75.5 1947.5,-75.5 1947.5,-56.5 1810.5,-56.5"/>
<text text-anchor="middle" x="1879" y="-63.5" font-family="Helvetica,sans-Serif" font-size="10.00">GameFramework/Actor.h</text>
</a>
</g>
</g>
<!-- Node2&#45;&gt;Node4 -->
<g id="edge3" class="edge">
<title>Node2&#45;&gt;Node4</title>
<path fill="none" stroke="midnightblue" d="M2717.49,-123.25C2571.22,-116.8 2244.27,-100.91 1958.05,-76.04"/>
<polygon fill="midnightblue" stroke="midnightblue" points="1958.15,-72.54 1947.88,-75.15 1957.54,-79.51 1958.15,-72.54"/>
</g>
<!-- Node2&#45;&gt;Node5 -->
<g id="edge4" class="edge">
<title>Node2&#45;&gt;Node5</title>
<path fill="none" stroke="midnightblue" d="M2717.49,-121.92C2592.15,-114.26 2336.98,-97.64 2110.21,-76.08"/>
<polygon fill="midnightblue" stroke="midnightblue" points="2110.41,-72.58 2100.12,-75.11 2109.74,-79.55 2110.41,-72.58"/>
</g>
<!-- Node2&#45;&gt;Node6 -->
<g id="edge5" class="edge">
<title>Node2&#45;&gt;Node6</title>
<path fill="none" stroke="midnightblue" d="M2717.11,-121.32C2608.86,-113.75 2406.6,-98.23 2224.22,-76.07"/>
<polygon fill="midnightblue" stroke="midnightblue" points="2224.52,-72.58 2214.17,-74.84 2223.67,-79.53 2224.52,-72.58"/>
</g>
<!-- Node2&#45;&gt;Node7 -->
<g id="edge6" class="edge">
<title>Node2&#45;&gt;Node7</title>
<path fill="none" stroke="midnightblue" d="M2717.31,-118.72C2629.38,-109.71 2481.58,-93.95 2344.33,-76.13"/>
<polygon fill="midnightblue" stroke="midnightblue" points="2344.41,-72.61 2334.04,-74.79 2343.51,-79.55 2344.41,-72.61"/>
</g>
<!-- Node2&#45;&gt;Node8 -->
<g id="edge7" class="edge">
<title>Node2&#45;&gt;Node8</title>
<path fill="none" stroke="midnightblue" d="M2717.14,-124.15C2524.61,-118.17 2010.46,-101.05 1569.66,-76.02"/>
<polygon fill="midnightblue" stroke="midnightblue" points="1569.77,-72.52 1559.59,-75.44 1569.37,-79.51 1569.77,-72.52"/>
</g>
<!-- Node2&#45;&gt;Node9 -->
<g id="edge8" class="edge">
<title>Node2&#45;&gt;Node9</title>
<path fill="none" stroke="midnightblue" d="M2717.33,-122.97C2549.86,-115.27 2142.32,-96.05 1801,-76 1789.18,-75.31 1776.79,-74.54 1764.5,-73.75"/>
<polygon fill="midnightblue" stroke="midnightblue" points="1764.42,-70.24 1754.22,-73.08 1763.97,-77.22 1764.42,-70.24"/>
</g>
<!-- Node2&#45;&gt;Node10 -->
<g id="edge9" class="edge">
<title>Node2&#45;&gt;Node10</title>
<path fill="none" stroke="midnightblue" d="M2739.12,-117.98C2667.31,-107.02 2542.97,-88.05 2467.9,-76.6"/>
<polygon fill="midnightblue" stroke="midnightblue" points="2468.06,-73.08 2457.65,-75.03 2467.01,-80 2468.06,-73.08"/>
</g>
<!-- Node2&#45;&gt;Node11 -->
<g id="edge10" class="edge">
<title>Node2&#45;&gt;Node11</title>
<path fill="none" stroke="midnightblue" d="M2756.32,-117.98C2708.2,-107.37 2626.01,-89.26 2573.67,-77.72"/>
<polygon fill="midnightblue" stroke="midnightblue" points="2574.13,-74.24 2563.61,-75.51 2572.63,-81.08 2574.13,-74.24"/>
</g>
<!-- Node2&#45;&gt;Node12 -->
<g id="edge11" class="edge">
<title>Node2&#45;&gt;Node12</title>
<path fill="none" stroke="midnightblue" d="M2774.37,-117.98C2749.88,-107.86 2708.85,-90.9 2680.89,-79.35"/>
<polygon fill="midnightblue" stroke="midnightblue" points="2682.17,-76.09 2671.59,-75.51 2679.5,-82.56 2682.17,-76.09"/>
</g>
<!-- Node2&#45;&gt;Node13 -->
<g id="edge12" class="edge">
<title>Node2&#45;&gt;Node13</title>
<path fill="none" stroke="midnightblue" d="M2792.85,-117.98C2790.71,-109.49 2787.36,-96.2 2784.62,-85.32"/>
<polygon fill="midnightblue" stroke="midnightblue" points="2787.98,-84.35 2782.15,-75.51 2781.2,-86.06 2787.98,-84.35"/>
</g>
<!-- Node14 -->
<g id="node14" class="node">
<title>Node14</title>
<g id="a_node14"><a xlink:title=" ">
<polygon fill="white" stroke="#bfbfbf" points="3226.5,-56.5 3226.5,-75.5 3325.5,-75.5 3325.5,-56.5 3226.5,-56.5"/>
<text text-anchor="middle" x="3276" y="-63.5" font-family="Helvetica,sans-Serif" font-size="10.00">Msgs/ROS2Imu.h</text>
</a>
</g>
</g>
<!-- Node2&#45;&gt;Node14 -->
<g id="edge13" class="edge">
<title>Node2&#45;&gt;Node14</title>
<path fill="none" stroke="midnightblue" d="M2846.51,-117.94C2859.69,-115.87 2873.86,-113.75 2887,-112 3029.96,-92.95 3068.97,-95.02 3216.13,-76.06"/>
<polygon fill="midnightblue" stroke="midnightblue" points="3216.98,-79.48 3226.45,-74.72 3216.08,-72.53 3216.98,-79.48"/>
</g>
<!-- Node2&#45;&gt;Node15 -->
<g id="edge14" class="edge">
<title>Node2&#45;&gt;Node15</title>
<path fill="none" stroke="midnightblue" d="M2843.59,-117.97C2857.57,-115.76 2872.86,-113.56 2887,-112 3135.99,-84.58 3202.97,-103.65 3456.05,-75.99"/>
<polygon fill="midnightblue" stroke="midnightblue" points="3456.74,-79.43 3466.3,-74.85 3455.97,-72.47 3456.74,-79.43"/>
</g>
<!-- Node16 -->
<g id="node16" class="node">
<title>Node16</title>
<g id="a_node16"><a xlink:title=" ">
<polygon fill="white" stroke="#bfbfbf" points="3344,-56.5 3344,-75.5 3448,-75.5 3448,-56.5 3344,-56.5"/>
<text text-anchor="middle" x="3396" y="-63.5" font-family="Helvetica,sans-Serif" font-size="10.00">Msgs/ROS2Vec3.h</text>
</a>
</g>
</g>
<!-- Node2&#45;&gt;Node16 -->
<g id="edge15" class="edge">
<title>Node2&#45;&gt;Node16</title>
<path fill="none" stroke="midnightblue" d="M2844.56,-117.98C2858.28,-115.82 2873.19,-113.64 2887,-112 3082.06,-88.82 3134.79,-98.26 3333.59,-76.09"/>
<polygon fill="midnightblue" stroke="midnightblue" points="3334.24,-79.54 3343.79,-74.94 3333.46,-72.58 3334.24,-79.54"/>
</g>
<!-- Node2&#45;&gt;Node17 -->
<g id="edge16" class="edge">
<title>Node2&#45;&gt;Node17</title>
<path fill="none" stroke="midnightblue" d="M2865.1,-117.96C2884.48,-115.8 2905.54,-113.63 2925,-112 3207.32,-88.38 3281.96,-103.62 3567.63,-76.05"/>
<polygon fill="midnightblue" stroke="midnightblue" points="3568.26,-79.5 3577.88,-75.05 3567.58,-72.54 3568.26,-79.5"/>
</g>
<!-- Node2&#45;&gt;Node18 -->
<g id="edge17" class="edge">
<title>Node2&#45;&gt;Node18</title>
<path fill="none" stroke="midnightblue" d="M2872.74,-119.19C2901.13,-116.67 2933.5,-114 2963,-112 3285.53,-90.18 3370.11,-106.43 3695.68,-76.03"/>
<polygon fill="midnightblue" stroke="midnightblue" points="3696.25,-79.5 3705.88,-75.07 3695.6,-72.53 3696.25,-79.5"/>
</g>
<!-- Node2&#45;&gt;Node19 -->
<g id="edge18" class="edge">
<title>Node2&#45;&gt;Node19</title>
<path fill="none" stroke="midnightblue" d="M2872.74,-120.54C2911.3,-117.71 2958.58,-114.42 3001,-112 3363.67,-91.32 3458.2,-108.48 3824.08,-75.99"/>
<polygon fill="midnightblue" stroke="midnightblue" points="3824.51,-79.47 3834.16,-75.09 3823.88,-72.49 3824.51,-79.47"/>
</g>
<!-- Node2&#45;&gt;Node20 -->
<g id="edge19" class="edge">
<title>Node2&#45;&gt;Node20</title>
<path fill="none" stroke="midnightblue" d="M2872.72,-121.48C2920.65,-118.49 2983.37,-114.74 3039,-112 3443.53,-92.05 3548.26,-107.78 3955.5,-76.06"/>
<polygon fill="midnightblue" stroke="midnightblue" points="3955.79,-79.55 3965.48,-75.27 3955.24,-72.57 3955.79,-79.55"/>
</g>
<!-- Node2&#45;&gt;Node21 -->
<g id="edge20" class="edge">
<title>Node2&#45;&gt;Node21</title>
<path fill="none" stroke="midnightblue" d="M2872.79,-122.15C2929.41,-119.07 3007.94,-114.98 3077,-112 3532.6,-92.35 3650.09,-108.84 4108.07,-76.09"/>
<polygon fill="midnightblue" stroke="midnightblue" points="4108.54,-79.56 4118.27,-75.35 4108.04,-72.58 4108.54,-79.56"/>
</g>
<!-- Node22 -->
<g id="node22" class="node">
<title>Node22</title>
<g id="a_node22"><a xlink:title=" ">
<polygon fill="white" stroke="#bfbfbf" points="2888.5,-56.5 2888.5,-75.5 3037.5,-75.5 3037.5,-56.5 2888.5,-56.5"/>
<text text-anchor="middle" x="2963" y="-63.5" font-family="Helvetica,sans-Serif" font-size="10.00">Msgs/ROS2PointStamped.h</text>
</a>
</g>
</g>
<!-- Node2&#45;&gt;Node22 -->
<g id="edge21" class="edge">
<title>Node2&#45;&gt;Node22</title>
<path fill="none" stroke="midnightblue" d="M2819.07,-117.98C2848.01,-107.72 2896.76,-90.46 2929.4,-78.9"/>
<polygon fill="midnightblue" stroke="midnightblue" points="2930.72,-82.15 2938.97,-75.51 2928.38,-75.55 2930.72,-82.15"/>
</g>
<!-- Node2&#45;&gt;Node23 -->
<g id="edge22" class="edge">
<title>Node2&#45;&gt;Node23</title>
<path fill="none" stroke="midnightblue" d="M2872.58,-122.67C2937.38,-119.55 3032.2,-115.16 3115,-112 3627.03,-92.45 3759.49,-121.33 4273.52,-76.02"/>
<polygon fill="midnightblue" stroke="midnightblue" points="4274.15,-79.48 4283.8,-75.11 4273.53,-72.5 4274.15,-79.48"/>
</g>
<!-- Node2&#45;&gt;Node24 -->
<g id="edge23" class="edge">
<title>Node2&#45;&gt;Node24</title>
<path fill="none" stroke="midnightblue" d="M2872.51,-123.1C2945.01,-119.99 3056.33,-115.36 3153,-112 3702.41,-92.92 3845.1,-132.66 4396.21,-75.89"/>
<polygon fill="midnightblue" stroke="midnightblue" points="4396.83,-79.34 4406.41,-74.83 4396.11,-72.38 4396.83,-79.34"/>
</g>
<!-- Node25 -->
<g id="node25" class="node">
<title>Node25</title>
<g id="a_node25"><a xlink:title=" ">
<polygon fill="white" stroke="#bfbfbf" points="3056,-56.5 3056,-75.5 3208,-75.5 3208,-56.5 3056,-56.5"/>
<text text-anchor="middle" x="3132" y="-63.5" font-family="Helvetica,sans-Serif" font-size="10.00">ROS2Controller.generated.h</text>
</a>
</g>
</g>
<!-- Node2&#45;&gt;Node25 -->
<g id="edge24" class="edge">
<title>Node2&#45;&gt;Node25</title>
<path fill="none" stroke="midnightblue" d="M2843.28,-117.98C2904.09,-107.24 3008.49,-88.81 3073.69,-77.29"/>
<polygon fill="midnightblue" stroke="midnightblue" points="3074.57,-80.69 3083.81,-75.51 3073.35,-73.8 3074.57,-80.69"/>
</g>
<!-- Node41&#45;&gt;Node3 -->
<g id="edge58" class="edge">
<title>Node41&#45;&gt;Node3</title>
<path fill="none" stroke="midnightblue" d="M959,-117.82C959,-99.26 959,-55.34 959,-29.97"/>
<polygon fill="midnightblue" stroke="midnightblue" points="962.5,-29.78 959,-19.78 955.5,-29.78 962.5,-29.78"/>
</g>
<!-- Node41&#45;&gt;Node8 -->
<g id="edge69" class="edge">
<title>Node41&#45;&gt;Node8</title>
<path fill="none" stroke="midnightblue" d="M1014.39,-119.73C1100.56,-109.21 1267.07,-88.86 1366.19,-76.75"/>
<polygon fill="midnightblue" stroke="midnightblue" points="1366.66,-80.22 1376.16,-75.53 1365.81,-73.27 1366.66,-80.22"/>
</g>
<!-- Node41&#45;&gt;Node9 -->
<g id="edge70" class="edge">
<title>Node41&#45;&gt;Node9</title>
<path fill="none" stroke="midnightblue" d="M1014.02,-122.1C1119.17,-113.66 1356.2,-94.46 1567.8,-76.01"/>
<polygon fill="midnightblue" stroke="midnightblue" points="1568.2,-79.49 1577.85,-75.13 1567.59,-72.52 1568.2,-79.49"/>
</g>
<!-- Node41&#45;&gt;Node31 -->
<g id="edge60" class="edge">
<title>Node41&#45;&gt;Node31</title>
<path fill="none" stroke="midnightblue" d="M998.4,-117.98C1047.51,-107.35 1131.47,-89.18 1184.77,-77.65"/>
<polygon fill="midnightblue" stroke="midnightblue" points="1185.64,-81.04 1194.67,-75.51 1184.16,-74.2 1185.64,-81.04"/>
</g>
<!-- Node42 -->
<g id="node42" class="node">
<title>Node42</title>
<g id="a_node42"><a xlink:title=" ">
<polygon fill="white" stroke="#bfbfbf" points="793,-56.5 793,-75.5 931,-75.5 931,-56.5 793,-56.5"/>
<text text-anchor="middle" x="862" y="-63.5" font-family="Helvetica,sans-Serif" font-size="10.00">GameFramework/Pawn.h</text>
</a>
</g>
</g>
<!-- Node41&#45;&gt;Node42 -->
<g id="edge59" class="edge">
<title>Node41&#45;&gt;Node42</title>
<path fill="none" stroke="midnightblue" d="M945.1,-117.98C929.33,-108.3 903.36,-92.37 884.65,-80.89"/>
<polygon fill="midnightblue" stroke="midnightblue" points="886.23,-77.75 875.87,-75.51 882.57,-83.72 886.23,-77.75"/>
</g>
<!-- Node43 -->
<g id="node43" class="node">
<title>Node43</title>
<g id="a_node43"><a xlink:title=" ">
<polygon fill="white" stroke="#bfbfbf" points="339,-56.5 339,-75.5 559,-75.5 559,-56.5 339,-56.5"/>
<text text-anchor="middle" x="449" y="-63.5" font-family="Helvetica,sans-Serif" font-size="10.00">GameFramework/SpringArmComponent.h</text>
</a>
</g>
</g>
<!-- Node41&#45;&gt;Node43 -->
<g id="edge61" class="edge">
<title>Node41&#45;&gt;Node43</title>
<path fill="none" stroke="midnightblue" d="M903.94,-120.08C814.57,-109.65 637.42,-88.98 532.49,-76.74"/>
<polygon fill="midnightblue" stroke="midnightblue" points="532.59,-73.23 522.26,-75.55 531.78,-80.18 532.59,-73.23"/>
</g>
<!-- Node44 -->
<g id="node44" class="node">
<title>Node44</title>
<g id="a_node44"><a xlink:href="ThrusterComponent_8h.html" target="_top" xlink:title=" ">
<polygon fill="white" stroke="red" points="987,-56.5 987,-75.5 1135,-75.5 1135,-56.5 987,-56.5"/>
<text text-anchor="middle" x="1061" y="-63.5" font-family="Helvetica,sans-Serif" font-size="10.00">Core/ThrusterComponent.h</text>
</a>
</g>
</g>
<!-- Node41&#45;&gt;Node44 -->
<g id="edge62" class="edge">
<title>Node41&#45;&gt;Node44</title>
<path fill="none" stroke="midnightblue" d="M973.61,-117.98C990.35,-108.21 1018,-92.08 1037.72,-80.58"/>
<polygon fill="midnightblue" stroke="midnightblue" points="1039.54,-83.57 1046.41,-75.51 1036.01,-77.52 1039.54,-83.57"/>
</g>
<!-- Node41&#45;&gt;Node47 -->
<g id="edge64" class="edge">
<title>Node41&#45;&gt;Node47</title>
<path fill="none" stroke="midnightblue" d="M903.86,-122.38C796.07,-114.25 549.59,-95.35 331.19,-76.09"/>
<polygon fill="midnightblue" stroke="midnightblue" points="331.41,-72.6 321.14,-75.21 330.8,-79.57 331.41,-72.6"/>
</g>
<!-- Node50 -->
<g id="node46" class="node">
<title>Node50</title>
<g id="a_node46"><a xlink:href="ImGuiUtil_8h.html" target="_top" xlink:title=" ">
<polygon fill="white" stroke="red" points="49,-56.5 49,-75.5 135,-75.5 135,-56.5 49,-56.5"/>
<text text-anchor="middle" x="92" y="-63.5" font-family="Helvetica,sans-Serif" font-size="10.00">UI/ImGuiUtil.h</text>
</a>
</g>
</g>
<!-- Node41&#45;&gt;Node50 -->
<g id="edge66" class="edge">
<title>Node41&#45;&gt;Node50</title>
<path fill="none" stroke="midnightblue" d="M903.96,-125.17C773.82,-121.57 436.79,-109.65 145.42,-76.03"/>
<polygon fill="midnightblue" stroke="midnightblue" points="145.42,-72.51 135.08,-74.83 144.61,-79.46 145.42,-72.51"/>
</g>
<!-- Node52 -->
<g id="node47" class="node">
<title>Node52</title>
<g id="a_node47"><a xlink:title=" ">
<polygon fill="white" stroke="#bfbfbf" points="577.5,-56.5 577.5,-75.5 774.5,-75.5 774.5,-56.5 577.5,-56.5"/>
<text text-anchor="middle" x="676" y="-63.5" font-family="Helvetica,sans-Serif" font-size="10.00">Components/ChildActorComponent.h</text>
</a>
</g>
</g>
<!-- Node41&#45;&gt;Node52 -->
<g id="edge68" class="edge">
<title>Node41&#45;&gt;Node52</title>
<path fill="none" stroke="midnightblue" d="M918.45,-117.98C867.81,-107.33 781.16,-89.11 726.32,-77.58"/>
<polygon fill="midnightblue" stroke="midnightblue" points="726.98,-74.14 716.47,-75.51 725.54,-80.99 726.98,-74.14"/>
</g>
<!-- Node44&#45;&gt;Node3 -->
<g id="edge63" class="edge">
<title>Node44&#45;&gt;Node3</title>
<path fill="none" stroke="midnightblue" d="M1044.61,-56.32C1028.33,-47.7 1003.13,-34.36 984.28,-24.39"/>
<polygon fill="midnightblue" stroke="midnightblue" points="985.82,-21.24 975.35,-19.65 982.55,-27.43 985.82,-21.24"/>
</g>
<!-- Node47&#45;&gt;Node3 -->
<g id="edge65" class="edge">
<title>Node47&#45;&gt;Node3</title>
<path fill="none" stroke="midnightblue" d="M321.14,-56.76C324.13,-56.5 327.09,-56.24 330,-56 542.43,-38.13 795.61,-21.41 904.64,-14.43"/>
<polygon fill="midnightblue" stroke="midnightblue" points="904.98,-17.91 914.74,-13.78 904.54,-10.93 904.98,-17.91"/>
</g>
<!-- Node50&#45;&gt;Node3 -->
<g id="edge67" class="edge">
<title>Node50&#45;&gt;Node3</title>
<path fill="none" stroke="midnightblue" d="M135.07,-57.15C138.09,-56.72 141.09,-56.33 144,-56 429.14,-23.56 773.17,-14.29 904.48,-11.82"/>
<polygon fill="midnightblue" stroke="midnightblue" points="904.74,-15.32 914.68,-11.64 904.61,-8.32 904.74,-15.32"/>
</g>
<!-- Node56&#45;&gt;Node3 -->
<g id="edge72" class="edge">
<title>Node56&#45;&gt;Node3</title>
<path fill="none" stroke="midnightblue" d="M1865.55,-117.82C1837.44,-99.74 1774.14,-59.46 1763,-56 1622.69,-12.44 1170.86,-10.07 1013.58,-10.62"/>
<polygon fill="midnightblue" stroke="midnightblue" points="1013.2,-7.12 1003.22,-10.66 1013.23,-14.12 1013.2,-7.12"/>
</g>
<!-- Node56&#45;&gt;Node4 -->
<g id="edge73" class="edge">
<title>Node56&#45;&gt;Node4</title>
<path fill="none" stroke="midnightblue" d="M1879,-117.98C1879,-109.58 1879,-96.48 1879,-85.66"/>
<polygon fill="midnightblue" stroke="midnightblue" points="1882.5,-85.51 1879,-75.51 1875.5,-85.51 1882.5,-85.51"/>
</g>
<!-- Node58&#45;&gt;Node3 -->
<g id="edge75" class="edge">
<title>Node58&#45;&gt;Node3</title>
<path fill="none" stroke="midnightblue" d="M77.74,-117.94C56.39,-104.12 20.6,-76.38 40,-56 69.93,-24.57 711.64,-14.07 904.6,-11.62"/>
<polygon fill="midnightblue" stroke="midnightblue" points="904.83,-15.11 914.79,-11.49 904.74,-8.12 904.83,-15.11"/>
</g>
<!-- Node58&#45;&gt;Node50 -->
<g id="edge76" class="edge">
<title>Node58&#45;&gt;Node50</title>
<path fill="none" stroke="midnightblue" d="M92,-117.98C92,-109.58 92,-96.48 92,-85.66"/>
<polygon fill="midnightblue" stroke="midnightblue" points="95.5,-85.51 92,-75.51 88.5,-85.51 95.5,-85.51"/>
</g>
</g>
</svg>
