<?xml version="1.0" encoding="UTF-8" standalone="no"?>
<!DOCTYPE svg PUBLIC "-//W3C//DTD SVG 1.1//EN"
 "http://www.w3.org/Graphics/SVG/1.1/DTD/svg11.dtd">
<!-- Generated by graphviz version 2.43.0 (0)
 -->
<!-- Title: FDroneConfigData Pages: 1 -->
<svg width="404pt" height="137pt"
 viewBox="0.00 0.00 404.00 137.00" xmlns="http://www.w3.org/2000/svg" xmlns:xlink="http://www.w3.org/1999/xlink">
<g id="graph0" class="graph" transform="scale(1 1) rotate(0) translate(4 133)">
<title>FDroneConfigData</title>
<polygon fill="white" stroke="transparent" points="-4,4 -4,-133 400,-133 400,4 -4,4"/>
<!-- Node1 -->
<g id="node1" class="node">
<title>Node1</title>
<g id="a_node1"><a xlink:title=" ">
<polygon fill="#bfbfbf" stroke="black" points="290,-55 290,-74 396,-74 396,-55 290,-55"/>
<text text-anchor="middle" x="343" y="-62" font-family="Helvetica,sans-Serif" font-size="10.00">FDroneConfigData</text>
</a>
</g>
</g>
<!-- Node2 -->
<g id="node2" class="node">
<title>Node2</title>
<g id="a_node2"><a xlink:href="structFDroneConfigData_1_1FObstacleParameters.html" target="_top" xlink:title=" ">
<polygon fill="white" stroke="black" points="2.5,-98.5 2.5,-128.5 163.5,-128.5 163.5,-98.5 2.5,-98.5"/>
<text text-anchor="start" x="10.5" y="-116.5" font-family="Helvetica,sans-Serif" font-size="10.00">FDroneConfigData::FObstacle</text>
<text text-anchor="middle" x="83" y="-105.5" font-family="Helvetica,sans-Serif" font-size="10.00">Parameters</text>
</a>
</g>
</g>
<!-- Node2&#45;&gt;Node1 -->
<g id="edge1" class="edge">
<title>Node2&#45;&gt;Node1</title>
<path fill="none" stroke="#9a32cd" stroke-dasharray="5,2" d="M173.66,-97.89C204.83,-92.3 240,-85.82 272,-79.5 280.54,-77.81 289.64,-75.93 298.36,-74.08"/>
<polygon fill="#9a32cd" stroke="#9a32cd" points="172.92,-94.47 163.69,-99.67 174.15,-101.36 172.92,-94.47"/>
<text text-anchor="middle" x="228" y="-98.5" font-family="Helvetica,sans-Serif" font-size="10.00"> ObstacleParams</text>
</g>
<!-- Node3 -->
<g id="node3" class="node">
<title>Node3</title>
<g id="a_node3"><a xlink:href="structFDroneConfigData_1_1FControllerParameters.html" target="_top" xlink:title=" ">
<polygon fill="white" stroke="black" points="0,-49.5 0,-79.5 166,-79.5 166,-49.5 0,-49.5"/>
<text text-anchor="start" x="8" y="-67.5" font-family="Helvetica,sans-Serif" font-size="10.00">FDroneConfigData::FController</text>
<text text-anchor="middle" x="83" y="-56.5" font-family="Helvetica,sans-Serif" font-size="10.00">Parameters</text>
</a>
</g>
</g>
<!-- Node3&#45;&gt;Node1 -->
<g id="edge2" class="edge">
<title>Node3&#45;&gt;Node1</title>
<path fill="none" stroke="#9a32cd" stroke-dasharray="5,2" d="M176.46,-64.5C214.63,-64.5 257.47,-64.5 290,-64.5"/>
<polygon fill="#9a32cd" stroke="#9a32cd" points="176.34,-61 166.34,-64.5 176.34,-68 176.34,-61"/>
<text text-anchor="middle" x="228" y="-67.5" font-family="Helvetica,sans-Serif" font-size="10.00"> ControllerParams</text>
</g>
<!-- Node4 -->
<g id="node4" class="node">
<title>Node4</title>
<g id="a_node4"><a xlink:href="structFDroneConfigData_1_1FFlightParameters.html" target="_top" xlink:title=" ">
<polygon fill="white" stroke="black" points="10,-0.5 10,-30.5 156,-30.5 156,-0.5 10,-0.5"/>
<text text-anchor="start" x="18" y="-18.5" font-family="Helvetica,sans-Serif" font-size="10.00">FDroneConfigData::FFlight</text>
<text text-anchor="middle" x="83" y="-7.5" font-family="Helvetica,sans-Serif" font-size="10.00">Parameters</text>
</a>
</g>
</g>
<!-- Node4&#45;&gt;Node1 -->
<g id="edge3" class="edge">
<title>Node4&#45;&gt;Node1</title>
<path fill="none" stroke="#9a32cd" stroke-dasharray="5,2" d="M166.44,-29.82C199.32,-35.68 237.5,-42.69 272,-49.5 280.54,-51.19 289.64,-53.07 298.36,-54.92"/>
<polygon fill="#9a32cd" stroke="#9a32cd" points="166.87,-26.34 156.42,-28.04 165.65,-33.23 166.87,-26.34"/>
<text text-anchor="middle" x="228" y="-52.5" font-family="Helvetica,sans-Serif" font-size="10.00"> FlightParams</text>
</g>
</g>
</svg>
