<?xml version="1.0" encoding="UTF-8" standalone="no"?>
<!DOCTYPE svg PUBLIC "-//W3C//DTD SVG 1.1//EN"
 "http://www.w3.org/Graphics/SVG/1.1/DTD/svg11.dtd">
<!-- Generated by graphviz version 2.43.0 (0)
 -->
<!-- Title: FFullPIDSet Pages: 1 -->
<svg width="126pt" height="172pt"
 viewBox="0.00 0.00 125.50 172.00" xmlns="http://www.w3.org/2000/svg" xmlns:xlink="http://www.w3.org/1999/xlink">
<g id="graph0" class="graph" transform="scale(1 1) rotate(0) translate(4 168)">
<title>FFullPIDSet</title>
<polygon fill="white" stroke="transparent" points="-4,4 -4,-168 121.5,-168 121.5,4 -4,4"/>
<!-- Node1 -->
<g id="node1" class="node">
<title>Node1</title>
<g id="a_node1"><a xlink:title=" ">
<polygon fill="#bfbfbf" stroke="black" points="17.5,-0.5 17.5,-19.5 89.5,-19.5 89.5,-0.5 17.5,-0.5"/>
<text text-anchor="middle" x="53.5" y="-7.5" font-family="Helvetica,sans-Serif" font-size="10.00">FFullPIDSet</text>
</a>
</g>
</g>
<!-- Node2 -->
<g id="node2" class="node">
<title>Node2</title>
<g id="a_node2"><a xlink:href="classQuadPIDController.html" target="_top" xlink:title=" ">
<polygon fill="white" stroke="black" points="0,-144.5 0,-163.5 107,-163.5 107,-144.5 0,-144.5"/>
<text text-anchor="middle" x="53.5" y="-151.5" font-family="Helvetica,sans-Serif" font-size="10.00">QuadPIDController</text>
</a>
</g>
</g>
<!-- Node2&#45;&gt;Node1 -->
<g id="edge1" class="edge">
<title>Node2&#45;&gt;Node1</title>
<path fill="none" stroke="#9a32cd" stroke-dasharray="5,2" d="M53.5,-134.11C53.5,-102.93 53.5,-41.93 53.5,-19.52"/>
<polygon fill="#9a32cd" stroke="#9a32cd" points="50,-134.12 53.5,-144.12 57,-134.12 50,-134.12"/>
<text text-anchor="middle" x="85.5" y="-118" font-family="Helvetica,sans-Serif" font-size="10.00"> PitchPID</text>
<text text-anchor="middle" x="85.5" y="-107" font-family="Helvetica,sans-Serif" font-size="10.00">PitchRatePID</text>
<text text-anchor="middle" x="85.5" y="-96" font-family="Helvetica,sans-Serif" font-size="10.00">RollPID</text>
<text text-anchor="middle" x="85.5" y="-85" font-family="Helvetica,sans-Serif" font-size="10.00">RollRatePID</text>
<text text-anchor="middle" x="85.5" y="-74" font-family="Helvetica,sans-Serif" font-size="10.00">XPID</text>
<text text-anchor="middle" x="85.5" y="-63" font-family="Helvetica,sans-Serif" font-size="10.00">YPID</text>
<text text-anchor="middle" x="85.5" y="-52" font-family="Helvetica,sans-Serif" font-size="10.00">YawRatePID</text>
<text text-anchor="middle" x="85.5" y="-41" font-family="Helvetica,sans-Serif" font-size="10.00">ZPID</text>
</g>
</g>
</svg>
