<?xml version="1.0" encoding="UTF-8" standalone="no"?>
<!DOCTYPE svg PUBLIC "-//W3C//DTD SVG 1.1//EN"
 "http://www.w3.org/Graphics/SVG/1.1/DTD/svg11.dtd">
<!-- Generated by graphviz version 2.43.0 (0)
 -->
<!-- Title: Source/QuadSimCore/Public/Core/ThrusterComponent.h Pages: 1 -->
<svg width="1263pt" height="184pt"
 viewBox="0.00 0.00 1262.50 184.00" xmlns="http://www.w3.org/2000/svg" xmlns:xlink="http://www.w3.org/1999/xlink">
<g id="graph0" class="graph" transform="scale(1 1) rotate(0) translate(4 180)">
<title>Source/QuadSimCore/Public/Core/ThrusterComponent.h</title>
<polygon fill="white" stroke="transparent" points="-4,4 -4,-180 1258.5,-180 1258.5,4 -4,4"/>
<!-- Node1 -->
<g id="node1" class="node">
<title>Node1</title>
<g id="a_node1"><a xlink:title=" ">
<polygon fill="#bfbfbf" stroke="black" points="136.5,-145.5 136.5,-175.5 319.5,-175.5 319.5,-145.5 136.5,-145.5"/>
<text text-anchor="start" x="144.5" y="-163.5" font-family="Helvetica,sans-Serif" font-size="10.00">Source/QuadSimCore</text>
<text text-anchor="middle" x="228" y="-152.5" font-family="Helvetica,sans-Serif" font-size="10.00">/Public/Core/ThrusterComponent.h</text>
</a>
</g>
</g>
<!-- Node2 -->
<g id="node2" class="node">
<title>Node2</title>
<g id="a_node2"><a xlink:href="ThrusterComponent_8cpp.html" target="_top" xlink:title=" ">
<polygon fill="white" stroke="black" points="0,-78.5 0,-108.5 200,-108.5 200,-78.5 0,-78.5"/>
<text text-anchor="start" x="8" y="-96.5" font-family="Helvetica,sans-Serif" font-size="10.00">Source/QuadSimCore</text>
<text text-anchor="middle" x="100" y="-85.5" font-family="Helvetica,sans-Serif" font-size="10.00">/Private/Core/ThrusterComponent.cpp</text>
</a>
</g>
</g>
<!-- Node1&#45;&gt;Node2 -->
<g id="edge1" class="edge">
<title>Node1&#45;&gt;Node2</title>
<path fill="none" stroke="midnightblue" d="M191.28,-140.85C171.04,-130.58 146.33,-118.03 127.72,-108.58"/>
<polygon fill="midnightblue" stroke="midnightblue" points="189.72,-143.99 200.23,-145.4 192.89,-137.75 189.72,-143.99"/>
</g>
<!-- Node3 -->
<g id="node3" class="node">
<title>Node3</title>
<g id="a_node3"><a xlink:href="QuadPawn_8cpp.html" target="_top" xlink:title=" ">
<polygon fill="white" stroke="black" points="38,-6 38,-36 200,-36 200,-6 38,-6"/>
<text text-anchor="start" x="46" y="-24" font-family="Helvetica,sans-Serif" font-size="10.00">Source/QuadSimCore</text>
<text text-anchor="middle" x="119" y="-13" font-family="Helvetica,sans-Serif" font-size="10.00">/Private/Pawns/QuadPawn.cpp</text>
</a>
</g>
</g>
<!-- Node1&#45;&gt;Node3 -->
<g id="edge2" class="edge">
<title>Node1&#45;&gt;Node3</title>
<path fill="none" stroke="midnightblue" d="M227.17,-135.05C225.49,-117.72 220.94,-94.66 209,-78 195.5,-59.15 173.48,-45.29 154.61,-36.07"/>
<polygon fill="midnightblue" stroke="midnightblue" points="223.71,-135.77 227.91,-145.5 230.69,-135.27 223.71,-135.77"/>
</g>
<!-- Node4 -->
<g id="node4" class="node">
<title>Node4</title>
<g id="a_node4"><a xlink:href="QuadPawn_8h.html" target="_top" xlink:title=" ">
<polygon fill="white" stroke="black" points="447,-78.5 447,-108.5 593,-108.5 593,-78.5 447,-78.5"/>
<text text-anchor="start" x="455" y="-96.5" font-family="Helvetica,sans-Serif" font-size="10.00">Source/QuadSimCore</text>
<text text-anchor="middle" x="520" y="-85.5" font-family="Helvetica,sans-Serif" font-size="10.00">/Public/Pawns/QuadPawn.h</text>
</a>
</g>
</g>
<!-- Node1&#45;&gt;Node4 -->
<g id="edge3" class="edge">
<title>Node1&#45;&gt;Node4</title>
<path fill="none" stroke="midnightblue" d="M301.01,-143.25C348.95,-132.58 411.05,-118.75 456.86,-108.55"/>
<polygon fill="midnightblue" stroke="midnightblue" points="300,-139.89 291,-145.48 301.52,-146.72 300,-139.89"/>
</g>
<!-- Node4&#45;&gt;Node3 -->
<g id="edge7" class="edge">
<title>Node4&#45;&gt;Node3</title>
<path fill="none" stroke="midnightblue" d="M436.66,-80.3C373.9,-70.79 285.84,-56.76 209,-42 199.57,-40.19 189.61,-38.13 179.9,-36.03"/>
<polygon fill="midnightblue" stroke="midnightblue" points="436.49,-83.82 446.9,-81.85 437.53,-76.89 436.49,-83.82"/>
</g>
<!-- Node5 -->
<g id="node5" class="node">
<title>Node5</title>
<g id="a_node5"><a xlink:href="QuadDroneController_8cpp.html" target="_top" xlink:title=" ">
<polygon fill="white" stroke="black" points="218,-0.5 218,-41.5 360,-41.5 360,-0.5 218,-0.5"/>
<text text-anchor="start" x="226" y="-29.5" font-family="Helvetica,sans-Serif" font-size="10.00">Source/QuadSimCore</text>
<text text-anchor="start" x="226" y="-18.5" font-family="Helvetica,sans-Serif" font-size="10.00">/Private/Controllers</text>
<text text-anchor="middle" x="289" y="-7.5" font-family="Helvetica,sans-Serif" font-size="10.00">/QuadDroneController.cpp</text>
</a>
</g>
</g>
<!-- Node4&#45;&gt;Node5 -->
<g id="edge4" class="edge">
<title>Node4&#45;&gt;Node5</title>
<path fill="none" stroke="midnightblue" d="M464.45,-75.55C430.95,-65.32 388.14,-52.26 353.19,-41.59"/>
<polygon fill="midnightblue" stroke="midnightblue" points="463.5,-78.92 474.09,-78.49 465.54,-72.22 463.5,-78.92"/>
</g>
<!-- Node6 -->
<g id="node6" class="node">
<title>Node6</title>
<g id="a_node6"><a xlink:href="ROS2Controller_8cpp.html" target="_top" xlink:title=" ">
<polygon fill="white" stroke="black" points="378.5,-0.5 378.5,-41.5 497.5,-41.5 497.5,-0.5 378.5,-0.5"/>
<text text-anchor="start" x="386.5" y="-29.5" font-family="Helvetica,sans-Serif" font-size="10.00">Source/QuadSimCore</text>
<text text-anchor="start" x="386.5" y="-18.5" font-family="Helvetica,sans-Serif" font-size="10.00">/Private/Controllers</text>
<text text-anchor="middle" x="438" y="-7.5" font-family="Helvetica,sans-Serif" font-size="10.00">/ROS2Controller.cpp</text>
</a>
</g>
</g>
<!-- Node4&#45;&gt;Node6 -->
<g id="edge5" class="edge">
<title>Node4&#45;&gt;Node6</title>
<path fill="none" stroke="midnightblue" d="M495.76,-71.66C484.69,-62.15 471.66,-50.94 460.78,-41.59"/>
<polygon fill="midnightblue" stroke="midnightblue" points="493.54,-74.37 503.41,-78.23 498.11,-69.06 493.54,-74.37"/>
</g>
<!-- Node7 -->
<g id="node7" class="node">
<title>Node7</title>
<g id="a_node7"><a xlink:href="DroneManager_8cpp.html" target="_top" xlink:title=" ">
<polygon fill="white" stroke="black" points="516,-6 516,-36 690,-36 690,-6 516,-6"/>
<text text-anchor="start" x="524" y="-24" font-family="Helvetica,sans-Serif" font-size="10.00">Source/QuadSimCore</text>
<text text-anchor="middle" x="603" y="-13" font-family="Helvetica,sans-Serif" font-size="10.00">/Private/Core/DroneManager.cpp</text>
</a>
</g>
</g>
<!-- Node4&#45;&gt;Node7 -->
<g id="edge6" class="edge">
<title>Node4&#45;&gt;Node7</title>
<path fill="none" stroke="midnightblue" d="M544.77,-71.46C558.26,-60 574.58,-46.14 586.51,-36"/>
<polygon fill="midnightblue" stroke="midnightblue" points="542.15,-69.09 536.8,-78.23 546.68,-74.43 542.15,-69.09"/>
</g>
<!-- Node8 -->
<g id="node8" class="node">
<title>Node8</title>
<g id="a_node8"><a xlink:href="QuadSimGameMode_8cpp.html" target="_top" xlink:title=" ">
<polygon fill="white" stroke="black" points="708,-6 708,-36 886,-36 886,-6 708,-6"/>
<text text-anchor="start" x="716" y="-24" font-family="Helvetica,sans-Serif" font-size="10.00">Source/QuadSimCore</text>
<text text-anchor="middle" x="797" y="-13" font-family="Helvetica,sans-Serif" font-size="10.00">/Private/QuadSimGameMode.cpp</text>
</a>
</g>
</g>
<!-- Node4&#45;&gt;Node8 -->
<g id="edge8" class="edge">
<title>Node4&#45;&gt;Node8</title>
<path fill="none" stroke="midnightblue" d="M584.95,-75.97C632.52,-63.86 696.4,-47.6 741.57,-36.11"/>
<polygon fill="midnightblue" stroke="midnightblue" points="583.89,-72.63 575.06,-78.49 585.61,-79.41 583.89,-72.63"/>
</g>
<!-- Node9 -->
<g id="node9" class="node">
<title>Node9</title>
<g id="a_node9"><a xlink:href="ImGuiUtil_8cpp.html" target="_top" xlink:title=" ">
<polygon fill="white" stroke="black" points="904.5,-6 904.5,-36 1041.5,-36 1041.5,-6 904.5,-6"/>
<text text-anchor="start" x="912.5" y="-24" font-family="Helvetica,sans-Serif" font-size="10.00">Source/QuadSimCore</text>
<text text-anchor="middle" x="973" y="-13" font-family="Helvetica,sans-Serif" font-size="10.00">/Private/UI/ImGuiUtil.cpp</text>
</a>
</g>
</g>
<!-- Node4&#45;&gt;Node9 -->
<g id="edge9" class="edge">
<title>Node4&#45;&gt;Node9</title>
<path fill="none" stroke="midnightblue" d="M603.03,-84.14C679.33,-75.8 795.34,-61.42 895,-42 903.64,-40.32 912.76,-38.25 921.59,-36.09"/>
<polygon fill="midnightblue" stroke="midnightblue" points="602.57,-80.67 593,-85.23 603.32,-87.63 602.57,-80.67"/>
</g>
<!-- Node10 -->
<g id="node10" class="node">
<title>Node10</title>
<g id="a_node10"><a xlink:href="ObstacleManager_8cpp.html" target="_top" xlink:title=" ">
<polygon fill="white" stroke="black" points="1059.5,-6 1059.5,-36 1254.5,-36 1254.5,-6 1059.5,-6"/>
<text text-anchor="start" x="1067.5" y="-24" font-family="Helvetica,sans-Serif" font-size="10.00">Source/QuadSimCore</text>
<text text-anchor="middle" x="1157" y="-13" font-family="Helvetica,sans-Serif" font-size="10.00">/Private/Utility/ObstacleManager.cpp</text>
</a>
</g>
</g>
<!-- Node4&#45;&gt;Node10 -->
<g id="edge10" class="edge">
<title>Node4&#45;&gt;Node10</title>
<path fill="none" stroke="midnightblue" d="M603.46,-86.94C708.28,-79.41 893.5,-64.3 1051,-42 1062.87,-40.32 1075.43,-38.23 1087.59,-36.04"/>
<polygon fill="midnightblue" stroke="midnightblue" points="602.98,-83.46 593.26,-87.67 603.48,-90.45 602.98,-83.46"/>
</g>
</g>
</svg>
