<?xml version="1.0" encoding="UTF-8" standalone="no"?>
<!DOCTYPE svg PUBLIC "-//W3C//DTD SVG 1.1//EN"
 "http://www.w3.org/Graphics/SVG/1.1/DTD/svg11.dtd">
<!-- Generated by graphviz version 2.43.0 (0)
 -->
<!-- Title: Source/QuadSimCore/Private/Core/ThrusterComponent.cpp Pages: 1 -->
<svg width="779pt" height="151pt"
 viewBox="0.00 0.00 779.00 151.00" xmlns="http://www.w3.org/2000/svg" xmlns:xlink="http://www.w3.org/1999/xlink">
<g id="graph0" class="graph" transform="scale(1 1) rotate(0) translate(4 147)">
<title>Source/QuadSimCore/Private/Core/ThrusterComponent.cpp</title>
<polygon fill="white" stroke="transparent" points="-4,4 -4,-147 775,-147 775,4 -4,4"/>
<!-- Node1 -->
<g id="node1" class="node">
<title>Node1</title>
<g id="a_node1"><a xlink:title=" ">
<polygon fill="#bfbfbf" stroke="black" points="346,-112.5 346,-142.5 546,-142.5 546,-112.5 346,-112.5"/>
<text text-anchor="start" x="354" y="-130.5" font-family="Helvetica,sans-Serif" font-size="10.00">Source/QuadSimCore</text>
<text text-anchor="middle" x="446" y="-119.5" font-family="Helvetica,sans-Serif" font-size="10.00">/Private/Core/ThrusterComponent.cpp</text>
</a>
</g>
</g>
<!-- Node2 -->
<g id="node2" class="node">
<title>Node2</title>
<g id="a_node2"><a xlink:href="ThrusterComponent_8h.html" target="_top" xlink:title=" ">
<polygon fill="white" stroke="black" points="120,-56.5 120,-75.5 268,-75.5 268,-56.5 120,-56.5"/>
<text text-anchor="middle" x="194" y="-63.5" font-family="Helvetica,sans-Serif" font-size="10.00">Core/ThrusterComponent.h</text>
</a>
</g>
</g>
<!-- Node1&#45;&gt;Node2 -->
<g id="edge1" class="edge">
<title>Node1&#45;&gt;Node2</title>
<path fill="none" stroke="midnightblue" d="M386.6,-112.47C341.7,-101.87 280.97,-87.53 239.79,-77.81"/>
<polygon fill="midnightblue" stroke="midnightblue" points="240.56,-74.4 230.03,-75.51 238.96,-81.21 240.56,-74.4"/>
</g>
<!-- Node6 -->
<g id="node6" class="node">
<title>Node6</title>
<g id="a_node6"><a xlink:title=" ">
<polygon fill="white" stroke="#bfbfbf" points="286.5,-56.5 286.5,-75.5 423.5,-75.5 423.5,-56.5 286.5,-56.5"/>
<text text-anchor="middle" x="355" y="-63.5" font-family="Helvetica,sans-Serif" font-size="10.00">GameFramework/Actor.h</text>
</a>
</g>
</g>
<!-- Node1&#45;&gt;Node6 -->
<g id="edge5" class="edge">
<title>Node1&#45;&gt;Node6</title>
<path fill="none" stroke="midnightblue" d="M424.43,-112.4C410.12,-103.04 391.39,-90.79 376.99,-81.38"/>
<polygon fill="midnightblue" stroke="midnightblue" points="378.53,-78.2 368.24,-75.66 374.7,-84.06 378.53,-78.2"/>
</g>
<!-- Node7 -->
<g id="node7" class="node">
<title>Node7</title>
<g id="a_node7"><a xlink:title=" ">
<polygon fill="white" stroke="#bfbfbf" points="441.5,-56.5 441.5,-75.5 632.5,-75.5 632.5,-56.5 441.5,-56.5"/>
<text text-anchor="middle" x="537" y="-63.5" font-family="Helvetica,sans-Serif" font-size="10.00">Components/PrimitiveComponent.h</text>
</a>
</g>
</g>
<!-- Node1&#45;&gt;Node7 -->
<g id="edge6" class="edge">
<title>Node1&#45;&gt;Node7</title>
<path fill="none" stroke="midnightblue" d="M467.57,-112.4C481.88,-103.04 500.61,-90.79 515.01,-81.38"/>
<polygon fill="midnightblue" stroke="midnightblue" points="517.3,-84.06 523.76,-75.66 513.47,-78.2 517.3,-84.06"/>
</g>
<!-- Node8 -->
<g id="node8" class="node">
<title>Node8</title>
<g id="a_node8"><a xlink:title=" ">
<polygon fill="white" stroke="#bfbfbf" points="651,-56.5 651,-75.5 771,-75.5 771,-56.5 651,-56.5"/>
<text text-anchor="middle" x="711" y="-63.5" font-family="Helvetica,sans-Serif" font-size="10.00">DrawDebugHelpers.h</text>
</a>
</g>
</g>
<!-- Node1&#45;&gt;Node8 -->
<g id="edge7" class="edge">
<title>Node1&#45;&gt;Node8</title>
<path fill="none" stroke="midnightblue" d="M508.47,-112.47C555.78,-101.85 619.82,-87.47 663.12,-77.75"/>
<polygon fill="midnightblue" stroke="midnightblue" points="664.12,-81.11 673.11,-75.51 662.59,-74.28 664.12,-81.11"/>
</g>
<!-- Node3 -->
<g id="node3" class="node">
<title>Node3</title>
<g id="a_node3"><a xlink:title=" ">
<polygon fill="white" stroke="#bfbfbf" points="0,-0.5 0,-19.5 88,-19.5 88,-0.5 0,-0.5"/>
<text text-anchor="middle" x="44" y="-7.5" font-family="Helvetica,sans-Serif" font-size="10.00">CoreMinimal.h</text>
</a>
</g>
</g>
<!-- Node2&#45;&gt;Node3 -->
<g id="edge2" class="edge">
<title>Node2&#45;&gt;Node3</title>
<path fill="none" stroke="midnightblue" d="M170.23,-56.44C145.11,-47.4 105.29,-33.06 77.1,-22.92"/>
<polygon fill="midnightblue" stroke="midnightblue" points="78.25,-19.61 67.66,-19.52 75.88,-26.2 78.25,-19.61"/>
</g>
<!-- Node4 -->
<g id="node4" class="node">
<title>Node4</title>
<g id="a_node4"><a xlink:title=" ">
<polygon fill="white" stroke="#bfbfbf" points="106,-0.5 106,-19.5 282,-19.5 282,-0.5 106,-0.5"/>
<text text-anchor="middle" x="194" y="-7.5" font-family="Helvetica,sans-Serif" font-size="10.00">Components/SceneComponent.h</text>
</a>
</g>
</g>
<!-- Node2&#45;&gt;Node4 -->
<g id="edge3" class="edge">
<title>Node2&#45;&gt;Node4</title>
<path fill="none" stroke="midnightblue" d="M194,-56.08C194,-49.01 194,-38.86 194,-29.99"/>
<polygon fill="midnightblue" stroke="midnightblue" points="197.5,-29.75 194,-19.75 190.5,-29.75 197.5,-29.75"/>
</g>
<!-- Node5 -->
<g id="node5" class="node">
<title>Node5</title>
<g id="a_node5"><a xlink:title=" ">
<polygon fill="white" stroke="#bfbfbf" points="300.5,-0.5 300.5,-19.5 475.5,-19.5 475.5,-0.5 300.5,-0.5"/>
<text text-anchor="middle" x="388" y="-7.5" font-family="Helvetica,sans-Serif" font-size="10.00">ThrusterComponent.generated.h</text>
</a>
</g>
</g>
<!-- Node2&#45;&gt;Node5 -->
<g id="edge4" class="edge">
<title>Node2&#45;&gt;Node5</title>
<path fill="none" stroke="midnightblue" d="M224.74,-56.44C257.94,-47.2 310.99,-32.44 347.56,-22.26"/>
<polygon fill="midnightblue" stroke="midnightblue" points="348.71,-25.57 357.4,-19.52 346.83,-18.83 348.71,-25.57"/>
</g>
</g>
</svg>
