<?xml version="1.0" encoding="UTF-8" standalone="no"?>
<!DOCTYPE svg PUBLIC "-//W3C//DTD SVG 1.1//EN"
 "http://www.w3.org/Graphics/SVG/1.1/DTD/svg11.dtd">
<!-- Generated by graphviz version 2.43.0 (0)
 -->
<!-- Title: Source/QuadSimCore/Public/Core/ThrusterComponent.h Pages: 1 -->
<svg width="484pt" height="95pt"
 viewBox="0.00 0.00 483.50 95.00" xmlns="http://www.w3.org/2000/svg" xmlns:xlink="http://www.w3.org/1999/xlink">
<g id="graph0" class="graph" transform="scale(1 1) rotate(0) translate(4 91)">
<title>Source/QuadSimCore/Public/Core/ThrusterComponent.h</title>
<polygon fill="white" stroke="transparent" points="-4,4 -4,-91 479.5,-91 479.5,4 -4,4"/>
<!-- Node1 -->
<g id="node1" class="node">
<title>Node1</title>
<g id="a_node1"><a xlink:title=" ">
<polygon fill="#bfbfbf" stroke="black" points="102.5,-56.5 102.5,-86.5 285.5,-86.5 285.5,-56.5 102.5,-56.5"/>
<text text-anchor="start" x="110.5" y="-74.5" font-family="Helvetica,sans-Serif" font-size="10.00">Source/QuadSimCore</text>
<text text-anchor="middle" x="194" y="-63.5" font-family="Helvetica,sans-Serif" font-size="10.00">/Public/Core/ThrusterComponent.h</text>
</a>
</g>
</g>
<!-- Node2 -->
<g id="node2" class="node">
<title>Node2</title>
<g id="a_node2"><a xlink:title=" ">
<polygon fill="white" stroke="#bfbfbf" points="0,-0.5 0,-19.5 88,-19.5 88,-0.5 0,-0.5"/>
<text text-anchor="middle" x="44" y="-7.5" font-family="Helvetica,sans-Serif" font-size="10.00">CoreMinimal.h</text>
</a>
</g>
</g>
<!-- Node1&#45;&gt;Node2 -->
<g id="edge1" class="edge">
<title>Node1&#45;&gt;Node2</title>
<path fill="none" stroke="midnightblue" d="M158.45,-56.4C133.17,-46.37 99.53,-33.03 75.27,-23.4"/>
<polygon fill="midnightblue" stroke="midnightblue" points="76.41,-20.09 65.83,-19.66 73.83,-26.6 76.41,-20.09"/>
</g>
<!-- Node3 -->
<g id="node3" class="node">
<title>Node3</title>
<g id="a_node3"><a xlink:title=" ">
<polygon fill="white" stroke="#bfbfbf" points="106,-0.5 106,-19.5 282,-19.5 282,-0.5 106,-0.5"/>
<text text-anchor="middle" x="194" y="-7.5" font-family="Helvetica,sans-Serif" font-size="10.00">Components/SceneComponent.h</text>
</a>
</g>
</g>
<!-- Node1&#45;&gt;Node3 -->
<g id="edge2" class="edge">
<title>Node1&#45;&gt;Node3</title>
<path fill="none" stroke="midnightblue" d="M194,-56.4C194,-48.47 194,-38.46 194,-29.86"/>
<polygon fill="midnightblue" stroke="midnightblue" points="197.5,-29.66 194,-19.66 190.5,-29.66 197.5,-29.66"/>
</g>
<!-- Node4 -->
<g id="node4" class="node">
<title>Node4</title>
<g id="a_node4"><a xlink:title=" ">
<polygon fill="white" stroke="#bfbfbf" points="300.5,-0.5 300.5,-19.5 475.5,-19.5 475.5,-0.5 300.5,-0.5"/>
<text text-anchor="middle" x="388" y="-7.5" font-family="Helvetica,sans-Serif" font-size="10.00">ThrusterComponent.generated.h</text>
</a>
</g>
</g>
<!-- Node1&#45;&gt;Node4 -->
<g id="edge3" class="edge">
<title>Node1&#45;&gt;Node4</title>
<path fill="none" stroke="midnightblue" d="M239.98,-56.4C273.64,-46.07 318.78,-32.23 350.32,-22.56"/>
<polygon fill="midnightblue" stroke="midnightblue" points="351.52,-25.85 360.05,-19.57 349.47,-19.16 351.52,-25.85"/>
</g>
</g>
</svg>
